<svg xmlns="http://www.w3.org/2000/svg" width="1000" height="620" viewBox="0 0 1000 620">
<rect width="100%" height="100%" fill="white"/>
<text x="500.0" y="32" text-anchor="middle" font-family="sans-serif" font-size="22">Batch-size sweep: training loss by step</text>
<line x1="90.0" y1="65" x2="90.0" y2="545" stroke="#e5e7eb"/>
<text x="90.0" y="570" text-anchor="middle" font-family="sans-serif" font-size="12">1</text>
<line x1="90" y1="65.0" x2="970" y2="65.0" stroke="#e5e7eb"/>
<text x="78" y="69.0" text-anchor="end" font-family="sans-serif" font-size="12">4.5</text>
<line x1="266.0" y1="65" x2="266.0" y2="545" stroke="#e5e7eb"/>
<text x="266.0" y="570" text-anchor="middle" font-family="sans-serif" font-size="12">201</text>
<line x1="90" y1="161.0" x2="970" y2="161.0" stroke="#e5e7eb"/>
<text x="78" y="165.0" text-anchor="end" font-family="sans-serif" font-size="12">3.84</text>
<line x1="442.0" y1="65" x2="442.0" y2="545" stroke="#e5e7eb"/>
<text x="442.0" y="570" text-anchor="middle" font-family="sans-serif" font-size="12">401</text>
<line x1="90" y1="257.0" x2="970" y2="257.0" stroke="#e5e7eb"/>
<text x="78" y="261.0" text-anchor="end" font-family="sans-serif" font-size="12">3.18</text>
<line x1="618.0" y1="65" x2="618.0" y2="545" stroke="#e5e7eb"/>
<text x="618.0" y="570" text-anchor="middle" font-family="sans-serif" font-size="12">600</text>
<line x1="90" y1="353.0" x2="970" y2="353.0" stroke="#e5e7eb"/>
<text x="78" y="357.0" text-anchor="end" font-family="sans-serif" font-size="12">2.52</text>
<line x1="794.0" y1="65" x2="794.0" y2="545" stroke="#e5e7eb"/>
<text x="794.0" y="570" text-anchor="middle" font-family="sans-serif" font-size="12">800</text>
<line x1="90" y1="449.0" x2="970" y2="449.0" stroke="#e5e7eb"/>
<text x="78" y="453.0" text-anchor="end" font-family="sans-serif" font-size="12">1.86</text>
<line x1="970.0" y1="65" x2="970.0" y2="545" stroke="#e5e7eb"/>
<text x="970.0" y="570" text-anchor="middle" font-family="sans-serif" font-size="12">1e+03</text>
<line x1="90" y1="545.0" x2="970" y2="545.0" stroke="#e5e7eb"/>
<text x="78" y="549.0" text-anchor="end" font-family="sans-serif" font-size="12">1.2</text>
<line x1="90" y1="545" x2="970" y2="545" stroke="#111827" stroke-width="2"/>
<line x1="90" y1="65" x2="90" y2="545" stroke="#111827" stroke-width="2"/>
<text x="530.0" y="600" text-anchor="middle" font-family="sans-serif" font-size="15">step</text>
<text x="20" y="305.0" text-anchor="middle" transform="rotate(-90 20 305.0)" font-family="sans-serif" font-size="15">train_loss</text>
<polyline points="90.0,65.0 90.9,65.0 91.8,65.0 92.6,65.0 93.5,65.0 94.4,65.0 95.3,65.0 96.2,65.0 97.0,65.0 97.9,65.0 98.8,65.0 99.7,65.0 100.6,65.0 101.5,65.0 102.3,65.0 103.2,65.0 104.1,65.0 105.0,65.0 105.9,65.0 106.7,65.0 107.6,65.0 108.5,65.0 109.4,65.0 110.3,65.0 111.1,65.0 112.0,65.0 112.9,65.0 113.8,65.0 114.7,65.0 115.5,65.0 116.4,65.0 117.3,65.0 118.2,65.0 119.1,65.0 119.9,65.0 120.8,65.0 121.7,65.0 122.6,65.0 123.5,65.0 124.4,65.0 125.2,65.0 126.1,65.0 127.0,65.0 127.9,65.0 128.8,65.0 129.6,65.0 130.5,65.0 131.4,65.0 132.3,65.0 133.2,65.0 134.0,65.0 134.9,65.0 135.8,65.0 136.7,65.0 137.6,65.0 138.4,65.0 139.3,65.0 140.2,65.0 141.1,65.0 142.0,65.0 142.9,65.0 143.7,65.0 144.6,65.0 145.5,65.0 146.4,65.0 147.3,65.0 148.1,65.0 149.0,65.0 149.9,65.0 150.8,65.0 151.7,65.0 152.5,65.0 153.4,65.0 154.3,65.0 155.2,65.0 156.1,65.0 156.9,65.0 157.8,65.0 158.7,65.0 159.6,65.0 160.5,65.0 161.4,65.0 162.2,65.0 163.1,65.0 164.0,65.0 164.9,65.0 165.8,65.0 166.6,65.0 167.5,67.1 168.4,65.0 169.3,65.0 170.2,65.0 171.0,65.0 171.9,65.0 172.8,65.0 173.7,65.0 174.6,65.0 175.4,65.0 176.3,65.0 177.2,65.0 178.1,65.0 179.0,65.0 179.8,65.0 180.7,65.0 181.6,65.0 182.5,65.0 183.4,65.0 184.3,68.0 185.1,65.0 186.0,65.0 186.9,65.0 187.8,65.0 188.7,65.0 189.5,65.0 190.4,65.0 191.3,65.0 192.2,65.0 193.1,65.0 193.9,78.3 194.8,113.7 195.7,65.0 196.6,65.7 197.5,65.0 198.3,70.0 199.2,65.0 200.1,96.5 201.0,65.0 201.9,65.0 202.8,97.9 203.6,65.0 204.5,100.7 205.4,65.0 206.3,65.0 207.2,159.9 208.0,65.0 208.9,65.0 209.8,65.0 210.7,121.0 211.6,65.0 212.4,107.0 213.3,65.0 214.2,65.0 215.1,65.0 216.0,65.0 216.8,84.7 217.7,65.0 218.6,65.0 219.5,92.6 220.4,65.0 221.3,65.0 222.1,65.0 223.0,65.0 223.9,73.2 224.8,65.0 225.7,65.0 226.5,65.0 227.4,65.0 228.3,65.0 229.2,109.6 230.1,65.0 230.9,65.0 231.8,120.1 232.7,65.0 233.6,65.0 234.5,65.0 235.3,221.1 236.2,107.4 237.1,65.0 238.0,65.0 238.9,66.2 239.7,136.5 240.6,65.0 241.5,65.0 242.4,65.0 243.3,65.0 244.2,65.0 245.0,112.0 245.9,122.1 246.8,154.5 247.7,65.0 248.6,65.0 249.4,65.0 250.3,126.7 251.2,169.4 252.1,107.9 253.0,65.0 253.8,85.4 254.7,65.0 255.6,78.4 256.5,108.2 257.4,65.0 258.2,178.9 259.1,128.9 260.0,65.0 260.9,178.7 261.8,65.8 262.7,65.0 263.5,158.3 264.4,107.6 265.3,65.0 266.2,168.0 267.1,65.0 267.9,159.5 268.8,65.0 269.7,65.0 270.6,108.9 271.5,101.2 272.3,92.1 273.2,65.0 274.1,89.3 275.0,65.0 275.9,65.0 276.7,65.0 277.6,174.6 278.5,72.9 279.4,65.0 280.3,82.4 281.2,122.8 282.0,65.0 282.9,130.4 283.8,152.2 284.7,65.0 285.6,137.6 286.4,137.1 287.3,141.0 288.2,107.9 289.1,68.0 290.0,135.4 290.8,102.4 291.7,152.6 292.6,71.3 293.5,79.0 294.4,65.0 295.2,127.2 296.1,82.3 297.0,65.0 297.9,164.4 298.8,96.3 299.6,65.0 300.5,179.2 301.4,142.7 302.3,152.0 303.2,134.4 304.1,118.3 304.9,140.0 305.8,104.4 306.7,81.6 307.6,94.3 308.5,65.0 309.3,65.0 310.2,103.9 311.1,189.6 312.0,94.9 312.9,123.2 313.7,95.0 314.6,145.6 315.5,149.9 316.4,184.5 317.3,238.2 318.1,123.8 319.0,133.7 319.9,116.0 320.8,75.4 321.7,76.7 322.6,132.3 323.4,153.4 324.3,143.1 325.2,65.0 326.1,125.8 327.0,65.0 327.8,65.0 328.7,111.0 329.6,65.0 330.5,84.7 331.4,179.1 332.2,99.9 333.1,76.2 334.0,65.0 334.9,147.2 335.8,96.3 336.6,180.7 337.5,65.0 338.4,65.0 339.3,176.5 340.2,200.4 341.1,98.2 341.9,105.0 342.8,136.2 343.7,113.4 344.6,81.5 345.5,103.7 346.3,125.8 347.2,84.2 348.1,65.0 349.0,127.2 349.9,65.0 350.7,134.3 351.6,65.0 352.5,65.0 353.4,68.7 354.3,157.5 355.1,65.0 356.0,65.0 356.9,122.4 357.8,196.0 358.7,65.0 359.5,68.8 360.4,103.7 361.3,167.3 362.2,198.3 363.1,65.0 364.0,121.9 364.8,167.5 365.7,155.0 366.6,65.0 367.5,65.0 368.4,79.5 369.2,65.0 370.1,166.7 371.0,138.5 371.9,100.7 372.8,156.9 373.6,165.7 374.5,145.9 375.4,181.9 376.3,155.8 377.2,88.8 378.0,179.6 378.9,92.9 379.8,139.2 380.7,173.1 381.6,128.2 382.5,214.6 383.3,132.9 384.2,166.2 385.1,143.0 386.0,66.9 386.9,65.0 387.7,106.6 388.6,222.2 389.5,152.0 390.4,158.7 391.3,162.7 392.1,182.2 393.0,93.8 393.9,169.3 394.8,100.0 395.7,171.4 396.5,65.0 397.4,137.7 398.3,65.0 399.2,84.5 400.1,104.3 401.0,94.8 401.8,150.0 402.7,122.3 403.6,146.1 404.5,99.9 405.4,183.2 406.2,161.8 407.1,72.9 408.0,125.7 408.9,128.5 409.8,165.5 410.6,150.0 411.5,193.7 412.4,96.2 413.3,221.7 414.2,158.8 415.0,194.6 415.9,65.0 416.8,83.6 417.7,182.3 418.6,124.8 419.4,139.3 420.3,112.5 421.2,166.3 422.1,65.0 423.0,76.7 423.9,114.1 424.7,111.1 425.6,218.8 426.5,65.0 427.4,137.1 428.3,65.0 429.1,71.0 430.0,154.6 430.9,155.7 431.8,65.0 432.7,65.0 433.5,211.2 434.4,65.0 435.3,127.3 436.2,148.4 437.1,150.2 437.9,174.1 438.8,204.2 439.7,85.1 440.6,123.8 441.5,65.0 442.4,65.0 443.2,145.6 444.1,79.1 445.0,65.0 445.9,161.4 446.8,108.8 447.6,77.4 448.5,107.4 449.4,189.9 450.3,118.9 451.2,65.0 452.0,66.3 452.9,182.5 453.8,65.0 454.7,220.6 455.6,174.3 456.4,105.3 457.3,65.0 458.2,79.8 459.1,72.3 460.0,65.0 460.9,165.7 461.7,175.4 462.6,65.0 463.5,194.2 464.4,65.0 465.3,192.4 466.1,210.6 467.0,210.3 467.9,211.5 468.8,224.2 469.7,172.7 470.5,218.3 471.4,243.7 472.3,212.9 473.2,111.3 474.1,124.4 474.9,65.0 475.8,180.4 476.7,65.0 477.6,65.0 478.5,124.5 479.3,166.6 480.2,65.0 481.1,97.5 482.0,207.3 482.9,68.7 483.8,211.3 484.6,165.0 485.5,84.7 486.4,65.0 487.3,214.0 488.2,183.7 489.0,136.6 489.9,122.7 490.8,203.7 491.7,100.7 492.6,236.8 493.4,95.6 494.3,76.1 495.2,203.7 496.1,68.1 497.0,72.6 497.8,192.2 498.7,192.0 499.6,65.0 500.5,217.9 501.4,178.9 502.3,72.0 503.1,225.4 504.0,140.3 504.9,249.5 505.8,65.0 506.7,168.7 507.5,250.7 508.4,66.7 509.3,194.1 510.2,100.9 511.1,174.5 511.9,174.8 512.8,123.7 513.7,168.4 514.6,181.3 515.5,241.3 516.3,185.5 517.2,112.6 518.1,65.0 519.0,164.3 519.9,147.3 520.8,123.9 521.6,212.6 522.5,203.5 523.4,105.7 524.3,139.4 525.2,221.1 526.0,95.1 526.9,65.0 527.8,189.7 528.7,178.6 529.6,173.6 530.4,198.9 531.3,143.7 532.2,132.0 533.1,65.0 534.0,157.1 534.8,202.4 535.7,136.2 536.6,143.9 537.5,203.1 538.4,213.7 539.2,157.4 540.1,278.0 541.0,104.8 541.9,65.0 542.8,151.0 543.7,183.4 544.5,153.5 545.4,203.3 546.3,188.8 547.2,134.6 548.1,109.6 548.9,193.3 549.8,204.5 550.7,195.1 551.6,203.8 552.5,189.6 553.3,238.5 554.2,198.6 555.1,96.1 556.0,126.5 556.9,190.3 557.7,101.1 558.6,176.9 559.5,228.9 560.4,170.6 561.3,165.8 562.2,202.3 563.0,216.0 563.9,126.5 564.8,167.0 565.7,192.3 566.6,131.9 567.4,215.0 568.3,224.0 569.2,181.9 570.1,143.7 571.0,167.7 571.8,104.7 572.7,135.3 573.6,214.5 574.5,131.5 575.4,75.0 576.2,213.9 577.1,143.1 578.0,177.0 578.9,205.9 579.8,172.6 580.7,228.0 581.5,249.5 582.4,82.0 583.3,95.3 584.2,101.6 585.1,213.4 585.9,166.7 586.8,140.7 587.7,208.3 588.6,261.7 589.5,230.3 590.3,208.0 591.2,229.9 592.1,237.7 593.0,79.9 593.9,240.9 594.7,202.1 595.6,217.5 596.5,139.0 597.4,245.5 598.3,113.6 599.1,143.7 600.0,234.6 600.9,268.8 601.8,232.6 602.7,112.8 603.6,112.0 604.4,141.2 605.3,96.0 606.2,79.4 607.1,207.6 608.0,194.9 608.8,257.5 609.7,198.2 610.6,169.2 611.5,169.9 612.4,181.5 613.2,131.2 614.1,112.7 615.0,135.0 615.9,170.6 616.8,184.6 617.6,152.6 618.5,261.9 619.4,135.3 620.3,237.8 621.2,78.8 622.1,193.6 622.9,146.9 623.8,91.0 624.7,130.2 625.6,220.4 626.5,69.4 627.3,146.2 628.2,243.7 629.1,158.5 630.0,164.8 630.9,181.4 631.7,96.0 632.6,121.3 633.5,179.7 634.4,159.0 635.3,153.6 636.1,214.0 637.0,195.4 637.9,117.1 638.8,250.3 639.7,65.0 640.6,131.3 641.4,117.7 642.3,192.9 643.2,184.5 644.1,165.1 645.0,199.5 645.8,112.8 646.7,188.0 647.6,219.6 648.5,232.1 649.4,255.6 650.2,181.4 651.1,83.3 652.0,150.5 652.9,126.7 653.8,186.3 654.6,109.3 655.5,183.4 656.4,210.1 657.3,258.4 658.2,115.7 659.0,65.0 659.9,185.8 660.8,65.0 661.7,169.2 662.6,228.4 663.5,207.9 664.3,200.1 665.2,165.8 666.1,73.3 667.0,83.1 667.9,103.2 668.7,221.4 669.6,211.3 670.5,165.4 671.4,197.0 672.3,203.4 673.1,208.1 674.0,153.0 674.9,189.8 675.8,143.2 676.7,225.8 677.5,126.0 678.4,139.2 679.3,198.9 680.2,142.2 681.1,219.2 682.0,147.6 682.8,266.3 683.7,205.2 684.6,194.5 685.5,253.9 686.4,145.8 687.2,94.5 688.1,129.1 689.0,243.5 689.9,246.4 690.8,100.0 691.6,193.7 692.5,104.8 693.4,65.0 694.3,190.7 695.2,216.1 696.0,83.5 696.9,269.9 697.8,188.1 698.7,237.9 699.6,134.2 700.5,262.8 701.3,86.9 702.2,94.6 703.1,236.0 704.0,244.8 704.9,199.2 705.7,147.9 706.6,228.8 707.5,193.1 708.4,237.7 709.3,235.2 710.1,156.4 711.0,65.0 711.9,179.9 712.8,266.3 713.7,234.5 714.5,194.2 715.4,188.1 716.3,137.6 717.2,192.3 718.1,96.5 718.9,101.8 719.8,121.3 720.7,72.3 721.6,102.9 722.5,111.4 723.4,74.7 724.2,89.9 725.1,272.4 726.0,170.3 726.9,88.3 727.8,196.9 728.6,198.4 729.5,223.2 730.4,161.5 731.3,65.0 732.2,263.4 733.0,283.7 733.9,211.7 734.8,176.8 735.7,164.9 736.6,177.5 737.4,130.3 738.3,205.8 739.2,239.6 740.1,139.8 741.0,171.7 741.9,196.8 742.7,235.2 743.6,244.6 744.5,131.7 745.4,196.3 746.3,196.7 747.1,248.9 748.0,65.0 748.9,75.6 749.8,156.6 750.7,198.5 751.5,175.8 752.4,304.1 753.3,275.5 754.2,228.9 755.1,156.6 755.9,234.7 756.8,251.7 757.7,144.2 758.6,164.9 759.5,277.5 760.4,126.3 761.2,153.8 762.1,170.1 763.0,210.9 763.9,236.4 764.8,65.0 765.6,95.5 766.5,209.3 767.4,121.9 768.3,152.5 769.2,343.5 770.0,263.0 770.9,291.7 771.8,179.6 772.7,210.5 773.6,263.3 774.4,244.2 775.3,69.9 776.2,132.0 777.1,265.5 778.0,215.8 778.8,214.6 779.7,183.6 780.6,142.1 781.5,188.4 782.4,194.7 783.3,107.0 784.1,215.9 785.0,101.7 785.9,185.0 786.8,151.0 787.7,321.5 788.5,182.9 789.4,227.9 790.3,218.9 791.2,234.0 792.1,143.6 792.9,172.8 793.8,259.5 794.7,202.5 795.6,65.0 796.5,216.0 797.3,262.7 798.2,238.3 799.1,240.0 800.0,127.4 800.9,65.0 801.8,151.5 802.6,65.0 803.5,205.0 804.4,229.2 805.3,235.8 806.2,248.0 807.0,215.9 807.9,261.5 808.8,241.5 809.7,191.0 810.6,242.3 811.4,184.1 812.3,298.6 813.2,277.1 814.1,89.7 815.0,193.4 815.8,176.9 816.7,116.9 817.6,184.8 818.5,242.0 819.4,80.3 820.3,118.5 821.1,94.8 822.0,258.2 822.9,145.0 823.8,121.8 824.7,205.3 825.5,204.1 826.4,232.3 827.3,248.3 828.2,95.3 829.1,221.1 829.9,190.2 830.8,232.7 831.7,264.1 832.6,216.7 833.5,115.0 834.3,165.4 835.2,136.4 836.1,187.4 837.0,214.1 837.9,272.5 838.7,126.7 839.6,225.3 840.5,212.0 841.4,84.0 842.3,222.9 843.2,149.1 844.0,65.0 844.9,206.0 845.8,171.5 846.7,228.8 847.6,65.0 848.4,224.6 849.3,65.0 850.2,149.3 851.1,222.2 852.0,65.0 852.8,92.2 853.7,240.3 854.6,166.6 855.5,138.2 856.4,223.9 857.2,106.6 858.1,207.0 859.0,227.7 859.9,168.8 860.8,226.6 861.7,77.6 862.5,195.1 863.4,233.8 864.3,65.0 865.2,65.0 866.1,231.7 866.9,171.3 867.8,96.5 868.7,173.2 869.6,124.0 870.5,65.0 871.3,202.9 872.2,250.2 873.1,289.9 874.0,292.6 874.9,155.8 875.7,233.3 876.6,119.1 877.5,198.9 878.4,187.1 879.3,231.0 880.2,173.1 881.0,233.1 881.9,106.6 882.8,277.8 883.7,188.9 884.6,267.5 885.4,230.0 886.3,148.2 887.2,246.3 888.1,184.9 889.0,136.6 889.8,69.6 890.7,301.9 891.6,176.6 892.5,162.6 893.4,65.0 894.2,168.2 895.1,180.0 896.0,237.4 896.9,122.5 897.8,170.3 898.6,158.7 899.5,108.8 900.4,275.5 901.3,275.9 902.2,181.9 903.1,146.3 903.9,97.9 904.8,221.8 905.7,119.9 906.6,211.4 907.5,65.0 908.3,258.3 909.2,188.3 910.1,168.0 911.0,176.5 911.9,148.0 912.7,100.4 913.6,144.3 914.5,65.0 915.4,169.6 916.3,200.7 917.1,108.2 918.0,210.9 918.9,205.4 919.8,209.1 920.7,95.4 921.6,268.3 922.4,182.1 923.3,204.1 924.2,273.0 925.1,172.2 926.0,131.9 926.8,229.2 927.7,201.9 928.6,129.7 929.5,76.8 930.4,170.6 931.2,213.9 932.1,208.6 933.0,236.9 933.9,126.1 934.8,68.1 935.6,235.6 936.5,209.1 937.4,174.1 938.3,234.7 939.2,65.0 940.1,214.9 940.9,239.7 941.8,241.8 942.7,133.2 943.6,235.6 944.5,218.5 945.3,218.2 946.2,133.7 947.1,130.1 948.0,201.2 948.9,268.3 949.7,172.7 950.6,156.5 951.5,201.7 952.4,268.1 953.3,189.9 954.1,178.0 955.0,164.5 955.9,100.0 956.8,221.0 957.7,127.0 958.5,216.8 959.4,65.0 960.3,203.5 961.2,93.9 962.1,65.0 963.0,101.1 963.8,234.6 964.7,278.4 965.6,212.0 966.5,101.4 967.4,178.4 968.2,225.9 969.1,165.2 970.0,199.3" fill="none" stroke="#2563eb" stroke-width="2.2"/>
<line x1="102" y1="83" x2="126" y2="83" stroke="#2563eb" stroke-width="3"/>
<text x="133" y="87" font-family="sans-serif" font-size="12">b1</text>
<polyline points="90.0,65.0 90.9,65.0 91.8,65.0 92.6,65.0 93.5,65.0 94.4,65.0 95.3,65.0 96.2,65.0 97.0,65.0 97.9,65.0 98.8,65.0 99.7,65.0 100.6,65.0 101.5,65.0 102.3,65.0 103.2,65.0 104.1,65.0 105.0,65.0 105.9,65.0 106.7,65.0 107.6,65.0 108.5,65.0 109.4,65.0 110.3,65.0 111.1,65.0 112.0,65.0 112.9,65.0 113.8,65.0 114.7,65.0 115.5,65.0 116.4,68.7 117.3,72.8 118.2,75.7 119.1,98.7 119.9,100.6 120.8,99.3 121.7,106.4 122.6,119.4 123.5,127.9 124.4,127.5 125.2,131.4 126.1,136.7 127.0,147.7 127.9,129.3 128.8,149.6 129.6,140.5 130.5,156.6 131.4,158.7 132.3,163.8 133.2,164.3 134.0,162.1 134.9,172.9 135.8,173.9 136.7,167.9 137.6,176.5 138.4,182.9 139.3,189.3 140.2,195.8 141.1,190.6 142.0,185.4 142.9,199.3 143.7,196.7 144.6,193.8 145.5,193.7 146.4,202.3 147.3,197.9 148.1,201.2 149.0,208.6 149.9,206.0 150.8,211.8 151.7,203.4 152.5,212.0 153.4,208.1 154.3,218.4 155.2,230.1 156.1,211.6 156.9,229.8 157.8,212.7 158.7,245.2 159.6,231.5 160.5,236.3 161.4,246.9 162.2,241.5 163.1,248.6 164.0,223.6 164.9,252.9 165.8,247.4 166.6,252.3 167.5,263.1 168.4,249.6 169.3,262.5 170.2,258.4 171.0,269.6 171.9,251.6 172.8,266.7 173.7,260.0 174.6,280.6 175.4,268.8 176.3,266.3 177.2,259.7 178.1,261.6 179.0,268.4 179.8,276.0 180.7,263.7 181.6,282.5 182.5,288.0 183.4,277.4 184.3,272.7 185.1,288.7 186.0,264.4 186.9,274.8 187.8,286.4 188.7,277.6 189.5,288.6 190.4,291.6 191.3,289.8 192.2,297.9 193.1,295.5 193.9,301.5 194.8,299.1 195.7,300.0 196.6,297.9 197.5,292.0 198.3,298.1 199.2,302.6 200.1,302.5 201.0,298.2 201.9,301.5 202.8,296.6 203.6,311.8 204.5,292.0 205.4,304.2 206.3,318.4 207.2,306.5 208.0,295.1 208.9,303.8 209.8,322.4 210.7,303.2 211.6,307.4 212.4,311.2 213.3,308.6 214.2,319.7 215.1,303.2 216.0,315.0 216.8,311.3 217.7,309.2 218.6,307.4 219.5,303.5 220.4,320.1 221.3,326.1 222.1,318.4 223.0,324.2 223.9,317.4 224.8,314.0 225.7,306.5 226.5,327.2 227.4,317.7 228.3,324.4 229.2,326.6 230.1,315.3 230.9,325.1 231.8,336.6 232.7,311.3 233.6,330.5 234.5,327.4 235.3,313.2 236.2,327.7 237.1,332.8 238.0,320.2 238.9,330.3 239.7,331.0 240.6,331.2 241.5,330.7 242.4,325.9 243.3,333.6 244.2,324.4 245.0,330.9 245.9,336.7 246.8,322.2 247.7,332.7 248.6,320.7 249.4,334.5 250.3,324.1 251.2,331.0 252.1,339.5 253.0,338.3 253.8,341.3 254.7,326.7 255.6,331.9 256.5,342.2 257.4,333.1 258.2,329.2 259.1,346.5 260.0,337.0 260.9,350.2 261.8,342.4 262.7,349.7 263.5,338.2 264.4,344.1 265.3,341.6 266.2,343.9 267.1,339.1 267.9,344.7 268.8,349.4 269.7,345.1 270.6,342.1 271.5,335.5 272.3,334.3 273.2,347.2 274.1,342.6 275.0,347.8 275.9,350.3 276.7,338.3 277.6,338.9 278.5,347.6 279.4,321.2 280.3,348.7 281.2,346.6 282.0,354.8 282.9,346.5 283.8,371.9 284.7,353.5 285.6,349.5 286.4,345.7 287.3,360.5 288.2,328.8 289.1,350.8 290.0,350.8 290.8,360.2 291.7,360.9 292.6,355.9 293.5,348.1 294.4,363.4 295.2,359.2 296.1,349.1 297.0,360.1 297.9,360.9 298.8,350.2 299.6,354.8 300.5,363.3 301.4,347.7 302.3,364.3 303.2,356.0 304.1,356.9 304.9,365.6 305.8,363.3 306.7,356.5 307.6,360.6 308.5,365.5 309.3,361.0 310.2,367.8 311.1,351.3 312.0,367.3 312.9,360.7 313.7,370.5 314.6,349.5 315.5,362.7 316.4,371.1 317.3,354.0 318.1,375.4 319.0,365.4 319.9,366.9 320.8,361.2 321.7,356.9 322.6,360.1 323.4,358.8 324.3,365.9 325.2,361.8 326.1,362.5 327.0,371.9 327.8,356.9 328.7,360.0 329.6,346.2 330.5,368.8 331.4,383.0 332.2,362.0 333.1,361.9 334.0,371.1 334.9,367.1 335.8,350.7 336.6,374.3 337.5,372.1 338.4,361.4 339.3,356.2 340.2,369.8 341.1,383.2 341.9,374.7 342.8,376.4 343.7,368.6 344.6,367.6 345.5,372.1 346.3,384.1 347.2,363.5 348.1,370.4 349.0,373.0 349.9,387.7 350.7,380.2 351.6,383.4 352.5,364.0 353.4,365.6 354.3,370.7 355.1,388.9 356.0,369.1 356.9,369.4 357.8,356.9 358.7,374.6 359.5,369.1 360.4,382.8 361.3,375.1 362.2,366.7 363.1,371.9 364.0,376.8 364.8,371.2 365.7,372.1 366.6,374.9 367.5,378.6 368.4,374.4 369.2,379.1 370.1,380.0 371.0,365.5 371.9,374.5 372.8,385.8 373.6,365.2 374.5,376.0 375.4,383.7 376.3,387.1 377.2,376.7 378.0,392.0 378.9,362.8 379.8,378.0 380.7,365.9 381.6,365.3 382.5,377.0 383.3,388.3 384.2,372.8 385.1,387.9 386.0,372.1 386.9,383.8 387.7,380.9 388.6,394.5 389.5,384.2 390.4,370.8 391.3,383.4 392.1,392.2 393.0,390.5 393.9,384.2 394.8,387.0 395.7,388.8 396.5,381.3 397.4,397.7 398.3,383.7 399.2,379.6 400.1,384.9 401.0,387.1 401.8,393.8 402.7,379.3 403.6,381.0 404.5,384.6 405.4,385.2 406.2,383.0 407.1,386.0 408.0,394.3 408.9,384.1 409.8,395.3 410.6,386.6 411.5,375.9 412.4,397.5 413.3,383.6 414.2,385.7 415.0,380.8 415.9,382.2 416.8,383.2 417.7,395.1 418.6,380.3 419.4,395.0 420.3,389.7 421.2,397.9 422.1,393.9 423.0,385.9 423.9,392.1 424.7,396.0 425.6,395.5 426.5,394.8 427.4,398.4 428.3,380.9 429.1,392.4 430.0,389.7 430.9,384.5 431.8,401.3 432.7,394.1 433.5,381.9 434.4,386.7 435.3,399.2 436.2,400.8 437.1,395.4 437.9,380.7 438.8,383.4 439.7,401.8 440.6,400.8 441.5,396.3 442.4,386.6 443.2,392.2 444.1,390.4 445.0,392.2 445.9,399.4 446.8,403.0 447.6,405.5 448.5,386.8 449.4,391.0 450.3,410.2 451.2,410.5 452.0,406.9 452.9,392.1 453.8,404.6 454.7,391.2 455.6,385.1 456.4,389.4 457.3,389.5 458.2,397.9 459.1,393.3 460.0,396.8 460.9,389.8 461.7,398.2 462.6,404.2 463.5,394.1 464.4,398.2 465.3,403.5 466.1,392.5 467.0,396.0 467.9,399.3 468.8,402.7 469.7,393.4 470.5,394.4 471.4,402.1 472.3,389.7 473.2,397.4 474.1,409.9 474.9,410.4 475.8,403.2 476.7,390.7 477.6,409.4 478.5,413.0 479.3,398.8 480.2,400.5 481.1,395.7 482.0,408.3 482.9,397.1 483.8,413.4 484.6,400.1 485.5,399.0 486.4,391.5 487.3,409.8 488.2,404.9 489.0,386.0 489.9,417.5 490.8,396.4 491.7,416.6 492.6,409.7 493.4,410.3 494.3,415.0 495.2,396.2 496.1,406.3 497.0,407.5 497.8,406.7 498.7,403.4 499.6,386.9 500.5,402.3 501.4,411.2 502.3,405.9 503.1,385.4 504.0,422.1 504.9,397.6 505.8,414.0 506.7,404.7 507.5,412.8 508.4,405.4 509.3,406.0 510.2,408.7 511.1,411.5 511.9,424.5 512.8,406.5 513.7,400.9 514.6,398.1 515.5,395.8 516.3,397.4 517.2,408.5 518.1,412.7 519.0,398.9 519.9,415.2 520.8,417.3 521.6,406.0 522.5,414.6 523.4,402.2 524.3,406.1 525.2,407.9 526.0,401.3 526.9,402.0 527.8,417.5 528.7,401.7 529.6,419.7 530.4,401.3 531.3,415.2 532.2,415.2 533.1,403.8 534.0,402.3 534.8,397.2 535.7,414.0 536.6,419.9 537.5,418.0 538.4,418.4 539.2,404.1 540.1,426.7 541.0,415.8 541.9,403.4 542.8,399.6 543.7,406.3 544.5,405.0 545.4,423.5 546.3,406.5 547.2,423.1 548.1,394.2 548.9,413.7 549.8,420.5 550.7,413.3 551.6,417.1 552.5,403.2 553.3,415.6 554.2,409.3 555.1,421.7 556.0,416.0 556.9,404.3 557.7,416.4 558.6,414.4 559.5,409.1 560.4,395.3 561.3,412.5 562.2,425.1 563.0,415.5 563.9,400.8 564.8,421.9 565.7,425.2 566.6,401.5 567.4,411.6 568.3,413.3 569.2,414.0 570.1,431.3 571.0,402.4 571.8,426.7 572.7,412.6 573.6,410.5 574.5,407.6 575.4,424.3 576.2,416.1 577.1,422.3 578.0,427.4 578.9,433.8 579.8,412.9 580.7,417.9 581.5,409.5 582.4,414.1 583.3,423.8 584.2,418.4 585.1,404.9 585.9,421.0 586.8,431.6 587.7,420.1 588.6,401.3 589.5,413.7 590.3,430.8 591.2,422.9 592.1,416.4 593.0,411.0 593.9,405.6 594.7,409.9 595.6,425.4 596.5,411.2 597.4,426.6 598.3,425.7 599.1,421.9 600.0,417.1 600.9,415.8 601.8,414.2 602.7,420.5 603.6,437.1 604.4,424.3 605.3,420.7 606.2,427.1 607.1,416.4 608.0,422.3 608.8,421.2 609.7,434.1 610.6,421.3 611.5,423.5 612.4,428.9 613.2,423.8 614.1,431.0 615.0,424.0 615.9,410.9 616.8,414.5 617.6,419.8 618.5,416.7 619.4,426.8 620.3,418.5 621.2,432.2 622.1,421.8 622.9,422.2 623.8,420.7 624.7,429.5 625.6,425.5 626.5,417.5 627.3,427.8 628.2,436.8 629.1,428.0 630.0,423.8 630.9,415.3 631.7,410.2 632.6,430.0 633.5,411.8 634.4,420.3 635.3,428.8 636.1,425.5 637.0,415.6 637.9,434.1 638.8,426.6 639.7,427.4 640.6,421.5 641.4,430.5 642.3,425.5 643.2,427.7 644.1,412.0 645.0,426.6 645.8,405.0 646.7,411.8 647.6,424.8 648.5,430.1 649.4,410.7 650.2,428.0 651.1,421.5 652.0,410.5 652.9,438.9 653.8,411.3 654.6,425.3 655.5,421.1 656.4,418.9 657.3,419.2 658.2,432.5 659.0,439.3 659.9,438.8 660.8,438.2 661.7,422.7 662.6,430.2 663.5,416.5 664.3,422.2 665.2,429.6 666.1,425.2 667.0,426.7 667.9,423.5 668.7,414.4 669.6,427.8 670.5,430.3 671.4,418.2 672.3,430.2 673.1,423.2 674.0,433.1 674.9,443.5 675.8,431.2 676.7,431.3 677.5,426.5 678.4,409.1 679.3,435.8 680.2,443.5 681.1,423.2 682.0,420.9 682.8,433.4 683.7,422.8 684.6,428.2 685.5,426.5 686.4,425.4 687.2,427.5 688.1,435.9 689.0,424.9 689.9,430.0 690.8,433.2 691.6,440.6 692.5,418.1 693.4,431.4 694.3,431.8 695.2,437.0 696.0,424.9 696.9,425.0 697.8,441.7 698.7,419.3 699.6,410.1 700.5,430.9 701.3,433.2 702.2,438.3 703.1,430.1 704.0,428.0 704.9,438.2 705.7,445.5 706.6,429.7 707.5,441.2 708.4,430.6 709.3,425.5 710.1,435.6 711.0,404.4 711.9,433.9 712.8,425.7 713.7,440.0 714.5,427.2 715.4,424.4 716.3,430.3 717.2,431.7 718.1,431.4 718.9,434.9 719.8,425.8 720.7,439.2 721.6,442.0 722.5,423.2 723.4,428.2 724.2,423.5 725.1,429.1 726.0,421.8 726.9,446.0 727.8,439.5 728.6,422.6 729.5,431.9 730.4,425.6 731.3,441.0 732.2,436.6 733.0,439.2 733.9,430.4 734.8,432.8 735.7,437.9 736.6,428.1 737.4,438.8 738.3,440.5 739.2,428.1 740.1,434.9 741.0,422.9 741.9,439.8 742.7,431.9 743.6,439.9 744.5,439.1 745.4,430.6 746.3,443.0 747.1,440.0 748.0,441.8 748.9,437.6 749.8,435.3 750.7,443.8 751.5,434.1 752.4,433.0 753.3,456.4 754.2,429.6 755.1,443.1 755.9,445.7 756.8,431.1 757.7,439.2 758.6,445.7 759.5,435.6 760.4,430.0 761.2,430.1 762.1,433.6 763.0,439.8 763.9,436.0 764.8,438.5 765.6,450.5 766.5,448.8 767.4,437.4 768.3,436.3 769.2,420.4 770.0,430.9 770.9,433.4 771.8,444.4 772.7,437.3 773.6,428.0 774.4,437.8 775.3,438.6 776.2,438.4 777.1,438.4 778.0,427.6 778.8,423.5 779.7,439.7 780.6,428.6 781.5,440.1 782.4,440.2 783.3,428.1 784.1,434.9 785.0,429.1 785.9,442.2 786.8,435.9 787.7,444.7 788.5,435.8 789.4,442.4 790.3,427.9 791.2,440.5 792.1,439.7 792.9,435.2 793.8,428.8 794.7,432.3 795.6,439.1 796.5,432.0 797.3,443.1 798.2,444.5 799.1,446.8 800.0,426.8 800.9,436.4 801.8,440.8 802.6,445.5 803.5,440.4 804.4,449.1 805.3,433.9 806.2,442.3 807.0,439.4 807.9,441.8 808.8,437.1 809.7,450.3 810.6,435.5 811.4,442.4 812.3,453.0 813.2,440.6 814.1,448.8 815.0,433.1 815.8,447.6 816.7,433.7 817.6,440.2 818.5,432.0 819.4,446.9 820.3,442.0 821.1,447.9 822.0,448.0 822.9,448.2 823.8,430.0 824.7,456.1 825.5,443.5 826.4,431.7 827.3,458.0 828.2,447.0 829.1,438.5 829.9,443.8 830.8,437.3 831.7,433.9 832.6,446.0 833.5,442.2 834.3,444.6 835.2,433.2 836.1,441.6 837.0,442.3 837.9,434.0 838.7,430.3 839.6,448.7 840.5,440.1 841.4,448.8 842.3,449.6 843.2,448.4 844.0,439.5 844.9,438.8 845.8,429.7 846.7,437.7 847.6,435.4 848.4,440.8 849.3,444.2 850.2,454.7 851.1,426.1 852.0,454.8 852.8,447.1 853.7,445.6 854.6,435.8 855.5,426.1 856.4,437.5 857.2,449.8 858.1,453.9 859.0,435.9 859.9,454.8 860.8,444.1 861.7,444.0 862.5,454.5 863.4,439.2 864.3,425.5 865.2,443.7 866.1,448.6 866.9,432.0 867.8,445.4 868.7,449.4 869.6,434.2 870.5,444.9 871.3,447.1 872.2,441.2 873.1,443.7 874.0,430.4 874.9,450.3 875.7,449.8 876.6,448.4 877.5,439.8 878.4,432.1 879.3,429.8 880.2,441.7 881.0,444.3 881.9,438.6 882.8,437.8 883.7,449.7 884.6,438.5 885.4,438.4 886.3,447.4 887.2,434.4 888.1,440.0 889.0,442.1 889.8,440.3 890.7,446.1 891.6,444.5 892.5,445.1 893.4,429.4 894.2,433.4 895.1,438.4 896.0,451.4 896.9,445.6 897.8,451.8 898.6,443.1 899.5,444.6 900.4,463.2 901.3,439.8 902.2,450.2 903.1,453.4 903.9,445.6 904.8,461.2 905.7,446.4 906.6,455.5 907.5,453.2 908.3,455.7 909.2,440.9 910.1,435.4 911.0,457.0 911.9,439.9 912.7,448.3 913.6,455.0 914.5,443.4 915.4,449.0 916.3,443.9 917.1,441.1 918.0,452.1 918.9,440.2 919.8,441.6 920.7,448.2 921.6,454.6 922.4,435.4 923.3,450.3 924.2,441.2 925.1,443.3 926.0,433.9 926.8,428.1 927.7,455.6 928.6,439.7 929.5,442.2 930.4,443.1 931.2,443.9 932.1,438.7 933.0,449.4 933.9,448.9 934.8,437.1 935.6,445.8 936.5,448.4 937.4,436.3 938.3,441.2 939.2,441.6 940.1,445.9 940.9,455.2 941.8,442.7 942.7,429.5 943.6,443.8 944.5,449.2 945.3,441.9 946.2,447.4 947.1,442.2 948.0,448.8 948.9,438.0 949.7,452.2 950.6,456.3 951.5,457.1 952.4,447.4 953.3,447.5 954.1,447.7 955.0,439.1 955.9,442.5 956.8,442.6 957.7,441.7 958.5,455.2 959.4,449.7 960.3,434.4 961.2,454.1 962.1,452.5 963.0,446.8 963.8,436.7 964.7,445.7 965.6,446.9 966.5,447.5 967.4,443.7 968.2,442.1 969.1,449.9 970.0,444.6" fill="none" stroke="#dc2626" stroke-width="2.2"/>
<line x1="307" y1="83" x2="331" y2="83" stroke="#dc2626" stroke-width="3"/>
<text x="338" y="87" font-family="sans-serif" font-size="12">b64</text>
<polyline points="90.0,65.0 90.9,65.0 91.8,65.0 92.6,65.0 93.5,65.0 94.4,65.0 95.3,65.0 96.2,65.0 97.0,65.0 97.9,65.0 98.8,65.0 99.7,65.0 100.6,65.0 101.5,65.0 102.3,65.0 103.2,65.0 104.1,65.0 105.0,65.0 105.9,65.0 106.7,65.0 107.6,65.0 108.5,65.0 109.4,65.0 110.3,65.0 111.1,65.0 112.0,65.0 112.9,66.8 113.8,78.2 114.7,90.6 115.5,107.6 116.4,106.5 117.3,109.1 118.2,114.4 119.1,125.5 119.9,129.1 120.8,136.2 121.7,147.7 122.6,144.2 123.5,154.6 124.4,149.1 125.2,152.7 126.1,157.7 127.0,156.6 127.9,149.8 128.8,159.8 129.6,168.8 130.5,168.5 131.4,184.2 132.3,188.8 133.2,189.6 134.0,185.9 134.9,188.4 135.8,196.3 136.7,205.8 137.6,200.4 138.4,197.5 139.3,204.0 140.2,208.8 141.1,207.3 142.0,211.3 142.9,226.1 143.7,220.2 144.6,220.5 145.5,223.3 146.4,228.2 147.3,234.7 148.1,247.0 149.0,241.5 149.9,244.8 150.8,242.6 151.7,251.3 152.5,247.0 153.4,253.7 154.3,252.4 155.2,257.2 156.1,257.5 156.9,259.9 157.8,262.1 158.7,271.7 159.6,262.2 160.5,265.1 161.4,263.5 162.2,282.4 163.1,287.0 164.0,266.6 164.9,278.4 165.8,281.2 166.6,286.8 167.5,279.5 168.4,283.0 169.3,283.6 170.2,292.6 171.0,284.9 171.9,294.3 172.8,295.6 173.7,292.0 174.6,302.1 175.4,298.2 176.3,292.8 177.2,299.8 178.1,305.1 179.0,297.4 179.8,303.8 180.7,299.8 181.6,310.7 182.5,314.1 183.4,312.0 184.3,311.9 185.1,313.3 186.0,295.5 186.9,315.8 187.8,308.9 188.7,319.3 189.5,317.5 190.4,323.4 191.3,320.3 192.2,319.3 193.1,321.6 193.9,319.3 194.8,321.5 195.7,320.2 196.6,323.8 197.5,323.6 198.3,310.3 199.2,331.7 200.1,335.9 201.0,333.2 201.9,330.7 202.8,321.2 203.6,332.3 204.5,338.9 205.4,332.7 206.3,339.1 207.2,337.8 208.0,334.8 208.9,336.1 209.8,338.9 210.7,343.7 211.6,342.4 212.4,344.6 213.3,340.9 214.2,336.5 215.1,345.9 216.0,344.1 216.8,342.6 217.7,345.8 218.6,343.4 219.5,342.6 220.4,355.5 221.3,348.7 222.1,348.8 223.0,337.6 223.9,355.0 224.8,348.7 225.7,348.6 226.5,342.8 227.4,350.3 228.3,349.6 229.2,357.9 230.1,360.5 230.9,357.1 231.8,354.6 232.7,355.8 233.6,367.3 234.5,362.3 235.3,349.3 236.2,360.0 237.1,353.8 238.0,354.9 238.9,361.9 239.7,366.3 240.6,359.6 241.5,355.2 242.4,361.5 243.3,366.7 244.2,352.3 245.0,362.1 245.9,368.0 246.8,358.6 247.7,364.9 248.6,361.3 249.4,366.2 250.3,370.4 251.2,359.1 252.1,363.2 253.0,369.7 253.8,370.3 254.7,367.2 255.6,360.9 256.5,358.6 257.4,369.9 258.2,366.3 259.1,372.9 260.0,378.4 260.9,365.5 261.8,381.0 262.7,375.5 263.5,375.8 264.4,383.0 265.3,374.6 266.2,382.2 267.1,371.7 267.9,367.5 268.8,382.1 269.7,378.7 270.6,372.7 271.5,380.6 272.3,373.8 273.2,371.7 274.1,381.5 275.0,377.8 275.9,385.6 276.7,378.5 277.6,385.9 278.5,385.2 279.4,378.3 280.3,375.9 281.2,383.8 282.0,381.6 282.9,384.0 283.8,383.6 284.7,373.5 285.6,389.2 286.4,381.9 287.3,388.6 288.2,381.4 289.1,381.1 290.0,379.3 290.8,389.1 291.7,387.1 292.6,389.0 293.5,380.3 294.4,386.1 295.2,392.8 296.1,386.6 297.0,393.9 297.9,402.7 298.8,385.3 299.6,383.5 300.5,381.3 301.4,389.2 302.3,384.8 303.2,394.0 304.1,388.3 304.9,391.2 305.8,393.4 306.7,391.0 307.6,388.7 308.5,388.0 309.3,399.0 310.2,396.9 311.1,393.4 312.0,386.2 312.9,393.1 313.7,391.8 314.6,402.2 315.5,386.3 316.4,390.3 317.3,401.0 318.1,398.5 319.0,404.5 319.9,399.1 320.8,400.0 321.7,381.8 322.6,396.1 323.4,390.7 324.3,398.9 325.2,399.0 326.1,399.9 327.0,400.7 327.8,409.8 328.7,400.6 329.6,387.4 330.5,392.8 331.4,397.2 332.2,401.8 333.1,405.1 334.0,397.8 334.9,391.8 335.8,397.9 336.6,400.9 337.5,409.2 338.4,396.1 339.3,399.7 340.2,401.6 341.1,403.5 341.9,401.2 342.8,395.0 343.7,400.2 344.6,397.1 345.5,407.6 346.3,399.2 347.2,400.4 348.1,408.4 349.0,409.4 349.9,410.8 350.7,394.8 351.6,399.7 352.5,410.0 353.4,399.9 354.3,398.5 355.1,415.4 356.0,397.8 356.9,406.6 357.8,407.1 358.7,410.2 359.5,403.8 360.4,403.4 361.3,408.8 362.2,404.9 363.1,410.1 364.0,400.7 364.8,407.0 365.7,409.5 366.6,403.3 367.5,415.2 368.4,419.5 369.2,414.2 370.1,403.9 371.0,414.1 371.9,401.4 372.8,420.1 373.6,404.1 374.5,417.4 375.4,410.1 376.3,396.3 377.2,410.0 378.0,416.8 378.9,417.8 379.8,407.6 380.7,413.1 381.6,422.4 382.5,411.7 383.3,415.3 384.2,418.3 385.1,418.1 386.0,416.9 386.9,416.4 387.7,407.7 388.6,406.7 389.5,416.6 390.4,417.4 391.3,410.4 392.1,412.6 393.0,411.3 393.9,418.9 394.8,405.0 395.7,416.4 396.5,419.0 397.4,414.3 398.3,419.5 399.2,419.7 400.1,418.7 401.0,419.6 401.8,406.8 402.7,404.1 403.6,418.2 404.5,411.6 405.4,413.7 406.2,412.8 407.1,415.4 408.0,414.9 408.9,424.4 409.8,427.3 410.6,416.3 411.5,417.7 412.4,427.2 413.3,425.8 414.2,417.6 415.0,411.3 415.9,421.8 416.8,420.5 417.7,417.2 418.6,415.1 419.4,419.5 420.3,415.1 421.2,419.0 422.1,418.5 423.0,423.6 423.9,425.3 424.7,422.2 425.6,419.8 426.5,427.0 427.4,416.7 428.3,419.2 429.1,419.3 430.0,425.2 430.9,420.1 431.8,424.4 432.7,421.7 433.5,424.0 434.4,422.6 435.3,425.9 436.2,407.6 437.1,428.6 437.9,423.3 438.8,427.0 439.7,432.2 440.6,422.9 441.5,422.7 442.4,421.2 443.2,422.8 444.1,421.9 445.0,424.8 445.9,419.5 446.8,433.4 447.6,420.4 448.5,415.7 449.4,423.5 450.3,431.5 451.2,418.2 452.0,428.2 452.9,428.8 453.8,426.1 454.7,425.9 455.6,425.9 456.4,428.4 457.3,419.6 458.2,430.3 459.1,430.6 460.0,433.2 460.9,430.7 461.7,430.5 462.6,422.4 463.5,429.2 464.4,431.8 465.3,429.9 466.1,427.0 467.0,422.7 467.9,424.0 468.8,430.1 469.7,435.2 470.5,434.6 471.4,432.9 472.3,431.7 473.2,429.4 474.1,425.9 474.9,434.2 475.8,433.6 476.7,442.0 477.6,424.3 478.5,423.0 479.3,434.3 480.2,425.7 481.1,431.9 482.0,428.6 482.9,429.4 483.8,424.0 484.6,428.7 485.5,426.9 486.4,431.8 487.3,433.1 488.2,428.2 489.0,434.1 489.9,428.5 490.8,436.5 491.7,428.1 492.6,439.6 493.4,431.1 494.3,430.7 495.2,439.9 496.1,435.6 497.0,433.9 497.8,433.0 498.7,437.7 499.6,436.4 500.5,443.3 501.4,433.0 502.3,433.6 503.1,433.8 504.0,439.9 504.9,440.0 505.8,438.5 506.7,432.9 507.5,445.9 508.4,433.5 509.3,432.5 510.2,439.3 511.1,433.8 511.9,434.6 512.8,431.3 513.7,433.5 514.6,441.3 515.5,425.5 516.3,433.9 517.2,439.6 518.1,435.3 519.0,431.6 519.9,434.6 520.8,441.7 521.6,442.2 522.5,438.5 523.4,433.5 524.3,429.4 525.2,439.6 526.0,434.5 526.9,447.0 527.8,435.7 528.7,427.5 529.6,444.4 530.4,433.5 531.3,441.1 532.2,441.4 533.1,432.9 534.0,430.5 534.8,435.0 535.7,438.4 536.6,429.7 537.5,440.3 538.4,431.8 539.2,434.9 540.1,432.3 541.0,443.0 541.9,433.3 542.8,439.5 543.7,438.9 544.5,435.7 545.4,435.5 546.3,444.7 547.2,432.5 548.1,432.6 548.9,445.4 549.8,444.1 550.7,450.6 551.6,441.2 552.5,446.5 553.3,449.9 554.2,450.4 555.1,442.3 556.0,443.2 556.9,442.0 557.7,444.4 558.6,444.1 559.5,446.4 560.4,436.3 561.3,448.1 562.2,440.8 563.0,440.3 563.9,435.7 564.8,442.5 565.7,446.0 566.6,445.9 567.4,440.7 568.3,440.2 569.2,440.9 570.1,443.8 571.0,435.9 571.8,443.9 572.7,438.7 573.6,442.7 574.5,445.7 575.4,444.4 576.2,454.3 577.1,444.5 578.0,442.7 578.9,438.0 579.8,452.4 580.7,435.6 581.5,449.5 582.4,440.6 583.3,446.1 584.2,440.5 585.1,447.1 585.9,448.2 586.8,446.8 587.7,440.6 588.6,452.5 589.5,445.1 590.3,441.6 591.2,455.0 592.1,449.3 593.0,446.2 593.9,446.5 594.7,452.5 595.6,449.9 596.5,447.1 597.4,443.4 598.3,450.6 599.1,453.9 600.0,447.1 600.9,444.7 601.8,452.7 602.7,441.3 603.6,443.4 604.4,450.7 605.3,449.1 606.2,454.1 607.1,441.5 608.0,443.3 608.8,450.6 609.7,446.4 610.6,459.5 611.5,438.3 612.4,441.4 613.2,458.4 614.1,444.7 615.0,453.7 615.9,446.3 616.8,447.5 617.6,449.2 618.5,450.2 619.4,451.4 620.3,450.0 621.2,452.3 622.1,446.9 622.9,447.9 623.8,446.0 624.7,458.7 625.6,458.0 626.5,451.4 627.3,448.7 628.2,448.7 629.1,451.9 630.0,448.5 630.9,455.3 631.7,445.5 632.6,441.5 633.5,446.2 634.4,448.9 635.3,445.1 636.1,456.5 637.0,446.7 637.9,448.4 638.8,457.8 639.7,451.9 640.6,454.0 641.4,448.7 642.3,457.8 643.2,450.6 644.1,448.9 645.0,456.3 645.8,445.9 646.7,453.6 647.6,454.3 648.5,454.5 649.4,456.7 650.2,458.6 651.1,456.3 652.0,461.4 652.9,454.3 653.8,454.7 654.6,448.3 655.5,454.4 656.4,455.2 657.3,456.4 658.2,450.3 659.0,455.9 659.9,451.8 660.8,457.3 661.7,455.8 662.6,459.8 663.5,452.5 664.3,450.2 665.2,453.0 666.1,453.1 667.0,463.9 667.9,460.1 668.7,446.6 669.6,455.1 670.5,460.2 671.4,455.0 672.3,458.3 673.1,461.5 674.0,456.4 674.9,459.5 675.8,461.9 676.7,451.2 677.5,454.3 678.4,451.3 679.3,460.4 680.2,461.4 681.1,454.6 682.0,461.4 682.8,460.5 683.7,456.7 684.6,452.3 685.5,464.4 686.4,461.5 687.2,451.8 688.1,449.2 689.0,466.2 689.9,456.9 690.8,463.8 691.6,455.4 692.5,450.5 693.4,456.3 694.3,464.3 695.2,459.6 696.0,455.7 696.9,449.3 697.8,456.0 698.7,461.4 699.6,454.0 700.5,469.8 701.3,458.1 702.2,461.8 703.1,456.6 704.0,460.9 704.9,457.6 705.7,462.7 706.6,465.3 707.5,466.9 708.4,456.1 709.3,457.4 710.1,457.4 711.0,456.8 711.9,454.5 712.8,452.0 713.7,457.4 714.5,460.5 715.4,463.9 716.3,463.2 717.2,465.8 718.1,466.7 718.9,453.8 719.8,449.2 720.7,461.8 721.6,462.5 722.5,464.3 723.4,458.3 724.2,454.5 725.1,458.6 726.0,460.1 726.9,457.4 727.8,459.3 728.6,464.2 729.5,459.0 730.4,460.8 731.3,459.3 732.2,462.5 733.0,467.4 733.9,463.9 734.8,460.2 735.7,461.9 736.6,458.5 737.4,459.1 738.3,458.1 739.2,458.5 740.1,460.0 741.0,457.7 741.9,464.1 742.7,462.2 743.6,463.6 744.5,460.8 745.4,460.5 746.3,460.6 747.1,466.2 748.0,460.9 748.9,464.4 749.8,460.0 750.7,461.4 751.5,460.2 752.4,460.6 753.3,462.0 754.2,466.9 755.1,468.5 755.9,461.6 756.8,461.6 757.7,456.4 758.6,470.6 759.5,457.6 760.4,462.3 761.2,461.2 762.1,461.7 763.0,470.2 763.9,461.2 764.8,464.8 765.6,466.0 766.5,467.0 767.4,467.1 768.3,458.3 769.2,460.1 770.0,467.4 770.9,469.5 771.8,472.3 772.7,468.1 773.6,457.1 774.4,467.6 775.3,463.5 776.2,461.0 777.1,469.1 778.0,456.1 778.8,468.0 779.7,457.8 780.6,457.8 781.5,466.2 782.4,461.1 783.3,462.8 784.1,463.5 785.0,463.1 785.9,461.8 786.8,460.3 787.7,461.0 788.5,459.5 789.4,463.7 790.3,463.6 791.2,464.5 792.1,465.5 792.9,464.4 793.8,464.8 794.7,466.4 795.6,465.1 796.5,461.1 797.3,461.1 798.2,461.8 799.1,454.0 800.0,465.1 800.9,466.7 801.8,466.0 802.6,470.4 803.5,466.7 804.4,472.6 805.3,471.4 806.2,465.0 807.0,462.6 807.9,459.6 808.8,466.3 809.7,465.5 810.6,461.9 811.4,477.3 812.3,466.0 813.2,469.1 814.1,471.7 815.0,464.5 815.8,466.3 816.7,466.8 817.6,469.0 818.5,454.7 819.4,463.3 820.3,467.4 821.1,471.2 822.0,470.8 822.9,469.1 823.8,472.2 824.7,470.3 825.5,469.8 826.4,465.8 827.3,462.8 828.2,466.2 829.1,461.5 829.9,467.8 830.8,463.0 831.7,469.1 832.6,467.6 833.5,466.6 834.3,465.5 835.2,460.8 836.1,464.7 837.0,459.2 837.9,465.7 838.7,474.7 839.6,466.8 840.5,478.0 841.4,467.9 842.3,470.5 843.2,467.2 844.0,471.0 844.9,468.3 845.8,471.2 846.7,471.5 847.6,470.1 848.4,464.5 849.3,465.0 850.2,460.5 851.1,472.0 852.0,470.4 852.8,468.3 853.7,464.1 854.6,462.8 855.5,476.7 856.4,467.8 857.2,473.1 858.1,472.3 859.0,471.2 859.9,469.1 860.8,473.9 861.7,470.6 862.5,464.7 863.4,464.9 864.3,465.3 865.2,471.9 866.1,471.9 866.9,465.9 867.8,466.0 868.7,466.9 869.6,466.8 870.5,463.0 871.3,473.9 872.2,467.6 873.1,475.3 874.0,469.7 874.9,465.2 875.7,471.5 876.6,475.0 877.5,469.5 878.4,473.2 879.3,461.0 880.2,467.3 881.0,462.5 881.9,473.2 882.8,470.6 883.7,462.4 884.6,472.5 885.4,461.2 886.3,469.2 887.2,468.4 888.1,468.4 889.0,465.7 889.8,472.4 890.7,466.5 891.6,462.2 892.5,467.3 893.4,475.9 894.2,474.1 895.1,472.9 896.0,469.1 896.9,458.8 897.8,479.8 898.6,476.3 899.5,469.1 900.4,466.8 901.3,477.0 902.2,469.4 903.1,467.8 903.9,477.0 904.8,464.5 905.7,483.7 906.6,467.9 907.5,476.4 908.3,465.2 909.2,469.1 910.1,470.7 911.0,473.2 911.9,463.7 912.7,463.4 913.6,469.9 914.5,469.5 915.4,467.6 916.3,469.0 917.1,473.5 918.0,473.0 918.9,462.3 919.8,467.1 920.7,471.7 921.6,471.3 922.4,470.5 923.3,468.4 924.2,466.9 925.1,465.7 926.0,474.2 926.8,466.9 927.7,467.9 928.6,473.2 929.5,476.6 930.4,482.1 931.2,470.8 932.1,469.8 933.0,473.7 933.9,477.6 934.8,471.8 935.6,475.2 936.5,469.3 937.4,478.0 938.3,463.8 939.2,467.3 940.1,472.7 940.9,474.9 941.8,467.9 942.7,471.9 943.6,471.1 944.5,474.7 945.3,474.3 946.2,474.9 947.1,468.2 948.0,473.2 948.9,465.3 949.7,475.8 950.6,475.1 951.5,466.1 952.4,470.4 953.3,470.7 954.1,469.8 955.0,472.0 955.9,470.5 956.8,473.8 957.7,480.6 958.5,471.2 959.4,470.3 960.3,467.4 961.2,470.3 962.1,471.3 963.0,470.0 963.8,478.6 964.7,472.2 965.6,469.3 966.5,469.4 967.4,470.3 968.2,472.3 969.1,473.0 970.0,482.0" fill="none" stroke="#16a34a" stroke-width="2.2"/>
<line x1="512" y1="83" x2="536" y2="83" stroke="#16a34a" stroke-width="3"/>
<text x="543" y="87" font-family="sans-serif" font-size="12">b128</text>
<polyline points="90.0,65.0 90.9,65.0 91.8,65.0 92.6,65.0 93.5,65.0 94.4,65.0 95.3,65.0 96.2,65.0 97.0,65.0 97.9,65.0 98.8,65.0 99.7,65.0 100.6,65.0 101.5,65.0 102.3,65.0 103.2,65.0 104.1,65.0 105.0,65.0 105.9,65.0 106.7,65.0 107.6,65.0 108.5,65.0 109.4,65.0 110.3,65.0 111.1,65.0 112.0,65.0 112.9,73.2 113.8,88.1 114.7,83.3 115.5,99.6 116.4,115.1 117.3,115.7 118.2,120.0 119.1,127.9 119.9,141.9 120.8,138.3 121.7,151.9 122.6,160.4 123.5,162.7 124.4,163.3 125.2,171.7 126.1,170.6 127.0,176.1 127.9,184.6 128.8,176.3 129.6,189.1 130.5,170.5 131.4,193.3 132.3,183.0 133.2,191.9 134.0,199.0 134.9,198.7 135.8,200.3 136.7,204.0 137.6,211.0 138.4,214.5 139.3,219.6 140.2,224.5 141.1,219.5 142.0,225.6 142.9,232.3 143.7,236.9 144.6,239.1 145.5,234.8 146.4,241.9 147.3,240.2 148.1,256.3 149.0,253.9 149.9,249.4 150.8,259.8 151.7,260.7 152.5,262.1 153.4,266.2 154.3,271.0 155.2,269.5 156.1,277.1 156.9,272.7 157.8,277.7 158.7,282.1 159.6,284.9 160.5,289.0 161.4,284.5 162.2,287.1 163.1,285.1 164.0,295.9 164.9,293.2 165.8,297.5 166.6,305.7 167.5,304.1 168.4,310.8 169.3,304.3 170.2,307.3 171.0,311.0 171.9,311.0 172.8,316.0 173.7,312.5 174.6,316.4 175.4,316.3 176.3,312.5 177.2,315.5 178.1,324.3 179.0,322.6 179.8,325.4 180.7,329.9 181.6,325.3 182.5,327.0 183.4,330.1 184.3,330.9 185.1,332.8 186.0,334.0 186.9,339.2 187.8,334.4 188.7,335.7 189.5,342.0 190.4,344.2 191.3,343.6 192.2,345.3 193.1,343.6 193.9,345.1 194.8,352.5 195.7,349.1 196.6,345.7 197.5,352.6 198.3,350.6 199.2,353.8 200.1,353.8 201.0,360.6 201.9,348.3 202.8,355.7 203.6,356.7 204.5,356.6 205.4,357.6 206.3,358.1 207.2,365.1 208.0,362.7 208.9,362.9 209.8,366.9 210.7,363.7 211.6,364.7 212.4,365.9 213.3,364.2 214.2,373.7 215.1,371.3 216.0,365.5 216.8,366.3 217.7,377.2 218.6,374.4 219.5,374.6 220.4,369.2 221.3,376.0 222.1,373.6 223.0,373.9 223.9,371.1 224.8,376.9 225.7,379.0 226.5,383.6 227.4,371.3 228.3,379.6 229.2,384.3 230.1,381.0 230.9,381.3 231.8,378.3 232.7,383.8 233.6,378.4 234.5,385.8 235.3,380.4 236.2,383.8 237.1,383.0 238.0,384.5 238.9,388.2 239.7,394.1 240.6,386.3 241.5,389.0 242.4,390.5 243.3,381.9 244.2,391.6 245.0,392.6 245.9,397.8 246.8,391.8 247.7,398.6 248.6,394.9 249.4,386.1 250.3,396.9 251.2,392.2 252.1,395.7 253.0,390.9 253.8,396.3 254.7,394.7 255.6,400.8 256.5,390.1 257.4,397.2 258.2,401.8 259.1,399.1 260.0,389.9 260.9,394.4 261.8,397.7 262.7,398.0 263.5,407.3 264.4,403.5 265.3,406.7 266.2,399.4 267.1,410.5 267.9,400.3 268.8,402.9 269.7,401.6 270.6,406.2 271.5,406.7 272.3,403.4 273.2,401.5 274.1,408.0 275.0,410.1 275.9,406.6 276.7,403.8 277.6,406.6 278.5,409.6 279.4,400.3 280.3,408.3 281.2,407.4 282.0,408.4 282.9,400.3 283.8,412.0 284.7,410.8 285.6,408.2 286.4,412.9 287.3,408.5 288.2,415.0 289.1,415.5 290.0,411.2 290.8,414.8 291.7,411.8 292.6,411.1 293.5,418.7 294.4,417.2 295.2,415.5 296.1,414.2 297.0,422.1 297.9,410.3 298.8,414.1 299.6,413.7 300.5,415.6 301.4,411.9 302.3,418.3 303.2,415.0 304.1,414.2 304.9,414.5 305.8,417.0 306.7,417.3 307.6,417.5 308.5,423.0 309.3,419.1 310.2,421.3 311.1,424.8 312.0,425.6 312.9,418.4 313.7,419.2 314.6,420.1 315.5,418.0 316.4,417.4 317.3,421.5 318.1,419.9 319.0,428.6 319.9,418.5 320.8,419.3 321.7,426.7 322.6,417.5 323.4,427.6 324.3,427.2 325.2,420.3 326.1,424.4 327.0,422.0 327.8,428.9 328.7,418.8 329.6,419.6 330.5,420.8 331.4,420.7 332.2,422.1 333.1,424.1 334.0,422.3 334.9,424.2 335.8,419.0 336.6,428.0 337.5,433.7 338.4,432.6 339.3,430.1 340.2,428.9 341.1,429.4 341.9,426.5 342.8,429.1 343.7,423.2 344.6,429.3 345.5,430.3 346.3,427.6 347.2,427.5 348.1,424.8 349.0,429.1 349.9,425.2 350.7,430.3 351.6,426.0 352.5,428.6 353.4,437.4 354.3,429.4 355.1,434.3 356.0,430.4 356.9,432.9 357.8,435.5 358.7,432.0 359.5,437.4 360.4,430.2 361.3,439.5 362.2,432.1 363.1,431.6 364.0,433.5 364.8,437.2 365.7,430.5 366.6,434.5 367.5,430.7 368.4,438.0 369.2,436.3 370.1,433.5 371.0,435.3 371.9,434.8 372.8,442.3 373.6,434.1 374.5,437.3 375.4,436.6 376.3,434.1 377.2,437.9 378.0,442.6 378.9,434.9 379.8,438.6 380.7,436.7 381.6,431.0 382.5,434.4 383.3,438.7 384.2,432.9 385.1,441.5 386.0,439.5 386.9,437.6 387.7,439.9 388.6,438.9 389.5,438.3 390.4,442.0 391.3,447.6 392.1,440.0 393.0,439.0 393.9,439.5 394.8,439.3 395.7,441.8 396.5,436.9 397.4,443.9 398.3,439.2 399.2,444.0 400.1,438.3 401.0,444.5 401.8,444.9 402.7,445.5 403.6,438.4 404.5,441.2 405.4,443.7 406.2,446.8 407.1,441.9 408.0,448.1 408.9,438.4 409.8,444.8 410.6,445.2 411.5,435.9 412.4,447.2 413.3,442.6 414.2,441.8 415.0,444.2 415.9,447.8 416.8,445.7 417.7,441.6 418.6,448.4 419.4,444.2 420.3,446.4 421.2,442.6 422.1,453.8 423.0,444.3 423.9,444.8 424.7,439.1 425.6,440.2 426.5,451.3 427.4,448.4 428.3,446.7 429.1,443.3 430.0,446.2 430.9,442.2 431.8,446.6 432.7,441.3 433.5,450.4 434.4,444.6 435.3,453.0 436.2,446.4 437.1,445.6 437.9,444.6 438.8,446.0 439.7,446.2 440.6,448.9 441.5,447.7 442.4,447.6 443.2,447.2 444.1,450.1 445.0,444.3 445.9,452.7 446.8,449.0 447.6,447.9 448.5,446.9 449.4,445.5 450.3,453.2 451.2,450.4 452.0,451.7 452.9,450.0 453.8,454.6 454.7,453.2 455.6,449.2 456.4,450.7 457.3,447.4 458.2,454.3 459.1,444.6 460.0,449.4 460.9,449.5 461.7,444.6 462.6,448.8 463.5,447.1 464.4,452.9 465.3,450.2 466.1,449.8 467.0,447.3 467.9,454.1 468.8,452.1 469.7,451.8 470.5,448.4 471.4,443.5 472.3,452.3 473.2,456.5 474.1,456.1 474.9,455.1 475.8,448.5 476.7,452.2 477.6,455.1 478.5,457.7 479.3,451.8 480.2,452.0 481.1,447.8 482.0,452.5 482.9,456.2 483.8,458.8 484.6,456.0 485.5,450.6 486.4,449.1 487.3,448.1 488.2,454.1 489.0,448.9 489.9,452.2 490.8,456.0 491.7,458.9 492.6,455.9 493.4,458.1 494.3,455.0 495.2,458.6 496.1,451.3 497.0,453.7 497.8,457.7 498.7,449.4 499.6,457.7 500.5,462.6 501.4,457.5 502.3,458.2 503.1,453.2 504.0,454.3 504.9,455.2 505.8,455.2 506.7,452.1 507.5,457.5 508.4,461.3 509.3,455.1 510.2,459.4 511.1,456.0 511.9,451.2 512.8,458.5 513.7,456.6 514.6,459.2 515.5,456.8 516.3,458.9 517.2,454.9 518.1,454.9 519.0,455.0 519.9,457.7 520.8,453.6 521.6,460.7 522.5,464.0 523.4,453.2 524.3,464.7 525.2,459.1 526.0,460.9 526.9,460.2 527.8,463.6 528.7,458.0 529.6,455.2 530.4,459.6 531.3,456.4 532.2,457.3 533.1,459.1 534.0,452.6 534.8,463.6 535.7,461.3 536.6,457.3 537.5,460.9 538.4,457.1 539.2,460.3 540.1,466.6 541.0,458.4 541.9,465.0 542.8,459.9 543.7,462.8 544.5,455.2 545.4,464.1 546.3,459.3 547.2,462.8 548.1,462.3 548.9,460.6 549.8,459.6 550.7,462.2 551.6,460.0 552.5,460.5 553.3,464.7 554.2,464.5 555.1,457.6 556.0,460.3 556.9,468.3 557.7,458.5 558.6,460.4 559.5,466.6 560.4,459.0 561.3,457.0 562.2,468.3 563.0,461.6 563.9,465.8 564.8,461.0 565.7,469.0 566.6,460.1 567.4,464.0 568.3,464.8 569.2,460.7 570.1,460.7 571.0,459.5 571.8,463.4 572.7,464.0 573.6,468.4 574.5,464.8 575.4,462.4 576.2,465.6 577.1,461.0 578.0,459.3 578.9,467.1 579.8,461.4 580.7,466.0 581.5,465.7 582.4,461.8 583.3,467.1 584.2,462.9 585.1,461.4 585.9,467.9 586.8,466.1 587.7,464.2 588.6,465.5 589.5,464.6 590.3,457.7 591.2,465.1 592.1,466.6 593.0,463.4 593.9,458.5 594.7,465.4 595.6,464.9 596.5,462.0 597.4,465.7 598.3,464.4 599.1,467.4 600.0,468.2 600.9,466.4 601.8,471.8 602.7,466.6 603.6,470.6 604.4,467.3 605.3,469.8 606.2,465.7 607.1,468.0 608.0,467.8 608.8,473.8 609.7,469.0 610.6,469.8 611.5,469.3 612.4,462.9 613.2,468.4 614.1,469.5 615.0,469.6 615.9,468.5 616.8,473.0 617.6,468.0 618.5,467.1 619.4,470.1 620.3,469.5 621.2,472.7 622.1,466.4 622.9,467.8 623.8,471.1 624.7,464.3 625.6,471.0 626.5,463.3 627.3,469.2 628.2,465.8 629.1,472.7 630.0,463.1 630.9,473.1 631.7,472.9 632.6,469.6 633.5,474.2 634.4,471.3 635.3,466.3 636.1,468.7 637.0,472.7 637.9,468.1 638.8,467.1 639.7,475.2 640.6,471.9 641.4,475.3 642.3,469.2 643.2,473.0 644.1,468.0 645.0,473.9 645.8,470.6 646.7,472.5 647.6,465.9 648.5,472.1 649.4,471.3 650.2,474.7 651.1,475.4 652.0,471.7 652.9,469.7 653.8,470.1 654.6,471.2 655.5,471.3 656.4,468.5 657.3,468.6 658.2,469.6 659.0,471.1 659.9,470.9 660.8,470.2 661.7,480.0 662.6,475.1 663.5,472.7 664.3,470.0 665.2,472.1 666.1,474.8 667.0,472.5 667.9,466.3 668.7,474.9 669.6,471.2 670.5,474.3 671.4,474.1 672.3,472.5 673.1,471.7 674.0,472.6 674.9,471.6 675.8,477.7 676.7,471.6 677.5,467.6 678.4,475.3 679.3,474.4 680.2,472.0 681.1,478.8 682.0,472.8 682.8,476.8 683.7,470.5 684.6,472.6 685.5,475.8 686.4,477.4 687.2,475.0 688.1,470.5 689.0,476.4 689.9,469.8 690.8,472.0 691.6,468.3 692.5,474.3 693.4,472.8 694.3,471.1 695.2,478.9 696.0,473.7 696.9,471.6 697.8,473.7 698.7,475.6 699.6,477.7 700.5,475.1 701.3,473.3 702.2,475.9 703.1,467.8 704.0,476.1 704.9,474.9 705.7,476.2 706.6,476.7 707.5,473.4 708.4,476.0 709.3,478.1 710.1,473.3 711.0,479.3 711.9,474.2 712.8,480.2 713.7,477.1 714.5,474.5 715.4,477.2 716.3,478.7 717.2,476.5 718.1,480.8 718.9,480.0 719.8,474.5 720.7,477.1 721.6,478.6 722.5,482.0 723.4,472.8 724.2,480.8 725.1,481.2 726.0,474.9 726.9,478.8 727.8,478.4 728.6,477.7 729.5,477.7 730.4,478.5 731.3,474.2 732.2,475.2 733.0,480.6 733.9,478.6 734.8,480.7 735.7,479.0 736.6,479.4 737.4,475.3 738.3,475.4 739.2,470.9 740.1,475.7 741.0,476.5 741.9,484.7 742.7,475.7 743.6,482.8 744.5,477.2 745.4,478.2 746.3,481.2 747.1,486.5 748.0,476.8 748.9,476.7 749.8,477.4 750.7,480.3 751.5,482.2 752.4,475.2 753.3,476.5 754.2,478.3 755.1,483.6 755.9,479.7 756.8,476.8 757.7,475.9 758.6,480.4 759.5,482.2 760.4,479.0 761.2,477.4 762.1,481.7 763.0,482.1 763.9,482.9 764.8,476.4 765.6,481.5 766.5,477.8 767.4,482.0 768.3,477.9 769.2,480.2 770.0,480.6 770.9,478.0 771.8,479.0 772.7,483.3 773.6,481.5 774.4,485.2 775.3,479.0 776.2,479.2 777.1,480.1 778.0,482.3 778.8,481.4 779.7,480.1 780.6,473.0 781.5,483.1 782.4,480.6 783.3,478.5 784.1,484.2 785.0,483.1 785.9,478.0 786.8,483.6 787.7,480.8 788.5,487.0 789.4,487.1 790.3,478.0 791.2,484.3 792.1,481.7 792.9,486.9 793.8,482.6 794.7,485.7 795.6,478.7 796.5,479.9 797.3,478.6 798.2,475.2 799.1,481.8 800.0,484.4 800.9,485.7 801.8,478.9 802.6,483.2 803.5,479.0 804.4,482.6 805.3,481.1 806.2,485.7 807.0,477.7 807.9,479.2 808.8,480.7 809.7,481.8 810.6,475.1 811.4,477.5 812.3,486.5 813.2,479.3 814.1,487.9 815.0,483.6 815.8,482.6 816.7,482.1 817.6,480.7 818.5,478.6 819.4,479.1 820.3,485.4 821.1,477.6 822.0,485.4 822.9,481.3 823.8,482.4 824.7,478.9 825.5,482.1 826.4,484.8 827.3,487.9 828.2,489.6 829.1,489.2 829.9,485.6 830.8,488.6 831.7,484.7 832.6,482.7 833.5,488.4 834.3,484.2 835.2,485.9 836.1,480.1 837.0,484.5 837.9,484.2 838.7,484.8 839.6,480.1 840.5,482.8 841.4,480.2 842.3,479.9 843.2,478.6 844.0,483.5 844.9,480.0 845.8,488.6 846.7,485.6 847.6,484.4 848.4,486.3 849.3,481.6 850.2,479.9 851.1,483.6 852.0,483.8 852.8,487.5 853.7,482.2 854.6,485.0 855.5,484.4 856.4,486.4 857.2,481.6 858.1,480.5 859.0,483.8 859.9,483.8 860.8,481.5 861.7,486.7 862.5,483.4 863.4,484.4 864.3,481.9 865.2,487.0 866.1,485.6 866.9,486.7 867.8,482.0 868.7,486.0 869.6,490.4 870.5,483.9 871.3,487.5 872.2,483.0 873.1,483.3 874.0,485.1 874.9,485.0 875.7,490.4 876.6,490.6 877.5,483.7 878.4,482.6 879.3,482.9 880.2,484.2 881.0,485.9 881.9,488.0 882.8,491.6 883.7,486.8 884.6,482.8 885.4,486.2 886.3,490.0 887.2,481.1 888.1,488.5 889.0,487.2 889.8,489.6 890.7,484.6 891.6,477.5 892.5,484.7 893.4,484.4 894.2,485.8 895.1,484.7 896.0,483.9 896.9,484.8 897.8,492.1 898.6,481.0 899.5,490.9 900.4,484.6 901.3,489.7 902.2,487.3 903.1,487.3 903.9,489.3 904.8,481.4 905.7,489.0 906.6,483.4 907.5,483.7 908.3,487.9 909.2,484.9 910.1,489.0 911.0,490.2 911.9,487.4 912.7,485.3 913.6,485.4 914.5,486.7 915.4,488.6 916.3,488.5 917.1,485.5 918.0,488.5 918.9,487.2 919.8,483.3 920.7,488.2 921.6,486.6 922.4,490.8 923.3,490.9 924.2,489.4 925.1,486.9 926.0,486.6 926.8,485.3 927.7,492.9 928.6,486.8 929.5,482.6 930.4,479.5 931.2,490.0 932.1,487.3 933.0,483.7 933.9,489.4 934.8,484.7 935.6,484.1 936.5,485.7 937.4,487.1 938.3,487.6 939.2,488.9 940.1,488.6 940.9,486.0 941.8,482.3 942.7,489.0 943.6,486.5 944.5,484.3 945.3,486.4 946.2,487.2 947.1,487.2 948.0,489.0 948.9,488.0 949.7,486.4 950.6,487.4 951.5,487.2 952.4,487.8 953.3,490.3 954.1,487.4 955.0,489.7 955.9,491.6 956.8,484.4 957.7,486.4 958.5,486.9 959.4,488.9 960.3,487.6 961.2,488.6 962.1,490.4 963.0,486.2 963.8,489.4 964.7,485.0 965.6,487.1 966.5,485.8 967.4,490.9 968.2,489.2 969.1,492.9 970.0,493.7" fill="none" stroke="#9333ea" stroke-width="2.2"/>
<line x1="717" y1="83" x2="741" y2="83" stroke="#9333ea" stroke-width="3"/>
<text x="748" y="87" font-family="sans-serif" font-size="12">b256</text>
<polyline points="90.0,65.0 90.9,65.0 91.8,65.0 92.6,65.0 93.5,65.0 94.4,65.0 95.3,65.0 96.2,65.0 97.0,65.0 97.9,65.0 98.8,65.0 99.7,65.0 100.6,65.0 101.5,65.0 102.3,65.0 103.2,65.0 104.1,65.0 105.0,65.0 105.9,65.0 106.7,65.0 107.6,65.0 108.5,65.0 109.4,65.0 110.3,71.3 111.1,72.8 112.0,78.4 112.9,98.6 113.8,108.5 114.7,113.0 115.5,111.9 116.4,131.6 117.3,128.4 118.2,141.6 119.1,143.2 119.9,147.4 120.8,158.3 121.7,160.7 122.6,166.6 123.5,175.3 124.4,174.1 125.2,179.0 126.1,185.1 127.0,182.1 127.9,183.7 128.8,193.1 129.6,197.7 130.5,207.8 131.4,201.1 132.3,209.4 133.2,209.1 134.0,212.8 134.9,212.3 135.8,223.3 136.7,227.3 137.6,226.3 138.4,232.4 139.3,234.5 140.2,237.0 141.1,244.7 142.0,248.3 142.9,250.3 143.7,251.9 144.6,255.4 145.5,259.6 146.4,262.5 147.3,259.7 148.1,264.5 149.0,268.9 149.9,277.1 150.8,279.7 151.7,281.5 152.5,282.4 153.4,290.5 154.3,289.3 155.2,293.5 156.1,298.4 156.9,298.2 157.8,296.2 158.7,297.6 159.6,300.4 160.5,297.8 161.4,309.7 162.2,307.3 163.1,313.8 164.0,312.6 164.9,317.0 165.8,316.8 166.6,320.3 167.5,326.2 168.4,324.6 169.3,328.1 170.2,321.6 171.0,329.2 171.9,330.9 172.8,328.7 173.7,331.2 174.6,336.1 175.4,340.5 176.3,339.2 177.2,345.5 178.1,346.9 179.0,348.5 179.8,345.7 180.7,346.6 181.6,351.9 182.5,354.6 183.4,354.7 184.3,354.6 185.1,359.2 186.0,356.0 186.9,355.2 187.8,356.4 188.7,362.4 189.5,361.1 190.4,363.7 191.3,365.3 192.2,372.2 193.1,369.1 193.9,367.7 194.8,375.0 195.7,373.1 196.6,373.1 197.5,373.7 198.3,372.8 199.2,378.6 200.1,375.5 201.0,379.2 201.9,382.7 202.8,383.5 203.6,385.3 204.5,384.0 205.4,384.2 206.3,385.3 207.2,383.9 208.0,385.5 208.9,387.1 209.8,386.8 210.7,392.1 211.6,393.5 212.4,390.7 213.3,394.1 214.2,388.8 215.1,391.6 216.0,393.0 216.8,392.9 217.7,396.2 218.6,403.5 219.5,400.8 220.4,398.9 221.3,397.3 222.1,398.9 223.0,398.8 223.9,398.5 224.8,407.3 225.7,402.3 226.5,403.7 227.4,406.1 228.3,408.6 229.2,411.1 230.1,408.0 230.9,408.4 231.8,409.3 232.7,406.9 233.6,408.5 234.5,407.5 235.3,411.8 236.2,411.0 237.1,414.4 238.0,410.1 238.9,417.0 239.7,414.0 240.6,410.3 241.5,413.3 242.4,418.2 243.3,415.8 244.2,417.0 245.0,422.6 245.9,418.9 246.8,419.2 247.7,420.7 248.6,420.6 249.4,420.4 250.3,418.1 251.2,423.5 252.1,421.6 253.0,420.3 253.8,420.3 254.7,423.4 255.6,424.8 256.5,421.1 257.4,421.0 258.2,423.6 259.1,426.1 260.0,425.8 260.9,426.3 261.8,424.7 262.7,431.8 263.5,426.5 264.4,424.4 265.3,430.9 266.2,428.5 267.1,428.0 267.9,431.8 268.8,426.7 269.7,429.2 270.6,430.4 271.5,430.0 272.3,424.0 273.2,432.2 274.1,428.2 275.0,430.7 275.9,431.6 276.7,431.6 277.6,434.6 278.5,434.1 279.4,432.8 280.3,430.2 281.2,426.6 282.0,426.8 282.9,427.3 283.8,430.6 284.7,431.4 285.6,431.6 286.4,432.0 287.3,429.8 288.2,436.6 289.1,436.3 290.0,433.5 290.8,439.7 291.7,433.9 292.6,434.8 293.5,441.3 294.4,434.3 295.2,437.2 296.1,432.0 297.0,433.0 297.9,436.2 298.8,437.2 299.6,441.4 300.5,441.0 301.4,436.3 302.3,440.2 303.2,441.9 304.1,443.4 304.9,438.2 305.8,441.5 306.7,440.1 307.6,441.8 308.5,444.5 309.3,438.1 310.2,440.2 311.1,441.0 312.0,440.2 312.9,445.9 313.7,444.1 314.6,442.8 315.5,446.2 316.4,443.2 317.3,441.0 318.1,441.7 319.0,441.1 319.9,442.7 320.8,442.5 321.7,445.2 322.6,443.8 323.4,450.1 324.3,446.5 325.2,446.0 326.1,445.4 327.0,448.7 327.8,445.5 328.7,446.8 329.6,445.8 330.5,449.7 331.4,445.4 332.2,449.0 333.1,449.9 334.0,443.0 334.9,449.1 335.8,447.6 336.6,448.6 337.5,450.2 338.4,443.3 339.3,447.6 340.2,451.7 341.1,447.2 341.9,454.9 342.8,449.2 343.7,447.7 344.6,450.4 345.5,450.9 346.3,449.7 347.2,448.8 348.1,454.5 349.0,449.5 349.9,450.4 350.7,451.9 351.6,448.4 352.5,451.6 353.4,448.6 354.3,456.1 355.1,452.1 356.0,454.7 356.9,451.6 357.8,457.2 358.7,454.6 359.5,452.8 360.4,455.7 361.3,453.1 362.2,454.1 363.1,456.5 364.0,454.2 364.8,455.3 365.7,455.6 366.6,454.0 367.5,454.2 368.4,453.3 369.2,453.4 370.1,454.5 371.0,457.7 371.9,458.9 372.8,454.3 373.6,455.9 374.5,455.7 375.4,460.6 376.3,457.4 377.2,457.0 378.0,459.0 378.9,454.4 379.8,459.5 380.7,459.8 381.6,456.9 382.5,457.2 383.3,454.8 384.2,457.2 385.1,457.3 386.0,461.0 386.9,462.8 387.7,459.7 388.6,458.1 389.5,460.6 390.4,453.9 391.3,457.9 392.1,460.7 393.0,457.9 393.9,459.0 394.8,462.0 395.7,456.5 396.5,460.2 397.4,462.9 398.3,460.8 399.2,459.7 400.1,457.9 401.0,457.4 401.8,460.3 402.7,460.7 403.6,459.5 404.5,461.9 405.4,461.5 406.2,457.8 407.1,460.3 408.0,459.8 408.9,461.6 409.8,462.6 410.6,460.4 411.5,462.3 412.4,463.2 413.3,466.2 414.2,461.2 415.0,464.3 415.9,468.1 416.8,462.2 417.7,467.6 418.6,463.4 419.4,464.5 420.3,464.7 421.2,464.5 422.1,463.0 423.0,463.9 423.9,466.8 424.7,464.6 425.6,463.7 426.5,458.9 427.4,467.9 428.3,466.3 429.1,465.2 430.0,470.1 430.9,464.9 431.8,466.7 432.7,462.8 433.5,466.5 434.4,465.4 435.3,464.8 436.2,468.7 437.1,463.3 437.9,468.2 438.8,465.0 439.7,470.8 440.6,464.7 441.5,466.9 442.4,466.7 443.2,469.1 444.1,468.7 445.0,465.6 445.9,469.5 446.8,464.7 447.6,468.9 448.5,468.0 449.4,468.0 450.3,467.8 451.2,474.6 452.0,467.1 452.9,470.3 453.8,472.1 454.7,468.9 455.6,469.9 456.4,467.7 457.3,464.3 458.2,470.1 459.1,469.8 460.0,468.8 460.9,470.1 461.7,467.2 462.6,468.4 463.5,466.0 464.4,468.3 465.3,472.3 466.1,469.9 467.0,469.2 467.9,467.0 468.8,469.8 469.7,469.4 470.5,469.3 471.4,471.1 472.3,478.4 473.2,473.7 474.1,475.1 474.9,473.2 475.8,471.4 476.7,472.2 477.6,471.0 478.5,468.5 479.3,471.2 480.2,467.9 481.1,469.3 482.0,468.4 482.9,474.8 483.8,472.0 484.6,471.5 485.5,470.9 486.4,474.6 487.3,469.1 488.2,472.8 489.0,472.3 489.9,471.9 490.8,473.2 491.7,474.9 492.6,476.0 493.4,475.8 494.3,472.2 495.2,473.9 496.1,476.1 497.0,476.5 497.8,469.9 498.7,476.2 499.6,474.8 500.5,471.4 501.4,477.9 502.3,473.2 503.1,475.9 504.0,475.1 504.9,476.0 505.8,471.2 506.7,473.8 507.5,473.1 508.4,476.9 509.3,474.9 510.2,477.0 511.1,477.7 511.9,476.1 512.8,476.7 513.7,472.5 514.6,477.5 515.5,478.9 516.3,474.4 517.2,476.7 518.1,476.5 519.0,478.8 519.9,475.8 520.8,477.7 521.6,479.2 522.5,477.1 523.4,480.2 524.3,478.5 525.2,478.3 526.0,475.3 526.9,475.3 527.8,476.2 528.7,476.9 529.6,474.9 530.4,477.3 531.3,477.5 532.2,473.9 533.1,479.3 534.0,479.1 534.8,478.0 535.7,477.4 536.6,480.5 537.5,479.9 538.4,478.6 539.2,477.6 540.1,480.6 541.0,477.8 541.9,480.8 542.8,476.2 543.7,481.5 544.5,484.0 545.4,483.4 546.3,477.3 547.2,480.5 548.1,480.8 548.9,480.1 549.8,479.2 550.7,482.3 551.6,477.3 552.5,480.8 553.3,477.0 554.2,479.4 555.1,479.8 556.0,481.4 556.9,479.5 557.7,481.0 558.6,477.8 559.5,480.9 560.4,484.0 561.3,483.1 562.2,481.9 563.0,480.4 563.9,479.4 564.8,484.1 565.7,481.5 566.6,481.9 567.4,478.8 568.3,486.7 569.2,482.5 570.1,480.7 571.0,483.4 571.8,483.4 572.7,483.1 573.6,482.2 574.5,483.1 575.4,481.7 576.2,482.7 577.1,483.6 578.0,484.3 578.9,485.0 579.8,482.6 580.7,482.1 581.5,483.2 582.4,480.8 583.3,483.7 584.2,482.5 585.1,482.6 585.9,483.0 586.8,484.4 587.7,481.6 588.6,487.9 589.5,485.8 590.3,480.1 591.2,484.0 592.1,478.4 593.0,485.1 593.9,485.9 594.7,486.8 595.6,479.3 596.5,486.8 597.4,484.5 598.3,485.2 599.1,481.7 600.0,484.9 600.9,485.1 601.8,483.7 602.7,484.8 603.6,489.6 604.4,482.8 605.3,484.9 606.2,486.9 607.1,488.0 608.0,484.6 608.8,484.8 609.7,483.2 610.6,486.7 611.5,483.0 612.4,487.8 613.2,487.0 614.1,490.2 615.0,484.2 615.9,484.3 616.8,486.8 617.6,482.3 618.5,486.6 619.4,487.1 620.3,483.4 621.2,486.4 622.1,483.1 622.9,488.5 623.8,486.4 624.7,487.8 625.6,485.8 626.5,491.1 627.3,486.4 628.2,488.1 629.1,485.8 630.0,487.9 630.9,486.9 631.7,489.0 632.6,489.3 633.5,489.7 634.4,486.1 635.3,486.0 636.1,489.0 637.0,487.2 637.9,486.4 638.8,484.9 639.7,486.5 640.6,488.8 641.4,490.0 642.3,487.3 643.2,487.8 644.1,490.8 645.0,489.8 645.8,489.9 646.7,489.3 647.6,488.4 648.5,489.5 649.4,489.1 650.2,488.2 651.1,491.7 652.0,487.5 652.9,487.5 653.8,488.3 654.6,490.0 655.5,488.4 656.4,488.0 657.3,487.7 658.2,484.9 659.0,489.7 659.9,491.8 660.8,488.7 661.7,489.4 662.6,489.1 663.5,488.9 664.3,486.6 665.2,487.1 666.1,491.9 667.0,491.1 667.9,485.9 668.7,491.2 669.6,492.9 670.5,492.8 671.4,492.2 672.3,491.0 673.1,489.6 674.0,489.1 674.9,485.7 675.8,489.7 676.7,487.6 677.5,490.0 678.4,493.0 679.3,489.4 680.2,492.5 681.1,490.2 682.0,491.9 682.8,489.5 683.7,495.1 684.6,492.5 685.5,494.1 686.4,491.1 687.2,491.7 688.1,494.3 689.0,492.8 689.9,492.4 690.8,495.1 691.6,493.0 692.5,493.5 693.4,492.4 694.3,488.7 695.2,492.4 696.0,492.9 696.9,492.8 697.8,493.1 698.7,496.9 699.6,493.9 700.5,497.3 701.3,490.1 702.2,489.3 703.1,491.4 704.0,493.2 704.9,492.4 705.7,491.6 706.6,492.0 707.5,494.5 708.4,493.9 709.3,494.3 710.1,493.0 711.0,491.7 711.9,494.6 712.8,493.6 713.7,495.7 714.5,490.1 715.4,493.4 716.3,492.0 717.2,492.1 718.1,495.0 718.9,491.5 719.8,490.7 720.7,494.9 721.6,496.9 722.5,496.0 723.4,495.8 724.2,495.6 725.1,491.8 726.0,490.4 726.9,493.4 727.8,494.0 728.6,492.1 729.5,490.2 730.4,495.7 731.3,494.5 732.2,490.1 733.0,490.1 733.9,496.1 734.8,494.2 735.7,494.5 736.6,496.3 737.4,496.1 738.3,494.6 739.2,492.5 740.1,492.4 741.0,495.8 741.9,498.0 742.7,491.4 743.6,495.0 744.5,493.4 745.4,502.8 746.3,498.5 747.1,497.4 748.0,490.8 748.9,498.5 749.8,495.0 750.7,495.1 751.5,494.2 752.4,499.6 753.3,497.3 754.2,494.4 755.1,495.6 755.9,495.3 756.8,497.2 757.7,496.5 758.6,499.4 759.5,497.4 760.4,495.7 761.2,497.6 762.1,497.3 763.0,500.2 763.9,496.4 764.8,494.6 765.6,496.8 766.5,494.2 767.4,497.5 768.3,496.4 769.2,496.1 770.0,497.2 770.9,499.1 771.8,498.7 772.7,493.5 773.6,496.9 774.4,494.1 775.3,494.8 776.2,493.7 777.1,497.5 778.0,498.6 778.8,496.8 779.7,497.4 780.6,499.3 781.5,496.8 782.4,495.3 783.3,497.2 784.1,500.0 785.0,498.7 785.9,498.7 786.8,499.0 787.7,497.2 788.5,496.5 789.4,499.4 790.3,497.6 791.2,499.0 792.1,496.8 792.9,496.7 793.8,493.2 794.7,495.4 795.6,495.0 796.5,502.0 797.3,501.3 798.2,499.8 799.1,497.6 800.0,495.7 800.9,500.5 801.8,494.6 802.6,497.8 803.5,496.3 804.4,500.0 805.3,499.2 806.2,500.6 807.0,497.2 807.9,497.3 808.8,501.4 809.7,498.1 810.6,498.8 811.4,494.9 812.3,502.8 813.2,500.6 814.1,502.2 815.0,497.0 815.8,504.2 816.7,501.3 817.6,496.6 818.5,499.6 819.4,494.9 820.3,495.9 821.1,492.1 822.0,496.6 822.9,497.7 823.8,501.0 824.7,499.5 825.5,496.1 826.4,500.7 827.3,497.2 828.2,497.4 829.1,499.2 829.9,499.9 830.8,496.5 831.7,498.5 832.6,501.2 833.5,500.5 834.3,499.1 835.2,502.9 836.1,501.5 837.0,499.9 837.9,500.6 838.7,499.6 839.6,501.3 840.5,497.0 841.4,500.8 842.3,501.3 843.2,498.3 844.0,505.4 844.9,504.1 845.8,501.0 846.7,500.8 847.6,502.4 848.4,497.3 849.3,497.0 850.2,499.0 851.1,500.0 852.0,502.5 852.8,497.7 853.7,499.0 854.6,503.1 855.5,498.8 856.4,500.1 857.2,497.6 858.1,498.6 859.0,498.3 859.9,502.4 860.8,499.6 861.7,501.8 862.5,500.1 863.4,500.4 864.3,499.6 865.2,499.4 866.1,499.4 866.9,501.1 867.8,501.9 868.7,500.4 869.6,496.8 870.5,504.5 871.3,500.3 872.2,500.0 873.1,500.2 874.0,501.4 874.9,501.4 875.7,505.0 876.6,501.0 877.5,501.9 878.4,503.1 879.3,503.8 880.2,500.9 881.0,500.1 881.9,499.7 882.8,500.2 883.7,500.5 884.6,501.7 885.4,497.7 886.3,499.3 887.2,501.9 888.1,501.4 889.0,499.0 889.8,502.2 890.7,503.5 891.6,503.6 892.5,505.3 893.4,501.6 894.2,502.0 895.1,501.0 896.0,501.0 896.9,501.5 897.8,502.3 898.6,506.7 899.5,501.3 900.4,502.8 901.3,498.6 902.2,501.9 903.1,502.6 903.9,501.1 904.8,499.4 905.7,501.6 906.6,501.8 907.5,504.1 908.3,505.2 909.2,501.8 910.1,502.7 911.0,501.6 911.9,503.4 912.7,502.6 913.6,505.0 914.5,504.8 915.4,506.6 916.3,498.6 917.1,502.8 918.0,502.3 918.9,504.0 919.8,503.5 920.7,504.2 921.6,502.4 922.4,504.1 923.3,500.1 924.2,502.7 925.1,507.3 926.0,502.6 926.8,502.6 927.7,504.4 928.6,501.4 929.5,503.7 930.4,505.7 931.2,503.1 932.1,501.8 933.0,502.3 933.9,499.5 934.8,502.9 935.6,502.8 936.5,503.1 937.4,504.8 938.3,500.2 939.2,503.9 940.1,504.3 940.9,503.1 941.8,502.5 942.7,501.5 943.6,501.7 944.5,506.0 945.3,505.0 946.2,504.7 947.1,501.3 948.0,502.3 948.9,502.8 949.7,503.2 950.6,504.9 951.5,503.3 952.4,502.9 953.3,503.2 954.1,504.8 955.0,502.7 955.9,503.1 956.8,503.4 957.7,505.0 958.5,505.2 959.4,497.7 960.3,504.9 961.2,503.4 962.1,504.5 963.0,505.0 963.8,503.6 964.7,505.2 965.6,503.1 966.5,502.0 967.4,498.4 968.2,505.2 969.1,502.0 970.0,505.4" fill="none" stroke="#ea580c" stroke-width="2.2"/>
<line x1="102" y1="105" x2="126" y2="105" stroke="#ea580c" stroke-width="3"/>
<text x="133" y="109" font-family="sans-serif" font-size="12">b512</text>
<polyline points="90.0,65.0 90.9,65.0 91.8,65.0 92.6,65.0 93.5,65.0 94.4,65.0 95.3,65.0 96.2,65.0 97.0,65.0 97.9,65.0 98.8,65.0 99.7,65.0 100.6,65.0 101.5,65.0 102.3,65.0 103.2,65.0 104.1,65.0 105.0,65.0 105.9,65.0 106.7,65.0 107.6,65.0 108.5,65.0 109.4,69.8 110.3,85.7 111.1,97.2 112.0,111.6 112.9,114.4 113.8,126.0 114.7,133.6 115.5,135.4 116.4,145.3 117.3,151.3 118.2,156.0 119.1,157.3 119.9,166.1 120.8,165.3 121.7,176.9 122.6,179.5 123.5,182.8 124.4,187.6 125.2,195.2 126.1,197.6 127.0,202.2 127.9,204.4 128.8,209.9 129.6,205.2 130.5,215.3 131.4,220.8 132.3,224.1 133.2,228.2 134.0,230.7 134.9,233.8 135.8,237.3 136.7,225.5 137.6,232.2 138.4,235.5 139.3,235.4 140.2,241.1 141.1,248.0 142.0,254.8 142.9,256.0 143.7,263.1 144.6,265.7 145.5,266.2 146.4,272.6 147.3,276.7 148.1,279.5 149.0,280.2 149.9,289.0 150.8,289.9 151.7,291.2 152.5,296.2 153.4,297.9 154.3,295.8 155.2,297.0 156.1,300.5 156.9,305.5 157.8,307.2 158.7,313.9 159.6,316.1 160.5,317.0 161.4,321.8 162.2,321.1 163.1,320.6 164.0,326.2 164.9,327.7 165.8,330.4 166.6,336.3 167.5,337.4 168.4,340.4 169.3,338.3 170.2,342.7 171.0,343.4 171.9,347.2 172.8,349.4 173.7,347.4 174.6,346.6 175.4,351.1 176.3,355.8 177.2,358.8 178.1,353.0 179.0,355.8 179.8,355.3 180.7,363.2 181.6,360.5 182.5,362.4 183.4,365.7 184.3,367.8 185.1,367.0 186.0,369.8 186.9,371.0 187.8,374.4 188.7,375.6 189.5,376.4 190.4,379.7 191.3,379.1 192.2,379.8 193.1,382.4 193.9,385.6 194.8,388.7 195.7,387.8 196.6,388.0 197.5,386.4 198.3,384.4 199.2,387.5 200.1,385.4 201.0,389.9 201.9,390.5 202.8,391.4 203.6,392.3 204.5,395.2 205.4,396.3 206.3,399.4 207.2,395.3 208.0,401.4 208.9,401.5 209.8,402.5 210.7,405.5 211.6,402.0 212.4,405.7 213.3,404.9 214.2,405.3 215.1,408.2 216.0,407.1 216.8,407.3 217.7,409.2 218.6,409.6 219.5,408.2 220.4,408.6 221.3,408.7 222.1,412.5 223.0,411.7 223.9,415.7 224.8,417.3 225.7,413.9 226.5,419.2 227.4,416.3 228.3,417.9 229.2,414.7 230.1,416.4 230.9,421.8 231.8,418.7 232.7,418.7 233.6,424.4 234.5,420.8 235.3,420.2 236.2,424.8 237.1,421.7 238.0,424.9 238.9,424.0 239.7,422.2 240.6,427.4 241.5,426.2 242.4,428.3 243.3,426.7 244.2,424.4 245.0,426.2 245.9,428.0 246.8,428.9 247.7,432.0 248.6,430.8 249.4,431.2 250.3,431.9 251.2,429.3 252.1,429.9 253.0,429.5 253.8,430.6 254.7,429.6 255.6,433.8 256.5,433.7 257.4,434.5 258.2,431.6 259.1,434.6 260.0,438.2 260.9,435.3 261.8,434.6 262.7,435.7 263.5,435.0 264.4,438.5 265.3,435.5 266.2,434.4 267.1,435.0 267.9,438.7 268.8,441.2 269.7,440.1 270.6,442.4 271.5,442.3 272.3,439.6 273.2,442.9 274.1,441.5 275.0,442.8 275.9,444.6 276.7,442.4 277.6,439.0 278.5,442.7 279.4,441.6 280.3,443.0 281.2,441.4 282.0,443.6 282.9,445.5 283.8,446.0 284.7,443.3 285.6,445.2 286.4,446.3 287.3,444.9 288.2,443.5 289.1,445.9 290.0,450.4 290.8,449.6 291.7,444.8 292.6,443.5 293.5,447.1 294.4,445.0 295.2,449.1 296.1,444.9 297.0,449.4 297.9,447.3 298.8,450.8 299.6,448.3 300.5,445.0 301.4,448.0 302.3,449.9 303.2,451.9 304.1,448.9 304.9,449.6 305.8,450.2 306.7,452.3 307.6,451.3 308.5,451.7 309.3,452.6 310.2,454.5 311.1,453.9 312.0,453.9 312.9,451.8 313.7,451.0 314.6,454.5 315.5,454.5 316.4,448.8 317.3,455.3 318.1,454.8 319.0,458.3 319.9,453.7 320.8,454.2 321.7,457.9 322.6,453.6 323.4,455.3 324.3,456.8 325.2,454.1 326.1,457.7 327.0,455.0 327.8,456.4 328.7,441.5 329.6,441.7 330.5,449.1 331.4,444.8 332.2,450.9 333.1,450.0 334.0,456.3 334.9,452.0 335.8,456.7 336.6,453.3 337.5,453.8 338.4,451.8 339.3,455.4 340.2,455.9 341.1,455.1 341.9,454.1 342.8,454.5 343.7,458.5 344.6,457.9 345.5,456.5 346.3,456.1 347.2,458.0 348.1,461.6 349.0,464.3 349.9,462.4 350.7,460.4 351.6,460.5 352.5,458.1 353.4,457.6 354.3,459.9 355.1,459.9 356.0,459.1 356.9,461.2 357.8,461.6 358.7,460.3 359.5,461.6 360.4,461.2 361.3,462.8 362.2,464.9 363.1,463.4 364.0,464.9 364.8,463.8 365.7,463.3 366.6,463.6 367.5,463.1 368.4,463.0 369.2,464.7 370.1,465.5 371.0,460.0 371.9,463.9 372.8,465.2 373.6,467.3 374.5,466.9 375.4,464.4 376.3,465.6 377.2,467.9 378.0,465.5 378.9,467.2 379.8,466.9 380.7,468.3 381.6,468.8 382.5,469.3 383.3,467.0 384.2,465.0 385.1,464.4 386.0,464.3 386.9,465.4 387.7,467.1 388.6,465.8 389.5,465.9 390.4,467.6 391.3,466.7 392.1,468.8 393.0,471.0 393.9,467.0 394.8,470.0 395.7,469.9 396.5,467.4 397.4,473.6 398.3,472.0 399.2,468.1 400.1,468.9 401.0,471.2 401.8,471.5 402.7,466.4 403.6,470.5 404.5,471.1 405.4,470.7 406.2,471.0 407.1,472.7 408.0,473.9 408.9,470.1 409.8,472.1 410.6,472.0 411.5,470.3 412.4,474.7 413.3,471.0 414.2,473.2 415.0,472.7 415.9,475.4 416.8,472.2 417.7,473.2 418.6,472.3 419.4,473.4 420.3,474.9 421.2,473.5 422.1,474.4 423.0,470.4 423.9,472.4 424.7,474.6 425.6,472.3 426.5,473.9 427.4,475.5 428.3,471.6 429.1,471.5 430.0,475.8 430.9,476.4 431.8,472.3 432.7,474.8 433.5,473.9 434.4,475.2 435.3,474.9 436.2,473.5 437.1,478.4 437.9,473.6 438.8,477.8 439.7,474.9 440.6,477.3 441.5,474.0 442.4,477.3 443.2,476.8 444.1,473.2 445.0,475.8 445.9,476.0 446.8,479.0 447.6,476.5 448.5,475.6 449.4,475.1 450.3,477.6 451.2,477.7 452.0,479.3 452.9,478.6 453.8,476.3 454.7,476.3 455.6,479.5 456.4,480.1 457.3,477.3 458.2,477.5 459.1,478.1 460.0,477.5 460.9,473.9 461.7,478.8 462.6,478.5 463.5,477.0 464.4,482.3 465.3,478.7 466.1,479.4 467.0,477.7 467.9,480.2 468.8,480.4 469.7,477.3 470.5,478.8 471.4,479.7 472.3,478.4 473.2,476.8 474.1,480.3 474.9,480.4 475.8,479.7 476.7,479.0 477.6,480.9 478.5,478.3 479.3,480.1 480.2,480.8 481.1,479.8 482.0,481.4 482.9,483.6 483.8,483.2 484.6,478.8 485.5,477.3 486.4,479.7 487.3,481.0 488.2,481.4 489.0,481.5 489.9,480.1 490.8,483.4 491.7,483.6 492.6,482.8 493.4,484.8 494.3,480.5 495.2,485.7 496.1,483.1 497.0,481.6 497.8,482.5 498.7,483.8 499.6,482.7 500.5,487.1 501.4,485.3 502.3,480.3 503.1,481.4 504.0,484.7 504.9,480.2 505.8,484.1 506.7,484.9 507.5,484.5 508.4,485.7 509.3,482.6 510.2,483.1 511.1,484.7 511.9,483.0 512.8,483.6 513.7,483.3 514.6,484.4 515.5,480.5 516.3,485.7 517.2,486.5 518.1,485.1 519.0,484.2 519.9,480.7 520.8,484.9 521.6,482.6 522.5,483.8 523.4,484.8 524.3,480.0 525.2,486.7 526.0,485.0 526.9,486.5 527.8,485.4 528.7,483.9 529.6,484.9 530.4,484.9 531.3,488.5 532.2,490.2 533.1,484.5 534.0,486.1 534.8,487.1 535.7,487.7 536.6,485.8 537.5,488.1 538.4,486.6 539.2,487.6 540.1,485.1 541.0,488.9 541.9,488.2 542.8,487.6 543.7,489.3 544.5,489.3 545.4,487.6 546.3,485.4 547.2,485.3 548.1,488.2 548.9,487.2 549.8,489.6 550.7,487.4 551.6,485.8 552.5,485.6 553.3,483.9 554.2,489.6 555.1,488.8 556.0,489.0 556.9,488.6 557.7,485.1 558.6,490.7 559.5,489.8 560.4,487.7 561.3,488.4 562.2,488.6 563.0,489.0 563.9,488.4 564.8,485.6 565.7,489.9 566.6,487.5 567.4,487.9 568.3,492.6 569.2,491.7 570.1,488.0 571.0,488.1 571.8,487.2 572.7,490.8 573.6,489.8 574.5,489.6 575.4,491.6 576.2,487.7 577.1,490.3 578.0,492.6 578.9,490.9 579.8,493.2 580.7,491.1 581.5,488.4 582.4,487.6 583.3,485.2 584.2,488.3 585.1,492.1 585.9,488.6 586.8,492.5 587.7,487.9 588.6,490.0 589.5,489.2 590.3,491.3 591.2,492.1 592.1,490.1 593.0,494.2 593.9,492.6 594.7,490.5 595.6,493.1 596.5,491.2 597.4,491.2 598.3,491.7 599.1,490.9 600.0,497.5 600.9,494.5 601.8,493.7 602.7,488.6 603.6,489.9 604.4,491.2 605.3,492.1 606.2,493.1 607.1,492.3 608.0,492.2 608.8,489.4 609.7,490.6 610.6,493.4 611.5,494.0 612.4,492.9 613.2,492.7 614.1,490.5 615.0,492.2 615.9,494.6 616.8,490.6 617.6,494.5 618.5,492.2 619.4,493.7 620.3,495.5 621.2,494.9 622.1,494.7 622.9,492.0 623.8,492.5 624.7,493.5 625.6,491.5 626.5,493.7 627.3,490.7 628.2,493.3 629.1,492.7 630.0,494.4 630.9,495.1 631.7,497.7 632.6,492.8 633.5,495.3 634.4,494.3 635.3,494.4 636.1,498.7 637.0,494.8 637.9,490.5 638.8,496.6 639.7,493.1 640.6,493.6 641.4,495.0 642.3,496.9 643.2,495.2 644.1,495.1 645.0,496.5 645.8,496.1 646.7,498.6 647.6,494.4 648.5,494.9 649.4,498.1 650.2,495.3 651.1,496.4 652.0,496.2 652.9,494.0 653.8,500.6 654.6,494.5 655.5,495.7 656.4,497.3 657.3,496.9 658.2,497.2 659.0,496.2 659.9,496.0 660.8,493.8 661.7,495.6 662.6,494.6 663.5,499.1 664.3,496.2 665.2,495.5 666.1,495.6 667.0,500.2 667.9,496.3 668.7,496.9 669.6,496.3 670.5,497.1 671.4,497.8 672.3,497.6 673.1,497.7 674.0,497.0 674.9,498.0 675.8,498.8 676.7,493.8 677.5,498.4 678.4,498.4 679.3,499.4 680.2,497.3 681.1,497.4 682.0,494.5 682.8,498.5 683.7,497.0 684.6,500.1 685.5,500.2 686.4,499.0 687.2,497.7 688.1,499.4 689.0,500.6 689.9,498.7 690.8,498.5 691.6,497.6 692.5,498.8 693.4,500.9 694.3,497.1 695.2,498.6 696.0,503.0 696.9,501.2 697.8,498.9 698.7,501.1 699.6,499.9 700.5,499.1 701.3,499.0 702.2,500.4 703.1,499.2 704.0,499.6 704.9,500.3 705.7,503.5 706.6,500.4 707.5,499.1 708.4,499.1 709.3,499.6 710.1,499.0 711.0,501.6 711.9,500.1 712.8,498.5 713.7,500.4 714.5,500.8 715.4,500.3 716.3,500.2 717.2,501.9 718.1,500.7 718.9,499.2 719.8,501.6 720.7,501.1 721.6,499.3 722.5,498.4 723.4,503.4 724.2,498.3 725.1,501.7 726.0,500.8 726.9,499.7 727.8,501.2 728.6,500.0 729.5,500.4 730.4,500.6 731.3,500.7 732.2,502.5 733.0,502.5 733.9,501.8 734.8,498.6 735.7,500.6 736.6,499.9 737.4,498.6 738.3,500.6 739.2,501.0 740.1,499.1 741.0,503.6 741.9,501.0 742.7,502.5 743.6,501.5 744.5,501.5 745.4,501.4 746.3,500.6 747.1,498.9 748.0,505.0 748.9,502.2 749.8,500.9 750.7,502.5 751.5,502.5 752.4,503.2 753.3,501.3 754.2,503.7 755.1,503.5 755.9,502.6 756.8,503.4 757.7,501.4 758.6,503.1 759.5,502.9 760.4,503.2 761.2,501.5 762.1,500.2 763.0,504.1 763.9,502.4 764.8,502.4 765.6,501.2 766.5,503.5 767.4,504.1 768.3,505.9 769.2,503.3 770.0,502.8 770.9,503.6 771.8,502.1 772.7,503.9 773.6,500.3 774.4,504.8 775.3,503.1 776.2,501.3 777.1,505.4 778.0,504.3 778.8,500.5 779.7,503.5 780.6,506.8 781.5,500.9 782.4,502.6 783.3,503.1 784.1,503.5 785.0,502.9 785.9,504.3 786.8,503.4 787.7,504.9 788.5,504.8 789.4,502.2 790.3,505.1 791.2,502.4 792.1,507.2 792.9,503.1 793.8,505.7 794.7,503.1 795.6,505.3 796.5,503.4 797.3,502.6 798.2,504.8 799.1,507.1 800.0,507.3 800.9,506.3 801.8,505.6 802.6,503.7 803.5,503.4 804.4,504.9 805.3,507.4 806.2,504.1 807.0,505.1 807.9,505.9 808.8,505.0 809.7,505.2 810.6,506.6 811.4,504.7 812.3,503.0 813.2,502.7 814.1,504.1 815.0,503.9 815.8,507.6 816.7,505.2 817.6,506.1 818.5,503.7 819.4,506.0 820.3,504.5 821.1,506.7 822.0,506.3 822.9,507.6 823.8,507.8 824.7,506.7 825.5,506.3 826.4,506.0 827.3,506.8 828.2,503.6 829.1,505.3 829.9,506.2 830.8,506.1 831.7,505.5 832.6,503.1 833.5,506.1 834.3,504.4 835.2,509.3 836.1,506.0 837.0,507.0 837.9,505.6 838.7,506.2 839.6,505.5 840.5,507.9 841.4,505.3 842.3,505.8 843.2,503.7 844.0,506.0 844.9,509.6 845.8,506.1 846.7,505.4 847.6,504.6 848.4,506.4 849.3,509.4 850.2,507.3 851.1,507.1 852.0,505.6 852.8,508.8 853.7,506.4 854.6,504.2 855.5,505.6 856.4,508.5 857.2,504.4 858.1,508.6 859.0,509.4 859.9,504.2 860.8,504.3 861.7,504.8 862.5,506.1 863.4,506.3 864.3,509.2 865.2,510.5 866.1,505.6 866.9,505.5 867.8,505.3 868.7,505.4 869.6,507.0 870.5,506.6 871.3,508.0 872.2,508.2 873.1,504.5 874.0,507.7 874.9,507.6 875.7,508.4 876.6,506.2 877.5,509.0 878.4,509.5 879.3,507.3 880.2,509.3 881.0,505.8 881.9,505.2 882.8,505.4 883.7,505.2 884.6,507.5 885.4,506.3 886.3,507.8 887.2,509.2 888.1,510.1 889.0,510.2 889.8,507.6 890.7,505.7 891.6,506.6 892.5,509.4 893.4,509.4 894.2,507.6 895.1,506.5 896.0,509.3 896.9,507.4 897.8,507.5 898.6,508.3 899.5,509.3 900.4,508.8 901.3,508.7 902.2,508.4 903.1,505.0 903.9,508.7 904.8,510.6 905.7,509.0 906.6,509.1 907.5,508.0 908.3,509.1 909.2,510.5 910.1,511.5 911.0,510.1 911.9,507.3 912.7,508.7 913.6,508.8 914.5,510.1 915.4,510.4 916.3,508.2 917.1,508.9 918.0,506.5 918.9,507.5 919.8,508.3 920.7,508.0 921.6,508.4 922.4,506.3 923.3,509.6 924.2,511.2 925.1,508.9 926.0,509.8 926.8,506.0 927.7,507.8 928.6,509.1 929.5,508.8 930.4,509.3 931.2,505.5 932.1,511.0 933.0,510.9 933.9,508.7 934.8,508.3 935.6,509.1 936.5,509.0 937.4,509.0 938.3,509.7 939.2,508.9 940.1,511.2 940.9,505.3 941.8,506.8 942.7,508.6 943.6,511.1 944.5,509.7 945.3,510.0 946.2,506.0 947.1,509.5 948.0,510.5 948.9,510.0 949.7,507.5 950.6,510.6 951.5,509.3 952.4,510.5 953.3,510.0 954.1,510.6 955.0,508.8 955.9,509.8 956.8,506.2 957.7,506.6 958.5,508.4 959.4,508.1 960.3,510.6 961.2,507.5 962.1,510.7 963.0,509.3 963.8,509.0 964.7,510.2 965.6,509.2 966.5,509.2 967.4,511.7 968.2,508.7 969.1,507.6 970.0,508.9" fill="none" stroke="#0891b2" stroke-width="2.2"/>
<line x1="307" y1="105" x2="331" y2="105" stroke="#0891b2" stroke-width="3"/>
<text x="338" y="109" font-family="sans-serif" font-size="12">b768</text>
</svg>
