<svg xmlns="http://www.w3.org/2000/svg" width="1000" height="620" viewBox="0 0 1000 620">
<rect width="100%" height="100%" fill="white"/>
<text x="500.0" y="32" text-anchor="middle" font-family="sans-serif" font-size="22">TinyStories learning-rate sweep (validation loss)</text>
<line x1="90.0" y1="65" x2="90.0" y2="545" stroke="#e5e7eb"/>
<text x="90.0" y="570" text-anchor="middle" font-family="sans-serif" font-size="12">50</text>
<line x1="90" y1="65.0" x2="970" y2="65.0" stroke="#e5e7eb"/>
<text x="78" y="69.0" text-anchor="end" font-family="sans-serif" font-size="12">6</text>
<line x1="266.0" y1="65" x2="266.0" y2="545" stroke="#e5e7eb"/>
<text x="266.0" y="570" text-anchor="middle" font-family="sans-serif" font-size="12">240</text>
<line x1="90" y1="161.0" x2="970" y2="161.0" stroke="#e5e7eb"/>
<text x="78" y="165.0" text-anchor="end" font-family="sans-serif" font-size="12">5.08</text>
<line x1="442.0" y1="65" x2="442.0" y2="545" stroke="#e5e7eb"/>
<text x="442.0" y="570" text-anchor="middle" font-family="sans-serif" font-size="12">430</text>
<line x1="90" y1="257.0" x2="970" y2="257.0" stroke="#e5e7eb"/>
<text x="78" y="261.0" text-anchor="end" font-family="sans-serif" font-size="12">4.16</text>
<line x1="618.0" y1="65" x2="618.0" y2="545" stroke="#e5e7eb"/>
<text x="618.0" y="570" text-anchor="middle" font-family="sans-serif" font-size="12">620</text>
<line x1="90" y1="353.0" x2="970" y2="353.0" stroke="#e5e7eb"/>
<text x="78" y="357.0" text-anchor="end" font-family="sans-serif" font-size="12">3.24</text>
<line x1="794.0" y1="65" x2="794.0" y2="545" stroke="#e5e7eb"/>
<text x="794.0" y="570" text-anchor="middle" font-family="sans-serif" font-size="12">810</text>
<line x1="90" y1="449.0" x2="970" y2="449.0" stroke="#e5e7eb"/>
<text x="78" y="453.0" text-anchor="end" font-family="sans-serif" font-size="12">2.32</text>
<line x1="970.0" y1="65" x2="970.0" y2="545" stroke="#e5e7eb"/>
<text x="970.0" y="570" text-anchor="middle" font-family="sans-serif" font-size="12">1e+03</text>
<line x1="90" y1="545.0" x2="970" y2="545.0" stroke="#e5e7eb"/>
<text x="78" y="549.0" text-anchor="end" font-family="sans-serif" font-size="12">1.4</text>
<line x1="90" y1="545" x2="970" y2="545" stroke="#111827" stroke-width="2"/>
<line x1="90" y1="65" x2="90" y2="545" stroke="#111827" stroke-width="2"/>
<text x="530.0" y="600" text-anchor="middle" font-family="sans-serif" font-size="15">step</text>
<text x="20" y="305.0" text-anchor="middle" transform="rotate(-90 20 305.0)" font-family="sans-serif" font-size="15">val_loss</text>
<polyline points="90.0,65.0 136.3,174.8 182.6,260.9 228.9,304.2 275.3,329.1 321.6,348.4 367.9,359.6 414.2,370.1 460.5,377.5 506.8,383.3 553.2,386.2 599.5,391.4 645.8,394.6 692.1,397.0 738.4,399.7 784.7,401.3 831.1,400.5 877.4,403.4 923.7,402.6 970.0,405.3" fill="none" stroke="#2563eb" stroke-width="2.2"/>
<line x1="102" y1="83" x2="126" y2="83" stroke="#2563eb" stroke-width="3"/>
<text x="133" y="87" font-family="sans-serif" font-size="12">1e-4</text>
<polyline points="90.0,148.7 136.3,307.1 182.6,355.5 228.9,383.5 275.3,400.3 321.6,414.0 367.9,421.6 414.2,429.4 460.5,434.8 506.8,439.4 553.2,441.8 599.5,446.1 645.8,449.1 692.1,451.6 738.4,453.8 784.7,455.7 831.1,454.9 877.4,458.0 923.7,457.4 970.0,459.7" fill="none" stroke="#dc2626" stroke-width="2.2"/>
<line x1="307" y1="83" x2="331" y2="83" stroke="#dc2626" stroke-width="3"/>
<text x="338" y="87" font-family="sans-serif" font-size="12">3e-4</text>
<polyline points="90.0,282.3 136.3,377.8 182.6,416.8 228.9,439.0 275.3,452.5 321.6,465.5 367.9,472.5 414.2,479.0 460.5,484.4 506.8,488.1 553.2,489.9 599.5,493.9 645.8,496.6 692.1,498.8 738.4,500.4 784.7,502.8 831.1,501.8 877.4,504.9 923.7,504.4 970.0,506.6" fill="none" stroke="#16a34a" stroke-width="2.2"/>
<line x1="512" y1="83" x2="536" y2="83" stroke="#16a34a" stroke-width="3"/>
<text x="543" y="87" font-family="sans-serif" font-size="12">1e-3</text>
<polyline points="90.0,318.4 136.3,402.1 182.6,441.1 228.9,462.3 275.3,472.9 321.6,482.5 367.9,487.4 414.2,493.3 460.5,498.0 506.8,501.3 553.2,503.6 599.5,507.5 645.8,510.7 692.1,513.2 738.4,515.3 784.7,517.8 831.1,517.4 877.4,520.6 923.7,520.6 970.0,522.8" fill="none" stroke="#9333ea" stroke-width="2.2"/>
<line x1="717" y1="83" x2="741" y2="83" stroke="#9333ea" stroke-width="3"/>
<text x="748" y="87" font-family="sans-serif" font-size="12">3e-3</text>
<polyline points="90.0,295.2 136.3,363.9 182.6,293.3 228.9,315.7 275.3,65.0 321.6,65.0 367.9,65.0 414.2,100.9 460.5,158.5 506.8,78.4 553.2,65.0 599.5,134.1 645.8,108.4 692.1,107.3 738.4,131.9 784.7,143.2 831.1,164.6 877.4,149.7 923.7,167.3 970.0,179.6" fill="none" stroke="#ea580c" stroke-width="2.2"/>
<line x1="102" y1="105" x2="126" y2="105" stroke="#ea580c" stroke-width="3"/>
<text x="133" y="109" font-family="sans-serif" font-size="12">1e-2</text>
<polyline points="90.0,253.8 136.3,65.0" fill="none" stroke="#0891b2" stroke-width="2.2"/>
<line x1="307" y1="105" x2="331" y2="105" stroke="#0891b2" stroke-width="3"/>
<text x="338" y="109" font-family="sans-serif" font-size="12">3e-2</text>
</svg>
