<svg xmlns="http://www.w3.org/2000/svg" width="1000" height="620" viewBox="0 0 1000 620">
<rect width="100%" height="100%" fill="white"/>
<text x="500.0" y="32" text-anchor="middle" font-family="sans-serif" font-size="22">TinyStories learning-rate sweep (train loss)</text>
<line x1="90.0" y1="65" x2="90.0" y2="545" stroke="#e5e7eb"/>
<text x="90.0" y="570" text-anchor="middle" font-family="sans-serif" font-size="12">1</text>
<line x1="90" y1="65.0" x2="970" y2="65.0" stroke="#e5e7eb"/>
<text x="78" y="69.0" text-anchor="end" font-family="sans-serif" font-size="12">10</text>
<line x1="266.0" y1="65" x2="266.0" y2="545" stroke="#e5e7eb"/>
<text x="266.0" y="570" text-anchor="middle" font-family="sans-serif" font-size="12">201</text>
<line x1="90" y1="161.0" x2="970" y2="161.0" stroke="#e5e7eb"/>
<text x="78" y="165.0" text-anchor="end" font-family="sans-serif" font-size="12">8.28</text>
<line x1="442.0" y1="65" x2="442.0" y2="545" stroke="#e5e7eb"/>
<text x="442.0" y="570" text-anchor="middle" font-family="sans-serif" font-size="12">401</text>
<line x1="90" y1="257.0" x2="970" y2="257.0" stroke="#e5e7eb"/>
<text x="78" y="261.0" text-anchor="end" font-family="sans-serif" font-size="12">6.56</text>
<line x1="618.0" y1="65" x2="618.0" y2="545" stroke="#e5e7eb"/>
<text x="618.0" y="570" text-anchor="middle" font-family="sans-serif" font-size="12">600</text>
<line x1="90" y1="353.0" x2="970" y2="353.0" stroke="#e5e7eb"/>
<text x="78" y="357.0" text-anchor="end" font-family="sans-serif" font-size="12">4.84</text>
<line x1="794.0" y1="65" x2="794.0" y2="545" stroke="#e5e7eb"/>
<text x="794.0" y="570" text-anchor="middle" font-family="sans-serif" font-size="12">800</text>
<line x1="90" y1="449.0" x2="970" y2="449.0" stroke="#e5e7eb"/>
<text x="78" y="453.0" text-anchor="end" font-family="sans-serif" font-size="12">3.12</text>
<line x1="970.0" y1="65" x2="970.0" y2="545" stroke="#e5e7eb"/>
<text x="970.0" y="570" text-anchor="middle" font-family="sans-serif" font-size="12">1e+03</text>
<line x1="90" y1="545.0" x2="970" y2="545.0" stroke="#e5e7eb"/>
<text x="78" y="549.0" text-anchor="end" font-family="sans-serif" font-size="12">1.4</text>
<line x1="90" y1="545" x2="970" y2="545" stroke="#111827" stroke-width="2"/>
<line x1="90" y1="65" x2="90" y2="545" stroke="#111827" stroke-width="2"/>
<text x="530.0" y="600" text-anchor="middle" font-family="sans-serif" font-size="15">step</text>
<text x="20" y="305.0" text-anchor="middle" transform="rotate(-90 20 305.0)" font-family="sans-serif" font-size="15">train_loss</text>
<polyline points="90.0,106.7 90.9,106.8 91.8,107.0 92.6,107.3 93.5,107.6 94.4,108.3 95.3,109.0 96.2,110.0 97.0,111.1 97.9,112.3 98.8,113.5 99.7,114.9 100.6,116.4 101.5,118.4 102.3,120.2 103.2,122.1 104.1,124.1 105.0,126.6 105.9,128.8 106.7,131.0 107.6,133.6 108.5,135.9 109.4,138.9 110.3,142.1 111.1,145.4 112.0,147.9 112.9,151.4 113.8,154.7 114.7,158.0 115.5,160.4 116.4,164.3 117.3,167.1 118.2,169.9 119.1,172.9 119.9,176.7 120.8,178.9 121.7,182.6 122.6,186.3 123.5,189.2 124.4,192.0 125.2,195.5 126.1,197.9 127.0,201.5 127.9,205.0 128.8,207.0 129.6,211.9 130.5,214.5 131.4,218.0 132.3,221.4 133.2,224.8 134.0,227.8 134.9,231.4 135.8,235.8 136.7,239.7 137.6,241.2 138.4,245.5 139.3,248.6 140.2,252.5 141.1,255.5 142.0,258.0 142.9,261.7 143.7,263.2 144.6,268.5 145.5,270.9 146.4,272.8 147.3,276.9 148.1,280.1 149.0,281.1 149.9,284.9 150.8,288.0 151.7,288.7 152.5,292.1 153.4,294.6 154.3,296.5 155.2,300.0 156.1,302.2 156.9,304.9 157.8,306.2 158.7,308.2 159.6,310.2 160.5,312.6 161.4,314.4 162.2,317.6 163.1,319.5 164.0,320.5 164.9,325.1 165.8,324.0 166.6,325.5 167.5,327.0 168.4,330.2 169.3,331.5 170.2,332.5 171.0,335.6 171.9,336.8 172.8,338.0 173.7,339.4 174.6,340.8 175.4,342.7 176.3,341.5 177.2,345.0 178.1,347.2 179.0,348.0 179.8,350.9 180.7,348.8 181.6,351.8 182.5,353.1 183.4,355.7 184.3,358.1 185.1,357.0 186.0,357.2 186.9,360.6 187.8,360.7 188.7,362.0 189.5,362.3 190.4,363.8 191.3,365.3 192.2,366.6 193.1,366.3 193.9,371.8 194.8,368.3 195.7,369.7 196.6,371.6 197.5,371.1 198.3,372.8 199.2,374.4 200.1,376.0 201.0,377.2 201.9,376.7 202.8,379.3 203.6,380.2 204.5,379.0 205.4,381.2 206.3,381.9 207.2,382.9 208.0,383.8 208.9,381.7 209.8,384.0 210.7,386.8 211.6,386.6 212.4,389.7 213.3,385.2 214.2,389.9 215.1,389.8 216.0,388.4 216.8,391.9 217.7,391.1 218.6,393.9 219.5,391.9 220.4,392.2 221.3,394.2 222.1,395.0 223.0,393.8 223.9,396.9 224.8,395.5 225.7,396.6 226.5,396.9 227.4,398.6 228.3,397.0 229.2,402.9 230.1,399.5 230.9,401.6 231.8,399.8 232.7,399.0 233.6,400.9 234.5,402.8 235.3,404.5 236.2,402.8 237.1,405.2 238.0,405.6 238.9,402.8 239.7,405.3 240.6,405.7 241.5,406.1 242.4,404.5 243.3,407.4 244.2,408.2 245.0,410.2 245.9,406.4 246.8,407.9 247.7,410.9 248.6,410.0 249.4,408.3 250.3,409.4 251.2,409.5 252.1,411.9 253.0,414.6 253.8,411.1 254.7,414.6 255.6,411.5 256.5,412.9 257.4,412.3 258.2,412.6 259.1,414.2 260.0,415.9 260.9,413.4 261.8,415.9 262.7,414.6 263.5,415.8 264.4,417.2 265.3,416.7 266.2,415.0 267.1,416.6 267.9,418.3 268.8,417.2 269.7,418.9 270.6,417.1 271.5,419.5 272.3,420.0 273.2,418.4 274.1,420.2 275.0,423.4 275.9,420.1 276.7,421.5 277.6,422.3 278.5,419.0 279.4,422.8 280.3,425.2 281.2,422.9 282.0,422.2 282.9,425.3 283.8,421.7 284.7,422.6 285.6,425.2 286.4,421.8 287.3,423.6 288.2,425.9 289.1,424.5 290.0,424.7 290.8,424.3 291.7,425.2 292.6,425.6 293.5,425.8 294.4,426.9 295.2,425.6 296.1,427.9 297.0,427.0 297.9,429.9 298.8,428.0 299.6,427.5 300.5,430.0 301.4,428.2 302.3,430.3 303.2,428.8 304.1,428.2 304.9,429.2 305.8,429.6 306.7,428.7 307.6,429.1 308.5,432.0 309.3,431.5 310.2,429.6 311.1,431.6 312.0,429.7 312.9,430.1 313.7,431.1 314.6,427.6 315.5,432.2 316.4,430.5 317.3,431.3 318.1,432.4 319.0,430.3 319.9,434.2 320.8,435.0 321.7,435.5 322.6,433.6 323.4,435.1 324.3,434.5 325.2,434.2 326.1,434.5 327.0,433.4 327.8,434.3 328.7,435.3 329.6,434.5 330.5,436.6 331.4,434.3 332.2,435.0 333.1,435.1 334.0,434.6 334.9,434.5 335.8,435.9 336.6,439.1 337.5,436.4 338.4,437.0 339.3,437.7 340.2,436.7 341.1,436.6 341.9,438.0 342.8,437.1 343.7,438.2 344.6,440.3 345.5,438.8 346.3,440.3 347.2,438.6 348.1,440.9 349.0,438.5 349.9,438.5 350.7,440.6 351.6,441.4 352.5,440.1 353.4,440.3 354.3,441.7 355.1,440.5 356.0,439.9 356.9,442.8 357.8,443.4 358.7,439.1 359.5,442.4 360.4,441.3 361.3,439.5 362.2,441.7 363.1,440.9 364.0,439.2 364.8,443.1 365.7,442.4 366.6,441.1 367.5,443.1 368.4,442.3 369.2,443.9 370.1,443.9 371.0,446.3 371.9,443.9 372.8,442.7 373.6,443.5 374.5,444.3 375.4,445.2 376.3,442.6 377.2,445.7 378.0,443.5 378.9,443.7 379.8,444.4 380.7,445.0 381.6,444.9 382.5,446.4 383.3,443.7 384.2,446.3 385.1,446.2 386.0,446.1 386.9,446.1 387.7,446.3 388.6,447.2 389.5,447.8 390.4,446.5 391.3,448.2 392.1,445.2 393.0,447.3 393.9,446.8 394.8,444.2 395.7,448.8 396.5,447.2 397.4,446.9 398.3,450.8 399.2,448.8 400.1,448.0 401.0,446.1 401.8,446.1 402.7,449.2 403.6,450.5 404.5,447.6 405.4,447.1 406.2,450.5 407.1,448.2 408.0,447.6 408.9,448.2 409.8,450.5 410.6,450.0 411.5,451.1 412.4,451.5 413.3,448.4 414.2,447.0 415.0,448.6 415.9,450.7 416.8,449.6 417.7,449.5 418.6,449.2 419.4,450.4 420.3,449.3 421.2,447.0 422.1,450.2 423.0,450.8 423.9,451.8 424.7,451.5 425.6,452.0 426.5,450.7 427.4,450.2 428.3,450.9 429.1,451.7 430.0,451.5 430.9,450.7 431.8,451.9 432.7,451.1 433.5,452.1 434.4,453.8 435.3,450.9 436.2,452.6 437.1,450.7 437.9,451.5 438.8,449.7 439.7,452.7 440.6,452.0 441.5,452.7 442.4,453.5 443.2,452.0 444.1,451.5 445.0,449.8 445.9,453.7 446.8,454.3 447.6,455.2 448.5,451.6 449.4,452.3 450.3,451.2 451.2,455.4 452.0,456.6 452.9,451.5 453.8,453.3 454.7,451.1 455.6,453.7 456.4,456.5 457.3,454.8 458.2,454.7 459.1,454.1 460.0,452.8 460.9,454.0 461.7,454.6 462.6,452.1 463.5,452.7 464.4,453.2 465.3,455.2 466.1,453.0 467.0,452.9 467.9,456.4 468.8,455.9 469.7,457.2 470.5,454.3 471.4,457.4 472.3,455.4 473.2,453.5 474.1,454.1 474.9,455.5 475.8,453.6 476.7,458.1 477.6,456.8 478.5,458.2 479.3,456.4 480.2,454.2 481.1,456.0 482.0,455.3 482.9,455.6 483.8,455.4 484.6,455.1 485.5,458.5 486.4,456.4 487.3,456.0 488.2,454.6 489.0,456.1 489.9,455.9 490.8,454.7 491.7,457.3 492.6,459.4 493.4,454.7 494.3,459.9 495.2,456.3 496.1,458.7 497.0,458.1 497.8,456.9 498.7,458.1 499.6,455.3 500.5,458.7 501.4,455.3 502.3,457.6 503.1,456.6 504.0,458.5 504.9,455.7 505.8,458.9 506.7,456.6 507.5,456.8 508.4,459.1 509.3,457.7 510.2,457.6 511.1,457.4 511.9,457.0 512.8,458.2 513.7,461.3 514.6,458.1 515.5,460.6 516.3,458.8 517.2,459.7 518.1,456.4 519.0,459.3 519.9,458.7 520.8,459.5 521.6,460.6 522.5,457.6 523.4,459.6 524.3,457.9 525.2,458.3 526.0,457.8 526.9,458.5 527.8,461.2 528.7,457.8 529.6,458.6 530.4,459.5 531.3,460.1 532.2,459.3 533.1,462.8 534.0,456.7 534.8,460.0 535.7,460.7 536.6,456.5 537.5,458.4 538.4,458.9 539.2,458.9 540.1,461.6 541.0,460.3 541.9,459.5 542.8,460.4 543.7,463.1 544.5,461.9 545.4,460.5 546.3,461.0 547.2,461.7 548.1,455.5 548.9,461.0 549.8,459.5 550.7,460.3 551.6,460.8 552.5,460.7 553.3,460.5 554.2,461.5 555.1,458.6 556.0,463.7 556.9,460.2 557.7,461.5 558.6,457.7 559.5,462.2 560.4,458.6 561.3,459.6 562.2,462.4 563.0,460.5 563.9,459.1 564.8,460.5 565.7,462.0 566.6,459.5 567.4,459.5 568.3,460.9 569.2,461.9 570.1,463.2 571.0,460.3 571.8,464.9 572.7,462.4 573.6,461.8 574.5,462.8 575.4,461.2 576.2,461.6 577.1,462.5 578.0,464.8 578.9,459.9 579.8,462.0 580.7,463.6 581.5,461.0 582.4,464.2 583.3,463.0 584.2,463.9 585.1,460.1 585.9,462.3 586.8,463.0 587.7,463.8 588.6,461.0 589.5,462.9 590.3,463.4 591.2,462.0 592.1,461.7 593.0,461.5 593.9,462.4 594.7,461.9 595.6,462.7 596.5,463.2 597.4,461.9 598.3,463.6 599.1,464.0 600.0,465.1 600.9,463.9 601.8,462.4 602.7,463.3 603.6,463.2 604.4,462.4 605.3,462.5 606.2,464.3 607.1,462.3 608.0,467.4 608.8,463.5 609.7,463.5 610.6,462.6 611.5,463.4 612.4,464.3 613.2,465.0 614.1,460.0 615.0,464.1 615.9,464.0 616.8,465.1 617.6,465.5 618.5,465.0 619.4,463.3 620.3,464.2 621.2,463.6 622.1,466.6 622.9,464.5 623.8,464.6 624.7,463.5 625.6,464.8 626.5,466.9 627.3,462.7 628.2,464.2 629.1,465.8 630.0,463.0 630.9,463.4 631.7,462.9 632.6,464.6 633.5,464.5 634.4,465.3 635.3,465.1 636.1,462.4 637.0,464.5 637.9,464.5 638.8,466.3 639.7,466.2 640.6,463.1 641.4,464.3 642.3,465.1 643.2,463.8 644.1,466.4 645.0,465.8 645.8,464.9 646.7,464.8 647.6,462.2 648.5,466.9 649.4,466.0 650.2,464.3 651.1,466.2 652.0,463.2 652.9,465.3 653.8,463.0 654.6,463.6 655.5,463.4 656.4,465.1 657.3,465.6 658.2,465.7 659.0,464.4 659.9,464.1 660.8,466.3 661.7,465.5 662.6,464.8 663.5,465.4 664.3,462.6 665.2,466.4 666.1,464.5 667.0,467.6 667.9,465.0 668.7,465.1 669.6,466.2 670.5,467.9 671.4,464.0 672.3,466.6 673.1,468.4 674.0,465.9 674.9,463.5 675.8,467.6 676.7,466.5 677.5,467.2 678.4,467.2 679.3,466.7 680.2,466.7 681.1,467.6 682.0,468.4 682.8,465.9 683.7,465.8 684.6,467.2 685.5,466.5 686.4,466.0 687.2,465.3 688.1,466.3 689.0,465.7 689.9,468.1 690.8,464.9 691.6,466.1 692.5,466.3 693.4,467.1 694.3,466.8 695.2,465.9 696.0,465.2 696.9,467.1 697.8,466.4 698.7,463.2 699.6,465.5 700.5,465.8 701.3,468.6 702.2,466.2 703.1,467.0 704.0,468.0 704.9,465.8 705.7,468.1 706.6,468.0 707.5,470.4 708.4,466.1 709.3,466.8 710.1,465.4 711.0,467.0 711.9,468.9 712.8,466.5 713.7,463.9 714.5,465.5 715.4,468.6 716.3,468.7 717.2,465.4 718.1,467.2 718.9,468.0 719.8,469.1 720.7,465.2 721.6,469.0 722.5,466.1 723.4,468.1 724.2,466.3 725.1,467.2 726.0,467.0 726.9,466.9 727.8,466.6 728.6,469.2 729.5,469.0 730.4,466.5 731.3,467.4 732.2,466.3 733.0,466.9 733.9,468.6 734.8,467.5 735.7,466.6 736.6,467.4 737.4,466.9 738.3,467.0 739.2,467.2 740.1,468.2 741.0,466.1 741.9,467.9 742.7,467.0 743.6,469.2 744.5,468.5 745.4,471.5 746.3,466.2 747.1,467.9 748.0,467.9 748.9,468.7 749.8,472.3 750.7,463.0 751.5,469.5 752.4,466.0 753.3,467.9 754.2,470.3 755.1,467.1 755.9,467.4 756.8,466.5 757.7,467.9 758.6,469.6 759.5,467.8 760.4,466.1 761.2,467.6 762.1,467.5 763.0,465.5 763.9,469.0 764.8,466.0 765.6,469.4 766.5,467.6 767.4,469.4 768.3,466.8 769.2,467.9 770.0,468.9 770.9,465.4 771.8,467.0 772.7,468.4 773.6,466.7 774.4,466.8 775.3,468.5 776.2,467.7 777.1,469.0 778.0,466.6 778.8,466.3 779.7,471.0 780.6,470.9 781.5,471.6 782.4,468.6 783.3,469.1 784.1,469.9 785.0,468.9 785.9,468.8 786.8,469.3 787.7,470.6 788.5,466.6 789.4,467.4 790.3,470.3 791.2,469.3 792.1,467.6 792.9,465.9 793.8,467.6 794.7,467.8 795.6,470.5 796.5,468.6 797.3,468.4 798.2,469.5 799.1,466.7 800.0,468.1 800.9,468.3 801.8,467.8 802.6,468.4 803.5,466.8 804.4,468.7 805.3,469.5 806.2,469.6 807.0,467.6 807.9,467.0 808.8,468.7 809.7,470.2 810.6,467.2 811.4,468.7 812.3,469.6 813.2,467.6 814.1,468.5 815.0,469.8 815.8,468.8 816.7,469.6 817.6,468.5 818.5,471.5 819.4,470.5 820.3,468.0 821.1,468.2 822.0,469.4 822.9,468.8 823.8,469.1 824.7,470.1 825.5,470.3 826.4,472.6 827.3,468.3 828.2,467.9 829.1,467.3 829.9,469.8 830.8,470.6 831.7,468.4 832.6,468.3 833.5,469.2 834.3,469.7 835.2,469.9 836.1,469.9 837.0,469.1 837.9,470.0 838.7,469.0 839.6,467.2 840.5,468.9 841.4,468.7 842.3,469.0 843.2,469.3 844.0,471.6 844.9,466.4 845.8,471.2 846.7,468.3 847.6,470.5 848.4,470.6 849.3,469.8 850.2,470.2 851.1,467.8 852.0,470.7 852.8,468.2 853.7,468.4 854.6,469.8 855.5,469.4 856.4,470.3 857.2,471.3 858.1,469.5 859.0,469.7 859.9,468.6 860.8,470.9 861.7,470.5 862.5,469.5 863.4,469.2 864.3,470.5 865.2,469.7 866.1,468.7 866.9,469.9 867.8,470.1 868.7,471.7 869.6,471.5 870.5,470.5 871.3,471.0 872.2,468.4 873.1,471.8 874.0,471.4 874.9,468.2 875.7,469.1 876.6,470.7 877.5,471.4 878.4,470.2 879.3,466.9 880.2,468.0 881.0,469.8 881.9,470.7 882.8,470.4 883.7,468.8 884.6,467.1 885.4,472.5 886.3,469.0 887.2,468.1 888.1,468.6 889.0,470.5 889.8,469.3 890.7,471.2 891.6,469.1 892.5,470.0 893.4,469.3 894.2,470.4 895.1,470.6 896.0,469.0 896.9,472.0 897.8,471.0 898.6,470.6 899.5,466.9 900.4,469.2 901.3,470.4 902.2,471.3 903.1,468.9 903.9,469.1 904.8,472.4 905.7,468.4 906.6,470.7 907.5,469.1 908.3,470.2 909.2,469.0 910.1,472.8 911.0,469.8 911.9,473.3 912.7,472.6 913.6,472.4 914.5,469.0 915.4,470.4 916.3,470.1 917.1,470.8 918.0,473.3 918.9,468.1 919.8,470.4 920.7,470.3 921.6,469.5 922.4,472.0 923.3,469.8 924.2,473.8 925.1,469.1 926.0,470.3 926.8,470.5 927.7,470.7 928.6,471.7 929.5,469.9 930.4,470.2 931.2,471.8 932.1,468.4 933.0,467.5 933.9,473.0 934.8,470.5 935.6,471.9 936.5,471.8 937.4,470.3 938.3,471.9 939.2,468.8 940.1,472.0 940.9,471.5 941.8,469.7 942.7,467.7 943.6,469.7 944.5,471.5 945.3,472.9 946.2,473.0 947.1,469.0 948.0,469.3 948.9,470.9 949.7,471.9 950.6,469.5 951.5,470.5 952.4,470.3 953.3,472.9 954.1,469.6 955.0,469.8 955.9,471.6 956.8,470.9 957.7,471.6 958.5,469.6 959.4,471.3 960.3,470.9 961.2,471.5 962.1,469.8 963.0,470.4 963.8,474.1 964.7,469.6 965.6,473.9 966.5,469.8 967.4,471.2 968.2,470.4 969.1,470.4 970.0,469.9" fill="none" stroke="#2563eb" stroke-width="2.2"/>
<line x1="102" y1="83" x2="126" y2="83" stroke="#2563eb" stroke-width="3"/>
<text x="133" y="87" font-family="sans-serif" font-size="12">1e-4</text>
<polyline points="90.0,106.7 90.9,106.8 91.8,107.3 92.6,108.2 93.5,109.4 94.4,111.3 95.3,113.5 96.2,116.2 97.0,119.2 97.9,122.6 98.8,126.2 99.7,130.0 100.6,134.3 101.5,139.0 102.3,143.8 103.2,148.5 104.1,153.5 105.0,159.2 105.9,164.3 106.7,169.2 107.6,174.1 108.5,178.9 109.4,184.1 110.3,189.7 111.1,195.4 112.0,199.8 112.9,205.6 113.8,210.8 114.7,216.7 115.5,221.4 116.4,228.2 117.3,233.3 118.2,239.1 119.1,245.0 119.9,252.2 120.8,256.7 121.7,263.8 122.6,270.7 123.5,276.2 124.4,281.0 125.2,287.5 126.1,291.4 127.0,297.5 127.9,303.5 128.8,305.7 129.6,314.0 130.5,316.4 131.4,321.1 132.3,325.1 133.2,329.1 134.0,332.9 134.9,336.6 135.8,342.1 136.7,346.4 137.6,345.4 138.4,350.5 139.3,353.2 140.2,357.8 141.1,359.6 142.0,360.4 142.9,364.5 143.7,363.5 144.6,371.1 145.5,371.7 146.4,371.6 147.3,377.0 148.1,379.2 149.0,378.5 149.9,382.0 150.8,385.3 151.7,383.5 152.5,386.9 153.4,389.0 154.3,389.5 155.2,393.0 156.1,393.9 156.9,396.5 157.8,395.6 158.7,396.6 159.6,397.2 160.5,400.2 161.4,399.5 162.2,402.7 163.1,404.4 164.0,404.1 164.9,408.8 165.8,405.7 166.6,406.5 167.5,407.4 168.4,409.2 169.3,410.2 170.2,410.0 171.0,412.4 171.9,412.4 172.8,412.7 173.7,413.7 174.6,414.8 175.4,415.7 176.3,412.9 177.2,416.5 178.1,418.0 179.0,418.1 179.8,420.8 180.7,417.9 181.6,420.1 182.5,421.4 183.4,423.8 184.3,425.4 185.1,423.3 186.0,423.5 186.9,426.3 187.8,425.4 188.7,427.2 189.5,426.2 190.4,427.5 191.3,428.1 192.2,428.8 193.1,428.9 193.9,433.2 194.8,428.6 195.7,429.6 196.6,431.4 197.5,430.5 198.3,432.6 199.2,432.9 200.1,434.3 201.0,435.3 201.9,434.3 202.8,436.6 203.6,436.7 204.5,434.7 205.4,436.6 206.3,436.3 207.2,438.8 208.0,439.2 208.9,436.6 209.8,438.2 210.7,440.2 211.6,440.1 212.4,443.2 213.3,438.0 214.2,442.9 215.1,442.2 216.0,440.6 216.8,444.0 217.7,442.3 218.6,445.0 219.5,442.7 220.4,443.3 221.3,444.4 222.1,445.7 223.0,443.9 223.9,446.6 224.8,445.3 225.7,446.0 226.5,446.3 227.4,448.1 228.3,445.8 229.2,451.9 230.1,447.6 230.9,450.4 231.8,447.9 232.7,447.4 233.6,449.3 234.5,450.8 235.3,452.1 236.2,450.2 237.1,452.3 238.0,452.6 238.9,449.2 239.7,451.4 240.6,451.8 241.5,452.1 242.4,450.6 243.3,453.5 244.2,454.2 245.0,456.1 245.9,451.8 246.8,453.4 247.7,455.9 248.6,454.6 249.4,452.8 250.3,454.2 251.2,454.0 252.1,455.7 253.0,459.2 253.8,455.7 254.7,458.8 255.6,455.5 256.5,456.7 257.4,456.0 258.2,455.8 259.1,457.4 260.0,459.7 260.9,457.1 261.8,458.8 262.7,457.9 263.5,459.2 264.4,459.7 265.3,458.9 266.2,457.3 267.1,459.2 267.9,460.5 268.8,459.0 269.7,460.9 270.6,459.2 271.5,461.5 272.3,461.6 273.2,460.5 274.1,461.8 275.0,464.5 275.9,461.2 276.7,462.5 277.6,463.2 278.5,460.0 279.4,463.8 280.3,466.1 281.2,463.6 282.0,463.1 282.9,466.1 283.8,461.7 284.7,463.4 285.6,465.1 286.4,461.8 287.3,463.7 288.2,466.1 289.1,464.5 290.0,464.6 290.8,464.0 291.7,465.3 292.6,465.9 293.5,465.7 294.4,466.8 295.2,465.6 296.1,467.6 297.0,466.7 297.9,469.6 298.8,467.1 299.6,467.1 300.5,469.5 301.4,467.7 302.3,470.0 303.2,468.1 304.1,467.4 304.9,467.8 305.8,468.2 306.7,467.6 307.6,467.9 308.5,469.9 309.3,470.4 310.2,467.7 311.1,470.5 312.0,467.7 312.9,467.8 313.7,468.7 314.6,466.0 315.5,469.9 316.4,468.7 317.3,469.1 318.1,470.1 319.0,467.8 319.9,471.8 320.8,473.3 321.7,473.1 322.6,472.1 323.4,472.5 324.3,471.9 325.2,471.4 326.1,471.5 327.0,470.3 327.8,471.8 328.7,472.5 329.6,471.4 330.5,472.7 331.4,471.0 332.2,471.8 333.1,472.4 334.0,471.5 334.9,471.5 335.8,472.9 336.6,476.0 337.5,472.4 338.4,473.9 339.3,473.5 340.2,473.3 341.1,473.0 341.9,474.4 342.8,473.7 343.7,474.7 344.6,476.0 345.5,475.2 346.3,475.9 347.2,474.8 348.1,476.8 349.0,474.5 349.9,474.5 350.7,476.2 351.6,477.2 352.5,475.5 353.4,475.8 354.3,477.0 355.1,476.0 356.0,474.7 356.9,477.8 357.8,479.2 358.7,475.1 359.5,477.7 360.4,476.4 361.3,474.6 362.2,476.6 363.1,476.5 364.0,474.3 364.8,478.1 365.7,478.0 366.6,476.3 367.5,477.9 368.4,477.0 369.2,478.6 370.1,478.9 371.0,480.6 371.9,478.5 372.8,477.4 373.6,477.9 374.5,478.9 375.4,478.9 376.3,477.0 377.2,479.9 378.0,477.6 378.9,478.8 379.8,478.4 380.7,479.4 381.6,479.3 382.5,480.6 383.3,478.0 384.2,480.8 385.1,480.6 386.0,480.6 386.9,479.6 387.7,480.1 388.6,481.0 389.5,481.1 390.4,480.5 391.3,482.3 392.1,478.8 393.0,481.0 393.9,480.8 394.8,477.8 395.7,482.1 396.5,480.3 397.4,480.6 398.3,484.9 399.2,482.0 400.1,481.6 401.0,479.9 401.8,479.6 402.7,482.5 403.6,483.6 404.5,481.4 405.4,480.0 406.2,483.5 407.1,481.0 408.0,480.9 408.9,481.1 409.8,482.9 410.6,482.4 411.5,484.1 412.4,484.7 413.3,481.3 414.2,480.0 415.0,481.4 415.9,483.2 416.8,482.7 417.7,482.7 418.6,482.4 419.4,483.2 420.3,482.0 421.2,479.9 422.1,482.6 423.0,483.2 423.9,483.7 424.7,483.9 425.6,484.7 426.5,483.6 427.4,482.8 428.3,483.4 429.1,484.0 430.0,483.7 430.9,483.0 431.8,484.7 432.7,483.6 433.5,484.3 434.4,486.2 435.3,482.9 436.2,485.1 437.1,483.4 437.9,484.3 438.8,481.9 439.7,484.5 440.6,483.8 441.5,484.4 442.4,485.2 443.2,484.3 444.1,483.5 445.0,482.1 445.9,486.0 446.8,486.1 447.6,487.5 448.5,483.8 449.4,484.1 450.3,483.3 451.2,487.4 452.0,488.3 452.9,483.6 453.8,484.8 454.7,482.8 455.6,485.9 456.4,487.9 457.3,487.0 458.2,486.1 459.1,485.9 460.0,484.5 460.9,486.0 461.7,486.3 462.6,484.5 463.5,484.0 464.4,484.8 465.3,486.9 466.1,484.2 467.0,484.7 467.9,487.9 468.8,487.9 469.7,488.8 470.5,485.9 471.4,488.9 472.3,486.6 473.2,485.0 474.1,486.2 474.9,487.4 475.8,485.5 476.7,489.3 477.6,488.0 478.5,489.7 479.3,487.6 480.2,485.6 481.1,487.5 482.0,486.5 482.9,486.7 483.8,486.5 484.6,486.8 485.5,489.7 486.4,487.3 487.3,487.4 488.2,485.8 489.0,487.6 489.9,487.1 490.8,485.8 491.7,488.5 492.6,490.5 493.4,485.9 494.3,491.4 495.2,487.3 496.1,489.7 497.0,488.9 497.8,488.6 498.7,489.0 499.6,487.1 500.5,489.4 501.4,486.2 502.3,488.5 503.1,487.4 504.0,489.4 504.9,486.1 505.8,489.6 506.7,487.9 507.5,487.0 508.4,490.3 509.3,488.6 510.2,488.8 511.1,488.4 511.9,487.5 512.8,488.9 513.7,492.3 514.6,488.5 515.5,491.2 516.3,489.9 517.2,490.4 518.1,487.2 519.0,490.1 519.9,489.5 520.8,490.3 521.6,491.2 522.5,488.3 523.4,489.3 524.3,488.7 525.2,489.1 526.0,488.9 526.9,489.2 527.8,491.8 528.7,488.3 529.6,489.4 530.4,490.3 531.3,490.8 532.2,489.8 533.1,493.2 534.0,487.3 534.8,490.7 535.7,491.4 536.6,487.5 537.5,488.8 538.4,489.3 539.2,490.0 540.1,492.0 541.0,491.2 541.9,489.6 542.8,491.3 543.7,493.6 544.5,492.0 545.4,490.7 546.3,490.9 547.2,492.1 548.1,485.8 548.9,491.0 549.8,490.4 550.7,491.0 551.6,491.1 552.5,491.5 553.3,491.0 554.2,491.5 555.1,488.7 556.0,494.0 556.9,490.4 557.7,492.0 558.6,488.5 559.5,492.5 560.4,488.8 561.3,489.8 562.2,492.8 563.0,491.1 563.9,489.1 564.8,491.0 565.7,492.5 566.6,489.8 567.4,490.7 568.3,491.0 569.2,492.4 570.1,493.6 571.0,490.5 571.8,494.8 572.7,492.9 573.6,492.7 574.5,493.2 575.4,491.5 576.2,491.9 577.1,492.5 578.0,494.8 578.9,490.9 579.8,492.5 580.7,494.0 581.5,490.8 582.4,494.1 583.3,493.4 584.2,494.0 585.1,490.4 585.9,492.3 586.8,493.2 587.7,494.2 588.6,491.4 589.5,492.9 590.3,493.4 591.2,492.1 592.1,492.4 593.0,491.3 593.9,492.8 594.7,492.3 595.6,493.0 596.5,493.4 597.4,491.9 598.3,493.7 599.1,494.0 600.0,494.8 600.9,494.0 601.8,492.4 602.7,493.5 603.6,493.3 604.4,492.5 605.3,492.6 606.2,494.5 607.1,492.8 608.0,497.1 608.8,493.4 609.7,493.3 610.6,493.0 611.5,493.6 612.4,494.0 613.2,495.2 614.1,490.6 615.0,493.8 615.9,493.9 616.8,495.5 617.6,495.8 618.5,494.7 619.4,493.1 620.3,494.2 621.2,494.0 622.1,497.0 622.9,494.3 623.8,494.9 624.7,493.0 625.6,495.1 626.5,496.8 627.3,492.4 628.2,494.3 629.1,495.7 630.0,493.1 630.9,493.0 631.7,493.4 632.6,494.3 633.5,494.3 634.4,495.4 635.3,495.2 636.1,492.6 637.0,494.3 637.9,494.0 638.8,496.4 639.7,496.0 640.6,492.8 641.4,493.9 642.3,495.3 643.2,493.5 644.1,496.3 645.0,495.7 645.8,495.0 646.7,494.8 647.6,491.8 648.5,496.6 649.4,495.9 650.2,494.4 651.1,495.7 652.0,493.2 652.9,495.3 653.8,492.8 654.6,492.7 655.5,493.6 656.4,494.7 657.3,495.0 658.2,495.7 659.0,494.4 659.9,493.8 660.8,495.5 661.7,495.0 662.6,494.5 663.5,495.4 664.3,492.6 665.2,496.3 666.1,494.2 667.0,496.7 667.9,494.7 668.7,495.3 669.6,495.8 670.5,497.3 671.4,493.8 672.3,496.9 673.1,498.1 674.0,495.5 674.9,493.5 675.8,496.8 676.7,496.5 677.5,496.7 678.4,496.7 679.3,496.4 680.2,496.8 681.1,497.2 682.0,498.1 682.8,495.4 683.7,495.8 684.6,496.9 685.5,496.5 686.4,496.2 687.2,495.2 688.1,496.0 689.0,495.6 689.9,497.5 690.8,494.8 691.6,495.5 692.5,496.1 693.4,497.4 694.3,496.9 695.2,495.5 696.0,495.9 696.9,497.1 697.8,495.7 698.7,493.1 699.6,494.6 700.5,495.6 701.3,498.3 702.2,495.8 703.1,497.2 704.0,497.7 704.9,495.3 705.7,497.6 706.6,497.6 707.5,500.2 708.4,495.8 709.3,496.3 710.1,495.4 711.0,496.4 711.9,498.9 712.8,496.5 713.7,493.7 714.5,494.7 715.4,498.1 716.3,498.6 717.2,495.1 718.1,497.3 718.9,497.8 719.8,498.8 720.7,495.0 721.6,498.4 722.5,495.8 723.4,497.8 724.2,496.1 725.1,497.1 726.0,497.5 726.9,496.7 727.8,496.5 728.6,498.2 729.5,498.4 730.4,496.0 731.3,497.4 732.2,496.4 733.0,497.4 733.9,498.3 734.8,497.1 735.7,495.8 736.6,497.4 737.4,496.3 738.3,497.3 739.2,497.1 740.1,498.5 741.0,496.1 741.9,497.5 742.7,497.0 743.6,498.2 744.5,498.4 745.4,501.3 746.3,496.2 747.1,497.7 748.0,497.4 748.9,498.6 749.8,501.8 750.7,493.2 751.5,498.7 752.4,496.1 753.3,498.1 754.2,500.2 755.1,496.8 755.9,497.1 756.8,496.3 757.7,498.0 758.6,499.5 759.5,497.8 760.4,495.6 761.2,497.5 762.1,497.3 763.0,495.4 763.9,498.3 764.8,495.9 765.6,499.0 766.5,497.3 767.4,499.2 768.3,496.5 769.2,497.5 770.0,499.1 770.9,495.4 771.8,496.7 772.7,497.9 773.6,496.3 774.4,497.0 775.3,498.2 776.2,497.3 777.1,498.3 778.0,496.3 778.8,496.2 779.7,500.3 780.6,500.6 781.5,501.1 782.4,498.6 783.3,498.9 784.1,499.7 785.0,498.5 785.9,498.2 786.8,499.3 787.7,500.1 788.5,496.7 789.4,497.3 790.3,500.3 791.2,498.7 792.1,497.3 792.9,495.9 793.8,497.5 794.7,497.9 795.6,500.1 796.5,498.7 797.3,498.2 798.2,499.3 799.1,496.2 800.0,497.9 800.9,498.3 801.8,497.7 802.6,498.2 803.5,497.0 804.4,498.5 805.3,499.3 806.2,499.4 807.0,497.0 807.9,497.0 808.8,498.3 809.7,499.2 810.6,497.1 811.4,498.3 812.3,498.8 813.2,498.2 814.1,497.9 815.0,499.4 815.8,498.9 816.7,499.1 817.6,498.4 818.5,501.3 819.4,500.1 820.3,497.8 821.1,498.3 822.0,499.1 822.9,498.3 823.8,499.0 824.7,499.5 825.5,499.9 826.4,502.2 827.3,497.9 828.2,497.6 829.1,496.6 829.9,499.5 830.8,500.1 831.7,498.3 832.6,498.6 833.5,499.0 834.3,499.3 835.2,499.9 836.1,499.9 837.0,498.7 837.9,499.7 838.7,498.9 839.6,497.0 840.5,498.8 841.4,498.1 842.3,498.6 843.2,499.2 844.0,501.9 844.9,496.1 845.8,501.2 846.7,498.0 847.6,500.0 848.4,499.9 849.3,499.7 850.2,500.2 851.1,497.5 852.0,500.2 852.8,498.2 853.7,498.2 854.6,499.8 855.5,498.8 856.4,500.0 857.2,501.1 858.1,499.0 859.0,499.2 859.9,498.1 860.8,500.0 861.7,500.0 862.5,499.5 863.4,499.1 864.3,500.4 865.2,499.9 866.1,498.2 866.9,499.4 867.8,499.9 868.7,501.4 869.6,500.8 870.5,500.1 871.3,500.2 872.2,498.5 873.1,501.7 874.0,500.8 874.9,498.2 875.7,498.9 876.6,500.8 877.5,501.2 878.4,499.5 879.3,497.2 880.2,497.7 881.0,499.3 881.9,500.4 882.8,500.3 883.7,499.1 884.6,497.0 885.4,501.8 886.3,498.6 887.2,497.8 888.1,498.4 889.0,500.4 889.8,498.8 890.7,501.2 891.6,499.1 892.5,499.7 893.4,499.1 894.2,500.1 895.1,500.4 896.0,499.1 896.9,501.2 897.8,500.9 898.6,500.6 899.5,497.1 900.4,499.3 901.3,499.8 902.2,501.1 903.1,499.0 903.9,498.9 904.8,502.0 905.7,498.2 906.6,500.1 907.5,499.1 908.3,499.9 909.2,498.5 910.1,502.0 911.0,500.1 911.9,502.8 912.7,502.2 913.6,501.8 914.5,498.5 915.4,500.2 916.3,500.1 917.1,500.4 918.0,502.9 918.9,498.2 919.8,500.0 920.7,500.2 921.6,499.1 922.4,501.1 923.3,499.5 924.2,503.4 925.1,499.1 926.0,500.0 926.8,500.0 927.7,500.4 928.6,501.3 929.5,499.4 930.4,499.7 931.2,501.6 932.1,498.2 933.0,497.3 933.9,502.5 934.8,499.6 935.6,501.5 936.5,501.0 937.4,500.0 938.3,501.7 939.2,498.4 940.1,501.8 940.9,500.9 941.8,499.4 942.7,497.7 943.6,499.3 944.5,500.5 945.3,502.2 946.2,502.5 947.1,499.3 948.0,499.2 948.9,500.2 949.7,501.0 950.6,499.2 951.5,500.9 952.4,500.4 953.3,502.6 954.1,499.4 955.0,499.4 955.9,500.8 956.8,501.0 957.7,501.1 958.5,499.2 959.4,501.0 960.3,500.8 961.2,500.7 962.1,499.9 963.0,499.9 963.8,504.1 964.7,499.2 965.6,503.1 966.5,499.2 967.4,501.2 968.2,500.0 969.1,500.5 970.0,499.9" fill="none" stroke="#dc2626" stroke-width="2.2"/>
<line x1="307" y1="83" x2="331" y2="83" stroke="#dc2626" stroke-width="3"/>
<text x="338" y="87" font-family="sans-serif" font-size="12">3e-4</text>
<polyline points="90.0,106.7 90.9,106.8 91.8,108.3 92.6,111.4 93.5,115.6 94.4,121.4 95.3,128.0 96.2,135.6 97.0,143.7 97.9,152.5 98.8,161.3 99.7,170.2 100.6,179.2 101.5,188.2 102.3,197.2 103.2,205.8 104.1,214.9 105.0,224.9 105.9,235.3 106.7,245.4 107.6,255.0 108.5,264.9 109.4,275.0 110.3,285.5 111.1,296.1 112.0,303.1 112.9,312.3 113.8,320.0 114.7,327.0 115.5,331.7 116.4,339.9 117.3,343.4 118.2,347.8 119.1,353.1 119.9,360.5 120.8,361.1 121.7,368.7 122.6,373.7 123.5,376.0 124.4,379.1 125.2,382.9 126.1,384.1 127.0,387.8 127.9,392.7 128.8,390.1 129.6,398.8 130.5,396.3 131.4,400.6 132.3,401.1 133.2,403.5 134.0,405.3 134.9,405.9 135.8,409.9 136.7,412.3 137.6,409.8 138.4,413.3 139.3,414.6 140.2,418.1 141.1,417.5 142.0,417.3 142.9,419.8 143.7,417.4 144.6,424.4 145.5,423.8 146.4,422.1 147.3,426.7 148.1,428.4 149.0,427.2 149.9,429.7 150.8,431.3 151.7,429.5 152.5,432.8 153.4,433.3 154.3,432.8 155.2,436.4 156.1,436.1 156.9,438.7 157.8,436.9 158.7,437.5 159.6,438.2 160.5,440.7 161.4,440.2 162.2,442.7 163.1,444.6 164.0,444.2 164.9,448.4 165.8,445.4 166.6,446.0 167.5,447.4 168.4,448.3 169.3,449.3 170.2,448.7 171.0,450.6 171.9,450.0 172.8,451.3 173.7,451.5 174.6,452.5 175.4,454.4 176.3,450.6 177.2,454.6 178.1,456.3 179.0,455.8 179.8,458.2 180.7,456.1 181.6,457.4 182.5,458.7 183.4,460.3 184.3,462.4 185.1,459.9 186.0,460.0 186.9,462.7 187.8,462.6 188.7,463.6 189.5,462.1 190.4,463.5 191.3,464.9 192.2,464.8 193.1,465.4 193.9,468.4 194.8,463.8 195.7,465.5 196.6,466.3 197.5,466.6 198.3,467.8 199.2,468.1 200.1,469.8 201.0,470.3 201.9,469.6 202.8,471.9 203.6,471.1 204.5,469.3 205.4,471.5 206.3,470.2 207.2,473.5 208.0,474.2 208.9,471.2 209.8,472.2 210.7,474.8 211.6,474.9 212.4,476.9 213.3,471.8 214.2,475.8 215.1,475.0 216.0,474.4 216.8,477.5 217.7,475.6 218.6,477.6 219.5,475.6 220.4,475.7 221.3,476.7 222.1,478.3 223.0,477.4 223.9,479.2 224.8,477.8 225.7,478.6 226.5,478.0 227.4,481.0 228.3,478.0 229.2,484.3 230.1,479.6 230.9,481.6 231.8,479.9 232.7,480.0 233.6,481.3 234.5,482.6 235.3,484.2 236.2,481.8 237.1,483.7 238.0,484.0 238.9,481.1 239.7,482.6 240.6,482.7 241.5,483.6 242.4,481.5 243.3,484.4 244.2,485.1 245.0,486.8 245.9,482.7 246.8,484.4 247.7,486.8 248.6,485.3 249.4,483.4 250.3,484.2 251.2,484.2 252.1,486.1 253.0,489.3 253.8,486.8 254.7,489.7 255.6,485.6 256.5,487.3 257.4,486.2 258.2,486.3 259.1,487.3 260.0,489.6 260.9,487.4 261.8,489.3 262.7,487.9 263.5,488.9 264.4,489.6 265.3,488.6 266.2,487.1 267.1,488.8 267.9,490.2 268.8,488.6 269.7,490.8 270.6,488.9 271.5,491.2 272.3,491.2 273.2,490.0 274.1,491.0 275.0,493.6 275.9,491.2 276.7,491.9 277.6,493.1 278.5,489.3 279.4,492.5 280.3,494.9 281.2,493.0 282.0,492.2 282.9,495.5 283.8,490.8 284.7,492.9 285.6,493.7 286.4,491.1 287.3,492.6 288.2,494.6 289.1,493.2 290.0,493.5 290.8,492.8 291.7,494.1 292.6,494.9 293.5,494.4 294.4,495.1 295.2,494.1 296.1,496.3 297.0,495.9 297.9,498.2 298.8,496.2 299.6,495.4 300.5,498.2 301.4,496.3 302.3,498.5 303.2,496.6 304.1,496.0 304.9,495.6 305.8,496.0 306.7,496.3 307.6,496.4 308.5,498.0 309.3,499.2 310.2,495.9 311.1,499.6 312.0,495.8 312.9,496.3 313.7,496.9 314.6,494.6 315.5,498.4 316.4,497.1 317.3,497.6 318.1,498.5 319.0,496.6 319.9,500.1 320.8,501.7 321.7,501.8 322.6,500.5 323.4,500.9 324.3,499.7 325.2,499.7 326.1,499.9 327.0,498.6 327.8,500.3 328.7,500.8 329.6,499.6 330.5,500.6 331.4,498.6 332.2,500.1 333.1,500.4 334.0,500.0 334.9,499.8 335.8,501.0 336.6,503.7 337.5,500.0 338.4,502.4 339.3,501.6 340.2,501.4 341.1,501.0 341.9,502.7 342.8,502.2 343.7,503.1 344.6,503.9 345.5,503.4 346.3,503.5 347.2,502.9 348.1,504.9 349.0,502.1 349.9,502.3 350.7,504.2 351.6,504.4 352.5,502.6 353.4,503.7 354.3,504.5 355.1,504.0 356.0,502.9 356.9,505.1 357.8,506.5 358.7,503.2 359.5,505.0 360.4,504.1 361.3,502.0 362.2,504.0 363.1,504.4 364.0,502.4 364.8,506.2 365.7,505.5 366.6,504.1 367.5,505.6 368.4,505.2 369.2,506.0 370.1,506.4 371.0,508.6 371.9,505.7 372.8,505.6 373.6,505.5 374.5,506.2 375.4,506.3 376.3,505.1 377.2,507.8 378.0,505.2 378.9,506.0 379.8,506.0 380.7,506.6 381.6,506.3 382.5,507.9 383.3,506.0 384.2,508.6 385.1,508.5 386.0,508.4 386.9,506.5 387.7,507.2 388.6,508.1 389.5,508.8 390.4,507.9 391.3,509.8 392.1,506.1 393.0,508.5 393.9,508.7 394.8,505.3 395.7,509.2 396.5,507.7 397.4,508.0 398.3,511.9 399.2,508.7 400.1,508.4 401.0,507.0 401.8,506.7 402.7,509.7 403.6,510.4 404.5,508.8 405.4,507.4 406.2,511.0 407.1,507.7 408.0,508.4 408.9,508.4 409.8,509.9 410.6,508.7 411.5,511.1 412.4,511.1 413.3,508.6 414.2,508.0 415.0,508.8 415.9,509.4 416.8,510.1 417.7,509.8 418.6,509.6 419.4,510.3 420.3,509.2 421.2,507.1 422.1,509.4 423.0,510.2 423.9,510.7 424.7,510.4 425.6,511.6 426.5,510.8 427.4,509.6 428.3,511.1 429.1,510.5 430.0,510.6 430.9,511.0 431.8,511.9 432.7,510.5 433.5,511.7 434.4,513.2 435.3,510.1 436.2,512.0 437.1,510.2 437.9,511.7 438.8,508.7 439.7,511.0 440.6,510.6 441.5,510.4 442.4,512.2 443.2,510.9 444.1,510.3 445.0,508.7 445.9,512.7 446.8,512.9 447.6,514.4 448.5,511.2 449.4,510.7 450.3,511.0 451.2,513.8 452.0,514.4 452.9,510.9 453.8,512.1 454.7,509.3 455.6,512.6 456.4,514.0 457.3,513.9 458.2,512.6 459.1,512.0 460.0,511.6 460.9,512.8 461.7,513.1 462.6,511.4 463.5,510.4 464.4,511.4 465.3,513.6 466.1,511.0 467.0,511.8 467.9,514.4 468.8,514.4 469.7,515.0 470.5,512.8 471.4,514.8 472.3,513.2 473.2,511.7 474.1,512.7 474.9,514.2 475.8,512.2 476.7,515.5 477.6,514.4 478.5,516.4 479.3,513.8 480.2,511.6 481.1,514.1 482.0,513.5 482.9,513.1 483.8,512.5 484.6,513.6 485.5,515.6 486.4,514.6 487.3,513.3 488.2,512.5 489.0,513.8 489.9,513.5 490.8,512.2 491.7,514.7 492.6,516.2 493.4,512.2 494.3,517.7 495.2,513.5 496.1,516.1 497.0,515.1 497.8,515.6 498.7,515.5 499.6,513.4 500.5,515.4 501.4,512.4 502.3,514.6 503.1,514.0 504.0,515.8 504.9,512.3 505.8,515.5 506.7,514.6 507.5,513.2 508.4,516.3 509.3,515.2 510.2,515.3 511.1,515.0 511.9,514.1 512.8,515.1 513.7,518.8 514.6,515.0 515.5,517.2 516.3,516.3 517.2,516.1 518.1,513.1 519.0,516.6 519.9,515.5 520.8,516.2 521.6,517.4 522.5,515.1 523.4,515.5 524.3,515.1 525.2,515.5 526.0,515.5 526.9,516.0 527.8,517.8 528.7,515.1 529.6,515.7 530.4,516.4 531.3,517.0 532.2,516.3 533.1,519.1 534.0,513.6 534.8,516.8 535.7,518.0 536.6,513.9 537.5,514.7 538.4,515.5 539.2,516.1 540.1,518.0 541.0,517.7 541.9,515.3 542.8,517.3 543.7,519.4 544.5,517.8 545.4,516.7 546.3,516.6 547.2,518.9 548.1,512.6 548.9,517.1 549.8,516.5 550.7,516.8 551.6,516.9 552.5,517.3 553.3,516.7 554.2,517.1 555.1,514.6 556.0,519.9 556.9,516.8 557.7,517.9 558.6,515.0 559.5,518.8 560.4,515.0 561.3,515.3 562.2,519.4 563.0,517.4 563.9,514.7 564.8,516.8 565.7,518.5 566.6,515.4 567.4,516.9 568.3,517.1 569.2,517.8 570.1,519.2 571.0,516.1 571.8,520.2 572.7,518.7 573.6,518.3 574.5,518.5 575.4,517.3 576.2,517.9 577.1,518.1 578.0,520.2 578.9,517.1 579.8,518.6 580.7,520.1 581.5,516.3 582.4,520.2 583.3,518.8 584.2,519.9 585.1,516.6 585.9,518.5 586.8,518.7 587.7,520.2 588.6,517.4 589.5,518.4 590.3,519.0 591.2,517.7 592.1,518.1 593.0,516.9 593.9,518.3 594.7,517.9 595.6,518.9 596.5,519.2 597.4,518.1 598.3,519.5 599.1,519.2 600.0,520.8 600.9,519.5 601.8,518.3 602.7,519.0 603.6,519.1 604.4,518.1 605.3,518.1 606.2,520.0 607.1,518.7 608.0,522.5 608.8,519.3 609.7,519.1 610.6,519.0 611.5,519.8 612.4,519.6 613.2,520.8 614.1,516.4 615.0,519.5 615.9,519.5 616.8,521.0 617.6,521.8 618.5,520.2 619.4,518.8 620.3,519.5 621.2,519.3 622.1,521.9 622.9,519.7 623.8,521.2 624.7,519.0 625.6,521.0 626.5,522.1 627.3,517.6 628.2,520.3 629.1,521.0 630.0,518.9 630.9,518.4 631.7,519.3 632.6,519.8 633.5,519.3 634.4,521.2 635.3,520.7 636.1,518.8 637.0,519.5 637.9,519.8 638.8,521.4 639.7,521.6 640.6,518.2 641.4,519.5 642.3,521.1 643.2,519.1 644.1,522.1 645.0,521.5 645.8,520.8 646.7,520.5 647.6,517.3 648.5,522.1 649.4,521.1 650.2,520.0 651.1,521.0 652.0,519.3 652.9,520.8 653.8,518.7 654.6,518.4 655.5,519.2 656.4,519.9 657.3,520.4 658.2,521.2 659.0,520.3 659.9,518.6 660.8,520.9 661.7,520.4 662.6,520.1 663.5,521.3 664.3,518.2 665.2,521.8 666.1,520.1 667.0,521.8 667.9,519.9 668.7,520.6 669.6,520.9 670.5,522.0 671.4,519.5 672.3,522.5 673.1,522.9 674.0,520.7 674.9,519.6 675.8,521.6 676.7,521.3 677.5,522.5 678.4,522.5 679.3,521.5 680.2,521.8 681.1,522.2 682.0,523.6 682.8,520.6 683.7,521.8 684.6,522.6 685.5,521.5 686.4,522.1 687.2,520.9 688.1,521.4 689.0,521.1 689.9,522.5 690.8,520.2 691.6,521.5 692.5,521.3 693.4,523.7 694.3,521.9 695.2,521.5 696.0,521.9 696.9,522.4 697.8,520.7 698.7,518.8 699.6,519.9 700.5,521.3 701.3,523.5 702.2,520.4 703.1,523.1 704.0,523.1 704.9,520.9 705.7,522.7 706.6,522.8 707.5,525.1 708.4,520.5 709.3,521.2 710.1,521.0 711.0,522.0 711.9,524.3 712.8,521.7 713.7,520.0 714.5,520.6 715.4,523.5 716.3,523.9 717.2,520.3 718.1,522.9 718.9,523.1 719.8,524.4 720.7,520.8 721.6,523.5 722.5,520.8 723.4,523.1 724.2,521.8 725.1,522.2 726.0,522.8 726.9,521.8 727.8,522.1 728.6,523.0 729.5,523.7 730.4,521.9 731.3,523.2 732.2,521.7 733.0,522.7 733.9,523.6 734.8,522.7 735.7,521.2 736.6,522.6 737.4,521.2 738.3,522.5 739.2,522.4 740.1,523.9 741.0,521.8 741.9,523.4 742.7,522.4 743.6,523.3 744.5,524.0 745.4,526.8 746.3,521.8 747.1,522.9 748.0,522.6 748.9,523.9 749.8,526.7 750.7,519.1 751.5,523.6 752.4,522.2 753.3,523.4 754.2,524.9 755.1,521.7 755.9,522.5 756.8,522.1 757.7,523.3 758.6,524.1 759.5,523.0 760.4,521.3 761.2,522.7 762.1,522.5 763.0,520.9 763.9,523.4 764.8,521.4 765.6,524.2 766.5,522.9 767.4,524.8 768.3,522.7 769.2,523.1 770.0,524.5 770.9,520.9 771.8,522.2 772.7,523.1 773.6,521.8 774.4,523.2 775.3,523.5 776.2,522.8 777.1,523.7 778.0,522.1 778.8,522.2 779.7,525.5 780.6,526.1 781.5,526.5 782.4,523.7 783.3,525.1 784.1,525.1 785.0,523.7 785.9,523.5 786.8,525.0 787.7,525.4 788.5,522.3 789.4,522.6 790.3,525.8 791.2,523.5 792.1,522.6 792.9,521.7 793.8,523.2 794.7,523.4 795.6,525.1 796.5,523.9 797.3,523.5 798.2,524.4 799.1,522.1 800.0,523.4 800.9,523.7 801.8,523.7 802.6,524.3 803.5,522.9 804.4,524.1 805.3,524.2 806.2,524.4 807.0,522.2 807.9,522.6 808.8,523.7 809.7,524.0 810.6,523.1 811.4,523.8 812.3,523.7 813.2,524.3 814.1,523.0 815.0,524.5 815.8,524.7 816.7,524.3 817.6,523.7 818.5,526.1 819.4,525.2 820.3,523.9 821.1,523.5 822.0,523.7 822.9,523.8 823.8,524.3 824.7,524.6 825.5,525.3 826.4,527.1 827.3,523.2 828.2,523.1 829.1,521.9 829.9,525.0 830.8,524.8 831.7,524.2 832.6,524.5 833.5,523.9 834.3,523.9 835.2,525.0 836.1,525.6 837.0,524.2 837.9,524.1 838.7,524.5 839.6,523.1 840.5,524.2 841.4,524.3 842.3,523.6 843.2,524.0 844.0,527.2 844.9,522.6 845.8,526.5 846.7,523.7 847.6,525.8 848.4,525.3 849.3,524.8 850.2,525.3 851.1,522.7 852.0,525.4 852.8,523.8 853.7,523.8 854.6,525.5 855.5,524.1 856.4,525.3 857.2,526.4 858.1,524.3 859.0,524.0 859.9,523.8 860.8,525.2 861.7,525.5 862.5,525.3 863.4,524.7 864.3,525.4 865.2,525.2 866.1,523.3 866.9,524.7 867.8,524.7 868.7,526.8 869.6,526.2 870.5,525.5 871.3,525.1 872.2,524.0 873.1,527.0 874.0,526.2 874.9,523.8 875.7,524.1 876.6,526.5 877.5,526.4 878.4,524.5 879.3,522.4 880.2,523.3 881.0,524.6 881.9,525.3 882.8,525.1 883.7,525.0 884.6,522.7 885.4,526.5 886.3,524.2 887.2,523.4 888.1,524.0 889.0,525.3 889.8,524.4 890.7,526.5 891.6,524.5 892.5,524.7 893.4,524.7 894.2,525.0 895.1,525.6 896.0,524.5 896.9,526.3 897.8,526.2 898.6,526.2 899.5,523.2 900.4,524.6 901.3,525.0 902.2,526.1 903.1,524.5 903.9,524.8 904.8,526.8 905.7,523.8 906.6,525.1 907.5,524.7 908.3,525.3 909.2,524.0 910.1,526.8 911.0,525.9 911.9,527.6 912.7,527.6 913.6,526.7 914.5,523.7 915.4,525.5 916.3,525.5 917.1,525.2 918.0,527.8 918.9,523.6 919.8,525.2 920.7,525.4 921.6,524.3 922.4,526.4 923.3,524.9 924.2,528.1 925.1,524.2 926.0,524.8 926.8,525.3 927.7,525.6 928.6,526.3 929.5,524.2 930.4,525.0 931.2,526.8 932.1,523.7 933.0,523.2 933.9,527.3 934.8,525.1 935.6,526.7 936.5,526.4 937.4,525.4 938.3,527.3 939.2,523.9 940.1,527.5 940.9,526.2 941.8,524.8 942.7,523.5 943.6,525.3 944.5,525.8 945.3,526.9 946.2,527.5 947.1,524.6 948.0,524.4 948.9,525.3 949.7,525.9 950.6,524.5 951.5,526.5 952.4,525.5 953.3,527.7 954.1,524.9 955.0,524.5 955.9,526.0 956.8,526.3 957.7,526.4 958.5,524.5 959.4,526.3 960.3,526.2 961.2,525.8 962.1,525.6 963.0,525.1 963.8,529.1 964.7,524.7 965.6,527.5 966.5,525.1 967.4,526.6 968.2,525.4 969.1,525.4 970.0,524.9" fill="none" stroke="#16a34a" stroke-width="2.2"/>
<line x1="512" y1="83" x2="536" y2="83" stroke="#16a34a" stroke-width="3"/>
<text x="543" y="87" font-family="sans-serif" font-size="12">1e-3</text>
<polyline points="90.0,106.7 90.9,106.8 91.8,111.3 92.6,120.1 93.5,131.2 94.4,144.8 95.3,159.5 96.2,174.7 97.0,189.5 97.9,204.3 98.8,219.5 99.7,236.0 100.6,253.3 101.5,270.0 102.3,286.4 103.2,300.1 104.1,312.5 105.0,324.6 105.9,336.0 106.7,342.1 107.6,347.7 108.5,354.6 109.4,335.8 110.3,365.8 111.1,370.6 112.0,371.5 112.9,375.3 113.8,381.1 114.7,379.7 115.5,385.4 116.4,391.3 117.3,391.5 118.2,393.2 119.1,396.1 119.9,401.5 120.8,400.2 121.7,405.3 122.6,408.7 123.5,409.6 124.4,409.7 125.2,412.9 126.1,412.3 127.0,413.8 127.9,415.5 128.8,411.4 129.6,421.5 130.5,417.3 131.4,421.8 132.3,420.9 133.2,423.3 134.0,424.4 134.9,425.0 135.8,428.4 136.7,429.9 137.6,428.0 138.4,430.6 139.3,432.3 140.2,436.0 141.1,435.2 142.0,434.2 142.9,437.0 143.7,433.9 144.6,440.5 145.5,440.5 146.4,438.0 147.3,442.9 148.1,444.5 149.0,443.9 149.9,446.7 150.8,448.6 151.7,446.8 152.5,449.7 153.4,450.5 154.3,450.2 155.2,453.4 156.1,453.0 156.9,455.5 157.8,453.8 158.7,453.9 159.6,454.9 160.5,456.8 161.4,456.8 162.2,459.0 163.1,461.3 164.0,461.1 164.9,464.7 165.8,462.0 166.6,462.4 167.5,463.5 168.4,465.0 169.3,465.6 170.2,465.0 171.0,467.7 171.9,467.0 172.8,467.3 173.7,467.9 174.6,469.0 175.4,470.9 176.3,466.8 177.2,469.3 178.1,469.4 179.0,471.6 179.8,473.0 180.7,471.5 181.6,472.0 182.5,474.0 183.4,475.2 184.3,477.2 185.1,474.6 186.0,475.1 186.9,477.6 187.8,477.3 188.7,478.6 189.5,477.1 190.4,478.7 191.3,479.5 192.2,479.5 193.1,480.7 193.9,483.3 194.8,478.4 195.7,480.8 196.6,480.8 197.5,481.3 198.3,482.0 199.2,481.9 200.1,483.9 201.0,484.7 201.9,483.9 202.8,486.3 203.6,485.1 204.5,484.1 205.4,486.0 206.3,484.6 207.2,487.7 208.0,488.2 208.9,484.5 209.8,485.8 210.7,488.5 211.6,488.3 212.4,490.2 213.3,485.1 214.2,489.6 215.1,488.7 216.0,487.5 216.8,490.6 217.7,488.5 218.6,490.8 219.5,488.6 220.4,488.9 221.3,490.1 222.1,491.4 223.0,490.2 223.9,492.5 224.8,490.5 225.7,492.1 226.5,491.5 227.4,494.0 228.3,490.9 229.2,496.8 230.1,493.2 230.9,494.6 231.8,493.4 232.7,493.1 233.6,494.5 234.5,495.9 235.3,496.9 236.2,495.1 237.1,497.1 238.0,497.1 238.9,493.7 239.7,495.6 240.6,496.0 241.5,496.7 242.4,494.7 243.3,497.6 244.2,498.4 245.0,499.6 245.9,495.9 246.8,497.4 247.7,499.7 248.6,498.4 249.4,496.5 250.3,497.1 251.2,497.1 252.1,498.0 253.0,501.7 253.8,499.2 254.7,502.3 255.6,498.4 256.5,500.2 257.4,499.1 258.2,499.2 259.1,499.9 260.0,502.1 260.9,500.3 261.8,502.0 262.7,500.5 263.5,501.6 264.4,502.3 265.3,501.2 266.2,499.5 267.1,501.4 267.9,502.4 268.8,500.8 269.7,503.1 270.6,501.1 271.5,503.6 272.3,503.3 273.2,501.8 274.1,503.0 275.0,505.5 275.9,503.2 276.7,504.2 277.6,505.4 278.5,501.3 279.4,504.2 280.3,507.2 281.2,505.0 282.0,503.8 282.9,507.3 283.8,502.4 284.7,504.7 285.6,505.3 286.4,503.1 287.3,504.2 288.2,505.9 289.1,504.9 290.0,504.9 290.8,504.1 291.7,505.2 292.6,505.8 293.5,505.7 294.4,506.7 295.2,505.8 296.1,507.1 297.0,506.0 297.9,508.4 298.8,507.7 299.6,506.1 300.5,509.4 301.4,507.1 302.3,509.1 303.2,507.6 304.1,507.2 304.9,506.5 305.8,507.2 306.7,507.1 307.6,507.1 308.5,508.3 309.3,509.9 310.2,507.1 311.1,510.3 312.0,506.3 312.9,507.1 313.7,507.4 314.6,505.5 315.5,509.2 316.4,508.1 317.3,508.2 318.1,508.7 319.0,506.7 319.9,510.5 320.8,511.7 321.7,512.0 322.6,510.7 323.4,511.2 324.3,510.1 325.2,510.1 326.1,509.7 327.0,508.7 327.8,510.2 328.7,511.3 329.6,509.8 330.5,510.4 331.4,508.7 332.2,510.0 333.1,510.1 334.0,510.0 334.9,510.0 335.8,510.4 336.6,513.7 337.5,509.5 338.4,511.7 339.3,511.8 340.2,511.1 341.1,510.4 341.9,512.2 342.8,511.8 343.7,512.3 344.6,513.0 345.5,512.7 346.3,512.6 347.2,512.4 348.1,514.1 349.0,511.5 349.9,511.6 350.7,513.3 351.6,513.5 352.5,511.5 353.4,513.2 354.3,513.7 355.1,513.1 356.0,511.8 356.9,514.2 357.8,515.2 358.7,512.0 359.5,514.2 360.4,513.3 361.3,510.4 362.2,512.4 363.1,513.7 364.0,511.4 364.8,515.2 365.7,514.3 366.6,513.3 367.5,514.5 368.4,513.7 369.2,514.5 370.1,515.0 371.0,517.4 371.9,514.5 372.8,514.7 373.6,514.4 374.5,514.9 375.4,514.6 376.3,513.8 377.2,516.3 378.0,513.5 378.9,514.5 379.8,514.4 380.7,515.1 381.6,514.5 382.5,516.5 383.3,514.4 384.2,516.6 385.1,516.9 386.0,516.9 386.9,514.8 387.7,515.3 388.6,516.0 389.5,517.1 390.4,516.2 391.3,517.9 392.1,514.6 393.0,516.8 393.9,517.2 394.8,513.5 395.7,517.5 396.5,515.8 397.4,515.6 398.3,519.7 399.2,517.2 400.1,516.6 401.0,515.1 401.8,514.8 402.7,517.6 403.6,518.5 404.5,516.9 405.4,515.1 406.2,518.3 407.1,515.7 408.0,516.2 408.9,516.3 409.8,518.2 410.6,516.5 411.5,518.8 412.4,518.7 413.3,516.5 414.2,516.0 415.0,516.2 415.9,517.0 416.8,518.6 417.7,517.6 418.6,517.6 419.4,518.5 420.3,517.0 421.2,515.0 422.1,517.3 423.0,517.9 423.9,518.2 424.7,518.0 425.6,519.4 426.5,518.4 427.4,517.2 428.3,518.5 429.1,518.2 430.0,518.4 430.9,518.9 431.8,519.9 432.7,518.7 433.5,519.6 434.4,520.6 435.3,518.2 436.2,519.7 437.1,517.9 437.9,519.5 438.8,516.4 439.7,518.6 440.6,518.2 441.5,518.5 442.4,519.2 443.2,518.3 444.1,518.1 445.0,516.1 445.9,519.7 446.8,520.6 447.6,521.5 448.5,518.9 449.4,518.5 450.3,518.5 451.2,521.2 452.0,521.3 452.9,518.8 453.8,519.8 454.7,517.0 455.6,520.5 456.4,521.2 457.3,521.4 458.2,520.0 459.1,519.3 460.0,518.8 460.9,520.0 461.7,520.4 462.6,518.8 463.5,518.3 464.4,518.9 465.3,520.6 466.1,518.5 467.0,519.2 467.9,521.5 468.8,521.5 469.7,522.4 470.5,520.4 471.4,522.2 472.3,520.5 473.2,518.6 474.1,520.3 474.9,521.7 475.8,519.7 476.7,522.8 477.6,521.9 478.5,523.2 479.3,520.8 480.2,518.9 481.1,521.4 482.0,521.1 482.9,520.5 483.8,519.7 484.6,521.4 485.5,523.1 486.4,521.5 487.3,521.0 488.2,519.9 489.0,521.0 489.9,520.7 490.8,519.7 491.7,522.0 492.6,523.2 493.4,519.5 494.3,524.7 495.2,521.0 496.1,523.2 497.0,522.4 497.8,523.0 498.7,522.6 499.6,520.9 500.5,522.5 501.4,519.1 502.3,521.7 503.1,521.2 504.0,523.1 504.9,519.6 505.8,522.8 506.7,522.0 507.5,520.2 508.4,523.1 509.3,522.2 510.2,522.3 511.1,522.5 511.9,521.5 512.8,522.5 513.7,525.8 514.6,522.1 515.5,524.3 516.3,523.6 517.2,523.8 518.1,520.4 519.0,523.6 519.9,522.5 520.8,523.5 521.6,524.5 522.5,522.5 523.4,522.8 524.3,522.6 525.2,522.8 526.0,522.8 526.9,523.4 527.8,524.9 528.7,522.1 529.6,522.9 530.4,523.7 531.3,524.1 532.2,523.6 533.1,526.0 534.0,521.1 534.8,524.1 535.7,525.3 536.6,521.5 537.5,522.6 538.4,522.6 539.2,523.5 540.1,525.0 541.0,525.0 541.9,522.6 542.8,524.4 543.7,526.5 544.5,524.9 545.4,523.7 546.3,523.5 547.2,526.1 548.1,520.0 548.9,524.3 549.8,523.5 550.7,524.3 551.6,524.3 552.5,524.6 553.3,523.6 554.2,523.9 555.1,522.3 556.0,526.8 556.9,524.2 557.7,524.8 558.6,522.6 559.5,525.8 560.4,522.3 561.3,522.5 562.2,526.2 563.0,524.8 563.9,522.1 564.8,524.1 565.7,525.4 566.6,522.6 567.4,524.6 568.3,524.5 569.2,524.8 570.1,526.4 571.0,523.4 571.8,527.5 572.7,525.8 573.6,525.6 574.5,525.7 575.4,524.1 576.2,525.5 577.1,525.4 578.0,527.5 578.9,524.4 579.8,525.8 580.7,527.2 581.5,523.5 582.4,527.5 583.3,525.9 584.2,527.5 585.1,524.0 585.9,525.7 586.8,525.6 587.7,527.4 588.6,524.8 589.5,525.9 590.3,526.2 591.2,525.0 592.1,525.7 593.0,524.3 593.9,525.6 594.7,525.0 595.6,526.1 596.5,526.6 597.4,525.4 598.3,526.8 599.1,526.5 600.0,528.0 600.9,527.1 601.8,525.3 602.7,526.5 603.6,526.7 604.4,525.6 605.3,525.7 606.2,527.5 607.1,526.1 608.0,529.5 608.8,526.8 609.7,526.4 610.6,526.4 611.5,527.3 612.4,526.5 613.2,528.0 614.1,524.0 615.0,526.9 615.9,526.6 616.8,528.3 617.6,529.0 618.5,527.6 619.4,526.5 620.3,526.7 621.2,526.6 622.1,529.0 622.9,527.4 623.8,528.4 624.7,526.8 625.6,528.5 626.5,529.1 627.3,525.1 628.2,528.0 629.1,528.5 630.0,526.5 630.9,525.9 631.7,526.8 632.6,527.0 633.5,526.9 634.4,528.8 635.3,527.8 636.1,526.6 637.0,526.7 637.9,527.3 638.8,528.6 639.7,529.1 640.6,525.4 641.4,527.1 642.3,528.6 643.2,526.5 644.1,529.6 645.0,528.9 645.8,528.2 646.7,528.2 647.6,525.1 648.5,530.0 649.4,528.3 650.2,527.3 651.1,528.4 652.0,527.1 652.9,528.3 653.8,526.4 654.6,526.0 655.5,526.8 656.4,527.5 657.3,528.0 658.2,528.9 659.0,527.9 659.9,526.6 660.8,528.5 661.7,528.2 662.6,527.6 663.5,529.4 664.3,525.8 665.2,529.6 666.1,527.5 667.0,529.1 667.9,527.6 668.7,528.3 669.6,528.8 670.5,529.9 671.4,527.2 672.3,530.1 673.1,530.2 674.0,528.2 674.9,527.7 675.8,529.2 676.7,529.2 677.5,529.9 678.4,530.3 679.3,528.8 680.2,529.5 681.1,529.8 682.0,531.2 682.8,528.2 683.7,529.8 684.6,530.3 685.5,529.0 686.4,529.9 687.2,528.9 688.1,529.3 689.0,529.0 689.9,530.3 690.8,527.8 691.6,529.5 692.5,529.4 693.4,531.1 694.3,529.8 695.2,529.3 696.0,529.8 696.9,529.9 697.8,528.9 698.7,526.7 699.6,527.9 700.5,529.5 701.3,531.1 702.2,528.2 703.1,531.2 704.0,530.7 704.9,529.0 705.7,530.5 706.6,530.7 707.5,532.6 708.4,528.4 709.3,529.0 710.1,528.7 711.0,529.7 711.9,532.2 712.8,529.7 713.7,528.1 714.5,528.7 715.4,531.6 716.3,531.6 717.2,527.8 718.1,530.7 718.9,530.7 719.8,532.1 720.7,529.0 721.6,531.3 722.5,528.9 723.4,530.9 724.2,529.7 725.1,530.3 726.0,530.7 726.9,529.7 727.8,530.2 728.6,530.7 729.5,531.6 730.4,530.1 731.3,531.1 732.2,529.4 733.0,530.3 733.9,531.5 734.8,530.8 735.7,528.9 736.6,530.1 737.4,529.3 738.3,530.7 739.2,530.8 740.1,531.5 741.0,529.8 741.9,531.1 742.7,530.4 743.6,531.1 744.5,531.8 745.4,534.8 746.3,529.8 747.1,530.8 748.0,530.9 748.9,532.0 749.8,534.7 750.7,527.3 751.5,531.5 752.4,530.5 753.3,531.4 754.2,533.0 755.1,529.5 755.9,530.6 756.8,530.0 757.7,531.6 758.6,531.8 759.5,530.8 760.4,529.6 761.2,530.5 762.1,530.7 763.0,529.0 763.9,531.4 764.8,529.6 765.6,532.5 766.5,531.1 767.4,533.1 768.3,530.6 769.2,531.2 770.0,532.5 770.9,529.0 771.8,530.5 772.7,531.1 773.6,530.0 774.4,531.5 775.3,531.5 776.2,531.1 777.1,532.0 778.0,530.2 778.8,530.7 779.7,533.6 780.6,534.1 781.5,534.8 782.4,532.2 783.3,533.2 784.1,533.1 785.0,532.2 785.9,531.6 786.8,533.0 787.7,533.7 788.5,530.6 789.4,531.0 790.3,534.0 791.2,531.6 792.1,531.0 792.9,530.1 793.8,531.2 794.7,531.3 795.6,533.6 796.5,532.1 797.3,531.5 798.2,532.9 799.1,530.5 800.0,532.0 800.9,531.8 801.8,532.0 802.6,532.5 803.5,530.9 804.4,532.3 805.3,532.5 806.2,532.8 807.0,530.4 807.9,530.5 808.8,532.1 809.7,532.3 810.6,531.8 811.4,531.9 812.3,531.8 813.2,532.5 814.1,531.5 815.0,532.8 815.8,533.1 816.7,532.5 817.6,532.0 818.5,534.6 819.4,533.4 820.3,532.4 821.1,531.7 822.0,532.1 822.9,532.2 823.8,532.9 824.7,532.8 825.5,533.7 826.4,535.3 827.3,531.6 828.2,531.7 829.1,530.7 829.9,533.5 830.8,533.2 831.7,532.8 832.6,532.7 833.5,532.1 834.3,532.4 835.2,533.2 836.1,533.8 837.0,532.9 837.9,532.3 838.7,532.7 839.6,531.9 840.5,532.9 841.4,532.5 842.3,532.1 843.2,532.5 844.0,535.2 844.9,531.1 845.8,534.6 846.7,532.1 847.6,534.4 848.4,533.6 849.3,533.2 850.2,533.8 851.1,531.2 852.0,533.8 852.8,532.2 853.7,532.2 854.6,534.1 855.5,532.7 856.4,533.9 857.2,535.0 858.1,532.9 859.0,532.5 859.9,532.6 860.8,533.2 861.7,533.8 862.5,533.8 863.4,533.1 864.3,533.8 865.2,533.6 866.1,532.3 866.9,533.3 867.8,533.3 868.7,535.2 869.6,534.6 870.5,533.9 871.3,533.8 872.2,532.8 873.1,535.4 874.0,534.9 874.9,532.2 875.7,533.0 876.6,534.8 877.5,534.9 878.4,532.9 879.3,531.2 880.2,532.0 881.0,533.4 881.9,533.8 882.8,533.8 883.7,533.6 884.6,531.6 885.4,534.8 886.3,532.6 887.2,532.0 888.1,532.8 889.0,533.7 889.8,533.1 890.7,535.2 891.6,533.4 892.5,533.2 893.4,533.4 894.2,533.8 895.1,534.2 896.0,533.6 896.9,534.9 897.8,534.7 898.6,534.7 899.5,532.1 900.4,533.1 901.3,533.5 902.2,534.8 903.1,533.3 903.9,533.7 904.8,535.5 905.7,532.9 906.6,533.8 907.5,533.3 908.3,533.7 909.2,533.0 910.1,535.2 911.0,534.6 911.9,535.9 912.7,536.6 913.6,535.5 914.5,532.8 915.4,534.2 916.3,534.3 917.1,533.9 918.0,536.6 918.9,532.2 919.8,534.0 920.7,534.1 921.6,532.9 922.4,534.7 923.3,533.5 924.2,536.7 925.1,533.0 926.0,533.4 926.8,533.7 927.7,534.2 928.6,535.0 929.5,532.9 930.4,533.8 931.2,535.3 932.1,532.5 933.0,532.1 933.9,535.7 934.8,534.0 935.6,535.3 936.5,534.9 937.4,534.2 938.3,536.3 939.2,532.7 940.1,536.3 940.9,534.6 941.8,533.8 942.7,532.6 943.6,533.9 944.5,534.6 945.3,535.5 946.2,536.4 947.1,533.7 948.0,533.5 948.9,533.9 949.7,534.4 950.6,533.1 951.5,535.5 952.4,534.1 953.3,536.5 954.1,533.9 955.0,533.2 955.9,534.8 956.8,534.8 957.7,535.4 958.5,533.5 959.4,535.2 960.3,535.0 961.2,534.6 962.1,534.3 963.0,533.8 963.8,537.8 964.7,533.2 965.6,535.8 966.5,534.1 967.4,535.2 968.2,534.5 969.1,534.3 970.0,533.8" fill="none" stroke="#9333ea" stroke-width="2.2"/>
<line x1="717" y1="83" x2="741" y2="83" stroke="#9333ea" stroke-width="3"/>
<text x="748" y="87" font-family="sans-serif" font-size="12">3e-3</text>
<polyline points="90.0,106.7 90.9,106.8 91.8,121.1 92.6,143.5 93.5,168.6 94.4,195.4 95.3,222.4 96.2,251.8 97.0,280.0 97.9,304.0 98.8,323.8 99.7,327.9 100.6,336.8 101.5,346.5 102.3,338.0 103.2,106.9 104.1,343.5 105.0,345.9 105.9,355.4 106.7,361.1 107.6,340.4 108.5,359.0 109.4,364.5 110.3,371.4 111.1,377.0 112.0,375.9 112.9,371.3 113.8,375.3 114.7,378.4 115.5,375.3 116.4,385.9 117.3,381.8 118.2,382.4 119.1,388.3 119.9,391.3 120.8,390.3 121.7,395.3 122.6,398.8 123.5,399.1 124.4,398.7 125.2,402.1 126.1,402.1 127.0,404.5 127.9,407.3 128.8,403.4 129.6,410.2 130.5,404.5 131.4,409.1 132.3,410.2 133.2,410.8 134.0,412.6 134.9,412.2 135.8,416.7 136.7,417.5 137.6,415.3 138.4,417.7 139.3,419.7 140.2,423.8 141.1,422.0 142.0,420.9 142.9,423.7 143.7,420.7 144.6,428.1 145.5,426.9 146.4,425.6 147.3,429.2 148.1,430.6 149.0,428.5 149.9,431.4 150.8,432.6 151.7,430.3 152.5,432.6 153.4,433.2 154.3,433.4 155.2,436.0 156.1,436.1 156.9,437.7 157.8,435.7 158.7,436.4 159.6,436.9 160.5,439.9 161.4,438.1 162.2,440.5 163.1,441.9 164.0,441.1 164.9,445.4 165.8,442.6 166.6,442.9 167.5,443.6 168.4,445.1 169.3,445.4 170.2,445.0 171.0,447.0 171.9,445.8 172.8,445.9 173.7,445.8 174.6,446.6 175.4,447.4 176.3,443.3 177.2,448.0 178.1,448.6 179.0,448.6 179.8,450.9 180.7,448.4 181.6,448.8 182.5,450.4 183.4,451.4 184.3,453.6 185.1,450.6 186.0,451.1 186.9,453.1 187.8,452.7 188.7,453.2 189.5,452.3 190.4,453.2 191.3,454.3 192.2,455.0 193.1,455.7 193.9,458.7 194.8,453.5 195.7,455.2 196.6,455.9 197.5,455.6 198.3,456.6 199.2,456.7 200.1,458.1 201.0,457.9 201.9,457.0 202.8,459.3 203.6,457.8 204.5,455.2 205.4,457.7 206.3,455.6 207.2,458.9 208.0,458.6 208.9,455.8 209.8,456.5 210.7,458.7 211.6,455.8 212.4,455.5 213.3,444.3 214.2,422.8 215.1,431.6 216.0,436.9 216.8,445.9 217.7,444.6 218.6,445.8 219.5,438.0 220.4,425.0 221.3,415.0 222.1,411.4 223.0,411.6 223.9,404.3 224.8,391.2 225.7,384.8 226.5,389.6 227.4,382.2 228.3,371.3 229.2,375.8 230.1,369.1 230.9,366.0 231.8,372.6 232.7,346.9 233.6,365.7 234.5,385.3 235.3,399.7 236.2,405.8 237.1,413.2 238.0,420.8 238.9,422.1 239.7,426.7 240.6,429.7 241.5,427.9 242.4,427.2 243.3,431.4 244.2,433.7 245.0,437.2 245.9,432.6 246.8,435.8 247.7,439.1 248.6,436.5 249.4,432.0 250.3,434.8 251.2,433.1 252.1,431.0 253.0,436.7 253.8,430.2 254.7,436.9 255.6,435.3 256.5,435.2 257.4,435.4 258.2,434.5 259.1,436.2 260.0,434.5 260.9,430.6 261.8,433.7 262.7,430.2 263.5,426.5 264.4,424.9 265.3,427.5 266.2,421.4 267.1,416.8 267.9,412.0 268.8,401.0 269.7,390.3 270.6,375.6 271.5,369.9 272.3,365.6 273.2,355.1 274.1,359.9 275.0,356.6 275.9,363.3 276.7,350.3 277.6,348.7 278.5,357.2 279.4,367.5 280.3,362.3 281.2,351.3 282.0,341.1 282.9,337.3 283.8,332.3 284.7,322.2 285.6,312.8 286.4,292.0 287.3,277.3 288.2,269.5 289.1,254.5 290.0,242.5 290.8,226.7 291.7,218.1 292.6,211.9 293.5,200.6 294.4,195.9 295.2,185.2 296.1,182.0 297.0,198.8 297.9,207.4 298.8,211.8 299.6,213.9 300.5,213.7 301.4,215.9 302.3,216.2 303.2,229.4 304.1,238.4 304.9,246.0 305.8,251.3 306.7,255.4 307.6,258.7 308.5,261.0 309.3,261.6 310.2,261.7 311.1,262.9 312.0,262.0 312.9,267.8 313.7,273.0 314.6,279.8 315.5,290.1 316.4,292.2 317.3,299.6 318.1,301.2 319.0,303.1 319.9,298.0 320.8,303.6 321.7,302.7 322.6,295.6 323.4,292.0 324.3,288.7 325.2,294.5 326.1,300.8 327.0,301.0 327.8,299.8 328.7,296.1 329.6,289.2 330.5,282.3 331.4,276.3 332.2,273.0 333.1,270.5 334.0,276.3 334.9,278.5 335.8,282.7 336.6,286.8 337.5,284.1 338.4,285.2 339.3,287.2 340.2,285.6 341.1,285.7 341.9,285.7 342.8,285.3 343.7,284.4 344.6,286.6 345.5,285.2 346.3,284.9 347.2,283.2 348.1,284.7 349.0,283.2 349.9,282.8 350.7,283.5 351.6,284.7 352.5,282.9 353.4,282.4 354.3,283.9 355.1,283.8 356.0,283.5 356.9,285.3 357.8,285.6 358.7,283.5 359.5,284.8 360.4,284.9 361.3,282.8 362.2,283.3 363.1,283.5 364.0,282.2 364.8,285.2 365.7,283.9 366.6,283.1 367.5,284.2 368.4,283.1 369.2,283.5 370.1,284.4 371.0,284.5 371.9,283.9 372.8,283.6 373.6,283.6 374.5,284.4 375.4,284.2 376.3,282.4 377.2,284.2 378.0,281.4 378.9,280.3 379.8,278.6 380.7,280.2 381.6,280.5 382.5,279.8 383.3,277.4 384.2,278.9 385.1,278.4 386.0,277.9 386.9,278.0 387.7,278.3 388.6,277.2 389.5,278.4 390.4,277.4 391.3,277.1 392.1,275.4 393.0,274.8 393.9,274.1 394.8,272.4 395.7,274.7 396.5,273.2 397.4,271.8 398.3,273.3 399.2,272.2 400.1,270.5 401.0,268.8 401.8,264.7 402.7,267.1 403.6,269.0 404.5,269.4 405.4,271.9 406.2,276.0 407.1,278.4 408.0,281.1 408.9,285.7 409.8,288.4 410.6,291.8 411.5,294.8 412.4,296.9 413.3,295.5 414.2,296.8 415.0,298.0 415.9,300.0 416.8,299.9 417.7,300.3 418.6,300.9 419.4,301.4 420.3,299.0 421.2,298.6 422.1,300.6 423.0,301.2 423.9,302.3 424.7,301.3 425.6,302.4 426.5,302.3 427.4,303.7 428.3,304.0 429.1,304.8 430.0,304.0 430.9,303.3 431.8,305.5 432.7,305.5 433.5,306.8 434.4,307.8 435.3,306.8 436.2,306.9 437.1,307.1 437.9,306.7 438.8,306.5 439.7,308.5 440.6,309.3 441.5,308.5 442.4,308.6 443.2,308.1 444.1,308.3 445.0,307.3 445.9,310.7 446.8,312.5 447.6,311.0 448.5,306.2 449.4,308.9 450.3,308.9 451.2,308.9 452.0,304.1 452.9,297.7 453.8,306.2 454.7,305.8 455.6,305.0 456.4,304.6 457.3,302.3 458.2,300.7 459.1,298.3 460.0,306.5 460.9,306.9 461.7,301.9 462.6,305.2 463.5,309.6 464.4,308.1 465.3,312.8 466.1,310.8 467.0,311.7 467.9,315.0 468.8,314.5 469.7,316.2 470.5,314.7 471.4,319.3 472.3,321.0 473.2,322.2 474.1,322.7 474.9,322.9 475.8,322.9 476.7,326.5 477.6,325.6 478.5,325.9 479.3,328.2 480.2,327.4 481.1,331.0 482.0,331.9 482.9,332.1 483.8,334.1 484.6,334.8 485.5,339.0 486.4,339.0 487.3,339.3 488.2,339.0 489.0,339.7 489.9,340.9 490.8,340.3 491.7,343.3 492.6,346.3 493.4,344.6 494.3,350.3 495.2,348.5 496.1,347.3 497.0,349.1 497.8,349.1 498.7,349.3 499.6,350.3 500.5,353.1 501.4,351.2 502.3,354.7 503.1,352.7 504.0,356.2 504.9,356.1 505.8,356.3 506.7,351.3 507.5,348.1 508.4,344.0 509.3,345.4 510.2,346.9 511.1,346.7 511.9,345.8 512.8,352.7 513.7,357.3 514.6,355.4 515.5,355.9 516.3,350.6 517.2,348.9 518.1,341.4 519.0,338.9 519.9,334.3 520.8,329.4 521.6,325.5 522.5,320.1 523.4,317.1 524.3,309.8 525.2,305.5 526.0,301.3 526.9,300.0 527.8,300.0 528.7,297.6 529.6,296.0 530.4,296.0 531.3,293.6 532.2,291.5 533.1,292.9 534.0,286.3 534.8,287.3 535.7,283.9 536.6,281.9 537.5,282.3 538.4,281.6 539.2,281.5 540.1,281.1 541.0,280.7 541.9,280.2 542.8,279.7 543.7,280.2 544.5,279.2 545.4,277.6 546.3,278.3 547.2,276.7 548.1,272.9 548.9,276.7 549.8,275.7 550.7,274.3 551.6,275.1 552.5,274.7 553.3,273.7 554.2,273.8 555.1,272.9 556.0,274.6 556.9,271.7 557.7,272.8 558.6,269.3 559.5,272.6 560.4,270.5 561.3,270.3 562.2,270.5 563.0,269.3 563.9,267.5 564.8,266.9 565.7,267.6 566.6,265.6 567.4,264.6 568.3,265.2 569.2,265.4 570.1,265.6 571.0,263.8 571.8,266.3 572.7,263.3 573.6,261.8 574.5,261.8 575.4,262.4 576.2,263.4 577.1,265.0 578.0,267.6 578.9,265.9 579.8,268.8 580.7,272.0 581.5,270.9 582.4,273.8 583.3,274.6 584.2,284.5 585.1,288.5 585.9,295.9 586.8,303.3 587.7,309.6 588.6,309.1 589.5,312.0 590.3,312.9 591.2,311.6 592.1,316.2 593.0,316.0 593.9,318.4 594.7,322.9 595.6,323.0 596.5,323.8 597.4,323.8 598.3,323.5 599.1,324.9 600.0,326.2 600.9,324.4 601.8,322.8 602.7,323.2 603.6,321.7 604.4,324.3 605.3,326.1 606.2,327.9 607.1,326.2 608.0,329.1 608.8,327.6 609.7,327.4 610.6,327.8 611.5,327.6 612.4,328.3 613.2,328.5 614.1,324.2 615.0,327.9 615.9,327.9 616.8,327.7 617.6,327.3 618.5,326.6 619.4,324.8 620.3,324.8 621.2,323.6 622.1,325.9 622.9,325.0 623.8,324.4 624.7,324.4 625.6,325.7 626.5,326.8 627.3,324.5 628.2,325.4 629.1,327.5 630.0,325.1 630.9,324.9 631.7,323.5 632.6,325.3 633.5,325.2 634.4,324.2 635.3,323.9 636.1,321.3 637.0,322.8 637.9,321.7 638.8,322.1 639.7,321.4 640.6,318.4 641.4,318.6 642.3,318.2 643.2,316.0 644.1,316.7 645.0,316.0 645.8,315.1 646.7,313.0 647.6,312.7 648.5,313.7 649.4,312.9 650.2,311.4 651.1,311.8 652.0,310.6 652.9,312.2 653.8,309.9 654.6,311.1 655.5,310.3 656.4,312.2 657.3,311.8 658.2,311.6 659.0,311.6 659.9,310.9 660.8,312.1 661.7,311.9 662.6,310.5 663.5,310.6 664.3,309.0 665.2,310.8 666.1,308.7 667.0,311.0 667.9,309.5 668.7,309.8 669.6,309.3 670.5,310.8 671.4,308.6 672.3,310.1 673.1,310.7 674.0,308.4 674.9,306.7 675.8,309.8 676.7,308.8 677.5,308.9 678.4,309.5 679.3,309.2 680.2,308.1 681.1,309.2 682.0,311.2 682.8,312.0 683.7,314.5 684.6,316.9 685.5,316.9 686.4,315.4 687.2,315.5 688.1,317.1 689.0,318.4 689.9,321.3 690.8,319.7 691.6,321.5 692.5,321.1 693.4,321.1 694.3,322.1 695.2,320.7 696.0,321.6 696.9,324.2 697.8,323.8 698.7,321.0 699.6,322.1 700.5,321.0 701.3,321.2 702.2,317.4 703.1,316.5 704.0,315.7 704.9,314.4 705.7,313.2 706.6,311.5 707.5,311.8 708.4,307.5 709.3,306.8 710.1,304.3 711.0,304.1 711.9,304.2 712.8,301.8 713.7,299.1 714.5,298.8 715.4,300.5 716.3,297.8 717.2,296.9 718.1,296.8 718.9,296.0 719.8,295.9 720.7,294.4 721.6,296.1 722.5,294.4 723.4,296.2 724.2,294.6 725.1,295.6 726.0,295.8 726.9,297.8 727.8,296.0 728.6,298.7 729.5,299.2 730.4,297.9 731.3,297.4 732.2,298.4 733.0,299.2 733.9,300.4 734.8,301.3 735.7,302.1 736.6,302.9 737.4,303.9 738.3,305.1 739.2,306.6 740.1,307.9 741.0,308.4 741.9,311.0 742.7,311.7 743.6,314.4 744.5,314.4 745.4,317.1 746.3,314.4 747.1,318.3 748.0,320.6 748.9,322.0 749.8,325.8 750.7,321.1 751.5,325.6 752.4,323.5 753.3,324.3 754.2,325.5 755.1,323.5 755.9,323.8 756.8,324.0 757.7,326.7 758.6,328.1 759.5,327.0 760.4,324.7 761.2,325.6 762.1,326.6 763.0,326.2 763.9,329.5 764.8,327.8 765.6,331.1 766.5,331.4 767.4,332.3 768.3,331.2 769.2,332.3 770.0,333.7 770.9,330.9 771.8,332.5 772.7,334.0 773.6,332.8 774.4,333.2 775.3,334.5 776.2,333.7 777.1,333.6 778.0,332.7 778.8,332.3 779.7,335.0 780.6,334.8 781.5,334.7 782.4,333.2 783.3,334.0 784.1,334.0 785.0,333.1 785.9,333.3 786.8,333.3 787.7,333.3 788.5,331.5 789.4,330.9 790.3,333.1 791.2,332.4 792.1,330.3 792.9,329.3 793.8,329.4 794.7,330.6 795.6,330.1 796.5,329.9 797.3,329.4 798.2,331.4 799.1,329.2 800.0,329.9 800.9,329.9 801.8,328.4 802.6,328.8 803.5,326.9 804.4,328.7 805.3,329.7 806.2,330.3 807.0,329.0 807.9,329.3 808.8,330.1 809.7,332.2 810.6,331.4 811.4,333.1 812.3,333.9 813.2,333.1 814.1,334.6 815.0,335.2 815.8,334.5 816.7,335.1 817.6,334.5 818.5,337.2 819.4,336.7 820.3,334.7 821.1,335.8 822.0,337.8 822.9,336.5 823.8,338.3 824.7,337.9 825.5,338.7 826.4,340.6 827.3,337.2 828.2,337.0 829.1,338.1 829.9,338.9 830.8,341.2 831.7,338.5 832.6,339.2 833.5,340.6 834.3,341.2 835.2,341.4 836.1,341.4 837.0,341.6 837.9,342.5 838.7,342.4 839.6,340.6 840.5,342.1 841.4,342.7 842.3,342.4 843.2,344.5 844.0,346.3 844.9,341.4 845.8,344.2 846.7,340.4 847.6,344.4 848.4,346.5 849.3,346.1 850.2,346.1 851.1,342.6 852.0,343.9 852.8,341.2 853.7,338.2 854.6,338.2 855.5,335.8 856.4,336.8 857.2,338.9 858.1,339.1 859.0,340.3 859.9,339.8 860.8,342.3 861.7,342.5 862.5,342.4 863.4,342.7 864.3,344.2 865.2,344.1 866.1,344.8 866.9,346.6 867.8,346.7 868.7,348.2 869.6,346.1 870.5,344.6 871.3,343.8 872.2,341.7 873.1,343.2 874.0,341.4 874.9,339.3 875.7,338.9 876.6,337.8 877.5,339.0 878.4,337.2 879.3,333.5 880.2,335.0 881.0,334.5 881.9,333.8 882.8,333.7 883.7,331.5 884.6,330.5 885.4,333.4 886.3,330.8 887.2,330.2 888.1,328.9 889.0,330.0 889.8,329.4 890.7,334.0 891.6,335.5 892.5,337.4 893.4,339.4 894.2,342.5 895.1,342.5 896.0,341.6 896.9,343.9 897.8,343.5 898.6,343.6 899.5,340.7 900.4,342.4 901.3,343.4 902.2,342.5 903.1,341.3 903.9,340.9 904.8,344.4 905.7,340.2 906.6,342.3 907.5,341.6 908.3,340.8 909.2,339.5 910.1,343.1 911.0,340.6 911.9,343.8 912.7,343.5 913.6,343.8 914.5,341.2 915.4,342.1 916.3,342.5 917.1,343.9 918.0,345.6 918.9,341.7 919.8,343.4 920.7,343.9 921.6,342.9 922.4,344.6 923.3,342.5 924.2,345.5 925.1,342.7 926.0,342.8 926.8,343.7 927.7,344.2 928.6,344.8 929.5,343.6 930.4,344.1 931.2,345.9 932.1,343.6 933.0,343.2 933.9,347.7 934.8,346.3 935.6,346.9 936.5,346.5 937.4,346.1 938.3,346.2 939.2,344.3 940.1,347.4 940.9,348.3 941.8,346.7 942.7,344.9 943.6,345.2 944.5,347.1 945.3,347.0 946.2,347.3 947.1,343.9 948.0,345.1 948.9,346.3 949.7,349.6 950.6,347.7 951.5,347.8 952.4,347.9 953.3,349.0 954.1,347.1 955.0,346.8 955.9,348.1 956.8,348.6 957.7,350.5 958.5,348.8 959.4,347.7 960.3,347.9 961.2,348.6 962.1,348.6 963.0,350.3 963.8,352.1 964.7,350.0 965.6,352.0 966.5,350.5 967.4,350.9 968.2,350.7 969.1,350.5 970.0,349.5" fill="none" stroke="#ea580c" stroke-width="2.2"/>
<line x1="102" y1="105" x2="126" y2="105" stroke="#ea580c" stroke-width="3"/>
<text x="133" y="109" font-family="sans-serif" font-size="12">1e-2</text>
<polyline points="90.0,106.7 90.9,106.8 91.8,139.4 92.6,183.4 93.5,228.8 94.4,277.6 95.3,313.5 96.2,65.0 97.0,289.5 97.9,321.0 98.8,250.6 99.7,301.1 100.6,328.3 101.5,323.1 102.3,331.6 103.2,330.8 104.1,318.4 105.0,288.7 105.9,318.6 106.7,330.1 107.6,332.8 108.5,333.7 109.4,335.3 110.3,342.1 111.1,344.5 112.0,344.8 112.9,348.1 113.8,350.9 114.7,353.7 115.5,353.1 116.4,358.5 117.3,357.8 118.2,357.6 119.1,357.9 119.9,363.0 120.8,363.4 121.7,367.5 122.6,372.1 123.5,373.3 124.4,372.5 125.2,377.4 126.1,375.8 127.0,378.3 127.9,383.0 128.8,379.6 129.6,386.5 130.5,384.3 131.4,388.3 132.3,388.2 133.2,389.2 134.0,390.3 134.9,388.1 135.8,391.0 136.7,393.2 137.6,388.3 138.4,393.5 139.3,394.2 140.2,394.9 141.1,391.2 142.0,379.7 142.9,375.1 143.7,378.8 144.6,372.1 145.5,375.3 146.4,365.5 147.3,347.2 148.1,366.6 149.0,355.9 149.9,347.1 150.8,325.4 151.7,297.6 152.5,299.3 153.4,295.4 154.3,290.8 155.2,287.2 156.1,281.3 156.9,274.0 157.8,266.4 158.7,255.8 159.6,250.4 160.5,245.5 161.4,237.6 162.2,229.8 163.1,221.3 164.0,210.8 164.9,204.0 165.8,196.6 166.6,184.6 167.5,172.4 168.4,152.0 169.3,134.4 170.2,118.6 171.0,106.3 171.9,97.2 172.8,89.7 173.7,84.5 174.6,82.6 175.4,79.5 176.3,76.2 177.2,74.1 178.1,117.2 179.0,163.3 179.8,196.4 180.7,219.1 181.6,232.4 182.5,242.3 183.4,248.7 184.3,252.8 185.1,253.4 186.0,255.8 186.9,257.3 187.8,258.2 188.7,257.9 189.5,255.9 190.4,255.1 191.3,255.4 192.2,253.6 193.1,251.3 193.9,254.2 194.8,252.4 195.7,251.4 196.6,251.6 197.5,249.1 198.3,249.1 199.2,249.7 200.1,248.6 201.0,249.3 201.9,248.7 202.8,249.9" fill="none" stroke="#0891b2" stroke-width="2.2"/>
<line x1="307" y1="105" x2="331" y2="105" stroke="#0891b2" stroke-width="3"/>
<text x="338" y="109" font-family="sans-serif" font-size="12">3e-2</text>
<polyline points="90.0,106.7 90.9,106.8 91.8,157.8 92.6,252.2 93.5,301.5 94.4,119.0 95.3,263.8 96.2,171.2 97.0,210.0 97.9,172.7 98.8,65.0 99.7,65.0 100.6,65.0 101.5,81.0 102.3,116.7 103.2,101.2 104.1,123.7 105.0,90.0 105.9,65.0 106.7,65.0 107.6,65.0 108.5,74.0 109.4,87.3 110.3,93.2 111.1,65.0 112.0,65.0 112.9,65.0 113.8,65.0 114.7,97.8 115.5,163.4 116.4,195.3 117.3,214.1 118.2,135.4 119.1,212.1 119.9,257.7 120.8,283.2 121.7,284.9 122.6,259.3 123.5,207.0 124.4,128.9 125.2,65.0 126.1,65.0 127.0,65.0 127.9,65.0 128.8,65.0" fill="none" stroke="#4f46e5" stroke-width="2.2"/>
<line x1="512" y1="105" x2="536" y2="105" stroke="#4f46e5" stroke-width="3"/>
<text x="543" y="109" font-family="sans-serif" font-size="12">1e-1</text>
<polyline points="90.0,106.7 90.9,106.8 91.8,166.4 92.6,149.2 93.5,65.0 94.4,65.0 95.3,65.0 96.2,65.0 97.0,65.0 97.9,65.0 98.8,65.0 99.7,65.0" fill="none" stroke="#be123c" stroke-width="2.2"/>
<line x1="717" y1="105" x2="741" y2="105" stroke="#be123c" stroke-width="3"/>
<text x="748" y="109" font-family="sans-serif" font-size="12">1e0</text>
</svg>
