<svg xmlns="http://www.w3.org/2000/svg" width="1000" height="620" viewBox="0 0 1000 620">
<rect width="100%" height="100%" fill="white"/>
<text x="500.0" y="32" text-anchor="middle" font-family="sans-serif" font-size="22">OpenWebText baseline: training loss by step</text>
<line x1="90.0" y1="65" x2="90.0" y2="545" stroke="#e5e7eb"/>
<text x="90.0" y="570" text-anchor="middle" font-family="sans-serif" font-size="12">1</text>
<line x1="90" y1="65.0" x2="970" y2="65.0" stroke="#e5e7eb"/>
<text x="78" y="69.0" text-anchor="end" font-family="sans-serif" font-size="12">11</text>
<line x1="266.0" y1="65" x2="266.0" y2="545" stroke="#e5e7eb"/>
<text x="266.0" y="570" text-anchor="middle" font-family="sans-serif" font-size="12">1e+03</text>
<line x1="90" y1="161.0" x2="970" y2="161.0" stroke="#e5e7eb"/>
<text x="78" y="165.0" text-anchor="end" font-family="sans-serif" font-size="12">9.5</text>
<line x1="442.0" y1="65" x2="442.0" y2="545" stroke="#e5e7eb"/>
<text x="442.0" y="570" text-anchor="middle" font-family="sans-serif" font-size="12">2e+03</text>
<line x1="90" y1="257.0" x2="970" y2="257.0" stroke="#e5e7eb"/>
<text x="78" y="261.0" text-anchor="end" font-family="sans-serif" font-size="12">8</text>
<line x1="618.0" y1="65" x2="618.0" y2="545" stroke="#e5e7eb"/>
<text x="618.0" y="570" text-anchor="middle" font-family="sans-serif" font-size="12">3e+03</text>
<line x1="90" y1="353.0" x2="970" y2="353.0" stroke="#e5e7eb"/>
<text x="78" y="357.0" text-anchor="end" font-family="sans-serif" font-size="12">6.5</text>
<line x1="794.0" y1="65" x2="794.0" y2="545" stroke="#e5e7eb"/>
<text x="794.0" y="570" text-anchor="middle" font-family="sans-serif" font-size="12">4e+03</text>
<line x1="90" y1="449.0" x2="970" y2="449.0" stroke="#e5e7eb"/>
<text x="78" y="453.0" text-anchor="end" font-family="sans-serif" font-size="12">5</text>
<line x1="970.0" y1="65" x2="970.0" y2="545" stroke="#e5e7eb"/>
<text x="970.0" y="570" text-anchor="middle" font-family="sans-serif" font-size="12">5e+03</text>
<line x1="90" y1="545.0" x2="970" y2="545.0" stroke="#e5e7eb"/>
<text x="78" y="549.0" text-anchor="end" font-family="sans-serif" font-size="12">3.5</text>
<line x1="90" y1="545" x2="970" y2="545" stroke="#111827" stroke-width="2"/>
<line x1="90" y1="65" x2="90" y2="545" stroke="#111827" stroke-width="2"/>
<text x="530.0" y="600" text-anchor="middle" font-family="sans-serif" font-size="15">step</text>
<text x="20" y="305.0" text-anchor="middle" transform="rotate(-90 20 305.0)" font-family="sans-serif" font-size="15">train_loss</text>
<polyline points="90.0,104.1 90.2,104.1 90.4,105.0 90.5,106.6 90.7,108.8 90.9,112.0 91.1,115.7 91.2,120.7 91.4,126.8 91.6,134.4 91.8,143.7 91.9,153.0 92.1,162.5 92.3,173.0 92.5,182.8 92.6,194.3 92.8,205.7 93.0,218.0 93.2,228.4 93.3,238.7 93.5,245.6 93.7,255.7 93.9,262.3 94.0,270.4 94.2,274.0 94.4,281.5 94.6,285.9 94.8,288.7 94.9,293.8 95.1,297.5 95.3,295.2 95.5,293.2 95.6,298.1 95.8,294.5 96.0,299.7 96.2,300.4 96.3,300.8 96.5,307.9 96.7,307.9 96.9,309.2 97.0,309.1 97.2,312.1 97.4,312.6 97.6,315.1 97.7,319.2 97.9,314.9 98.1,318.8 98.3,320.4 98.4,322.5 98.6,324.9 98.8,324.9 99.0,322.8 99.2,328.3 99.3,330.1 99.5,326.9 99.7,330.0 99.9,330.0 100.0,332.7 100.2,335.3 100.4,339.3 100.6,338.6 100.7,339.2 100.9,340.6 101.1,341.6 101.3,344.2 101.4,344.8 101.6,347.4 101.8,349.0 102.0,347.1 102.1,350.5 102.3,351.5 102.5,348.0 102.7,352.1 102.9,353.8 103.0,355.7 103.2,357.1 103.4,356.3 103.6,353.6 103.7,351.6 103.9,359.9 104.1,355.8 104.3,360.7 104.4,357.5 104.6,362.7 104.8,366.9 105.0,365.8 105.1,367.4 105.3,367.6 105.5,364.7 105.7,368.0 105.8,365.5 106.0,370.1 106.2,374.4 106.4,373.4 106.5,375.2 106.7,372.8 106.9,373.3 107.1,372.4 107.3,371.9 107.4,375.2 107.6,374.6 107.8,374.2 108.0,378.3 108.1,380.6 108.3,374.5 108.5,383.4 108.7,379.1 108.8,384.9 109.0,382.4 109.2,387.5 109.4,382.3 109.5,380.1 109.7,385.1 109.9,386.8 110.1,385.0 110.2,387.7 110.4,389.3 110.6,387.1 110.8,388.2 110.9,388.8 111.1,388.3 111.3,392.5 111.5,392.6 111.7,392.0 111.8,394.5 112.0,393.9 112.2,392.3 112.4,396.4 112.5,392.9 112.7,396.1 112.9,399.9 113.1,397.0 113.2,399.1 113.4,398.2 113.6,399.9 113.8,399.8 113.9,400.5 114.1,399.3 114.3,399.9 114.5,402.6 114.6,401.3 114.8,399.2 115.0,407.4 115.2,399.9 115.3,406.9 115.5,403.8 115.7,404.3 115.9,409.0 116.1,409.7 116.2,407.7 116.4,404.5 116.6,408.8 116.8,409.5 116.9,407.8 117.1,405.7 117.3,412.0 117.5,407.8 117.6,411.5 117.8,405.4 118.0,409.7 118.2,408.6 118.3,411.0 118.5,410.2 118.7,411.4 118.9,413.8 119.0,416.2 119.2,409.7 119.4,415.7 119.6,414.9 119.7,414.4 119.9,415.9 120.1,414.3 120.3,418.6 120.5,412.7 120.6,417.3 120.8,417.8 121.0,415.7 121.2,417.7 121.3,418.2 121.5,421.0 121.7,419.6 121.9,420.4 122.0,420.8 122.2,421.6 122.4,420.5 122.6,423.4 122.7,418.4 122.9,424.5 123.1,420.7 123.3,421.8 123.4,423.0 123.6,422.1 123.8,422.2 124.0,422.6 124.2,423.6 124.3,420.1 124.5,421.8 124.7,425.5 124.9,423.7 125.0,422.1 125.2,422.0 125.4,424.6 125.6,425.2 125.7,428.3 125.9,425.1 126.1,426.6 126.3,427.1 126.4,425.6 126.6,427.1 126.8,427.4 127.0,427.5 127.1,427.2 127.3,429.4 127.5,427.7 127.7,424.1 127.8,430.7 128.0,428.0 128.2,430.1 128.4,431.8 128.6,429.2 128.7,430.4 128.9,432.1 129.1,427.1 129.3,431.6 129.4,430.8 129.6,431.3 129.8,430.1 130.0,427.5 130.1,435.0 130.3,432.4 130.5,428.3 130.7,432.1 130.8,430.4 131.0,429.6 131.2,433.0 131.4,431.5 131.5,433.1 131.7,429.0 131.9,432.7 132.1,432.7 132.2,431.1 132.4,436.2 132.6,431.1 132.8,434.4 133.0,434.4 133.1,433.0 133.3,434.7 133.5,435.8 133.7,432.8 133.8,434.2 134.0,433.9 134.2,437.6 134.4,434.5 134.5,435.1 134.7,434.5 134.9,436.9 135.1,436.4 135.2,435.9 135.4,437.3 135.6,436.1 135.8,436.7 135.9,435.8 136.1,436.0 136.3,436.5 136.5,438.3 136.6,439.0 136.8,434.8 137.0,439.1 137.2,438.1 137.4,439.3 137.5,439.3 137.7,438.3 137.9,438.0 138.1,437.8 138.2,438.3 138.4,439.8 138.6,439.5 138.8,438.8 138.9,438.8 139.1,437.5 139.3,440.3 139.5,436.8 139.6,441.1 139.8,441.0 140.0,439.6 140.2,441.8 140.3,441.7 140.5,439.1 140.7,441.1 140.9,439.5 141.1,438.5 141.2,440.8 141.4,440.3 141.6,444.1 141.8,441.9 141.9,440.4 142.1,445.5 142.3,442.3 142.5,441.7 142.6,443.3 142.8,442.9 143.0,441.0 143.2,439.0 143.3,440.2 143.5,440.8 143.7,442.0 143.9,441.3 144.0,444.6 144.2,447.1 144.4,441.6 144.6,444.2 144.7,441.9 144.9,446.1 145.1,443.9 145.3,444.7 145.5,443.7 145.6,447.5 145.8,447.1 146.0,443.0 146.2,444.7 146.3,442.5 146.5,442.6 146.7,444.8 146.9,441.6 147.0,446.9 147.2,447.3 147.4,443.3 147.6,442.1 147.7,444.5 147.9,446.6 148.1,445.9 148.3,444.8 148.4,444.3 148.6,444.1 148.8,441.7 149.0,448.9 149.1,447.0 149.3,446.0 149.5,448.4 149.7,446.6 149.9,445.2 150.0,448.8 150.2,447.1 150.4,447.5 150.6,446.4 150.7,447.1 150.9,451.0 151.1,443.7 151.3,446.0 151.4,450.7 151.6,449.1 151.8,453.5 152.0,449.1 152.1,447.4 152.3,450.1 152.5,451.4 152.7,447.9 152.8,449.8 153.0,449.2 153.2,451.6 153.4,451.8 153.5,450.4 153.7,452.9 153.9,448.6 154.1,446.9 154.3,449.0 154.4,449.9 154.6,450.4 154.8,450.3 155.0,447.9 155.1,445.9 155.3,451.2 155.5,448.2 155.7,448.7 155.8,447.8 156.0,449.7 156.2,450.2 156.4,447.3 156.5,451.4 156.7,451.8 156.9,453.0 157.1,451.7 157.2,449.2 157.4,447.7 157.6,453.8 157.8,447.2 157.9,449.9 158.1,451.5 158.3,453.1 158.5,451.2 158.7,446.7 158.8,447.6 159.0,452.8 159.2,447.9 159.4,451.6 159.5,452.8 159.7,449.3 159.9,451.2 160.1,452.9 160.2,450.6 160.4,450.5 160.6,447.7 160.8,452.2 160.9,448.9 161.1,453.7 161.3,454.6 161.5,454.3 161.6,452.3 161.8,453.3 162.0,451.1 162.2,451.8 162.4,449.9 162.5,455.7 162.7,453.0 162.9,456.2 163.1,454.4 163.2,454.4 163.4,456.2 163.6,455.5 163.8,456.3 163.9,456.5 164.1,457.6 164.3,451.2 164.5,450.9 164.6,458.4 164.8,452.9 165.0,452.7 165.2,450.9 165.3,455.5 165.5,455.3 165.7,453.5 165.9,454.2 166.0,453.5 166.2,456.5 166.4,455.8 166.6,453.1 166.8,453.7 166.9,456.8 167.1,454.6 167.3,453.8 167.5,456.6 167.6,453.1 167.8,457.2 168.0,456.5 168.2,454.7 168.3,455.0 168.5,457.9 168.7,458.3 168.9,456.9 169.0,455.5 169.2,458.8 169.4,455.1 169.6,455.7 169.7,453.7 169.9,455.3 170.1,458.0 170.3,455.4 170.4,454.1 170.6,456.6 170.8,456.7 171.0,457.2 171.2,457.2 171.3,455.1 171.5,454.7 171.7,456.7 171.9,456.4 172.0,455.9 172.2,458.6 172.4,456.0 172.6,460.2 172.7,458.1 172.9,456.2 173.1,458.5 173.3,456.5 173.4,460.0 173.6,461.3 173.8,456.1 174.0,456.4 174.1,454.9 174.3,454.4 174.5,457.6 174.7,460.6 174.8,461.0 175.0,456.3 175.2,458.4 175.4,458.9 175.6,455.4 175.7,458.6 175.9,458.8 176.1,458.1 176.3,461.1 176.4,459.0 176.6,458.2 176.8,463.7 177.0,460.1 177.1,457.3 177.3,461.5 177.5,459.2 177.7,463.2 177.8,459.4 178.0,457.9 178.2,458.4 178.4,459.5 178.5,459.2 178.7,459.3 178.9,461.3 179.1,461.6 179.2,461.7 179.4,457.4 179.6,462.5 179.8,464.9 180.0,458.2 180.1,463.5 180.3,460.6 180.5,463.0 180.7,456.5 180.8,460.5 181.0,459.7 181.2,459.5 181.4,460.8 181.5,460.8 181.7,460.5 181.9,462.4 182.1,461.6 182.2,462.9 182.4,460.3 182.6,459.8 182.8,461.5 182.9,459.8 183.1,460.8 183.3,459.9 183.5,462.2 183.7,463.9 183.8,465.5 184.0,461.8 184.2,462.9 184.4,462.3 184.5,463.8 184.7,463.5 184.9,460.1 185.1,462.1 185.2,462.8 185.4,463.4 185.6,465.2 185.8,462.6 185.9,462.6 186.1,461.7 186.3,461.5 186.5,461.6 186.6,462.5 186.8,463.2 187.0,464.6 187.2,462.5 187.3,462.6 187.5,464.7 187.7,465.5 187.9,465.7 188.1,463.0 188.2,466.8 188.4,463.3 188.6,460.3 188.8,462.7 188.9,463.1 189.1,465.8 189.3,462.7 189.5,462.4 189.6,466.9 189.8,464.6 190.0,463.1 190.2,467.0 190.3,463.6 190.5,465.7 190.7,463.3 190.9,467.4 191.0,462.4 191.2,463.8 191.4,467.3 191.6,467.2 191.7,464.9 191.9,462.6 192.1,464.8 192.3,465.6 192.5,465.4 192.6,464.3 192.8,467.4 193.0,466.3 193.2,464.0 193.3,463.5 193.5,466.5 193.7,465.9 193.9,467.6 194.0,464.9 194.2,466.7 194.4,465.0 194.6,462.3 194.7,466.1 194.9,467.1 195.1,465.6 195.3,467.0 195.4,466.1 195.6,465.4 195.8,468.3 196.0,468.0 196.1,466.4 196.3,466.0 196.5,461.0 196.7,467.8 196.9,468.3 197.0,466.9 197.2,469.0 197.4,468.5 197.6,464.4 197.7,469.1 197.9,467.4 198.1,465.4 198.3,467.2 198.4,468.0 198.6,466.9 198.8,470.6 199.0,467.2 199.1,463.8 199.3,468.4 199.5,469.0 199.7,466.7 199.8,468.5 200.0,465.9 200.2,470.3 200.4,466.3 200.6,469.6 200.7,468.5 200.9,470.7 201.1,469.1 201.3,469.1 201.4,470.5 201.6,467.1 201.8,470.0 202.0,467.4 202.1,466.0 202.3,470.7 202.5,467.8 202.7,469.8 202.8,470.1 203.0,469.8 203.2,469.6 203.4,471.4 203.5,470.0 203.7,471.5 203.9,470.5 204.1,471.4 204.2,471.5 204.4,468.8 204.6,468.4 204.8,472.8 205.0,469.9 205.1,468.7 205.3,470.7 205.5,471.4 205.7,469.1 205.8,471.8 206.0,470.3 206.2,467.9 206.4,469.9 206.5,467.7 206.7,469.2 206.9,470.4 207.1,474.6 207.2,466.9 207.4,472.3 207.6,468.4 207.8,468.4 207.9,467.2 208.1,471.2 208.3,472.6 208.5,469.3 208.6,471.3 208.8,472.6 209.0,472.7 209.2,473.6 209.4,473.9 209.5,475.2 209.7,470.7 209.9,471.2 210.1,468.8 210.2,468.2 210.4,471.3 210.6,473.5 210.8,469.2 210.9,470.9 211.1,472.5 211.3,470.0 211.5,470.2 211.6,476.3 211.8,472.8 212.0,475.0 212.2,474.6 212.3,472.3 212.5,475.4 212.7,469.6 212.9,473.6 213.0,470.2 213.2,471.8 213.4,471.6 213.6,471.6 213.8,470.4 213.9,472.4 214.1,472.8 214.3,471.4 214.5,471.1 214.6,469.5 214.8,470.1 215.0,471.0 215.2,471.5 215.3,474.4 215.5,472.0 215.7,472.5 215.9,476.4 216.0,474.7 216.2,472.9 216.4,475.2 216.6,472.3 216.7,472.0 216.9,476.0 217.1,474.9 217.3,470.7 217.4,475.4 217.6,471.9 217.8,470.5 218.0,474.0 218.2,473.8 218.3,473.5 218.5,473.2 218.7,473.3 218.9,472.3 219.0,473.5 219.2,474.9 219.4,474.9 219.6,473.0 219.7,472.5 219.9,472.1 220.1,474.5 220.3,475.3 220.4,474.4 220.6,470.1 220.8,475.3 221.0,476.5 221.1,474.3 221.3,471.7 221.5,474.7 221.7,475.1 221.9,472.3 222.0,471.1 222.2,471.7 222.4,472.1 222.6,474.4 222.7,475.2 222.9,473.4 223.1,474.5 223.3,475.8 223.4,473.3 223.6,474.4 223.8,469.7 224.0,474.0 224.1,476.2 224.3,475.6 224.5,475.3 224.7,475.7 224.8,474.4 225.0,472.8 225.2,475.3 225.4,474.2 225.5,474.0 225.7,472.1 225.9,476.1 226.1,475.8 226.3,474.6 226.4,474.5 226.6,474.0 226.8,473.4 227.0,474.6 227.1,471.6 227.3,475.8 227.5,475.5 227.7,476.5 227.8,476.7 228.0,475.7 228.2,476.2 228.4,477.8 228.5,475.1 228.7,476.3 228.9,473.5 229.1,475.8 229.2,477.2 229.4,476.8 229.6,475.1 229.8,476.2 229.9,474.9 230.1,475.4 230.3,476.8 230.5,474.4 230.7,477.6 230.8,476.5 231.0,476.3 231.2,476.9 231.4,480.0 231.5,476.1 231.7,477.5 231.9,479.3 232.1,477.9 232.2,477.1 232.4,478.1 232.6,478.9 232.8,480.3 232.9,475.3 233.1,474.8 233.3,478.2 233.5,476.1 233.6,474.6 233.8,477.0 234.0,477.9 234.2,477.3 234.3,478.0 234.5,477.9 234.7,474.7 234.9,476.0 235.1,475.2 235.2,477.3 235.4,478.0 235.6,477.3 235.8,477.3 235.9,479.6 236.1,478.0 236.3,476.3 236.5,474.4 236.6,475.8 236.8,476.2 237.0,480.6 237.2,479.0 237.3,476.7 237.5,479.6 237.7,477.4 237.9,478.6 238.0,477.0 238.2,482.0 238.4,473.5 238.6,475.5 238.7,482.7 238.9,478.3 239.1,477.4 239.3,472.5 239.5,476.1 239.6,476.6 239.8,477.1 240.0,478.4 240.2,475.4 240.3,480.6 240.5,479.7 240.7,474.6 240.9,478.2 241.0,480.6 241.2,481.8 241.4,481.3 241.6,476.7 241.7,478.9 241.9,479.0 242.1,477.0 242.3,479.4 242.4,479.9 242.6,480.8 242.8,475.8 243.0,479.5 243.2,477.6 243.3,478.7 243.5,479.1 243.7,480.9 243.9,479.5 244.0,478.2 244.2,480.7 244.4,475.8 244.6,476.8 244.7,478.9 244.9,479.3 245.1,478.0 245.3,478.9 245.4,476.4 245.6,478.7 245.8,478.9 246.0,478.2 246.1,480.7 246.3,479.7 246.5,476.5 246.7,480.6 246.8,480.9 247.0,478.2 247.2,481.6 247.4,478.7 247.6,479.7 247.7,479.0 247.9,478.1 248.1,476.1 248.3,475.6 248.4,480.0 248.6,480.1 248.8,478.3 249.0,480.1 249.1,480.1 249.3,479.8 249.5,479.0 249.7,481.2 249.8,478.8 250.0,478.7 250.2,479.8 250.4,481.2 250.5,484.6 250.7,478.1 250.9,474.5 251.1,480.4 251.2,483.6 251.4,481.4 251.6,478.1 251.8,481.5 252.0,482.3 252.1,478.9 252.3,477.8 252.5,482.1 252.7,480.2 252.8,481.0 253.0,477.9 253.2,480.2 253.4,479.9 253.5,480.7 253.7,481.2 253.9,480.0 254.1,482.7 254.2,480.6 254.4,482.5 254.6,479.3 254.8,480.4 254.9,482.8 255.1,481.7 255.3,481.6 255.5,479.7 255.6,484.2 255.8,480.3 256.0,480.0 256.2,478.6 256.4,479.7 256.5,482.1 256.7,480.3 256.9,482.0 257.1,481.2 257.2,483.7 257.4,483.8 257.6,480.6 257.8,481.5 257.9,480.9 258.1,480.2 258.3,481.1 258.5,479.9 258.6,481.6 258.8,483.4 259.0,481.5 259.2,481.2 259.3,479.9 259.5,482.7 259.7,481.2 259.9,482.8 260.1,480.9 260.2,481.7 260.4,478.3 260.6,483.9 260.8,479.2 260.9,482.7 261.1,484.9 261.3,481.6 261.5,478.7 261.6,481.6 261.8,481.0 262.0,483.5 262.2,478.1 262.3,482.1 262.5,479.0 262.7,479.3 262.9,480.5 263.0,484.4 263.2,482.1 263.4,484.3 263.6,481.5 263.7,478.5 263.9,482.5 264.1,482.8 264.3,485.8 264.5,481.7 264.6,479.4 264.8,480.6 265.0,480.6 265.2,480.2 265.3,482.5 265.5,481.6 265.7,483.3 265.9,481.9 266.0,481.9 266.2,483.3 266.4,482.0 266.6,482.3 266.7,483.2 266.9,482.9 267.1,481.9 267.3,484.1 267.4,485.9 267.6,484.5 267.8,483.9 268.0,483.4 268.1,482.9 268.3,481.2 268.5,481.0 268.7,481.3 268.9,483.5 269.0,484.0 269.2,482.0 269.4,482.4 269.6,483.2 269.7,481.7 269.9,483.9 270.1,485.3 270.3,482.4 270.4,482.8 270.6,479.9 270.8,484.6 271.0,481.3 271.1,484.6 271.3,481.0 271.5,482.0 271.7,482.1 271.8,482.5 272.0,485.0 272.2,484.5 272.4,480.0 272.5,480.6 272.7,483.8 272.9,480.5 273.1,484.2 273.3,483.1 273.4,482.3 273.6,485.9 273.8,483.8 274.0,484.4 274.1,483.5 274.3,482.5 274.5,482.2 274.7,486.3 274.8,482.9 275.0,482.7 275.2,481.2 275.4,482.4 275.5,485.6 275.7,485.5 275.9,484.5 276.1,483.6 276.2,483.5 276.4,484.2 276.6,483.6 276.8,484.4 276.9,483.9 277.1,485.9 277.3,481.6 277.5,484.3 277.7,485.4 277.8,480.0 278.0,482.3 278.2,485.3 278.4,488.1 278.5,486.1 278.7,483.0 278.9,484.3 279.1,485.4 279.2,484.1 279.4,483.1 279.6,483.9 279.8,484.7 279.9,486.1 280.1,483.6 280.3,484.3 280.5,483.6 280.6,485.5 280.8,483.1 281.0,485.5 281.2,483.9 281.4,484.1 281.5,482.2 281.7,484.9 281.9,487.0 282.1,485.2 282.2,486.8 282.4,486.2 282.6,482.5 282.8,484.5 282.9,482.6 283.1,483.4 283.3,486.5 283.5,484.5 283.6,485.9 283.8,487.9 284.0,483.8 284.2,482.4 284.3,484.1 284.5,489.1 284.7,486.1 284.9,484.6 285.0,485.9 285.2,484.9 285.4,483.0 285.6,482.7 285.8,485.3 285.9,486.8 286.1,484.7 286.3,482.6 286.5,482.8 286.6,485.6 286.8,482.9 287.0,485.2 287.2,485.4 287.3,482.9 287.5,487.5 287.7,485.0 287.9,485.5 288.0,485.4 288.2,484.0 288.4,485.5 288.6,484.9 288.7,485.7 288.9,485.3 289.1,485.8 289.3,485.8 289.4,486.6 289.6,488.2 289.8,485.3 290.0,483.3 290.2,486.3 290.3,485.6 290.5,486.1 290.7,484.1 290.9,484.7 291.0,486.8 291.2,486.6 291.4,489.0 291.6,484.8 291.7,486.8 291.9,486.4 292.1,482.5 292.3,488.9 292.4,485.7 292.6,484.0 292.8,486.2 293.0,486.7 293.1,486.7 293.3,486.0 293.5,487.5 293.7,484.6 293.8,484.3 294.0,486.5 294.2,486.3 294.4,484.3 294.6,486.7 294.7,483.4 294.9,487.3 295.1,487.1 295.3,485.3 295.4,484.5 295.6,484.9 295.8,487.9 296.0,487.1 296.1,488.0 296.3,489.7 296.5,486.1 296.7,487.5 296.8,484.2 297.0,484.4 297.2,482.6 297.4,485.5 297.5,486.7 297.7,486.4 297.9,489.4 298.1,485.0 298.2,490.0 298.4,487.3 298.6,487.5 298.8,487.1 299.0,486.2 299.1,485.3 299.3,486.3 299.5,487.6 299.7,483.6 299.8,486.3 300.0,488.4 300.2,485.0 300.4,488.3 300.5,486.5 300.7,490.0 300.9,485.4 301.1,483.8 301.2,487.2 301.4,490.4 301.6,484.7 301.8,485.8 301.9,485.9 302.1,488.0 302.3,490.6 302.5,489.1 302.7,486.3 302.8,485.9 303.0,485.5 303.2,489.3 303.4,491.6 303.5,484.6 303.7,487.1 303.9,486.2 304.1,487.5 304.2,485.9 304.4,488.4 304.6,485.5 304.8,488.8 304.9,486.2 305.1,490.9 305.3,489.2 305.5,488.5 305.6,486.6 305.8,490.2 306.0,484.4 306.2,486.3 306.3,484.5 306.5,487.3 306.7,486.9 306.9,488.0 307.1,483.9 307.2,486.1 307.4,487.2 307.6,484.1 307.8,491.4 307.9,485.5 308.1,486.9 308.3,487.9 308.5,487.9 308.6,489.1 308.8,489.0 309.0,486.7 309.2,486.7 309.3,484.3 309.5,489.1 309.7,491.2 309.9,488.7 310.0,485.7 310.2,488.4 310.4,488.8 310.6,488.4 310.7,486.2 310.9,488.7 311.1,490.3 311.3,490.4 311.5,488.9 311.6,486.1 311.8,487.2 312.0,488.5 312.2,489.1 312.3,489.2 312.5,486.3 312.7,488.0 312.9,488.4 313.0,486.1 313.2,488.6 313.4,487.8 313.6,488.6 313.7,487.5 313.9,489.4 314.1,488.4 314.3,485.6 314.4,489.4 314.6,487.4 314.8,489.2 315.0,488.3 315.1,489.4 315.3,492.6 315.5,484.2 315.7,486.2 315.9,490.1 316.0,490.9 316.2,488.4 316.4,492.1 316.6,488.5 316.7,485.7 316.9,490.7 317.1,487.7 317.3,488.3 317.4,487.9 317.6,486.5 317.8,487.2 318.0,493.2 318.1,490.3 318.3,489.5 318.5,492.4 318.7,487.0 318.8,490.0 319.0,489.5 319.2,488.4 319.4,489.5 319.5,493.0 319.7,490.7 319.9,489.0 320.1,488.3 320.3,491.7 320.4,489.1 320.6,490.4 320.8,486.5 321.0,487.9 321.1,487.8 321.3,488.3 321.5,487.4 321.7,488.4 321.8,489.8 322.0,487.6 322.2,488.1 322.4,485.4 322.5,487.4 322.7,487.6 322.9,488.4 323.1,493.4 323.2,488.5 323.4,490.2 323.6,487.0 323.8,489.7 324.0,486.9 324.1,487.7 324.3,489.3 324.5,489.6 324.7,490.3 324.8,492.4 325.0,492.6 325.2,487.8 325.4,489.1 325.5,487.0 325.7,487.4 325.9,486.8 326.1,489.3 326.2,489.6 326.4,487.6 326.6,490.9 326.8,488.7 326.9,488.8 327.1,489.4 327.3,489.5 327.5,486.1 327.6,488.8 327.8,488.9 328.0,488.9 328.2,488.5 328.4,488.0 328.5,491.9 328.7,489.3 328.9,490.2 329.1,491.7 329.2,488.0 329.4,488.2 329.6,490.5 329.8,487.3 329.9,488.7 330.1,493.0 330.3,487.7 330.5,487.7 330.6,489.3 330.8,488.9 331.0,495.5 331.2,489.2 331.3,487.9 331.5,487.4 331.7,490.7 331.9,491.7 332.0,489.1 332.2,492.5 332.4,488.6 332.6,490.6 332.8,492.4 332.9,487.1 333.1,491.1 333.3,489.6 333.5,488.6 333.6,489.8 333.8,485.2 334.0,489.2 334.2,489.1 334.3,492.7 334.5,489.5 334.7,491.0 334.9,488.2 335.0,489.8 335.2,489.7 335.4,490.0 335.6,489.2 335.7,491.0 335.9,489.5 336.1,487.6 336.3,494.2 336.4,491.6 336.6,489.4 336.8,485.6 337.0,485.2 337.2,492.3 337.3,491.6 337.5,486.0 337.7,489.3 337.9,491.7 338.0,494.2 338.2,489.4 338.4,490.9 338.6,491.9 338.7,490.8 338.9,491.4 339.1,490.5 339.3,492.2 339.4,491.3 339.6,490.5 339.8,491.7 340.0,488.4 340.1,494.1 340.3,493.2 340.5,491.5 340.7,487.6 340.9,494.2 341.0,490.8 341.2,495.7 341.4,489.7 341.6,487.9 341.7,492.3 341.9,492.1 342.1,491.1 342.3,490.0 342.4,489.8 342.6,490.7 342.8,494.8 343.0,491.8 343.1,487.1 343.3,490.1 343.5,492.9 343.7,491.4 343.8,494.5 344.0,488.8 344.2,494.0 344.4,493.9 344.5,491.2 344.7,489.7 344.9,492.6 345.1,491.2 345.3,490.4 345.4,490.7 345.6,492.9 345.8,490.8 346.0,490.2 346.1,494.9 346.3,490.5 346.5,492.1 346.7,491.3 346.8,491.0 347.0,492.7 347.2,498.0 347.4,490.0 347.5,491.2 347.7,491.7 347.9,493.7 348.1,493.4 348.2,492.4 348.4,490.9 348.6,493.3 348.8,492.2 348.9,490.1 349.1,490.5 349.3,489.5 349.5,492.0 349.7,492.5 349.8,494.5 350.0,490.9 350.2,488.4 350.4,490.3 350.5,491.1 350.7,491.9 350.9,495.6 351.1,492.3 351.2,490.7 351.4,492.6 351.6,493.0 351.8,491.2 351.9,492.5 352.1,490.8 352.3,490.5 352.5,490.5 352.6,489.9 352.8,492.2 353.0,490.8 353.2,490.9 353.3,490.5 353.5,493.6 353.7,491.6 353.9,488.9 354.1,490.4 354.2,489.2 354.4,491.9 354.6,491.9 354.8,488.7 354.9,492.1 355.1,492.8 355.3,491.3 355.5,492.3 355.6,492.6 355.8,496.3 356.0,492.2 356.2,487.3 356.3,496.5 356.5,491.7 356.7,490.8 356.9,490.9 357.0,493.1 357.2,492.7 357.4,495.8 357.6,489.6 357.7,489.2 357.9,495.2 358.1,490.8 358.3,492.6 358.5,491.7 358.6,489.8 358.8,490.0 359.0,491.4 359.2,492.5 359.3,491.3 359.5,494.8 359.7,493.6 359.9,491.4 360.0,491.5 360.2,489.9 360.4,493.1 360.6,493.6 360.7,495.0 360.9,494.5 361.1,493.3 361.3,493.2 361.4,491.3 361.6,494.1 361.8,491.7 362.0,490.9 362.2,493.2 362.3,492.4 362.5,494.8 362.7,492.7 362.9,493.2 363.0,493.9 363.2,491.7 363.4,490.1 363.6,491.5 363.7,493.6 363.9,490.0 364.1,492.9 364.3,492.8 364.4,493.7 364.6,496.1 364.8,495.2 365.0,493.0 365.1,494.4 365.3,493.5 365.5,492.1 365.7,496.4 365.8,493.5 366.0,491.2 366.2,493.7 366.4,493.0 366.6,493.8 366.7,494.0 366.9,493.4 367.1,492.6 367.3,491.4 367.4,493.8 367.6,492.3 367.8,496.3 368.0,494.3 368.1,492.5 368.3,492.4 368.5,491.1 368.7,495.0 368.8,491.8 369.0,493.8 369.2,490.7 369.4,497.3 369.5,492.9 369.7,493.5 369.9,491.5 370.1,495.9 370.2,494.2 370.4,494.6 370.6,493.5 370.8,496.3 371.0,493.4 371.1,494.3 371.3,491.3 371.5,492.0 371.7,496.3 371.8,496.2 372.0,491.2 372.2,494.6 372.4,492.9 372.5,494.1 372.7,494.3 372.9,493.7 373.1,493.0 373.2,493.4 373.4,494.0 373.6,491.0 373.8,495.6 373.9,495.1 374.1,495.5 374.3,490.5 374.5,497.3 374.6,493.3 374.8,492.2 375.0,493.9 375.2,494.3 375.4,494.2 375.5,494.6 375.7,494.9 375.9,493.3 376.1,492.5 376.2,493.6 376.4,496.2 376.6,492.9 376.8,489.6 376.9,495.2 377.1,492.9 377.3,494.5 377.5,494.2 377.6,491.7 377.8,493.4 378.0,496.3 378.2,497.1 378.3,493.1 378.5,495.9 378.7,494.1 378.9,498.0 379.0,492.5 379.2,493.8 379.4,495.5 379.6,493.5 379.8,494.8 379.9,491.4 380.1,497.5 380.3,493.7 380.5,492.4 380.6,494.7 380.8,494.2 381.0,494.2 381.2,492.3 381.3,491.2 381.5,491.0 381.7,495.4 381.9,491.5 382.0,494.6 382.2,494.1 382.4,491.6 382.6,495.7 382.7,493.6 382.9,491.9 383.1,494.2 383.3,497.2 383.5,492.3 383.6,493.3 383.8,495.8 384.0,496.1 384.2,497.2 384.3,495.2 384.5,493.8 384.7,492.9 384.9,496.5 385.0,492.8 385.2,498.7 385.4,494.3 385.6,495.2 385.7,493.2 385.9,493.2 386.1,494.5 386.3,493.0 386.4,493.4 386.6,492.5 386.8,494.2 387.0,495.2 387.1,491.6 387.3,495.2 387.5,495.5 387.7,494.6 387.9,497.2 388.0,498.2 388.2,492.2 388.4,494.4 388.6,493.7 388.7,494.5 388.9,494.4 389.1,495.2 389.3,494.3 389.4,497.6 389.6,496.8 389.8,494.1 390.0,493.9 390.1,492.8 390.3,495.6 390.5,493.9 390.7,493.2 390.8,495.6 391.0,498.1 391.2,495.1 391.4,492.8 391.5,494.9 391.7,492.7 391.9,495.7 392.1,494.8 392.3,493.3 392.4,496.0 392.6,498.2 392.8,495.3 393.0,494.8 393.1,494.6 393.3,496.9 393.5,493.6 393.7,495.0 393.8,496.4 394.0,497.5 394.2,494.0 394.4,496.0 394.5,499.0 394.7,495.6 394.9,493.7 395.1,493.7 395.2,494.9 395.4,495.8 395.6,494.2 395.8,498.0 395.9,495.3 396.1,497.4 396.3,497.6 396.5,495.7 396.7,493.4 396.8,493.5 397.0,494.0 397.2,495.7 397.4,494.6 397.5,491.7 397.7,497.3 397.9,494.0 398.1,493.8 398.2,499.5 398.4,492.7 398.6,496.5 398.8,495.4 398.9,494.0 399.1,496.3 399.3,492.0 399.5,494.7 399.6,499.6 399.8,495.0 400.0,494.3 400.2,492.8 400.4,494.4 400.5,493.8 400.7,498.8 400.9,493.8 401.1,497.9 401.2,493.5 401.4,494.6 401.6,493.0 401.8,497.6 401.9,497.9 402.1,495.4 402.3,493.5 402.5,500.5 402.6,497.2 402.8,494.3 403.0,494.7 403.2,495.0 403.3,493.0 403.5,495.6 403.7,494.4 403.9,494.7 404.0,495.4 404.2,499.1 404.4,499.2 404.6,496.7 404.8,497.3 404.9,496.6 405.1,499.8 405.3,497.3 405.5,497.0 405.6,499.2 405.8,496.2 406.0,498.5 406.2,495.5 406.3,496.9 406.5,497.8 406.7,495.5 406.9,494.9 407.0,496.3 407.2,495.4 407.4,493.7 407.6,498.4 407.7,495.8 407.9,495.5 408.1,498.6 408.3,498.5 408.4,495.9 408.6,497.5 408.8,497.5 409.0,498.8 409.2,496.6 409.3,497.0 409.5,494.5 409.7,497.8 409.9,498.4 410.0,495.5 410.2,496.4 410.4,497.2 410.6,497.3 410.7,491.8 410.9,495.8 411.1,495.6 411.3,495.3 411.4,496.8 411.6,499.5 411.8,498.6 412.0,495.3 412.1,497.2 412.3,495.0 412.5,497.6 412.7,497.7 412.8,498.2 413.0,496.7 413.2,500.5 413.4,498.4 413.6,500.5 413.7,500.2 413.9,496.4 414.1,496.0 414.3,495.0 414.4,497.9 414.6,495.4 414.8,499.9 415.0,497.8 415.1,493.3 415.3,497.0 415.5,497.7 415.7,499.2 415.8,494.1 416.0,495.8 416.2,495.2 416.4,499.5 416.5,498.9 416.7,496.3 416.9,496.6 417.1,497.7 417.2,495.9 417.4,496.9 417.6,493.8 417.8,494.7 418.0,494.1 418.1,496.3 418.3,493.6 418.5,497.0 418.7,498.7 418.8,494.0 419.0,497.8 419.2,495.5 419.4,498.7 419.5,497.9 419.7,498.7 419.9,498.7 420.1,499.2 420.2,499.6 420.4,498.3 420.6,496.2 420.8,497.6 420.9,497.1 421.1,497.0 421.3,499.7 421.5,497.0 421.7,498.1 421.8,496.0 422.0,500.0 422.2,496.7 422.4,497.4 422.5,497.3 422.7,501.5 422.9,500.0 423.1,498.1 423.2,497.7 423.4,497.0 423.6,498.0 423.8,497.0 423.9,496.7 424.1,496.0 424.3,498.3 424.5,496.1 424.6,494.9 424.8,496.4 425.0,497.7 425.2,499.0 425.3,498.2 425.5,498.8 425.7,497.0 425.9,501.4 426.1,497.7 426.2,496.3 426.4,494.4 426.6,498.3 426.8,500.5 426.9,498.7 427.1,497.8 427.3,498.1 427.5,498.0 427.6,497.1 427.8,497.1 428.0,496.0 428.2,499.8 428.3,497.1 428.5,499.0 428.7,500.6 428.9,498.2 429.0,497.8 429.2,498.9 429.4,499.0 429.6,498.0 429.7,495.9 429.9,497.9 430.1,497.3 430.3,498.8 430.5,494.6 430.6,500.0 430.8,497.2 431.0,499.4 431.2,494.0 431.3,495.6 431.5,496.8 431.7,498.8 431.9,498.7 432.0,498.3 432.2,498.4 432.4,498.0 432.6,497.4 432.7,496.9 432.9,496.5 433.1,495.5 433.3,497.5 433.4,498.5 433.6,499.9 433.8,498.4 434.0,501.4 434.1,498.3 434.3,495.3 434.5,498.3 434.7,496.7 434.9,500.3 435.0,500.2 435.2,498.1 435.4,496.4 435.6,497.3 435.7,497.7 435.9,496.0 436.1,495.5 436.3,494.7 436.4,494.9 436.6,498.8 436.8,498.3 437.0,497.7 437.1,499.4 437.3,498.1 437.5,499.1 437.7,497.1 437.8,499.7 438.0,497.0 438.2,498.9 438.4,497.3 438.5,495.8 438.7,497.8 438.9,493.3 439.1,499.1 439.3,496.8 439.4,500.4 439.6,499.4 439.8,497.7 440.0,498.9 440.1,497.4 440.3,498.4 440.5,498.9 440.7,495.8 440.8,500.3 441.0,498.7 441.2,500.0 441.4,495.9 441.5,497.9 441.7,497.2 441.9,500.2 442.1,494.5 442.2,497.8 442.4,499.2 442.6,500.9 442.8,498.8 443.0,499.2 443.1,500.5 443.3,496.8 443.5,503.1 443.7,500.6 443.8,496.9 444.0,495.3 444.2,495.9 444.4,500.7 444.5,499.3 444.7,496.9 444.9,499.7 445.1,500.0 445.2,497.4 445.4,499.9 445.6,502.6 445.8,498.2 445.9,500.8 446.1,498.6 446.3,497.8 446.5,499.8 446.6,498.5 446.8,500.0 447.0,498.2 447.2,499.6 447.4,503.0 447.5,499.7 447.7,498.2 447.9,499.3 448.1,500.6 448.2,499.9 448.4,498.8 448.6,497.7 448.8,497.3 448.9,498.3 449.1,497.0 449.3,495.5 449.5,500.8 449.6,495.5 449.8,500.7 450.0,502.1 450.2,499.2 450.3,497.5 450.5,498.8 450.7,499.7 450.9,500.9 451.0,500.5 451.2,495.1 451.4,496.6 451.6,496.0 451.8,500.7 451.9,497.0 452.1,501.5 452.3,495.7 452.5,500.1 452.6,502.1 452.8,499.8 453.0,498.7 453.2,500.7 453.3,500.4 453.5,498.5 453.7,496.8 453.9,496.8 454.0,496.6 454.2,500.1 454.4,499.5 454.6,497.6 454.7,496.2 454.9,499.6 455.1,497.8 455.3,499.1 455.4,499.7 455.6,502.6 455.8,499.1 456.0,500.8 456.2,497.7 456.3,499.1 456.5,500.8 456.7,498.6 456.9,500.4 457.0,500.9 457.2,501.1 457.4,497.4 457.6,498.1 457.7,500.0 457.9,496.7 458.1,499.4 458.3,496.1 458.4,498.9 458.6,496.6 458.8,500.8 459.0,503.7 459.1,499.9 459.3,500.0 459.5,495.7 459.7,498.4 459.8,499.6 460.0,499.6 460.2,500.3 460.4,497.0 460.6,502.5 460.7,498.3 460.9,496.1 461.1,496.6 461.3,501.0 461.4,498.6 461.6,500.2 461.8,497.7 462.0,500.0 462.1,496.7 462.3,498.5 462.5,497.1 462.7,498.4 462.8,501.6 463.0,502.0 463.2,499.0 463.4,497.8 463.5,500.1 463.7,497.4 463.9,499.6 464.1,499.4 464.3,497.7 464.4,499.1 464.6,502.7 464.8,499.1 465.0,501.1 465.1,501.7 465.3,499.4 465.5,496.8 465.7,502.2 465.8,500.8 466.0,497.8 466.2,496.7 466.4,501.3 466.5,501.0 466.7,498.0 466.9,499.6 467.1,499.9 467.2,500.8 467.4,499.4 467.6,501.9 467.8,498.8 467.9,496.1 468.1,498.4 468.3,501.9 468.5,499.9 468.7,500.2 468.8,499.1 469.0,500.2 469.2,501.3 469.4,502.2 469.5,500.2 469.7,501.1 469.9,502.8 470.1,501.6 470.2,498.7 470.4,502.1 470.6,501.4 470.8,501.3 470.9,497.9 471.1,499.7 471.3,502.0 471.5,498.0 471.6,500.4 471.8,500.3 472.0,500.7 472.2,498.6 472.3,502.1 472.5,501.1 472.7,500.3 472.9,502.0 473.1,501.1 473.2,498.5 473.4,499.5 473.6,505.2 473.8,503.9 473.9,501.5 474.1,499.2 474.3,500.7 474.5,498.9 474.6,498.8 474.8,497.9 475.0,500.4 475.2,500.3 475.3,499.9 475.5,498.6 475.7,499.7 475.9,500.2 476.0,500.6 476.2,500.3 476.4,499.6 476.6,502.9 476.7,499.5 476.9,498.6 477.1,500.2 477.3,502.4 477.5,502.9 477.6,500.9 477.8,500.2 478.0,501.6 478.2,499.1 478.3,499.2 478.5,496.9 478.7,502.1 478.9,500.2 479.0,504.1 479.2,496.6 479.4,500.7 479.6,503.4 479.7,502.5 479.9,499.4 480.1,500.1 480.3,499.6 480.4,499.4 480.6,500.1 480.8,500.7 481.0,506.5 481.2,500.9 481.3,504.5 481.5,500.9 481.7,499.7 481.9,502.2 482.0,502.2 482.2,499.6 482.4,503.5 482.6,500.5 482.7,499.6 482.9,501.4 483.1,500.8 483.3,502.4 483.4,498.8 483.6,497.2 483.8,500.6 484.0,501.3 484.1,499.6 484.3,501.3 484.5,500.1 484.7,502.3 484.8,500.2 485.0,498.5 485.2,497.5 485.4,499.5 485.6,503.6 485.7,502.2 485.9,496.4 486.1,499.7 486.3,500.9 486.4,501.1 486.6,501.9 486.8,499.7 487.0,500.9 487.1,498.9 487.3,499.7 487.5,500.1 487.7,502.1 487.8,499.8 488.0,500.9 488.2,502.1 488.4,501.5 488.5,502.3 488.7,500.2 488.9,501.1 489.1,498.2 489.2,499.8 489.4,500.5 489.6,502.3 489.8,501.1 490.0,498.0 490.1,500.8 490.3,498.5 490.5,499.0 490.7,494.6 490.8,505.3 491.0,499.0 491.2,501.0 491.4,500.4 491.5,498.2 491.7,501.7 491.9,503.9 492.1,502.8 492.2,499.3 492.4,502.8 492.6,499.8 492.8,499.7 492.9,497.5 493.1,500.5 493.3,500.1 493.5,499.9 493.6,503.8 493.8,501.9 494.0,501.4 494.2,498.6 494.4,501.5 494.5,500.4 494.7,501.1 494.9,504.0 495.1,501.3 495.2,500.6 495.4,498.2 495.6,501.1 495.8,499.0 495.9,503.0 496.1,502.2 496.3,499.5 496.5,501.0 496.6,499.4 496.8,502.0 497.0,500.9 497.2,499.9 497.3,502.0 497.5,501.7 497.7,504.9 497.9,500.9 498.0,499.9 498.2,500.8 498.4,500.8 498.6,502.4 498.8,504.0 498.9,503.4 499.1,502.9 499.3,502.8 499.5,501.0 499.6,502.4 499.8,502.4 500.0,499.0 500.2,499.6 500.3,499.9 500.5,500.1 500.7,498.0 500.9,501.4 501.0,499.6 501.2,504.6 501.4,501.3 501.6,500.8 501.7,504.5 501.9,501.6 502.1,499.8 502.3,500.2 502.5,497.7 502.6,502.1 502.8,503.0 503.0,501.9 503.2,503.4 503.3,502.6 503.5,500.0 503.7,504.9 503.9,501.4 504.0,500.5 504.2,503.8 504.4,502.7 504.6,502.5 504.7,503.4 504.9,500.8 505.1,506.0 505.3,501.1 505.4,501.8 505.6,500.1 505.8,500.9 506.0,501.7 506.1,504.7 506.3,503.1 506.5,500.3 506.7,505.2 506.9,505.5 507.0,499.5 507.2,501.6 507.4,500.4 507.6,500.3 507.7,501.3 507.9,501.1 508.1,501.1 508.3,502.0 508.4,502.6 508.6,502.3 508.8,501.7 509.0,504.2 509.1,504.3 509.3,502.9 509.5,501.9 509.7,499.6 509.8,501.2 510.0,497.0 510.2,502.1 510.4,500.6 510.5,500.0 510.7,503.6 510.9,500.5 511.1,501.3 511.3,502.4 511.4,502.2 511.6,503.9 511.8,503.2 512.0,502.2 512.1,502.9 512.3,504.3 512.5,498.9 512.7,500.5 512.8,504.6 513.0,500.3 513.2,501.8 513.4,503.2 513.5,500.5 513.7,503.0 513.9,504.3 514.1,503.9 514.2,502.5 514.4,503.2 514.6,504.2 514.8,506.6 514.9,499.1 515.1,501.5 515.3,503.0 515.5,502.6 515.7,500.2 515.8,501.6 516.0,504.6 516.2,504.7 516.4,503.4 516.5,502.1 516.7,503.0 516.9,500.8 517.1,501.6 517.2,502.7 517.4,505.7 517.6,505.6 517.8,505.5 517.9,502.5 518.1,503.5 518.3,503.3 518.5,503.6 518.6,501.2 518.8,501.2 519.0,503.0 519.2,504.7 519.3,503.2 519.5,502.8 519.7,503.9 519.9,499.7 520.1,503.3 520.2,501.3 520.4,502.9 520.6,503.5 520.8,501.2 520.9,504.5 521.1,503.9 521.3,502.2 521.5,502.6 521.6,500.9 521.8,502.5 522.0,502.6 522.2,503.8 522.3,503.6 522.5,504.2 522.7,503.6 522.9,501.5 523.0,504.9 523.2,499.5 523.4,500.9 523.6,500.4 523.8,502.1 523.9,505.6 524.1,505.1 524.3,504.2 524.5,505.3 524.6,503.9 524.8,501.5 525.0,504.6 525.2,499.4 525.3,503.8 525.5,502.6 525.7,505.5 525.9,500.3 526.0,509.2 526.2,504.3 526.4,506.9 526.6,502.5 526.7,505.0 526.9,506.1 527.1,504.7 527.3,501.9 527.4,502.1 527.6,502.6 527.8,503.9 528.0,502.9 528.2,501.8 528.3,502.5 528.5,506.5 528.7,502.5 528.9,504.0 529.0,503.5 529.2,500.8 529.4,501.5 529.6,501.0 529.7,503.4 529.9,503.3 530.1,500.8 530.3,504.0 530.4,503.2 530.6,502.4 530.8,504.4 531.0,504.9 531.1,504.1 531.3,501.3 531.5,504.0 531.7,501.8 531.8,500.1 532.0,502.3 532.2,503.7 532.4,502.0 532.6,504.1 532.7,500.4 532.9,500.2 533.1,502.9 533.3,500.5 533.4,503.0 533.6,498.9 533.8,502.7 534.0,503.2 534.1,503.2 534.3,502.6 534.5,507.8 534.7,505.3 534.8,504.8 535.0,505.2 535.2,500.4 535.4,500.2 535.5,502.5 535.7,507.7 535.9,503.4 536.1,500.8 536.2,501.7 536.4,504.7 536.6,502.1 536.8,503.6 537.0,506.1 537.1,507.1 537.3,506.4 537.5,503.3 537.7,504.5 537.8,504.5 538.0,503.7 538.2,503.5 538.4,504.3 538.5,502.2 538.7,507.0 538.9,501.0 539.1,501.0 539.2,506.2 539.4,504.5 539.6,503.5 539.8,503.7 539.9,505.4 540.1,505.6 540.3,506.7 540.5,503.8 540.7,503.4 540.8,502.9 541.0,503.0 541.2,501.9 541.4,505.3 541.5,503.9 541.7,500.5 541.9,503.8 542.1,501.4 542.2,504.0 542.4,501.2 542.6,504.5 542.8,505.3 542.9,502.4 543.1,504.3 543.3,503.7 543.5,505.7 543.6,503.9 543.8,502.2 544.0,500.4 544.2,503.5 544.3,504.0 544.5,502.8 544.7,506.5 544.9,506.1 545.1,507.5 545.2,504.8 545.4,502.2 545.6,505.3 545.8,500.8 545.9,503.1 546.1,506.3 546.3,505.8 546.5,504.0 546.6,501.3 546.8,503.5 547.0,503.8 547.2,502.4 547.3,504.2 547.5,504.5 547.7,502.9 547.9,502.4 548.0,504.7 548.2,503.7 548.4,501.1 548.6,504.7 548.7,502.3 548.9,505.9 549.1,501.6 549.3,504.9 549.5,503.5 549.6,503.9 549.8,504.5 550.0,504.4 550.2,504.8 550.3,503.2 550.5,506.7 550.7,501.3 550.9,505.0 551.0,502.7 551.2,506.1 551.4,506.6 551.6,504.3 551.7,503.2 551.9,501.4 552.1,506.6 552.3,506.5 552.4,507.3 552.6,507.7 552.8,503.8 553.0,504.5 553.1,502.9 553.3,503.5 553.5,500.9 553.7,506.2 553.9,502.7 554.0,502.3 554.2,502.7 554.4,503.1 554.6,506.6 554.7,502.5 554.9,506.2 555.1,504.8 555.3,507.1 555.4,504.3 555.6,503.4 555.8,502.8 556.0,505.2 556.1,501.6 556.3,505.8 556.5,502.8 556.7,504.1 556.8,503.9 557.0,500.8 557.2,501.4 557.4,503.2 557.5,506.5 557.7,503.0 557.9,503.0 558.1,507.8 558.3,506.3 558.4,504.0 558.6,505.6 558.8,505.3 559.0,504.8 559.1,505.1 559.3,504.1 559.5,503.7 559.7,503.3 559.8,506.6 560.0,505.6 560.2,503.5 560.4,504.3 560.5,504.0 560.7,509.1 560.9,505.3 561.1,499.3 561.2,505.1 561.4,506.8 561.6,503.7 561.8,506.9 562.0,502.1 562.1,505.3 562.3,503.4 562.5,505.5 562.7,504.3 562.8,503.2 563.0,507.7 563.2,505.3 563.4,503.6 563.5,506.6 563.7,505.0 563.9,505.4 564.1,505.4 564.2,507.4 564.4,503.8 564.6,507.1 564.8,504.6 564.9,505.8 565.1,506.0 565.3,504.3 565.5,499.3 565.6,505.4 565.8,503.5 566.0,508.1 566.2,505.3 566.4,503.5 566.5,505.4 566.7,506.7 566.9,505.3 567.1,503.1 567.2,506.6 567.4,507.1 567.6,506.3 567.8,508.4 567.9,508.4 568.1,508.1 568.3,505.3 568.5,506.5 568.6,504.7 568.8,507.4 569.0,504.5 569.2,504.9 569.3,505.1 569.5,503.7 569.7,506.5 569.9,505.9 570.0,505.5 570.2,504.9 570.4,505.4 570.6,506.8 570.8,505.8 570.9,502.6 571.1,503.8 571.3,501.7 571.5,506.0 571.6,507.8 571.8,503.4 572.0,506.8 572.2,505.3 572.3,509.8 572.5,505.3 572.7,504.4 572.9,507.5 573.0,504.7 573.2,506.6 573.4,503.8 573.6,506.3 573.7,504.4 573.9,505.0 574.1,508.8 574.3,505.3 574.4,505.3 574.6,506.2 574.8,507.2 575.0,504.7 575.2,506.2 575.3,503.7 575.5,506.6 575.7,505.8 575.9,506.3 576.0,508.1 576.2,504.8 576.4,505.5 576.6,508.3 576.7,506.1 576.9,504.6 577.1,505.9 577.3,506.3 577.4,505.3 577.6,508.1 577.8,504.8 578.0,504.4 578.1,508.0 578.3,505.4 578.5,508.6 578.7,506.9 578.8,505.1 579.0,505.0 579.2,508.1 579.4,505.0 579.6,504.2 579.7,504.9 579.9,507.1 580.1,507.7 580.3,505.8 580.4,507.5 580.6,505.8 580.8,505.3 581.0,508.3 581.1,505.8 581.3,505.7 581.5,507.8 581.7,504.5 581.8,508.0 582.0,505.9 582.2,506.8 582.4,506.2 582.5,503.5 582.7,507.3 582.9,506.1 583.1,506.6 583.3,506.5 583.4,507.2 583.6,504.8 583.8,503.7 584.0,508.1 584.1,504.7 584.3,504.4 584.5,505.1 584.7,504.1 584.8,502.6 585.0,505.2 585.2,506.7 585.4,508.1 585.5,507.1 585.7,507.8 585.9,505.5 586.1,504.9 586.2,505.1 586.4,505.9 586.6,508.0 586.8,505.8 586.9,506.0 587.1,508.1 587.3,506.6 587.5,506.5 587.7,505.7 587.8,505.1 588.0,503.8 588.2,505.0 588.4,506.2 588.5,504.6 588.7,506.0 588.9,502.2 589.1,504.8 589.2,508.4 589.4,506.1 589.6,505.7 589.8,503.2 589.9,506.9 590.1,505.2 590.3,504.0 590.5,506.5 590.6,508.7 590.8,506.8 591.0,506.9 591.2,508.1 591.3,506.2 591.5,507.7 591.7,506.7 591.9,504.6 592.1,503.9 592.2,505.9 592.4,507.7 592.6,503.8 592.8,507.6 592.9,507.0 593.1,509.6 593.3,505.8 593.5,504.8 593.6,506.8 593.8,507.8 594.0,505.7 594.2,505.1 594.3,510.9 594.5,505.1 594.7,507.1 594.9,503.9 595.0,506.3 595.2,506.4 595.4,502.1 595.6,504.7 595.7,506.8 595.9,506.7 596.1,505.5 596.3,507.1 596.5,510.2 596.6,505.1 596.8,507.2 597.0,507.2 597.2,506.3 597.3,504.9 597.5,506.9 597.7,506.4 597.9,507.2 598.0,508.0 598.2,505.8 598.4,506.7 598.6,506.4 598.7,504.7 598.9,507.1 599.1,506.0 599.3,507.3 599.4,505.0 599.6,505.0 599.8,505.8 600.0,507.8 600.2,506.1 600.3,505.6 600.5,503.9 600.7,504.1 600.9,506.6 601.0,506.0 601.2,505.2 601.4,508.7 601.6,508.0 601.7,506.6 601.9,507.3 602.1,505.3 602.3,504.4 602.4,508.3 602.6,507.9 602.8,506.5 603.0,506.0 603.1,505.9 603.3,504.1 603.5,509.2 603.7,509.0 603.8,508.6 604.0,507.0 604.2,504.7 604.4,508.7 604.6,507.6 604.7,508.1 604.9,507.0 605.1,509.3 605.3,508.2 605.4,510.4 605.6,504.5 605.8,506.7 606.0,508.1 606.1,508.7 606.3,508.1 606.5,506.3 606.7,505.6 606.8,506.8 607.0,505.1 607.2,508.2 607.4,505.7 607.5,507.5 607.7,508.7 607.9,506.8 608.1,510.5 608.2,506.4 608.4,507.4 608.6,505.2 608.8,509.4 609.0,506.7 609.1,507.1 609.3,505.9 609.5,503.6 609.7,508.7 609.8,503.9 610.0,506.8 610.2,508.4 610.4,509.5 610.5,506.6 610.7,506.8 610.9,509.0 611.1,507.3 611.2,509.1 611.4,505.3 611.6,509.3 611.8,510.8 611.9,511.8 612.1,502.6 612.3,506.9 612.5,508.5 612.6,507.0 612.8,505.9 613.0,509.4 613.2,507.3 613.4,508.7 613.5,505.4 613.7,506.9 613.9,506.2 614.1,506.0 614.2,507.6 614.4,506.1 614.6,508.7 614.8,506.0 614.9,505.9 615.1,507.6 615.3,504.1 615.5,507.9 615.6,507.3 615.8,508.3 616.0,509.1 616.2,506.9 616.3,510.1 616.5,508.1 616.7,507.9 616.9,506.5 617.0,509.8 617.2,506.4 617.4,507.5 617.6,510.6 617.8,507.0 617.9,506.6 618.1,504.1 618.3,509.9 618.5,509.1 618.6,504.1 618.8,507.5 619.0,507.5 619.2,506.1 619.3,508.8 619.5,506.5 619.7,507.4 619.9,507.2 620.0,507.5 620.2,505.9 620.4,508.6 620.6,505.0 620.7,507.8 620.9,507.9 621.1,505.1 621.3,508.9 621.5,509.4 621.6,507.0 621.8,505.6 622.0,507.9 622.2,509.6 622.3,505.0 622.5,510.2 622.7,505.7 622.9,505.2 623.0,507.0 623.2,507.9 623.4,505.8 623.6,509.3 623.7,509.5 623.9,507.9 624.1,508.0 624.3,509.5 624.4,507.7 624.6,507.9 624.8,506.4 625.0,509.7 625.1,508.4 625.3,507.3 625.5,507.7 625.7,509.8 625.9,507.4 626.0,505.6 626.2,511.2 626.4,507.1 626.6,509.3 626.7,506.3 626.9,506.5 627.1,505.3 627.3,506.0 627.4,509.8 627.6,506.9 627.8,506.8 628.0,506.5 628.1,506.4 628.3,510.0 628.5,509.4 628.7,510.4 628.8,507.9 629.0,507.0 629.2,505.8 629.4,507.4 629.5,507.5 629.7,508.5 629.9,507.4 630.1,506.8 630.3,507.9 630.4,511.1 630.6,509.4 630.8,506.7 631.0,506.3 631.1,507.5 631.3,508.4 631.5,507.7 631.7,507.7 631.8,510.1 632.0,505.1 632.2,509.6 632.4,508.1 632.5,510.2 632.7,508.1 632.9,504.6 633.1,507.1 633.2,507.3 633.4,512.8 633.6,508.0 633.8,509.4 633.9,508.0 634.1,510.5 634.3,508.2 634.5,506.1 634.7,507.6 634.8,506.8 635.0,510.8 635.2,511.5 635.4,507.2 635.5,509.2 635.7,507.6 635.9,508.3 636.1,509.0 636.2,504.9 636.4,510.0 636.6,508.6 636.8,510.3 636.9,509.1 637.1,511.5 637.3,510.3 637.5,511.9 637.6,506.1 637.8,509.5 638.0,509.7 638.2,507.8 638.3,508.4 638.5,510.4 638.7,508.5 638.9,508.4 639.1,509.1 639.2,507.7 639.4,509.3 639.6,504.1 639.8,507.1 639.9,504.1 640.1,507.9 640.3,508.3 640.5,509.9 640.6,512.0 640.8,510.4 641.0,509.1 641.2,507.1 641.3,509.6 641.5,508.8 641.7,506.4 641.9,509.4 642.0,506.5 642.2,512.5 642.4,508.7 642.6,508.5 642.8,509.7 642.9,508.3 643.1,512.4 643.3,508.5 643.5,510.4 643.6,506.3 643.8,509.8 644.0,510.3 644.2,505.3 644.3,506.1 644.5,507.2 644.7,510.3 644.9,511.6 645.0,509.0 645.2,504.1 645.4,508.8 645.6,509.2 645.7,510.6 645.9,507.9 646.1,507.9 646.3,510.7 646.4,507.8 646.6,509.9 646.8,512.1 647.0,505.9 647.2,509.0 647.3,509.5 647.5,507.0 647.7,506.2 647.9,507.9 648.0,509.2 648.2,511.4 648.4,510.4 648.6,506.6 648.7,508.4 648.9,508.8 649.1,510.7 649.3,508.0 649.4,505.1 649.6,507.6 649.8,508.6 650.0,509.2 650.1,506.8 650.3,509.7 650.5,508.2 650.7,506.5 650.8,506.8 651.0,508.0 651.2,505.5 651.4,504.8 651.6,511.5 651.7,508.0 651.9,507.2 652.1,510.0 652.3,506.5 652.4,508.5 652.6,505.8 652.8,509.3 653.0,509.0 653.1,509.1 653.3,512.1 653.5,510.9 653.7,506.5 653.8,509.8 654.0,511.6 654.2,509.8 654.4,510.3 654.5,508.6 654.7,512.7 654.9,508.3 655.1,509.0 655.2,509.9 655.4,508.7 655.6,509.6 655.8,511.8 656.0,507.8 656.1,509.8 656.3,510.4 656.5,507.5 656.7,507.7 656.8,507.1 657.0,507.3 657.2,508.2 657.4,508.2 657.5,510.4 657.7,510.5 657.9,508.4 658.1,507.2 658.2,509.3 658.4,510.0 658.6,508.4 658.8,505.9 658.9,509.2 659.1,508.6 659.3,506.6 659.5,507.2 659.6,504.6 659.8,507.5 660.0,512.0 660.2,509.9 660.4,508.3 660.5,511.2 660.7,507.5 660.9,504.8 661.1,506.2 661.2,511.3 661.4,508.9 661.6,510.7 661.8,510.7 661.9,508.4 662.1,510.1 662.3,511.1 662.5,510.6 662.6,508.1 662.8,509.7 663.0,507.1 663.2,510.2 663.3,509.5 663.5,510.2 663.7,509.8 663.9,509.4 664.1,509.0 664.2,511.1 664.4,509.3 664.6,507.9 664.8,507.4 664.9,508.2 665.1,510.1 665.3,511.5 665.5,510.0 665.6,511.2 665.8,506.6 666.0,509.6 666.2,507.7 666.3,510.9 666.5,509.8 666.7,512.1 666.9,509.7 667.0,508.3 667.2,510.2 667.4,509.7 667.6,510.7 667.7,509.2 667.9,509.1 668.1,509.2 668.3,511.3 668.5,509.4 668.6,507.7 668.8,509.9 669.0,510.4 669.2,508.7 669.3,507.6 669.5,511.6 669.7,512.6 669.9,510.4 670.0,512.7 670.2,509.7 670.4,508.8 670.6,508.7 670.7,509.0 670.9,506.2 671.1,508.7 671.3,507.9 671.4,509.7 671.6,510.2 671.8,510.6 672.0,511.2 672.1,511.7 672.3,509.8 672.5,511.8 672.7,509.8 672.9,510.5 673.0,505.4 673.2,510.1 673.4,508.2 673.6,509.6 673.7,511.1 673.9,514.1 674.1,508.3 674.3,507.6 674.4,508.4 674.6,508.1 674.8,511.0 675.0,508.1 675.1,508.6 675.3,511.9 675.5,510.9 675.7,512.9 675.8,511.2 676.0,510.6 676.2,509.4 676.4,508.1 676.5,511.3 676.7,508.0 676.9,508.4 677.1,510.3 677.3,509.2 677.4,507.7 677.6,509.3 677.8,509.1 678.0,511.7 678.1,514.4 678.3,507.7 678.5,512.4 678.7,511.0 678.8,511.9 679.0,507.2 679.2,509.1 679.4,506.7 679.5,509.3 679.7,508.2 679.9,510.2 680.1,510.9 680.2,510.1 680.4,512.0 680.6,509.1 680.8,508.0 681.0,507.0 681.1,507.1 681.3,509.8 681.5,506.7 681.7,511.4 681.8,513.0 682.0,509.7 682.2,512.1 682.4,509.0 682.5,513.0 682.7,508.2 682.9,513.0 683.1,508.0 683.2,511.0 683.4,513.7 683.6,508.5 683.8,512.5 683.9,509.3 684.1,509.6 684.3,507.2 684.5,507.5 684.6,513.7 684.8,510.3 685.0,507.7 685.2,512.6 685.4,508.2 685.5,508.3 685.7,512.0 685.9,512.0 686.1,509.1 686.2,511.0 686.4,514.4 686.6,508.1 686.8,512.5 686.9,509.4 687.1,509.6 687.3,511.4 687.5,507.5 687.6,512.7 687.8,509.6 688.0,511.6 688.2,509.2 688.3,512.2 688.5,514.1 688.7,511.8 688.9,513.2 689.0,512.0 689.2,509.7 689.4,510.9 689.6,508.6 689.8,507.7 689.9,508.9 690.1,512.9 690.3,510.3 690.5,508.7 690.6,508.7 690.8,512.6 691.0,510.4 691.2,513.7 691.3,511.1 691.5,513.8 691.7,508.5 691.9,510.0 692.0,510.9 692.2,512.2 692.4,507.9 692.6,512.8 692.7,506.1 692.9,511.3 693.1,512.2 693.3,509.0 693.4,512.8 693.6,511.1 693.8,510.5 694.0,514.4 694.2,513.3 694.3,513.6 694.5,510.2 694.7,509.5 694.9,513.1 695.0,509.2 695.2,510.8 695.4,512.9 695.6,510.4 695.7,511.8 695.9,513.1 696.1,513.8 696.3,513.2 696.4,510.6 696.6,508.7 696.8,510.9 697.0,508.9 697.1,511.3 697.3,511.4 697.5,512.1 697.7,511.2 697.8,510.4 698.0,511.4 698.2,512.5 698.4,511.7 698.6,510.2 698.7,510.6 698.9,511.0 699.1,511.3 699.3,508.0 699.4,510.4 699.6,510.5 699.8,514.6 700.0,510.7 700.1,510.4 700.3,510.2 700.5,510.6 700.7,512.3 700.8,510.1 701.0,510.4 701.2,513.0 701.4,510.0 701.5,511.6 701.7,512.6 701.9,506.0 702.1,510.4 702.3,508.8 702.4,510.6 702.6,508.6 702.8,511.5 703.0,510.9 703.1,508.0 703.3,511.9 703.5,509.1 703.7,511.8 703.8,510.0 704.0,510.7 704.2,510.1 704.4,513.7 704.5,513.4 704.7,507.4 704.9,513.2 705.1,509.5 705.2,510.6 705.4,511.9 705.6,513.4 705.8,513.4 705.9,510.6 706.1,510.7 706.3,511.0 706.5,508.6 706.7,508.9 706.8,511.8 707.0,513.2 707.2,509.6 707.4,507.5 707.5,514.5 707.7,514.1 707.9,513.8 708.1,511.1 708.2,514.9 708.4,511.2 708.6,511.7 708.8,511.3 708.9,509.9 709.1,508.8 709.3,511.0 709.5,511.8 709.6,511.4 709.8,511.2 710.0,510.0 710.2,511.6 710.3,507.3 710.5,511.0 710.7,508.3 710.9,509.0 711.1,513.3 711.2,512.6 711.4,512.0 711.6,511.0 711.8,509.2 711.9,510.0 712.1,510.3 712.3,515.6 712.5,511.3 712.6,513.3 712.8,508.8 713.0,514.5 713.2,509.7 713.3,514.6 713.5,511.4 713.7,509.2 713.9,508.8 714.0,509.9 714.2,512.8 714.4,509.8 714.6,514.0 714.7,508.8 714.9,509.3 715.1,509.3 715.3,509.4 715.5,511.1 715.6,512.5 715.8,511.5 716.0,511.0 716.2,512.6 716.3,511.6 716.5,508.2 716.7,511.0 716.9,512.8 717.0,514.4 717.2,510.0 717.4,510.9 717.6,509.5 717.7,512.9 717.9,508.0 718.1,512.1 718.3,510.8 718.4,511.3 718.6,513.9 718.8,512.5 719.0,513.6 719.1,513.3 719.3,515.8 719.5,507.6 719.7,511.8 719.9,514.1 720.0,514.0 720.2,510.1 720.4,508.8 720.6,512.5 720.7,515.1 720.9,509.2 721.1,511.3 721.3,510.6 721.4,510.5 721.6,511.3 721.8,513.4 722.0,508.1 722.1,511.5 722.3,509.6 722.5,514.1 722.7,511.7 722.8,513.3 723.0,510.1 723.2,511.4 723.4,511.4 723.6,511.9 723.7,512.4 723.9,508.7 724.1,511.5 724.3,509.2 724.4,510.1 724.6,511.6 724.8,512.3 725.0,507.5 725.1,509.0 725.3,512.2 725.5,511.7 725.7,512.1 725.8,508.1 726.0,512.6 726.2,508.4 726.4,511.7 726.5,513.5 726.7,513.3 726.9,511.1 727.1,513.3 727.2,513.8 727.4,510.2 727.6,508.6 727.8,515.9 728.0,510.2 728.1,511.4 728.3,512.8 728.5,513.7 728.7,513.6 728.8,512.6 729.0,512.8 729.2,506.4 729.4,511.0 729.5,512.2 729.7,511.4 729.9,511.3 730.1,510.5 730.2,514.5 730.4,513.1 730.6,511.6 730.8,509.2 730.9,511.5 731.1,511.5 731.3,512.9 731.5,513.9 731.6,512.3 731.8,511.5 732.0,514.6 732.2,511.7 732.4,516.6 732.5,509.6 732.7,512.1 732.9,511.7 733.1,513.6 733.2,514.3 733.4,511.5 733.6,512.7 733.8,511.4 733.9,512.7 734.1,513.1 734.3,513.3 734.5,510.9 734.6,514.7 734.8,511.7 735.0,513.3 735.2,512.9 735.3,510.7 735.5,513.9 735.7,512.5 735.9,513.6 736.0,513.6 736.2,514.4 736.4,510.3 736.6,514.3 736.8,512.2 736.9,513.9 737.1,511.7 737.3,514.4 737.5,514.7 737.6,511.6 737.8,515.1 738.0,513.4 738.2,512.3 738.3,512.2 738.5,515.4 738.7,515.5 738.9,511.1 739.0,511.8 739.2,513.4 739.4,512.6 739.6,513.9 739.7,511.8 739.9,513.1 740.1,513.9 740.3,515.8 740.5,513.7 740.6,511.5 740.8,514.0 741.0,511.8 741.2,509.9 741.3,511.5 741.5,511.9 741.7,511.5 741.9,511.1 742.0,513.7 742.2,512.1 742.4,513.9 742.6,511.8 742.7,512.7 742.9,510.9 743.1,511.2 743.3,512.6 743.4,512.6 743.6,513.1 743.8,511.1 744.0,511.9 744.1,510.3 744.3,511.5 744.5,508.9 744.7,512.4 744.9,513.1 745.0,513.2 745.2,512.8 745.4,508.0 745.6,510.3 745.7,512.1 745.9,511.5 746.1,514.2 746.3,513.7 746.4,513.5 746.6,516.6 746.8,511.5 747.0,511.2 747.1,513.1 747.3,512.7 747.5,513.0 747.7,510.1 747.8,511.0 748.0,509.9 748.2,511.6 748.4,511.7 748.5,512.3 748.7,513.1 748.9,513.7 749.1,513.9 749.3,514.5 749.4,515.3 749.6,513.0 749.8,513.5 750.0,509.5 750.1,513.8 750.3,512.5 750.5,509.9 750.7,511.8 750.8,513.7 751.0,514.0 751.2,513.2 751.4,510.7 751.5,514.4 751.7,512.5 751.9,511.8 752.1,513.9 752.2,510.8 752.4,515.0 752.6,512.8 752.8,512.3 752.9,509.7 753.1,510.5 753.3,513.4 753.5,513.7 753.7,512.0 753.8,512.7 754.0,511.0 754.2,510.7 754.4,510.8 754.5,510.6 754.7,516.9 754.9,512.3 755.1,511.1 755.2,516.5 755.4,509.7 755.6,515.6 755.8,513.3 755.9,513.8 756.1,512.8 756.3,512.4 756.5,513.0 756.6,511.4 756.8,514.5 757.0,512.5 757.2,512.5 757.3,510.4 757.5,510.7 757.7,512.5 757.9,511.1 758.1,511.0 758.2,513.5 758.4,514.9 758.6,511.2 758.8,512.6 758.9,514.7 759.1,511.4 759.3,511.9 759.5,516.5 759.6,512.2 759.8,515.6 760.0,513.9 760.2,510.9 760.3,513.4 760.5,512.9 760.7,511.9 760.9,512.7 761.0,511.1 761.2,512.3 761.4,507.5 761.6,513.1 761.8,513.5 761.9,508.6 762.1,514.1 762.3,515.4 762.5,514.7 762.6,515.0 762.8,515.6 763.0,516.6 763.2,513.5 763.3,514.2 763.5,511.7 763.7,511.9 763.9,514.0 764.0,512.9 764.2,510.9 764.4,510.3 764.6,513.1 764.7,513.8 764.9,513.0 765.1,514.1 765.3,512.2 765.4,515.8 765.6,512.0 765.8,514.6 766.0,512.5 766.2,513.5 766.3,511.1 766.5,514.6 766.7,511.3 766.9,513.7 767.0,513.0 767.2,515.2 767.4,510.2 767.6,511.3 767.7,514.0 767.9,513.9 768.1,515.2 768.3,513.7 768.4,514.7 768.6,514.6 768.8,512.3 769.0,515.2 769.1,513.3 769.3,514.2 769.5,510.7 769.7,512.9 769.8,516.5 770.0,512.4 770.2,513.3 770.4,514.9 770.6,510.9 770.7,511.4 770.9,512.9 771.1,513.7 771.3,512.5 771.4,512.6 771.6,513.8 771.8,516.4 772.0,512.4 772.1,513.1 772.3,513.1 772.5,513.3 772.7,515.1 772.8,516.8 773.0,518.6 773.2,511.2 773.4,512.8 773.5,513.2 773.7,515.3 773.9,515.0 774.1,516.1 774.2,514.2 774.4,513.0 774.6,513.1 774.8,516.3 775.0,512.3 775.1,511.2 775.3,513.3 775.5,512.8 775.7,510.4 775.8,514.8 776.0,510.9 776.2,515.3 776.4,513.2 776.5,513.3 776.7,515.5 776.9,515.2 777.1,514.0 777.2,514.4 777.4,515.9 777.6,513.5 777.8,512.0 777.9,514.3 778.1,515.0 778.3,510.7 778.5,511.9 778.6,512.7 778.8,514.8 779.0,513.7 779.2,517.7 779.4,515.3 779.5,513.3 779.7,515.3 779.9,515.5 780.1,512.2 780.2,513.9 780.4,515.1 780.6,514.3 780.8,510.5 780.9,511.4 781.1,512.6 781.3,514.1 781.5,513.1 781.6,513.2 781.8,512.9 782.0,512.8 782.2,515.2 782.3,511.9 782.5,512.9 782.7,515.6 782.9,512.1 783.1,512.2 783.2,512.7 783.4,511.5 783.6,509.1 783.8,514.0 783.9,511.7 784.1,514.1 784.3,512.2 784.5,513.4 784.6,512.0 784.8,513.6 785.0,514.6 785.2,512.5 785.3,512.2 785.5,516.7 785.7,515.7 785.9,512.7 786.0,511.9 786.2,514.2 786.4,515.4 786.6,515.4 786.7,514.8 786.9,511.6 787.1,514.8 787.3,513.6 787.5,513.2 787.6,513.1 787.8,514.3 788.0,512.8 788.2,514.0 788.3,515.2 788.5,512.8 788.7,512.3 788.9,513.0 789.0,517.1 789.2,512.6 789.4,513.2 789.6,515.3 789.7,512.9 789.9,515.0 790.1,516.8 790.3,518.2 790.4,516.1 790.6,515.4 790.8,511.4 791.0,512.4 791.1,515.3 791.3,514.6 791.5,511.5 791.7,516.3 791.9,512.4 792.0,509.7 792.2,515.2 792.4,511.4 792.6,517.7 792.7,515.4 792.9,514.2 793.1,513.4 793.3,512.3 793.4,513.8 793.6,512.7 793.8,511.5 794.0,512.8 794.1,515.3 794.3,513.9 794.5,514.4 794.7,515.9 794.8,513.8 795.0,513.1 795.2,512.9 795.4,510.9 795.5,511.5 795.7,513.9 795.9,514.4 796.1,514.9 796.3,513.7 796.4,510.9 796.6,511.0 796.8,511.0 797.0,513.3 797.1,517.2 797.3,515.4 797.5,515.9 797.7,514.0 797.8,512.6 798.0,510.6 798.2,515.7 798.4,510.0 798.5,516.1 798.7,516.8 798.9,512.1 799.1,516.4 799.2,513.9 799.4,513.4 799.6,511.8 799.8,514.8 799.9,515.6 800.1,512.9 800.3,510.9 800.5,513.7 800.7,514.6 800.8,515.8 801.0,513.7 801.2,512.1 801.4,511.7 801.5,514.3 801.7,516.4 801.9,514.1 802.1,517.3 802.2,513.1 802.4,516.3 802.6,515.4 802.8,511.9 802.9,512.8 803.1,515.4 803.3,514.2 803.5,513.3 803.6,514.5 803.8,514.0 804.0,512.7 804.2,515.7 804.4,513.4 804.5,514.6 804.7,513.9 804.9,514.8 805.1,512.4 805.2,512.6 805.4,515.1 805.6,514.5 805.8,513.0 805.9,513.9 806.1,513.8 806.3,514.5 806.5,516.5 806.6,517.1 806.8,515.2 807.0,515.5 807.2,515.2 807.3,515.9 807.5,515.4 807.7,514.5 807.9,513.7 808.0,514.3 808.2,514.9 808.4,511.5 808.6,513.1 808.8,514.2 808.9,511.8 809.1,517.6 809.3,512.1 809.5,514.3 809.6,512.9 809.8,514.9 810.0,518.0 810.2,512.7 810.3,513.2 810.5,513.1 810.7,513.9 810.9,513.6 811.0,513.8 811.2,514.6 811.4,517.8 811.6,513.9 811.7,513.1 811.9,515.1 812.1,515.5 812.3,515.3 812.4,514.7 812.6,513.2 812.8,513.6 813.0,513.0 813.2,513.5 813.3,513.3 813.5,514.5 813.7,511.7 813.9,512.7 814.0,515.8 814.2,513.5 814.4,515.4 814.6,513.2 814.7,515.3 814.9,516.8 815.1,511.0 815.3,515.0 815.4,514.9 815.6,515.1 815.8,515.8 816.0,515.7 816.1,518.4 816.3,514.6 816.5,513.0 816.7,515.1 816.8,512.0 817.0,513.3 817.2,513.8 817.4,516.1 817.6,513.7 817.7,513.8 817.9,516.4 818.1,512.6 818.3,514.5 818.4,514.5 818.6,514.0 818.8,511.8 819.0,514.3 819.1,515.8 819.3,513.3 819.5,511.4 819.7,512.7 819.8,513.4 820.0,515.5 820.2,514.3 820.4,513.2 820.5,513.7 820.7,513.7 820.9,514.6 821.1,512.1 821.3,513.7 821.4,514.0 821.6,513.9 821.8,511.6 822.0,515.4 822.1,511.5 822.3,516.3 822.5,513.3 822.7,514.3 822.8,514.2 823.0,516.0 823.2,517.1 823.4,512.6 823.5,515.8 823.7,516.6 823.9,516.0 824.1,516.0 824.2,514.2 824.4,514.7 824.6,513.8 824.8,516.6 824.9,515.0 825.1,512.9 825.3,516.0 825.5,515.0 825.7,513.4 825.8,515.4 826.0,517.4 826.2,515.7 826.4,519.6 826.5,515.5 826.7,511.5 826.9,514.5 827.1,512.4 827.2,514.2 827.4,514.4 827.6,514.5 827.8,513.4 827.9,519.2 828.1,514.9 828.3,516.4 828.5,516.9 828.6,515.9 828.8,513.5 829.0,515.4 829.2,511.7 829.3,514.9 829.5,515.5 829.7,513.4 829.9,518.6 830.1,520.0 830.2,515.4 830.4,512.8 830.6,517.2 830.8,516.1 830.9,511.7 831.1,513.3 831.3,518.8 831.5,514.6 831.6,513.1 831.8,514.0 832.0,519.5 832.2,514.9 832.3,513.1 832.5,517.0 832.7,516.2 832.9,515.8 833.0,514.5 833.2,514.3 833.4,514.3 833.6,515.1 833.7,518.1 833.9,515.8 834.1,515.5 834.3,516.0 834.5,517.2 834.6,515.6 834.8,515.6 835.0,514.3 835.2,516.8 835.3,516.0 835.5,515.0 835.7,513.9 835.9,513.6 836.0,511.3 836.2,513.3 836.4,513.2 836.6,513.6 836.7,511.2 836.9,519.7 837.1,516.5 837.3,513.8 837.4,516.9 837.6,513.5 837.8,514.5 838.0,511.7 838.1,513.0 838.3,514.9 838.5,517.1 838.7,514.8 838.9,514.0 839.0,514.5 839.2,516.5 839.4,516.6 839.6,513.5 839.7,515.3 839.9,514.8 840.1,513.2 840.3,513.7 840.4,513.0 840.6,513.9 840.8,517.0 841.0,514.2 841.1,515.7 841.3,515.4 841.5,514.3 841.7,511.1 841.8,512.8 842.0,514.4 842.2,515.2 842.4,514.6 842.6,516.4 842.7,516.8 842.9,512.5 843.1,514.8 843.3,514.6 843.4,514.8 843.6,516.2 843.8,517.5 844.0,515.9 844.1,512.7 844.3,517.1 844.5,515.2 844.7,519.5 844.8,512.6 845.0,518.5 845.2,518.0 845.4,513.9 845.5,518.5 845.7,515.6 845.9,517.7 846.1,517.5 846.2,514.8 846.4,513.1 846.6,515.6 846.8,518.8 847.0,516.6 847.1,511.4 847.3,515.7 847.5,513.5 847.7,514.6 847.8,519.4 848.0,516.2 848.2,513.3 848.4,513.5 848.5,511.6 848.7,517.9 848.9,514.9 849.1,515.1 849.2,513.3 849.4,514.2 849.6,515.3 849.8,513.5 849.9,513.9 850.1,516.5 850.3,516.7 850.5,515.6 850.6,513.8 850.8,514.0 851.0,516.2 851.2,516.4 851.4,516.0 851.5,514.0 851.7,512.4 851.9,516.7 852.1,516.7 852.2,515.5 852.4,515.9 852.6,517.2 852.8,514.8 852.9,517.2 853.1,515.5 853.3,516.6 853.5,514.8 853.6,515.8 853.8,516.2 854.0,515.0 854.2,514.7 854.3,515.6 854.5,513.7 854.7,517.2 854.9,518.2 855.0,515.3 855.2,513.7 855.4,514.4 855.6,513.2 855.8,513.2 855.9,516.9 856.1,516.2 856.3,515.3 856.5,514.7 856.6,514.4 856.8,512.5 857.0,514.5 857.2,515.7 857.3,514.1 857.5,515.1 857.7,514.2 857.9,514.2 858.0,514.4 858.2,514.5 858.4,515.9 858.6,514.9 858.7,515.8 858.9,515.9 859.1,514.3 859.3,514.6 859.4,513.6 859.6,513.7 859.8,515.9 860.0,515.0 860.2,518.9 860.3,515.6 860.5,513.3 860.7,518.2 860.9,518.9 861.0,518.0 861.2,515.8 861.4,511.4 861.6,514.5 861.7,519.1 861.9,513.9 862.1,515.9 862.3,516.0 862.4,517.4 862.6,514.5 862.8,513.9 863.0,516.5 863.1,514.1 863.3,512.8 863.5,513.9 863.7,515.0 863.9,514.0 864.0,518.2 864.2,516.4 864.4,517.0 864.6,512.6 864.7,513.4 864.9,514.8 865.1,517.4 865.3,512.8 865.4,516.5 865.6,518.9 865.8,514.6 866.0,513.3 866.1,513.1 866.3,513.5 866.5,519.2 866.7,515.3 866.8,515.4 867.0,515.4 867.2,513.5 867.4,517.9 867.5,515.0 867.7,514.4 867.9,519.5 868.1,514.5 868.3,517.7 868.4,515.0 868.6,517.8 868.8,517.4 869.0,518.7 869.1,514.7 869.3,516.7 869.5,516.9 869.7,514.4 869.8,515.9 870.0,517.4 870.2,518.2 870.4,512.5 870.5,514.6 870.7,515.1 870.9,513.2 871.1,514.6 871.2,513.6 871.4,516.0 871.6,513.6 871.8,516.6 871.9,515.4 872.1,516.7 872.3,516.5 872.5,517.7 872.7,513.7 872.8,514.1 873.0,517.6 873.2,511.2 873.4,518.0 873.5,517.4 873.7,513.8 873.9,518.1 874.1,514.9 874.2,516.8 874.4,517.3 874.6,516.2 874.8,517.4 874.9,516.4 875.1,517.9 875.3,517.3 875.5,519.2 875.6,515.6 875.8,514.3 876.0,514.9 876.2,518.1 876.3,515.6 876.5,518.3 876.7,515.9 876.9,518.7 877.1,515.3 877.2,515.9 877.4,516.9 877.6,516.5 877.8,511.7 877.9,515.1 878.1,521.1 878.3,514.5 878.5,516.9 878.6,518.0 878.8,517.3 879.0,517.1 879.2,513.5 879.3,515.5 879.5,516.9 879.7,517.1 879.9,516.7 880.0,515.3 880.2,519.8 880.4,511.2 880.6,514.1 880.8,515.6 880.9,517.0 881.1,515.0 881.3,514.0 881.5,517.2 881.6,519.8 881.8,520.6 882.0,517.1 882.2,518.0 882.3,516.9 882.5,517.4 882.7,517.1 882.9,516.1 883.0,512.1 883.2,515.5 883.4,515.6 883.6,515.9 883.7,517.1 883.9,517.0 884.1,515.8 884.3,515.8 884.4,517.9 884.6,514.0 884.8,515.0 885.0,515.6 885.2,518.0 885.3,517.3 885.5,515.4 885.7,518.4 885.9,517.0 886.0,519.2 886.2,515.8 886.4,516.8 886.6,513.8 886.7,519.9 886.9,515.1 887.1,516.1 887.3,514.7 887.4,513.4 887.6,518.2 887.8,517.2 888.0,515.9 888.1,515.2 888.3,513.8 888.5,515.3 888.7,516.0 888.8,514.0 889.0,518.3 889.2,517.1 889.4,514.7 889.6,513.2 889.7,520.1 889.9,517.6 890.1,513.4 890.3,515.9 890.4,516.3 890.6,516.8 890.8,519.1 891.0,519.0 891.1,512.7 891.3,517.8 891.5,516.7 891.7,518.3 891.8,518.5 892.0,513.6 892.2,515.3 892.4,513.2 892.5,514.4 892.7,513.8 892.9,517.1 893.1,514.1 893.2,516.9 893.4,515.2 893.6,516.8 893.8,514.6 894.0,518.7 894.1,519.4 894.3,515.2 894.5,514.3 894.7,514.6 894.8,520.5 895.0,517.4 895.2,516.7 895.4,517.1 895.5,517.2 895.7,518.5 895.9,516.3 896.1,517.0 896.2,518.2 896.4,515.4 896.6,515.7 896.8,513.5 896.9,515.3 897.1,515.0 897.3,515.4 897.5,516.8 897.6,518.2 897.8,517.1 898.0,516.2 898.2,516.8 898.4,511.4 898.5,513.1 898.7,519.8 898.9,515.6 899.1,513.6 899.2,517.4 899.4,516.2 899.6,516.6 899.8,515.3 899.9,518.7 900.1,516.8 900.3,516.0 900.5,517.9 900.6,514.8 900.8,513.6 901.0,513.5 901.2,517.5 901.3,516.8 901.5,514.0 901.7,514.0 901.9,514.7 902.1,513.3 902.2,516.0 902.4,515.3 902.6,517.4 902.8,516.8 902.9,516.8 903.1,512.8 903.3,514.8 903.5,517.2 903.6,516.7 903.8,515.2 904.0,517.3 904.2,516.1 904.3,514.7 904.5,516.7 904.7,516.2 904.9,518.1 905.0,515.4 905.2,516.3 905.4,519.2 905.6,514.3 905.7,520.5 905.9,519.7 906.1,521.2 906.3,518.8 906.5,516.3 906.6,514.2 906.8,516.0 907.0,516.6 907.2,515.4 907.3,518.5 907.5,516.5 907.7,515.9 907.9,517.3 908.0,517.2 908.2,515.7 908.4,516.1 908.6,518.3 908.7,517.8 908.9,512.2 909.1,518.3 909.3,515.8 909.4,517.3 909.6,516.1 909.8,517.8 910.0,517.3 910.1,517.2 910.3,512.4 910.5,514.5 910.7,517.8 910.9,514.2 911.0,514.6 911.2,515.4 911.4,518.4 911.6,516.7 911.7,518.1 911.9,519.5 912.1,518.0 912.3,516.5 912.4,517.0 912.6,516.7 912.8,518.7 913.0,516.2 913.1,518.4 913.3,517.4 913.5,513.8 913.7,517.8 913.8,517.5 914.0,519.3 914.2,514.3 914.4,518.4 914.5,516.5 914.7,516.4 914.9,516.4 915.1,516.2 915.3,516.7 915.4,511.9 915.6,513.9 915.8,515.3 916.0,517.6 916.1,513.2 916.3,518.6 916.5,515.0 916.7,515.9 916.8,519.7 917.0,517.0 917.2,514.0 917.4,515.2 917.5,515.9 917.7,518.4 917.9,518.3 918.1,515.9 918.2,514.5 918.4,516.3 918.6,516.6 918.8,515.1 918.9,514.9 919.1,514.1 919.3,518.0 919.5,513.5 919.7,521.0 919.8,516.5 920.0,514.5 920.2,517.6 920.4,516.3 920.5,514.7 920.7,513.5 920.9,519.1 921.1,516.2 921.2,515.1 921.4,517.7 921.6,516.2 921.8,516.7 921.9,517.8 922.1,514.9 922.3,515.7 922.5,517.5 922.6,518.5 922.8,519.9 923.0,517.2 923.2,516.5 923.4,516.6 923.5,519.3 923.7,512.5 923.9,514.7 924.1,516.8 924.2,520.2 924.4,514.8 924.6,519.0 924.8,516.1 924.9,518.1 925.1,519.6 925.3,518.0 925.5,514.6 925.6,517.9 925.8,514.9 926.0,516.2 926.2,514.4 926.3,515.0 926.5,519.6 926.7,518.4 926.9,516.5 927.0,514.3 927.2,516.7 927.4,516.3 927.6,517.8 927.8,517.5 927.9,515.9 928.1,514.3 928.3,517.8 928.5,515.8 928.6,519.7 928.8,516.5 929.0,516.4 929.2,517.5 929.3,514.9 929.5,516.0 929.7,515.3 929.9,518.0 930.0,516.2 930.2,516.0 930.4,516.7 930.6,520.1 930.7,515.3 930.9,519.9 931.1,518.5 931.3,517.3 931.4,515.9 931.6,514.9 931.8,517.8 932.0,519.9 932.2,520.1 932.3,517.5 932.5,514.9 932.7,517.5 932.9,517.8 933.0,514.4 933.2,518.2 933.4,515.1 933.6,512.8 933.7,517.7 933.9,515.1 934.1,516.2 934.3,518.0 934.4,516.9 934.6,517.6 934.8,513.7 935.0,516.0 935.1,519.6 935.3,519.8 935.5,514.6 935.7,518.8 935.8,517.4 936.0,514.4 936.2,518.6 936.4,515.1 936.6,519.8 936.7,519.6 936.9,513.1 937.1,515.1 937.3,516.2 937.4,518.6 937.6,518.9 937.8,514.8 938.0,515.9 938.1,515.6 938.3,515.9 938.5,517.5 938.7,512.6 938.8,517.1 939.0,518.6 939.2,518.9 939.4,518.3 939.5,513.2 939.7,517.9 939.9,517.7 940.1,515.5 940.3,518.1 940.4,517.0 940.6,517.2 940.8,516.7 941.0,518.5 941.1,515.9 941.3,517.2 941.5,515.5 941.7,513.6 941.8,517.1 942.0,518.2 942.2,520.9 942.4,520.3 942.5,519.2 942.7,514.0 942.9,519.4 943.1,515.2 943.2,519.7 943.4,518.8 943.6,514.1 943.8,519.2 943.9,518.5 944.1,514.9 944.3,516.4 944.5,515.9 944.7,514.5 944.8,514.5 945.0,516.4 945.2,516.4 945.4,517.1 945.5,517.9 945.7,514.7 945.9,517.7 946.1,517.1 946.2,517.1 946.4,516.8 946.6,516.4 946.8,519.2 946.9,517.3 947.1,517.2 947.3,518.9 947.5,518.6 947.6,514.7 947.8,515.1 948.0,517.4 948.2,514.9 948.3,515.8 948.5,515.4 948.7,515.4 948.9,518.7 949.1,518.7 949.2,513.4 949.4,517.2 949.6,517.5 949.8,517.3 949.9,515.6 950.1,516.1 950.3,513.1 950.5,516.0 950.6,517.8 950.8,519.3 951.0,514.4 951.2,520.8 951.3,511.0 951.5,516.9 951.7,516.6 951.9,514.2 952.0,517.6 952.2,518.2 952.4,515.1 952.6,517.2 952.7,519.2 952.9,517.3 953.1,520.6 953.3,519.2 953.5,515.6 953.6,520.9 953.8,517.3 954.0,514.9 954.2,517.1 954.3,514.9 954.5,515.9 954.7,517.4 954.9,516.6 955.0,517.5 955.2,519.2 955.4,519.2 955.6,519.3 955.7,515.1 955.9,517.6 956.1,517.1 956.3,520.8 956.4,518.2 956.6,518.0 956.8,514.9 957.0,516.4 957.1,516.0 957.3,515.9 957.5,519.0 957.7,513.7 957.9,516.2 958.0,516.1 958.2,517.7 958.4,516.6 958.6,518.5 958.7,518.9 958.9,519.4 959.1,519.9 959.3,515.1 959.4,513.6 959.6,513.5 959.8,515.8 960.0,517.8 960.1,515.9 960.3,514.7 960.5,518.2 960.7,515.1 960.8,518.0 961.0,516.5 961.2,518.7 961.4,514.9 961.6,518.5 961.7,520.0 961.9,516.2 962.1,517.4 962.3,514.4 962.4,519.5 962.6,516.7 962.8,516.8 963.0,516.9 963.1,515.5 963.3,516.0 963.5,516.4 963.7,515.7 963.8,517.5 964.0,515.2 964.2,516.5 964.4,514.8 964.5,515.3 964.7,517.5 964.9,514.5 965.1,518.5 965.2,512.8 965.4,519.1 965.6,516.9 965.8,517.4 966.0,517.0 966.1,516.2 966.3,517.6 966.5,517.4 966.7,515.9 966.8,515.8 967.0,516.5 967.2,517.2 967.4,516.3 967.5,515.1 967.7,518.6 967.9,515.4 968.1,516.5 968.2,517.5 968.4,515.9 968.6,514.0 968.8,518.0 968.9,515.3 969.1,518.2 969.3,518.4 969.5,516.1 969.6,518.1 969.8,515.5 970.0,519.6" fill="none" stroke="#2563eb" stroke-width="2.2"/>
<line x1="102" y1="83" x2="126" y2="83" stroke="#2563eb" stroke-width="3"/>
<text x="133" y="87" font-family="sans-serif" font-size="12">OWT baseline</text>
</svg>
