<svg xmlns="http://www.w3.org/2000/svg" width="1000" height="620" viewBox="0 0 1000 620">
<rect width="100%" height="100%" fill="white"/>
<text x="500.0" y="32" text-anchor="middle" font-family="sans-serif" font-size="22">TinyStories baseline: validation loss by step</text>
<line x1="90.0" y1="65" x2="90.0" y2="545" stroke="#e5e7eb"/>
<text x="90.0" y="570" text-anchor="middle" font-family="sans-serif" font-size="12">100</text>
<line x1="90" y1="65.0" x2="970" y2="65.0" stroke="#e5e7eb"/>
<text x="78" y="69.0" text-anchor="end" font-family="sans-serif" font-size="12">2.5</text>
<line x1="266.0" y1="65" x2="266.0" y2="545" stroke="#e5e7eb"/>
<text x="266.0" y="570" text-anchor="middle" font-family="sans-serif" font-size="12">1.08e+03</text>
<line x1="90" y1="161.0" x2="970" y2="161.0" stroke="#e5e7eb"/>
<text x="78" y="165.0" text-anchor="end" font-family="sans-serif" font-size="12">2.26</text>
<line x1="442.0" y1="65" x2="442.0" y2="545" stroke="#e5e7eb"/>
<text x="442.0" y="570" text-anchor="middle" font-family="sans-serif" font-size="12">2.06e+03</text>
<line x1="90" y1="257.0" x2="970" y2="257.0" stroke="#e5e7eb"/>
<text x="78" y="261.0" text-anchor="end" font-family="sans-serif" font-size="12">2.02</text>
<line x1="618.0" y1="65" x2="618.0" y2="545" stroke="#e5e7eb"/>
<text x="618.0" y="570" text-anchor="middle" font-family="sans-serif" font-size="12">3.04e+03</text>
<line x1="90" y1="353.0" x2="970" y2="353.0" stroke="#e5e7eb"/>
<text x="78" y="357.0" text-anchor="end" font-family="sans-serif" font-size="12">1.78</text>
<line x1="794.0" y1="65" x2="794.0" y2="545" stroke="#e5e7eb"/>
<text x="794.0" y="570" text-anchor="middle" font-family="sans-serif" font-size="12">4.02e+03</text>
<line x1="90" y1="449.0" x2="970" y2="449.0" stroke="#e5e7eb"/>
<text x="78" y="453.0" text-anchor="end" font-family="sans-serif" font-size="12">1.54</text>
<line x1="970.0" y1="65" x2="970.0" y2="545" stroke="#e5e7eb"/>
<text x="970.0" y="570" text-anchor="middle" font-family="sans-serif" font-size="12">5e+03</text>
<line x1="90" y1="545.0" x2="970" y2="545.0" stroke="#e5e7eb"/>
<text x="78" y="549.0" text-anchor="end" font-family="sans-serif" font-size="12">1.3</text>
<line x1="90" y1="545" x2="970" y2="545" stroke="#111827" stroke-width="2"/>
<line x1="90" y1="65" x2="90" y2="545" stroke="#111827" stroke-width="2"/>
<text x="530.0" y="600" text-anchor="middle" font-family="sans-serif" font-size="15">step</text>
<text x="20" y="305.0" text-anchor="middle" transform="rotate(-90 20 305.0)" font-family="sans-serif" font-size="15">val_loss</text>
<polyline points="90.0,65.0 108.0,181.2 125.9,259.0 143.9,292.4 161.8,321.5 179.8,343.9 197.8,359.5 215.7,375.4 233.7,385.8 251.6,397.4 269.6,402.2 287.6,409.4 305.5,412.3 323.5,419.7 341.4,422.9 359.4,428.0 377.3,433.6 395.3,438.7 413.3,443.6 431.2,447.9 449.2,451.6 467.1,455.9 485.1,456.1 503.1,461.6 521.0,463.2 539.0,462.7 556.9,470.9 574.9,474.3 592.9,473.7 610.8,477.8 628.8,482.3 646.7,483.8 664.7,487.6 682.7,490.8 700.6,489.5 718.6,493.2 736.5,492.9 754.5,495.5 772.4,500.0 790.4,501.7 808.4,502.3 826.3,503.4 844.3,506.5 862.2,507.3 880.2,509.0 898.2,508.6 916.1,508.8 934.1,510.6 952.0,509.8 970.0,510.0" fill="none" stroke="#2563eb" stroke-width="2.2"/>
<line x1="102" y1="83" x2="126" y2="83" stroke="#2563eb" stroke-width="3"/>
<text x="133" y="87" font-family="sans-serif" font-size="12">baseline</text>
</svg>
