<svg xmlns="http://www.w3.org/2000/svg" width="1000" height="620" viewBox="0 0 1000 620">
<rect width="100%" height="100%" fill="white"/>
<text x="500.0" y="32" text-anchor="middle" font-family="sans-serif" font-size="22">TinyStories baseline: training loss by step</text>
<line x1="90.0" y1="65" x2="90.0" y2="545" stroke="#e5e7eb"/>
<text x="90.0" y="570" text-anchor="middle" font-family="sans-serif" font-size="12">1</text>
<line x1="90" y1="65.0" x2="970" y2="65.0" stroke="#e5e7eb"/>
<text x="78" y="69.0" text-anchor="end" font-family="sans-serif" font-size="12">4.5</text>
<line x1="266.0" y1="65" x2="266.0" y2="545" stroke="#e5e7eb"/>
<text x="266.0" y="570" text-anchor="middle" font-family="sans-serif" font-size="12">1e+03</text>
<line x1="90" y1="161.0" x2="970" y2="161.0" stroke="#e5e7eb"/>
<text x="78" y="165.0" text-anchor="end" font-family="sans-serif" font-size="12">3.84</text>
<line x1="442.0" y1="65" x2="442.0" y2="545" stroke="#e5e7eb"/>
<text x="442.0" y="570" text-anchor="middle" font-family="sans-serif" font-size="12">2e+03</text>
<line x1="90" y1="257.0" x2="970" y2="257.0" stroke="#e5e7eb"/>
<text x="78" y="261.0" text-anchor="end" font-family="sans-serif" font-size="12">3.18</text>
<line x1="618.0" y1="65" x2="618.0" y2="545" stroke="#e5e7eb"/>
<text x="618.0" y="570" text-anchor="middle" font-family="sans-serif" font-size="12">3e+03</text>
<line x1="90" y1="353.0" x2="970" y2="353.0" stroke="#e5e7eb"/>
<text x="78" y="357.0" text-anchor="end" font-family="sans-serif" font-size="12">2.52</text>
<line x1="794.0" y1="65" x2="794.0" y2="545" stroke="#e5e7eb"/>
<text x="794.0" y="570" text-anchor="middle" font-family="sans-serif" font-size="12">4e+03</text>
<line x1="90" y1="449.0" x2="970" y2="449.0" stroke="#e5e7eb"/>
<text x="78" y="453.0" text-anchor="end" font-family="sans-serif" font-size="12">1.86</text>
<line x1="970.0" y1="65" x2="970.0" y2="545" stroke="#e5e7eb"/>
<text x="970.0" y="570" text-anchor="middle" font-family="sans-serif" font-size="12">5e+03</text>
<line x1="90" y1="545.0" x2="970" y2="545.0" stroke="#e5e7eb"/>
<text x="78" y="549.0" text-anchor="end" font-family="sans-serif" font-size="12">1.2</text>
<line x1="90" y1="545" x2="970" y2="545" stroke="#111827" stroke-width="2"/>
<line x1="90" y1="65" x2="90" y2="545" stroke="#111827" stroke-width="2"/>
<text x="530.0" y="600" text-anchor="middle" font-family="sans-serif" font-size="15">step</text>
<text x="20" y="305.0" text-anchor="middle" transform="rotate(-90 20 305.0)" font-family="sans-serif" font-size="15">train_loss</text>
<polyline points="90.0,65.0 90.2,65.0 90.4,65.0 90.5,65.0 90.7,65.0 90.9,65.0 91.1,65.0 91.2,65.0 91.4,65.0 91.6,65.0 91.8,65.0 91.9,65.0 92.1,65.0 92.3,65.0 92.5,65.0 92.6,65.0 92.8,65.0 93.0,65.0 93.2,65.0 93.3,65.0 93.5,65.0 93.7,65.0 93.9,65.0 94.0,65.0 94.2,65.0 94.4,65.0 94.6,65.0 94.8,65.0 94.9,65.0 95.1,65.0 95.3,65.0 95.5,65.0 95.6,67.1 95.8,79.3 96.0,96.9 96.2,96.3 96.3,113.4 96.5,125.7 96.7,129.4 96.9,131.8 97.0,141.7 97.2,140.9 97.4,148.0 97.6,156.5 97.7,147.1 97.9,164.2 98.1,160.9 98.3,170.6 98.4,170.4 98.6,177.6 98.8,177.9 99.0,185.0 99.2,189.9 99.3,188.5 99.5,196.9 99.7,194.9 99.9,199.1 100.0,205.9 100.2,206.2 100.4,211.4 100.6,219.1 100.7,222.6 100.9,218.9 101.1,224.6 101.3,229.4 101.4,233.2 101.6,233.4 101.8,231.8 102.0,241.2 102.1,236.5 102.3,254.2 102.5,247.8 102.7,250.0 102.9,257.3 103.0,260.4 103.2,260.3 103.4,266.3 103.6,270.8 103.7,266.6 103.9,275.5 104.1,273.7 104.3,276.7 104.4,282.5 104.6,284.0 104.8,285.8 105.0,281.9 105.1,283.2 105.3,278.9 105.5,293.7 105.7,288.9 105.8,294.3 106.0,301.6 106.2,302.5 106.4,311.5 106.5,301.3 106.7,300.2 106.9,312.4 107.1,309.6 107.3,315.5 107.4,306.1 107.6,314.0 107.8,315.6 108.0,322.1 108.1,316.2 108.3,319.0 108.5,324.0 108.7,330.0 108.8,331.7 109.0,326.2 109.2,327.9 109.4,332.4 109.5,334.6 109.7,337.1 109.9,332.9 110.1,337.1 110.2,339.1 110.4,339.3 110.6,342.9 110.8,350.1 110.9,337.1 111.1,339.5 111.3,342.9 111.5,343.8 111.7,348.1 111.8,347.7 112.0,352.1 112.2,355.0 112.4,352.9 112.5,355.0 112.7,355.6 112.9,351.7 113.1,358.9 113.2,352.1 113.4,360.5 113.6,363.3 113.8,354.8 113.9,359.6 114.1,364.1 114.3,365.6 114.5,370.8 114.6,357.4 114.8,366.8 115.0,368.5 115.2,361.3 115.3,374.3 115.5,366.3 115.7,371.9 115.9,366.6 116.1,367.1 116.2,371.4 116.4,373.5 116.6,378.0 116.8,363.9 116.9,372.6 117.1,379.4 117.3,376.1 117.5,375.4 117.6,375.0 117.8,378.9 118.0,377.1 118.2,379.5 118.3,376.1 118.5,382.3 118.7,380.5 118.9,381.1 119.0,384.6 119.2,392.6 119.4,384.8 119.6,386.3 119.7,385.4 119.9,375.7 120.1,386.3 120.3,383.5 120.5,393.1 120.6,387.9 120.8,394.1 121.0,390.3 121.2,382.7 121.3,393.5 121.5,386.0 121.7,392.2 121.9,389.0 122.0,393.7 122.2,397.4 122.4,397.5 122.6,388.9 122.7,397.5 122.9,400.5 123.1,395.8 123.3,388.6 123.4,392.7 123.6,395.5 123.8,398.0 124.0,402.9 124.2,403.9 124.3,403.9 124.5,395.9 124.7,400.3 124.9,398.5 125.0,398.0 125.2,396.0 125.4,403.2 125.6,403.9 125.7,399.0 125.9,404.6 126.1,397.5 126.3,407.6 126.4,405.9 126.6,402.9 126.8,408.9 127.0,409.3 127.1,408.0 127.3,406.1 127.5,410.8 127.7,400.2 127.8,406.5 128.0,414.9 128.2,411.6 128.4,404.9 128.6,415.4 128.7,405.7 128.9,408.1 129.1,410.1 129.3,405.1 129.4,408.6 129.6,407.9 129.8,411.0 130.0,410.4 130.1,409.5 130.3,408.0 130.5,416.0 130.7,410.5 130.8,411.7 131.0,413.8 131.2,417.9 131.4,412.9 131.5,417.5 131.7,416.4 131.9,413.0 132.1,422.2 132.2,418.9 132.4,421.0 132.6,415.5 132.8,416.8 133.0,411.9 133.1,418.8 133.3,411.9 133.5,416.5 133.7,417.8 133.8,422.1 134.0,414.9 134.2,418.8 134.4,421.1 134.5,412.4 134.7,423.9 134.9,417.7 135.1,420.0 135.2,421.2 135.4,418.8 135.6,418.3 135.8,414.4 135.9,416.3 136.1,418.0 136.3,413.9 136.5,418.2 136.6,421.6 136.8,417.6 137.0,420.5 137.2,420.4 137.4,429.1 137.5,426.5 137.7,431.8 137.9,424.7 138.1,425.6 138.2,426.2 138.4,424.0 138.6,421.7 138.8,421.6 138.9,428.0 139.1,423.2 139.3,424.7 139.5,423.1 139.6,421.7 139.8,426.5 140.0,422.0 140.2,423.6 140.3,425.3 140.5,427.5 140.7,430.6 140.9,424.1 141.1,426.6 141.2,427.4 141.4,426.7 141.6,429.5 141.8,425.8 141.9,432.4 142.1,428.4 142.3,431.1 142.5,432.1 142.6,432.1 142.8,432.2 143.0,431.0 143.2,425.6 143.3,430.1 143.5,436.7 143.7,427.0 143.9,432.7 144.0,430.6 144.2,424.4 144.4,429.4 144.6,431.4 144.7,429.5 144.9,433.5 145.1,433.9 145.3,429.0 145.5,434.3 145.6,430.2 145.8,435.8 146.0,437.4 146.2,440.2 146.3,433.3 146.5,434.0 146.7,432.4 146.9,433.5 147.0,435.7 147.2,429.8 147.4,439.0 147.6,431.3 147.7,432.6 147.9,432.0 148.1,435.1 148.3,435.8 148.4,436.7 148.6,436.1 148.8,437.3 149.0,439.5 149.1,440.3 149.3,436.6 149.5,435.8 149.7,437.6 149.9,441.1 150.0,434.5 150.2,444.0 150.4,433.5 150.6,439.9 150.7,442.1 150.9,429.4 151.1,442.1 151.3,434.9 151.4,436.4 151.6,441.5 151.8,441.5 152.0,439.7 152.1,438.5 152.3,442.6 152.5,438.6 152.7,440.8 152.8,439.1 153.0,446.0 153.2,440.1 153.4,437.0 153.5,436.0 153.7,435.4 153.9,445.4 154.1,445.0 154.3,436.9 154.4,439.8 154.6,440.7 154.8,438.3 155.0,441.1 155.1,436.9 155.3,444.0 155.5,440.4 155.7,448.3 155.8,439.6 156.0,440.0 156.2,437.1 156.4,438.9 156.5,441.7 156.7,443.2 156.9,439.1 157.1,444.1 157.2,442.9 157.4,441.5 157.6,433.1 157.8,445.0 157.9,441.8 158.1,442.9 158.3,441.6 158.5,447.9 158.7,443.2 158.8,442.6 159.0,442.9 159.2,440.8 159.4,447.0 159.5,446.3 159.7,448.0 159.9,442.2 160.1,448.7 160.2,450.0 160.4,443.4 160.6,443.2 160.8,438.4 160.9,441.1 161.1,445.6 161.3,448.4 161.5,448.5 161.6,443.0 161.8,442.4 162.0,444.3 162.2,448.3 162.4,450.6 162.5,444.0 162.7,444.5 162.9,441.0 163.1,447.5 163.2,449.3 163.4,452.1 163.6,445.0 163.8,446.3 163.9,443.7 164.1,447.6 164.3,443.7 164.5,443.3 164.6,441.4 164.8,443.3 165.0,446.1 165.2,445.1 165.3,442.3 165.5,449.0 165.7,454.3 165.9,450.4 166.0,448.8 166.2,450.7 166.4,448.3 166.6,442.0 166.8,449.4 166.9,448.5 167.1,445.3 167.3,454.2 167.5,450.3 167.6,451.9 167.8,448.7 168.0,445.5 168.2,449.1 168.3,448.8 168.5,446.0 168.7,447.0 168.9,450.0 169.0,449.6 169.2,451.2 169.4,452.8 169.6,441.7 169.7,448.7 169.9,449.7 170.1,452.4 170.3,447.3 170.4,451.6 170.6,448.2 170.8,448.1 171.0,449.2 171.2,448.2 171.3,449.4 171.5,447.7 171.7,457.3 171.9,449.7 172.0,452.9 172.2,454.1 172.4,454.5 172.6,449.7 172.7,451.2 172.9,455.8 173.1,452.2 173.3,449.4 173.4,450.1 173.6,451.0 173.8,450.9 174.0,451.2 174.1,445.3 174.3,452.6 174.5,454.0 174.7,447.0 174.8,451.8 175.0,447.7 175.2,454.8 175.4,452.2 175.6,452.0 175.7,451.0 175.9,458.1 176.1,456.7 176.3,452.5 176.4,458.0 176.6,454.3 176.8,451.8 177.0,452.8 177.1,453.5 177.3,456.7 177.5,456.5 177.7,452.3 177.8,451.3 178.0,455.6 178.2,455.5 178.4,455.4 178.5,452.0 178.7,455.4 178.9,457.3 179.1,451.7 179.2,450.1 179.4,451.6 179.6,453.6 179.8,454.3 180.0,458.6 180.1,450.3 180.3,455.1 180.5,461.0 180.7,458.0 180.8,454.1 181.0,457.4 181.2,454.1 181.4,451.4 181.5,452.7 181.7,459.2 181.9,452.1 182.1,456.5 182.2,456.3 182.4,452.8 182.6,456.0 182.8,451.8 182.9,457.7 183.1,457.2 183.3,457.7 183.5,453.3 183.7,457.9 183.8,454.5 184.0,451.7 184.2,457.5 184.4,457.2 184.5,452.7 184.7,451.2 184.9,455.9 185.1,456.4 185.2,455.1 185.4,454.8 185.6,457.4 185.8,460.8 185.9,456.1 186.1,458.3 186.3,461.7 186.5,459.5 186.6,459.3 186.8,458.9 187.0,459.4 187.2,455.3 187.3,459.7 187.5,459.0 187.7,465.6 187.9,457.0 188.1,462.2 188.2,460.3 188.4,452.8 188.6,458.8 188.8,461.4 188.9,459.0 189.1,457.2 189.3,465.5 189.5,455.0 189.6,459.7 189.8,457.9 190.0,467.1 190.2,454.7 190.3,460.6 190.5,458.1 190.7,465.3 190.9,459.2 191.0,456.4 191.2,459.7 191.4,462.6 191.6,455.3 191.7,457.2 191.9,457.3 192.1,460.1 192.3,456.3 192.5,462.9 192.6,452.9 192.8,462.4 193.0,463.6 193.2,464.0 193.3,463.3 193.5,455.9 193.7,461.2 193.9,460.8 194.0,463.6 194.2,457.0 194.4,461.8 194.6,461.9 194.7,465.4 194.9,465.9 195.1,459.3 195.3,465.0 195.4,456.5 195.6,462.5 195.8,460.7 196.0,459.4 196.1,462.6 196.3,463.9 196.5,466.1 196.7,463.9 196.9,463.1 197.0,464.2 197.2,466.2 197.4,455.3 197.6,463.8 197.7,465.8 197.9,458.5 198.1,456.4 198.3,463.4 198.4,459.2 198.6,462.8 198.8,466.0 199.0,461.0 199.1,460.2 199.3,463.1 199.5,459.3 199.7,468.4 199.8,462.5 200.0,455.1 200.2,462.5 200.4,464.7 200.6,461.2 200.7,468.5 200.9,462.6 201.1,464.5 201.3,463.6 201.4,459.4 201.6,464.8 201.8,465.9 202.0,464.2 202.1,460.2 202.3,465.5 202.5,460.0 202.7,459.8 202.8,458.2 203.0,465.9 203.2,461.5 203.4,459.9 203.5,467.0 203.7,464.4 203.9,458.9 204.1,464.0 204.2,464.1 204.4,467.5 204.6,460.7 204.8,464.5 205.0,463.9 205.1,458.7 205.3,464.7 205.5,466.6 205.7,463.6 205.8,463.8 206.0,466.1 206.2,461.4 206.4,466.6 206.5,468.0 206.7,456.0 206.9,467.8 207.1,467.5 207.2,463.8 207.4,462.7 207.6,466.7 207.8,468.3 207.9,467.7 208.1,459.9 208.3,468.6 208.5,465.2 208.6,468.7 208.8,471.2 209.0,467.2 209.2,463.8 209.4,469.6 209.5,467.4 209.7,470.2 209.9,461.6 210.1,469.8 210.2,470.0 210.4,465.6 210.6,463.1 210.8,471.2 210.9,465.6 211.1,467.1 211.3,465.4 211.5,463.0 211.6,465.5 211.8,472.3 212.0,467.6 212.2,468.0 212.3,464.7 212.5,469.1 212.7,463.5 212.9,463.2 213.0,460.1 213.2,469.3 213.4,468.8 213.6,466.5 213.8,463.8 213.9,466.9 214.1,472.4 214.3,466.8 214.5,463.9 214.6,464.0 214.8,470.3 215.0,469.3 215.2,466.9 215.3,464.7 215.5,470.1 215.7,472.0 215.9,467.2 216.0,465.5 216.2,471.3 216.4,465.2 216.6,470.0 216.7,465.9 216.9,468.0 217.1,466.5 217.3,469.8 217.4,464.9 217.6,471.6 217.8,469.5 218.0,472.7 218.2,467.8 218.3,466.3 218.5,470.3 218.7,469.4 218.9,469.4 219.0,469.3 219.2,461.5 219.4,470.3 219.6,470.8 219.7,466.5 219.9,471.1 220.1,471.3 220.3,465.7 220.4,471.4 220.6,468.5 220.8,475.8 221.0,475.1 221.1,465.6 221.3,471.4 221.5,470.5 221.7,474.5 221.9,469.7 222.0,476.4 222.2,464.6 222.4,471.1 222.6,474.0 222.7,468.2 222.9,467.4 223.1,471.2 223.3,460.3 223.4,470.5 223.6,470.7 223.8,470.7 224.0,474.4 224.1,466.2 224.3,469.5 224.5,467.0 224.7,470.2 224.8,472.8 225.0,470.2 225.2,465.9 225.4,468.8 225.5,471.0 225.7,464.3 225.9,470.2 226.1,467.5 226.3,474.1 226.4,469.4 226.6,474.9 226.8,469.0 227.0,469.3 227.1,474.8 227.3,465.5 227.5,467.7 227.7,471.0 227.8,467.7 228.0,470.4 228.2,471.8 228.4,469.0 228.5,473.5 228.7,467.1 228.9,469.7 229.1,475.8 229.2,478.5 229.4,478.6 229.6,474.7 229.8,474.9 229.9,477.7 230.1,471.2 230.3,471.4 230.5,475.2 230.7,476.7 230.8,476.8 231.0,473.0 231.2,472.9 231.4,471.8 231.5,471.1 231.7,467.8 231.9,471.5 232.1,472.5 232.2,474.4 232.4,470.5 232.6,471.8 232.8,473.6 232.9,473.5 233.1,468.1 233.3,467.8 233.5,472.1 233.6,472.5 233.8,470.6 234.0,473.3 234.2,471.9 234.3,473.0 234.5,469.3 234.7,474.3 234.9,472.3 235.1,476.4 235.2,469.1 235.4,474.6 235.6,478.8 235.8,473.5 235.9,473.6 236.1,472.8 236.3,470.9 236.5,473.9 236.6,471.8 236.8,478.7 237.0,479.7 237.2,469.7 237.3,470.9 237.5,468.5 237.7,473.4 237.9,473.5 238.0,474.3 238.2,473.8 238.4,473.4 238.6,472.1 238.7,470.1 238.9,477.5 239.1,473.0 239.3,473.2 239.5,475.0 239.6,477.2 239.8,470.7 240.0,475.6 240.2,477.1 240.3,471.6 240.5,474.8 240.7,464.6 240.9,473.6 241.0,473.6 241.2,474.1 241.4,472.9 241.6,472.0 241.7,476.2 241.9,481.8 242.1,468.5 242.3,480.9 242.4,473.4 242.6,475.5 242.8,479.2 243.0,476.2 243.2,475.8 243.3,472.2 243.5,475.9 243.7,471.1 243.9,472.7 244.0,476.3 244.2,473.4 244.4,478.4 244.6,478.9 244.7,473.4 244.9,477.6 245.1,469.8 245.3,477.9 245.4,475.5 245.6,476.6 245.8,476.3 246.0,476.8 246.1,474.5 246.3,475.2 246.5,475.8 246.7,476.1 246.8,477.0 247.0,480.6 247.2,478.8 247.4,474.3 247.6,477.5 247.7,481.7 247.9,477.8 248.1,473.1 248.3,475.0 248.4,474.2 248.6,472.2 248.8,477.2 249.0,475.7 249.1,473.4 249.3,474.0 249.5,477.6 249.7,475.0 249.8,477.0 250.0,476.8 250.2,475.4 250.4,476.4 250.5,476.0 250.7,476.3 250.9,479.0 251.1,476.4 251.2,479.9 251.4,479.9 251.6,473.6 251.8,474.6 252.0,475.8 252.1,477.8 252.3,475.8 252.5,478.0 252.7,480.6 252.8,473.0 253.0,479.4 253.2,476.0 253.4,476.4 253.5,475.6 253.7,479.7 253.9,478.6 254.1,482.5 254.2,482.1 254.4,482.4 254.6,477.1 254.8,476.0 254.9,475.8 255.1,478.2 255.3,484.1 255.5,476.6 255.6,473.6 255.8,479.5 256.0,474.6 256.2,480.1 256.4,476.5 256.5,482.8 256.7,475.9 256.9,475.1 257.1,483.0 257.2,478.2 257.4,477.5 257.6,471.0 257.8,475.8 257.9,473.9 258.1,477.7 258.3,480.4 258.5,478.1 258.6,478.0 258.8,479.4 259.0,475.2 259.2,477.9 259.3,484.3 259.5,473.2 259.7,471.2 259.9,482.0 260.1,479.9 260.2,480.6 260.4,480.4 260.6,479.1 260.8,482.2 260.9,477.5 261.1,483.4 261.3,479.9 261.5,476.5 261.6,477.2 261.8,475.1 262.0,480.4 262.2,483.7 262.3,482.8 262.5,480.1 262.7,477.5 262.9,477.7 263.0,477.1 263.2,474.8 263.4,481.0 263.6,481.5 263.7,482.7 263.9,477.0 264.1,476.1 264.3,480.6 264.5,480.6 264.6,482.9 264.8,476.4 265.0,481.4 265.2,479.1 265.3,478.9 265.5,480.5 265.7,478.5 265.9,487.7 266.0,475.9 266.2,481.2 266.4,479.1 266.6,477.0 266.7,484.8 266.9,474.6 267.1,481.6 267.3,476.2 267.4,481.0 267.6,477.9 267.8,478.3 268.0,480.2 268.1,478.2 268.3,483.2 268.5,483.0 268.7,474.9 268.9,479.9 269.0,480.7 269.2,478.8 269.4,479.0 269.6,484.9 269.7,483.5 269.9,482.9 270.1,479.5 270.3,479.9 270.4,474.1 270.6,483.8 270.8,482.1 271.0,470.4 271.1,477.2 271.3,480.4 271.5,484.0 271.7,485.1 271.8,480.3 272.0,482.8 272.2,482.5 272.4,473.2 272.5,479.8 272.7,479.6 272.9,486.6 273.1,482.5 273.3,477.8 273.4,480.1 273.6,484.0 273.8,478.5 274.0,480.8 274.1,480.2 274.3,480.5 274.5,482.5 274.7,480.9 274.8,482.2 275.0,477.7 275.2,482.5 275.4,478.9 275.5,486.9 275.7,483.4 275.9,479.6 276.1,481.8 276.2,479.1 276.4,484.2 276.6,480.4 276.8,485.6 276.9,482.8 277.1,486.6 277.3,476.2 277.5,485.5 277.7,482.1 277.8,478.7 278.0,479.5 278.2,478.5 278.4,482.3 278.5,482.5 278.7,476.5 278.9,482.7 279.1,484.1 279.2,484.6 279.4,485.8 279.6,480.3 279.8,483.8 279.9,489.4 280.1,478.4 280.3,482.0 280.5,476.5 280.6,485.2 280.8,479.4 281.0,484.2 281.2,480.4 281.4,477.3 281.5,480.9 281.7,483.9 281.9,486.8 282.1,483.4 282.2,484.9 282.4,484.8 282.6,481.0 282.8,481.6 282.9,476.6 283.1,484.6 283.3,480.7 283.5,482.7 283.6,482.9 283.8,478.0 284.0,483.1 284.2,488.1 284.3,474.6 284.5,487.8 284.7,482.2 284.9,484.5 285.0,484.5 285.2,482.8 285.4,488.1 285.6,485.5 285.8,479.1 285.9,484.1 286.1,483.5 286.3,479.6 286.5,485.7 286.6,484.6 286.8,483.6 287.0,482.6 287.2,483.8 287.3,481.7 287.5,482.1 287.7,477.2 287.9,481.3 288.0,479.5 288.2,485.8 288.4,482.7 288.6,486.0 288.7,485.3 288.9,485.4 289.1,482.6 289.3,483.9 289.4,484.4 289.6,480.5 289.8,487.8 290.0,486.5 290.2,486.0 290.3,485.8 290.5,484.4 290.7,480.6 290.9,484.7 291.0,487.2 291.2,483.5 291.4,486.2 291.6,481.7 291.7,478.1 291.9,487.7 292.1,484.9 292.3,484.3 292.4,480.8 292.6,490.7 292.8,480.7 293.0,484.3 293.1,478.1 293.3,484.0 293.5,483.4 293.7,481.9 293.8,482.7 294.0,489.2 294.2,480.8 294.4,482.7 294.6,486.9 294.7,482.5 294.9,481.4 295.1,482.9 295.3,482.2 295.4,478.2 295.6,482.1 295.8,485.0 296.0,487.9 296.1,484.4 296.3,490.8 296.5,482.1 296.7,485.7 296.8,485.3 297.0,481.5 297.2,485.8 297.4,481.0 297.5,484.2 297.7,483.1 297.9,484.7 298.1,486.7 298.2,485.1 298.4,483.5 298.6,482.3 298.8,481.7 299.0,484.4 299.1,486.8 299.3,480.8 299.5,492.2 299.7,483.7 299.8,483.7 300.0,479.8 300.2,488.2 300.4,485.4 300.5,486.0 300.7,486.0 300.9,489.6 301.1,487.9 301.2,485.7 301.4,489.4 301.6,487.7 301.8,484.3 301.9,482.3 302.1,488.4 302.3,486.3 302.5,484.3 302.7,486.2 302.8,490.1 303.0,480.8 303.2,483.7 303.4,486.8 303.5,488.3 303.7,489.7 303.9,488.8 304.1,484.1 304.2,496.5 304.4,483.0 304.6,481.1 304.8,486.7 304.9,491.5 305.1,482.2 305.3,489.1 305.5,488.5 305.6,490.3 305.8,484.0 306.0,485.0 306.2,488.8 306.3,489.9 306.5,487.7 306.7,487.0 306.9,485.1 307.1,486.8 307.2,488.4 307.4,488.0 307.6,483.4 307.8,482.4 307.9,483.7 308.1,486.3 308.3,486.7 308.5,484.3 308.6,493.0 308.8,487.0 309.0,486.3 309.2,487.8 309.3,486.7 309.5,492.4 309.7,491.0 309.9,487.3 310.0,487.0 310.2,493.4 310.4,490.9 310.6,487.2 310.7,479.0 310.9,483.3 311.1,482.6 311.3,485.3 311.5,485.7 311.6,492.0 311.8,482.6 312.0,489.0 312.2,483.8 312.3,482.5 312.5,492.7 312.7,486.9 312.9,488.8 313.0,487.3 313.2,487.4 313.4,485.9 313.6,489.7 313.7,489.9 313.9,489.2 314.1,483.2 314.3,486.9 314.4,490.3 314.6,487.6 314.8,487.7 315.0,486.2 315.1,483.4 315.3,487.9 315.5,488.5 315.7,490.8 315.9,491.4 316.0,483.1 316.2,491.5 316.4,486.5 316.6,481.3 316.7,484.1 316.9,489.1 317.1,486.4 317.3,487.8 317.4,487.5 317.6,486.9 317.8,488.0 318.0,487.6 318.1,489.6 318.3,486.7 318.5,482.2 318.7,487.7 318.8,490.0 319.0,487.8 319.2,486.8 319.4,487.0 319.5,484.1 319.7,487.4 319.9,478.5 320.1,487.2 320.3,492.8 320.4,489.4 320.6,487.0 320.8,485.7 321.0,482.2 321.1,480.0 321.3,487.4 321.5,491.7 321.7,487.9 321.8,489.2 322.0,484.9 322.2,488.4 322.4,488.9 322.5,488.4 322.7,492.0 322.9,490.7 323.1,488.2 323.2,485.1 323.4,491.7 323.6,489.4 323.8,482.3 324.0,485.5 324.1,486.7 324.3,491.8 324.5,485.3 324.7,492.8 324.8,489.8 325.0,484.4 325.2,484.5 325.4,492.3 325.5,485.1 325.7,488.1 325.9,487.7 326.1,495.5 326.2,497.7 326.4,495.9 326.6,488.5 326.8,489.9 326.9,492.3 327.1,484.2 327.3,484.8 327.5,491.9 327.6,492.3 327.8,486.8 328.0,489.9 328.2,490.7 328.4,491.5 328.5,490.0 328.7,491.7 328.9,487.7 329.1,491.3 329.2,488.6 329.4,487.5 329.6,497.8 329.8,490.1 329.9,488.8 330.1,494.7 330.3,485.6 330.5,490.3 330.6,484.9 330.8,492.0 331.0,489.7 331.2,486.3 331.3,488.2 331.5,491.9 331.7,489.8 331.9,491.8 332.0,497.2 332.2,489.7 332.4,486.8 332.6,494.8 332.8,488.4 332.9,489.2 333.1,493.0 333.3,489.4 333.5,489.7 333.6,490.1 333.8,497.7 334.0,490.0 334.2,488.7 334.3,490.2 334.5,489.2 334.7,487.5 334.9,489.3 335.0,489.6 335.2,486.8 335.4,487.6 335.6,490.6 335.7,491.7 335.9,489.3 336.1,488.2 336.3,492.9 336.4,486.2 336.6,487.0 336.8,490.1 337.0,488.8 337.2,494.2 337.3,493.4 337.5,486.9 337.7,490.4 337.9,492.8 338.0,490.5 338.2,491.7 338.4,493.7 338.6,487.2 338.7,490.7 338.9,486.1 339.1,487.8 339.3,491.1 339.4,489.3 339.6,494.5 339.8,490.9 340.0,492.9 340.1,490.5 340.3,493.6 340.5,494.4 340.7,488.6 340.9,487.5 341.0,488.3 341.2,493.1 341.4,487.5 341.6,490.6 341.7,494.6 341.9,491.2 342.1,490.8 342.3,489.6 342.4,493.1 342.6,492.1 342.8,488.8 343.0,487.0 343.1,487.1 343.3,492.3 343.5,486.4 343.7,489.2 343.8,495.6 344.0,488.8 344.2,489.9 344.4,492.9 344.5,484.9 344.7,484.0 344.9,493.3 345.1,496.4 345.3,492.9 345.4,492.9 345.6,496.8 345.8,492.8 346.0,493.6 346.1,490.1 346.3,489.4 346.5,493.4 346.7,486.0 346.8,488.9 347.0,498.2 347.2,484.4 347.4,488.7 347.5,486.8 347.7,491.9 347.9,491.3 348.1,487.7 348.2,496.4 348.4,490.1 348.6,489.4 348.8,493.3 348.9,492.1 349.1,493.6 349.3,490.4 349.5,490.0 349.7,489.5 349.8,491.2 350.0,499.2 350.2,489.7 350.4,490.0 350.5,491.3 350.7,491.3 350.9,492.0 351.1,483.2 351.2,489.2 351.4,494.3 351.6,496.6 351.8,498.8 351.9,490.5 352.1,496.8 352.3,495.2 352.5,489.0 352.6,490.7 352.8,495.1 353.0,498.5 353.2,493.4 353.3,495.3 353.5,489.9 353.7,491.0 353.9,489.8 354.1,486.4 354.2,491.8 354.4,493.8 354.6,495.5 354.8,488.9 354.9,486.8 355.1,491.1 355.3,489.3 355.5,491.7 355.6,493.8 355.8,492.1 356.0,492.2 356.2,487.3 356.3,491.6 356.5,491.0 356.7,493.4 356.9,492.1 357.0,494.4 357.2,492.5 357.4,492.5 357.6,492.1 357.7,490.0 357.9,498.5 358.1,494.0 358.3,492.8 358.5,497.2 358.6,494.4 358.8,491.1 359.0,493.2 359.2,491.0 359.3,487.8 359.5,488.6 359.7,497.3 359.9,498.7 360.0,488.9 360.2,494.8 360.4,494.3 360.6,492.9 360.7,487.2 360.9,496.0 361.1,489.4 361.3,494.5 361.4,492.8 361.6,495.1 361.8,489.2 362.0,491.3 362.2,501.7 362.3,497.2 362.5,494.4 362.7,500.2 362.9,487.6 363.0,498.6 363.2,494.2 363.4,494.7 363.6,494.3 363.7,493.6 363.9,488.8 364.1,487.8 364.3,487.3 364.4,494.8 364.6,491.1 364.8,492.0 365.0,492.6 365.1,490.5 365.3,497.8 365.5,491.3 365.7,489.7 365.8,491.2 366.0,489.7 366.2,501.3 366.4,496.3 366.6,488.6 366.7,493.8 366.9,491.3 367.1,491.6 367.3,494.3 367.4,490.9 367.6,489.9 367.8,490.3 368.0,496.4 368.1,487.2 368.3,491.2 368.5,498.2 368.7,493.3 368.8,490.8 369.0,497.0 369.2,493.8 369.4,492.5 369.5,490.5 369.7,494.9 369.9,496.3 370.1,492.3 370.2,490.7 370.4,498.3 370.6,492.1 370.8,489.5 371.0,493.1 371.1,494.6 371.3,490.5 371.5,495.1 371.7,491.9 371.8,495.2 372.0,497.0 372.2,500.9 372.4,498.6 372.5,488.0 372.7,493.3 372.9,495.0 373.1,497.5 373.2,494.4 373.4,497.2 373.6,494.8 373.8,494.3 373.9,492.7 374.1,493.2 374.3,493.0 374.5,487.9 374.6,495.6 374.8,494.9 375.0,496.5 375.2,493.0 375.4,488.0 375.5,494.2 375.7,494.1 375.9,491.9 376.1,494.4 376.2,493.2 376.4,490.9 376.6,493.0 376.8,491.9 376.9,494.7 377.1,490.7 377.3,494.9 377.5,495.0 377.6,491.4 377.8,495.3 378.0,490.9 378.2,491.0 378.3,496.5 378.5,495.8 378.7,497.5 378.9,494.5 379.0,497.2 379.2,496.7 379.4,496.9 379.6,496.9 379.8,496.1 379.9,493.4 380.1,495.2 380.3,492.6 380.5,496.0 380.6,494.5 380.8,492.6 381.0,494.9 381.2,493.9 381.3,496.1 381.5,495.1 381.7,496.1 381.9,499.4 382.0,499.9 382.2,495.0 382.4,494.4 382.6,497.8 382.7,490.0 382.9,489.2 383.1,492.0 383.3,494.2 383.5,498.5 383.6,495.1 383.8,496.0 384.0,493.4 384.2,494.3 384.3,492.8 384.5,491.9 384.7,499.3 384.9,491.2 385.0,491.9 385.2,496.2 385.4,498.3 385.6,499.5 385.7,502.3 385.9,494.5 386.1,493.2 386.3,494.3 386.4,495.9 386.6,498.9 386.8,495.4 387.0,492.6 387.1,498.0 387.3,496.0 387.5,495.0 387.7,494.4 387.9,495.8 388.0,501.9 388.2,502.6 388.4,493.7 388.6,501.2 388.7,498.3 388.9,493.5 389.1,489.4 389.3,493.6 389.4,492.4 389.6,498.6 389.8,500.4 390.0,500.1 390.1,493.8 390.3,494.5 390.5,498.0 390.7,493.2 390.8,493.6 391.0,496.3 391.2,499.2 391.4,497.8 391.5,497.2 391.7,489.8 391.9,497.3 392.1,496.6 392.3,497.6 392.4,494.7 392.6,496.2 392.8,501.8 393.0,495.0 393.1,492.5 393.3,495.7 393.5,496.4 393.7,495.9 393.8,491.0 394.0,491.7 394.2,498.1 394.4,493.0 394.5,498.6 394.7,498.4 394.9,491.0 395.1,495.1 395.2,496.5 395.4,498.0 395.6,500.2 395.8,495.1 395.9,489.4 396.1,499.2 396.3,497.4 396.5,498.8 396.7,498.5 396.8,497.6 397.0,495.1 397.2,492.4 397.4,498.2 397.5,496.6 397.7,490.0 397.9,497.0 398.1,498.0 398.2,500.5 398.4,496.6 398.6,502.7 398.8,495.6 398.9,497.2 399.1,495.0 399.3,496.0 399.5,497.7 399.6,497.7 399.8,494.5 400.0,497.5 400.2,495.6 400.4,494.5 400.5,498.6 400.7,498.4 400.9,502.1 401.1,498.3 401.2,492.4 401.4,494.0 401.6,499.1 401.8,498.5 401.9,493.7 402.1,499.0 402.3,498.0 402.5,498.3 402.6,495.4 402.8,496.5 403.0,492.7 403.2,501.1 403.3,497.0 403.5,498.8 403.7,497.8 403.9,496.8 404.0,496.9 404.2,489.9 404.4,495.6 404.6,499.0 404.8,494.8 404.9,501.4 405.1,497.6 405.3,496.6 405.5,495.4 405.6,501.6 405.8,500.4 406.0,496.3 406.2,494.6 406.3,498.3 406.5,499.0 406.7,497.8 406.9,500.7 407.0,495.5 407.2,497.9 407.4,500.6 407.6,493.7 407.7,498.7 407.9,495.5 408.1,499.9 408.3,496.0 408.4,499.0 408.6,495.0 408.8,500.8 409.0,501.7 409.2,498.8 409.3,497.9 409.5,497.9 409.7,496.9 409.9,498.0 410.0,495.0 410.2,495.9 410.4,494.7 410.6,499.6 410.7,497.1 410.9,498.5 411.1,496.4 411.3,496.1 411.4,499.4 411.6,500.4 411.8,499.4 412.0,497.4 412.1,498.2 412.3,492.6 412.5,498.5 412.7,496.7 412.8,502.5 413.0,500.2 413.2,501.6 413.4,504.7 413.6,498.3 413.7,499.7 413.9,502.6 414.1,498.7 414.3,495.4 414.4,498.9 414.6,499.6 414.8,498.5 415.0,499.7 415.1,499.0 415.3,498.2 415.5,498.2 415.7,498.6 415.8,501.9 416.0,492.7 416.2,498.5 416.4,498.5 416.5,495.1 416.7,498.1 416.9,500.0 417.1,502.1 417.2,497.7 417.4,498.4 417.6,496.2 417.8,500.1 418.0,498.0 418.1,499.3 418.3,497.3 418.5,497.2 418.7,502.7 418.8,504.7 419.0,501.9 419.2,498.0 419.4,497.2 419.5,497.7 419.7,500.2 419.9,501.4 420.1,496.3 420.2,496.8 420.4,502.3 420.6,499.3 420.8,497.8 420.9,498.7 421.1,499.0 421.3,493.5 421.5,498.9 421.7,498.6 421.8,495.0 422.0,499.0 422.2,500.5 422.4,498.1 422.5,495.3 422.7,498.4 422.9,502.1 423.1,501.8 423.2,498.8 423.4,502.0 423.6,496.8 423.8,496.5 423.9,498.1 424.1,495.8 424.3,495.9 424.5,498.8 424.6,497.6 424.8,495.2 425.0,497.9 425.2,498.0 425.3,501.9 425.5,501.6 425.7,496.1 425.9,500.2 426.1,501.9 426.2,498.4 426.4,496.4 426.6,495.9 426.8,497.2 426.9,493.5 427.1,504.5 427.3,497.8 427.5,501.8 427.6,502.7 427.8,496.5 428.0,499.6 428.2,498.6 428.3,496.3 428.5,498.6 428.7,503.3 428.9,500.6 429.0,495.4 429.2,504.5 429.4,501.0 429.6,494.5 429.7,495.5 429.9,498.4 430.1,499.7 430.3,501.2 430.5,497.8 430.6,500.5 430.8,497.9 431.0,500.9 431.2,500.3 431.3,496.8 431.5,502.2 431.7,498.5 431.9,496.2 432.0,498.6 432.2,497.8 432.4,503.2 432.6,501.9 432.7,502.2 432.9,501.4 433.1,499.6 433.3,499.5 433.4,499.8 433.6,500.9 433.8,499.1 434.0,502.2 434.1,499.7 434.3,499.7 434.5,492.5 434.7,501.2 434.9,499.3 435.0,498.4 435.2,497.8 435.4,499.0 435.6,498.1 435.7,495.8 435.9,498.6 436.1,494.9 436.3,497.4 436.4,502.1 436.6,498.4 436.8,500.6 437.0,497.8 437.1,500.9 437.3,496.2 437.5,498.2 437.7,497.2 437.8,502.4 438.0,500.9 438.2,504.3 438.4,498.5 438.5,499.5 438.7,502.3 438.9,502.1 439.1,500.4 439.3,497.1 439.4,501.1 439.6,499.0 439.8,499.4 440.0,502.9 440.1,499.9 440.3,498.7 440.5,498.6 440.7,498.5 440.8,502.1 441.0,502.0 441.2,496.9 441.4,497.6 441.5,496.9 441.7,497.7 441.9,498.3 442.1,503.0 442.2,496.4 442.4,502.1 442.6,502.1 442.8,497.6 443.0,503.5 443.1,504.4 443.3,501.3 443.5,502.0 443.7,497.1 443.8,504.0 444.0,499.2 444.2,504.3 444.4,495.8 444.5,506.7 444.7,502.2 444.9,504.7 445.1,498.3 445.2,498.5 445.4,505.2 445.6,502.2 445.8,493.8 445.9,501.1 446.1,501.4 446.3,497.7 446.5,498.9 446.6,504.7 446.8,501.1 447.0,501.8 447.2,502.9 447.4,500.2 447.5,497.7 447.7,504.1 447.9,502.8 448.1,499.3 448.2,500.3 448.4,499.3 448.6,501.5 448.8,498.2 448.9,499.0 449.1,500.0 449.3,505.8 449.5,501.7 449.6,501.5 449.8,497.9 450.0,501.9 450.2,501.8 450.3,501.9 450.5,499.0 450.7,500.8 450.9,502.2 451.0,497.5 451.2,502.6 451.4,501.5 451.6,502.4 451.8,504.0 451.9,501.2 452.1,500.0 452.3,504.0 452.5,505.2 452.6,502.8 452.8,501.9 453.0,499.8 453.2,502.6 453.3,499.1 453.5,502.6 453.7,502.1 453.9,504.8 454.0,493.5 454.2,509.4 454.4,499.6 454.6,498.8 454.7,502.6 454.9,500.7 455.1,503.5 455.3,502.1 455.4,498.3 455.6,496.1 455.8,496.5 456.0,502.1 456.2,501.1 456.3,507.0 456.5,500.0 456.7,500.8 456.9,501.6 457.0,502.1 457.2,497.8 457.4,500.0 457.6,502.5 457.7,506.5 457.9,501.5 458.1,499.1 458.3,504.2 458.4,503.4 458.6,499.8 458.8,494.7 459.0,503.1 459.1,501.1 459.3,502.5 459.5,499.5 459.7,501.5 459.8,500.7 460.0,501.9 460.2,504.2 460.4,502.6 460.6,497.9 460.7,500.0 460.9,504.9 461.1,504.0 461.3,503.2 461.4,504.5 461.6,502.1 461.8,503.6 462.0,498.6 462.1,501.2 462.3,500.5 462.5,499.2 462.7,503.4 462.8,499.5 463.0,511.2 463.2,496.3 463.4,503.9 463.5,501.5 463.7,499.7 463.9,504.1 464.1,508.3 464.3,503.2 464.4,503.9 464.6,501.1 464.8,499.7 465.0,504.6 465.1,505.8 465.3,505.5 465.5,502.1 465.7,505.9 465.8,505.9 466.0,500.2 466.2,500.0 466.4,503.1 466.5,511.5 466.7,502.8 466.9,501.0 467.1,503.9 467.2,501.7 467.4,499.5 467.6,502.8 467.8,499.4 467.9,501.6 468.1,499.6 468.3,502.6 468.5,503.5 468.7,507.8 468.8,502.6 469.0,504.2 469.2,506.9 469.4,502.3 469.5,507.6 469.7,503.0 469.9,504.4 470.1,505.1 470.2,501.7 470.4,503.7 470.6,506.1 470.8,500.3 470.9,500.8 471.1,502.6 471.3,500.5 471.5,499.0 471.6,505.2 471.8,506.4 472.0,502.3 472.2,503.3 472.3,502.4 472.5,502.6 472.7,505.9 472.9,503.0 473.1,502.8 473.2,503.0 473.4,500.7 473.6,505.8 473.8,505.4 473.9,504.0 474.1,500.8 474.3,504.6 474.5,505.9 474.6,503.5 474.8,502.7 475.0,500.8 475.2,506.3 475.3,503.8 475.5,501.3 475.7,504.5 475.9,505.0 476.0,502.7 476.2,505.7 476.4,501.5 476.6,503.3 476.7,506.7 476.9,499.4 477.1,496.2 477.3,502.9 477.5,503.5 477.6,501.4 477.8,505.0 478.0,502.9 478.2,497.8 478.3,505.0 478.5,501.8 478.7,505.5 478.9,501.8 479.0,502.5 479.2,504.0 479.4,501.3 479.6,506.4 479.7,507.2 479.9,504.7 480.1,503.7 480.3,505.4 480.4,503.7 480.6,507.6 480.8,506.9 481.0,504.6 481.2,502.6 481.3,511.9 481.5,504.6 481.7,504.1 481.9,499.6 482.0,506.9 482.2,505.1 482.4,502.6 482.6,505.5 482.7,501.5 482.9,506.6 483.1,505.5 483.3,504.0 483.4,501.7 483.6,500.6 483.8,499.3 484.0,507.2 484.1,507.1 484.3,499.0 484.5,503.9 484.7,501.8 484.8,504.6 485.0,508.9 485.2,505.3 485.4,500.0 485.6,504.6 485.7,506.8 485.9,501.4 486.1,500.4 486.3,498.4 486.4,503.1 486.6,506.1 486.8,508.3 487.0,501.5 487.1,498.2 487.3,501.8 487.5,507.5 487.7,501.3 487.8,507.1 488.0,509.3 488.2,504.2 488.4,508.2 488.5,500.9 488.7,504.8 488.9,501.6 489.1,505.8 489.2,508.6 489.4,502.8 489.6,504.1 489.8,503.0 490.0,509.2 490.1,503.8 490.3,502.0 490.5,509.2 490.7,503.3 490.8,501.7 491.0,499.8 491.2,503.0 491.4,504.2 491.5,506.4 491.7,507.1 491.9,506.8 492.1,501.9 492.2,505.2 492.4,504.9 492.6,498.7 492.8,507.0 492.9,502.9 493.1,509.7 493.3,503.8 493.5,496.8 493.6,500.0 493.8,507.4 494.0,502.2 494.2,508.9 494.4,509.0 494.5,505.0 494.7,501.9 494.9,507.1 495.1,506.7 495.2,502.9 495.4,505.7 495.6,506.3 495.8,503.1 495.9,501.8 496.1,505.3 496.3,507.3 496.5,510.2 496.6,503.5 496.8,506.7 497.0,505.0 497.2,500.1 497.3,506.1 497.5,499.0 497.7,502.4 497.9,506.3 498.0,504.6 498.2,499.8 498.4,506.9 498.6,508.3 498.8,503.9 498.9,500.5 499.1,502.9 499.3,505.3 499.5,506.3 499.6,508.1 499.8,506.5 500.0,509.6 500.2,504.2 500.3,507.6 500.5,507.1 500.7,498.0 500.9,503.3 501.0,502.5 501.2,499.1 501.4,504.1 501.6,505.7 501.7,499.2 501.9,504.6 502.1,503.0 502.3,502.9 502.5,506.5 502.6,506.9 502.8,502.8 503.0,503.9 503.2,506.8 503.3,506.2 503.5,510.7 503.7,505.7 503.9,510.0 504.0,510.7 504.2,504.0 504.4,506.6 504.6,501.8 504.7,509.1 504.9,499.5 505.1,502.9 505.3,509.3 505.4,502.6 505.6,498.0 505.8,499.6 506.0,506.2 506.1,504.3 506.3,500.7 506.5,507.5 506.7,507.9 506.9,506.3 507.0,505.5 507.2,502.4 507.4,506.7 507.6,504.9 507.7,506.8 507.9,506.2 508.1,509.5 508.3,505.3 508.4,501.0 508.6,503.8 508.8,501.7 509.0,505.7 509.1,508.7 509.3,505.0 509.5,509.3 509.7,503.7 509.8,505.5 510.0,507.1 510.2,507.5 510.4,505.1 510.5,503.2 510.7,505.3 510.9,505.1 511.1,508.7 511.3,505.5 511.4,506.3 511.6,509.3 511.8,508.8 512.0,507.2 512.1,508.8 512.3,502.5 512.5,503.9 512.7,501.6 512.8,506.3 513.0,502.9 513.2,506.2 513.4,501.2 513.5,510.8 513.7,501.4 513.9,504.7 514.1,504.0 514.2,508.3 514.4,503.8 514.6,508.6 514.8,503.7 514.9,507.8 515.1,510.6 515.3,510.6 515.5,505.7 515.7,509.0 515.8,511.6 516.0,507.0 516.2,507.2 516.4,510.0 516.5,505.2 516.7,504.1 516.9,505.7 517.1,504.7 517.2,502.1 517.4,502.7 517.6,505.1 517.8,506.7 517.9,504.5 518.1,507.8 518.3,510.5 518.5,505.7 518.6,508.4 518.8,508.9 519.0,507.7 519.2,505.5 519.3,505.1 519.5,504.2 519.7,506.2 519.9,504.0 520.1,504.4 520.2,509.9 520.4,507.9 520.6,506.8 520.8,503.0 520.9,507.8 521.1,504.8 521.3,505.6 521.5,509.0 521.6,502.5 521.8,503.0 522.0,512.7 522.2,508.0 522.3,504.2 522.5,513.3 522.7,508.2 522.9,506.5 523.0,507.7 523.2,505.7 523.4,509.6 523.6,507.0 523.8,506.5 523.9,508.2 524.1,503.6 524.3,509.7 524.5,503.2 524.6,500.7 524.8,505.9 525.0,511.0 525.2,506.1 525.3,506.5 525.5,509.5 525.7,513.1 525.9,500.7 526.0,511.0 526.2,504.8 526.4,511.8 526.6,508.4 526.7,507.4 526.9,507.4 527.1,504.9 527.3,507.3 527.4,508.9 527.6,508.2 527.8,506.1 528.0,508.4 528.2,508.9 528.3,510.6 528.5,508.6 528.7,510.9 528.9,510.6 529.0,511.8 529.2,507.4 529.4,507.6 529.6,506.0 529.7,507.0 529.9,509.0 530.1,505.9 530.3,506.0 530.4,503.8 530.6,502.6 530.8,507.8 531.0,503.5 531.1,506.3 531.3,508.0 531.5,506.9 531.7,505.8 531.8,508.5 532.0,503.6 532.2,508.1 532.4,507.4 532.6,507.2 532.7,510.4 532.9,501.2 533.1,502.8 533.3,507.5 533.4,506.5 533.6,506.2 533.8,508.7 534.0,508.6 534.1,507.5 534.3,509.3 534.5,510.9 534.7,506.8 534.8,505.5 535.0,511.3 535.2,508.2 535.4,508.8 535.5,508.4 535.7,507.4 535.9,509.3 536.1,515.0 536.2,510.2 536.4,508.0 536.6,506.4 536.8,502.1 537.0,507.0 537.1,511.0 537.3,505.5 537.5,507.5 537.7,508.1 537.8,506.2 538.0,509.5 538.2,507.1 538.4,505.9 538.5,505.0 538.7,508.1 538.9,508.3 539.1,505.5 539.2,505.1 539.4,505.2 539.6,508.0 539.8,509.2 539.9,513.2 540.1,508.6 540.3,509.3 540.5,511.5 540.7,506.7 540.8,511.1 541.0,505.6 541.2,507.5 541.4,505.7 541.5,505.8 541.7,509.1 541.9,507.6 542.1,509.0 542.2,505.3 542.4,509.0 542.6,508.8 542.8,504.7 542.9,507.5 543.1,508.9 543.3,505.7 543.5,508.8 543.6,513.6 543.8,506.4 544.0,508.8 544.2,506.0 544.3,509.7 544.5,514.2 544.7,507.5 544.9,502.8 545.1,508.4 545.2,503.2 545.4,501.9 545.6,511.1 545.8,505.1 545.9,505.5 546.1,506.2 546.3,509.9 546.5,510.5 546.6,509.7 546.8,508.4 547.0,510.4 547.2,511.7 547.3,507.6 547.5,507.9 547.7,504.9 547.9,507.9 548.0,510.7 548.2,510.1 548.4,507.9 548.6,507.8 548.7,508.8 548.9,506.9 549.1,504.7 549.3,511.9 549.5,512.5 549.6,509.9 549.8,508.2 550.0,509.6 550.2,512.7 550.3,506.1 550.5,507.3 550.7,509.2 550.9,507.9 551.0,508.4 551.2,509.2 551.4,510.6 551.6,505.4 551.7,500.0 551.9,512.0 552.1,505.8 552.3,504.8 552.4,508.4 552.6,506.0 552.8,504.4 553.0,507.5 553.1,509.0 553.3,502.1 553.5,509.2 553.7,510.8 553.9,515.1 554.0,505.0 554.2,509.9 554.4,508.7 554.6,504.6 554.7,506.4 554.9,506.9 555.1,514.1 555.3,510.3 555.4,508.8 555.6,508.7 555.8,507.2 556.0,508.4 556.1,507.3 556.3,508.7 556.5,513.4 556.7,510.8 556.8,503.4 557.0,511.6 557.2,507.4 557.4,508.4 557.5,508.9 557.7,507.3 557.9,512.6 558.1,512.5 558.3,507.3 558.4,513.4 558.6,505.4 558.8,509.1 559.0,509.0 559.1,507.1 559.3,507.3 559.5,509.8 559.7,506.1 559.8,508.3 560.0,504.6 560.2,513.7 560.4,511.2 560.5,510.2 560.7,511.8 560.9,506.6 561.1,511.3 561.2,506.8 561.4,507.9 561.6,514.9 561.8,505.7 562.0,508.3 562.1,515.9 562.3,510.3 562.5,509.8 562.7,510.0 562.8,508.8 563.0,511.1 563.2,511.7 563.4,509.3 563.5,508.6 563.7,507.7 563.9,509.6 564.1,509.8 564.2,508.6 564.4,511.9 564.6,508.2 564.8,515.1 564.9,510.1 565.1,511.8 565.3,509.3 565.5,508.3 565.6,509.9 565.8,506.0 566.0,511.0 566.2,512.4 566.4,515.3 566.5,513.9 566.7,505.9 566.9,505.8 567.1,509.9 567.2,506.4 567.4,511.7 567.6,508.6 567.8,510.8 567.9,512.6 568.1,505.7 568.3,509.0 568.5,506.9 568.6,507.9 568.8,506.3 569.0,509.3 569.2,511.2 569.3,504.2 569.5,510.6 569.7,509.0 569.9,507.5 570.0,510.2 570.2,508.9 570.4,507.9 570.6,507.0 570.8,510.3 570.9,512.8 571.1,507.2 571.3,510.3 571.5,512.4 571.6,506.2 571.8,514.3 572.0,508.5 572.2,504.6 572.3,505.9 572.5,512.2 572.7,509.0 572.9,511.9 573.0,504.0 573.2,510.5 573.4,509.6 573.6,509.5 573.7,509.7 573.9,515.0 574.1,508.8 574.3,507.8 574.4,515.2 574.6,513.9 574.8,510.1 575.0,508.7 575.2,506.4 575.3,511.5 575.5,511.1 575.7,513.8 575.9,510.5 576.0,508.9 576.2,508.3 576.4,513.9 576.6,510.1 576.7,511.0 576.9,510.1 577.1,508.1 577.3,512.9 577.4,508.6 577.6,508.4 577.8,506.8 578.0,515.2 578.1,506.2 578.3,511.5 578.5,510.6 578.7,511.4 578.8,512.9 579.0,508.5 579.2,509.4 579.4,509.1 579.6,507.3 579.7,509.4 579.9,508.4 580.1,510.7 580.3,507.0 580.4,507.4 580.6,511.7 580.8,509.7 581.0,512.2 581.1,516.7 581.3,509.6 581.5,510.7 581.7,514.0 581.8,508.9 582.0,508.1 582.2,509.9 582.4,508.6 582.5,512.8 582.7,507.4 582.9,509.2 583.1,512.6 583.3,510.2 583.4,513.7 583.6,506.8 583.8,509.0 584.0,508.8 584.1,515.0 584.3,511.5 584.5,510.6 584.7,509.5 584.8,510.1 585.0,513.1 585.2,505.2 585.4,513.3 585.5,512.5 585.7,507.9 585.9,505.6 586.1,510.9 586.2,517.5 586.4,509.5 586.6,510.4 586.8,508.7 586.9,512.0 587.1,509.9 587.3,509.1 587.5,514.3 587.7,510.3 587.8,510.8 588.0,504.4 588.2,510.5 588.4,506.8 588.5,508.4 588.7,512.9 588.9,509.4 589.1,510.6 589.2,514.5 589.4,507.1 589.6,508.7 589.8,511.1 589.9,515.7 590.1,514.8 590.3,516.4 590.5,509.7 590.6,516.4 590.8,509.9 591.0,512.3 591.2,515.3 591.3,504.0 591.5,510.7 591.7,511.0 591.9,510.4 592.1,507.7 592.2,507.2 592.4,508.5 592.6,509.9 592.8,515.7 592.9,511.0 593.1,511.6 593.3,511.3 593.5,510.9 593.6,512.3 593.8,506.9 594.0,510.6 594.2,514.2 594.3,513.6 594.5,510.0 594.7,508.6 594.9,509.8 595.0,505.4 595.2,510.9 595.4,507.4 595.6,511.9 595.7,512.7 595.9,512.1 596.1,510.3 596.3,509.1 596.5,510.5 596.6,514.4 596.8,511.8 597.0,514.3 597.2,512.0 597.3,511.5 597.5,510.7 597.7,513.4 597.9,507.7 598.0,507.7 598.2,515.8 598.4,515.5 598.6,519.9 598.7,513.9 598.9,513.2 599.1,507.6 599.3,509.6 599.4,510.8 599.6,511.1 599.8,512.3 600.0,511.8 600.2,508.6 600.3,514.4 600.5,516.0 600.7,516.5 600.9,511.9 601.0,508.7 601.2,513.0 601.4,512.3 601.6,513.3 601.7,510.8 601.9,514.3 602.1,512.7 602.3,514.9 602.4,509.7 602.6,511.5 602.8,513.9 603.0,512.7 603.1,510.0 603.3,514.1 603.5,508.4 603.7,510.6 603.8,511.0 604.0,509.9 604.2,509.7 604.4,514.5 604.6,510.9 604.7,507.9 604.9,514.7 605.1,515.6 605.3,514.7 605.4,516.9 605.6,513.0 605.8,514.1 606.0,514.2 606.1,515.5 606.3,514.0 606.5,508.4 606.7,507.0 606.8,511.1 607.0,512.5 607.2,513.6 607.4,507.9 607.5,514.1 607.7,514.5 607.9,513.5 608.1,507.3 608.2,509.8 608.4,512.3 608.6,510.4 608.8,506.7 609.0,514.7 609.1,514.3 609.3,515.1 609.5,510.9 609.7,508.1 609.8,511.6 610.0,508.9 610.2,510.3 610.4,514.2 610.5,510.3 610.7,511.2 610.9,510.4 611.1,516.6 611.2,513.9 611.4,514.4 611.6,511.1 611.8,512.7 611.9,515.7 612.1,510.6 612.3,514.0 612.5,504.7 612.6,508.7 612.8,511.6 613.0,511.6 613.2,508.0 613.4,511.8 613.5,512.6 613.7,513.9 613.9,513.3 614.1,506.2 614.2,509.0 614.4,512.1 614.6,510.2 614.8,508.5 614.9,512.1 615.1,519.1 615.3,509.9 615.5,513.6 615.6,511.1 615.8,515.3 616.0,508.2 616.2,514.5 616.3,513.3 616.5,513.8 616.7,512.0 616.9,511.6 617.0,514.7 617.2,511.8 617.4,510.3 617.6,515.8 617.8,507.3 617.9,511.0 618.1,510.2 618.3,516.0 618.5,515.2 618.6,507.8 618.8,515.6 619.0,512.7 619.2,513.3 619.3,512.9 619.5,515.3 619.7,514.7 619.9,512.5 620.0,513.8 620.2,517.4 620.4,513.1 620.6,514.7 620.7,516.6 620.9,511.2 621.1,514.1 621.3,512.3 621.5,513.9 621.6,513.3 621.8,512.4 622.0,512.8 622.2,517.8 622.3,515.4 622.5,508.2 622.7,517.2 622.9,512.5 623.0,514.7 623.2,514.5 623.4,510.3 623.6,509.5 623.7,519.9 623.9,507.8 624.1,516.3 624.3,515.1 624.4,516.4 624.6,514.2 624.8,508.7 625.0,515.1 625.1,514.8 625.3,513.7 625.5,512.4 625.7,511.2 625.9,513.8 626.0,512.8 626.2,518.1 626.4,515.8 626.6,510.0 626.7,512.1 626.9,516.6 627.1,516.2 627.3,514.2 627.4,517.2 627.6,514.5 627.8,515.4 628.0,511.3 628.1,511.6 628.3,518.2 628.5,515.4 628.7,513.2 628.8,515.6 629.0,515.3 629.2,519.8 629.4,515.1 629.5,514.6 629.7,512.1 629.9,511.1 630.1,508.6 630.3,513.8 630.4,517.6 630.6,516.2 630.8,513.1 631.0,516.2 631.1,512.1 631.3,511.1 631.5,510.8 631.7,513.5 631.8,512.2 632.0,510.8 632.2,518.3 632.4,513.5 632.5,510.6 632.7,514.6 632.9,512.0 633.1,510.9 633.2,515.2 633.4,512.7 633.6,510.2 633.8,516.0 633.9,520.6 634.1,510.0 634.3,509.3 634.5,517.9 634.7,513.2 634.8,515.5 635.0,510.6 635.2,514.3 635.4,513.5 635.5,509.9 635.7,510.3 635.9,515.8 636.1,513.4 636.2,513.3 636.4,514.0 636.6,518.1 636.8,512.4 636.9,515.1 637.1,517.0 637.3,512.7 637.5,512.0 637.6,511.5 637.8,514.3 638.0,515.5 638.2,511.1 638.3,511.6 638.5,515.3 638.7,512.1 638.9,518.3 639.1,511.8 639.2,512.7 639.4,509.0 639.6,512.3 639.8,516.0 639.9,513.8 640.1,511.3 640.3,512.5 640.5,509.7 640.6,510.1 640.8,513.1 641.0,515.8 641.2,512.8 641.3,514.2 641.5,517.1 641.7,508.7 641.9,522.9 642.0,513.5 642.2,507.7 642.4,518.0 642.6,508.1 642.8,510.6 642.9,511.2 643.1,508.3 643.3,517.0 643.5,512.5 643.6,510.9 643.8,513.0 644.0,514.2 644.2,516.4 644.3,517.4 644.5,515.7 644.7,514.0 644.9,517.1 645.0,516.1 645.2,520.4 645.4,515.7 645.6,516.8 645.7,514.1 645.9,515.3 646.1,515.9 646.3,513.9 646.4,515.7 646.6,513.6 646.8,517.9 647.0,517.1 647.2,514.8 647.3,513.2 647.5,519.9 647.7,513.7 647.9,513.4 648.0,519.2 648.2,517.2 648.4,516.1 648.6,513.6 648.7,515.9 648.9,519.3 649.1,516.0 649.3,512.6 649.4,522.0 649.6,510.9 649.8,508.7 650.0,516.8 650.1,512.4 650.3,514.2 650.5,514.3 650.7,511.7 650.8,517.9 651.0,515.8 651.2,511.2 651.4,516.5 651.6,513.5 651.7,512.6 651.9,515.5 652.1,514.8 652.3,520.5 652.4,517.3 652.6,515.4 652.8,510.8 653.0,515.1 653.1,511.8 653.3,510.7 653.5,515.0 653.7,519.9 653.8,514.7 654.0,520.1 654.2,517.8 654.4,516.1 654.5,516.6 654.7,516.1 654.9,514.5 655.1,513.2 655.2,511.3 655.4,515.8 655.6,516.8 655.8,516.4 656.0,511.7 656.1,518.6 656.3,511.3 656.5,514.8 656.7,514.3 656.8,517.9 657.0,512.9 657.2,517.9 657.4,515.5 657.5,520.6 657.7,511.7 657.9,512.9 658.1,516.1 658.2,516.3 658.4,515.2 658.6,513.7 658.8,514.4 658.9,513.5 659.1,514.5 659.3,518.5 659.5,514.3 659.6,513.6 659.8,516.3 660.0,516.3 660.2,511.8 660.4,514.4 660.5,514.3 660.7,511.8 660.9,517.0 661.1,516.5 661.2,516.1 661.4,514.4 661.6,513.3 661.8,517.4 661.9,515.9 662.1,515.4 662.3,514.8 662.5,517.8 662.6,516.7 662.8,512.9 663.0,517.8 663.2,514.2 663.3,513.5 663.5,518.8 663.7,517.8 663.9,511.1 664.1,517.3 664.2,520.4 664.4,514.4 664.6,519.7 664.8,514.5 664.9,515.1 665.1,515.9 665.3,519.2 665.5,514.0 665.6,519.9 665.8,518.8 666.0,519.7 666.2,517.5 666.3,513.3 666.5,515.6 666.7,518.1 666.9,512.4 667.0,520.3 667.2,511.2 667.4,516.0 667.6,515.5 667.7,514.7 667.9,513.8 668.1,518.6 668.3,511.7 668.5,516.6 668.6,515.9 668.8,515.5 669.0,517.2 669.2,515.0 669.3,514.1 669.5,516.0 669.7,515.5 669.9,519.2 670.0,510.7 670.2,516.7 670.4,515.9 670.6,517.8 670.7,514.1 670.9,516.0 671.1,517.4 671.3,516.1 671.4,517.5 671.6,517.7 671.8,514.0 672.0,513.9 672.1,513.4 672.3,516.5 672.5,515.7 672.7,513.6 672.9,517.6 673.0,515.8 673.2,517.5 673.4,514.3 673.6,513.4 673.7,508.7 673.9,515.6 674.1,516.7 674.3,514.5 674.4,513.7 674.6,515.1 674.8,511.5 675.0,515.4 675.1,517.4 675.3,517.7 675.5,519.6 675.7,512.6 675.8,516.6 676.0,517.3 676.2,518.0 676.4,514.1 676.5,512.3 676.7,516.9 676.9,516.5 677.1,514.2 677.3,512.0 677.4,515.7 677.6,521.3 677.8,515.3 678.0,514.6 678.1,516.4 678.3,512.1 678.5,518.6 678.7,513.1 678.8,518.7 679.0,519.2 679.2,513.0 679.4,514.0 679.5,516.2 679.7,518.7 679.9,516.4 680.1,515.5 680.2,514.0 680.4,518.0 680.6,509.7 680.8,514.9 681.0,515.3 681.1,517.6 681.3,513.3 681.5,511.6 681.7,512.0 681.8,515.1 682.0,523.3 682.2,512.7 682.4,517.4 682.5,513.1 682.7,516.6 682.9,511.8 683.1,519.2 683.2,517.1 683.4,514.8 683.6,516.4 683.8,517.2 683.9,514.7 684.1,516.1 684.3,512.0 684.5,513.9 684.6,520.2 684.8,516.9 685.0,513.4 685.2,516.0 685.4,512.4 685.5,517.5 685.7,516.2 685.9,517.3 686.1,521.6 686.2,519.5 686.4,518.6 686.6,512.4 686.8,516.6 686.9,515.9 687.1,517.3 687.3,515.8 687.5,515.2 687.6,517.9 687.8,517.4 688.0,519.0 688.2,516.6 688.3,519.4 688.5,518.2 688.7,519.7 688.9,517.4 689.0,517.9 689.2,522.5 689.4,514.1 689.6,515.7 689.8,511.8 689.9,514.7 690.1,518.7 690.3,518.7 690.5,515.6 690.6,519.0 690.8,515.0 691.0,519.5 691.2,511.9 691.3,514.9 691.5,519.9 691.7,518.5 691.9,511.8 692.0,514.4 692.2,518.5 692.4,520.1 692.6,519.2 692.7,518.2 692.9,516.3 693.1,516.6 693.3,513.2 693.4,516.0 693.6,514.8 693.8,515.1 694.0,509.2 694.2,521.2 694.3,519.1 694.5,518.3 694.7,517.5 694.9,518.9 695.0,515.2 695.2,517.2 695.4,515.7 695.6,518.1 695.7,514.1 695.9,516.5 696.1,515.8 696.3,518.3 696.4,516.6 696.6,519.0 696.8,516.5 697.0,511.7 697.1,517.2 697.3,520.1 697.5,514.8 697.7,518.4 697.8,514.6 698.0,515.2 698.2,513.4 698.4,515.1 698.6,518.3 698.7,516.5 698.9,514.3 699.1,517.9 699.3,517.1 699.4,519.3 699.6,514.9 699.8,517.2 700.0,517.0 700.1,516.3 700.3,515.9 700.5,516.2 700.7,519.7 700.8,518.0 701.0,516.8 701.2,520.9 701.4,518.5 701.5,516.5 701.7,513.1 701.9,516.4 702.1,518.1 702.3,518.2 702.4,517.9 702.6,521.4 702.8,518.9 703.0,517.1 703.1,518.2 703.3,520.1 703.5,515.6 703.7,520.3 703.8,516.9 704.0,521.8 704.2,512.3 704.4,518.8 704.5,517.7 704.7,513.8 704.9,518.9 705.1,522.2 705.2,522.3 705.4,516.5 705.6,519.4 705.8,515.9 705.9,517.2 706.1,518.6 706.3,517.3 706.5,517.6 706.7,519.6 706.8,518.7 707.0,520.1 707.2,518.8 707.4,515.8 707.5,515.5 707.7,514.7 707.9,517.3 708.1,516.5 708.2,516.0 708.4,516.0 708.6,518.0 708.8,519.4 708.9,521.9 709.1,516.6 709.3,517.4 709.5,518.4 709.6,516.5 709.8,515.6 710.0,517.9 710.2,520.0 710.3,515.1 710.5,515.7 710.7,517.2 710.9,519.7 711.1,521.2 711.2,518.5 711.4,514.8 711.6,515.3 711.8,521.0 711.9,518.1 712.1,517.8 712.3,518.6 712.5,521.2 712.6,520.1 712.8,519.1 713.0,520.7 713.2,522.9 713.3,520.9 713.5,521.7 713.7,514.9 713.9,520.0 714.0,517.3 714.2,519.9 714.4,520.9 714.6,518.1 714.7,518.8 714.9,517.5 715.1,514.8 715.3,513.1 715.5,520.9 715.6,512.9 715.8,521.0 716.0,518.6 716.2,519.3 716.3,523.2 716.5,520.0 716.7,514.0 716.9,522.9 717.0,518.9 717.2,510.7 717.4,518.2 717.6,519.8 717.7,512.6 717.9,523.9 718.1,519.8 718.3,519.2 718.4,519.6 718.6,517.0 718.8,519.2 719.0,519.5 719.1,516.5 719.3,521.0 719.5,521.1 719.7,523.3 719.9,517.7 720.0,520.5 720.2,519.7 720.4,522.8 720.6,517.0 720.7,516.7 720.9,517.3 721.1,517.1 721.3,515.2 721.4,517.3 721.6,517.4 721.8,513.6 722.0,512.2 722.1,521.2 722.3,517.3 722.5,517.1 722.7,515.3 722.8,521.3 723.0,516.8 723.2,517.2 723.4,520.5 723.6,518.5 723.7,514.0 723.9,513.5 724.1,520.2 724.3,514.4 724.4,516.3 724.6,520.1 724.8,523.0 725.0,519.5 725.1,524.4 725.3,522.3 725.5,517.6 725.7,519.0 725.8,514.8 726.0,518.5 726.2,512.8 726.4,514.1 726.5,518.7 726.7,513.8 726.9,516.7 727.1,517.7 727.2,522.8 727.4,519.7 727.6,517.7 727.8,515.5 728.0,514.0 728.1,516.6 728.3,516.4 728.5,523.7 728.7,520.7 728.8,523.0 729.0,518.3 729.2,514.1 729.4,520.5 729.5,517.2 729.7,518.5 729.9,515.8 730.1,520.8 730.2,517.9 730.4,522.0 730.6,519.3 730.8,523.5 730.9,517.7 731.1,521.3 731.3,520.4 731.5,518.8 731.6,518.1 731.8,512.9 732.0,515.7 732.2,522.7 732.4,520.5 732.5,516.9 732.7,519.1 732.9,517.7 733.1,518.1 733.2,521.9 733.4,517.8 733.6,520.7 733.8,518.3 733.9,514.6 734.1,520.1 734.3,522.2 734.5,515.8 734.6,519.3 734.8,522.6 735.0,521.3 735.2,520.4 735.3,520.5 735.5,519.1 735.7,523.7 735.9,519.7 736.0,513.5 736.2,514.2 736.4,519.2 736.6,522.6 736.8,513.5 736.9,520.0 737.1,513.7 737.3,516.1 737.5,519.2 737.6,521.3 737.8,518.4 738.0,518.5 738.2,519.6 738.3,520.4 738.5,523.3 738.7,516.1 738.9,518.7 739.0,517.8 739.2,516.8 739.4,520.7 739.6,517.0 739.7,519.1 739.9,517.5 740.1,518.4 740.3,518.7 740.5,517.2 740.6,519.7 740.8,519.4 741.0,515.5 741.2,519.3 741.3,516.8 741.5,516.2 741.7,520.8 741.9,517.0 742.0,521.8 742.2,517.7 742.4,515.9 742.6,515.2 742.7,520.7 742.9,519.2 743.1,515.3 743.3,517.2 743.4,522.8 743.6,523.4 743.8,520.3 744.0,518.9 744.1,520.4 744.3,518.3 744.5,519.5 744.7,520.7 744.9,516.9 745.0,513.2 745.2,517.8 745.4,520.3 745.6,512.8 745.7,515.8 745.9,516.3 746.1,515.1 746.3,515.5 746.4,522.3 746.6,522.4 746.8,518.9 747.0,521.0 747.1,521.5 747.3,520.4 747.5,518.9 747.7,518.6 747.8,516.4 748.0,515.4 748.2,519.9 748.4,520.5 748.5,518.9 748.7,521.3 748.9,521.6 749.1,520.7 749.3,517.0 749.4,519.4 749.6,520.8 749.8,515.6 750.0,520.4 750.1,516.0 750.3,521.1 750.5,519.5 750.7,518.0 750.8,518.6 751.0,523.1 751.2,527.0 751.4,523.0 751.5,524.1 751.7,521.6 751.9,518.3 752.1,518.6 752.2,518.4 752.4,524.2 752.6,522.2 752.8,517.8 752.9,520.3 753.1,514.4 753.3,524.7 753.5,518.6 753.7,515.9 753.8,517.9 754.0,518.5 754.2,522.3 754.4,528.3 754.5,521.5 754.7,518.3 754.9,523.8 755.1,520.9 755.2,515.8 755.4,518.3 755.6,521.7 755.8,523.0 755.9,518.3 756.1,517.2 756.3,519.4 756.5,517.5 756.6,517.5 756.8,519.6 757.0,515.7 757.2,520.6 757.3,517.4 757.5,527.7 757.7,520.8 757.9,519.5 758.1,516.5 758.2,520.7 758.4,518.2 758.6,525.1 758.8,520.2 758.9,512.7 759.1,521.4 759.3,518.3 759.5,514.1 759.6,520.1 759.8,520.8 760.0,521.7 760.2,520.7 760.3,527.8 760.5,513.6 760.7,518.2 760.9,522.2 761.0,523.9 761.2,518.9 761.4,522.1 761.6,521.8 761.8,518.0 761.9,521.7 762.1,521.8 762.3,522.6 762.5,520.0 762.6,523.1 762.8,521.2 763.0,518.0 763.2,524.0 763.3,518.6 763.5,519.6 763.7,521.6 763.9,520.3 764.0,518.4 764.2,514.0 764.4,517.1 764.6,516.0 764.7,521.2 764.9,520.8 765.1,516.1 765.3,514.7 765.4,522.0 765.6,520.0 765.8,523.8 766.0,519.9 766.2,521.3 766.3,524.5 766.5,519.5 766.7,520.5 766.9,515.5 767.0,521.0 767.2,523.5 767.4,520.9 767.6,517.1 767.7,517.5 767.9,519.1 768.1,518.9 768.3,521.5 768.4,516.5 768.6,520.0 768.8,519.2 769.0,517.9 769.1,517.8 769.3,526.7 769.5,521.5 769.7,524.2 769.8,520.2 770.0,519.3 770.2,522.3 770.4,522.9 770.6,525.0 770.7,525.1 770.9,520.0 771.1,522.5 771.3,521.8 771.4,521.9 771.6,523.6 771.8,519.0 772.0,519.7 772.1,524.5 772.3,519.1 772.5,517.3 772.7,520.3 772.8,520.4 773.0,521.4 773.2,523.4 773.4,518.6 773.5,521.6 773.7,521.1 773.9,524.1 774.1,518.5 774.2,518.8 774.4,520.6 774.6,521.7 774.8,521.1 775.0,516.8 775.1,519.1 775.3,517.1 775.5,519.6 775.7,517.6 775.8,522.5 776.0,518.6 776.2,522.0 776.4,521.2 776.5,520.0 776.7,522.4 776.9,517.0 777.1,518.2 777.2,518.4 777.4,522.2 777.6,518.7 777.8,522.5 777.9,518.1 778.1,522.1 778.3,523.8 778.5,526.7 778.6,521.1 778.8,517.2 779.0,522.7 779.2,521.4 779.4,520.1 779.5,520.3 779.7,518.6 779.9,520.9 780.1,521.5 780.2,523.4 780.4,522.3 780.6,517.2 780.8,522.2 780.9,521.0 781.1,521.8 781.3,519.5 781.5,524.7 781.6,518.0 781.8,524.9 782.0,519.2 782.2,516.5 782.3,518.5 782.5,521.7 782.7,522.2 782.9,520.8 783.1,518.2 783.2,522.2 783.4,519.0 783.6,524.3 783.8,519.1 783.9,518.2 784.1,520.8 784.3,520.2 784.5,521.0 784.6,520.9 784.8,523.7 785.0,522.6 785.2,524.2 785.3,521.4 785.5,520.4 785.7,519.3 785.9,519.4 786.0,518.5 786.2,522.1 786.4,521.8 786.6,520.3 786.7,525.1 786.9,518.3 787.1,522.7 787.3,521.5 787.5,521.3 787.6,526.3 787.8,517.5 788.0,518.5 788.2,525.4 788.3,519.0 788.5,525.5 788.7,523.0 788.9,515.1 789.0,523.3 789.2,519.7 789.4,523.4 789.6,524.1 789.7,519.5 789.9,522.7 790.1,519.7 790.3,524.3 790.4,522.0 790.6,521.7 790.8,519.0 791.0,524.1 791.1,521.6 791.3,520.3 791.5,515.9 791.7,524.2 791.9,519.6 792.0,519.5 792.2,525.2 792.4,518.2 792.6,521.1 792.7,523.4 792.9,523.7 793.1,522.2 793.3,518.7 793.4,520.3 793.6,519.7 793.8,526.4 794.0,521.7 794.1,520.3 794.3,526.8 794.5,518.4 794.7,521.0 794.8,521.3 795.0,523.2 795.2,519.3 795.4,523.5 795.5,525.9 795.7,522.8 795.9,526.1 796.1,521.3 796.3,519.9 796.4,518.2 796.6,523.7 796.8,523.4 797.0,525.4 797.1,522.6 797.3,524.3 797.5,522.5 797.7,519.0 797.8,518.8 798.0,524.7 798.2,520.9 798.4,522.8 798.5,520.9 798.7,519.8 798.9,520.4 799.1,522.0 799.2,524.3 799.4,523.0 799.6,524.6 799.8,521.7 799.9,521.4 800.1,522.2 800.3,519.4 800.5,521.3 800.7,528.0 800.8,526.3 801.0,520.3 801.2,517.6 801.4,520.3 801.5,521.8 801.7,522.7 801.9,515.7 802.1,517.7 802.2,520.3 802.4,527.5 802.6,523.5 802.8,525.9 802.9,525.9 803.1,517.8 803.3,516.0 803.5,520.4 803.6,520.6 803.8,525.0 804.0,524.1 804.2,524.3 804.4,523.9 804.5,519.9 804.7,525.9 804.9,518.2 805.1,521.5 805.2,518.7 805.4,520.3 805.6,517.3 805.8,525.3 805.9,523.4 806.1,520.0 806.3,520.8 806.5,524.9 806.6,524.7 806.8,521.3 807.0,525.4 807.2,527.1 807.3,522.6 807.5,515.9 807.7,525.2 807.9,520.8 808.0,522.7 808.2,522.6 808.4,522.7 808.6,520.4 808.8,520.7 808.9,520.6 809.1,522.8 809.3,522.1 809.5,523.3 809.6,515.5 809.8,525.8 810.0,524.6 810.2,523.1 810.3,522.1 810.5,522.6 810.7,523.3 810.9,521.0 811.0,524.4 811.2,522.5 811.4,519.6 811.6,520.0 811.7,519.2 811.9,518.2 812.1,524.6 812.3,517.7 812.4,522.7 812.6,523.5 812.8,520.4 813.0,521.4 813.2,520.6 813.3,519.5 813.5,516.4 813.7,524.4 813.9,520.2 814.0,523.1 814.2,524.4 814.4,523.1 814.6,522.6 814.7,520.7 814.9,515.4 815.1,525.2 815.3,524.3 815.4,527.0 815.6,522.6 815.8,518.2 816.0,518.7 816.1,519.9 816.3,523.7 816.5,519.9 816.7,517.3 816.8,526.3 817.0,519.7 817.2,526.5 817.4,516.5 817.6,524.0 817.7,518.7 817.9,518.8 818.1,522.3 818.3,521.2 818.4,522.2 818.6,521.2 818.8,520.7 819.0,520.7 819.1,524.0 819.3,519.4 819.5,522.0 819.7,523.7 819.8,520.1 820.0,525.5 820.2,521.1 820.4,521.0 820.5,525.8 820.7,523.9 820.9,521.4 821.1,522.7 821.3,524.9 821.4,521.9 821.6,522.5 821.8,524.3 822.0,520.7 822.1,527.0 822.3,517.2 822.5,522.7 822.7,523.3 822.8,518.0 823.0,518.5 823.2,524.9 823.4,523.8 823.5,523.1 823.7,524.0 823.9,525.4 824.1,517.8 824.2,521.1 824.4,524.6 824.6,525.5 824.8,521.4 824.9,524.2 825.1,517.6 825.3,525.6 825.5,521.6 825.7,522.6 825.8,517.9 826.0,521.1 826.2,517.8 826.4,525.3 826.5,525.7 826.7,524.6 826.9,521.4 827.1,522.0 827.2,530.6 827.4,524.0 827.6,522.6 827.8,524.7 827.9,525.3 828.1,527.3 828.3,524.9 828.5,525.3 828.6,519.3 828.8,520.1 829.0,521.9 829.2,524.4 829.3,525.8 829.5,520.6 829.7,523.2 829.9,520.6 830.1,527.9 830.2,521.2 830.4,521.2 830.6,524.2 830.8,523.3 830.9,522.2 831.1,520.0 831.3,520.2 831.5,521.4 831.6,524.2 831.8,522.5 832.0,522.6 832.2,528.6 832.3,521.0 832.5,523.0 832.7,526.1 832.9,524.5 833.0,518.9 833.2,518.9 833.4,526.1 833.6,518.9 833.7,517.3 833.9,522.6 834.1,524.0 834.3,525.6 834.5,519.7 834.6,518.3 834.8,519.5 835.0,521.1 835.2,524.6 835.3,525.4 835.5,519.5 835.7,530.7 835.9,525.4 836.0,521.7 836.2,522.0 836.4,520.7 836.6,525.0 836.7,523.4 836.9,524.9 837.1,522.5 837.3,524.2 837.4,528.8 837.6,520.6 837.8,527.3 838.0,524.0 838.1,524.2 838.3,520.0 838.5,520.8 838.7,519.3 838.9,522.6 839.0,516.8 839.2,527.5 839.4,523.1 839.6,524.1 839.7,524.6 839.9,519.7 840.1,522.1 840.3,521.8 840.4,524.7 840.6,522.4 840.8,522.0 841.0,525.7 841.1,523.3 841.3,523.3 841.5,524.0 841.7,519.7 841.8,527.4 842.0,523.7 842.2,520.9 842.4,519.2 842.6,527.0 842.7,518.8 842.9,526.7 843.1,522.0 843.3,524.2 843.4,517.5 843.6,526.5 843.8,520.6 844.0,518.3 844.1,523.5 844.3,519.1 844.5,522.1 844.7,525.1 844.8,523.9 845.0,524.2 845.2,522.4 845.4,525.2 845.5,523.3 845.7,522.8 845.9,517.1 846.1,526.0 846.2,522.7 846.4,518.2 846.6,522.1 846.8,523.0 847.0,522.9 847.1,521.3 847.3,519.2 847.5,531.1 847.7,525.4 847.8,524.3 848.0,523.0 848.2,520.2 848.4,525.4 848.5,524.3 848.7,527.8 848.9,518.6 849.1,518.1 849.2,526.1 849.4,522.6 849.6,522.1 849.8,520.6 849.9,519.5 850.1,527.3 850.3,523.3 850.5,522.9 850.6,521.7 850.8,524.3 851.0,524.3 851.2,528.0 851.4,524.1 851.5,520.8 851.7,520.5 851.9,521.3 852.1,520.1 852.2,522.7 852.4,522.2 852.6,522.8 852.8,528.6 852.9,523.6 853.1,522.2 853.3,521.1 853.5,519.3 853.6,524.4 853.8,529.0 854.0,523.6 854.2,527.5 854.3,519.7 854.5,525.6 854.7,523.7 854.9,525.7 855.0,520.4 855.2,525.0 855.4,522.4 855.6,521.4 855.8,523.0 855.9,523.8 856.1,521.6 856.3,522.2 856.5,518.5 856.6,520.2 856.8,526.1 857.0,522.0 857.2,520.3 857.3,517.4 857.5,518.9 857.7,520.1 857.9,523.7 858.0,521.9 858.2,523.1 858.4,520.9 858.6,520.4 858.7,520.4 858.9,521.6 859.1,518.3 859.3,525.3 859.4,523.5 859.6,524.0 859.8,521.5 860.0,523.1 860.2,525.0 860.3,520.9 860.5,523.0 860.7,526.5 860.9,525.9 861.0,526.3 861.2,520.1 861.4,526.2 861.6,520.4 861.7,521.7 861.9,524.7 862.1,526.2 862.3,522.1 862.4,522.6 862.6,521.0 862.8,521.5 863.0,521.7 863.1,528.0 863.3,524.1 863.5,522.2 863.7,524.7 863.9,520.6 864.0,522.3 864.2,526.3 864.4,525.7 864.6,522.3 864.7,526.1 864.9,524.5 865.1,522.1 865.3,523.4 865.4,520.3 865.6,524.7 865.8,526.6 866.0,524.2 866.1,526.1 866.3,526.7 866.5,518.6 866.7,525.4 866.8,525.3 867.0,521.1 867.2,525.6 867.4,524.1 867.5,524.3 867.7,523.7 867.9,518.0 868.1,526.5 868.3,518.3 868.4,523.4 868.6,520.9 868.8,523.9 869.0,529.5 869.1,526.0 869.3,522.5 869.5,519.4 869.7,524.2 869.8,523.1 870.0,518.8 870.2,521.4 870.4,526.0 870.5,525.4 870.7,526.5 870.9,525.1 871.1,522.8 871.2,525.7 871.4,525.7 871.6,522.1 871.8,522.6 871.9,526.3 872.1,528.0 872.3,528.8 872.5,516.9 872.7,526.8 872.8,523.3 873.0,525.6 873.2,528.7 873.4,525.8 873.5,523.4 873.7,519.8 873.9,523.8 874.1,524.7 874.2,521.1 874.4,522.4 874.6,522.2 874.8,523.8 874.9,524.0 875.1,525.9 875.3,525.2 875.5,524.7 875.6,528.0 875.8,521.8 876.0,524.4 876.2,522.0 876.3,525.0 876.5,518.7 876.7,524.7 876.9,523.7 877.1,521.9 877.2,522.4 877.4,526.0 877.6,524.5 877.8,525.8 877.9,524.7 878.1,519.2 878.3,527.8 878.5,523.3 878.6,524.4 878.8,521.9 879.0,517.8 879.2,522.9 879.3,525.5 879.5,522.3 879.7,525.0 879.9,522.6 880.0,526.0 880.2,522.4 880.4,526.5 880.6,522.8 880.8,523.5 880.9,524.5 881.1,522.2 881.3,526.3 881.5,530.4 881.6,527.4 881.8,522.7 882.0,525.4 882.2,524.6 882.3,526.4 882.5,525.8 882.7,521.3 882.9,523.5 883.0,516.9 883.2,522.5 883.4,524.5 883.6,524.9 883.7,520.8 883.9,523.4 884.1,516.4 884.3,527.2 884.4,518.7 884.6,527.9 884.8,527.7 885.0,522.0 885.2,526.6 885.3,526.3 885.5,527.0 885.7,526.4 885.9,527.4 886.0,520.0 886.2,525.4 886.4,523.9 886.6,525.6 886.7,522.2 886.9,526.1 887.1,521.6 887.3,520.6 887.4,521.7 887.6,520.6 887.8,523.6 888.0,525.1 888.1,520.9 888.3,527.2 888.5,521.9 888.7,517.4 888.8,523.7 889.0,527.3 889.2,520.1 889.4,521.3 889.6,525.8 889.7,521.9 889.9,529.2 890.1,523.3 890.3,526.3 890.4,521.9 890.6,527.7 890.8,519.1 891.0,528.5 891.1,521.6 891.3,525.4 891.5,529.1 891.7,525.8 891.8,523.4 892.0,526.8 892.2,524.4 892.4,518.7 892.5,518.8 892.7,524.4 892.9,523.5 893.1,523.2 893.2,524.3 893.4,528.3 893.6,524.5 893.8,526.2 894.0,524.3 894.1,528.0 894.3,525.2 894.5,529.5 894.7,521.4 894.8,520.9 895.0,522.2 895.2,523.0 895.4,521.2 895.5,522.0 895.7,523.9 895.9,525.5 896.1,527.0 896.2,526.7 896.4,527.2 896.6,520.6 896.8,525.6 896.9,524.0 897.1,526.2 897.3,525.8 897.5,527.1 897.6,519.5 897.8,524.8 898.0,522.1 898.2,526.0 898.4,531.4 898.5,532.0 898.7,521.6 898.9,518.9 899.1,524.2 899.2,521.9 899.4,527.3 899.6,523.0 899.8,525.6 899.9,525.4 900.1,525.8 900.3,523.9 900.5,523.8 900.6,525.8 900.8,526.8 901.0,525.5 901.2,523.3 901.3,520.9 901.5,528.4 901.7,526.5 901.9,532.3 902.1,524.0 902.2,528.2 902.4,525.2 902.6,522.3 902.8,524.0 902.9,520.1 903.1,521.9 903.3,531.1 903.5,524.5 903.6,521.6 903.8,521.6 904.0,526.1 904.2,528.4 904.3,519.3 904.5,524.7 904.7,529.7 904.9,528.2 905.0,524.8 905.2,526.0 905.4,527.9 905.6,525.4 905.7,524.7 905.9,524.6 906.1,525.1 906.3,519.8 906.5,525.7 906.6,525.8 906.8,524.2 907.0,521.5 907.2,524.4 907.3,520.0 907.5,530.0 907.7,524.6 907.9,525.9 908.0,522.9 908.2,523.6 908.4,527.2 908.6,523.2 908.7,518.9 908.9,523.0 909.1,528.5 909.3,525.3 909.4,526.2 909.6,520.3 909.8,524.9 910.0,528.4 910.1,523.4 910.3,521.3 910.5,527.6 910.7,522.3 910.9,531.3 911.0,522.1 911.2,529.1 911.4,526.1 911.6,527.6 911.7,524.2 911.9,525.4 912.1,526.8 912.3,523.8 912.4,526.2 912.6,525.2 912.8,527.9 913.0,523.2 913.1,525.7 913.3,526.2 913.5,525.0 913.7,521.7 913.8,524.5 914.0,522.8 914.2,525.3 914.4,524.3 914.5,527.2 914.7,518.9 914.9,521.9 915.1,522.7 915.3,522.5 915.4,522.6 915.6,530.3 915.8,526.1 916.0,531.7 916.1,524.3 916.3,525.4 916.5,526.7 916.7,524.1 916.8,521.6 917.0,526.6 917.2,525.1 917.4,527.7 917.5,527.6 917.7,527.8 917.9,524.9 918.1,525.5 918.2,527.8 918.4,526.5 918.6,529.2 918.8,525.7 918.9,527.5 919.1,522.6 919.3,522.8 919.5,521.9 919.7,519.8 919.8,525.2 920.0,524.5 920.2,523.2 920.4,524.3 920.5,520.4 920.7,521.5 920.9,523.6 921.1,523.3 921.2,525.4 921.4,526.4 921.6,526.9 921.8,526.4 921.9,530.6 922.1,523.0 922.3,528.1 922.5,524.2 922.6,527.9 922.8,523.7 923.0,523.2 923.2,526.7 923.4,525.0 923.5,523.4 923.7,529.9 923.9,527.0 924.1,527.5 924.2,523.1 924.4,527.5 924.6,523.2 924.8,519.4 924.9,525.3 925.1,529.2 925.3,521.6 925.5,530.9 925.6,525.6 925.8,528.8 926.0,521.4 926.2,525.6 926.3,525.1 926.5,522.9 926.7,527.3 926.9,522.7 927.0,524.0 927.2,530.8 927.4,524.7 927.6,525.6 927.8,523.9 927.9,526.1 928.1,529.1 928.3,525.7 928.5,527.4 928.6,525.6 928.8,525.5 929.0,517.6 929.2,524.3 929.3,518.5 929.5,526.0 929.7,525.6 929.9,522.2 930.0,528.6 930.2,526.4 930.4,526.2 930.6,519.7 930.7,522.9 930.9,519.6 931.1,524.5 931.3,522.8 931.4,527.0 931.6,528.9 931.8,519.6 932.0,527.6 932.2,525.3 932.3,526.8 932.5,527.2 932.7,524.7 932.9,521.7 933.0,522.9 933.2,521.6 933.4,523.8 933.6,527.4 933.7,528.2 933.9,518.6 934.1,523.5 934.3,523.7 934.4,522.6 934.6,525.4 934.8,523.2 935.0,520.8 935.1,523.7 935.3,525.7 935.5,526.4 935.7,527.1 935.8,529.5 936.0,525.5 936.2,525.0 936.4,524.7 936.6,529.7 936.7,525.7 936.9,527.8 937.1,526.1 937.3,528.2 937.4,524.0 937.6,524.2 937.8,530.3 938.0,526.6 938.1,528.5 938.3,525.4 938.5,525.1 938.7,522.6 938.8,526.5 939.0,528.6 939.2,524.1 939.4,524.7 939.5,528.1 939.7,523.8 939.9,522.3 940.1,523.7 940.3,527.1 940.4,522.2 940.6,528.0 940.8,526.5 941.0,520.6 941.1,519.7 941.3,525.7 941.5,526.2 941.7,529.0 941.8,518.9 942.0,524.2 942.2,524.0 942.4,520.7 942.5,527.4 942.7,525.5 942.9,524.9 943.1,526.8 943.2,521.9 943.4,520.1 943.6,527.3 943.8,522.2 943.9,528.0 944.1,523.2 944.3,523.8 944.5,521.2 944.7,518.5 944.8,520.6 945.0,527.5 945.2,529.5 945.4,521.3 945.5,526.7 945.7,531.6 945.9,524.6 946.1,527.2 946.2,522.6 946.4,524.6 946.6,525.2 946.8,526.4 946.9,524.2 947.1,526.0 947.3,527.5 947.5,525.5 947.6,527.1 947.8,524.9 948.0,522.1 948.2,522.6 948.3,524.5 948.5,523.1 948.7,523.4 948.9,528.0 949.1,526.5 949.2,526.9 949.4,524.2 949.6,524.4 949.8,527.8 949.9,523.9 950.1,531.2 950.3,526.5 950.5,522.6 950.6,522.6 950.8,528.4 951.0,527.0 951.2,525.8 951.3,524.1 951.5,526.3 951.7,522.4 951.9,526.5 952.0,525.0 952.2,523.6 952.4,524.8 952.6,530.5 952.7,522.4 952.9,522.2 953.1,522.7 953.3,530.6 953.5,523.0 953.6,521.9 953.8,527.6 954.0,527.3 954.2,526.1 954.3,525.6 954.5,526.7 954.7,524.9 954.9,524.7 955.0,524.3 955.2,522.4 955.4,527.5 955.6,523.9 955.7,526.5 955.9,528.8 956.1,526.4 956.3,520.6 956.4,528.4 956.6,527.1 956.8,525.9 957.0,524.0 957.1,523.3 957.3,520.3 957.5,523.7 957.7,527.1 957.9,527.7 958.0,526.0 958.2,530.9 958.4,521.3 958.6,524.8 958.7,525.5 958.9,523.9 959.1,525.8 959.3,527.7 959.4,523.9 959.6,529.1 959.8,521.0 960.0,526.6 960.1,527.5 960.3,526.0 960.5,526.7 960.7,525.8 960.8,526.0 961.0,526.7 961.2,529.4 961.4,526.7 961.6,528.2 961.7,527.1 961.9,524.9 962.1,525.3 962.3,529.6 962.4,527.3 962.6,525.2 962.8,522.8 963.0,522.7 963.1,524.5 963.3,522.7 963.5,527.9 963.7,520.2 963.8,530.7 964.0,529.4 964.2,522.0 964.4,526.6 964.5,522.3 964.7,524.0 964.9,530.8 965.1,520.1 965.2,528.5 965.4,528.4 965.6,522.8 965.8,530.0 966.0,527.5 966.1,520.4 966.3,527.8 966.5,525.2 966.7,528.9 966.8,524.7 967.0,527.2 967.2,523.4 967.4,530.6 967.5,527.9 967.7,524.2 967.9,519.0 968.1,527.4 968.2,524.2 968.4,528.2 968.6,527.1 968.8,520.5 968.9,526.2 969.1,525.9 969.3,520.6 969.5,527.5 969.6,522.1 969.8,529.8 970.0,528.8" fill="none" stroke="#2563eb" stroke-width="2.2"/>
<line x1="102" y1="83" x2="126" y2="83" stroke="#2563eb" stroke-width="3"/>
<text x="133" y="87" font-family="sans-serif" font-size="12">baseline</text>
</svg>
