<svg xmlns="http://www.w3.org/2000/svg" width="1000" height="640" viewBox="0 0 1000 640">
<rect width="100%" height="100%" fill="white"/>
<text x="500.0" y="34" text-anchor="middle" font-family="sans-serif" font-size="22">TinyStories architecture ablations</text>
<line x1="90.00" y1="70" x2="90.00" y2="560" stroke="#e5e7eb"/>
<text x="90.00" y="588" text-anchor="middle" font-family="sans-serif" font-size="12">3.3M</text>
<line x1="220.00" y1="70" x2="220.00" y2="560" stroke="#e5e7eb"/>
<text x="220.00" y="588" text-anchor="middle" font-family="sans-serif" font-size="12">68M</text>
<line x1="350.00" y1="70" x2="350.00" y2="560" stroke="#e5e7eb"/>
<text x="350.00" y="588" text-anchor="middle" font-family="sans-serif" font-size="12">1.3e+02M</text>
<line x1="480.00" y1="70" x2="480.00" y2="560" stroke="#e5e7eb"/>
<text x="480.00" y="588" text-anchor="middle" font-family="sans-serif" font-size="12">2e+02M</text>
<line x1="610.00" y1="70" x2="610.00" y2="560" stroke="#e5e7eb"/>
<text x="610.00" y="588" text-anchor="middle" font-family="sans-serif" font-size="12">2.6e+02M</text>
<line x1="740.00" y1="70" x2="740.00" y2="560" stroke="#e5e7eb"/>
<text x="740.00" y="588" text-anchor="middle" font-family="sans-serif" font-size="12">3.3e+02M</text>
<line x1="90" y1="560.00" x2="740" y2="560.00" stroke="#e5e7eb"/>
<text x="78" y="564.00" text-anchor="end" font-family="sans-serif" font-size="12">1.206</text>
<line x1="90" y1="462.00" x2="740" y2="462.00" stroke="#e5e7eb"/>
<text x="78" y="466.00" text-anchor="end" font-family="sans-serif" font-size="12">1.921</text>
<line x1="90" y1="364.00" x2="740" y2="364.00" stroke="#e5e7eb"/>
<text x="78" y="368.00" text-anchor="end" font-family="sans-serif" font-size="12">2.636</text>
<line x1="90" y1="266.00" x2="740" y2="266.00" stroke="#e5e7eb"/>
<text x="78" y="270.00" text-anchor="end" font-family="sans-serif" font-size="12">3.351</text>
<line x1="90" y1="168.00" x2="740" y2="168.00" stroke="#e5e7eb"/>
<text x="78" y="172.00" text-anchor="end" font-family="sans-serif" font-size="12">4.066</text>
<line x1="90" y1="70.00" x2="740" y2="70.00" stroke="#e5e7eb"/>
<text x="78" y="74.00" text-anchor="end" font-family="sans-serif" font-size="12">4.78</text>
<line x1="90" y1="560" x2="740" y2="560" stroke="#111827"/>
<line x1="90" y1="70" x2="90" y2="560" stroke="#111827"/>
<text x="415.0" y="618" text-anchor="middle" font-family="sans-serif" font-size="15">processed_tokens</text>
<text x="22" y="315.0" text-anchor="middle" transform="rotate(-90 22 315.0)" font-family="sans-serif" font-size="15">validation_loss</text>
<polyline points="90.00,101.53 96.57,291.26 103.13,353.39 109.70,388.04 116.26,411.44 122.83,430.78 129.39,444.09 135.96,454.38 142.53,459.33 149.09,466.67 155.66,471.81 162.22,475.88 168.79,479.48 175.35,478.59 181.92,486.68 188.48,485.32 195.05,487.74 201.62,489.88 208.18,492.28 214.75,493.61 221.31,494.16 227.88,496.70 234.44,496.26 241.01,500.10 247.58,498.79 254.14,501.71 260.71,503.15 267.27,503.29 273.84,505.69 280.40,504.72 286.97,506.09 293.54,504.79 300.10,508.91 306.67,507.52 313.23,511.69 319.80,509.42 326.36,511.41 332.93,513.51 339.49,514.16 346.06,512.37 352.63,516.01 359.19,514.82 365.76,516.43 372.32,516.28 378.89,517.64 385.45,517.48 392.02,519.32 398.59,517.31 405.15,519.73 411.72,517.81 418.28,519.10 424.85,520.59 431.41,522.68 437.98,523.72 444.55,520.84 451.11,521.18 457.68,526.08 464.24,521.22 470.81,525.77 477.37,524.59 483.94,525.69 490.51,524.49 497.07,526.74 503.64,528.33 510.20,525.47 516.77,529.30 523.33,527.38 529.90,529.69 536.46,527.93 543.03,528.86 549.60,529.97 556.16,526.11 562.73,532.11 569.29,530.32 575.86,529.25 582.42,531.04 588.99,531.87 595.56,531.35 602.12,532.33 608.69,533.09 615.25,534.43 621.82,532.55 628.38,531.95 634.95,534.84 641.52,533.42 648.08,532.86 654.65,535.44 661.21,534.30 667.78,533.60 674.34,532.97 680.91,534.68 687.47,535.84 694.04,536.12 700.61,534.62 707.17,533.47 713.74,536.87 720.30,534.18 726.87,535.66 733.43,533.88 740.00,534.63" fill="none" stroke="#2563eb" stroke-width="2.5"/>
<line x1="765" y1="70" x2="795" y2="70" stroke="#2563eb" stroke-width="3"/>
<text x="805" y="74" font-family="sans-serif" font-size="13">tinystories_baseline</text>
<polyline points="90.00,157.72 96.57,297.09 103.13,348.59 109.70,381.93 116.26,403.38 122.83,420.76 129.39,433.43 135.96,443.77 142.53,448.56 149.09,456.09 155.66,460.57 162.22,464.72 168.79,469.03 175.35,467.88 181.92,476.30 188.48,475.12 195.05,477.57 201.62,479.96 208.18,482.63 214.75,484.09 221.31,484.60 227.88,487.06 234.44,486.90 241.01,490.61 247.58,490.19 254.14,492.68 260.71,494.36 267.27,494.12 273.84,496.83 280.40,496.03 286.97,497.85 293.54,496.18 300.10,500.63 306.67,499.60 313.23,503.70 319.80,501.55 326.36,503.59 332.93,505.94 339.49,506.86 346.06,505.06 352.63,508.99 359.19,507.58 365.76,509.74 372.32,509.27 378.89,510.77 385.45,510.84 392.02,512.81 398.59,510.75 405.15,513.62 411.72,511.62 418.28,513.61 424.85,514.63 431.41,517.30 437.98,518.29 444.55,515.27 451.11,515.88 457.68,520.91 464.24,516.31 470.81,520.93 477.37,519.47 483.94,521.24 490.51,520.37 497.07,522.26 503.64,524.20 510.20,521.74 516.77,525.10 523.33,523.31 529.90,526.10 536.46,524.37 543.03,525.56 549.60,526.71 556.16,522.56 562.73,529.32 569.29,527.23 575.86,526.35 582.42,528.14 588.99,529.26 595.56,528.46 602.12,529.72 608.69,531.11 615.25,532.05 621.82,530.06 628.38,529.85 634.95,532.53 641.52,531.46 648.08,531.29 654.65,533.77 661.21,532.48 667.78,531.74 674.34,531.23 680.91,533.01 687.47,534.08 694.04,534.45 700.61,533.19 707.17,531.96 713.74,535.56 720.30,532.61 726.87,534.23 733.43,532.41 740.00,533.48" fill="none" stroke="#dc2626" stroke-width="2.5"/>
<line x1="765" y1="94" x2="795" y2="94" stroke="#dc2626" stroke-width="3"/>
<text x="805" y="98" font-family="sans-serif" font-size="13">tinystories_no_rmsnorm</text>
<polyline points="90.00,105.70 96.57,292.98 103.13,356.22 109.70,390.00 116.26,412.40 122.83,431.04 129.39,444.21 135.96,453.89 142.53,459.59 149.09,466.60 155.66,471.15 162.22,475.35 168.79,479.13 175.35,478.24 181.92,485.69 188.48,484.38 195.05,486.95 201.62,488.88 208.18,491.48 214.75,492.82 221.31,493.38 227.88,495.75 234.44,494.93 241.01,499.26 247.58,498.67 254.14,500.29 260.71,502.46 267.27,502.43 273.84,505.23 280.40,503.90 286.97,505.49 293.54,504.27 300.10,508.26 306.67,507.12 313.23,511.05 319.80,508.80 326.36,510.98 332.93,512.99 339.49,514.04 346.06,512.01 352.63,515.64 359.19,514.71 365.76,516.00 372.32,515.98 378.89,516.75 385.45,517.36 392.02,519.15 398.59,517.12 405.15,519.70 411.72,517.51 418.28,519.09 424.85,520.52 431.41,522.66 437.98,523.63 444.55,520.96 451.11,521.44 457.68,526.29 464.24,521.50 470.81,525.91 477.37,524.76 483.94,525.95 490.51,525.12 497.07,526.70 503.64,528.74 510.20,526.27 516.77,529.85 523.33,527.77 529.90,530.43 536.46,528.41 543.03,529.51 549.60,530.68 556.16,526.88 562.73,532.79 569.29,530.88 575.86,530.00 582.42,531.63 588.99,532.64 595.56,532.07 602.12,533.12 608.69,533.82 615.25,535.19 621.82,533.27 628.38,532.93 634.95,535.63 641.52,534.42 648.08,533.95 654.65,536.31 661.21,535.22 667.78,534.62 674.34,533.96 680.91,535.89 687.47,536.88 694.04,537.21 700.61,535.68 707.17,534.14 713.74,537.73 720.30,535.06 726.87,536.66 733.43,534.78 740.00,535.72" fill="none" stroke="#059669" stroke-width="2.5"/>
<line x1="765" y1="118" x2="795" y2="118" stroke="#059669" stroke-width="3"/>
<text x="805" y="122" font-family="sans-serif" font-size="13">tinystories_postnorm</text>
<polyline points="90.00,96.30 96.57,238.47 103.13,289.49 109.70,338.80 116.26,373.35 122.83,398.35 129.39,416.02 135.96,428.77 142.53,435.23 149.09,444.57 155.66,450.39 162.22,455.35 168.79,459.97 175.35,458.95 181.92,467.16 188.48,467.39 195.05,470.02 201.62,472.30 208.18,475.44 214.75,477.03 221.31,478.38 227.88,481.31 234.44,480.84 241.01,485.14 247.58,484.40 254.14,487.10 260.71,488.80 267.27,488.87 273.84,491.50 280.40,490.31 286.97,492.02 293.54,490.74 300.10,495.44 306.67,494.61 313.23,498.77 319.80,496.31 326.36,498.44 332.93,501.16 339.49,502.10 346.06,499.75 352.63,503.90 359.19,502.40 365.76,504.93 372.32,504.45 378.89,505.48 385.45,505.97 392.02,507.62 398.59,505.55 405.15,508.39 411.72,506.11 418.28,508.18 424.85,509.35 431.41,511.70 437.98,512.72 444.55,509.93 451.11,510.25 457.68,515.14 464.24,510.40 470.81,515.04 477.37,513.63 483.94,515.36 490.51,514.23 497.07,515.91 503.64,517.98 510.20,515.02 516.77,519.35 523.33,516.61 529.90,519.85 536.46,517.58 543.03,519.01 549.60,520.20 556.16,516.09 562.73,522.07 569.29,520.51 575.86,519.10 582.42,521.22 588.99,522.16 595.56,521.23 602.12,522.62 608.69,523.48 615.25,524.73 621.82,522.87 628.38,522.33 634.95,525.05 641.52,523.77 648.08,523.11 654.65,526.01 661.21,524.98 667.78,523.83 674.34,523.33 680.91,525.62 687.47,526.48 694.04,526.61 700.61,525.45 707.17,523.99 713.74,527.50 720.30,524.41 726.87,526.22 733.43,524.30 740.00,525.16" fill="none" stroke="#7c3aed" stroke-width="2.5"/>
<line x1="765" y1="142" x2="795" y2="142" stroke="#7c3aed" stroke-width="3"/>
<text x="805" y="146" font-family="sans-serif" font-size="13">tinystories_nope</text>
<polyline points="90.00,92.27 96.57,276.88 103.13,338.36 109.70,371.70 116.26,393.89 122.83,413.52 129.39,427.98 135.96,439.75 142.53,446.47 149.09,454.53 155.66,460.62 162.22,464.97 168.79,470.24 175.35,469.54 181.92,477.57 188.48,476.85 195.05,480.54 201.62,482.28 208.18,484.97 214.75,487.15 221.31,488.00 227.88,490.41 234.44,490.15 241.01,494.17 247.58,493.61 254.14,496.45 260.71,498.56 267.27,497.85 273.84,500.70 280.40,500.05 286.97,501.42 293.54,499.78 300.10,504.21 306.67,503.47 313.23,507.81 319.80,505.09 326.36,507.57 332.93,509.78 339.49,510.54 346.06,508.65 352.63,512.07 359.19,510.89 365.76,512.99 372.32,512.55 378.89,513.80 385.45,514.11 392.02,516.04 398.59,513.76 405.15,516.22 411.72,514.01 418.28,516.01 424.85,517.34 431.41,519.49 437.98,520.62 444.55,517.79 451.11,518.26 457.68,523.20 464.24,518.28 470.81,522.54 477.37,521.33 483.94,522.79 490.51,521.89 497.07,523.45 503.64,525.29 510.20,522.63 516.77,526.39 523.33,524.23 529.90,526.89 536.46,524.92 543.03,526.22 549.60,527.39 556.16,523.47 562.73,529.41 569.29,527.66 575.86,526.45 582.42,528.24 588.99,529.44 595.56,528.46 602.12,530.00 608.69,530.84 615.25,531.81 621.82,530.12 628.38,529.46 634.95,532.24 641.52,531.08 648.08,530.48 654.65,533.17 661.21,531.78 667.78,531.22 674.34,530.65 680.91,532.43 687.47,533.62 694.04,533.68 700.61,532.35 707.17,530.80 713.74,534.46 720.30,531.74 726.87,533.48 733.43,531.51 740.00,532.50" fill="none" stroke="#ea580c" stroke-width="2.5"/>
<line x1="765" y1="166" x2="795" y2="166" stroke="#ea580c" stroke-width="3"/>
<text x="805" y="170" font-family="sans-serif" font-size="13">tinystories_silu</text>
</svg>
