<svg xmlns="http://www.w3.org/2000/svg" width="1000" height="640" viewBox="0 0 1000 640">
<rect width="100%" height="100%" fill="white"/>
<text x="500.0" y="34" text-anchor="middle" font-family="sans-serif" font-size="22">TinyStories baseline</text>
<line x1="90.00" y1="70" x2="90.00" y2="560" stroke="#e5e7eb"/>
<text x="90.00" y="588" text-anchor="middle" font-family="sans-serif" font-size="12">3.3M</text>
<line x1="220.00" y1="70" x2="220.00" y2="560" stroke="#e5e7eb"/>
<text x="220.00" y="588" text-anchor="middle" font-family="sans-serif" font-size="12">68M</text>
<line x1="350.00" y1="70" x2="350.00" y2="560" stroke="#e5e7eb"/>
<text x="350.00" y="588" text-anchor="middle" font-family="sans-serif" font-size="12">1.3e+02M</text>
<line x1="480.00" y1="70" x2="480.00" y2="560" stroke="#e5e7eb"/>
<text x="480.00" y="588" text-anchor="middle" font-family="sans-serif" font-size="12">2e+02M</text>
<line x1="610.00" y1="70" x2="610.00" y2="560" stroke="#e5e7eb"/>
<text x="610.00" y="588" text-anchor="middle" font-family="sans-serif" font-size="12">2.6e+02M</text>
<line x1="740.00" y1="70" x2="740.00" y2="560" stroke="#e5e7eb"/>
<text x="740.00" y="588" text-anchor="middle" font-family="sans-serif" font-size="12">3.3e+02M</text>
<line x1="90" y1="560.00" x2="740" y2="560.00" stroke="#e5e7eb"/>
<text x="78" y="564.00" text-anchor="end" font-family="sans-serif" font-size="12">1.216</text>
<line x1="90" y1="462.00" x2="740" y2="462.00" stroke="#e5e7eb"/>
<text x="78" y="466.00" text-anchor="end" font-family="sans-serif" font-size="12">1.915</text>
<line x1="90" y1="364.00" x2="740" y2="364.00" stroke="#e5e7eb"/>
<text x="78" y="368.00" text-anchor="end" font-family="sans-serif" font-size="12">2.613</text>
<line x1="90" y1="266.00" x2="740" y2="266.00" stroke="#e5e7eb"/>
<text x="78" y="270.00" text-anchor="end" font-family="sans-serif" font-size="12">3.312</text>
<line x1="90" y1="168.00" x2="740" y2="168.00" stroke="#e5e7eb"/>
<text x="78" y="172.00" text-anchor="end" font-family="sans-serif" font-size="12">4.011</text>
<line x1="90" y1="70.00" x2="740" y2="70.00" stroke="#e5e7eb"/>
<text x="78" y="74.00" text-anchor="end" font-family="sans-serif" font-size="12">4.709</text>
<line x1="90" y1="560" x2="740" y2="560" stroke="#111827"/>
<line x1="90" y1="70" x2="90" y2="560" stroke="#111827"/>
<text x="415.0" y="618" text-anchor="middle" font-family="sans-serif" font-size="15">processed_tokens</text>
<text x="22" y="315.0" text-anchor="middle" transform="rotate(-90 22 315.0)" font-family="sans-serif" font-size="15">validation_loss</text>
<polyline points="90.00,92.27 96.57,286.41 103.13,349.98 109.70,385.44 116.26,409.38 122.83,429.17 129.39,442.79 135.96,453.32 142.53,458.38 149.09,465.89 155.66,471.15 162.22,475.32 168.79,479.01 175.35,478.09 181.92,486.38 188.48,484.98 195.05,487.45 201.62,489.65 208.18,492.10 214.75,493.46 221.31,494.02 227.88,496.62 234.44,496.18 241.01,500.10 247.58,498.76 254.14,501.75 260.71,503.22 267.27,503.36 273.84,505.82 280.40,504.82 286.97,506.23 293.54,504.91 300.10,509.12 306.67,507.69 313.23,511.96 319.80,509.64 326.36,511.67 332.93,513.83 339.49,514.49 346.06,512.65 352.63,516.39 359.19,515.16 365.76,516.81 372.32,516.65 378.89,518.05 385.45,517.88 392.02,519.77 398.59,517.71 405.15,520.19 411.72,518.22 418.28,519.54 424.85,521.07 431.41,523.21 437.98,524.27 444.55,521.32 451.11,521.67 457.68,526.69 464.24,521.71 470.81,526.37 477.37,525.16 483.94,526.29 490.51,525.05 497.07,527.36 503.64,528.98 510.20,526.06 516.77,529.98 523.33,528.02 529.90,530.38 536.46,528.57 543.03,529.53 549.60,530.67 556.16,526.71 562.73,532.86 569.29,531.02 575.86,529.93 582.42,531.76 588.99,532.61 595.56,532.07 602.12,533.09 608.69,533.85 615.25,535.23 621.82,533.31 628.38,532.70 634.95,535.65 641.52,534.19 648.08,533.62 654.65,536.26 661.21,535.10 667.78,534.38 674.34,533.73 680.91,535.48 687.47,536.67 694.04,536.96 700.61,535.42 707.17,534.24 713.74,537.73 720.30,534.98 726.87,536.49 733.43,534.66 740.00,535.43" fill="none" stroke="#2563eb" stroke-width="2.5"/>
<line x1="765" y1="70" x2="795" y2="70" stroke="#2563eb" stroke-width="3"/>
<text x="805" y="74" font-family="sans-serif" font-size="13">tinystories_baseline</text>
</svg>
