<svg xmlns="http://www.w3.org/2000/svg" width="1100" height="634" viewBox="0 0 1100 634">
<rect width="1100" height="634" fill="white"/>
<text x="550" y="35" text-anchor="middle" font-family="sans-serif" font-size="24">TinyStories batch comparison (equal tokens)</text>
<line x1="95.00" y1="75.0" x2="95.00" y2="495.0" stroke="#e5e7eb"/>
<text x="95.00" y="518.0" text-anchor="middle" font-family="sans-serif" font-size="12">41k</text>
<line x1="95.0" y1="75.00" x2="1005.0" y2="75.00" stroke="#e5e7eb"/>
<text x="83.0" y="79.00" text-anchor="end" font-family="sans-serif" font-size="12">9.337</text>
<line x1="277.00" y1="75.0" x2="277.00" y2="495.0" stroke="#e5e7eb"/>
<text x="277.00" y="518.0" text-anchor="middle" font-family="sans-serif" font-size="12">6.59M</text>
<line x1="95.0" y1="159.00" x2="1005.0" y2="159.00" stroke="#e5e7eb"/>
<text x="83.0" y="163.00" text-anchor="end" font-family="sans-serif" font-size="12">7.735</text>
<line x1="459.00" y1="75.0" x2="459.00" y2="495.0" stroke="#e5e7eb"/>
<text x="459.00" y="518.0" text-anchor="middle" font-family="sans-serif" font-size="12">13.1M</text>
<line x1="95.0" y1="243.00" x2="1005.0" y2="243.00" stroke="#e5e7eb"/>
<text x="83.0" y="247.00" text-anchor="end" font-family="sans-serif" font-size="12">6.134</text>
<line x1="641.00" y1="75.0" x2="641.00" y2="495.0" stroke="#e5e7eb"/>
<text x="641.00" y="518.0" text-anchor="middle" font-family="sans-serif" font-size="12">19.7M</text>
<line x1="95.0" y1="327.00" x2="1005.0" y2="327.00" stroke="#e5e7eb"/>
<text x="83.0" y="331.00" text-anchor="end" font-family="sans-serif" font-size="12">4.533</text>
<line x1="823.00" y1="75.0" x2="823.00" y2="495.0" stroke="#e5e7eb"/>
<text x="823.00" y="518.0" text-anchor="middle" font-family="sans-serif" font-size="12">26.2M</text>
<line x1="95.0" y1="411.00" x2="1005.0" y2="411.00" stroke="#e5e7eb"/>
<text x="83.0" y="415.00" text-anchor="end" font-family="sans-serif" font-size="12">2.932</text>
<line x1="1005.00" y1="75.0" x2="1005.00" y2="495.0" stroke="#e5e7eb"/>
<text x="1005.00" y="518.0" text-anchor="middle" font-family="sans-serif" font-size="12">32.8M</text>
<line x1="95.0" y1="495.00" x2="1005.0" y2="495.00" stroke="#e5e7eb"/>
<text x="83.0" y="499.00" text-anchor="end" font-family="sans-serif" font-size="12">1.330</text>
<line x1="95.0" y1="495.0" x2="1005.0" y2="495.0" stroke="black"/>
<line x1="95.0" y1="75.0" x2="95.0" y2="495.0" stroke="black"/>
<text x="550.0" y="555.0" text-anchor="middle" font-family="sans-serif">processed tokens</text>
<text x="28" y="285.0" text-anchor="middle" font-family="sans-serif" transform="rotate(-90 28 285.0)">loss</text>
<polyline fill="none" stroke="#2563eb" stroke-width="2" points="95.00,94.09 96.14,142.79 97.28,198.12 98.42,256.47 99.56,287.66 100.69,313.24 101.83,336.16 102.97,348.64 104.11,358.72 105.25,354.38 106.39,355.10 107.53,369.17 108.67,379.23 109.81,388.50 110.94,382.58 112.08,381.36 113.22,394.40 114.36,396.34 115.50,398.85 116.64,389.07 117.78,395.42 118.92,390.76 120.06,395.49 121.20,391.23 122.33,414.93 123.47,390.18 124.61,404.16 125.75,409.83 126.89,395.06 128.03,399.54 129.17,400.98 130.31,407.73 131.45,398.42 132.58,401.38 133.72,404.68 134.86,406.19 136.00,404.46 137.14,402.98 138.28,408.67 139.42,393.49 140.56,407.13 141.70,410.93 142.83,415.33 143.97,411.04 145.11,407.77 146.25,408.78 147.39,403.48 148.53,410.28 149.67,398.43 150.81,404.44 151.95,415.91 153.09,416.97 154.22,407.77 155.36,410.22 156.50,413.17 157.64,407.25 158.78,417.41 159.92,424.65 161.06,410.30 162.20,419.32 163.34,421.19 164.47,415.56 165.61,414.97 166.75,426.42 167.89,420.60 169.03,415.39 170.17,420.05 171.31,418.70 172.45,421.84 173.59,406.20 174.72,411.43 175.86,419.68 177.00,422.75 178.14,412.60 179.28,420.38 180.42,415.19 181.56,416.17 182.70,404.75 183.84,410.23 184.97,409.12 186.11,418.24 187.25,411.18 188.39,415.41 189.53,417.09 190.67,415.65 191.81,425.41 192.95,412.20 194.09,417.41 195.23,413.84 196.36,414.46 197.50,415.76 198.64,419.11 199.78,422.24 200.92,422.28 202.06,412.47 203.20,418.30 204.34,414.98 205.48,418.47 206.61,424.17 207.75,423.27 208.89,419.48 210.03,413.12 211.17,426.37 212.31,433.80 213.45,419.33 214.59,424.47 215.73,413.94 216.86,419.41 218.00,416.46 219.14,413.29 220.28,417.55 221.42,413.43 222.56,413.98 223.70,423.12 224.84,422.24 225.98,413.75 227.12,419.11 228.25,420.33 229.39,412.90 230.53,417.37 231.67,417.50 232.81,412.87 233.95,416.18 235.09,414.29 236.23,420.58 237.37,424.19 238.50,407.65 239.64,406.18 240.78,419.90 241.92,424.52 243.06,422.09 244.20,415.73 245.34,417.64 246.48,414.79 247.62,423.42 248.75,413.87 249.89,406.74 251.03,417.96 252.17,415.64 253.31,413.43 254.45,404.87 255.59,420.67 256.73,414.82 257.87,419.78 259.01,420.32 260.14,428.80 261.28,418.00 262.42,422.24 263.56,415.29 264.70,413.12 265.84,421.83 266.98,412.15 268.12,416.23 269.26,415.09 270.39,413.13 271.53,420.22 272.67,425.26 273.81,408.34 274.95,420.58 276.09,413.50 277.23,422.82 278.37,409.11 279.51,422.56 280.64,419.42 281.78,421.46 282.92,420.13 284.06,409.66 285.20,420.96 286.34,417.25 287.48,421.82 288.62,417.97 289.76,407.62 290.89,418.59 292.03,417.10 293.17,416.75 294.31,419.81 295.45,412.23 296.59,423.06 297.73,418.39 298.87,417.57 300.01,416.33 301.15,413.63 302.28,413.18 303.42,419.26 304.56,425.45 305.70,415.40 306.84,415.25 307.98,418.69 309.12,413.27 310.26,419.50 311.40,412.11 312.53,413.42 313.67,401.64 314.81,417.97 315.95,414.00 317.09,420.01 318.23,416.45 319.37,415.28 320.51,412.78 321.65,418.96 322.78,418.14 323.92,427.81 325.06,426.06 326.20,419.55 327.34,414.38 328.48,419.71 329.62,421.06 330.76,411.22 331.90,424.04 333.04,420.97 334.17,417.21 335.31,416.96 336.45,407.42 337.59,415.82 338.73,404.00 339.87,411.74 341.01,416.88 342.15,416.09 343.29,418.08 344.42,421.31 345.56,411.63 346.70,420.35 347.84,413.56 348.98,422.05 350.12,425.49 351.26,422.82 352.40,420.00 353.54,415.48 354.67,415.78 355.81,422.11 356.95,416.27 358.09,420.47 359.23,425.35 360.37,416.54 361.51,417.40 362.65,420.50 363.79,416.30 364.92,421.39 366.06,416.24 367.20,418.55 368.34,421.61 369.48,422.03 370.62,419.43 371.76,419.59 372.90,412.51 374.04,423.20 375.18,419.81 376.31,403.71 377.45,420.95 378.59,419.27 379.73,425.82 380.87,416.18 382.01,420.54 383.15,423.62 384.29,419.49 385.43,416.04 386.56,412.64 387.70,411.83 388.84,422.68 389.98,418.27 391.12,417.93 392.26,415.47 393.40,407.98 394.54,427.48 395.68,426.97 396.81,428.47 397.95,426.89 399.09,417.33 400.23,414.10 401.37,427.96 402.51,435.25 403.65,425.30 404.79,424.32 405.93,420.23 407.07,416.73 408.20,416.17 409.34,417.99 410.48,416.82 411.62,428.29 412.76,411.31 413.90,417.70 415.04,421.34 416.18,418.71 417.32,414.86 418.45,413.52 419.59,414.44 420.73,421.23 421.87,420.17 423.01,422.96 424.15,420.70 425.29,421.24 426.43,426.38 427.57,424.07 428.70,420.36 429.84,421.52 430.98,416.55 432.12,424.32 433.26,423.77 434.40,406.90 435.54,417.24 436.68,437.96 437.82,421.42 438.95,425.95 440.09,417.99 441.23,419.36 442.37,418.52 443.51,427.63 444.65,427.11 445.79,419.94 446.93,429.79 448.07,421.98 449.21,420.99 450.34,427.58 451.48,420.28 452.62,417.26 453.76,416.60 454.90,421.71 456.04,417.43 457.18,422.32 458.32,412.25 459.46,422.41 460.59,423.56 461.73,423.44 462.87,416.38 464.01,415.96 465.15,428.70 466.29,423.55 467.43,412.37 468.57,422.05 469.71,418.91 470.84,422.32 471.98,422.10 473.12,414.27 474.26,422.48 475.40,422.78 476.54,417.90 477.68,415.05 478.82,427.34 479.96,424.14 481.10,423.34 482.23,424.44 483.37,421.44 484.51,422.47 485.65,430.71 486.79,419.12 487.93,425.49 489.07,416.65 490.21,427.35 491.35,426.37 492.48,421.49 493.62,420.20 494.76,422.80 495.90,430.64 497.04,424.82 498.18,424.70 499.32,430.54 500.46,420.43 501.60,420.60 502.73,418.62 503.87,422.13 505.01,427.11 506.15,427.24 507.29,426.60 508.43,430.17 509.57,431.71 510.71,424.46 511.85,422.68 512.98,420.16 514.12,420.35 515.26,419.37 516.40,421.30 517.54,416.66 518.68,411.84 519.82,416.04 520.96,423.69 522.10,426.24 523.24,424.75 524.37,418.78 525.51,423.97 526.65,434.15 527.79,422.13 528.93,419.65 530.07,420.02 531.21,429.37 532.35,429.85 533.49,427.29 534.62,438.19 535.76,417.17 536.90,435.07 538.04,423.09 539.18,417.13 540.32,425.91 541.46,428.59 542.60,418.25 543.74,423.49 544.87,423.31 546.01,426.75 547.15,428.70 548.29,429.80 549.43,430.48 550.57,430.64 551.71,422.19 552.85,419.30 553.99,432.52 555.13,423.66 556.26,427.15 557.40,423.68 558.54,427.81 559.68,432.18 560.82,435.83 561.96,426.74 563.10,419.78 564.24,423.56 565.38,422.65 566.51,426.14 567.65,426.38 568.79,417.97 569.93,425.85 571.07,429.72 572.21,428.82 573.35,415.51 574.49,429.23 575.63,426.59 576.76,423.83 577.90,434.84 579.04,423.48 580.18,426.68 581.32,423.97 582.46,429.26 583.60,426.45 584.74,428.55 585.88,421.08 587.02,423.16 588.15,426.17 589.29,430.80 590.43,430.42 591.57,419.25 592.71,417.19 593.85,419.05 594.99,430.12 596.13,426.64 597.27,424.27 598.40,422.81 599.54,429.75 600.68,423.38 601.82,427.54 602.96,431.25 604.10,426.28 605.24,432.02 606.38,438.41 607.52,433.48 608.65,433.29 609.79,435.92 610.93,425.97 612.07,426.02 613.21,426.80 614.35,426.89 615.49,430.38 616.63,438.93 617.77,432.29 618.90,423.24 620.04,424.60 621.18,425.86 622.32,432.60 623.46,429.69 624.60,426.58 625.74,436.76 626.88,435.92 628.02,421.33 629.16,429.88 630.29,424.26 631.43,426.70 632.57,428.97 633.71,418.12 634.85,426.36 635.99,427.03 637.13,427.31 638.27,425.62 639.41,426.32 640.54,432.28 641.68,424.54 642.82,435.45 643.96,435.81 645.10,420.45 646.24,428.04 647.38,427.55 648.52,419.69 649.66,435.88 650.79,427.97 651.93,424.80 653.07,425.97 654.21,434.18 655.35,424.57 656.49,433.59 657.63,431.03 658.77,435.99 659.91,430.51 661.05,420.62 662.18,430.29 663.32,425.83 664.46,420.32 665.60,429.68 666.74,432.16 667.88,436.55 669.02,433.70 670.16,422.26 671.30,420.87 672.43,422.62 673.57,419.67 674.71,431.97 675.85,430.56 676.99,422.69 678.13,423.99 679.27,423.46 680.41,429.18 681.55,424.30 682.68,436.37 683.82,431.68 684.96,430.34 686.10,423.93 687.24,435.44 688.38,428.50 689.52,429.13 690.66,431.66 691.80,433.76 692.93,430.92 694.07,434.15 695.21,435.33 696.35,427.51 697.49,433.22 698.63,425.11 699.77,433.78 700.91,434.88 702.05,429.03 703.19,422.99 704.32,428.97 705.46,426.50 706.60,429.97 707.74,434.53 708.88,431.44 710.02,426.11 711.16,432.90 712.30,426.66 713.44,431.07 714.57,415.16 715.71,436.07 716.85,425.83 717.99,436.77 719.13,435.55 720.27,431.53 721.41,429.52 722.55,425.19 723.69,426.71 724.82,435.75 725.96,443.52 727.10,430.41 728.24,443.00 729.38,438.48 730.52,437.97 731.66,435.61 732.80,419.34 733.94,439.10 735.08,427.03 736.21,435.24 737.35,427.65 738.49,431.90 739.63,427.67 740.77,429.21 741.91,437.87 743.05,429.51 744.19,426.48 745.33,433.29 746.46,431.87 747.60,427.45 748.74,429.00 749.88,429.65 751.02,433.50 752.16,436.00 753.30,426.14 754.44,425.12 755.58,434.27 756.71,429.64 757.85,430.79 758.99,433.52 760.13,434.54 761.27,434.26 762.41,425.47 763.55,438.60 764.69,427.64 765.83,423.32 766.96,431.07 768.10,422.90 769.24,434.13 770.38,440.31 771.52,431.47 772.66,429.99 773.80,427.52 774.94,439.98 776.08,429.13 777.22,429.39 778.35,429.12 779.49,435.65 780.63,432.95 781.77,440.15 782.91,424.86 784.05,428.69 785.19,446.63 786.33,421.62 787.47,433.05 788.60,431.04 789.74,440.34 790.88,428.26 792.02,427.38 793.16,431.26 794.30,437.55 795.44,438.58 796.58,425.75 797.72,423.77 798.85,435.76 799.99,436.30 801.13,435.08 802.27,429.72 803.41,440.46 804.55,439.57 805.69,429.94 806.83,425.94 807.97,435.45 809.11,437.43 810.24,419.48 811.38,435.32 812.52,425.25 813.66,426.08 814.80,431.62 815.94,427.13 817.08,432.96 818.22,430.16 819.36,430.57 820.49,434.55 821.63,431.73 822.77,430.11 823.91,441.08 825.05,441.31 826.19,440.99 827.33,438.37 828.47,435.54 829.61,436.78 830.74,436.27 831.88,430.39 833.02,436.73 834.16,442.55 835.30,439.54 836.44,437.98 837.58,431.00 838.72,436.43 839.86,434.64 840.99,429.38 842.13,428.89 843.27,424.55 844.41,437.47 845.55,425.34 846.69,431.29 847.83,428.12 848.97,429.23 850.11,437.55 851.25,433.84 852.38,431.93 853.52,430.69 854.66,425.55 855.80,431.84 856.94,429.12 858.08,432.58 859.22,433.99 860.36,430.76 861.50,435.87 862.63,423.58 863.77,430.75 864.91,432.76 866.05,442.92 867.19,442.56 868.33,437.78 869.47,439.89 870.61,436.35 871.75,432.09 872.88,429.79 874.02,435.57 875.16,436.34 876.30,434.32 877.44,436.41 878.58,439.40 879.72,443.38 880.86,440.11 882.00,435.11 883.14,430.05 884.27,441.04 885.41,434.11 886.55,420.15 887.69,433.22 888.83,430.95 889.97,439.25 891.11,436.82 892.25,435.18 893.39,434.57 894.52,429.63 895.66,440.35 896.80,433.70 897.94,438.76 899.08,432.32 900.22,423.59 901.36,423.35 902.50,439.25 903.64,441.39 904.77,435.56 905.91,432.35 907.05,436.82 908.19,445.36 909.33,432.02 910.47,434.58 911.61,430.47 912.75,436.79 913.89,448.44 915.03,438.68 916.16,431.66 917.30,434.67 918.44,436.02 919.58,433.70 920.72,435.92 921.86,434.22 923.00,434.17 924.14,440.88 925.28,437.54 926.41,441.06 927.55,443.07 928.69,434.52 929.83,438.51 930.97,440.93 932.11,430.82 933.25,431.19 934.39,443.16 935.53,438.83 936.66,440.71 937.80,431.19 938.94,426.65 940.08,434.80 941.22,426.94 942.36,439.70 943.50,438.52 944.64,432.75 945.78,441.68 946.91,444.55 948.05,438.57 949.19,440.65 950.33,428.91 951.47,439.84 952.61,449.04 953.75,434.76 954.89,435.04 956.03,442.12 957.17,433.01 958.30,427.11 959.44,446.14 960.58,435.84 961.72,431.03 962.86,437.52 964.00,447.71 965.14,433.59 966.28,446.35 967.42,435.50 968.55,437.84 969.69,434.40 970.83,437.27 971.97,438.37 973.11,435.97 974.25,430.70 975.39,445.40 976.53,434.21 977.67,436.88 978.80,431.70 979.94,436.57 981.08,442.98 982.22,437.47 983.36,433.27 984.50,433.03 985.64,428.69 986.78,442.96 987.92,443.78 989.06,438.34 990.19,432.27 991.33,434.82 992.47,438.19 993.61,437.21 994.75,436.86 995.89,443.00 997.03,435.59 998.17,433.62 999.31,434.70 1000.44,435.47 1001.58,439.25 1002.72,434.34 1003.86,433.39 1005.00,444.02"><title>batch_equal_tokens_16 train</title></polyline>
<polyline fill="none" stroke="#2563eb" stroke-width="2" stroke-dasharray="7 5" points="139.42,405.95 184.97,415.69 230.53,415.98 276.09,415.79 321.65,418.70 367.20,416.25 412.76,422.65 458.32,421.91 503.87,422.34 549.43,427.07 594.99,427.86 640.54,426.46 686.10,428.40 731.66,432.61 777.22,431.05 822.77,432.06 868.33,435.39 913.89,433.54 959.44,436.95 1005.00,438.24"><title>batch_equal_tokens_16 validation</title></polyline>
<line x1="95" y1="580" x2="123" y2="580" stroke="#2563eb" stroke-width="3"/>
<text x="131" y="585" font-family="sans-serif" font-size="13">batch_equal_tokens_16</text>
<polyline fill="none" stroke="#dc2626" stroke-width="2" points="96.14,111.01 98.42,184.84 100.69,262.79 102.97,311.98 105.25,333.00 107.53,348.67 109.81,371.33 112.08,364.33 114.36,377.82 116.64,377.43 118.92,383.72 121.20,387.64 123.47,392.42 125.75,405.79 128.03,400.81 130.31,409.92 132.58,402.42 134.86,407.95 137.14,406.04 139.42,401.76 141.70,408.26 143.97,408.66 146.25,403.39 148.53,413.52 150.81,408.41 153.09,409.46 155.36,409.08 157.64,415.08 159.92,416.47 162.20,428.20 164.47,418.29 166.75,419.34 169.03,415.81 171.31,421.72 173.59,424.13 175.86,423.66 178.14,419.93 180.42,422.23 182.70,427.85 184.97,424.84 187.25,425.58 189.53,425.47 191.81,425.01 194.09,421.30 196.36,429.67 198.64,425.42 200.92,426.46 203.20,435.83 205.48,430.79 207.75,435.33 210.03,429.72 212.31,427.68 214.59,428.65 216.86,430.60 219.14,433.48 221.42,429.83 223.70,426.26 225.98,433.06 228.25,422.35 230.53,428.04 232.81,429.37 235.09,430.04 237.37,431.78 239.64,427.67 241.92,431.34 244.20,426.59 246.48,432.68 248.75,435.47 251.03,433.50 253.31,434.92 255.59,434.36 257.87,434.28 260.14,435.73 262.42,429.92 264.70,428.50 266.98,427.27 269.26,435.40 271.53,432.50 273.81,435.52 276.09,439.61 278.37,431.57 280.64,435.64 282.92,426.75 285.20,436.13 287.48,431.17 289.76,430.31 292.03,437.12 294.31,423.86 296.59,432.55 298.87,434.49 301.15,436.12 303.42,433.55 305.70,433.85 307.98,434.31 310.26,428.82 312.53,424.40 314.81,440.70 317.09,427.55 319.37,435.99 321.65,437.68 323.92,432.23 326.20,438.42 328.48,438.60 330.76,439.92 333.04,438.30 335.31,434.62 337.59,439.61 339.87,433.88 342.15,431.96 344.42,431.82 346.70,433.84 348.98,434.64 351.26,431.49 353.54,435.06 355.81,423.34 358.09,429.41 360.37,429.09 362.65,439.87 364.92,436.57 367.20,432.07 369.48,436.46 371.76,427.49 374.04,436.10 376.31,437.88 378.59,432.19 380.87,432.71 383.15,431.29 385.43,429.37 387.70,431.55 389.98,434.04 392.26,438.16 394.54,443.92 396.81,431.62 399.09,435.69 401.37,432.64 403.65,433.71 405.93,437.56 408.20,430.74 410.48,429.07 412.76,434.17 415.04,419.65 417.32,434.91 419.59,422.13 421.87,429.53 424.15,435.99 426.43,425.16 428.70,435.36 430.98,423.98 433.26,434.82 435.54,437.44 437.82,433.34 440.09,428.79 442.37,433.70 444.65,436.76 446.93,437.47 449.21,430.61 451.48,437.68 453.76,433.88 456.04,437.18 458.32,428.97 460.59,437.94 462.87,443.70 465.15,435.46 467.43,433.09 469.71,435.84 471.98,440.45 474.26,432.40 476.54,439.46 478.82,440.01 481.10,433.72 483.37,434.35 485.65,434.94 487.93,434.19 490.21,440.30 492.48,437.29 494.76,436.30 497.04,444.68 499.32,431.88 501.60,432.62 503.87,433.62 506.15,443.55 508.43,432.11 510.71,433.85 512.98,431.77 515.26,439.47 517.54,434.09 519.82,429.53 522.10,434.77 524.37,445.27 526.65,431.57 528.93,436.90 531.21,429.41 533.49,438.31 535.76,439.66 538.04,440.63 540.32,440.72 542.60,440.30 544.87,438.28 547.15,435.76 549.43,440.74 551.71,438.75 553.99,442.01 556.26,441.15 558.54,431.53 560.82,438.97 563.10,431.20 565.38,441.69 567.65,442.33 569.93,429.90 572.21,438.03 574.49,440.17 576.76,436.52 579.04,445.24 581.32,436.30 583.60,441.17 585.88,436.86 588.15,442.25 590.43,446.62 592.71,445.59 594.99,440.26 597.27,440.40 599.54,440.46 601.82,437.40 604.10,438.85 606.38,446.17 608.65,437.81 610.93,435.47 613.21,437.54 615.49,433.41 617.77,439.27 620.04,430.15 622.32,438.78 624.60,445.93 626.88,442.91 629.16,442.94 631.43,444.05 633.71,439.97 635.99,440.04 638.27,442.31 640.54,434.37 642.82,441.09 645.10,441.91 647.38,436.82 649.66,442.62 651.93,433.02 654.21,436.29 656.49,443.92 658.77,443.18 661.05,443.74 663.32,440.93 665.60,437.65 667.88,449.06 670.16,442.41 672.43,448.24 674.71,446.79 676.99,439.71 679.27,440.49 681.55,441.26 683.82,445.19 686.10,443.74 688.38,444.03 690.66,444.09 692.93,442.51 695.21,441.65 697.49,440.99 699.77,446.77 702.05,445.78 704.32,443.98 706.60,431.66 708.88,447.35 711.16,441.77 713.44,444.20 715.71,448.27 717.99,437.95 720.27,440.01 722.55,442.93 724.82,441.60 727.10,447.86 729.38,440.53 731.66,445.00 733.94,445.70 736.21,443.82 738.49,443.68 740.77,441.88 743.05,439.24 745.33,441.79 747.60,439.84 749.88,442.92 752.16,444.26 754.44,445.25 756.71,448.18 758.99,448.34 761.27,446.18 763.55,435.51 765.83,450.83 768.10,444.99 770.38,445.62 772.66,448.33 774.94,445.62 777.22,451.13 779.49,443.70 781.77,446.49 784.05,437.67 786.33,442.69 788.60,437.74 790.88,444.56 793.16,440.47 795.44,445.43 797.72,444.87 799.99,446.26 802.27,441.89 804.55,446.51 806.83,440.59 809.11,443.83 811.38,447.95 813.66,451.88 815.94,449.16 818.22,448.88 820.49,444.44 822.77,445.09 825.05,447.64 827.33,450.52 829.61,447.64 831.88,452.13 834.16,441.64 836.44,442.97 838.72,440.44 840.99,449.71 843.27,445.75 845.55,449.55 847.83,445.68 850.11,445.22 852.38,442.17 854.66,450.27 856.94,450.90 859.22,445.44 861.50,449.34 863.77,451.34 866.05,447.52 868.33,443.67 870.61,444.94 872.88,447.76 875.16,446.53 877.44,446.78 879.72,445.58 882.00,455.46 884.27,442.34 886.55,446.94 888.83,446.46 891.11,451.35 893.39,450.26 895.66,438.96 897.94,449.06 900.22,449.14 902.50,447.93 904.77,449.77 907.05,450.83 909.33,446.94 911.61,451.21 913.89,446.48 916.16,450.81 918.44,453.62 920.72,449.27 923.00,448.09 925.28,447.58 927.55,448.04 929.83,454.79 932.11,450.88 934.39,448.28 936.66,452.51 938.94,450.54 941.22,449.44 943.50,449.06 945.78,454.24 948.05,448.88 950.33,449.03 952.61,449.25 954.89,444.58 957.17,448.25 959.44,455.20 961.72,449.99 964.00,451.16 966.28,447.11 968.55,446.12 970.83,450.86 973.11,447.60 975.39,452.58 977.67,447.14 979.94,451.68 982.22,447.99 984.50,449.99 986.78,447.33 989.06,450.07 991.33,448.63 993.61,455.93 995.89,450.37 998.17,453.77 1000.44,449.11 1002.72,455.70 1005.00,448.52"><title>batch_equal_tokens_32 train</title></polyline>
<polyline fill="none" stroke="#dc2626" stroke-width="2" stroke-dasharray="7 5" points="139.42,408.31 184.97,423.74 230.53,429.94 276.09,434.54 321.65,434.32 367.20,433.56 412.76,433.26 458.32,434.60 503.87,434.96 549.43,435.77 594.99,438.60 640.54,441.89 686.10,443.22 731.66,445.32 777.22,445.85 822.77,448.00 868.33,447.11 913.89,449.51 959.44,450.84 1005.00,448.27"><title>batch_equal_tokens_32 validation</title></polyline>
<line x1="340" y1="580" x2="368" y2="580" stroke="#dc2626" stroke-width="3"/>
<text x="376" y="585" font-family="sans-serif" font-size="13">batch_equal_tokens_32</text>
<polyline fill="none" stroke="#059669" stroke-width="2" points="98.42,137.13 102.97,243.47 107.53,308.76 112.08,341.05 116.64,362.02 121.20,370.68 125.75,385.30 130.31,391.03 134.86,394.16 139.42,398.94 143.97,408.08 148.53,409.86 153.09,409.77 157.64,410.31 162.20,413.63 166.75,415.53 171.31,417.65 175.86,421.98 180.42,424.43 184.97,420.58 189.53,426.70 194.09,424.87 198.64,429.70 203.20,432.07 207.75,431.47 212.31,430.98 216.86,430.78 221.42,430.72 225.98,432.29 230.53,433.26 235.09,439.56 239.64,439.12 244.20,439.86 248.75,435.59 253.31,434.84 257.87,441.73 262.42,439.85 266.98,442.71 271.53,439.87 276.09,444.53 280.64,441.02 285.20,442.20 289.76,439.20 294.31,441.81 298.87,441.91 303.42,437.34 307.98,443.93 312.53,441.74 317.09,445.67 321.65,443.99 326.20,441.96 330.76,448.22 335.31,447.04 339.87,446.16 344.42,455.04 348.98,451.56 353.54,448.50 358.09,448.76 362.65,448.42 367.20,449.43 371.76,449.70 376.31,455.15 380.87,450.89 385.43,452.31 389.98,450.91 394.54,454.98 399.09,452.23 403.65,445.58 408.20,452.52 412.76,453.53 417.32,451.94 421.87,456.84 426.43,456.15 430.98,453.78 435.54,451.23 440.09,453.81 444.65,454.09 449.21,450.56 453.76,459.17 458.32,450.29 462.87,451.23 467.43,456.53 471.98,450.59 476.54,452.47 481.10,457.27 485.65,457.08 490.21,457.77 494.76,451.30 499.32,459.58 503.87,460.12 508.43,459.97 512.98,458.13 517.54,460.69 522.10,457.72 526.65,461.09 531.21,461.77 535.76,461.12 540.32,463.36 544.87,459.26 549.43,459.15 553.99,461.59 558.54,459.59 563.10,458.94 567.65,461.06 572.21,463.71 576.76,457.42 581.32,460.17 585.88,462.95 590.43,461.64 594.99,461.98 599.54,462.90 604.10,458.70 608.65,461.17 613.21,466.93 617.77,465.12 622.32,467.94 626.88,460.10 631.43,461.82 635.99,464.15 640.54,464.77 645.10,461.28 649.66,466.07 654.21,466.10 658.77,467.57 663.32,466.36 667.88,467.58 672.43,462.50 676.99,467.99 681.55,465.77 686.10,463.07 690.66,465.02 695.21,465.39 699.77,464.84 704.32,464.73 708.88,462.10 713.44,467.17 717.99,463.43 722.55,470.39 727.10,464.00 731.66,467.76 736.21,465.22 740.77,466.44 745.33,468.23 749.88,466.61 754.44,463.92 758.99,468.29 763.55,470.88 768.10,468.56 772.66,469.76 777.22,466.25 781.77,464.05 786.33,466.65 790.88,468.20 795.44,470.14 799.99,466.00 804.55,470.98 809.11,467.76 813.66,471.00 818.22,465.79 822.77,465.08 827.33,472.96 831.88,469.39 836.44,463.10 840.99,470.47 845.55,469.82 850.11,467.10 854.66,469.19 859.22,468.40 863.77,467.90 868.33,470.82 872.88,470.64 877.44,471.31 882.00,468.26 886.55,470.44 891.11,468.29 895.66,471.02 900.22,470.98 904.77,469.23 909.33,472.01 913.89,471.50 918.44,466.58 923.00,472.03 927.55,471.25 932.11,467.93 936.66,467.13 941.22,468.55 945.78,471.53 950.33,470.60 954.89,469.14 959.44,473.22 964.00,472.79 968.55,470.24 973.11,469.59 977.67,470.87 982.22,471.64 986.78,473.11 991.33,468.76 995.89,468.45 1000.44,469.06 1005.00,473.30"><title>batch_equal_tokens_64 train</title></polyline>
<polyline fill="none" stroke="#059669" stroke-width="2" stroke-dasharray="7 5" points="139.42,400.80 184.97,424.82 230.53,435.64 276.09,442.91 321.65,446.07 367.20,449.08 412.76,452.14 458.32,454.87 503.87,457.53 549.43,459.91 594.99,461.54 640.54,463.77 686.10,465.63 731.66,466.07 777.22,467.95 822.77,468.54 868.33,468.60 913.89,471.12 959.44,471.55 1005.00,471.29"><title>batch_equal_tokens_64 validation</title></polyline>
<line x1="585" y1="580" x2="613" y2="580" stroke="#059669" stroke-width="3"/>
<text x="621" y="585" font-family="sans-serif" font-size="13">batch_equal_tokens_64</text>
<polyline fill="none" stroke="#7c3aed" stroke-width="2" points="102.97,170.35 112.08,298.30 121.20,341.52 130.31,365.70 139.42,376.29 148.53,386.80 157.64,396.41 166.75,399.99 175.86,409.07 184.97,414.80 194.09,418.07 203.20,423.03 212.31,423.71 221.42,429.50 230.53,429.95 239.64,434.35 248.75,434.73 257.87,434.54 266.98,435.69 276.09,438.28 285.20,438.34 294.31,440.66 303.42,444.64 312.53,444.81 321.65,443.61 330.76,445.69 339.87,445.70 348.98,449.65 358.09,450.72 367.20,453.79 376.31,453.67 385.43,451.63 394.54,451.98 403.65,449.12 412.76,453.64 421.87,452.19 430.98,450.99 440.09,455.88 449.21,453.53 458.32,457.07 467.43,459.16 476.54,457.93 485.65,458.34 494.76,459.55 503.87,459.26 512.98,457.49 522.10,459.33 531.21,460.69 540.32,457.91 549.43,460.36 558.54,461.20 567.65,465.98 576.76,464.33 585.88,463.48 594.99,466.87 604.10,468.22 613.21,463.66 622.32,466.50 631.43,464.39 640.54,466.45 649.66,464.43 658.77,466.59 667.88,467.60 676.99,467.54 686.10,465.32 695.21,464.97 704.32,469.55 713.44,466.62 722.55,466.67 731.66,467.54 740.77,468.11 749.88,465.79 758.99,469.90 768.10,469.52 777.22,467.28 786.33,473.16 795.44,469.75 804.55,469.65 813.66,470.48 822.77,473.25 831.88,470.81 840.99,472.96 850.11,471.97 859.22,472.86 868.33,470.58 877.44,474.31 886.55,471.53 895.66,473.07 904.77,475.64 913.89,472.90 923.00,470.82 932.11,471.40 941.22,470.36 950.33,472.82 959.44,471.57 968.55,472.16 977.67,472.34 986.78,473.32 995.89,472.73 1005.00,475.91"><title>batch_equal_tokens_128 train</title></polyline>
<polyline fill="none" stroke="#7c3aed" stroke-width="2" stroke-dasharray="7 5" points="139.42,376.58 184.97,414.71 230.53,430.71 276.09,438.68 321.65,445.63 367.20,449.07 412.76,453.39 458.32,456.73 503.87,458.72 549.43,462.19 594.99,464.20 640.54,465.04 686.10,467.45 731.66,468.50 777.22,469.92 822.77,471.98 868.33,471.63 913.89,471.99 959.44,473.29 1005.00,473.49"><title>batch_equal_tokens_128 validation</title></polyline>
<line x1="830" y1="580" x2="858" y2="580" stroke="#7c3aed" stroke-width="3"/>
<text x="866" y="585" font-family="sans-serif" font-size="13">batch_equal_tokens_128</text>
<polyline fill="none" stroke="#ea580c" stroke-width="2" points="112.08,222.76 130.31,324.48 139.42,338.83 148.53,343.45 166.75,360.51 184.97,374.17 203.20,383.47 221.42,390.27 230.53,393.31 239.64,397.74 257.87,404.43 276.09,412.35 294.31,415.14 312.53,420.89 321.65,423.58 330.76,424.36 348.98,427.80 367.20,431.75 385.43,435.70 403.65,439.75 412.76,440.30 421.87,440.57 440.09,441.90 458.32,442.50 476.54,446.34 494.76,446.06 503.87,447.98 512.98,448.43 531.21,451.37 549.43,450.27 567.65,453.98 585.88,454.92 594.99,454.28 604.10,455.70 622.32,455.00 640.54,457.71 658.77,458.20 676.99,459.30 686.10,461.23 695.21,462.46 713.44,462.00 731.66,460.56 749.88,463.32 768.10,462.21 777.22,464.30 786.33,464.52 804.55,462.20 822.77,466.63 840.99,464.94 859.22,465.76 868.33,465.16 877.44,467.20 895.66,467.19 913.89,466.78 932.11,468.26 950.33,465.52 959.44,466.26 968.55,468.45 986.78,468.26 1005.00,469.54"><title>batch_equal_tokens_256 train</title></polyline>
<polyline fill="none" stroke="#ea580c" stroke-width="2" stroke-dasharray="7 5" points="139.42,338.05 184.97,375.01 230.53,395.84 276.09,412.77 321.65,424.14 367.20,432.71 412.76,439.15 458.32,444.36 503.87,448.51 549.43,452.17 594.99,455.52 640.54,457.91 686.10,460.86 731.66,461.83 777.22,463.68 822.77,464.60 868.33,465.70 913.89,467.52 959.44,467.83 1005.00,468.01"><title>batch_equal_tokens_256 validation</title></polyline>
<line x1="95" y1="604" x2="123" y2="604" stroke="#ea580c" stroke-width="3"/>
<text x="131" y="609" font-family="sans-serif" font-size="13">batch_equal_tokens_256</text>
<line x1="790" y1="52" x2="820" y2="52" stroke="#374151" stroke-width="2"/>
<text x="827" y="57" font-family="sans-serif" font-size="13">train</text>
<line x1="895" y1="52" x2="925" y2="52" stroke="#374151" stroke-width="2" stroke-dasharray="7 5"/>
<text x="932" y="57" font-family="sans-serif" font-size="13">validation</text>
</svg>