<svg xmlns="http://www.w3.org/2000/svg" width="1100" height="610" viewBox="0 0 1100 610">
<rect width="1100" height="610" fill="white"/>
<text x="550" y="35" text-anchor="middle" font-family="sans-serif" font-size="24">TinyStories LR 5000-step finalists</text>
<line x1="95.00" y1="75.0" x2="95.00" y2="495.0" stroke="#e5e7eb"/>
<text x="95.00" y="518.0" text-anchor="middle" font-family="sans-serif" font-size="12">328k</text>
<line x1="95.0" y1="75.00" x2="1005.0" y2="75.00" stroke="#e5e7eb"/>
<text x="83.0" y="79.00" text-anchor="end" font-family="sans-serif" font-size="12">9.183</text>
<line x1="277.00" y1="75.0" x2="277.00" y2="495.0" stroke="#e5e7eb"/>
<text x="277.00" y="518.0" text-anchor="middle" font-family="sans-serif" font-size="12">33M</text>
<line x1="95.0" y1="159.00" x2="1005.0" y2="159.00" stroke="#e5e7eb"/>
<text x="83.0" y="163.00" text-anchor="end" font-family="sans-serif" font-size="12">7.543</text>
<line x1="459.00" y1="75.0" x2="459.00" y2="495.0" stroke="#e5e7eb"/>
<text x="459.00" y="518.0" text-anchor="middle" font-family="sans-serif" font-size="12">65.7M</text>
<line x1="95.0" y1="243.00" x2="1005.0" y2="243.00" stroke="#e5e7eb"/>
<text x="83.0" y="247.00" text-anchor="end" font-family="sans-serif" font-size="12">5.902</text>
<line x1="641.00" y1="75.0" x2="641.00" y2="495.0" stroke="#e5e7eb"/>
<text x="641.00" y="518.0" text-anchor="middle" font-family="sans-serif" font-size="12">98.4M</text>
<line x1="95.0" y1="327.00" x2="1005.0" y2="327.00" stroke="#e5e7eb"/>
<text x="83.0" y="331.00" text-anchor="end" font-family="sans-serif" font-size="12">4.262</text>
<line x1="823.00" y1="75.0" x2="823.00" y2="495.0" stroke="#e5e7eb"/>
<text x="823.00" y="518.0" text-anchor="middle" font-family="sans-serif" font-size="12">131M</text>
<line x1="95.0" y1="411.00" x2="1005.0" y2="411.00" stroke="#e5e7eb"/>
<text x="83.0" y="415.00" text-anchor="end" font-family="sans-serif" font-size="12">2.622</text>
<line x1="1005.00" y1="75.0" x2="1005.00" y2="495.0" stroke="#e5e7eb"/>
<text x="1005.00" y="518.0" text-anchor="middle" font-family="sans-serif" font-size="12">164M</text>
<line x1="95.0" y1="495.00" x2="1005.0" y2="495.00" stroke="#e5e7eb"/>
<text x="83.0" y="499.00" text-anchor="end" font-family="sans-serif" font-size="12">0.982</text>
<line x1="95.0" y1="495.0" x2="1005.0" y2="495.0" stroke="black"/>
<line x1="95.0" y1="75.0" x2="95.0" y2="495.0" stroke="black"/>
<text x="550.0" y="555.0" text-anchor="middle" font-family="sans-serif">processed tokens</text>
<text x="28" y="285.0" text-anchor="middle" font-family="sans-serif" transform="rotate(-90 28 285.0)">loss</text>
<polyline fill="none" stroke="#2563eb" stroke-width="2" points="95.00,127.84 96.82,234.83 98.65,303.33 100.47,336.65 102.29,351.46 104.12,363.66 105.94,373.23 107.77,379.02 109.59,387.43 111.41,393.76 113.24,397.37 115.06,404.08 116.88,406.50 118.71,407.56 120.53,411.05 122.35,413.04 124.18,417.82 126.00,420.63 127.83,418.80 129.65,423.07 131.47,421.70 133.30,424.95 135.12,421.10 136.94,426.20 138.77,427.30 140.59,428.99 142.41,429.76 144.24,429.57 146.06,432.43 147.89,429.91 149.71,430.44 151.53,434.58 153.36,434.98 155.18,433.39 157.00,433.91 158.83,437.10 160.65,438.76 162.47,437.02 164.30,441.53 166.12,442.01 167.95,439.50 169.77,438.68 171.59,442.22 173.42,444.43 175.24,439.40 177.06,440.54 178.89,439.64 180.71,440.26 182.54,442.47 184.36,441.35 186.18,442.81 188.01,444.47 189.83,445.18 191.65,444.85 193.48,443.94 195.30,446.90 197.12,446.02 198.95,444.35 200.77,445.43 202.60,447.42 204.42,447.89 206.24,446.01 208.07,444.97 209.89,448.49 211.71,447.52 213.54,446.87 215.36,452.06 217.18,451.62 219.01,449.11 220.83,449.79 222.66,448.62 224.48,450.28 226.30,449.40 228.13,449.07 229.95,450.37 231.77,451.39 233.60,449.88 235.42,450.76 237.24,450.71 239.07,450.73 240.89,449.97 242.72,451.69 244.54,451.34 246.36,451.69 248.19,452.24 250.01,450.12 251.83,452.67 253.66,451.89 255.48,455.36 257.30,455.21 259.13,455.72 260.95,452.28 262.78,453.55 264.60,452.35 266.42,456.06 268.25,453.64 270.07,457.00 271.89,454.58 273.72,455.09 275.54,454.60 277.36,452.95 279.19,456.55 281.01,452.25 282.84,454.52 284.66,456.77 286.48,453.50 288.31,455.68 290.13,454.10 291.95,455.29 293.78,454.66 295.60,456.33 297.42,455.01 299.25,456.63 301.07,453.84 302.90,457.87 304.72,457.76 306.54,456.14 308.37,454.28 310.19,459.81 312.01,454.80 313.84,456.00 315.66,456.92 317.48,457.25 319.31,456.60 321.13,458.77 322.96,456.92 324.78,458.88 326.60,457.52 328.43,458.96 330.25,458.84 332.07,458.59 333.90,459.77 335.72,459.57 337.55,456.79 339.37,457.85 341.19,458.64 343.02,456.99 344.84,459.26 346.66,461.88 348.49,458.08 350.31,457.07 352.13,460.15 353.96,458.61 355.78,461.34 357.61,460.86 359.43,461.71 361.25,457.33 363.08,463.65 364.90,459.56 366.72,457.60 368.55,458.29 370.37,459.73 372.19,458.86 374.02,457.62 375.84,458.84 377.67,457.31 379.49,459.83 381.31,462.19 383.14,456.02 384.96,459.51 386.78,462.35 388.61,460.46 390.43,463.35 392.25,462.19 394.08,458.82 395.90,457.17 397.73,459.66 399.55,462.93 401.37,457.51 403.20,462.00 405.02,460.88 406.84,461.21 408.67,461.77 410.49,461.74 412.31,459.74 414.14,460.58 415.96,461.63 417.79,462.85 419.61,461.10 421.43,462.08 423.26,462.04 425.08,462.10 426.90,460.75 428.73,460.31 430.55,462.61 432.37,457.41 434.20,464.08 436.02,460.01 437.85,460.75 439.67,464.23 441.49,464.15 443.32,463.28 445.14,460.98 446.96,463.71 448.79,462.70 450.61,459.84 452.43,462.52 454.26,465.14 456.08,460.85 457.91,462.92 459.73,465.51 461.55,460.48 463.38,464.07 465.20,462.66 467.02,463.32 468.85,462.62 470.67,464.41 472.49,461.68 474.32,463.71 476.14,464.49 477.97,462.96 479.79,462.63 481.61,462.57 483.44,462.26 485.26,465.13 487.08,464.04 488.91,463.82 490.73,464.69 492.56,463.99 494.38,466.59 496.20,465.31 498.03,464.37 499.85,465.60 501.67,466.72 503.50,463.34 505.32,461.82 507.14,463.80 508.97,464.42 510.79,465.31 512.62,468.09 514.44,462.75 516.26,465.42 518.09,464.88 519.91,465.83 521.73,465.51 523.56,467.03 525.38,465.79 527.20,463.39 529.03,464.70 530.85,465.42 532.68,464.47 534.50,464.00 536.32,465.28 538.15,465.45 539.97,465.94 541.79,464.62 543.62,468.56 545.44,464.97 547.26,465.16 549.09,467.09 550.91,466.34 552.74,469.65 554.56,463.96 556.38,466.43 558.21,466.41 560.03,463.14 561.85,467.96 563.68,465.09 565.50,466.89 567.32,463.98 569.15,464.08 570.97,465.54 572.80,465.56 574.62,466.73 576.44,466.17 578.27,464.13 580.09,466.44 581.91,467.36 583.74,466.90 585.56,465.44 587.38,465.93 589.21,466.63 591.03,467.54 592.86,466.32 594.68,468.34 596.50,467.68 598.33,466.09 600.15,464.24 601.97,466.88 603.80,466.95 605.62,468.65 607.44,469.31 609.27,466.04 611.09,469.51 612.92,465.83 614.74,468.30 616.56,464.72 618.39,468.49 620.21,469.35 622.03,466.84 623.86,468.16 625.68,467.90 627.51,470.48 629.33,467.71 631.15,467.57 632.98,467.27 634.80,468.51 636.62,469.12 638.45,468.79 640.27,468.37 642.09,469.14 643.92,468.93 645.74,471.90 647.57,466.06 649.39,466.97 651.21,466.89 653.04,467.94 654.86,470.35 656.68,467.90 658.51,464.25 660.33,468.01 662.15,469.67 663.98,468.48 665.80,465.25 667.63,471.07 669.45,467.90 671.27,470.11 673.10,467.93 674.92,468.65 676.74,469.38 678.57,468.85 680.39,470.31 682.21,471.05 684.04,469.65 685.86,470.72 687.69,468.37 689.51,468.73 691.33,470.45 693.16,466.74 694.98,469.78 696.80,469.03 698.63,469.88 700.45,471.27 702.27,468.88 704.10,468.87 705.92,469.28 707.75,471.70 709.57,469.66 711.39,470.74 713.22,469.13 715.04,468.92 716.86,470.81 718.69,468.94 720.51,469.79 722.33,471.21 724.16,469.49 725.98,469.36 727.81,471.12 729.63,470.12 731.45,470.62 733.28,471.28 735.10,469.11 736.92,469.84 738.75,467.60 740.57,471.15 742.39,469.54 744.22,469.63 746.04,470.66 747.87,471.78 749.69,469.51 751.51,469.94 753.34,471.37 755.16,471.93 756.98,470.79 758.81,471.54 760.63,469.54 762.45,471.91 764.28,470.25 766.10,472.57 767.93,468.83 769.75,472.95 771.57,471.13 773.40,470.76 775.22,469.28 777.04,473.76 778.87,472.08 780.69,471.42 782.52,470.46 784.34,473.73 786.16,470.26 787.99,468.77 789.81,471.78 791.63,473.22 793.46,471.37 795.28,470.75 797.10,470.86 798.93,474.41 800.75,472.22 802.58,471.94 804.40,473.47 806.22,471.36 808.05,470.18 809.87,472.36 811.69,471.46 813.52,473.19 815.34,470.65 817.16,470.80 818.99,473.14 820.81,470.59 822.64,471.80 824.46,471.71 826.28,470.24 828.11,472.05 829.93,468.96 831.75,472.27 833.58,469.59 835.40,471.72 837.22,470.49 839.05,472.16 840.87,472.78 842.70,469.91 844.52,473.75 846.34,469.93 848.17,469.45 849.99,472.68 851.81,472.52 853.64,472.71 855.46,470.01 857.28,471.14 859.11,471.94 860.93,475.30 862.76,471.37 864.58,470.85 866.40,473.55 868.23,473.74 870.05,472.38 871.87,470.58 873.70,474.22 875.52,472.52 877.34,470.13 879.17,474.95 880.99,471.92 882.82,471.06 884.64,473.66 886.46,470.21 888.29,473.33 890.11,470.73 891.93,475.42 893.76,471.20 895.58,470.39 897.40,473.15 899.23,470.41 901.05,473.41 902.88,470.22 904.70,472.83 906.52,472.34 908.35,471.06 910.17,471.18 911.99,471.04 913.82,474.10 915.64,474.07 917.46,471.27 919.29,470.60 921.11,472.07 922.94,472.05 924.76,472.24 926.58,471.60 928.41,473.03 930.23,474.92 932.05,470.18 933.88,473.16 935.70,473.03 937.53,470.06 939.35,472.43 941.17,473.26 943.00,473.67 944.82,469.83 946.64,471.39 948.47,473.51 950.29,474.81 952.11,473.02 953.94,473.00 955.76,471.71 957.59,470.70 959.41,472.18 961.23,472.51 963.06,474.63 964.88,471.14 966.70,473.70 968.53,470.83 970.35,471.69 972.17,473.89 974.00,471.94 975.82,471.09 977.65,473.31 979.47,474.47 981.29,473.23 983.12,473.85 984.94,471.01 986.76,473.81 988.59,473.09 990.41,471.55 992.23,475.77 994.06,475.91 995.88,475.83 997.71,472.50 999.53,473.53 1001.35,474.89 1003.18,475.17 1005.00,473.65"><title>lr_long_3e-3 train</title></polyline>
<polyline fill="none" stroke="#2563eb" stroke-width="2" stroke-dasharray="7 5" points="111.41,394.65 129.65,422.10 147.89,431.87 166.12,438.26 184.36,442.59 202.60,446.66 220.83,448.79 239.07,451.52 257.30,453.39 275.54,454.54 293.78,455.16 312.01,457.26 330.25,458.21 348.49,458.94 366.72,459.87 384.96,460.84 403.20,460.59 421.43,462.08 439.67,462.41 457.91,463.80 476.14,463.94 494.38,464.52 512.62,464.98 530.85,465.28 549.09,466.32 567.32,466.09 585.56,466.68 603.80,467.37 622.03,468.00 640.27,467.78 658.51,469.00 676.74,468.61 694.98,468.45 713.22,469.78 731.45,469.59 749.69,469.81 767.93,470.91 786.16,470.44 804.40,470.79 822.64,471.29 840.87,471.61 859.11,471.47 877.34,471.94 895.58,472.62 913.82,472.23 932.05,472.35 950.29,472.80 968.53,473.14 986.76,472.68 1005.00,472.44"><title>lr_long_3e-3 validation</title></polyline>
<line x1="95" y1="580" x2="123" y2="580" stroke="#2563eb" stroke-width="3"/>
<text x="131" y="585" font-family="sans-serif" font-size="13">lr_long_3e-3</text>
<polyline fill="none" stroke="#dc2626" stroke-width="2" points="95.00,94.09 96.82,153.31 98.65,220.37 100.47,277.10 102.29,310.88 104.12,334.89 105.94,348.12 107.77,357.75 109.59,367.06 111.41,375.09 113.24,381.39 115.06,389.82 116.88,393.70 118.71,395.05 120.53,399.89 122.35,401.72 124.18,407.76 126.00,411.00 127.83,411.00 129.65,414.54 131.47,414.00 133.30,417.01 135.12,413.62 136.94,419.51 138.77,420.29 140.59,423.83 142.41,423.34 144.24,423.60 146.06,426.76 147.89,424.77 149.71,425.09 151.53,429.64 153.36,429.99 155.18,429.07 157.00,429.39 158.83,432.88 160.65,435.01 162.47,433.47 164.30,437.83 166.12,438.34 167.95,435.92 169.77,435.27 171.59,439.38 173.42,441.80 175.24,437.04 177.06,437.67 178.89,436.96 180.71,437.52 182.54,439.64 184.36,438.88 186.18,440.76 188.01,442.04 189.83,442.48 191.65,442.33 193.48,441.32 195.30,444.02 197.12,443.15 198.95,442.30 200.77,443.55 202.60,445.41 204.42,445.84 206.24,443.91 208.07,442.74 209.89,445.74 211.71,444.89 213.54,444.69 215.36,449.68 217.18,449.23 219.01,447.09 220.83,447.71 222.66,446.11 224.48,447.50 226.30,447.58 228.13,446.89 229.95,448.17 231.77,449.55 233.60,447.74 235.42,448.33 237.24,448.40 239.07,448.51 240.89,447.35 242.72,449.18 244.54,449.43 246.36,449.47 248.19,450.26 250.01,447.58 251.83,450.38 253.66,450.09 255.48,453.35 257.30,452.95 259.13,453.33 260.95,449.60 262.78,451.00 264.60,449.65 266.42,453.73 268.25,451.16 270.07,454.67 271.89,452.23 273.72,453.02 275.54,452.59 277.36,450.65 279.19,454.17 281.01,449.90 282.84,452.00 284.66,454.89 286.48,451.54 288.31,453.49 290.13,451.79 291.95,453.05 293.78,452.30 295.60,454.01 297.42,452.38 299.25,454.49 301.07,451.37 302.90,455.57 304.72,455.68 306.54,454.06 308.37,451.95 310.19,457.49 312.01,452.72 313.84,454.14 315.66,454.80 317.48,455.07 319.31,454.38 321.13,456.37 322.96,455.02 324.78,456.58 326.60,455.55 328.43,456.64 330.25,456.44 332.07,456.56 333.90,457.69 335.72,457.01 337.55,454.56 339.37,455.66 341.19,456.59 343.02,454.97 344.84,456.96 346.66,459.59 348.49,455.58 350.31,454.79 352.13,458.12 353.96,456.34 355.78,458.85 357.61,458.60 359.43,459.85 361.25,455.16 363.08,461.37 364.90,457.52 366.72,455.23 368.55,456.14 370.37,457.55 372.19,456.38 374.02,455.07 375.84,456.62 377.67,455.17 379.49,457.17 381.31,459.85 383.14,454.22 384.96,457.43 386.78,460.40 388.61,457.97 390.43,461.40 392.25,460.34 394.08,456.40 395.90,455.27 397.73,457.55 399.55,460.68 401.37,455.34 403.20,459.48 405.02,458.77 406.84,459.07 408.67,459.49 410.49,459.76 412.31,457.05 414.14,458.44 415.96,459.41 417.79,460.20 419.61,458.67 421.43,459.80 423.26,459.61 425.08,460.18 426.90,458.48 428.73,458.35 430.55,460.61 432.37,455.28 434.20,461.76 436.02,458.11 437.85,458.69 439.67,462.53 441.49,461.93 443.32,461.07 445.14,458.53 446.96,461.68 448.79,460.19 450.61,457.27 452.43,460.36 454.26,462.87 456.08,458.40 457.91,460.73 459.73,463.22 461.55,457.96 463.38,462.02 465.20,460.55 467.02,461.36 468.85,460.24 470.67,462.51 472.49,459.40 474.32,461.56 476.14,462.67 477.97,461.10 479.79,460.74 481.61,460.50 483.44,459.91 485.26,462.86 487.08,461.78 488.91,461.22 490.73,462.69 492.56,461.55 494.38,464.34 496.20,462.79 498.03,462.48 499.85,463.59 501.67,464.50 503.50,461.70 505.32,459.82 507.14,461.55 508.97,462.36 510.79,462.90 512.62,465.84 514.44,460.59 516.26,463.11 518.09,462.59 519.91,463.98 521.73,463.53 523.56,464.57 525.38,463.66 527.20,461.64 529.03,462.54 530.85,463.53 532.68,462.23 534.50,461.70 536.32,462.95 538.15,463.45 539.97,463.40 541.79,462.46 543.62,466.71 545.44,462.76 547.26,462.61 549.09,465.21 550.91,464.53 552.74,467.84 554.56,461.76 556.38,464.17 558.21,464.17 560.03,460.94 561.85,465.87 563.68,462.78 565.50,464.84 567.32,461.81 569.15,462.17 570.97,463.49 572.80,463.20 574.62,464.60 576.44,464.29 578.27,461.66 580.09,464.45 581.91,465.46 583.74,464.41 585.56,462.98 587.38,463.99 589.21,464.56 591.03,465.30 592.86,464.32 594.68,465.93 596.50,465.31 598.33,463.70 600.15,462.06 601.97,464.70 603.80,464.62 605.62,466.39 607.44,467.21 609.27,464.04 611.09,467.56 612.92,463.36 614.74,466.08 616.56,462.53 618.39,466.52 620.21,467.29 622.03,464.57 623.86,465.67 625.68,465.47 627.51,468.58 629.33,465.50 631.15,465.26 632.98,465.09 634.80,465.98 636.62,467.05 638.45,466.25 640.27,466.17 642.09,467.01 643.92,466.57 645.74,469.59 647.57,463.55 649.39,464.14 651.21,464.70 653.04,465.69 654.86,467.95 656.68,465.22 658.51,461.92 660.33,466.00 662.15,467.37 663.98,466.08 665.80,463.07 667.63,468.87 669.45,465.21 671.27,467.70 673.10,465.83 674.92,466.45 676.74,466.87 678.57,466.78 680.39,468.31 682.21,468.93 684.04,467.03 685.86,468.32 687.69,466.08 689.51,466.38 691.33,468.03 693.16,464.61 694.98,467.34 696.80,466.88 698.63,467.49 700.45,469.08 702.27,466.45 704.10,466.88 705.92,467.13 707.75,469.51 709.57,467.25 711.39,468.44 713.22,466.54 715.04,466.66 716.86,468.53 718.69,467.04 720.51,467.37 722.33,468.46 724.16,467.39 725.98,466.48 727.81,468.79 729.63,467.88 731.45,468.01 733.28,468.80 735.10,466.31 736.92,467.60 738.75,464.85 740.57,468.75 742.39,467.04 744.22,466.96 746.04,468.13 747.87,469.40 749.69,467.28 751.51,467.49 753.34,468.89 755.16,469.73 756.98,468.32 758.81,468.93 760.63,467.07 762.45,469.12 764.28,467.89 766.10,470.24 767.93,466.46 769.75,470.29 771.57,468.78 773.40,468.15 775.22,466.90 777.04,471.28 778.87,469.78 780.69,469.05 782.52,467.78 784.34,471.40 786.16,467.91 787.99,466.30 789.81,469.20 791.63,470.58 793.46,468.66 795.28,468.07 797.10,468.46 798.93,471.90 800.75,470.29 802.58,469.08 804.40,471.07 806.22,468.69 808.05,467.51 809.87,469.36 811.69,469.20 813.52,470.16 815.34,468.09 817.16,468.02 818.99,470.56 820.81,467.71 822.64,469.44 824.46,468.84 826.28,467.87 828.11,469.14 829.93,466.25 831.75,469.66 833.58,466.91 835.40,469.61 837.22,467.93 839.05,469.83 840.87,469.96 842.70,467.12 844.52,471.09 846.34,467.34 848.17,466.88 849.99,469.67 851.81,469.74 853.64,470.10 855.46,467.11 857.28,468.54 859.11,469.25 860.93,472.76 862.76,468.74 864.58,467.87 866.40,470.86 868.23,470.82 870.05,469.81 871.87,468.17 873.70,471.36 875.52,469.74 877.34,467.33 879.17,472.11 880.99,469.23 882.82,468.20 884.64,471.00 886.46,467.36 888.29,470.72 890.11,467.83 891.93,472.69 893.76,468.37 895.58,467.49 897.40,470.39 899.23,467.49 901.05,470.57 902.88,467.17 904.70,470.12 906.52,469.76 908.35,468.33 910.17,468.63 911.99,468.32 913.82,471.51 915.64,471.21 917.46,468.06 919.29,467.94 921.11,469.23 922.94,469.26 924.76,469.30 926.58,468.70 928.41,470.43 930.23,472.18 932.05,467.58 933.88,470.22 935.70,470.22 937.53,467.10 939.35,469.46 941.17,470.38 943.00,470.89 944.82,466.83 946.64,468.49 948.47,471.07 950.29,471.99 952.11,470.09 953.94,470.35 955.76,468.86 957.59,467.69 959.41,469.60 961.23,469.67 963.06,471.70 964.88,468.29 966.70,470.82 968.53,468.00 970.35,469.01 972.17,471.19 974.00,469.04 975.82,468.31 977.65,470.39 979.47,471.87 981.29,470.39 983.12,471.07 984.94,468.29 986.76,471.04 988.59,470.28 990.41,468.83 992.23,472.97 994.06,473.25 995.88,472.94 997.71,469.72 999.53,470.69 1001.35,472.19 1003.18,472.39 1005.00,470.42"><title>lr_long_1e-3 train</title></polyline>
<polyline fill="none" stroke="#dc2626" stroke-width="2" stroke-dasharray="7 5" points="111.41,375.65 129.65,413.54 147.89,426.44 166.12,434.94 184.36,440.25 202.60,444.36 220.83,446.46 239.07,449.20 257.30,451.13 275.54,452.38 293.78,452.94 312.01,454.98 330.25,455.91 348.49,456.77 366.72,457.71 384.96,458.70 403.20,458.36 421.43,459.79 439.67,460.32 457.91,461.67 476.14,461.87 494.38,462.37 512.62,462.82 530.85,463.07 549.09,464.22 567.32,464.00 585.56,464.54 603.80,465.13 622.03,465.71 640.27,465.47 658.51,466.78 676.74,466.45 694.98,466.10 713.22,467.37 731.45,467.19 749.69,467.40 767.93,468.41 786.16,467.92 804.40,468.27 822.64,468.68 840.87,469.03 859.11,468.89 877.34,469.26 895.58,469.87 913.82,469.51 932.05,469.55 950.29,470.07 968.53,470.27 986.76,469.96 1005.00,469.65"><title>lr_long_1e-3 validation</title></polyline>
<line x1="340" y1="580" x2="368" y2="580" stroke="#dc2626" stroke-width="3"/>
<text x="376" y="585" font-family="sans-serif" font-size="13">lr_long_1e-3</text>
<line x1="790" y1="52" x2="820" y2="52" stroke="#374151" stroke-width="2"/>
<text x="827" y="57" font-family="sans-serif" font-size="13">train</text>
<line x1="895" y1="52" x2="925" y2="52" stroke="#374151" stroke-width="2" stroke-dasharray="7 5"/>
<text x="932" y="57" font-family="sans-serif" font-size="13">validation</text>
</svg>