<svg xmlns="http://www.w3.org/2000/svg" width="1100" height="634" viewBox="0 0 1100 634">
<rect width="1100" height="634" fill="white"/>
<text x="550" y="35" text-anchor="middle" font-family="sans-serif" font-size="24">TinyStories LR short sweep</text>
<line x1="95.00" y1="75.0" x2="95.00" y2="495.0" stroke="#e5e7eb"/>
<text x="95.00" y="518.0" text-anchor="middle" font-family="sans-serif" font-size="12">328k</text>
<line x1="95.0" y1="75.00" x2="1005.0" y2="75.00" stroke="#e5e7eb"/>
<text x="83.0" y="79.00" text-anchor="end" font-family="sans-serif" font-size="12">9.602</text>
<line x1="277.00" y1="75.0" x2="277.00" y2="495.0" stroke="#e5e7eb"/>
<text x="277.00" y="518.0" text-anchor="middle" font-family="sans-serif" font-size="12">6.82M</text>
<line x1="95.0" y1="159.00" x2="1005.0" y2="159.00" stroke="#e5e7eb"/>
<text x="83.0" y="163.00" text-anchor="end" font-family="sans-serif" font-size="12">7.945</text>
<line x1="459.00" y1="75.0" x2="459.00" y2="495.0" stroke="#e5e7eb"/>
<text x="459.00" y="518.0" text-anchor="middle" font-family="sans-serif" font-size="12">13.3M</text>
<line x1="95.0" y1="243.00" x2="1005.0" y2="243.00" stroke="#e5e7eb"/>
<text x="83.0" y="247.00" text-anchor="end" font-family="sans-serif" font-size="12">6.288</text>
<line x1="641.00" y1="75.0" x2="641.00" y2="495.0" stroke="#e5e7eb"/>
<text x="641.00" y="518.0" text-anchor="middle" font-family="sans-serif" font-size="12">19.8M</text>
<line x1="95.0" y1="327.00" x2="1005.0" y2="327.00" stroke="#e5e7eb"/>
<text x="83.0" y="331.00" text-anchor="end" font-family="sans-serif" font-size="12">4.632</text>
<line x1="823.00" y1="75.0" x2="823.00" y2="495.0" stroke="#e5e7eb"/>
<text x="823.00" y="518.0" text-anchor="middle" font-family="sans-serif" font-size="12">26.3M</text>
<line x1="95.0" y1="411.00" x2="1005.0" y2="411.00" stroke="#e5e7eb"/>
<text x="83.0" y="415.00" text-anchor="end" font-family="sans-serif" font-size="12">2.975</text>
<line x1="1005.00" y1="75.0" x2="1005.00" y2="495.0" stroke="#e5e7eb"/>
<text x="1005.00" y="518.0" text-anchor="middle" font-family="sans-serif" font-size="12">32.8M</text>
<line x1="95.0" y1="495.00" x2="1005.0" y2="495.00" stroke="#e5e7eb"/>
<text x="83.0" y="499.00" text-anchor="end" font-family="sans-serif" font-size="12">1.318</text>
<line x1="95.0" y1="495.0" x2="1005.0" y2="495.0" stroke="black"/>
<line x1="95.0" y1="75.0" x2="95.0" y2="495.0" stroke="black"/>
<text x="550.0" y="555.0" text-anchor="middle" font-family="sans-serif">processed tokens</text>
<text x="28" y="285.0" text-anchor="middle" font-family="sans-serif" transform="rotate(-90 28 285.0)">loss</text>
<polyline fill="none" stroke="#2563eb" stroke-width="2" points="95.00,94.09 104.19,99.52 113.38,109.23 122.58,122.81 131.77,139.40 140.96,155.41 150.15,168.47 159.34,180.15 168.54,191.68 177.73,202.62 186.92,212.99 196.11,223.23 205.30,231.11 214.49,240.09 223.69,248.08 232.88,255.93 242.07,261.68 251.26,268.56 260.45,274.91 269.65,279.91 278.84,285.78 288.03,291.72 297.22,298.66 306.41,302.96 315.61,305.23 324.80,310.36 333.99,313.68 343.18,318.35 352.37,322.37 361.57,325.94 370.76,330.25 379.95,329.06 389.14,331.85 398.33,330.69 407.53,337.87 416.72,338.43 425.91,338.72 435.10,342.68 444.29,340.40 453.48,346.73 462.68,348.81 471.87,347.54 481.06,351.59 490.25,351.78 499.44,352.85 508.64,352.30 517.83,354.66 527.02,356.21 536.21,354.82 545.40,356.35 554.60,357.61 563.79,361.56 572.98,362.62 582.17,361.46 591.36,365.08 600.56,366.97 609.75,363.55 618.94,365.46 628.13,363.98 637.32,367.55 646.52,365.99 655.71,367.20 664.90,369.74 674.09,367.17 683.28,365.03 692.47,364.23 701.67,370.02 710.86,368.53 720.05,367.80 729.24,368.90 738.43,369.37 747.63,368.22 756.82,371.92 766.01,370.52 775.20,367.87 784.39,375.08 793.59,370.21 802.78,370.48 811.97,371.63 821.16,372.78 830.35,372.40 839.55,373.52 848.74,373.46 857.93,375.13 867.12,372.51 876.31,377.28 885.51,372.87 894.70,374.41 903.89,377.96 913.08,374.06 922.27,372.11 931.46,372.15 940.66,373.11 949.85,375.76 959.04,372.04 968.23,374.99 977.42,374.40 986.62,374.74 995.81,373.54 1005.00,378.08"><title>lr_short_3e-5 train</title></polyline>
<polyline fill="none" stroke="#2563eb" stroke-width="2" stroke-dasharray="7 5" points="131.77,140.63 177.73,203.90 223.69,248.89 269.65,281.39 315.61,306.98 361.57,323.52 407.53,336.67 453.48,346.35 499.44,352.55 545.40,358.97 591.36,362.75 637.32,365.02 683.28,367.90 729.24,369.83 775.20,371.57 821.16,373.74 867.12,373.22 913.08,373.58 959.04,375.09 1005.00,375.23"><title>lr_short_3e-5 validation</title></polyline>
<line x1="95" y1="580" x2="123" y2="580" stroke="#2563eb" stroke-width="3"/>
<text x="131" y="585" font-family="sans-serif" font-size="13">lr_short_3e-5</text>
<polyline fill="none" stroke="#dc2626" stroke-width="2" points="95.00,97.43 104.19,114.88 113.38,142.78 122.58,171.92 131.77,202.45 140.96,233.18 150.15,257.32 159.34,275.28 168.54,293.28 177.73,307.00 186.92,318.88 196.11,329.95 205.30,335.28 214.49,344.25 223.69,350.27 232.88,356.25 242.07,359.07 251.26,361.84 260.45,366.28 269.65,369.06 278.84,371.52 288.03,374.49 297.22,379.34 306.41,380.87 315.61,380.26 324.80,383.73 333.99,384.40 343.18,388.49 352.37,391.46 361.57,394.12 370.76,395.14 379.95,393.22 389.14,393.98 398.33,391.84 407.53,397.59 416.72,397.20 425.91,395.82 435.10,400.31 444.29,397.46 453.48,402.92 462.68,404.62 471.87,402.27 481.06,405.39 490.25,405.29 499.44,405.39 508.64,403.56 517.83,406.52 527.02,406.94 536.21,404.61 545.40,406.32 554.60,408.23 563.79,412.33 572.98,411.81 582.17,410.34 591.36,414.28 600.56,415.49 609.75,411.57 618.94,413.34 628.13,411.58 637.32,414.61 646.52,412.16 655.71,413.59 664.90,417.08 674.09,414.37 683.28,411.57 692.47,410.65 701.67,416.18 710.86,414.27 720.05,413.36 729.24,414.10 738.43,415.13 747.63,413.55 756.82,417.40 766.01,416.00 775.20,412.86 784.39,420.47 793.59,415.05 802.78,415.93 811.97,416.96 821.16,418.09 830.35,417.54 839.55,418.62 848.74,418.45 857.93,419.69 867.12,417.08 876.31,421.30 885.51,417.70 894.70,418.83 903.89,422.53 913.08,418.21 922.27,416.68 931.46,416.62 940.66,417.01 949.85,419.35 959.04,416.38 968.23,418.99 977.42,418.59 986.62,418.68 995.81,417.85 1005.00,421.63"><title>lr_short_1e-4 train</title></polyline>
<polyline fill="none" stroke="#dc2626" stroke-width="2" stroke-dasharray="7 5" points="131.77,205.25 177.73,308.59 223.69,350.65 269.65,369.79 315.61,382.18 361.57,390.01 407.53,396.75 453.48,401.89 499.44,405.01 545.40,409.22 591.36,411.39 637.32,412.30 683.28,414.32 729.24,415.55 775.20,416.60 821.16,418.70 867.12,417.70 913.08,417.76 959.04,419.12 1005.00,419.15"><title>lr_short_1e-4 validation</title></polyline>
<line x1="340" y1="580" x2="368" y2="580" stroke="#dc2626" stroke-width="3"/>
<text x="376" y="585" font-family="sans-serif" font-size="13">lr_short_1e-4</text>
<polyline fill="none" stroke="#059669" stroke-width="2" points="95.00,106.64 104.19,150.11 113.38,199.00 122.58,253.23 131.77,295.02 140.96,323.35 150.15,340.78 159.34,351.85 168.54,363.71 177.73,371.48 186.92,376.84 196.11,383.62 205.30,386.30 214.49,392.56 223.69,395.47 232.88,399.91 242.07,401.85 251.26,402.92 260.45,405.45 269.65,408.20 278.84,409.51 288.03,411.80 297.22,416.45 306.41,417.09 315.61,415.90 324.80,418.66 333.99,419.19 343.18,423.15 352.37,424.62 361.57,427.73 370.76,428.08 379.95,425.82 389.14,426.42 398.33,423.74 407.53,428.47 416.72,428.57 425.91,425.88 435.10,430.90 444.29,428.42 453.48,433.30 462.68,434.78 471.87,432.60 481.06,434.97 490.25,434.93 499.44,435.50 508.64,432.61 517.83,435.42 527.02,435.75 536.21,433.23 545.40,435.27 554.60,437.24 563.79,440.89 572.98,440.08 582.17,438.79 591.36,442.54 600.56,443.31 609.75,439.71 618.94,441.65 628.13,440.01 637.32,441.83 646.52,440.30 655.71,441.60 664.90,444.27 674.09,442.48 683.28,439.64 692.47,439.02 701.67,444.31 710.86,441.83 720.05,440.88 729.24,441.75 738.43,442.88 747.63,440.73 756.82,444.20 766.01,443.77 775.20,441.00 784.39,447.64 793.59,443.10 802.78,443.30 811.97,444.85 821.16,446.78 830.35,445.30 839.55,446.26 848.74,446.00 857.93,446.97 867.12,445.19 876.31,448.17 885.51,445.18 894.70,446.57 903.89,449.53 913.08,446.25 922.27,444.20 931.46,444.74 940.66,444.20 949.85,446.18 959.04,443.76 968.23,445.97 977.42,445.98 986.62,446.61 995.81,445.30 1005.00,449.10"><title>lr_short_3e-4 train</title></polyline>
<polyline fill="none" stroke="#059669" stroke-width="2" stroke-dasharray="7 5" points="131.77,297.31 177.73,372.00 223.69,395.95 269.65,408.66 315.61,417.85 361.57,423.02 407.53,428.22 453.48,432.10 499.44,434.29 545.40,437.91 591.36,439.57 637.32,440.36 683.28,442.32 729.24,443.24 775.20,444.34 821.16,446.18 867.12,445.23 913.08,445.32 959.04,446.61 1005.00,446.67"><title>lr_short_3e-4 validation</title></polyline>
<line x1="585" y1="580" x2="613" y2="580" stroke="#059669" stroke-width="3"/>
<text x="621" y="585" font-family="sans-serif" font-size="13">lr_short_3e-4</text>
<polyline fill="none" stroke="#7c3aed" stroke-width="2" points="95.00,133.67 104.19,219.55 113.38,297.49 122.58,340.23 131.77,360.78 140.96,374.68 150.15,382.90 159.34,388.30 168.54,397.72 177.73,404.65 186.92,408.50 196.11,414.02 205.30,416.53 214.49,421.65 223.69,423.57 232.88,427.85 242.07,428.56 251.26,429.11 260.45,430.58 269.65,433.24 278.84,433.50 288.03,436.23 297.22,440.25 306.41,440.38 315.61,439.16 324.80,441.29 333.99,442.30 343.18,445.62 352.37,446.97 361.57,450.28 370.76,450.24 379.95,448.46 389.14,448.49 398.33,446.19 407.53,450.38 416.72,449.91 425.91,447.86 435.10,452.58 444.29,450.06 453.48,454.48 462.68,456.62 471.87,454.81 481.06,455.67 490.25,456.76 499.44,456.86 508.64,454.84 517.83,456.71 527.02,457.53 536.21,454.98 545.40,457.66 554.60,458.57 563.79,462.44 572.98,461.50 582.17,460.62 591.36,463.80 600.56,465.27 609.75,460.75 618.94,463.24 628.13,461.26 637.32,463.28 646.52,461.38 655.71,462.96 664.90,464.40 674.09,464.25 683.28,461.79 692.47,461.28 701.67,465.72 710.86,462.97 720.05,462.60 729.24,463.88 738.43,464.43 747.63,462.01 756.82,465.80 766.01,465.60 775.20,462.76 784.39,468.83 793.59,464.87 802.78,465.10 811.97,466.23 821.16,468.87 830.35,466.58 839.55,468.22 848.74,467.34 857.93,468.49 867.12,466.35 876.31,469.77 885.51,466.61 894.70,468.26 903.89,470.83 913.08,467.92 922.27,466.01 931.46,466.58 940.66,465.47 949.85,468.04 959.04,466.51 968.23,467.37 977.42,467.53 986.62,468.16 995.81,467.94 1005.00,470.88"><title>lr_short_1e-3 train</title></polyline>
<polyline fill="none" stroke="#7c3aed" stroke-width="2" stroke-dasharray="7 5" points="131.77,361.57 177.73,404.82 223.69,423.82 269.65,433.44 315.61,441.35 361.57,445.42 407.53,450.19 453.48,453.79 499.44,455.96 545.40,459.39 591.36,461.15 637.32,461.70 683.28,463.86 729.24,464.67 775.20,465.82 821.16,467.62 867.12,467.01 913.08,467.13 959.04,468.32 1005.00,468.40"><title>lr_short_1e-3 validation</title></polyline>
<line x1="830" y1="580" x2="858" y2="580" stroke="#7c3aed" stroke-width="3"/>
<text x="866" y="585" font-family="sans-serif" font-size="13">lr_short_1e-3</text>
<polyline fill="none" stroke="#ea580c" stroke-width="2" points="95.00,180.62 104.19,304.27 113.38,346.03 122.58,369.40 131.77,379.64 140.96,389.79 150.15,399.08 159.34,402.54 168.54,411.32 177.73,416.86 186.92,420.01 196.11,424.81 205.30,425.46 214.49,431.06 223.69,431.50 232.88,435.74 242.07,436.12 251.26,435.93 260.45,437.04 269.65,439.54 278.84,439.60 288.03,441.84 297.22,445.69 306.41,445.85 315.61,444.69 324.80,446.71 333.99,446.71 343.18,450.53 352.37,451.56 361.57,454.53 370.76,454.42 379.95,452.45 389.14,452.78 398.33,450.02 407.53,454.38 416.72,452.99 425.91,451.83 435.10,456.55 444.29,454.28 453.48,457.70 462.68,459.73 471.87,458.53 481.06,458.93 490.25,460.10 499.44,459.82 508.64,458.11 517.83,459.88 527.02,461.20 536.21,458.51 545.40,460.88 554.60,461.69 563.79,466.32 572.98,464.71 582.17,463.90 591.36,467.17 600.56,468.48 609.75,464.07 618.94,466.82 628.13,464.78 637.32,466.77 646.52,464.81 655.71,466.90 664.90,467.88 674.09,467.82 683.28,465.68 692.47,465.33 701.67,469.76 710.86,466.93 720.05,466.98 729.24,467.82 738.43,468.38 747.63,466.13 756.82,470.10 766.01,469.74 775.20,467.57 784.39,473.26 793.59,469.95 802.78,469.86 811.97,470.66 821.16,473.34 830.35,470.98 839.55,473.06 848.74,472.10 857.93,472.96 867.12,470.76 876.31,474.36 885.51,471.68 894.70,473.16 903.89,475.65 913.08,473.00 922.27,470.99 931.46,471.56 940.66,470.55 949.85,472.93 959.04,471.72 968.23,472.28 977.42,472.46 986.62,473.40 995.81,472.84 1005.00,475.91"><title>lr_short_3e-3 train</title></polyline>
<polyline fill="none" stroke="#ea580c" stroke-width="2" stroke-dasharray="7 5" points="131.77,379.91 177.73,416.77 223.69,432.23 269.65,439.93 315.61,446.64 361.57,449.97 407.53,454.15 453.48,457.38 499.44,459.30 545.40,462.65 591.36,464.59 637.32,465.40 683.28,467.73 729.24,468.75 775.20,470.12 821.16,472.12 867.12,471.77 913.08,472.12 959.04,473.38 1005.00,473.57"><title>lr_short_3e-3 validation</title></polyline>
<line x1="95" y1="604" x2="123" y2="604" stroke="#ea580c" stroke-width="3"/>
<text x="131" y="609" font-family="sans-serif" font-size="13">lr_short_3e-3</text>
<line x1="790" y1="52" x2="820" y2="52" stroke="#374151" stroke-width="2"/>
<text x="827" y="57" font-family="sans-serif" font-size="13">train</text>
<line x1="895" y1="52" x2="925" y2="52" stroke="#374151" stroke-width="2" stroke-dasharray="7 5"/>
<text x="932" y="57" font-family="sans-serif" font-size="13">validation</text>
</svg>