<svg xmlns="http://www.w3.org/2000/svg" width="1100" height="634" viewBox="0 0 1100 634">
<rect width="1100" height="634" fill="white"/>
<text x="550" y="35" text-anchor="middle" font-family="sans-serif" font-size="24">TinyStories architecture ablations (finite loss below 10)</text>
<line x1="95.00" y1="75.0" x2="95.00" y2="495.0" stroke="#e5e7eb"/>
<text x="95.00" y="518.0" text-anchor="middle" font-family="sans-serif" font-size="12">328k</text>
<line x1="95.0" y1="75.00" x2="1005.0" y2="75.00" stroke="#e5e7eb"/>
<text x="83.0" y="79.00" text-anchor="end" font-family="sans-serif" font-size="12">9.570</text>
<line x1="277.00" y1="75.0" x2="277.00" y2="495.0" stroke="#e5e7eb"/>
<text x="277.00" y="518.0" text-anchor="middle" font-family="sans-serif" font-size="12">65.8M</text>
<line x1="95.0" y1="159.00" x2="1005.0" y2="159.00" stroke="#e5e7eb"/>
<text x="83.0" y="163.00" text-anchor="end" font-family="sans-serif" font-size="12">7.830</text>
<line x1="459.00" y1="75.0" x2="459.00" y2="495.0" stroke="#e5e7eb"/>
<text x="459.00" y="518.0" text-anchor="middle" font-family="sans-serif" font-size="12">131M</text>
<line x1="95.0" y1="243.00" x2="1005.0" y2="243.00" stroke="#e5e7eb"/>
<text x="83.0" y="247.00" text-anchor="end" font-family="sans-serif" font-size="12">6.090</text>
<line x1="641.00" y1="75.0" x2="641.00" y2="495.0" stroke="#e5e7eb"/>
<text x="641.00" y="518.0" text-anchor="middle" font-family="sans-serif" font-size="12">197M</text>
<line x1="95.0" y1="327.00" x2="1005.0" y2="327.00" stroke="#e5e7eb"/>
<text x="83.0" y="331.00" text-anchor="end" font-family="sans-serif" font-size="12">4.351</text>
<line x1="823.00" y1="75.0" x2="823.00" y2="495.0" stroke="#e5e7eb"/>
<text x="823.00" y="518.0" text-anchor="middle" font-family="sans-serif" font-size="12">262M</text>
<line x1="95.0" y1="411.00" x2="1005.0" y2="411.00" stroke="#e5e7eb"/>
<text x="83.0" y="415.00" text-anchor="end" font-family="sans-serif" font-size="12">2.611</text>
<line x1="1005.00" y1="75.0" x2="1005.00" y2="495.0" stroke="#e5e7eb"/>
<text x="1005.00" y="518.0" text-anchor="middle" font-family="sans-serif" font-size="12">328M</text>
<line x1="95.0" y1="495.00" x2="1005.0" y2="495.00" stroke="#e5e7eb"/>
<text x="83.0" y="499.00" text-anchor="end" font-family="sans-serif" font-size="12">0.871</text>
<line x1="95.0" y1="495.0" x2="1005.0" y2="495.0" stroke="black"/>
<line x1="95.0" y1="75.0" x2="95.0" y2="495.0" stroke="black"/>
<text x="550.0" y="555.0" text-anchor="middle" font-family="sans-serif">processed tokens</text>
<text x="28" y="285.0" text-anchor="middle" font-family="sans-serif" transform="rotate(-90 28 285.0)">loss</text>
<polyline fill="none" stroke="#2563eb" stroke-width="2" points="95.00,97.03 95.91,121.10 96.82,154.48 97.73,188.91 98.64,225.91 99.55,260.48 100.47,286.85 101.38,306.92 102.29,324.49 103.20,338.19 104.11,346.83 105.02,358.63 105.93,361.97 106.84,366.87 107.75,372.75 108.66,383.01 109.57,384.98 110.49,385.00 111.40,391.87 112.31,392.08 113.22,395.78 114.13,397.40 115.04,403.10 115.95,401.96 116.86,406.56 117.77,409.01 118.68,410.70 119.59,411.19 120.51,412.07 121.42,414.96 122.33,413.23 123.24,418.21 124.15,416.14 125.06,420.04 125.97,419.14 126.88,420.39 127.79,422.78 128.70,420.41 129.61,425.95 130.53,424.28 131.44,425.02 132.35,425.85 133.26,425.00 134.17,427.29 135.08,429.49 135.99,427.46 136.90,429.86 137.81,432.46 138.72,430.87 139.63,430.94 140.55,434.15 141.46,432.23 142.37,433.54 143.28,434.54 144.19,435.50 145.10,435.20 146.01,438.59 146.92,434.52 147.83,436.72 148.74,432.50 149.65,438.80 150.57,436.09 151.48,435.90 152.39,441.57 153.30,440.28 154.21,439.08 155.12,440.45 156.03,440.44 156.94,437.94 157.85,438.75 158.76,442.30 159.67,439.16 160.59,441.23 161.50,439.14 162.41,440.20 163.32,439.60 164.23,440.91 165.14,441.43 166.05,442.82 166.96,441.91 167.87,441.86 168.78,442.23 169.69,441.74 170.61,439.77 171.52,444.57 172.43,440.88 173.34,444.78 174.25,443.06 175.16,442.94 176.07,446.16 176.98,443.05 177.89,442.40 178.80,442.84 179.71,442.11 180.63,441.33 181.54,446.61 182.45,445.52 183.36,443.76 184.27,443.74 185.18,445.49 186.09,446.23 187.00,442.57 187.91,447.47 188.82,445.69 189.73,447.55 190.65,444.36 191.56,447.15 192.47,447.40 193.38,446.79 194.29,443.48 195.20,447.37 196.11,447.35 197.02,448.47 197.93,448.99 198.84,449.51 199.75,446.67 200.67,450.11 201.58,448.84 202.49,451.02 203.40,451.49 204.31,446.26 205.22,447.67 206.13,449.78 207.04,448.98 207.95,450.93 208.86,451.85 209.77,450.63 210.69,451.32 211.60,450.60 212.51,450.16 213.42,451.55 214.33,450.51 215.24,450.76 216.15,449.29 217.06,452.88 217.97,449.44 218.88,450.43 219.79,451.01 220.71,452.26 221.62,453.30 222.53,450.94 223.44,453.62 224.35,454.08 225.26,454.53 226.17,453.71 227.08,454.58 227.99,453.23 228.90,455.36 229.81,456.28 230.73,454.22 231.64,453.40 232.55,455.45 233.46,452.69 234.37,454.93 235.28,452.88 236.19,451.99 237.10,452.50 238.01,452.39 238.92,454.03 239.83,452.49 240.75,455.71 241.66,455.95 242.57,455.31 243.48,454.85 244.39,455.32 245.30,451.70 246.21,454.47 247.12,457.34 248.03,454.01 248.94,456.51 249.85,454.94 250.77,453.48 251.68,452.84 252.59,454.50 253.50,454.83 254.41,458.09 255.32,456.35 256.23,456.49 257.14,456.17 258.05,455.35 258.96,456.77 259.87,454.28 260.79,460.04 261.70,458.41 262.61,454.69 263.52,454.11 264.43,453.79 265.34,457.19 266.25,454.71 267.16,456.15 268.07,457.45 268.98,457.06 269.89,458.68 270.81,454.59 271.72,458.62 272.63,458.34 273.54,458.26 274.45,456.34 275.36,457.06 276.27,458.27 277.18,455.74 278.09,456.43 279.00,458.67 279.91,458.84 280.83,455.34 281.74,458.35 282.65,457.73 283.56,457.55 284.47,455.36 285.38,454.74 286.29,458.59 287.20,459.41 288.11,459.64 289.02,458.44 289.93,460.47 290.85,460.96 291.76,455.31 292.67,456.01 293.58,457.34 294.49,459.05 295.40,460.30 296.31,460.17 297.22,457.42 298.13,458.22 299.04,460.56 299.95,459.57 300.87,459.43 301.78,456.35 302.69,461.45 303.60,462.01 304.51,457.11 305.42,459.65 306.33,458.33 307.24,458.25 308.15,460.24 309.06,459.81 309.97,458.99 310.89,459.91 311.80,457.79 312.71,456.78 313.62,460.37 314.53,459.54 315.44,461.58 316.35,460.38 317.26,461.24 318.17,460.13 319.08,458.81 319.99,460.88 320.91,461.48 321.82,459.42 322.73,459.46 323.64,461.32 324.55,459.89 325.46,458.34 326.37,458.84 327.28,460.84 328.19,460.77 329.10,459.21 330.02,462.20 330.93,461.40 331.84,459.34 332.75,458.89 333.66,462.28 334.57,460.37 335.48,460.27 336.39,458.70 337.30,461.06 338.21,460.80 339.12,462.34 340.04,460.18 340.95,459.61 341.86,460.63 342.77,459.81 343.68,463.40 344.59,461.12 345.50,459.68 346.41,461.53 347.32,461.54 348.23,461.21 349.14,463.25 350.06,458.55 350.97,461.38 351.88,464.31 352.79,459.06 353.70,460.92 354.61,461.04 355.52,457.87 356.43,463.32 357.34,461.62 358.25,462.44 359.16,459.04 360.08,461.41 360.99,460.31 361.90,460.86 362.81,461.95 363.72,460.09 364.63,462.20 365.54,458.46 366.45,463.56 367.36,462.18 368.27,461.14 369.18,461.49 370.10,459.19 371.01,461.31 371.92,461.51 372.83,463.05 373.74,460.84 374.65,461.13 375.56,461.68 376.47,460.58 377.38,462.72 378.29,462.17 379.20,458.73 380.12,460.65 381.03,460.53 381.94,460.88 382.85,460.38 383.76,463.57 384.67,463.52 385.58,460.93 386.49,460.55 387.40,461.10 388.31,461.73 389.22,464.60 390.14,462.23 391.05,462.47 391.96,462.04 392.87,461.24 393.78,464.74 394.69,464.23 395.60,463.47 396.51,463.85 397.42,462.82 398.33,461.24 399.24,461.27 400.16,462.01 401.07,462.45 401.98,461.65 402.89,464.38 403.80,461.54 404.71,462.79 405.62,462.35 406.53,465.10 407.44,460.44 408.35,464.67 409.26,460.95 410.18,461.78 411.09,465.40 412.00,461.11 412.91,463.87 413.82,463.77 414.73,464.31 415.64,464.56 416.55,464.68 417.46,462.46 418.37,460.20 419.28,462.30 420.20,463.24 421.11,460.23 422.02,463.99 422.93,462.92 423.84,463.27 424.75,463.44 425.66,465.75 426.57,465.02 427.48,461.88 428.39,464.40 429.30,464.55 430.22,465.37 431.13,464.78 432.04,465.26 432.95,463.71 433.86,461.40 434.77,462.75 435.68,464.58 436.59,464.28 437.50,462.76 438.41,463.85 439.32,463.16 440.24,462.96 441.15,462.92 442.06,462.72 442.97,465.12 443.88,463.19 444.79,464.40 445.70,464.48 446.61,465.19 447.52,462.81 448.43,464.29 449.34,463.72 450.26,463.33 451.17,465.35 452.08,462.80 452.99,462.46 453.90,463.45 454.81,462.08 455.72,464.52 456.63,466.39 457.54,465.96 458.45,464.76 459.36,463.65 460.28,465.54 461.19,464.54 462.10,463.10 463.01,465.85 463.92,467.36 464.83,462.52 465.74,466.70 466.65,465.34 467.56,465.82 468.47,464.16 469.38,463.23 470.30,462.06 471.21,467.14 472.12,465.10 473.03,461.58 473.94,466.84 474.85,465.01 475.76,462.42 476.67,466.11 477.58,466.92 478.49,463.11 479.40,463.03 480.32,465.96 481.23,464.17 482.14,465.37 483.05,466.02 483.96,467.35 484.87,466.36 485.78,464.82 486.69,466.22 487.60,466.63 488.51,465.01 489.42,465.60 490.34,463.51 491.25,464.78 492.16,463.26 493.07,465.18 493.98,461.85 494.89,465.32 495.80,467.22 496.71,466.23 497.62,467.19 498.53,465.95 499.44,467.21 500.36,464.50 501.27,463.96 502.18,467.13 503.09,467.32 504.00,465.55 504.91,466.43 505.82,463.39 506.73,465.81 507.64,464.97 508.55,464.63 509.46,465.34 510.38,465.23 511.29,465.97 512.20,466.13 513.11,464.31 514.02,464.02 514.93,464.52 515.84,465.21 516.75,468.00 517.66,468.71 518.57,466.78 519.48,466.20 520.40,462.65 521.31,465.27 522.22,468.87 523.13,467.53 524.04,467.55 524.95,467.16 525.86,463.93 526.77,466.44 527.68,466.99 528.59,466.85 529.50,467.15 530.42,467.03 531.33,465.48 532.24,465.39 533.15,466.52 534.06,464.24 534.97,465.72 535.88,467.62 536.79,464.83 537.70,467.33 538.61,466.59 539.52,467.18 540.44,468.54 541.35,466.43 542.26,464.88 543.17,466.03 544.08,466.52 544.99,464.53 545.90,466.95 546.81,467.10 547.72,468.34 548.63,467.44 549.54,466.87 550.46,467.11 551.37,468.99 552.28,465.26 553.19,467.53 554.10,465.73 555.01,466.37 555.92,465.28 556.83,464.80 557.74,467.47 558.65,466.95 559.56,466.06 560.48,464.89 561.39,465.18 562.30,467.31 563.21,465.47 564.12,466.96 565.03,465.61 565.94,465.91 566.85,465.21 567.76,468.27 568.67,467.10 569.58,468.73 570.50,469.64 571.41,468.39 572.32,466.66 573.23,466.45 574.14,467.39 575.05,466.84 575.96,469.30 576.87,467.11 577.78,468.28 578.69,467.83 579.60,467.40 580.52,469.21 581.43,466.46 582.34,468.42 583.25,467.02 584.16,465.91 585.07,468.77 585.98,465.08 586.89,469.49 587.80,466.28 588.71,469.16 589.62,467.98 590.54,471.70 591.45,467.88 592.36,467.75 593.27,468.58 594.18,466.02 595.09,469.09 596.00,468.50 596.91,468.17 597.82,468.59 598.73,468.59 599.64,470.98 600.56,465.96 601.47,466.99 602.38,467.84 603.29,470.13 604.20,466.57 605.11,465.93 606.02,466.98 606.93,465.98 607.84,468.82 608.75,466.12 609.66,468.22 610.58,468.04 611.49,470.88 612.40,468.26 613.31,468.69 614.22,467.89 615.13,467.46 616.04,468.71 616.95,466.15 617.86,466.35 618.77,468.41 619.68,467.26 620.60,469.12 621.51,467.04 622.42,468.63 623.33,469.45 624.24,470.02 625.15,467.08 626.06,468.61 626.97,467.61 627.88,466.52 628.79,465.95 629.70,470.23 630.62,466.66 631.53,467.94 632.44,469.12 633.35,468.66 634.26,468.02 635.17,468.53 636.08,469.62 636.99,466.24 637.90,467.90 638.81,469.10 639.72,465.47 640.64,468.03 641.55,468.80 642.46,468.96 643.37,470.40 644.28,466.62 645.19,469.07 646.10,469.88 647.01,466.87 647.92,467.81 648.83,468.64 649.74,469.49 650.66,468.53 651.57,468.84 652.48,471.46 653.39,466.04 654.30,469.44 655.21,469.78 656.12,468.93 657.03,468.20 657.94,469.55 658.85,467.77 659.76,470.21 660.68,467.20 661.59,468.38 662.50,468.82 663.41,467.85 664.32,467.57 665.23,468.00 666.14,467.71 667.05,468.03 667.96,470.14 668.87,469.25 669.78,469.65 670.70,470.63 671.61,469.77 672.52,470.28 673.43,465.74 674.34,466.65 675.25,469.62 676.16,467.95 677.07,469.87 677.98,470.01 678.89,470.49 679.80,467.61 680.72,469.23 681.63,469.14 682.54,468.82 683.45,470.45 684.36,467.26 685.27,465.72 686.18,473.17 687.09,468.50 688.00,469.17 688.91,469.15 689.82,469.58 690.74,472.11 691.65,471.10 692.56,468.20 693.47,469.87 694.38,469.12 695.29,468.68 696.20,469.80 697.11,469.90 698.02,470.03 698.93,471.97 699.84,469.17 700.76,471.04 701.67,469.48 702.58,471.77 703.49,470.69 704.40,469.75 705.31,469.92 706.22,467.30 707.13,470.73 708.04,470.68 708.95,470.03 709.86,469.69 710.78,468.14 711.69,469.05 712.60,469.27 713.51,469.94 714.42,470.72 715.33,468.20 716.24,470.09 717.15,469.81 718.06,470.14 718.97,468.82 719.88,468.82 720.80,467.78 721.71,470.03 722.62,469.58 723.53,469.98 724.44,471.20 725.35,469.15 726.26,469.65 727.17,470.51 728.08,468.78 728.99,469.76 729.90,470.97 730.82,470.68 731.73,469.58 732.64,468.71 733.55,469.21 734.46,468.25 735.37,470.40 736.28,468.43 737.19,472.92 738.10,471.09 739.01,470.24 739.92,472.11 740.84,470.24 741.75,468.57 742.66,470.12 743.57,471.78 744.48,470.14 745.39,470.69 746.30,469.58 747.21,470.06 748.12,470.99 749.03,469.87 749.94,470.65 750.86,470.54 751.77,468.73 752.68,471.73 753.59,471.19 754.50,470.22 755.41,471.73 756.32,469.49 757.23,471.54 758.14,468.99 759.05,468.16 759.96,471.55 760.88,470.22 761.79,471.36 762.70,470.46 763.61,471.62 764.52,470.22 765.43,467.78 766.34,470.85 767.25,471.68 768.16,470.10 769.07,471.05 769.98,469.95 770.90,469.74 771.81,470.54 772.72,472.59 773.63,468.93 774.54,469.89 775.45,469.74 776.36,470.19 777.27,470.51 778.18,471.04 779.09,474.16 780.01,471.80 780.92,471.32 781.83,472.00 782.74,471.08 783.65,470.18 784.56,470.50 785.47,470.64 786.38,471.74 787.29,471.61 788.20,472.93 789.11,470.38 790.03,471.00 790.94,469.53 791.85,470.12 792.76,469.80 793.67,471.60 794.58,472.90 795.49,472.11 796.40,470.61 797.31,472.90 798.22,469.68 799.13,469.28 800.05,471.18 800.96,469.69 801.87,471.75 802.78,470.35 803.69,470.56 804.60,471.35 805.51,469.68 806.42,471.86 807.33,469.49 808.24,471.64 809.15,471.53 810.07,467.57 810.98,471.80 811.89,471.21 812.80,471.80 813.71,472.00 814.62,472.58 815.53,471.78 816.44,468.61 817.35,472.83 818.26,469.30 819.17,470.63 820.09,471.58 821.00,470.76 821.91,470.23 822.82,473.20 823.73,468.16 824.64,470.09 825.55,473.03 826.46,472.96 827.37,468.56 828.28,470.44 829.19,472.16 830.11,470.49 831.02,470.83 831.93,472.70 832.84,472.71 833.75,469.46 834.66,474.81 835.57,472.23 836.48,474.93 837.39,471.77 838.30,471.11 839.21,470.77 840.13,470.66 841.04,470.88 841.95,470.08 842.86,472.42 843.77,470.38 844.68,473.12 845.59,474.52 846.50,470.90 847.41,471.41 848.32,473.48 849.23,471.13 850.15,472.02 851.06,472.04 851.97,472.30 852.88,470.64 853.79,470.96 854.70,471.90 855.61,470.00 856.52,472.85 857.43,470.96 858.34,472.14 859.25,472.15 860.17,470.71 861.08,472.21 861.99,471.45 862.90,469.67 863.81,472.22 864.72,470.79 865.63,471.62 866.54,471.59 867.45,471.33 868.36,470.43 869.27,472.04 870.19,470.71 871.10,470.80 872.01,471.88 872.92,473.38 873.83,472.93 874.74,470.43 875.65,472.56 876.56,471.72 877.47,472.06 878.38,471.46 879.29,470.89 880.21,473.69 881.12,473.67 882.03,474.20 882.94,472.78 883.85,471.90 884.76,472.75 885.67,471.57 886.58,472.03 887.49,472.64 888.40,472.29 889.31,471.13 890.23,473.14 891.14,470.84 892.05,471.06 892.96,472.55 893.87,473.96 894.78,471.47 895.69,471.46 896.60,473.10 897.51,469.87 898.42,470.74 899.33,472.31 900.25,469.39 901.16,471.09 902.07,472.79 902.98,472.13 903.89,470.80 904.80,475.10 905.71,471.85 906.62,474.05 907.53,472.73 908.44,473.34 909.35,472.58 910.27,471.30 911.18,472.69 912.09,474.31 913.00,472.79 913.91,472.33 914.82,470.43 915.73,473.30 916.64,472.55 917.55,472.60 918.46,472.40 919.37,473.67 920.29,470.35 921.20,471.47 922.11,470.87 923.02,469.80 923.93,473.92 924.84,472.00 925.75,472.67 926.66,472.77 927.57,471.97 928.48,471.92 929.39,471.65 930.31,471.96 931.22,473.49 932.13,472.64 933.04,472.86 933.95,470.24 934.86,472.59 935.77,472.64 936.68,470.47 937.59,473.10 938.50,470.51 939.41,473.16 940.33,470.07 941.24,473.03 942.15,472.21 943.06,472.50 943.97,472.72 944.88,473.54 945.79,473.05 946.70,474.26 947.61,474.28 948.52,472.31 949.43,472.52 950.35,472.15 951.26,474.81 952.17,473.68 953.08,472.92 953.99,472.41 954.90,473.08 955.81,470.68 956.72,473.82 957.63,471.17 958.54,472.33 959.45,475.91 960.37,472.71 961.28,470.91 962.19,472.12 963.10,472.40 964.01,473.76 964.92,472.38 965.83,473.13 966.74,472.51 967.65,475.53 968.56,474.46 969.47,473.53 970.39,470.90 971.30,471.93 972.21,471.75 973.12,474.15 974.03,471.60 974.94,471.18 975.85,473.53 976.76,474.71 977.67,473.93 978.58,473.01 979.49,473.98 980.41,472.29 981.32,470.68 982.23,474.19 983.14,473.89 984.05,472.49 984.96,473.12 985.87,470.50 986.78,474.12 987.69,470.85 988.60,472.08 989.51,474.69 990.43,474.63 991.34,475.20 992.25,472.96 993.16,473.27 994.07,472.75 994.98,474.45 995.89,473.91 996.80,473.32 997.71,474.36 998.62,473.88 999.53,472.58 1000.45,474.36 1001.36,473.20 1002.27,473.01 1003.18,475.02 1004.09,473.73 1005.00,471.15"><title>Baseline (SwiGLU, Pre-Norm) train</title></polyline>
<polyline fill="none" stroke="#2563eb" stroke-width="2" stroke-dasharray="7 5" points="139.63,431.59 185.18,445.65 230.73,453.68 276.27,458.37 321.82,460.14 367.36,461.68 412.91,462.52 458.45,464.18 504.00,465.26 549.54,465.86 595.09,467.74 640.64,468.62 686.18,468.59 731.73,470.21 777.27,470.14 822.82,471.07 868.36,471.63 913.91,472.64 959.45,472.30 1005.00,472.23"><title>Baseline (SwiGLU, Pre-Norm) validation</title></polyline>
<line x1="95" y1="580" x2="123" y2="580" stroke="#2563eb" stroke-width="3"/>
<text x="131" y="585" font-family="sans-serif" font-size="13">Baseline (SwiGLU, Pre-Norm)</text>
<polyline fill="none" stroke="#dc2626" stroke-width="2" points="96.82,114.60 97.73,217.40 98.64,267.25 99.55,296.94 100.47,317.33 101.38,332.00 102.29,342.96 103.20,350.61 104.11,355.99 105.02,366.21 105.93,367.53 106.84,370.83 107.75,375.01 108.66,384.68 109.57,385.86 110.49,384.44 111.40,389.56 112.31,389.86 113.22,393.38 114.13,393.94 115.04,398.68 115.95,398.22 116.86,403.20 117.77,405.21 118.68,406.58 119.59,406.49 120.51,407.51 121.42,410.68 122.33,408.74 123.24,413.36 124.15,411.51 125.06,415.19 125.97,414.23 126.88,416.17 127.79,417.95 128.70,415.63 129.61,421.29 130.53,419.25 131.44,420.25 132.35,420.69 133.26,419.63 134.17,421.40 135.08,423.83 135.99,421.71 136.90,423.28 137.81,427.22 138.72,425.50 139.63,425.17 140.55,428.35 141.46,427.18 142.37,427.96 143.28,429.36 144.19,429.12 145.10,428.80 146.01,432.52 146.92,429.37 147.83,431.29 148.74,426.40 149.65,432.74 150.57,430.60 151.48,430.41 152.39,435.88 153.30,433.68 154.21,432.90 155.12,433.55 156.03,434.53 156.94,432.00 157.85,430.66 158.76,434.88"><title>No RMSNorm @ 3e-3 (diverged) train</title></polyline>
<polyline fill="none" stroke="#dc2626" stroke-width="2" stroke-dasharray="7 5" points="139.63,426.03"><title>No RMSNorm @ 3e-3 (diverged) validation</title></polyline>
<line x1="340" y1="580" x2="368" y2="580" stroke="#dc2626" stroke-width="3"/>
<text x="376" y="585" font-family="sans-serif" font-size="13">No RMSNorm @ 3e-3 (diverged)</text>
<polyline fill="none" stroke="#059669" stroke-width="2" points="101.38,94.09 102.29,146.29 103.20,184.98 104.11,224.29 105.02,253.78 105.93,268.61 106.84,279.94 107.75,288.96 108.66,308.72 109.57,314.95 110.49,318.81 111.40,327.46 112.31,327.47 113.22,332.98 114.13,334.35 115.04,342.03 115.95,343.42 116.86,347.64 117.77,350.28 118.68,352.34 119.59,353.75 120.51,354.29 121.42,358.27 122.33,356.38 123.24,363.19 124.15,361.92 125.06,364.98 125.97,365.31 126.88,366.55 127.79,369.65 128.70,367.46 129.61,374.46 130.53,372.40 131.44,372.39 132.35,374.25 133.26,374.58 134.17,376.49 135.08,379.86 135.99,376.67 136.90,379.19 137.81,382.69 138.72,381.41 139.63,381.39 140.55,387.17 141.46,385.21 142.37,384.67 143.28,387.86 144.19,388.54 145.10,389.70 146.01,392.96 146.92,390.69 147.83,392.41 148.74,388.31 149.65,395.74 150.57,393.06 151.48,393.43 152.39,399.36 153.30,398.26 154.21,397.51 155.12,399.26 156.03,400.19 156.94,396.38 157.85,398.70 158.76,401.76 159.67,399.82 160.59,401.76 161.50,400.93 162.41,401.49 163.32,402.88 164.23,402.94 165.14,404.96 166.05,405.78 166.96,404.73 167.87,404.81 168.78,406.67 169.69,407.28 170.61,403.26 171.52,409.57 172.43,407.38 173.34,411.04 174.25,409.36 175.16,410.35 176.07,413.36 176.98,410.91 177.89,409.89 178.80,410.22 179.71,409.95 180.63,409.14 181.54,416.10 182.45,414.91 183.36,412.93 184.27,413.60 185.18,415.04 186.09,417.37 187.00,413.76 187.91,419.26 188.82,416.46 189.73,419.13 190.65,415.86 191.56,419.49 192.47,420.01 193.38,419.06 194.29,415.94 195.20,419.88 196.11,419.27 197.02,421.32 197.93,421.49 198.84,422.82 199.75,420.29 200.67,423.38 201.58,422.04 202.49,424.15 203.40,425.70 204.31,419.51 205.22,421.56 206.13,423.25 207.04,424.01 207.95,425.64 208.86,426.09 209.77,426.42 210.69,426.56 211.60,424.99 212.51,425.41 213.42,426.77 214.33,427.14 215.24,426.92 216.15,424.83 217.06,428.27 217.97,425.66 218.88,426.56 219.79,427.25 220.71,429.16 221.62,430.66 222.53,427.72 223.44,430.72 224.35,431.33 225.26,431.22 226.17,431.47 227.08,432.20 227.99,430.83 228.90,433.56 229.81,435.21 230.73,431.06 231.64,431.78 232.55,434.80 233.46,431.05 234.37,432.91 235.28,431.57 236.19,430.86 237.10,431.99 238.01,430.53 238.92,433.34 239.83,432.35 240.75,435.36 241.66,435.23 242.57,435.05 243.48,434.49 244.39,435.26 245.30,431.62 246.21,434.80 247.12,437.81 248.03,434.35 248.94,437.39 249.85,435.31 250.77,433.17 251.68,432.69 252.59,435.33 253.50,435.63 254.41,439.40 255.32,437.09 256.23,437.65 257.14,437.50 258.05,436.19 258.96,438.14 259.87,435.85 260.79,441.22 261.70,440.63 262.61,436.58 263.52,435.45 264.43,434.53 265.34,438.61 266.25,436.33 267.16,438.41 268.07,439.70 268.98,439.60 269.89,440.69 270.81,436.16 271.72,441.53 272.63,441.25 273.54,440.96 274.45,439.09 275.36,439.92 276.27,440.99 277.18,438.52 278.09,438.01 279.00,441.78 279.91,441.91 280.83,438.93 281.74,441.76 282.65,440.71 283.56,440.54 284.47,438.12 285.38,437.70 286.29,442.64 287.20,442.89 288.11,443.29 289.02,442.41 289.93,444.05 290.85,444.31 291.76,438.63 292.67,439.21 293.58,440.78 294.49,442.83 295.40,444.29 296.31,444.64 297.22,441.72 298.13,441.67 299.04,444.50 299.95,443.49 300.87,443.33 301.78,440.48 302.69,446.64 303.60,446.79 304.51,440.77 305.42,444.68 306.33,442.85 307.24,442.65 308.15,444.98 309.06,444.12 309.97,443.11 310.89,444.75 311.80,442.26 312.71,440.79 313.62,444.86 314.53,444.01 315.44,447.19 316.35,445.36 317.26,445.99 318.17,445.55 319.08,442.99 319.99,446.14 320.91,446.82 321.82,444.49 322.73,444.11 323.64,446.80 324.55,445.27 325.46,443.83 326.37,443.90 327.28,446.33 328.19,446.84 329.10,444.14 330.02,446.82 330.93,446.11 331.84,444.83 332.75,444.65 333.66,448.19 334.57,445.96 335.48,445.13 336.39,444.61 337.30,446.56 338.21,446.41 339.12,448.45 340.04,445.53 340.95,445.17 341.86,446.53 342.77,445.52 343.68,449.81 344.59,447.30 345.50,445.00 346.41,447.68 347.32,447.73 348.23,447.09 349.14,449.12 350.06,444.21 350.97,447.81 351.88,450.47 352.79,444.91 353.70,446.50 354.61,446.47 355.52,443.07 356.43,449.86 357.34,447.50 358.25,448.62 359.16,445.24 360.08,447.64 360.99,446.44 361.90,447.16 362.81,448.06 363.72,446.39 364.63,449.22 365.54,444.40 366.45,450.51 367.36,448.82 368.27,447.51 369.18,447.53 370.10,445.37 371.01,448.25 371.92,448.19 372.83,449.96 373.74,447.28 374.65,447.48 375.56,448.93 376.47,447.01 377.38,449.54 378.29,449.05 379.20,445.38 380.12,447.44 381.03,446.60 381.94,447.85 382.85,447.30 383.76,450.68 384.67,450.60 385.58,447.44 386.49,447.38 387.40,449.00 388.31,448.94 389.22,451.57 390.14,448.84 391.05,449.24 391.96,448.72 392.87,448.80 393.78,452.42 394.69,452.20 395.60,450.65 396.51,450.73 397.42,450.19 398.33,448.70 399.24,448.71 400.16,448.94 401.07,449.86 401.98,448.63 402.89,451.70 403.80,448.99 404.71,449.73 405.62,450.10 406.53,452.43 407.44,448.07 408.35,452.07 409.26,447.74 410.18,448.41 411.09,452.32 412.00,448.16 412.91,450.99 413.82,451.31 414.73,451.88 415.64,452.12 416.55,452.63 417.46,449.88 418.37,447.50 419.28,450.05 420.20,450.88 421.11,446.38 422.02,452.00 422.93,450.25 423.84,451.05 424.75,451.64 425.66,453.83 426.57,452.78 427.48,449.29 428.39,451.98 429.30,452.35 430.22,453.09 431.13,453.21 432.04,452.67 432.95,451.13 433.86,448.21 434.77,450.62 435.68,452.30 436.59,452.13 437.50,449.82 438.41,451.35 439.32,450.73 440.24,450.96 441.15,450.49 442.06,450.90 442.97,453.43 443.88,450.85 444.79,452.69 445.70,452.67 446.61,453.89 447.52,450.55 448.43,452.73 449.34,451.61 450.26,451.93 451.17,453.13 452.08,450.75 452.99,450.72 453.90,451.82 454.81,449.60 455.72,453.39 456.63,454.78 457.54,453.63 458.45,453.27 459.36,451.96 460.28,454.40 461.19,452.66 462.10,451.31 463.01,453.78 463.92,455.54 464.83,451.42 465.74,455.32 466.65,453.72 467.56,454.30 468.47,453.07 469.38,451.48 470.30,449.55 471.21,455.84 472.12,453.80 473.03,449.73 473.94,455.36 474.85,453.55 475.76,451.09 476.67,454.56 477.58,455.34 478.49,451.77 479.40,450.97 480.32,454.31 481.23,452.70 482.14,453.63 483.05,454.69 483.96,456.37 484.87,454.51 485.78,453.33 486.69,455.18 487.60,455.18 488.51,454.00 489.42,454.63 490.34,451.85 491.25,453.44 492.16,451.56 493.07,453.67 493.98,450.38 494.89,454.10 495.80,455.96 496.71,454.67 497.62,455.67 498.53,454.48 499.44,456.17 500.36,453.17 501.27,452.51 502.18,456.27 503.09,456.44 504.00,453.83 504.91,455.35 505.82,451.98 506.73,454.37 507.64,453.78 508.55,453.64 509.46,454.20 510.38,454.50 511.29,455.16 512.20,455.03 513.11,453.26 514.02,452.29 514.93,453.15 515.84,454.22 516.75,457.21 517.66,458.12 518.57,455.66 519.48,455.17 520.40,451.04 521.31,453.90 522.22,458.25 523.13,456.52 524.04,456.52 524.95,456.03 525.86,452.66 526.77,455.26 527.68,456.81 528.59,455.91 529.50,456.37 530.42,455.50 531.33,454.05 532.24,454.00 533.15,455.43 534.06,453.22 534.97,454.93 535.88,457.02 536.79,453.91 537.70,455.90 538.61,456.03 539.52,456.11 540.44,458.02 541.35,455.69 542.26,453.55 543.17,455.22 544.08,456.04 544.99,453.25 545.90,455.51 546.81,456.40 547.72,457.79 548.63,456.66 549.54,456.83 550.46,456.57 551.37,458.30 552.28,454.27 553.19,457.03 554.10,454.99 555.01,455.52 555.92,454.21 556.83,453.44 557.74,456.32 558.65,456.55 559.56,455.00 560.48,453.86 561.39,454.13 562.30,456.27 563.21,454.06 564.12,456.24 565.03,454.42 565.94,455.25 566.85,454.63 567.76,457.60 568.67,456.52 569.58,458.57 570.50,458.95 571.41,457.86 572.32,455.55 573.23,456.04 574.14,456.89 575.05,456.70 575.96,458.35 576.87,456.75 577.78,457.88 578.69,457.22 579.60,456.69 580.52,459.02 581.43,455.75 582.34,457.86 583.25,456.71 584.16,455.37 585.07,458.75 585.98,454.87 586.89,459.21 587.80,455.20 588.71,458.97 589.62,456.64 590.54,461.53 591.45,457.26 592.36,457.08 593.27,457.82 594.18,455.10 595.09,458.56 596.00,457.93 596.91,458.19 597.82,457.74 598.73,457.79 599.64,460.24 600.56,454.96 601.47,456.96 602.38,457.17 603.29,459.74 604.20,455.32 605.11,454.45 606.02,456.28 606.93,455.39 607.84,458.41 608.75,455.82 609.66,457.57 610.58,457.30 611.49,460.86 612.40,457.82 613.31,458.11 614.22,457.39 615.13,456.68 616.04,458.62 616.95,455.14 617.86,455.35 618.77,457.89 619.68,457.27 620.60,458.92 621.51,456.77 622.42,458.26 623.33,459.19 624.24,459.64 625.15,456.58 626.06,457.90 626.97,457.57 627.88,456.33 628.79,455.78 629.70,459.70 630.62,456.32 631.53,457.42 632.44,458.71 633.35,458.03 634.26,457.02 635.17,457.86 636.08,459.22 636.99,456.01 637.90,457.54 638.81,459.12 639.72,454.78 640.64,456.81 641.55,458.87 642.46,458.06 643.37,460.21 644.28,456.42 645.19,458.82 646.10,459.68 647.01,456.47 647.92,457.91 648.83,458.54 649.74,459.23 650.66,457.98 651.57,458.21 652.48,461.30 653.39,455.38 654.30,459.53 655.21,459.31 656.12,458.40 657.03,457.67 657.94,459.51 658.85,456.79 659.76,460.03 660.68,456.74 661.59,456.90 662.50,458.67 663.41,457.46 664.32,457.66 665.23,457.14 666.14,457.36 667.05,457.16 667.96,459.36 668.87,458.71 669.78,459.78 670.70,460.09 671.61,459.50 672.52,459.92 673.43,454.45 674.34,455.73 675.25,458.82 676.16,457.86 677.07,459.21 677.98,459.38 678.89,459.95 679.80,456.99 680.72,458.91 681.63,458.77 682.54,458.19 683.45,460.32 684.36,457.71 685.27,454.25 686.18,463.81 687.09,457.46 688.00,458.91 688.91,458.97 689.82,459.31 690.74,462.00 691.65,461.11 692.56,457.58 693.47,459.68 694.38,458.63 695.29,458.67 696.20,459.77 697.11,459.51 698.02,459.79 698.93,461.03 699.84,458.27 700.76,460.47 701.67,459.25 702.58,461.56 703.49,460.45 704.40,459.69 705.31,459.30 706.22,456.74 707.13,460.65 708.04,461.01 708.95,459.76 709.86,459.33 710.78,457.43 711.69,458.96 712.60,458.80 713.51,458.84 714.42,459.82 715.33,457.84 716.24,459.81 717.15,459.17 718.06,459.21 718.97,457.69 719.88,458.82 720.80,457.63 721.71,460.22 722.62,459.31 723.53,459.60 724.44,461.23 725.35,458.43 726.26,459.20 727.17,460.66 728.08,458.17 728.99,459.24 729.90,460.94 730.82,460.21 731.73,459.66 732.64,457.78 733.55,458.95 734.46,457.19 735.37,460.30 736.28,457.97 737.19,462.92 738.10,460.39 739.01,459.86 739.92,461.67 740.84,459.71 741.75,457.87 742.66,459.88 743.57,461.70 744.48,459.32 745.39,460.39 746.30,458.58 747.21,459.23 748.12,460.33 749.03,459.29 749.94,460.18 750.86,460.45 751.77,458.09 752.68,461.48 753.59,460.87 754.50,460.00 755.41,462.13 756.32,458.65 757.23,461.40 758.14,458.05 759.05,457.57 759.96,461.09 760.88,459.62 761.79,461.15 762.70,459.60 763.61,461.06 764.52,459.88 765.43,457.51 766.34,460.34 767.25,461.40 768.16,459.23 769.07,460.61 769.98,459.47 770.90,459.20 771.81,460.62 772.72,462.43 773.63,458.73 774.54,459.54 775.45,459.29 776.36,459.21 777.27,459.76 778.18,461.04 779.09,463.60 780.01,461.38 780.92,461.20 781.83,461.20 782.74,461.26 783.65,459.79 784.56,460.56 785.47,460.35 786.38,461.49 787.29,461.10 788.20,462.97 789.11,459.51 790.03,461.02 790.94,459.03 791.85,459.69 792.76,459.46 793.67,460.88 794.58,462.65 795.49,461.76 796.40,460.06 797.31,463.10 798.22,459.27 799.13,458.94 800.05,461.01 800.96,459.37 801.87,461.47 802.78,460.08 803.69,459.94 804.60,461.43 805.51,459.18 806.42,461.78 807.33,458.56 808.24,461.28 809.15,461.06 810.07,457.17 810.98,461.47 811.89,460.09 812.80,461.75 813.71,461.25 814.62,462.23 815.53,461.44 816.44,457.77 817.35,463.29 818.26,458.47 819.17,459.54 820.09,461.03 821.00,460.33 821.91,459.69 822.82,463.50 823.73,457.65 824.64,459.08 825.55,462.71 826.46,462.19 827.37,458.32 828.28,460.33 829.19,455.05 830.11,459.77 831.02,460.30 831.93,462.68 832.84,462.38 833.75,458.69 834.66,464.79 835.57,461.53 836.48,465.43 837.39,461.24 838.30,460.83 839.21,460.27 840.13,459.71 841.04,460.56 841.95,459.49 842.86,462.41 843.77,459.94 844.68,463.01 845.59,464.27 846.50,460.18 847.41,461.03 848.32,462.25 849.23,460.79 850.15,461.90 851.06,461.95 851.97,461.48 852.88,460.05 853.79,460.06 854.70,461.18 855.61,459.15 856.52,462.19 857.43,459.96 858.34,461.11 859.25,461.50 860.17,460.39 861.08,461.93 861.99,461.54 862.90,459.27 863.81,461.59 864.72,460.19 865.63,460.85 866.54,461.24 867.45,460.48 868.36,459.41 869.27,461.40 870.19,460.20 871.10,460.39 872.01,461.01 872.92,462.00 873.83,462.53 874.74,459.41 875.65,461.91 876.56,460.89 877.47,461.01 878.38,460.85 879.29,460.07 880.21,463.66 881.12,463.34 882.03,463.86 882.94,462.73 883.85,461.51 884.76,461.89 885.67,460.71 886.58,461.48 887.49,461.75 888.40,461.30 889.31,460.25 890.23,462.59 891.14,459.76 892.05,460.25 892.96,462.20 893.87,463.40 894.78,460.75 895.69,461.01 896.60,463.32 897.51,458.90 898.42,459.48 899.33,461.50 900.25,458.89 901.16,460.01 902.07,462.11 902.98,461.66 903.89,460.06 904.80,465.18 905.71,461.14 906.62,463.20 907.53,462.25 908.44,463.31 909.35,462.25 910.27,460.66 911.18,461.91 912.09,463.90 913.00,462.48 913.91,462.15 914.82,459.61 915.73,462.50 916.64,462.29 917.55,461.94 918.46,461.31 919.37,463.22 920.29,459.28 921.20,461.02 922.11,460.31 923.02,458.38 923.93,463.82 924.84,461.25 925.75,462.18 926.66,462.06 927.57,461.25 928.48,460.54 929.39,460.38 930.31,461.25 931.22,463.38 932.13,461.89 933.04,462.36 933.95,459.11 934.86,462.08 935.77,461.85 936.68,459.32 937.59,462.45 938.50,459.93 939.41,462.97 940.33,458.97 941.24,462.29 942.15,461.11 943.06,461.87 943.97,461.49 944.88,463.30 945.79,462.70 946.70,463.65 947.61,463.89 948.52,460.94 949.43,461.54 950.35,460.97 951.26,464.25 952.17,462.31 953.08,462.21 953.99,461.73 954.90,462.27 955.81,459.79 956.72,462.87 957.63,460.55 958.54,461.01 959.45,465.46 960.37,462.22 961.28,460.26 962.19,461.72 963.10,461.90 964.01,463.17 964.92,461.78 965.83,462.45 966.74,461.85 967.65,464.84 968.56,463.57 969.47,463.05 970.39,459.92 971.30,461.17 972.21,460.35 973.12,464.01 974.03,460.87 974.94,459.84 975.85,463.06 976.76,464.05 977.67,463.52 978.58,461.99 979.49,463.74 980.41,462.07 981.32,459.66 982.23,463.51 983.14,463.49 984.05,461.92 984.96,462.31 985.87,459.25 986.78,462.71 987.69,459.55 988.60,461.51 989.51,464.62 990.43,463.72 991.34,464.48 992.25,462.24 993.16,462.77 994.07,462.24 994.98,464.16 995.89,464.05 996.80,462.53 997.71,463.89 998.62,463.77 999.53,461.97 1000.45,463.61 1001.36,462.78 1002.27,462.41 1003.18,464.82 1004.09,463.17 1005.00,460.23"><title>No RMSNorm @ 3e-4 train</title></polyline>
<polyline fill="none" stroke="#059669" stroke-width="2" stroke-dasharray="7 5" points="139.63,383.11 185.18,414.88 230.73,431.89 276.27,441.07 321.82,445.34 367.36,448.38 412.91,450.11 458.45,452.58 504.00,454.17 549.54,455.07 595.09,457.32 640.64,458.33 686.18,458.33 731.73,459.90 777.27,459.73 822.82,460.59 868.36,461.20 913.91,462.13 959.45,461.81 1005.00,461.61"><title>No RMSNorm @ 3e-4 validation</title></polyline>
<line x1="585" y1="580" x2="613" y2="580" stroke="#059669" stroke-width="3"/>
<text x="621" y="585" font-family="sans-serif" font-size="13">No RMSNorm @ 3e-4</text>
<polyline fill="none" stroke="#7c3aed" stroke-width="2" points="95.00,97.82 95.91,124.40 96.82,156.46 97.73,189.36 98.64,226.82 99.55,261.87 100.47,289.19 101.38,310.07 102.29,328.40 103.20,341.64 104.11,349.76 105.02,362.73 105.93,366.26 106.84,370.51 107.75,376.41 108.66,386.51 109.57,388.62 110.49,388.14 111.40,394.84 112.31,394.29 113.22,397.95 114.13,399.34 115.04,404.83 115.95,403.91 116.86,408.50 117.77,410.57 118.68,411.86 119.59,412.41 120.51,413.11 121.42,416.10 122.33,414.38 123.24,419.14 124.15,417.13 125.06,420.70 125.97,420.29 126.88,421.52 127.79,423.54 128.70,421.17 129.61,426.74 130.53,425.03 131.44,425.49 132.35,426.37 133.26,425.01 134.17,427.43 135.08,429.84 135.99,427.74 136.90,429.51 137.81,432.60 138.72,430.63 139.63,430.92 140.55,433.74 141.46,432.44 142.37,433.06 143.28,434.14 144.19,434.90 145.10,434.13 146.01,437.36 146.92,434.80 147.83,436.68 148.74,432.34 149.65,438.30 150.57,435.13 151.48,434.91 152.39,440.58 153.30,438.91 154.21,438.55 155.12,439.17 156.03,439.15 156.94,436.54 157.85,437.50 158.76,440.58 159.67,437.65 160.59,439.47 161.50,437.39 162.41,437.74 163.32,436.02 164.23,438.11 165.14,438.22 166.05,439.64 166.96,438.84 167.87,439.58 168.78,439.79 169.69,439.42 170.61,436.85 171.52,441.42 172.43,438.31 173.34,442.22 174.25,440.91 175.16,440.28 176.07,443.73 176.98,440.11 177.89,438.90 178.80,440.00 179.71,439.05 180.63,438.64 181.54,443.89 182.45,442.17 183.36,440.11 184.27,440.59 185.18,442.22 186.09,442.61 187.00,439.23 187.91,444.43 188.82,443.21 189.73,444.24 190.65,441.14 191.56,444.22 192.47,444.10 193.38,443.79 194.29,440.27 195.20,444.27 196.11,444.66 197.02,445.94 197.93,446.32 198.84,446.56 199.75,444.03 200.67,447.19 201.58,445.72 202.49,448.29 203.40,449.04 204.31,443.58 205.22,444.93 206.13,446.87 207.04,445.81 207.95,447.85 208.86,448.70 209.77,448.49 210.69,448.64 211.60,447.73 212.51,447.91 213.42,448.44 214.33,448.00 215.24,447.88 216.15,446.91 217.06,450.52 217.97,446.86 218.88,447.67 219.79,448.44 220.71,449.44 221.62,450.67 222.53,448.15 223.44,450.71 224.35,451.65 225.26,451.88 226.17,451.25 227.08,452.29 227.99,451.21 228.90,452.88 229.81,454.01 230.73,451.27 231.64,451.22 232.55,453.39 233.46,450.14 234.37,451.96 235.28,450.27 236.19,449.48 237.10,450.14 238.01,449.78 238.92,451.78 239.83,449.82 240.75,453.56 241.66,452.99 242.57,452.65 243.48,452.50 244.39,453.00 245.30,449.31 246.21,451.78 247.12,454.36 248.03,450.91 248.94,453.52 249.85,452.28 250.77,451.23 251.68,450.11 252.59,451.56 253.50,451.96 254.41,455.41 255.32,453.52 256.23,453.70 257.14,453.65 258.05,452.78 258.96,454.04 259.87,451.57 260.79,457.10 261.70,455.66 262.61,451.87 263.52,451.55 264.43,450.97 265.34,453.91 266.25,451.93 267.16,453.37 268.07,454.78 268.98,454.05 269.89,455.66 270.81,451.45 271.72,455.78 272.63,455.44 273.54,455.51 274.45,453.79 275.36,453.88 276.27,455.16 277.18,453.10 278.09,452.98 279.00,455.58 279.91,455.93 280.83,452.67 281.74,455.90 282.65,454.95 283.56,454.61 284.47,452.78 285.38,451.98 286.29,456.32 287.20,456.44 288.11,456.99 289.02,456.11 289.93,457.61 290.85,458.15 291.76,452.76 292.67,453.01 293.58,454.69 294.49,456.30 295.40,457.66 296.31,457.62 297.22,454.47 298.13,455.00 299.04,458.02 299.95,456.17 300.87,456.51 301.78,453.02 302.69,458.52 303.60,459.21 304.51,453.92 305.42,456.50 306.33,455.27 307.24,455.48 308.15,457.37 309.06,456.81 309.97,456.20 310.89,457.22 311.80,455.00 312.71,453.68 313.62,457.42 314.53,456.57 315.44,458.52 316.35,457.56 317.26,458.60 318.17,457.05 319.08,455.71 319.99,458.30 320.91,458.76 321.82,456.27 322.73,456.60 323.64,458.45 324.55,457.17 325.46,455.52 326.37,456.16 327.28,458.17 328.19,458.28 329.10,456.40 330.02,459.02 330.93,458.59 331.84,456.47 332.75,456.36 333.66,459.43 334.57,457.38 335.48,457.43 336.39,455.71 337.30,457.93 338.21,457.81 339.12,459.60 340.04,457.41 340.95,456.71 341.86,457.77 342.77,457.07 343.68,460.20 344.59,458.41 345.50,456.58 346.41,458.74 347.32,458.54 348.23,457.98 349.14,459.91 350.06,455.74 350.97,458.08 351.88,461.13 352.79,456.12 353.70,457.77 354.61,457.59 355.52,454.77 356.43,460.68 357.34,458.59 358.25,459.53 359.16,455.94 360.08,458.35 360.99,456.94 361.90,457.81 362.81,459.07 363.72,457.03 364.63,459.78 365.54,455.46 366.45,460.77 367.36,459.32 368.27,457.99 369.18,458.36 370.10,456.26 371.01,458.21 371.92,458.46 372.83,459.80 373.74,457.69 374.65,458.28 375.56,458.92 376.47,457.45 377.38,459.91 378.29,459.59 379.20,455.65 380.12,457.61 381.03,457.23 381.94,458.08 382.85,457.04 383.76,460.73 384.67,460.35 385.58,457.41 386.49,457.76 387.40,458.53 388.31,458.63 389.22,461.64 390.14,459.28 391.05,459.94 391.96,459.21 392.87,458.11 393.78,461.80 394.69,461.21 395.60,460.53 396.51,460.89 397.42,459.84 398.33,458.64 399.24,458.42 400.16,459.45 401.07,459.49 401.98,458.74 402.89,461.34 403.80,458.84 404.71,459.78 405.62,459.33 406.53,462.00 407.44,457.47 408.35,461.46 409.26,457.86 410.18,458.47 411.09,462.22 412.00,458.10 412.91,460.93 413.82,460.83 414.73,461.57 415.64,461.21 416.55,461.65 417.46,459.60 418.37,457.06 419.28,459.20 420.20,460.35 421.11,457.07 422.02,461.43 422.93,459.93 423.84,460.43 424.75,460.69 425.66,462.50 426.57,462.33 427.48,459.10 428.39,461.22 429.30,461.23 430.22,462.57 431.13,461.43 432.04,462.30 432.95,460.74 433.86,458.03 434.77,459.88 435.68,461.72 436.59,461.14 437.50,459.68 438.41,461.33 439.32,460.11 440.24,459.72 441.15,460.02 442.06,459.76 442.97,462.35 443.88,460.12 444.79,461.35 445.70,461.55 446.61,462.27 447.52,459.94 448.43,461.50 449.34,460.89 450.26,460.26 451.17,462.60 452.08,459.90 452.99,459.65 453.90,460.57 454.81,459.06 455.72,461.58 456.63,463.41 457.54,462.87 458.45,461.69 459.36,460.58 460.28,462.60 461.19,461.39 462.10,460.16 463.01,463.42 463.92,464.66 464.83,460.09 465.74,463.82 466.65,462.40 467.56,463.06 468.47,461.19 469.38,460.88 470.30,458.81 471.21,464.41 472.12,462.48 473.03,459.08 473.94,464.08 474.85,462.32 475.76,459.41 476.67,463.51 477.58,464.21 478.49,460.20 479.40,460.42 480.32,463.62 481.23,460.85 482.14,462.17 483.05,463.42 483.96,464.70 484.87,463.57 485.78,462.10 486.69,463.60 487.60,464.08 488.51,462.09 489.42,462.92 490.34,460.31 491.25,462.55 492.16,460.41 493.07,462.39 493.98,458.99 494.89,462.52 495.80,464.66 496.71,463.08 497.62,464.42 498.53,462.84 499.44,464.53 500.36,461.82 501.27,461.26 502.18,464.40 503.09,464.66 504.00,462.74 504.91,463.69 505.82,460.86 506.73,462.84 507.64,462.11 508.55,461.85 509.46,462.81 510.38,462.69 511.29,463.40 512.20,463.34 513.11,461.78 514.02,460.92 514.93,461.62 515.84,462.32 516.75,465.05 517.66,466.29 518.57,464.04 519.48,463.35 520.40,460.09 521.31,462.39 522.22,466.24 523.13,464.36 524.04,465.04 524.95,464.41 525.86,461.33 526.77,463.62 527.68,464.78 528.59,464.71 529.50,464.28 530.42,464.46 531.33,462.30 532.24,462.44 533.15,463.97 534.06,461.43 534.97,462.96 535.88,465.12 536.79,461.88 537.70,464.98 538.61,464.04 539.52,464.49 540.44,466.23 541.35,464.04 542.26,462.28 543.17,463.14 544.08,464.01 544.99,461.61 545.90,464.37 546.81,464.54 547.72,465.78 548.63,464.81 549.54,464.63 550.46,464.44 551.37,466.33 552.28,462.26 553.19,464.84 554.10,463.45 555.01,463.60 555.92,462.71 556.83,461.95 557.74,464.54 558.65,464.48 559.56,463.36 560.48,461.96 561.39,462.59 562.30,464.53 563.21,462.76 564.12,464.52 565.03,462.91 565.94,463.06 566.85,462.77 567.76,465.46 568.67,464.54 569.58,466.41 570.50,467.19 571.41,465.79 572.32,464.04 573.23,464.03 574.14,464.87 575.05,464.65 575.96,466.26 576.87,464.79 577.78,465.78 578.69,465.70 579.60,465.11 580.52,466.44 581.43,464.16 582.34,466.02 583.25,464.56 584.16,463.25 585.07,466.49 585.98,462.99 586.89,467.16 587.80,463.93 588.71,466.81 589.62,465.45 590.54,469.26 591.45,465.19 592.36,465.10 593.27,466.27 594.18,463.28 595.09,466.71 596.00,466.02 596.91,466.10 597.82,466.03 598.73,465.93 599.64,468.43 600.56,463.54 601.47,464.62 602.38,465.33 603.29,467.48 604.20,463.79 605.11,463.22 606.02,464.50 606.93,463.66 607.84,466.21 608.75,463.60 609.66,465.59 610.58,465.75 611.49,468.67 612.40,465.78 613.31,466.25 614.22,465.70 615.13,465.20 616.04,466.19 616.95,463.64 617.86,463.79 618.77,466.25 619.68,465.23 620.60,467.00 621.51,465.01 622.42,466.35 623.33,466.93 624.24,467.74 625.15,464.75 626.06,466.14 626.97,465.28 627.88,464.15 628.79,463.90 629.70,467.85 630.62,464.29 631.53,465.63 632.44,466.40 633.35,466.42 634.26,465.55 635.17,466.43 636.08,467.13 636.99,464.11 637.90,465.58 638.81,466.96 639.72,463.33 640.64,465.41 641.55,466.50 642.46,466.63 643.37,467.99 644.28,464.77 645.19,466.79 646.10,467.99 647.01,464.75 647.92,465.54 648.83,466.26 649.74,466.99 650.66,466.16 651.57,466.34 652.48,469.44 653.39,463.91 654.30,467.32 655.21,467.48 656.12,466.78 657.03,465.98 657.94,467.44 658.85,465.66 659.76,468.03 660.68,465.04 661.59,466.09 662.50,466.53 663.41,465.56 664.32,465.65 665.23,465.77 666.14,465.66 667.05,465.58 667.96,467.78 668.87,466.75 669.78,467.76 670.70,468.37 671.61,467.78 672.52,468.18 673.43,463.50 674.34,464.43 675.25,467.00 676.16,466.05 677.07,467.29 677.98,467.77 678.89,468.40 679.80,465.44 680.72,467.29 681.63,467.21 682.54,466.64 683.45,468.45 684.36,465.53 685.27,463.25 686.18,471.23 687.09,466.40 688.00,466.89 688.91,466.76 689.82,467.38 690.74,470.01 691.65,469.20 692.56,466.49 693.47,467.72 694.38,467.34 695.29,466.45 696.20,467.69 697.11,467.87 698.02,468.29 698.93,469.73 699.84,466.81 700.76,468.56 701.67,467.52 702.58,469.68 703.49,468.76 704.40,467.94 705.31,467.90 706.22,465.36 707.13,468.70 708.04,468.87 708.95,468.18 709.86,467.83 710.78,465.87 711.69,467.23 712.60,467.15 713.51,467.88 714.42,468.88 715.33,466.15 716.24,467.93 717.15,467.65 718.06,468.29 718.97,466.92 719.88,466.69 720.80,466.00 721.71,468.36 722.62,467.51 723.53,468.30 724.44,469.12 725.35,467.48 726.26,467.61 727.17,468.36 728.08,466.91 728.99,467.67 729.90,469.28 730.82,468.69 731.73,467.58 732.64,466.87 733.55,467.46 734.46,465.97 735.37,468.53 736.28,466.69 737.19,471.22 738.10,469.20 739.01,468.39 739.92,470.12 740.84,468.58 741.75,466.61 742.66,468.42 743.57,470.22 744.48,467.93 745.39,468.86 746.30,467.81 747.21,468.09 748.12,468.99 749.03,467.77 749.94,468.95 750.86,468.87 751.77,467.23 752.68,469.92 753.59,469.32 754.50,468.46 755.41,470.02 756.32,467.74 757.23,470.03 758.14,466.84 759.05,466.37 759.96,469.92 760.88,468.18 761.79,469.42 762.70,468.62 763.61,469.91 764.52,468.48 765.43,466.13 766.34,469.04 767.25,469.99 768.16,468.46 769.07,469.16 769.98,468.31 770.90,468.05 771.81,468.85 772.72,470.85 773.63,467.24 774.54,468.47 775.45,467.86 776.36,467.99 777.27,468.56 778.18,469.32 779.09,472.35 780.01,470.22 780.92,469.63 781.83,470.07 782.74,469.40 783.65,468.38 784.56,469.21 785.47,468.81 786.38,469.95 787.29,470.08 788.20,470.88 789.11,468.45 790.03,469.63 790.94,467.79 791.85,468.59 792.76,468.28 793.67,469.80 794.58,471.11 795.49,470.39 796.40,468.84 797.31,471.28 798.22,467.88 799.13,467.72 800.05,469.53 800.96,468.05 801.87,470.18 802.78,468.61 803.69,468.97 804.60,469.79 805.51,468.12 806.42,470.01 807.33,467.62 808.24,469.84 809.15,469.87 810.07,466.09 810.98,470.14 811.89,469.37 812.80,470.47 813.71,470.32 814.62,471.01 815.53,469.94 816.44,467.18 817.35,471.36 818.26,468.05 819.17,468.97 820.09,469.70 821.00,469.10 821.91,468.87 822.82,471.95 823.73,466.67 824.64,468.36 825.55,471.56 826.46,471.56 827.37,467.35 828.28,469.17 829.19,468.82 830.11,468.50 831.02,468.79 831.93,471.51 832.84,471.39 833.75,467.99 834.66,473.16 835.57,470.53 836.48,473.55 837.39,470.08 838.30,469.38 839.21,469.43 840.13,468.80 841.04,469.49 841.95,468.68 842.86,471.09 843.77,468.85 844.68,471.59 845.59,473.13 846.50,469.41 847.41,469.96 848.32,472.00 849.23,469.70 850.15,470.68 851.06,470.71 851.97,470.59 852.88,469.18 853.79,469.51 854.70,470.26 855.61,468.57 856.52,471.31 857.43,469.36 858.34,470.61 859.25,470.54 860.17,469.40 861.08,470.92 861.99,470.38 862.90,468.55 863.81,470.62 864.72,469.34 865.63,470.18 866.54,470.14 867.45,469.96 868.36,468.97 869.27,470.53 870.19,469.24 871.10,469.64 872.01,470.38 872.92,471.72 873.83,471.53 874.74,469.05 875.65,471.31 876.56,470.48 877.47,470.83 878.38,469.64 879.29,469.42 880.21,472.52 881.12,472.20 882.03,472.65 882.94,471.60 883.85,470.57 884.76,471.13 885.67,469.95 886.58,470.50 887.49,471.12 888.40,471.02 889.31,469.71 890.23,471.73 891.14,469.19 892.05,469.80 892.96,471.14 893.87,472.61 894.78,470.08 895.69,470.03 896.60,472.01 897.51,468.62 898.42,469.39 899.33,471.08 900.25,468.25 901.16,469.37 902.07,471.32 902.98,470.90 903.89,469.33 904.80,473.73 905.71,470.67 906.62,472.83 907.53,471.28 908.44,472.27 909.35,471.09 910.27,470.16 911.18,471.14 912.09,472.97 913.00,471.40 913.91,471.23 914.82,468.85 915.73,472.12 916.64,471.26 917.55,471.47 918.46,470.93 919.37,472.35 920.29,469.42 921.20,470.11 922.11,469.73 923.02,468.08 923.93,472.43 924.84,470.54 925.75,471.29 926.66,471.26 927.57,470.52 928.48,470.87 929.39,469.81 930.31,470.88 931.22,472.37 932.13,471.22 933.04,471.51 933.95,468.98 934.86,471.29 935.77,471.33 936.68,469.05 937.59,471.92 938.50,469.26 939.41,471.72 940.33,468.42 941.24,471.66 942.15,470.77 943.06,471.32 943.97,471.12 944.88,472.63 945.79,472.17 946.70,473.15 947.61,473.10 948.52,470.90 949.43,471.27 950.35,471.14 951.26,473.36 952.17,472.28 953.08,471.72 953.99,471.25 954.90,471.97 955.81,469.57 956.72,472.79 957.63,470.18 958.54,471.07 959.45,474.50 960.37,471.48 961.28,469.89 962.19,470.93 963.10,471.13 964.01,472.46 964.92,471.12 965.83,472.26 966.74,471.56 967.65,474.42 968.56,473.31 969.47,472.29 970.39,469.54 971.30,470.65 972.21,470.52 973.12,473.09 974.03,470.49 974.94,470.01 975.85,472.53 976.76,473.50 977.67,472.58 978.58,471.82 979.49,472.82 980.41,471.33 981.32,469.52 982.23,473.17 983.14,472.64 984.05,471.28 984.96,471.88 985.87,469.53 986.78,472.63 987.69,469.55 988.60,470.64 989.51,473.60 990.43,473.33 991.34,474.18 992.25,471.82 993.16,472.11 994.07,471.33 994.98,473.51 995.89,472.97 996.80,472.12 997.71,473.09 998.62,472.83 999.53,471.43 1000.45,473.11 1001.36,472.17 1002.27,471.78 1003.18,473.86 1004.09,472.44 1005.00,469.95"><title>Post-Norm train</title></polyline>
<polyline fill="none" stroke="#7c3aed" stroke-width="2" stroke-dasharray="7 5" points="139.63,431.80 185.18,442.22 230.73,451.05 276.27,455.38 321.82,457.17 367.36,458.85 412.91,459.71 458.45,461.43 504.00,462.58 549.54,463.42 595.09,465.41 640.64,466.39 686.18,466.61 731.73,468.41 777.27,468.49 822.82,469.61 868.36,470.29 913.91,471.45 959.45,471.23 1005.00,471.16"><title>Post-Norm validation</title></polyline>
<line x1="830" y1="580" x2="858" y2="580" stroke="#7c3aed" stroke-width="3"/>
<text x="866" y="585" font-family="sans-serif" font-size="13">Post-Norm</text>
<polyline fill="none" stroke="#ea580c" stroke-width="2" points="95.00,97.28 95.91,121.52 96.82,154.87 97.73,189.40 98.64,226.37 99.55,260.94 100.47,287.36 101.38,306.88 102.29,322.88 103.20,333.96 104.11,339.95 105.02,349.60 105.93,350.76 106.84,353.12 107.75,357.49 108.66,364.34 109.57,366.21 110.49,364.96 111.40,371.07 112.31,370.20 113.22,373.13 114.13,374.75 115.04,379.63 115.95,380.13 116.86,384.35 117.77,387.22 118.68,388.93 119.59,390.51 120.51,392.76 121.42,396.53 122.33,393.43 123.24,400.33 124.15,399.36 125.06,404.15 125.97,403.32 126.88,404.99 127.79,408.29 128.70,407.15 129.61,413.36 130.53,410.57 131.44,411.95 132.35,414.05 133.26,413.23 134.17,415.82 135.08,417.96 135.99,415.26 136.90,417.99 137.81,421.92 138.72,420.49 139.63,418.72 140.55,423.20 141.46,423.52 142.37,424.15 143.28,425.70 144.19,426.70 145.10,426.38 146.01,429.70 146.92,426.17 147.83,428.56 148.74,423.26 149.65,430.11 150.57,427.93 151.48,428.28 152.39,433.10 153.30,431.98 154.21,431.15 155.12,432.96 156.03,432.35 156.94,430.59 157.85,431.50 158.76,434.01 159.67,432.08 160.59,434.16 161.50,431.83 162.41,432.88 163.32,432.78 164.23,433.86 165.14,434.40 166.05,436.13 166.96,435.24 167.87,435.03 168.78,435.85 169.69,435.77 170.61,433.25 171.52,438.15 172.43,435.32 173.34,437.65 174.25,374.80 175.16,411.32 176.07,424.18 176.98,427.17 177.89,429.90 178.80,432.65 179.71,432.82 180.63,433.00 181.54,439.51 182.45,437.55 183.36,436.83 184.27,438.07 185.18,440.13 186.09,440.22 187.00,437.38 187.91,442.55 188.82,441.41 189.73,443.02 190.65,439.95 191.56,442.57 192.47,442.82 193.38,442.35 194.29,438.56 195.20,442.92 196.11,443.03 197.02,444.28 197.93,444.86 198.84,445.25 199.75,442.74 200.67,446.01 201.58,444.20 202.49,446.46 203.40,447.09 204.31,441.52 205.22,443.07 206.13,444.84 207.04,444.32 207.95,446.66 208.86,447.21 209.77,446.66 210.69,447.02 211.60,446.48 212.51,446.14 213.42,447.01 214.33,446.28 215.24,446.07 216.15,444.55 217.06,448.57 217.97,445.11 218.88,445.27 219.79,445.64 220.71,446.85 221.62,448.83 222.53,446.32 223.44,448.93 224.35,449.79 225.26,449.99 226.17,449.67 227.08,450.67 227.99,449.15 228.90,450.89 229.81,452.03 230.73,449.64 231.64,449.18 232.55,451.79 233.46,448.81 234.37,450.41 235.28,448.73 236.19,448.22 237.10,448.70 238.01,448.19 238.92,450.16 239.83,448.63 240.75,451.71 241.66,451.58 242.57,451.15 243.48,450.56 244.39,451.48 245.30,447.38 246.21,450.62 247.12,453.52 248.03,450.03 248.94,452.42 249.85,450.56 250.77,449.65 251.68,448.58 252.59,450.50 253.50,450.83 254.41,454.75 255.32,452.42 256.23,452.46 257.14,452.52 258.05,451.38 258.96,453.15 259.87,450.50 260.79,455.94 261.70,454.95 262.61,450.93 263.52,449.74 264.43,449.83 265.34,453.48 266.25,450.04 267.16,452.25 268.07,453.74 268.98,453.19 269.89,454.61 270.81,450.88 271.72,454.55 272.63,454.47 273.54,454.18 274.45,452.62 275.36,453.16 276.27,454.60 277.18,452.19 278.09,452.06 279.00,454.37 279.91,454.80 280.83,451.75 281.74,454.78 282.65,453.60 283.56,453.87 284.47,451.66 285.38,450.35 286.29,454.79 287.20,455.60 288.11,455.66 289.02,454.01 289.93,456.63 290.85,457.27 291.76,451.74 292.67,451.89 293.58,453.15 294.49,455.43 295.40,456.76 296.31,456.49 297.22,453.54 298.13,454.44 299.04,457.05 299.95,455.37 300.87,455.52 301.78,452.74 302.69,457.88 303.60,458.07 304.51,452.92 305.42,456.21 306.33,454.41 307.24,454.57 308.15,456.61 309.06,456.38 309.97,455.58 310.89,456.31 311.80,454.11 312.71,452.83 313.62,456.89 314.53,456.25 315.44,457.75 316.35,456.54 317.26,457.35 318.17,456.34 319.08,454.87 319.99,457.39 320.91,457.94 321.82,455.64 322.73,455.86 323.64,458.11 324.55,456.21 325.46,454.45 326.37,455.56 327.28,457.48 328.19,457.20 329.10,455.57 330.02,458.61 330.93,457.80 331.84,455.98 332.75,455.45 333.66,458.73 334.57,456.99 335.48,457.08 336.39,454.86 337.30,457.19 338.21,457.13 339.12,459.22 340.04,456.88 340.95,456.29 341.86,457.26 342.77,456.49 343.68,460.18 344.59,457.78 345.50,456.17 346.41,458.37 347.32,458.00 348.23,457.64 349.14,459.35 350.06,455.13 350.97,457.54 351.88,460.85 352.79,455.66 353.70,457.84 354.61,457.47 355.52,454.19 356.43,460.03 357.34,458.14 358.25,458.86 359.16,455.61 360.08,458.10 360.99,456.88 361.90,457.42 362.81,458.24 363.72,456.48 364.63,459.15 365.54,454.90 366.45,460.26 367.36,458.62 368.27,457.85 369.18,457.62 370.10,455.72 371.01,457.84 371.92,458.08 372.83,459.47 373.74,457.57 374.65,457.64 375.56,458.70 376.47,457.19 377.38,459.16 378.29,458.82 379.20,455.18 380.12,457.21 381.03,456.68 381.94,457.50 382.85,457.10 383.76,460.60 384.67,459.82 385.58,457.53 386.49,456.89 387.40,457.51 388.31,458.45 389.22,461.02 390.14,459.06 391.05,459.15 391.96,458.85 392.87,457.74 393.78,461.22 394.69,460.93 395.60,460.60 396.51,460.41 397.42,459.43 398.33,458.19 399.24,458.07 400.16,459.06 401.07,459.19 401.98,458.35 402.89,460.83 403.80,458.11 404.71,459.28 405.62,459.28 406.53,461.77 407.44,457.05 408.35,460.88 409.26,457.33 410.18,458.10 411.09,461.88 412.00,457.81 412.91,460.56 413.82,460.48 414.73,460.97 415.64,461.09 416.55,461.40 417.46,458.95 418.37,456.68 419.28,458.78 420.20,460.35 421.11,456.37 422.02,460.73 422.93,459.56 423.84,460.08 424.75,460.05 425.66,462.66 426.57,461.83 427.48,458.08 428.39,460.58 429.30,461.11 430.22,462.01 431.13,461.46 432.04,461.64 432.95,460.31 433.86,457.71 434.77,459.11 435.68,461.05 436.59,460.71 437.50,459.13 438.41,460.70 439.32,459.46 440.24,459.51 441.15,459.50 442.06,459.49 442.97,462.20 443.88,459.77 444.79,461.31 445.70,461.07 446.61,462.04 447.52,459.59 448.43,461.06 449.34,460.41 450.26,460.52 451.17,461.81 452.08,459.31 452.99,459.27 453.90,460.38 454.81,458.68 455.72,461.41 456.63,463.21 457.54,462.22 458.45,461.38 459.36,460.72 460.28,462.49 461.19,461.34 462.10,459.67 463.01,462.80 463.92,464.07 464.83,459.71 465.74,463.67 466.65,461.93 467.56,462.84 468.47,461.13 469.38,460.12 470.30,458.56 471.21,464.22 472.12,461.95 473.03,458.60 473.94,463.60 474.85,461.97 475.76,459.34 476.67,462.95 477.58,463.55 478.49,459.91 479.40,459.98 480.32,462.64 481.23,460.87 482.14,462.10 483.05,462.83 483.96,464.26 484.87,463.00 485.78,461.85 486.69,463.47 487.60,463.72 488.51,462.07 489.42,462.61 490.34,460.37 491.25,461.75 492.16,459.91 493.07,462.13 493.98,458.59 494.89,462.13 495.80,463.97 496.71,463.17 497.62,464.09 498.53,462.41 499.44,464.27 500.36,461.09 501.27,460.67 502.18,464.04 503.09,464.38 504.00,462.16 504.91,463.11 505.82,460.15 506.73,462.46 507.64,461.59 508.55,461.44 509.46,462.07 510.38,462.48 511.29,462.84 512.20,463.16 513.11,461.42 514.02,460.54 514.93,461.47 515.84,462.18 516.75,464.86 517.66,465.75 518.57,463.58 519.48,463.02 520.40,459.64 521.31,461.98 522.22,465.96 523.13,464.28 524.04,464.59 524.95,463.75 525.86,460.85 526.77,463.25 527.68,464.12 528.59,464.14 529.50,464.00 530.42,463.67 531.33,462.20 532.24,461.85 533.15,463.45 534.06,461.39 534.97,462.85 535.88,464.90 536.79,461.54 537.70,464.19 538.61,463.44 539.52,463.98 540.44,465.62 541.35,463.38 542.26,461.82 543.17,463.15 544.08,463.66 544.99,461.17 545.90,463.70 546.81,463.99 547.72,465.16 548.63,463.83 549.54,463.99 550.46,464.29 551.37,466.20 552.28,462.03 553.19,464.40 554.10,462.86 555.01,463.14 555.92,462.30 556.83,461.57 557.74,464.26 558.65,463.65 559.56,462.88 560.48,461.29 561.39,462.09 562.30,464.11 563.21,462.31 564.12,464.07 565.03,462.56 565.94,463.10 566.85,462.21 567.76,465.02 568.67,464.22 569.58,465.96 570.50,466.60 571.41,465.71 572.32,463.14 573.23,463.50 574.14,464.63 575.05,464.05 575.96,466.01 576.87,464.24 577.78,465.19 578.69,465.08 579.60,464.52 580.52,466.11 581.43,463.64 582.34,465.30 583.25,464.33 584.16,462.94 585.07,466.11 585.98,462.26 586.89,466.25 587.80,463.23 588.71,466.00 589.62,464.49 590.54,468.62 591.45,465.09 592.36,464.70 593.27,465.77 594.18,462.75 595.09,466.37 596.00,465.75 596.91,465.67 597.82,465.32 598.73,465.26 599.64,467.69 600.56,462.88 601.47,464.11 602.38,464.56 603.29,467.09 604.20,463.32 605.11,462.45 606.02,464.16 606.93,462.88 607.84,465.73 608.75,462.92 609.66,464.67 610.58,464.94 611.49,467.75 612.40,465.38 613.31,465.74 614.22,464.90 615.13,464.29 616.04,465.80 616.95,463.11 617.86,463.21 618.77,465.32 619.68,464.28 620.60,466.00 621.51,464.33 622.42,465.51 623.33,466.58 624.24,467.19 625.15,463.79 626.06,465.60 626.97,464.60 627.88,463.48 628.79,462.98 629.70,466.97 630.62,463.81 631.53,464.89 632.44,466.11 633.35,465.81 634.26,464.79 635.17,465.47 636.08,466.35 636.99,463.40 637.90,464.71 638.81,466.13 639.72,462.30 640.64,465.09 641.55,465.96 642.46,465.89 643.37,467.57 644.28,464.04 645.19,466.23 646.10,467.00 647.01,464.13 647.92,465.27 648.83,465.59 649.74,466.41 650.66,465.15 651.57,465.46 652.48,468.65 653.39,463.38 654.30,466.88 655.21,466.90 656.12,465.88 657.03,465.30 657.94,466.77 658.85,464.92 659.76,467.44 660.68,464.32 661.59,465.20 662.50,465.65 663.41,465.21 664.32,464.85 665.23,464.83 666.14,465.22 667.05,464.97 667.96,466.75 668.87,466.04 669.78,466.94 670.70,467.69 671.61,466.86 672.52,467.44 673.43,462.30 674.34,463.61 675.25,466.46 676.16,465.03 677.07,466.44 677.98,467.19 678.89,467.66 679.80,464.62 680.72,466.65 681.63,466.41 682.54,465.77 683.45,467.56 684.36,464.48 685.27,462.40 686.18,470.67 687.09,465.54 688.00,466.17 688.91,466.33 689.82,466.85 690.74,468.77 691.65,468.36 692.56,465.34 693.47,466.79 694.38,466.23 695.29,465.52 696.20,466.99 697.11,467.00 698.02,467.24 698.93,469.02 699.84,465.76 700.76,467.81 701.67,466.73 702.58,468.72 703.49,467.91 704.40,467.15 705.31,466.85 706.22,464.02 707.13,468.06 708.04,467.97 708.95,466.97 709.86,467.06 710.78,464.83 711.69,466.13 712.60,466.35 713.51,466.44 714.42,467.77 715.33,465.31 716.24,466.85 717.15,466.80 718.06,467.19 718.97,465.54 719.88,465.84 720.80,464.75 721.71,467.59 722.62,466.78 723.53,467.13 724.44,468.07 725.35,466.03 726.26,466.63 727.17,467.55 728.08,465.95 728.99,466.82 729.90,468.10 730.82,467.60 731.73,466.54 732.64,465.67 733.55,466.50 734.46,465.13 735.37,467.38 736.28,465.53 737.19,470.21 738.10,468.44 739.01,467.26 739.92,468.94 740.84,467.50 741.75,465.35 742.66,467.26 743.57,469.18 744.48,466.85 745.39,467.59 746.30,466.64 747.21,466.97 748.12,467.89 749.03,466.64 749.94,468.09 750.86,467.56 751.77,465.76 752.68,468.53 753.59,468.34 754.50,467.37 755.41,468.95 756.32,466.53 757.23,469.01 758.14,465.98 759.05,465.48 759.96,468.59 760.88,467.17 761.79,468.53 762.70,467.65 763.61,468.80 764.52,467.23 765.43,465.16 766.34,468.02 767.25,469.02 768.16,467.27 769.07,468.29 769.98,467.16 770.90,466.86 771.81,467.66 772.72,469.82 773.63,466.16 774.54,467.09 775.45,466.82 776.36,467.09 777.27,467.94 778.18,468.45 779.09,471.09 780.01,468.97 780.92,468.85 781.83,469.08 782.74,468.16 783.65,467.19 784.56,467.93 785.47,467.81 786.38,469.09 787.29,468.99 788.20,470.01 789.11,467.46 790.03,468.10 790.94,466.64 791.85,467.62 792.76,466.98 793.67,468.56 794.58,469.97 795.49,469.25 796.40,467.49 797.31,470.06 798.22,466.60 799.13,466.18 800.05,468.28 800.96,466.95 801.87,468.84 802.78,467.56 803.69,467.79 804.60,468.59 805.51,466.64 806.42,469.21 807.33,466.30 808.24,468.58 809.15,468.56 810.07,465.07 810.98,469.10 811.89,468.13 812.80,469.19 813.71,468.89 814.62,469.65 815.53,468.80 816.44,465.88 817.35,470.18 818.26,466.83 819.17,467.72 820.09,468.85 821.00,467.86 821.91,467.51 822.82,470.73 823.73,465.25 824.64,467.17 825.55,470.20 826.46,469.65 827.37,465.89 828.28,467.98 829.19,470.16 830.11,467.63 831.02,468.01 831.93,470.08 832.84,469.87 833.75,466.64 834.66,471.98 835.57,469.13 836.48,472.48 837.39,468.90 838.30,467.97 839.21,468.33 840.13,467.59 841.04,468.08 841.95,467.62 842.86,469.84 843.77,467.73 844.68,470.35 845.59,471.97 846.50,468.12 847.41,468.65 848.32,470.55 849.23,468.53 850.15,469.21 851.06,469.09 851.97,469.49 852.88,467.77 853.79,468.10 854.70,468.88 855.61,467.15 856.52,469.96 857.43,467.73 858.34,469.06 859.25,469.19 860.17,467.87 861.08,469.54 861.99,469.08 862.90,467.19 863.81,469.20 864.72,468.18 865.63,468.81 866.54,468.83 867.45,468.52 868.36,467.40 869.27,469.11 870.19,467.77 871.10,468.20 872.01,468.98 872.92,470.16 873.83,470.31 874.74,467.57 875.65,469.72 876.56,469.10 877.47,469.42 878.38,468.65 879.29,468.08 880.21,470.64 881.12,470.93 882.03,471.40 882.94,470.08 883.85,469.37 884.76,469.55 885.67,468.32 886.58,469.27 887.49,470.00 888.40,469.07 889.31,468.20 890.23,470.50 891.14,467.73 892.05,468.36 892.96,470.01 893.87,471.20 894.78,468.73 895.69,468.82 896.60,470.43 897.51,466.98 898.42,467.86 899.33,469.75 900.25,466.55 901.16,468.12 902.07,470.17 902.98,469.49 903.89,467.95 904.80,472.35 905.71,469.11 906.62,471.20 907.53,469.52 908.44,470.66 909.35,469.84 910.27,468.24 911.18,469.73 912.09,471.68 913.00,470.09 913.91,469.81 914.82,467.47 915.73,470.40 916.64,469.96 917.55,469.70 918.46,469.30 919.37,471.02 920.29,467.28 921.20,468.81 922.11,468.12 923.02,466.83 923.93,471.13 924.84,469.27 925.75,470.07 926.66,470.05 927.57,469.54 928.48,469.01 929.39,468.68 930.31,469.26 931.22,471.31 932.13,469.62 933.04,470.14 933.95,467.30 934.86,469.69 935.77,469.99 936.68,467.56 937.59,470.30 938.50,467.65 939.41,470.28 940.33,466.96 941.24,469.97 942.15,469.05 943.06,469.91 943.97,469.71 944.88,471.13 945.79,470.47 946.70,471.58 947.61,471.50 948.52,469.22 949.43,469.72 950.35,469.54 951.26,472.12 952.17,470.37 953.08,470.26 953.99,469.83 954.90,470.44 955.81,467.80 956.72,470.94 957.63,468.50 958.54,469.54 959.45,472.80 960.37,470.10 961.28,468.25 962.19,469.61 963.10,469.44 964.01,471.02 964.92,469.72 965.83,470.73 966.74,470.06 967.65,472.89 968.56,471.71 969.47,470.70 970.39,468.04 971.30,469.11 972.21,468.82 973.12,471.37 974.03,468.62 974.94,468.13 975.85,470.88 976.76,472.03 977.67,471.12 978.58,470.31 979.49,471.12 980.41,469.67 981.32,467.72 982.23,471.37 983.14,471.12 984.05,469.91 984.96,470.03 985.87,467.56 986.78,471.20 987.69,468.27 988.60,469.41 989.51,472.22 990.43,471.67 991.34,472.26 992.25,469.97 993.16,470.60 994.07,469.65 994.98,471.82 995.89,471.35 996.80,470.47 997.71,471.83 998.62,471.50 999.53,469.52 1000.45,471.24 1001.36,470.51 1002.27,470.04 1003.18,472.46 1004.09,471.05 1005.00,468.12"><title>NoPE train</title></polyline>
<polyline fill="none" stroke="#ea580c" stroke-width="2" stroke-dasharray="7 5" points="139.63,419.78 185.18,439.90 230.73,449.65 276.27,454.61 321.82,456.51 367.36,458.20 412.91,459.27 458.45,460.99 504.00,462.20 549.54,462.90 595.09,464.78 640.64,465.76 686.18,465.72 731.73,467.38 777.27,467.32 822.82,468.25 868.36,468.97 913.91,469.96 959.45,469.68 1005.00,469.63"><title>NoPE validation</title></polyline>
<line x1="95" y1="604" x2="123" y2="604" stroke="#ea580c" stroke-width="3"/>
<text x="131" y="609" font-family="sans-serif" font-size="13">NoPE</text>
<polyline fill="none" stroke="#0891b2" stroke-width="2" points="95.00,100.91 95.91,131.11 96.82,161.33 97.73,194.24 98.64,229.45 99.55,261.06 100.47,285.88 101.38,305.29 102.29,321.78 103.20,334.94 104.11,343.94 105.02,355.58 105.93,359.62 106.84,363.97 107.75,369.66 108.66,379.04 109.57,380.87 110.49,381.39 111.40,387.65 112.31,387.86 113.22,391.50 114.13,392.16 115.04,398.07 115.95,397.85 116.86,401.59 117.77,403.63 118.68,405.65 119.59,405.62 120.51,407.28 121.42,410.07 122.33,407.54 123.24,412.17 124.15,410.61 125.06,414.45 125.97,413.76 126.88,415.38 127.79,417.57 128.70,414.61 129.61,420.76 130.53,418.56 131.44,419.52 132.35,420.41 133.26,419.20 134.17,421.87 135.08,424.07 135.99,421.56 136.90,424.04 137.81,427.15 138.72,425.34 139.63,425.66 140.55,429.32 141.46,427.82 142.37,428.72 143.28,430.06 144.19,430.72 145.10,430.58 146.01,433.90 146.92,431.51 147.83,432.87 148.74,428.50 149.65,435.03 150.57,432.47 151.48,432.19 152.39,438.21 153.30,436.39 154.21,435.98 155.12,436.57 156.03,437.57 156.94,434.89 157.85,435.36 158.76,439.05 159.67,436.27 160.59,437.67 161.50,436.25 162.41,437.23 163.32,437.49 164.23,438.24 165.14,438.98 166.05,440.20 166.96,439.03 167.87,439.71 168.78,440.05 169.69,439.38 170.61,437.46 171.52,442.29 172.43,438.84 173.34,442.37 174.25,440.91 175.16,440.93 176.07,443.94 176.98,440.92 177.89,439.65 178.80,440.61 179.71,440.45 180.63,439.60 181.54,444.64 182.45,443.17 183.36,442.27 184.27,442.35 185.18,443.53 186.09,444.15 187.00,441.65 187.91,446.26 188.82,444.84 189.73,445.90 190.65,442.79 191.56,445.69 192.47,446.09 193.38,444.96 194.29,441.91 195.20,446.11 196.11,445.99 197.02,447.84 197.93,447.53 198.84,448.02 199.75,445.89 200.67,448.92 201.58,447.32 202.49,449.70 203.40,450.47 204.31,445.72 205.22,446.34 206.13,448.43 207.04,447.60 207.95,449.60 208.86,450.36 209.77,449.70 210.69,449.96 211.60,449.20 212.51,449.30 213.42,450.19 214.33,449.78 215.24,449.37 216.15,448.12 217.06,451.80 217.97,448.18 218.88,449.03 219.79,449.55 220.71,450.73 221.62,452.04 222.53,449.41 223.44,452.12 224.35,452.95 225.26,453.37 226.17,452.61 227.08,453.30 227.99,452.48 228.90,454.10 229.81,455.11 230.73,452.90 231.64,452.02 232.55,454.56 233.46,451.61 234.37,453.32 235.28,451.75 236.19,451.18 237.10,451.57 238.01,451.30 238.92,452.73 239.83,451.69 240.75,454.78 241.66,454.97 242.57,454.23 243.48,453.93 244.39,454.47 245.30,450.69 246.21,453.43 247.12,455.82 248.03,452.64 248.94,455.05 249.85,454.00 250.77,452.43 251.68,451.46 252.59,453.41 253.50,453.64 254.41,457.08 255.32,455.20 256.23,455.38 257.14,455.31 258.05,454.26 258.96,455.53 259.87,453.25 260.79,459.23 261.70,457.12 262.61,453.82 263.52,453.01 264.43,452.78 265.34,455.99 266.25,453.51 267.16,454.84 268.07,456.77 268.98,455.71 269.89,457.70 270.81,453.37 271.72,457.68 272.63,457.11 273.54,457.04 274.45,455.39 275.36,456.02 276.27,457.15 277.18,454.85 278.09,455.22 279.00,457.28 279.91,457.84 280.83,454.45 281.74,457.47 282.65,456.97 283.56,456.53 284.47,454.63 285.38,454.00 286.29,457.89 287.20,458.15 288.11,458.40 289.02,457.62 289.93,459.64 290.85,459.90 291.76,454.39 292.67,454.82 293.58,456.20 294.49,458.14 295.40,459.13 296.31,459.54 297.22,456.29 298.13,457.28 299.04,459.77 299.95,458.46 300.87,458.34 301.78,455.13 302.69,460.26 303.60,460.80 304.51,456.26 305.42,458.38 306.33,457.61 307.24,457.40 308.15,459.32 309.06,458.77 309.97,458.16 310.89,458.93 311.80,457.01 312.71,455.59 313.62,459.32 314.53,458.69 315.44,460.19 316.35,459.50 317.26,459.88 318.17,459.14 319.08,458.07 319.99,460.12 320.91,460.52 321.82,458.32 322.73,458.46 323.64,460.36 324.55,459.06 325.46,457.19 326.37,457.90 327.28,460.04 328.19,459.85 329.10,458.05 330.02,460.91 330.93,460.18 331.84,458.51 332.75,457.89 333.66,461.26 334.57,459.44 335.48,459.63 336.39,457.77 337.30,460.11 338.21,459.72 339.12,461.76 340.04,459.31 340.95,458.64 341.86,459.74 342.77,458.84 343.68,462.23 344.59,460.16 345.50,458.76 346.41,460.59 347.32,460.54 348.23,460.25 349.14,462.08 350.06,457.84 350.97,460.48 351.88,463.30 352.79,458.17 353.70,459.92 354.61,459.79 355.52,456.93 356.43,462.88 357.34,460.76 358.25,461.45 359.16,457.92 360.08,460.19 360.99,459.05 361.90,460.20 362.81,461.10 363.72,459.49 364.63,462.05 365.54,457.45 366.45,463.01 367.36,461.24 368.27,460.42 369.18,460.64 370.10,458.39 371.01,460.18 371.92,461.09 372.83,462.17 373.74,460.07 374.65,460.25 375.56,460.92 376.47,459.32 377.38,461.79 378.29,461.43 379.20,457.59 380.12,460.01 381.03,459.40 381.94,460.27 382.85,459.41 383.76,462.74 384.67,462.22 385.58,460.11 386.49,459.60 387.40,460.10 388.31,461.07 389.22,463.43 390.14,461.19 391.05,461.54 391.96,461.36 392.87,460.48 393.78,464.00 394.69,463.33 395.60,462.96 396.51,462.98 397.42,462.07 398.33,460.83 399.24,460.78 400.16,461.40 401.07,461.81 401.98,461.09 402.89,463.44 403.80,460.75 404.71,462.00 405.62,461.54 406.53,464.19 407.44,459.52 408.35,463.84 409.26,459.86 410.18,460.68 411.09,464.67 412.00,460.30 412.91,462.92 413.82,463.07 414.73,463.52 415.64,463.64 416.55,463.64 417.46,461.38 418.37,459.39 419.28,461.47 420.20,462.86 421.11,459.37 422.02,463.34 422.93,462.26 423.84,462.80 424.75,462.44 425.66,465.14 426.57,464.21 427.48,460.85 428.39,463.60 429.30,463.52 430.22,464.83 431.13,463.90 432.04,464.30 432.95,462.69 433.86,460.66 434.77,462.22 435.68,463.51 436.59,463.19 437.50,461.97 438.41,463.14 439.32,462.23 440.24,462.37 441.15,462.09 442.06,461.90 442.97,464.35 443.88,462.14 444.79,463.60 445.70,463.73 446.61,464.42 447.52,462.13 448.43,463.51 449.34,462.97 450.26,462.73 451.17,464.79 452.08,461.99 452.99,461.57 453.90,462.94 454.81,461.35 455.72,463.48 456.63,465.73 457.54,464.95 458.45,464.16 459.36,462.70 460.28,464.63 461.19,463.49 462.10,462.07 463.01,465.15 463.92,466.41 464.83,462.10 465.74,465.96 466.65,464.61 467.56,465.27 468.47,463.74 469.38,462.74 470.30,461.06 471.21,466.09 472.12,464.50 473.03,461.11 473.94,466.23 474.85,464.21 475.76,461.65 476.67,465.57 477.58,466.33 478.49,462.49 479.40,462.39 480.32,465.03 481.23,463.49 482.14,464.96 483.05,465.28 483.96,466.96 484.87,465.84 485.78,464.14 486.69,465.59 487.60,466.12 488.51,464.53 489.42,465.09 490.34,462.73 491.25,463.97 492.16,462.74 493.07,464.40 493.98,460.91 494.89,464.47 495.80,466.60 496.71,465.24 497.62,466.35 498.53,465.22 499.44,466.40 500.36,463.65 501.27,463.18 502.18,466.12 503.09,466.77 504.00,464.76 504.91,465.92 505.82,462.89 506.73,464.87 507.64,464.40 508.55,463.95 509.46,464.72 510.38,464.66 511.29,465.37 512.20,465.54 513.11,463.69 514.02,463.10 514.93,463.82 515.84,464.48 516.75,467.17 517.66,468.00 518.57,466.30 519.48,465.49 520.40,462.23 521.31,464.54 522.22,468.25 523.13,466.40 524.04,467.15 524.95,466.51 525.86,463.59 526.77,465.65 527.68,466.47 528.59,466.49 529.50,466.46 530.42,466.34 531.33,464.68 532.24,464.48 533.15,465.95 534.06,463.59 534.97,465.32 535.88,466.78 536.79,464.12 537.70,466.82 538.61,466.24 539.52,466.43 540.44,467.97 541.35,465.81 542.26,464.44 543.17,465.64 544.08,465.92 544.99,463.59 545.90,466.45 546.81,466.29 547.72,467.81 548.63,466.85 549.54,466.40 550.46,466.52 551.37,468.69 552.28,464.49 553.19,466.95 554.10,465.43 555.01,465.81 555.92,464.76 556.83,464.14 557.74,466.91 558.65,466.35 559.56,465.44 560.48,463.87 561.39,464.46 562.30,466.35 563.21,464.92 564.12,466.15 565.03,464.97 565.94,465.09 566.85,464.80 567.76,467.70 568.67,466.33 569.58,468.31 570.50,469.21 571.41,467.75 572.32,465.96 573.23,465.88 574.14,466.89 575.05,466.37 575.96,468.16 576.87,466.59 577.78,467.75 578.69,467.52 579.60,466.73 580.52,468.59 581.43,466.11 582.34,467.74 583.25,466.61 584.16,465.34 585.07,468.11 585.98,464.89 586.89,468.99 587.80,465.57 588.71,468.73 589.62,467.32 590.54,471.09 591.45,467.34 592.36,467.15 593.27,468.08 594.18,465.26 595.09,468.68 596.00,467.93 596.91,467.82 597.82,468.12 598.73,467.62 599.64,470.02 600.56,465.29 601.47,466.75 602.38,467.26 603.29,469.43 604.20,465.82 605.11,465.06 606.02,466.31 606.93,465.38 607.84,468.11 608.75,465.57 609.66,467.67 610.58,467.57 611.49,470.32 612.40,468.00 613.31,468.21 614.22,467.19 615.13,466.93 616.04,468.17 616.95,465.57 617.86,465.65 618.77,467.64 619.68,466.64 620.60,468.61 621.51,466.72 622.42,467.88 623.33,469.09 624.24,469.54 625.15,466.46 626.06,468.23 626.97,467.13 627.88,465.99 628.79,465.66 629.70,469.43 630.62,466.17 631.53,467.30 632.44,468.27 633.35,468.14 634.26,467.51 635.17,467.85 636.08,469.16 636.99,465.77 637.90,467.13 638.81,468.89 639.72,465.36 640.64,467.23 641.55,468.19 642.46,468.51 643.37,469.77 644.28,466.35 645.19,468.51 646.10,469.44 647.01,466.65 647.92,467.69 648.83,468.18 649.74,468.86 650.66,467.74 651.57,468.24 652.48,471.33 653.39,465.61 654.30,469.20 655.21,469.40 656.12,468.59 657.03,467.69 657.94,469.15 658.85,467.26 659.76,469.87 660.68,466.99 661.59,467.67 662.50,467.98 663.41,467.56 664.32,467.36 665.23,467.28 666.14,467.56 667.05,467.25 667.96,469.44 668.87,468.97 669.78,469.10 670.70,470.13 671.61,469.60 672.52,469.80 673.43,465.12 674.34,466.08 675.25,468.92 676.16,467.45 677.07,469.41 677.98,469.35 678.89,469.86 679.80,467.26 680.72,468.78 681.63,469.02 682.54,468.47 683.45,470.27 684.36,466.93 685.27,464.85 686.18,472.91 687.09,467.93 688.00,468.54 688.91,468.73 689.82,469.19 690.74,471.27 691.65,470.85 692.56,467.75 693.47,469.32 694.38,468.88 695.29,468.30 696.20,469.20 697.11,469.25 698.02,469.70 698.93,471.44 699.84,468.33 700.76,470.18 701.67,469.10 702.58,471.21 703.49,470.19 704.40,469.35 705.31,469.62 706.22,466.67 707.13,470.33 708.04,470.34 708.95,469.63 709.86,469.28 710.78,467.68 711.69,468.69 712.60,468.73 713.51,469.42 714.42,470.14 715.33,467.60 716.24,469.44 717.15,469.32 718.06,469.71 718.97,468.41 719.88,468.46 720.80,467.30 721.71,469.84 722.62,469.02 723.53,469.61 724.44,470.50 725.35,468.76 726.26,469.18 727.17,469.90 728.08,468.18 728.99,468.72 729.90,470.67 730.82,470.05 731.73,469.30 732.64,468.08 733.55,468.88 734.46,467.54 735.37,469.66 736.28,467.94 737.19,472.17 738.10,470.68 739.01,469.73 739.92,471.35 740.84,469.65 741.75,467.93 742.66,469.66 743.57,471.46 744.48,469.54 745.39,470.27 746.30,469.41 747.21,469.54 748.12,470.23 749.03,469.39 749.94,470.40 750.86,470.00 751.77,468.46 752.68,471.07 753.59,470.84 754.50,469.68 755.41,471.49 756.32,468.81 757.23,471.08 758.14,468.41 759.05,467.82 759.96,471.06 760.88,469.84 761.79,471.04 762.70,470.18 763.61,471.28 764.52,469.98 765.43,467.72 766.34,470.32 767.25,471.35 768.16,469.63 769.07,470.35 769.98,469.52 770.90,469.16 771.81,470.15 772.72,472.23 773.63,468.83 774.54,469.41 775.45,468.80 776.36,469.40 777.27,470.26 778.18,470.50 779.09,473.64 780.01,471.25 780.92,470.99 781.83,471.44 782.74,470.72 783.65,469.77 784.56,470.46 785.47,470.09 786.38,471.22 787.29,471.54 788.20,472.48 789.11,470.02 790.03,470.78 790.94,469.30 791.85,469.86 792.76,469.31 793.67,471.12 794.58,472.55 795.49,471.48 796.40,470.33 797.31,472.43 798.22,469.24 799.13,468.84 800.05,470.78 800.96,469.37 801.87,471.28 802.78,470.12 803.69,470.23 804.60,471.07 805.51,469.33 806.42,471.33 807.33,468.81 808.24,471.12 809.15,471.04 810.07,467.43 810.98,471.48 811.89,470.65 812.80,471.49 813.71,471.58 814.62,472.08 815.53,471.52 816.44,468.18 817.35,472.62 818.26,469.05 819.17,470.13 820.09,471.36 821.00,470.26 821.91,469.75 822.82,472.93 823.73,467.75 824.64,469.42 825.55,472.74 826.46,472.22 827.37,468.54 828.28,470.40 829.19,472.56 830.11,470.18 831.02,470.59 831.93,472.61 832.84,472.58 833.75,469.37 834.66,474.26 835.57,471.45 836.48,474.64 837.39,471.49 838.30,470.36 839.21,470.42 840.13,469.95 841.04,470.47 841.95,469.80 842.86,472.00 843.77,470.21 844.68,472.82 845.59,474.47 846.50,470.69 847.41,471.36 848.32,472.89 849.23,470.96 850.15,471.76 851.06,471.76 851.97,471.85 852.88,470.15 853.79,470.61 854.70,471.69 855.61,469.79 856.52,472.41 857.43,470.32 858.34,471.54 859.25,471.54 860.17,470.47 861.08,472.01 861.99,471.30 862.90,469.48 863.81,471.44 864.72,470.33 865.63,471.38 866.54,471.28 867.45,470.90 868.36,469.98 869.27,471.67 870.19,470.32 871.10,470.48 872.01,471.27 872.92,472.58 873.83,472.78 874.74,470.05 875.65,472.13 876.56,471.40 877.47,472.02 878.38,471.03 879.29,470.55 880.21,473.41 881.12,473.57 882.03,473.65 882.94,472.50 883.85,471.81 884.76,472.11 885.67,470.97 886.58,471.53 887.49,472.46 888.40,471.65 889.31,470.90 890.23,472.64 891.14,470.42 892.05,470.63 892.96,472.45 893.87,473.73 894.78,471.21 895.69,471.35 896.60,473.05 897.51,469.50 898.42,470.22 899.33,471.84 900.25,469.03 901.16,470.41 902.07,472.38 902.98,472.00 903.89,470.31 904.80,474.69 905.71,471.48 906.62,473.70 907.53,472.09 908.44,473.37 909.35,472.35 910.27,471.15 911.18,472.33 912.09,473.92 913.00,472.30 913.91,471.99 914.82,469.92 915.73,473.23 916.64,472.24 917.55,472.15 918.46,471.47 919.37,473.31 920.29,470.17 921.20,471.12 922.11,470.21 923.02,469.21 923.93,473.67 924.84,471.49 925.75,472.41 926.66,472.34 927.57,471.63 928.48,471.53 929.39,471.06 930.31,471.62 931.22,473.23 932.13,472.33 933.04,472.56 933.95,469.74 934.86,472.52 935.77,472.48 936.68,470.17 937.59,472.77 938.50,470.28 939.41,472.93 940.33,469.30 941.24,472.85 942.15,471.69 943.06,472.16 943.97,472.14 944.88,473.49 945.79,472.85 946.70,474.05 947.61,473.97 948.52,471.84 949.43,472.21 950.35,471.95 951.26,474.54 952.17,473.17 953.08,472.53 953.99,472.04 954.90,472.79 955.81,470.25 956.72,473.49 957.63,471.06 958.54,471.93 959.45,475.27 960.37,472.40 961.28,470.69 962.19,472.13 963.10,471.91 964.01,473.57 964.92,471.95 965.83,472.91 966.74,472.28 967.65,475.12 968.56,474.11 969.47,473.19 970.39,470.79 971.30,471.46 972.21,471.35 973.12,473.82 974.03,471.14 974.94,470.68 975.85,473.07 976.76,474.44 977.67,473.36 978.58,472.75 979.49,473.66 980.41,471.99 981.32,470.63 982.23,473.88 983.14,473.73 984.05,472.11 984.96,472.65 985.87,470.06 986.78,473.56 987.69,470.87 988.60,471.74 989.51,474.39 990.43,474.23 991.34,474.94 992.25,472.82 993.16,472.86 994.07,472.21 994.98,474.35 995.89,473.61 996.80,472.86 997.71,474.21 998.62,473.99 999.53,472.14 1000.45,473.97 1001.36,473.07 1002.27,472.53 1003.18,474.76 1004.09,473.50 1005.00,470.61"><title>SiLU train</title></polyline>
<polyline fill="none" stroke="#0891b2" stroke-width="2" stroke-dasharray="7 5" points="139.63,426.62 185.18,443.69 230.73,452.46 276.27,457.18 321.82,459.13 367.36,460.88 412.91,461.75 458.45,463.54 504.00,464.64 549.54,465.30 595.09,467.18 640.64,468.08 686.18,468.18 731.73,469.79 777.27,469.60 822.82,470.66 868.36,471.31 913.91,472.29 959.45,472.00 1005.00,471.93"><title>SiLU validation</title></polyline>
<line x1="340" y1="604" x2="368" y2="604" stroke="#0891b2" stroke-width="3"/>
<text x="376" y="609" font-family="sans-serif" font-size="13">SiLU</text>
<line x1="790" y1="52" x2="820" y2="52" stroke="#374151" stroke-width="2"/>
<text x="827" y="57" font-family="sans-serif" font-size="13">train</text>
<line x1="895" y1="52" x2="925" y2="52" stroke="#374151" stroke-width="2" stroke-dasharray="7 5"/>
<text x="932" y="57" font-family="sans-serif" font-size="13">validation</text>
</svg>