<svg xmlns="http://www.w3.org/2000/svg" width="1100" height="610" viewBox="0 0 1100 610">
<rect width="1100" height="610" fill="white"/>
<text x="550" y="35" text-anchor="middle" font-family="sans-serif" font-size="24">TinyStories and OWT final runs</text>
<line x1="95.00" y1="75.0" x2="95.00" y2="495.0" stroke="#e5e7eb"/>
<text x="95.00" y="518.0" text-anchor="middle" font-family="sans-serif" font-size="12">328k</text>
<line x1="95.0" y1="75.00" x2="1005.0" y2="75.00" stroke="#e5e7eb"/>
<text x="83.0" y="79.00" text-anchor="end" font-family="sans-serif" font-size="12">10.800</text>
<line x1="277.00" y1="75.0" x2="277.00" y2="495.0" stroke="#e5e7eb"/>
<text x="277.00" y="518.0" text-anchor="middle" font-family="sans-serif" font-size="12">65.8M</text>
<line x1="95.0" y1="159.00" x2="1005.0" y2="159.00" stroke="#e5e7eb"/>
<text x="83.0" y="163.00" text-anchor="end" font-family="sans-serif" font-size="12">8.802</text>
<line x1="459.00" y1="75.0" x2="459.00" y2="495.0" stroke="#e5e7eb"/>
<text x="459.00" y="518.0" text-anchor="middle" font-family="sans-serif" font-size="12">131M</text>
<line x1="95.0" y1="243.00" x2="1005.0" y2="243.00" stroke="#e5e7eb"/>
<text x="83.0" y="247.00" text-anchor="end" font-family="sans-serif" font-size="12">6.805</text>
<line x1="641.00" y1="75.0" x2="641.00" y2="495.0" stroke="#e5e7eb"/>
<text x="641.00" y="518.0" text-anchor="middle" font-family="sans-serif" font-size="12">197M</text>
<line x1="95.0" y1="327.00" x2="1005.0" y2="327.00" stroke="#e5e7eb"/>
<text x="83.0" y="331.00" text-anchor="end" font-family="sans-serif" font-size="12">4.808</text>
<line x1="823.00" y1="75.0" x2="823.00" y2="495.0" stroke="#e5e7eb"/>
<text x="823.00" y="518.0" text-anchor="middle" font-family="sans-serif" font-size="12">262M</text>
<line x1="95.0" y1="411.00" x2="1005.0" y2="411.00" stroke="#e5e7eb"/>
<text x="83.0" y="415.00" text-anchor="end" font-family="sans-serif" font-size="12">2.810</text>
<line x1="1005.00" y1="75.0" x2="1005.00" y2="495.0" stroke="#e5e7eb"/>
<text x="1005.00" y="518.0" text-anchor="middle" font-family="sans-serif" font-size="12">328M</text>
<line x1="95.0" y1="495.00" x2="1005.0" y2="495.00" stroke="#e5e7eb"/>
<text x="83.0" y="499.00" text-anchor="end" font-family="sans-serif" font-size="12">0.813</text>
<line x1="95.0" y1="495.0" x2="1005.0" y2="495.0" stroke="black"/>
<line x1="95.0" y1="75.0" x2="95.0" y2="495.0" stroke="black"/>
<text x="550.0" y="555.0" text-anchor="middle" font-family="sans-serif">processed tokens</text>
<text x="28" y="285.0" text-anchor="middle" font-family="sans-serif" transform="rotate(-90 28 285.0)">loss</text>
<polyline fill="none" stroke="#2563eb" stroke-width="2" points="95.00,145.92 95.91,166.89 96.82,195.96 97.73,225.94 98.64,258.17 99.55,288.27 100.47,311.24 101.38,328.73 102.29,344.03 103.20,355.96 104.11,363.48 105.02,373.76 105.93,376.67 106.84,380.94 107.75,386.06 108.66,395.00 109.57,396.71 110.49,396.73 111.40,402.71 112.31,402.89 113.22,406.12 114.13,407.53 115.04,412.49 115.95,411.50 116.86,415.51 117.77,417.65 118.68,419.11 119.59,419.54 120.51,420.31 121.42,422.82 122.33,421.32 123.24,425.66 124.15,423.85 125.06,427.25 125.97,426.47 126.88,427.56 127.79,429.64 128.70,427.57 129.61,432.39 130.53,430.94 131.44,431.59 132.35,432.31 133.26,431.57 134.17,433.56 135.08,435.48 135.99,433.71 136.90,435.80 137.81,438.06 138.72,436.68 139.63,436.74 140.55,439.54 141.46,437.87 142.37,439.01 143.28,439.87 144.19,440.71 145.10,440.45 146.01,443.40 146.92,439.86 147.83,441.77 148.74,438.10 149.65,443.59 150.57,441.23 151.48,441.06 152.39,446.00 153.30,444.88 154.21,443.83 155.12,445.03 156.03,445.02 156.94,442.84 157.85,443.54 158.76,446.63 159.67,443.90 160.59,445.71 161.50,443.89 162.41,444.80 163.32,444.29 164.23,445.42 165.14,445.88 166.05,447.09 166.96,446.29 167.87,446.25 168.78,446.58 169.69,446.15 170.61,444.43 171.52,448.62 172.43,445.40 173.34,448.79 174.25,447.30 175.16,447.19 176.07,450.00 176.98,447.29 177.89,446.72 178.80,447.11 179.71,446.47 180.63,445.79 181.54,450.39 182.45,449.44 183.36,447.91 184.27,447.89 185.18,449.41 186.09,450.06 187.00,446.87 187.91,451.14 188.82,449.59 189.73,451.21 190.65,448.43 191.56,450.86 192.47,451.07 193.38,450.54 194.29,447.66 195.20,451.05 196.11,451.04 197.02,452.01 197.93,452.46 198.84,452.92 199.75,450.44 200.67,453.44 201.58,452.34 202.49,454.23 203.40,454.64 204.31,450.09 205.22,451.31 206.13,453.15 207.04,452.46 207.95,454.15 208.86,454.96 209.77,453.89 210.69,454.49 211.60,453.86 212.51,453.48 213.42,454.70 214.33,453.79 215.24,454.01 216.15,452.73 217.06,455.85 217.97,452.86 218.88,453.72 219.79,454.22 220.71,455.31 221.62,456.22 222.53,454.16 223.44,456.50 224.35,456.90 225.26,457.29 226.17,456.58 227.08,457.33 227.99,456.15 228.90,458.01 229.81,458.81 230.73,457.02 231.64,456.30 232.55,458.09 233.46,455.69 234.37,457.64 235.28,455.85 236.19,455.08 237.10,455.52 238.01,455.42 238.92,456.86 239.83,455.51 240.75,458.32 241.66,458.52 242.57,457.97 243.48,457.57 244.39,457.98 245.30,454.82 246.21,457.24 247.12,459.73 248.03,456.84 248.94,459.01 249.85,457.65 250.77,456.37 251.68,455.82 252.59,457.26 253.50,457.55 254.41,460.39 255.32,458.87 256.23,459.00 257.14,458.72 258.05,458.00 258.96,459.24 259.87,457.07 260.79,462.09 261.70,460.67 262.61,457.43 263.52,456.92 264.43,456.64 265.34,459.60 266.25,457.44 267.16,458.70 268.07,459.83 268.98,459.49 269.89,460.91 270.81,457.34 271.72,460.85 272.63,460.60 273.54,460.54 274.45,458.87 275.36,459.49 276.27,460.55 277.18,458.34 278.09,458.95 279.00,460.89 279.91,461.04 280.83,458.00 281.74,460.61 282.65,460.07 283.56,459.92 284.47,458.01 285.38,457.47 286.29,460.82 287.20,461.54 288.11,461.74 289.02,460.69 289.93,462.46 290.85,462.89 291.76,457.97 292.67,458.58 293.58,459.74 294.49,461.23 295.40,462.31 296.31,462.20 297.22,459.81 298.13,460.50 299.04,462.54 299.95,461.67 300.87,461.56 301.78,458.88 302.69,463.32 303.60,463.80 304.51,459.53 305.42,461.75 306.33,460.60 307.24,460.53 308.15,462.26 309.06,461.88 309.97,461.17 310.89,461.97 311.80,460.13 312.71,459.25 313.62,462.38 314.53,461.65 315.44,463.43 316.35,462.38 317.26,463.13 318.17,462.16 319.08,461.02 319.99,462.82 320.91,463.34 321.82,461.54 322.73,461.59 323.64,463.20 324.55,461.96 325.46,460.61 326.37,461.04 327.28,462.78 328.19,462.72 329.10,461.37 330.02,463.97 330.93,463.27 331.84,461.47 332.75,461.08 333.66,464.03 334.57,462.37 335.48,462.29 336.39,460.92 337.30,462.98 338.21,462.75 339.12,464.09 340.04,462.21 340.95,461.71 341.86,462.60 342.77,461.89 343.68,465.02 344.59,463.03 345.50,461.77 346.41,463.39 347.32,463.40 348.23,463.11 349.14,464.89 350.06,460.79 350.97,463.25 351.88,465.80 352.79,461.24 353.70,462.85 354.61,462.96 355.52,460.20 356.43,464.94 357.34,463.46 358.25,464.17 359.16,461.21 360.08,463.28 360.99,462.32 361.90,462.81 362.81,463.75 363.72,462.13 364.63,463.97 365.54,460.71 366.45,465.15 367.36,463.95 368.27,463.04 369.18,463.35 370.10,461.35 371.01,463.19 371.92,463.37 372.83,464.71 373.74,462.79 374.65,463.03 375.56,463.52 376.47,462.56 377.38,464.43 378.29,463.95 379.20,460.95 380.12,462.62 381.03,462.51 381.94,462.82 382.85,462.39 383.76,465.16 384.67,465.11 385.58,462.87 386.49,462.53 387.40,463.01 388.31,463.56 389.22,466.06 390.14,463.99 391.05,464.20 391.96,463.83 392.87,463.14 393.78,466.18 394.69,465.74 395.60,465.07 396.51,465.40 397.42,464.51 398.33,463.13 399.24,463.16 400.16,463.80 401.07,464.19 401.98,463.49 402.89,465.87 403.80,463.40 404.71,464.49 405.62,464.10 406.53,466.50 407.44,462.44 408.35,466.12 409.26,462.88 410.18,463.60 411.09,466.76 412.00,463.02 412.91,465.43 413.82,465.34 414.73,465.81 415.64,466.03 416.55,466.13 417.46,464.19 418.37,462.23 419.28,464.06 420.20,464.87 421.11,462.26 422.02,465.52 422.93,464.59 423.84,464.90 424.75,465.05 425.66,467.06 426.57,466.42 427.48,463.69 428.39,465.88 429.30,466.01 430.22,466.73 431.13,466.21 432.04,466.64 432.95,465.28 433.86,463.27 434.77,464.45 435.68,466.04 436.59,465.78 437.50,464.46 438.41,465.40 439.32,464.80 440.24,464.63 441.15,464.60 442.06,464.43 442.97,466.51 443.88,464.83 444.79,465.89 445.70,465.96 446.61,466.57 447.52,464.50 448.43,465.79 449.34,465.29 450.26,464.96 451.17,466.71 452.08,464.49 452.99,464.20 453.90,465.06 454.81,463.86 455.72,465.99 456.63,467.62 457.54,467.24 458.45,466.20 459.36,465.24 460.28,466.87 461.19,466.01 462.10,464.76 463.01,467.15 463.92,468.47 464.83,464.25 465.74,467.89 466.65,466.70 467.56,467.12 468.47,465.68 469.38,464.87 470.30,463.85 471.21,468.27 472.12,466.49 473.03,463.43 473.94,468.01 474.85,466.42 475.76,464.16 476.67,467.37 477.58,468.08 478.49,464.76 479.40,464.69 480.32,467.24 481.23,465.68 482.14,466.73 483.05,467.29 483.96,468.45 484.87,467.59 485.78,466.25 486.69,467.47 487.60,467.83 488.51,466.42 489.42,466.93 490.34,465.11 491.25,466.21 492.16,464.89 493.07,466.57 493.98,463.66 494.89,466.69 495.80,468.34 496.71,467.48 497.62,468.31 498.53,467.23 499.44,468.33 500.36,465.97 501.27,465.50 502.18,468.26 503.09,468.43 504.00,466.89 504.91,467.65 505.82,465.01 506.73,467.12 507.64,466.38 508.55,466.08 509.46,466.71 510.38,466.61 511.29,467.26 512.20,467.39 513.11,465.81 514.02,465.55 514.93,465.99 515.84,466.59 516.75,469.02 517.66,469.64 518.57,467.96 519.48,467.45 520.40,464.36 521.31,466.64 522.22,469.78 523.13,468.61 524.04,468.63 524.95,468.29 525.86,465.48 526.77,467.66 527.68,468.14 528.59,468.02 529.50,468.28 530.42,468.17 531.33,466.83 532.24,466.75 533.15,467.73 534.06,465.74 534.97,467.03 535.88,468.69 536.79,466.26 537.70,468.44 538.61,467.79 539.52,468.31 540.44,469.49 541.35,467.65 542.26,466.30 543.17,467.30 544.08,467.73 544.99,466.00 545.90,468.11 546.81,468.23 547.72,469.32 548.63,468.53 549.54,468.03 550.46,468.25 551.37,469.88 552.28,466.63 553.19,468.61 554.10,467.04 555.01,467.60 555.92,466.65 556.83,466.23 557.74,468.56 558.65,468.11 559.56,467.33 560.48,466.31 561.39,466.57 562.30,468.42 563.21,466.81 564.12,468.12 565.03,466.94 565.94,467.20 566.85,466.59 567.76,469.26 568.67,468.24 569.58,469.65 570.50,470.45 571.41,469.36 572.32,467.85 573.23,467.67 574.14,468.49 575.05,468.01 575.96,470.15 576.87,468.24 577.78,469.27 578.69,468.88 579.60,468.50 580.52,470.08 581.43,467.68 582.34,469.39 583.25,468.17 584.16,467.20 585.07,469.69 585.98,466.48 586.89,470.32 587.80,467.52 588.71,470.03 589.62,469.00 590.54,472.25 591.45,468.91 592.36,468.81 593.27,469.53 594.18,467.30 595.09,469.97 596.00,469.45 596.91,469.16 597.82,469.53 598.73,469.53 599.64,471.62 600.56,467.25 601.47,468.14 602.38,468.88 603.29,470.87 604.20,467.77 605.11,467.22 606.02,468.13 606.93,467.26 607.84,469.74 608.75,467.39 609.66,469.21 610.58,469.06 611.49,471.53 612.40,469.25 613.31,469.62 614.22,468.92 615.13,468.55 616.04,469.64 616.95,467.41 617.86,467.58 618.77,469.37 619.68,468.38 620.60,470.00 621.51,468.19 622.42,469.57 623.33,470.29 624.24,470.78 625.15,468.22 626.06,469.55 626.97,468.68 627.88,467.73 628.79,467.24 629.70,470.96 630.62,467.85 631.53,468.97 632.44,469.99 633.35,469.59 634.26,469.04 635.17,469.48 636.08,470.43 636.99,467.49 637.90,468.93 638.81,469.97 639.72,466.82 640.64,469.04 641.55,469.71 642.46,469.85 643.37,471.11 644.28,467.82 645.19,469.95 646.10,470.66 647.01,468.03 647.92,468.86 648.83,469.58 649.74,470.32 650.66,469.48 651.57,469.75 652.48,472.03 653.39,467.32 654.30,470.27 655.21,470.57 656.12,469.83 657.03,469.19 657.94,470.37 658.85,468.82 659.76,470.95 660.68,468.33 661.59,469.35 662.50,469.73 663.41,468.89 664.32,468.65 665.23,469.02 666.14,468.77 667.05,469.05 667.96,470.88 668.87,470.11 669.78,470.46 670.70,471.31 671.61,470.56 672.52,471.00 673.43,467.05 674.34,467.85 675.25,470.43 676.16,468.98 677.07,470.65 677.98,470.77 678.89,471.19 679.80,468.68 680.72,470.09 681.63,470.01 682.54,469.73 683.45,471.15 684.36,468.38 685.27,467.03 686.18,473.52 687.09,469.45 688.00,470.04 688.91,470.02 689.82,470.40 690.74,472.60 691.65,471.72 692.56,469.20 693.47,470.65 694.38,469.99 695.29,469.61 696.20,470.59 697.11,470.67 698.02,470.79 698.93,472.47 699.84,470.04 700.76,471.67 701.67,470.31 702.58,472.31 703.49,471.37 704.40,470.54 705.31,470.69 706.22,468.41 707.13,471.40 708.04,471.35 708.95,470.79 709.86,470.49 710.78,469.14 711.69,469.94 712.60,470.13 713.51,470.71 714.42,471.39 715.33,469.19 716.24,470.84 717.15,470.59 718.06,470.88 718.97,469.73 719.88,469.73 720.80,468.83 721.71,470.79 722.62,470.40 723.53,470.75 724.44,471.81 725.35,470.02 726.26,470.46 727.17,471.21 728.08,469.70 728.99,470.55 729.90,471.61 730.82,471.35 731.73,470.40 732.64,469.64 733.55,470.07 734.46,469.23 735.37,471.11 736.28,469.40 737.19,473.30 738.10,471.71 739.01,470.97 739.92,472.60 740.84,470.97 741.75,469.52 742.66,470.87 743.57,472.32 744.48,470.88 745.39,471.36 746.30,470.39 747.21,470.82 748.12,471.63 749.03,470.65 749.94,471.33 750.86,471.24 751.77,469.65 752.68,472.27 753.59,471.80 754.50,470.95 755.41,472.27 756.32,470.32 757.23,472.10 758.14,469.88 759.05,469.16 759.96,472.11 760.88,470.96 761.79,471.95 762.70,471.17 763.61,472.17 764.52,470.95 765.43,468.83 766.34,471.50 767.25,472.22 768.16,470.85 769.07,471.68 769.98,470.72 770.90,470.54 771.81,471.24 772.72,473.02 773.63,469.83 774.54,470.66 775.45,470.54 776.36,470.93 777.27,471.21 778.18,471.66 779.09,474.38 780.01,472.33 780.92,471.91 781.83,472.51 782.74,471.70 783.65,470.92 784.56,471.20 785.47,471.32 786.38,472.28 787.29,472.17 788.20,473.31 789.11,471.09 790.03,471.63 790.94,470.35 791.85,470.87 792.76,470.59 793.67,472.16 794.58,473.28 795.49,472.60 796.40,471.29 797.31,473.29 798.22,470.48 799.13,470.14 800.05,471.79 800.96,470.49 801.87,472.29 802.78,471.07 803.69,471.25 804.60,471.94 805.51,470.48 806.42,472.38 807.33,470.32 808.24,472.19 809.15,472.09 810.07,468.65 810.98,472.33 811.89,471.81 812.80,472.33 813.71,472.51 814.62,473.01 815.53,472.31 816.44,469.56 817.35,473.23 818.26,470.15 819.17,471.31 820.09,472.14 821.00,471.42 821.91,470.96 822.82,473.55 823.73,469.16 824.64,470.84 825.55,473.40 826.46,473.34 827.37,469.51 828.28,471.15 829.19,472.65 830.11,471.19 831.02,471.49 831.93,473.12 832.84,473.13 833.75,470.29 834.66,474.95 835.57,472.70 836.48,475.05 837.39,472.31 838.30,471.73 839.21,471.43 840.13,471.34 841.04,471.53 841.95,470.83 842.86,472.87 843.77,471.09 844.68,473.48 845.59,474.70 846.50,471.55 847.41,471.99 848.32,473.79 849.23,471.75 850.15,472.52 851.06,472.54 851.97,472.77 852.88,471.32 853.79,471.60 854.70,472.42 855.61,470.76 856.52,473.25 857.43,471.60 858.34,472.62 859.25,472.63 860.17,471.38 861.08,472.69 861.99,472.02 862.90,470.47 863.81,472.70 864.72,471.45 865.63,472.17 866.54,472.15 867.45,471.92 868.36,471.13 869.27,472.54 870.19,471.38 871.10,471.46 872.01,472.40 872.92,473.71 873.83,473.32 874.74,471.14 875.65,472.99 876.56,472.26 877.47,472.56 878.38,472.03 879.29,471.54 880.21,473.98 881.12,473.96 882.03,474.42 882.94,473.18 883.85,472.41 884.76,473.16 885.67,472.13 886.58,472.53 887.49,473.06 888.40,472.76 889.31,471.74 890.23,473.50 891.14,471.50 892.05,471.68 892.96,472.98 893.87,474.21 894.78,472.04 895.69,472.04 896.60,473.46 897.51,470.65 898.42,471.41 899.33,472.78 900.25,470.23 901.16,471.71 902.07,473.19 902.98,472.62 903.89,471.46 904.80,475.21 905.71,472.37 906.62,474.29 907.53,473.14 908.44,473.67 909.35,473.01 910.27,471.90 911.18,473.10 912.09,474.51 913.00,473.19 913.91,472.80 914.82,471.14 915.73,473.64 916.64,472.98 917.55,473.03 918.46,472.85 919.37,473.96 920.29,471.07 921.20,472.04 922.11,471.52 923.02,470.59 923.93,474.17 924.84,472.51 925.75,473.09 926.66,473.18 927.57,472.48 928.48,472.44 929.39,472.20 930.31,472.47 931.22,473.80 932.13,473.06 933.04,473.25 933.95,470.97 934.86,473.02 935.77,473.06 936.68,471.17 937.59,473.46 938.50,471.21 939.41,473.52 940.33,470.82 941.24,473.40 942.15,472.69 943.06,472.94 943.97,473.13 944.88,473.85 945.79,473.41 946.70,474.47 947.61,474.49 948.52,472.78 949.43,472.96 950.35,472.63 951.26,474.95 952.17,473.97 953.08,473.31 953.99,472.86 954.90,473.45 955.81,471.35 956.72,474.09 957.63,471.78 958.54,472.79 959.45,475.91 960.37,473.12 961.28,471.56 962.19,472.61 963.10,472.86 964.01,474.03 964.92,472.83 965.83,473.49 966.74,472.95 967.65,475.58 968.56,474.65 969.47,473.84 970.39,471.55 971.30,472.44 972.21,472.29 973.12,474.38 974.03,472.16 974.94,471.79 975.85,473.83 976.76,474.86 977.67,474.18 978.58,473.38 979.49,474.23 980.41,472.75 981.32,471.36 982.23,474.41 983.14,474.15 984.05,472.94 984.96,473.48 985.87,471.20 986.78,474.35 987.69,471.50 988.60,472.57 989.51,474.85 990.43,474.79 991.34,475.29 992.25,473.34 993.16,473.61 994.07,473.16 994.98,474.64 995.89,474.17 996.80,473.65 997.71,474.56 998.62,474.14 999.53,473.01 1000.45,474.56 1001.36,473.55 1002.27,473.38 1003.18,475.14 1004.09,474.02 1005.00,471.76"><title>tinystories_final train</title></polyline>
<polyline fill="none" stroke="#2563eb" stroke-width="2" stroke-dasharray="7 5" points="139.63,437.31 185.18,449.55 230.73,456.54 276.27,460.64 321.82,462.17 367.36,463.52 412.91,464.25 458.45,465.69 504.00,466.64 549.54,467.15 595.09,468.79 640.64,469.56 686.18,469.53 731.73,470.95 777.27,470.88 822.82,471.69 868.36,472.18 913.91,473.06 959.45,472.77 1005.00,472.70"><title>tinystories_final validation</title></polyline>
<line x1="95" y1="580" x2="123" y2="580" stroke="#2563eb" stroke-width="3"/>
<text x="131" y="585" font-family="sans-serif" font-size="13">tinystories_final</text>
<polyline fill="none" stroke="#dc2626" stroke-width="2" points="95.00,94.09 95.91,100.84 96.82,119.00 97.73,142.17 98.64,166.63 99.55,192.82 100.47,207.54 101.38,215.52 102.29,222.80 103.20,229.03 104.11,231.60 105.02,241.77 105.93,246.61 106.84,250.38 107.75,256.13 108.66,259.09 109.57,262.14 110.49,264.29 111.40,267.47 112.31,268.50 113.22,270.56 114.13,272.04 115.04,276.98 115.95,277.10 116.86,280.21 117.77,278.75 118.68,282.82 119.59,285.23 120.51,285.41 121.42,285.07 122.33,287.05 123.24,291.55 124.15,293.10 125.06,291.70 125.97,292.98 126.88,293.14 127.79,297.63 128.70,296.04 129.61,297.10 130.53,299.44 131.44,301.47 132.35,301.83 133.26,300.10 134.17,301.46 135.08,304.59 135.99,301.30 136.90,304.65 137.81,300.44 138.72,305.52 139.63,305.97 140.55,305.30 141.46,309.11 142.37,306.59 143.28,308.05 144.19,307.71 145.10,310.21 146.01,309.52 146.92,309.77 147.83,311.07 148.74,310.36 149.65,312.34 150.57,308.91 151.48,313.96 152.39,313.55 153.30,314.33 154.21,312.55 155.12,311.17 156.03,314.17 156.94,316.07 157.85,317.22 158.76,314.81 159.67,313.99 160.59,314.82 161.50,316.73 162.41,316.32 163.32,314.37 164.23,317.03 165.14,316.96 166.05,319.43 166.96,318.76 167.87,319.23 168.78,315.98 169.69,317.60 170.61,317.28 171.52,321.45 172.43,317.46 173.34,318.09 174.25,321.60 175.16,319.98 176.07,321.63 176.98,321.38 177.89,323.73 178.80,323.90 179.71,325.20 180.63,323.09 181.54,321.62 182.45,323.12 183.36,321.87 184.27,321.45 185.18,323.62 186.09,321.50 187.00,323.47 187.91,323.67 188.82,324.84 189.73,320.67 190.65,326.86 191.56,326.50 192.47,322.71 193.38,325.99 194.29,327.45 195.20,326.98 196.11,324.65 197.02,327.04 197.93,325.92 198.84,329.62 199.75,327.66 200.67,331.73 201.58,330.78 202.49,330.16 203.40,329.67 204.31,329.70 205.22,332.07 206.13,333.39 207.04,331.14 207.95,330.04 208.86,330.56 209.77,331.97 210.69,332.88 211.60,331.81 212.51,333.83 213.42,332.69 214.33,335.39 215.24,333.28 216.15,329.56 217.06,332.88 217.97,336.17 218.88,331.29 219.79,334.21 220.71,337.11 221.62,335.12 222.53,334.68 223.44,334.66 224.35,335.68 225.26,335.31 226.17,334.42 227.08,336.66 227.99,334.12 228.90,336.99 229.81,336.74 230.73,337.56 231.64,335.31 232.55,334.26 233.46,336.59 234.37,336.96 235.28,337.58 236.19,334.50 237.10,336.46 238.01,336.73 238.92,337.45 239.83,335.26 240.75,336.33 241.66,336.41 242.57,341.17 243.48,335.58 244.39,337.54 245.30,337.24 246.21,337.42 247.12,339.21 248.03,338.07 248.94,337.24 249.85,339.91 250.77,335.64 251.68,338.30 252.59,339.11 253.50,341.90 254.41,338.69 255.32,339.65 256.23,340.51 257.14,340.55 258.05,340.63 258.96,341.35 259.87,342.09 260.79,340.76 261.70,340.45 262.61,340.18 263.52,341.91 264.43,339.15 265.34,337.94 266.25,339.43 267.16,343.92 268.07,342.82 268.98,343.38 269.89,342.91 270.81,341.40 271.72,341.38 272.63,340.06 273.54,340.38 274.45,340.95 275.36,341.38 276.27,343.08 277.18,341.07 278.09,343.83 279.00,345.27 279.91,342.88 280.83,341.86 281.74,342.73 282.65,339.93 283.56,344.28 284.47,343.00 285.38,341.63 286.29,345.58 287.20,340.63 288.11,342.79 289.02,342.48 289.93,345.57 290.85,342.99 291.76,342.02 292.67,344.57 293.58,342.86 294.49,343.28 295.40,341.04 296.31,345.64 297.22,342.76 298.13,343.01 299.04,343.51 299.95,345.05 300.87,345.04 301.78,342.81 302.69,343.48 303.60,342.83 304.51,343.61 305.42,342.93 306.33,343.12 307.24,340.05 308.15,340.82 309.06,344.74 309.97,347.03 310.89,344.25 311.80,347.03 312.71,344.74 313.62,347.35 314.53,345.90 315.44,345.34 316.35,343.84 317.26,343.39 318.17,345.31 319.08,344.72 319.99,345.63 320.91,346.16 321.82,346.18 322.73,344.79 323.64,345.05 324.55,347.40 325.46,343.84 326.37,347.04 327.28,348.15 328.19,344.71 329.10,344.67 330.02,344.67 330.93,345.87 331.84,343.74 332.75,346.88 333.66,349.55 334.57,347.31 335.48,345.07 336.39,345.66 337.30,345.13 338.21,347.45 339.12,346.45 340.04,343.78 340.95,344.19 341.86,344.73 342.77,347.80 343.68,350.06 344.59,346.25 345.50,347.89 346.41,344.71 347.32,347.26 348.23,345.52 349.14,348.66 350.06,349.23 350.97,346.86 351.88,347.47 352.79,348.58 353.70,347.03 354.61,348.25 355.52,348.88 356.43,347.99 357.34,347.89 358.25,347.59 359.16,345.51 360.08,348.71 360.99,346.75 361.90,349.55 362.81,345.97 363.72,347.28 364.63,347.39 365.54,349.21 366.45,348.35 367.36,346.71 368.27,348.29 369.18,348.14 370.10,350.03 371.01,347.52 371.92,346.86 372.83,349.14 373.74,348.55 374.65,349.41 375.56,349.19 376.47,352.23 377.38,349.19 378.29,349.84 379.20,345.47 380.12,344.79 381.03,349.36 381.94,346.23 382.85,348.74 383.76,351.79 384.67,346.39 385.58,349.54 386.49,350.34 387.40,349.96 388.31,351.69 389.22,347.00 390.14,347.64 391.05,348.45 391.96,348.06 392.87,348.16 393.78,348.17 394.69,349.16 395.60,348.50 396.51,351.55 397.42,349.80 398.33,350.03 399.24,349.64 400.16,350.46 401.07,351.57 401.98,347.61 402.89,351.18 403.80,348.54 404.71,351.52 405.62,348.90 406.53,350.00 407.44,347.95 408.35,351.12 409.26,350.48 410.18,349.23 411.09,350.70 412.00,351.03 412.91,349.03 413.82,347.69 414.73,351.10 415.64,350.69 416.55,352.46 417.46,350.65 418.37,351.52 419.28,350.50 420.20,350.64 421.11,349.95 422.02,350.85 422.93,352.58 423.84,349.13 424.75,349.67 425.66,350.19 426.57,347.13 427.48,351.42 428.39,352.64 429.30,351.36 430.22,349.46 431.13,349.90 432.04,348.70 432.95,350.35 433.86,350.08 434.77,350.09 435.68,351.08 436.59,353.18 437.50,349.83 438.41,350.26 439.32,353.06 440.24,351.80 441.15,350.77 442.06,352.03 442.97,350.35 443.88,347.88 444.79,352.28 445.70,348.01 446.61,351.86 447.52,351.88 448.43,353.98 449.34,350.52 450.26,350.01 451.17,351.41 452.08,350.69 452.99,352.17 453.90,355.28 454.81,349.64 455.72,352.23 456.63,353.58 457.54,352.73 458.45,351.86 459.36,352.14 460.28,352.99 461.19,352.18 462.10,352.02 463.01,355.28 463.92,354.61 464.83,353.99 465.74,352.71 466.65,349.69 467.56,351.13 468.47,354.19 469.38,352.97 470.30,352.10 471.21,353.68 472.12,352.30 473.03,350.81 473.94,350.78 474.85,356.05 475.76,351.40 476.67,352.50 477.58,352.10 478.49,352.66 479.40,351.35 480.32,354.74 481.23,351.37 482.14,354.53 483.05,354.24 483.96,351.36 484.87,352.84 485.78,355.41 486.69,351.18 487.60,352.77 488.51,356.24 489.42,352.31 490.34,350.68 491.25,352.58 492.16,350.75 493.07,353.28 493.98,354.05 494.89,352.32 495.80,354.92 496.71,354.03 497.62,356.07 498.53,352.70 499.44,352.33 500.36,352.44 501.27,356.21 502.18,357.81 503.09,354.63 504.00,354.44 504.91,353.73 505.82,353.87 506.73,353.16 507.64,353.72 508.55,353.21 509.46,355.55 510.38,354.18 511.29,355.50 512.20,355.74 513.11,354.26 514.02,354.15 514.93,352.91 515.84,354.17 516.75,351.48 517.66,353.38 518.57,356.41 519.48,352.53 520.40,354.79 521.31,351.96 522.22,357.50 523.13,353.42 524.04,353.01 524.95,353.37 525.86,355.54 526.77,355.56 527.68,355.21 528.59,355.09 529.50,352.85 530.42,354.05 531.33,356.99 532.24,354.72 533.15,353.39 534.06,353.55 534.97,357.58 535.88,355.66 536.79,354.66 537.70,356.07 538.61,354.20 539.52,355.14 540.44,355.08 541.35,353.52 542.26,352.11 543.17,352.90 544.08,353.15 544.99,354.45 545.90,353.24 546.81,357.00 547.72,354.81 548.63,357.70 549.54,352.81 550.46,353.04 551.37,352.44 552.28,356.70 553.19,358.09 554.10,355.12 555.01,353.75 555.92,355.81 556.83,353.11 557.74,356.36 558.65,354.48 559.56,356.35 560.48,355.14 561.39,354.82 562.30,356.44 563.21,355.96 564.12,356.01 565.03,356.45 565.94,355.75 566.85,356.29 567.76,356.39 568.67,356.17 569.58,358.11 570.50,355.39 571.41,354.03 572.32,354.16 573.23,356.41 574.14,355.08 575.05,356.98 575.96,354.01 576.87,354.79 577.78,356.71 578.69,356.98 579.60,359.02 580.52,356.25 581.43,355.77 582.34,356.89 583.25,356.27 584.16,357.04 585.07,356.84 585.98,357.77 586.89,356.15 587.80,358.39 588.71,356.77 589.62,355.13 590.54,359.07 591.45,356.29 592.36,358.37 593.27,356.65 594.18,355.17 595.09,357.83 596.00,356.83 596.91,357.48 597.82,353.53 598.73,353.47 599.64,356.71 600.56,355.47 601.47,357.82 602.38,358.99 603.29,359.07 604.20,355.22 605.11,356.86 606.02,355.80 606.93,359.13 607.84,355.12 608.75,355.49 609.66,356.79 610.58,358.98 611.49,355.43 612.40,356.39 613.31,359.95 614.22,358.22 615.13,355.54 616.04,359.16 616.95,359.11 617.86,356.10 618.77,353.33 619.68,357.01 620.60,359.50 621.51,358.53 622.42,357.97 623.33,357.69 624.24,358.63 625.15,355.49 626.06,355.66 626.97,358.86 627.88,356.31 628.79,359.62 629.70,358.44 630.62,357.94 631.53,359.96 632.44,358.48 633.35,356.81 634.26,355.51 635.17,356.53 636.08,356.31 636.99,360.64 637.90,358.14 638.81,358.40 639.72,357.94 640.64,357.83 641.55,357.73 642.46,360.72 643.37,358.12 644.28,358.39 645.19,358.09 646.10,361.28 647.01,359.16 647.92,360.02 648.83,360.39 649.74,357.88 650.66,358.65 651.57,357.82 652.48,355.47 653.39,359.82 654.30,356.66 655.21,358.26 656.12,356.12 657.03,358.22 657.94,358.72 658.85,357.18 659.76,358.68 660.68,359.03 661.59,355.73 662.50,358.73 663.41,356.37 664.32,356.84 665.23,357.87 666.14,359.74 667.05,359.94 667.96,358.79 668.87,354.65 669.78,357.58 670.70,357.59 671.61,358.28 672.52,357.32 673.43,357.84 674.34,357.74 675.25,354.93 676.16,355.78 677.07,356.96 677.98,357.90 678.89,359.10 679.80,359.19 680.72,359.31 681.63,357.69 682.54,358.41 683.45,359.65 684.36,359.47 685.27,355.66 686.18,358.56 687.09,357.73 688.00,360.29 688.91,359.10 689.82,359.03 690.74,359.64 691.65,359.61 692.56,359.67 693.47,359.90 694.38,359.36 695.29,358.54 696.20,355.04 697.11,358.65 698.02,358.96 698.93,360.22 699.84,359.81 700.76,359.05 701.67,358.29 702.58,360.54 703.49,360.88 704.40,360.19 705.31,359.13 706.22,361.07 707.13,358.97 708.04,358.18 708.95,360.21 709.86,362.57 710.78,358.69 711.69,357.25 712.60,356.02 713.51,357.43 714.42,356.46 715.33,360.03 716.24,358.75 717.15,361.72 718.06,362.78 718.97,360.87 719.88,362.47 720.80,361.34 721.71,361.55 722.62,359.85 723.53,361.00 724.44,358.11 725.35,359.19 726.26,360.56 727.17,362.86 728.08,360.73 728.99,362.15 729.90,358.22 730.82,360.32 731.73,357.21 732.64,359.62 733.55,357.30 734.46,360.36 735.37,358.91 736.28,361.79 737.19,359.10 738.10,362.99 739.01,360.20 739.92,359.89 740.84,359.65 741.75,359.47 742.66,362.56 743.57,356.73 744.48,359.74 745.39,358.07 746.30,360.24 747.21,362.42 748.12,363.36 749.03,360.77 749.94,360.14 750.86,358.64 751.77,362.00 752.68,361.29 753.59,359.23 754.50,361.06 755.41,363.31 756.32,360.82 757.23,363.02 758.14,360.31 759.05,363.15 759.96,359.62 760.88,362.65 761.79,360.15 762.70,362.24 763.61,365.44 764.52,359.88 765.43,362.10 766.34,358.17 767.25,362.74 768.16,363.39 769.07,364.65 769.98,360.79 770.90,362.96 771.81,359.40 772.72,361.05 773.63,359.64 774.54,356.87 775.45,360.93 776.36,360.20 777.27,362.10 778.18,362.10 779.09,360.80 780.01,358.92 780.92,361.68 781.83,361.20 782.74,361.61 783.65,361.06 784.56,362.51 785.47,361.76 786.38,361.43 787.29,364.28 788.20,362.64 789.11,363.28 790.03,361.12 790.94,361.92 791.85,363.43 792.76,360.45 793.67,360.43 794.58,362.07 795.49,363.00 796.40,358.50 797.31,360.41 798.22,365.73 799.13,358.65 800.05,360.21 800.96,362.92 801.87,360.33 802.78,362.14 803.69,361.16 804.60,360.80 805.51,358.32 806.42,362.36 807.33,363.52 808.24,361.67 809.15,362.17 810.07,361.57 810.98,362.18 811.89,359.91 812.80,361.52 813.71,362.25 814.62,364.49 815.53,365.71 816.44,363.00 817.35,361.24 818.26,363.15 819.17,360.24 820.09,363.31 821.00,360.53 821.91,359.60 822.82,361.54 823.73,362.20 824.64,361.22 825.55,361.92 826.46,364.65 827.37,360.73 828.28,361.77 829.19,360.65 830.11,363.99 831.02,361.87 831.93,363.33 832.84,362.56 833.75,361.81 834.66,362.05 835.57,363.04 836.48,362.07 837.39,364.46 838.30,361.84 839.21,359.98 840.13,360.27 841.04,362.53 841.95,362.77 842.86,360.56 843.77,366.54 844.68,360.99 845.59,361.26 846.50,364.74 847.41,362.36 848.32,362.24 849.23,362.34 850.15,360.81 851.06,364.66 851.97,361.43 852.88,362.09 853.79,361.60 854.70,363.33 855.61,363.87 856.52,364.65 857.43,363.60 858.34,362.37 859.25,361.88 860.17,363.43 861.08,361.70 861.99,362.78 862.90,362.06 863.81,361.99 864.72,364.95 865.63,363.35 866.54,362.79 867.45,360.66 868.36,364.12 869.27,362.02 870.19,358.48 871.10,364.68 872.01,364.43 872.92,361.93 873.83,362.58 874.74,360.89 875.65,364.29 876.56,363.50 877.47,362.89 878.38,360.24 879.29,365.38 880.21,361.22 881.12,363.09 882.03,362.84 882.94,359.85 883.85,364.09 884.76,360.77 885.67,362.55 886.58,361.57 887.49,363.41 888.40,362.23 889.31,363.96 890.23,366.42 891.14,364.05 892.05,362.65 892.96,364.16 893.87,360.69 894.78,364.66 895.69,362.27 896.60,363.73 897.51,362.45 898.42,364.23 899.33,363.38 900.25,362.24 901.16,366.45 902.07,362.39 902.98,363.71 903.89,360.28 904.80,365.11 905.71,363.40 906.62,361.35 907.53,363.39 908.44,365.33 909.35,367.70 910.27,364.06 911.18,360.91 912.09,360.24 913.00,360.64 913.91,362.74 914.82,364.01 915.73,362.83 916.64,365.57 917.55,362.83 918.46,364.88 919.37,361.67 920.29,365.06 921.20,362.80 922.11,368.90 923.02,362.11 923.93,362.41 924.84,363.13 925.75,362.52 926.66,362.73 927.57,362.76 928.48,364.30 929.39,363.31 930.31,362.42 931.22,363.23 932.13,363.98 933.04,364.10 933.95,362.10 934.86,363.64 935.77,365.25 936.68,363.16 937.59,362.67 938.50,362.62 939.41,364.00 940.33,364.77 941.24,364.65 942.15,365.07 943.06,362.91 943.97,361.14 944.88,363.79 945.79,362.68 946.70,363.57 947.61,361.29 948.52,361.73 949.43,360.25 950.35,365.94 951.26,366.02 952.17,366.84 953.08,364.66 953.99,362.51 954.90,362.05 955.81,361.66 956.72,360.53 957.63,361.73 958.54,363.46 959.45,366.56 960.37,365.27 961.28,362.12 962.19,362.70 963.10,361.63 964.01,365.18 964.92,361.40 965.83,363.37 966.74,363.03 967.65,362.09 968.56,363.29 969.47,366.79 970.39,364.08 971.30,363.91 972.21,364.11 973.12,362.06 974.03,364.28 974.94,366.30 975.85,365.19 976.76,362.50 977.67,364.02 978.58,362.80 979.49,360.78 980.41,363.14 981.32,364.72 982.23,365.75 983.14,360.72 984.05,361.35 984.96,362.98 985.87,363.49 986.78,363.73 987.69,366.56 988.60,364.32 989.51,364.48 990.43,369.52 991.34,361.28 992.25,363.02 993.16,364.19 994.07,367.66 994.98,364.16 995.89,366.00 996.80,361.66 997.71,363.58 998.62,363.81 999.53,364.10 1000.45,364.08 1001.36,364.94 1002.27,361.76 1003.18,364.18 1004.09,365.22 1005.00,363.39"><title>owt_final train</title></polyline>
<polyline fill="none" stroke="#dc2626" stroke-width="2" stroke-dasharray="7 5" points="139.63,306.62 185.18,324.45 230.73,336.15 276.27,341.93 321.82,345.32 367.36,347.88 412.91,350.20 458.45,352.56 504.00,353.08 549.54,355.03 595.09,356.85 640.64,357.41 686.18,359.67 731.73,359.99 777.27,361.92 822.82,361.85 868.36,362.88 913.91,363.16 959.45,363.63 1005.00,364.04"><title>owt_final validation</title></polyline>
<line x1="340" y1="580" x2="368" y2="580" stroke="#dc2626" stroke-width="3"/>
<text x="376" y="585" font-family="sans-serif" font-size="13">owt_final</text>
<line x1="790" y1="52" x2="820" y2="52" stroke="#374151" stroke-width="2"/>
<text x="827" y="57" font-family="sans-serif" font-size="13">train</text>
<line x1="895" y1="52" x2="925" y2="52" stroke="#374151" stroke-width="2" stroke-dasharray="7 5"/>
<text x="932" y="57" font-family="sans-serif" font-size="13">validation</text>
</svg>