<svg xmlns="http://www.w3.org/2000/svg" width="1100" height="610" viewBox="0 0 1100 610">
<rect width="1100" height="610" fill="white"/>
<text x="550" y="35" text-anchor="middle" font-family="sans-serif" font-size="24">TinyStories warmup comparison</text>
<line x1="95.00" y1="75.0" x2="95.00" y2="495.0" stroke="#e5e7eb"/>
<text x="95.00" y="518.0" text-anchor="middle" font-family="sans-serif" font-size="12">328k</text>
<line x1="95.0" y1="75.00" x2="1005.0" y2="75.00" stroke="#e5e7eb"/>
<text x="83.0" y="79.00" text-anchor="end" font-family="sans-serif" font-size="12">8.475</text>
<line x1="277.00" y1="75.0" x2="277.00" y2="495.0" stroke="#e5e7eb"/>
<text x="277.00" y="518.0" text-anchor="middle" font-family="sans-serif" font-size="12">6.82M</text>
<line x1="95.0" y1="159.00" x2="1005.0" y2="159.00" stroke="#e5e7eb"/>
<text x="83.0" y="163.00" text-anchor="end" font-family="sans-serif" font-size="12">7.051</text>
<line x1="459.00" y1="75.0" x2="459.00" y2="495.0" stroke="#e5e7eb"/>
<text x="459.00" y="518.0" text-anchor="middle" font-family="sans-serif" font-size="12">13.3M</text>
<line x1="95.0" y1="243.00" x2="1005.0" y2="243.00" stroke="#e5e7eb"/>
<text x="83.0" y="247.00" text-anchor="end" font-family="sans-serif" font-size="12">5.627</text>
<line x1="641.00" y1="75.0" x2="641.00" y2="495.0" stroke="#e5e7eb"/>
<text x="641.00" y="518.0" text-anchor="middle" font-family="sans-serif" font-size="12">19.8M</text>
<line x1="95.0" y1="327.00" x2="1005.0" y2="327.00" stroke="#e5e7eb"/>
<text x="83.0" y="331.00" text-anchor="end" font-family="sans-serif" font-size="12">4.203</text>
<line x1="823.00" y1="75.0" x2="823.00" y2="495.0" stroke="#e5e7eb"/>
<text x="823.00" y="518.0" text-anchor="middle" font-family="sans-serif" font-size="12">26.3M</text>
<line x1="95.0" y1="411.00" x2="1005.0" y2="411.00" stroke="#e5e7eb"/>
<text x="83.0" y="415.00" text-anchor="end" font-family="sans-serif" font-size="12">2.779</text>
<line x1="1005.00" y1="75.0" x2="1005.00" y2="495.0" stroke="#e5e7eb"/>
<text x="1005.00" y="518.0" text-anchor="middle" font-family="sans-serif" font-size="12">32.8M</text>
<line x1="95.0" y1="495.00" x2="1005.0" y2="495.00" stroke="#e5e7eb"/>
<text x="83.0" y="499.00" text-anchor="end" font-family="sans-serif" font-size="12">1.355</text>
<line x1="95.0" y1="495.0" x2="1005.0" y2="495.0" stroke="black"/>
<line x1="95.0" y1="75.0" x2="95.0" y2="495.0" stroke="black"/>
<text x="550.0" y="555.0" text-anchor="middle" font-family="sans-serif">processed tokens</text>
<text x="28" y="285.0" text-anchor="middle" font-family="sans-serif" transform="rotate(-90 28 285.0)">loss</text>
<polyline fill="none" stroke="#2563eb" stroke-width="2" points="95.00,247.73 104.19,308.94 113.38,330.96 122.58,349.52 131.77,357.77 140.96,364.74 150.15,371.68 159.34,374.58 168.54,382.55 177.73,388.91 186.92,392.32 196.11,398.43 205.30,400.29 214.49,406.30 223.69,407.95 232.88,412.96 242.07,413.51 251.26,413.49 260.45,415.16 269.65,417.97 278.84,418.49 288.03,420.96 297.22,424.76 306.41,425.83 315.61,424.14 324.80,427.10 333.99,427.97 343.18,431.29 352.37,433.23 361.57,437.02 370.76,436.80 379.95,434.97 389.14,434.49 398.33,431.78 407.53,436.81 416.72,436.03 425.91,433.89 435.10,439.15 444.29,437.46 453.48,441.73 462.68,443.83 471.87,442.59 481.06,444.15 490.25,444.75 499.44,445.26 508.64,442.43 517.83,444.70 527.02,445.94 536.21,443.37 545.40,446.45 554.60,447.54 563.79,452.74 572.98,451.11 582.17,450.27 591.36,454.49 600.56,455.97 609.75,451.30 618.94,454.36 628.13,451.80 637.32,454.18 646.52,452.36 655.71,454.52 664.90,456.06 674.09,455.49 683.28,453.09 692.47,452.28 701.67,457.86 710.86,455.05 720.05,454.98 729.24,456.41 738.43,456.67 747.63,454.54 756.82,458.86 766.01,458.69 775.20,455.88 784.39,462.86 793.59,458.47 802.78,458.69 811.97,460.09 821.16,463.01 830.35,460.99 839.55,462.51 848.74,461.85 857.93,462.55 867.12,460.21 876.31,464.41 885.51,460.86 894.70,462.92 903.89,466.13 913.08,463.01 922.27,460.85 931.46,461.46 940.66,460.12 949.85,463.16 959.04,461.24 968.23,462.79 977.42,462.69 986.62,463.58 995.81,462.98 1005.00,466.86"><title>warmup_00pct train</title></polyline>
<polyline fill="none" stroke="#2563eb" stroke-width="2" stroke-dasharray="7 5" points="131.77,357.38 177.73,389.38 223.69,408.31 269.65,418.62 315.61,426.37 361.57,431.50 407.53,436.74 453.48,441.03 499.44,444.06 545.40,448.43 591.36,451.22 637.32,452.72 683.28,455.75 729.24,457.30 775.20,459.22 821.16,461.67 867.12,461.36 913.08,461.90 959.04,463.54 1005.00,463.78"><title>warmup_00pct validation</title></polyline>
<line x1="95" y1="580" x2="123" y2="580" stroke="#2563eb" stroke-width="3"/>
<text x="131" y="585" font-family="sans-serif" font-size="13">warmup_00pct</text>
<polyline fill="none" stroke="#dc2626" stroke-width="2" points="95.00,234.38 104.19,289.03 113.38,317.03 122.58,336.60 131.77,347.92 140.96,358.45 150.15,366.03 159.34,368.82 168.54,378.11 177.73,384.48 186.92,389.23 196.11,395.81 205.30,397.64 214.49,404.98 223.69,406.62 232.88,411.93 242.07,412.98 251.26,413.86 260.45,416.00 269.65,418.79 278.84,419.08 288.03,422.77 297.22,426.84 306.41,427.47 315.61,426.85 324.80,429.12 333.99,430.32 343.18,433.92 352.37,435.91 361.57,440.38 370.76,439.79 379.95,438.04 389.14,438.54 398.33,435.92 407.53,440.60 416.72,439.30 425.91,438.02 435.10,443.56 444.29,440.74 453.48,445.54 462.68,447.84 471.87,446.92 481.06,447.95 490.25,448.74 499.44,448.71 508.64,446.98 517.83,449.37 527.02,450.38 536.21,448.10 545.40,450.55 554.60,451.92 563.79,456.59 572.98,455.03 582.17,454.84 591.36,458.21 600.56,460.18 609.75,454.41 618.94,458.32 628.13,455.72 637.32,458.34 646.52,455.84 655.71,458.13 664.90,459.28 674.09,459.47 683.28,457.06 692.47,456.27 701.67,461.46 710.86,458.24 720.05,458.18 729.24,459.60 738.43,460.50 747.63,457.05 756.82,462.11 766.01,461.91 775.20,458.97 784.39,466.25 793.59,461.45 802.78,461.70 811.97,463.64 821.16,466.34 830.35,463.74 839.55,465.84 848.74,464.82 857.93,465.80 867.12,463.58 876.31,467.29 885.51,464.46 894.70,466.16 903.89,468.96 913.08,465.43 922.27,463.75 931.46,464.08 940.66,462.82 949.85,465.90 959.04,464.27 968.23,465.27 977.42,465.41 986.62,466.58 995.81,465.99 1005.00,469.34"><title>warmup_01pct train</title></polyline>
<polyline fill="none" stroke="#dc2626" stroke-width="2" stroke-dasharray="7 5" points="131.77,348.13 177.73,385.00 223.69,407.22 269.65,419.40 315.61,428.92 361.57,434.29 407.53,440.48 453.48,445.13 499.44,448.22 545.40,452.88 591.36,455.09 637.32,456.42 683.28,459.33 729.24,460.63 775.20,462.35 821.16,464.85 867.12,464.43 913.08,464.88 959.04,466.43 1005.00,466.73"><title>warmup_01pct validation</title></polyline>
<line x1="340" y1="580" x2="368" y2="580" stroke="#dc2626" stroke-width="3"/>
<text x="376" y="585" font-family="sans-serif" font-size="13">warmup_01pct</text>
<polyline fill="none" stroke="#059669" stroke-width="2" points="95.00,131.39 104.19,275.28 113.38,323.88 122.58,351.07 131.77,362.99 140.96,374.80 150.15,385.61 159.34,389.64 168.54,399.85 177.73,406.30 186.92,409.97 196.11,415.55 205.30,416.31 214.49,422.82 223.69,423.34 232.88,428.28 242.07,428.71 251.26,428.50 260.45,429.78 269.65,432.70 278.84,432.76 288.03,435.37 297.22,439.85 306.41,440.04 315.61,438.69 324.80,441.03 333.99,441.04 343.18,445.48 352.37,446.68 361.57,450.14 370.76,450.01 379.95,447.71 389.14,448.10 398.33,444.89 407.53,449.97 416.72,448.35 425.91,446.99 435.10,452.49 444.29,449.85 453.48,453.83 462.68,456.18 471.87,454.79 481.06,455.25 490.25,456.61 499.44,456.29 508.64,454.31 517.83,456.37 527.02,457.90 536.21,454.77 545.40,457.53 554.60,458.47 563.79,463.85 572.98,461.99 582.17,461.04 591.36,464.85 600.56,466.37 609.75,461.24 618.94,464.44 628.13,462.06 637.32,464.38 646.52,462.10 655.71,464.53 664.90,465.68 674.09,465.60 683.28,463.11 692.47,462.71 701.67,467.86 710.86,464.57 720.05,464.62 729.24,465.61 738.43,466.25 747.63,463.64 756.82,468.26 766.01,467.83 775.20,465.31 784.39,471.93 793.59,468.09 802.78,467.98 811.97,468.91 821.16,472.02 830.35,469.28 839.55,471.70 848.74,470.58 857.93,471.59 867.12,469.02 876.31,473.21 885.51,470.09 894.70,471.82 903.89,474.71 913.08,471.63 922.27,469.29 931.46,469.95 940.66,468.78 949.85,471.55 959.04,470.14 968.23,470.79 977.42,471.00 986.62,472.10 995.81,471.44 1005.00,475.02"><title>warmup_05pct train</title></polyline>
<polyline fill="none" stroke="#059669" stroke-width="2" stroke-dasharray="7 5" points="131.77,363.30 177.73,406.19 223.69,424.18 269.65,433.15 315.61,440.96 361.57,444.83 407.53,449.69 453.48,453.45 499.44,455.69 545.40,459.58 591.36,461.85 637.32,462.79 683.28,465.50 729.24,466.69 775.20,468.28 821.16,470.60 867.12,470.20 913.08,470.61 959.04,472.07 1005.00,472.30"><title>warmup_05pct validation</title></polyline>
<line x1="585" y1="580" x2="613" y2="580" stroke="#059669" stroke-width="3"/>
<text x="621" y="585" font-family="sans-serif" font-size="13">warmup_05pct</text>
<polyline fill="none" stroke="#7c3aed" stroke-width="2" points="95.00,94.09 104.19,217.34 113.38,296.25 122.58,334.63 131.77,351.69 140.96,364.93 150.15,375.49 159.34,381.69 168.54,393.39 177.73,401.27 186.92,405.97 196.11,411.83 205.30,414.14 214.49,420.81 223.69,421.53 232.88,426.42 242.07,427.46 251.26,427.35 260.45,428.50 269.65,431.36 278.84,431.79 288.03,435.11 297.22,438.81 306.41,439.26 315.61,438.45 324.80,440.38 333.99,441.05 343.18,445.06 352.37,446.36 361.57,450.63 370.76,449.68 379.95,447.83 389.14,447.82 398.33,445.01 407.53,450.03 416.72,448.63 425.91,447.07 435.10,452.32 444.29,449.87 453.48,454.25 462.68,456.77 471.87,455.13 481.06,455.39 490.25,457.21 499.44,456.70 508.64,455.01 517.83,456.72 527.02,458.13 536.21,455.28 545.40,458.29 554.60,459.40 563.79,464.17 572.98,462.20 582.17,461.78 591.36,465.46 600.56,467.43 609.75,462.08 618.94,465.04 628.13,462.91 637.32,465.23 646.52,463.01 655.71,464.85 664.90,466.31 674.09,466.16 683.28,463.85 692.47,463.46 701.67,468.54 710.86,465.47 720.05,465.19 729.24,466.48 738.43,467.50 747.63,464.02 756.82,468.91 766.01,468.74 775.20,466.07 784.39,472.66 793.59,468.63 802.78,468.58 811.97,469.94 821.16,473.14 830.35,470.20 839.55,472.46 848.74,471.49 857.93,472.40 867.12,470.39 876.31,474.20 885.51,470.85 894.70,472.72 903.89,475.46 913.08,472.25 922.27,470.33 931.46,470.95 940.66,469.38 949.85,472.45 959.04,471.18 968.23,471.79 977.42,471.74 986.62,472.81 995.81,472.48 1005.00,475.91"><title>warmup_10pct train</title></polyline>
<polyline fill="none" stroke="#7c3aed" stroke-width="2" stroke-dasharray="7 5" points="131.77,351.95 177.73,401.86 223.69,422.07 269.65,432.20 315.61,440.25 361.57,445.04 407.53,449.74 453.48,453.73 499.44,456.10 545.40,460.05 591.36,462.39 637.32,463.39 683.28,466.17 729.24,467.41 775.20,469.01 821.16,471.44 867.12,470.91 913.08,471.35 959.04,472.88 1005.00,473.19"><title>warmup_10pct validation</title></polyline>
<line x1="830" y1="580" x2="858" y2="580" stroke="#7c3aed" stroke-width="3"/>
<text x="866" y="585" font-family="sans-serif" font-size="13">warmup_10pct</text>
<line x1="790" y1="52" x2="820" y2="52" stroke="#374151" stroke-width="2"/>
<text x="827" y="57" font-family="sans-serif" font-size="13">train</text>
<line x1="895" y1="52" x2="925" y2="52" stroke="#374151" stroke-width="2" stroke-dasharray="7 5"/>
<text x="932" y="57" font-family="sans-serif" font-size="13">validation</text>
</svg>