<svg xmlns="http://www.w3.org/2000/svg" width="760" height="420" viewBox="0 0 760 420">
<rect width="100%" height="100%" fill="#fff"/>
<text x="380.0" y="30" text-anchor="middle" font-family="Arial" font-size="20">A2-K Peak Reserved Memory</text>
<line x1="80" y1="330" x2="730" y2="330" stroke="#222"/>
<line x1="80" y1="55" x2="80" y2="330" stroke="#222"/>
<rect x="90.8" y="55.0" width="32.5" height="275.0" fill="#497b5a"/>
<text x="107.1" y="50.0" text-anchor="middle" font-family="Arial" font-size="11">20192.0</text>
<text x="107.1" y="354" transform="rotate(35 107.1 354)" font-family="Arial" font-size="10">checkpointing.csv:medium_ctx2048_ckptnone</text>
<rect x="145.0" y="166.7" width="32.5" height="163.3" fill="#497b5a"/>
<text x="161.2" y="161.7" text-anchor="middle" font-family="Arial" font-size="11">11994.0</text>
<text x="161.2" y="354" transform="rotate(35 161.2 354)" font-family="Arial" font-size="10">checkpointing.csv:medium_ctx2048_ckpt8</text>
<rect x="199.2" y="190.5" width="32.5" height="139.5" fill="#497b5a"/>
<text x="215.4" y="185.5" text-anchor="middle" font-family="Arial" font-size="11">10244.0</text>
<text x="215.4" y="354" transform="rotate(35 215.4 354)" font-family="Arial" font-size="10">checkpointing.csv:medium_ctx1024_ckptnone</text>
<rect x="253.3" y="218.2" width="32.5" height="111.8" fill="#497b5a"/>
<text x="269.6" y="213.2" text-anchor="middle" font-family="Arial" font-size="11">8206.0</text>
<text x="269.6" y="354" transform="rotate(35 269.6 354)" font-family="Arial" font-size="10">checkpointing.csv:medium_ctx1024_ckpt8</text>
<rect x="307.5" y="218.3" width="32.5" height="111.7" fill="#497b5a"/>
<text x="323.7" y="213.3" text-anchor="middle" font-family="Arial" font-size="11">8202.0</text>
<text x="323.7" y="354" transform="rotate(35 323.7 354)" font-family="Arial" font-size="10">checkpointing.csv:medium_ctx1024_ckpt2</text>
<rect x="361.7" y="218.5" width="32.5" height="111.5" fill="#497b5a"/>
<text x="377.9" y="213.5" text-anchor="middle" font-family="Arial" font-size="11">8184.0</text>
<text x="377.9" y="354" transform="rotate(35 377.9 354)" font-family="Arial" font-size="10">checkpointing.csv:medium_ctx1024_ckpt4</text>
<rect x="415.8" y="219.0" width="32.5" height="111.0" fill="#497b5a"/>
<text x="432.1" y="214.0" text-anchor="middle" font-family="Arial" font-size="11">8150.0</text>
<text x="432.1" y="354" transform="rotate(35 432.1 354)" font-family="Arial" font-size="10">checkpointing.csv:medium_ctx1024_ckpt1</text>
<rect x="470.0" y="239.1" width="32.5" height="90.9" fill="#497b5a"/>
<text x="486.2" y="234.1" text-anchor="middle" font-family="Arial" font-size="11">6678.0</text>
<text x="486.2" y="354" transform="rotate(35 486.2 354)" font-family="Arial" font-size="10">flash_benchmark.csv:triton</text>
<rect x="524.2" y="239.1" width="32.5" height="90.9" fill="#497b5a"/>
<text x="540.4" y="234.1" text-anchor="middle" font-family="Arial" font-size="11">6678.0</text>
<text x="540.4" y="354" transform="rotate(35 540.4 354)" font-family="Arial" font-size="10">flash_benchmark.csv:triton</text>
<rect x="578.3" y="239.1" width="32.5" height="90.9" fill="#497b5a"/>
<text x="594.6" y="234.1" text-anchor="middle" font-family="Arial" font-size="11">6678.0</text>
<text x="594.6" y="354" transform="rotate(35 594.6 354)" font-family="Arial" font-size="10">flash_benchmark.csv:triton</text>
<rect x="632.5" y="239.1" width="32.5" height="90.9" fill="#497b5a"/>
<text x="648.8" y="234.1" text-anchor="middle" font-family="Arial" font-size="11">6678.0</text>
<text x="648.8" y="354" transform="rotate(35 648.8 354)" font-family="Arial" font-size="10">flash_benchmark.csv:triton</text>
<rect x="686.7" y="253.0" width="32.5" height="77.0" fill="#497b5a"/>
<text x="702.9" y="248.0" text-anchor="middle" font-family="Arial" font-size="11">5654.0</text>
<text x="702.9" y="354" transform="rotate(35 702.9 354)" font-family="Arial" font-size="10">flash_benchmark.csv:eager</text>
</svg>