<svg xmlns="http://www.w3.org/2000/svg" width="1000" height="620" viewBox="0 0 1000 620">
<rect width="100%" height="100%" fill="white"/>
<text x="500.0" y="34" text-anchor="middle" font-family="sans-serif" font-size="22" font-weight="bold">TinyStories architecture ablations</text>
<line x1="90.0" y1="65" x2="90.0" y2="545" stroke="#e5e7eb"/>
<line x1="90" y1="65.0" x2="970" y2="65.0" stroke="#e5e7eb"/>
<text x="90.0" y="569" text-anchor="middle" font-family="sans-serif" font-size="12">100</text>
<text x="78" y="69.0" text-anchor="end" font-family="sans-serif" font-size="12">7.062</text>
<line x1="266.0" y1="65" x2="266.0" y2="545" stroke="#e5e7eb"/>
<line x1="90" y1="161.0" x2="970" y2="161.0" stroke="#e5e7eb"/>
<text x="266.0" y="569" text-anchor="middle" font-family="sans-serif" font-size="12">2.08e+03</text>
<text x="78" y="165.0" text-anchor="end" font-family="sans-serif" font-size="12">5.868</text>
<line x1="442.0" y1="65" x2="442.0" y2="545" stroke="#e5e7eb"/>
<line x1="90" y1="257.0" x2="970" y2="257.0" stroke="#e5e7eb"/>
<text x="442.0" y="569" text-anchor="middle" font-family="sans-serif" font-size="12">4.06e+03</text>
<text x="78" y="261.0" text-anchor="end" font-family="sans-serif" font-size="12">4.674</text>
<line x1="618.0" y1="65" x2="618.0" y2="545" stroke="#e5e7eb"/>
<line x1="90" y1="353.0" x2="970" y2="353.0" stroke="#e5e7eb"/>
<text x="618.0" y="569" text-anchor="middle" font-family="sans-serif" font-size="12">6.04e+03</text>
<text x="78" y="357.0" text-anchor="end" font-family="sans-serif" font-size="12">3.481</text>
<line x1="794.0" y1="65" x2="794.0" y2="545" stroke="#e5e7eb"/>
<line x1="90" y1="449.0" x2="970" y2="449.0" stroke="#e5e7eb"/>
<text x="794.0" y="569" text-anchor="middle" font-family="sans-serif" font-size="12">8.02e+03</text>
<text x="78" y="453.0" text-anchor="end" font-family="sans-serif" font-size="12">2.287</text>
<line x1="970.0" y1="65" x2="970.0" y2="545" stroke="#e5e7eb"/>
<line x1="90" y1="545.0" x2="970" y2="545.0" stroke="#e5e7eb"/>
<text x="970.0" y="569" text-anchor="middle" font-family="sans-serif" font-size="12">1e+04</text>
<text x="78" y="549.0" text-anchor="end" font-family="sans-serif" font-size="12">1.093</text>
<line x1="90" y1="545" x2="970" y2="545" stroke="black"/>
<line x1="90" y1="65" x2="90" y2="545" stroke="black"/>
<text x="530.0" y="600" text-anchor="middle" font-family="sans-serif" font-size="15">Training step</text>
<text x="22" y="305.0" text-anchor="middle" transform="rotate(-90 22 305.0)" font-family="sans-serif" font-size="15">Validation loss</text>
<polyline points="90.00,98.10 98.89,300.52 107.78,362.18 116.67,392.66 125.56,411.19 134.44,424.85 143.33,433.97 152.22,442.28 161.11,448.87 170.00,454.05 178.89,457.66 187.78,463.08 196.67,466.78 205.56,469.62 214.44,472.61 223.33,475.34 232.22,475.98 241.11,478.92 250.00,480.16 258.89,482.69 267.78,483.50 276.67,484.93 285.56,486.01 294.44,486.74 303.33,488.73 312.22,488.66 321.11,489.84 330.00,490.83 338.89,492.21 347.78,491.97 356.67,494.24 365.56,493.87 374.44,493.08 383.33,495.68 392.22,495.39 401.11,496.03 410.00,497.55 418.89,497.07 427.78,497.75 436.67,498.47 445.56,499.20 454.44,499.12 463.33,499.84 472.22,501.23 481.11,500.46 490.00,500.87 498.89,501.79 507.78,502.57 516.67,502.13 525.56,501.83 534.44,502.55 543.33,503.57 552.22,502.87 561.11,503.37 570.00,504.27 578.89,503.92 587.78,504.46 596.67,504.43 605.56,504.27 614.44,505.51 623.33,505.93 632.22,505.07 641.11,505.98 650.00,506.60 658.89,506.13 667.78,506.78 676.67,505.99 685.56,506.68 694.44,507.25 703.33,507.55 712.22,509.03 721.11,507.94 730.00,507.32 738.89,507.71 747.78,509.54 756.67,507.09 765.56,508.42 774.44,509.30 783.33,509.14 792.22,508.65 801.11,510.74 810.00,509.38 818.89,508.90 827.78,509.01 836.67,509.94 845.56,509.50 854.44,510.17 863.33,510.65 872.22,510.21 881.11,510.30 890.00,510.59 898.89,510.21 907.78,509.21 916.67,510.56 925.56,509.60 934.44,510.72 943.33,511.90 952.22,511.08 961.11,510.46 970.00,510.27" fill="none" stroke="#2563eb" stroke-width="2"/>
<line x1="105" y1="62" x2="135" y2="62" stroke="#2563eb" stroke-width="3"/>
<text x="142" y="66" font-family="sans-serif" font-size="13">baseline</text>
<polyline points="90.00,186.29 98.89,326.29 107.78,368.49 116.67,394.59 125.56,411.31 134.44,424.27 143.33,432.70 152.22,440.98 161.11,447.21 170.00,451.69 178.89,455.01 187.78,460.09 196.67,463.47 205.56,466.23 214.44,469.03 223.33,471.70 232.22,472.12 241.11,475.06 250.00,476.28 258.89,478.95 267.78,479.58 276.67,480.97 285.56,481.90 294.44,482.82 303.33,484.98 312.22,484.76 321.11,485.81 330.00,487.07 338.89,488.31 347.78,487.99 356.67,490.42 365.56,489.71 374.44,489.37 383.33,491.66 392.22,491.48 401.11,492.27 410.00,493.87 418.89,493.22 427.78,494.05 436.67,494.77 445.56,495.51 454.44,495.50 463.33,496.27 472.22,497.62 481.11,497.02 490.00,497.62 498.89,498.25 507.78,499.20 516.67,498.86 525.56,498.63 534.44,499.49 543.33,500.39 552.22,499.68 561.11,500.21 570.00,501.08 578.89,501.03 587.78,501.48 596.67,501.25 605.56,501.26 614.44,502.71 623.33,503.14 632.22,502.30 641.11,503.01 650.00,503.96 658.89,503.41 667.78,504.18 676.67,503.29 685.56,504.14 694.44,504.80 703.33,505.02 712.22,506.66 721.11,505.45 730.00,504.83 738.89,505.50 747.78,507.30 756.67,504.84 765.56,506.13 774.44,507.11 783.33,507.07 792.22,506.50 801.11,508.61 810.00,507.32 818.89,506.76 827.78,506.81 836.67,507.94 845.56,507.42 854.44,508.18 863.33,508.76 872.22,508.23 881.11,508.25 890.00,508.59 898.89,508.25 907.78,507.25 916.67,508.63 925.56,507.71 934.44,508.81 943.33,510.10 952.22,509.28 961.11,508.61 970.00,508.33" fill="none" stroke="#dc2626" stroke-width="2"/>
<line x1="105" y1="84" x2="135" y2="84" stroke="#dc2626" stroke-width="3"/>
<text x="142" y="88" font-family="sans-serif" font-size="13">no_rmsnorm</text>
<polyline points="90.00,101.76 98.89,302.70 107.78,362.84 116.67,393.27 125.56,411.38 134.44,425.32 143.33,434.42 152.22,442.48 161.11,448.55 170.00,453.85 178.89,457.23 187.78,462.60 196.67,465.99 205.56,469.18 214.44,472.18 223.33,475.03 232.22,475.52 241.11,478.76 250.00,479.94 258.89,482.69 267.78,483.28 276.67,484.73 285.56,485.83 294.44,486.65 303.33,488.68 312.22,488.44 321.11,489.59 330.00,490.81 338.89,492.10 347.78,491.71 356.67,494.20 365.56,493.72 374.44,493.06 383.33,495.51 392.22,495.25 401.11,495.80 410.00,497.56 418.89,496.78 427.78,497.51 436.67,498.11 445.56,499.09 454.44,498.89 463.33,499.72 472.22,501.09 481.11,500.35 490.00,500.83 498.89,501.61 507.78,502.45 516.67,501.96 525.56,501.55 534.44,502.47 543.33,503.37 552.22,502.71 561.11,503.21 570.00,504.08 578.89,503.75 587.78,504.41 596.67,504.25 605.56,504.07 614.44,505.40 623.33,505.80 632.22,504.98 641.11,505.69 650.00,506.37 658.89,505.92 667.78,506.77 676.67,505.77 685.56,506.56 694.44,507.08 703.33,507.41 712.22,508.96 721.11,507.76 730.00,507.09 738.89,507.59 747.78,509.45 756.67,506.96 765.56,508.22 774.44,509.25 783.33,509.03 792.22,508.60 801.11,510.72 810.00,509.24 818.89,508.65 827.78,508.87 836.67,509.88 845.56,509.30 854.44,510.04 863.33,510.51 872.22,510.08 881.11,510.11 890.00,510.38 898.89,510.02 907.78,509.18 916.67,510.40 925.56,509.47 934.44,510.50 943.33,511.70 952.22,510.98 961.11,510.31 970.00,510.09" fill="none" stroke="#16a34a" stroke-width="2"/>
<line x1="105" y1="106" x2="135" y2="106" stroke="#16a34a" stroke-width="3"/>
<text x="142" y="110" font-family="sans-serif" font-size="13">postnorm</text>
<polyline points="90.00,99.07 98.89,291.41 107.78,336.06 116.67,358.46 125.56,376.21 134.44,393.52 143.33,407.04 152.22,416.80 161.11,427.02 170.00,433.17 178.89,438.29 187.78,444.26 196.67,448.77 205.56,452.20 214.44,456.61 223.33,460.23 232.22,461.07 241.11,464.58 250.00,466.28 258.89,469.49 267.78,470.58 276.67,472.53 285.56,473.53 294.44,474.84 303.33,476.78 312.22,477.08 321.11,478.40 330.00,479.82 338.89,481.24 347.78,481.07 356.67,483.75 365.56,483.26 374.44,482.89 383.33,485.55 392.22,485.36 401.11,485.98 410.00,487.74 418.89,487.00 427.78,487.82 436.67,488.67 445.56,489.56 454.44,489.58 463.33,490.35 472.22,491.73 481.11,491.19 490.00,491.65 498.89,492.49 507.78,493.34 516.67,493.22 525.56,492.92 534.44,493.69 543.33,494.61 552.22,494.08 561.11,494.51 570.00,495.58 578.89,495.24 587.78,495.84 596.67,495.78 605.56,495.75 614.44,497.10 623.33,497.31 632.22,496.58 641.11,497.57 650.00,498.27 658.89,497.83 667.78,498.53 676.67,497.78 685.56,498.51 694.44,499.06 703.33,499.54 712.22,501.07 721.11,499.67 730.00,499.26 738.89,499.65 747.78,501.63 756.67,498.99 765.56,500.40 774.44,501.48 783.33,501.36 792.22,500.81 801.11,502.92 810.00,501.53 818.89,500.89 827.78,501.20 836.67,502.08 845.56,501.68 854.44,502.45 863.33,502.92 872.22,502.27 881.11,502.41 890.00,502.85 898.89,502.38 907.78,501.38 916.67,502.96 925.56,501.88 934.44,502.94 943.33,504.18 952.22,503.34 961.11,502.83 970.00,502.65" fill="none" stroke="#9333ea" stroke-width="2"/>
<line x1="105" y1="128" x2="135" y2="128" stroke="#9333ea" stroke-width="3"/>
<text x="142" y="132" font-family="sans-serif" font-size="13">nope</text>
<polyline points="90.00,100.91 98.89,293.14 107.78,354.99 116.67,385.53 125.56,402.49 134.44,415.96 143.33,425.28 152.22,432.20 161.11,440.21 170.00,443.97 178.89,448.51 187.78,452.73 196.67,456.02 205.56,460.48 214.44,462.32 223.33,463.15 232.22,466.75 241.11,469.71 250.00,470.78 258.89,472.17 267.78,474.55 276.67,475.78 285.56,476.97 294.44,477.99 303.33,480.30 312.22,480.54 321.11,480.47 330.00,483.09 338.89,482.62 347.78,483.05 356.67,486.01 365.56,485.97 374.44,486.99 383.33,487.68 392.22,488.24 401.11,488.96 410.00,489.03 418.89,488.67 427.78,489.76 436.67,490.93 445.56,490.71 454.44,490.99 463.33,492.06 472.22,492.03 481.11,492.85 490.00,492.91 498.89,493.15 507.78,493.34 516.67,494.09 525.56,494.34 534.44,494.93 543.33,495.75 552.22,495.25 561.11,496.30 570.00,496.37 578.89,496.01 587.78,495.91 596.67,497.40 605.56,496.93 614.44,497.25 623.33,497.55 632.22,498.17 641.11,498.56 650.00,498.38 658.89,499.51 667.78,499.07 676.67,498.70 685.56,500.26 694.44,499.86 703.33,499.17 712.22,499.41 721.11,500.49 730.00,499.85 738.89,500.00 747.78,500.58 756.67,500.83 765.56,500.72 774.44,500.39 783.33,501.56 792.22,501.10 801.11,500.55 810.00,501.89 818.89,501.12 827.78,500.59 836.67,502.04 845.56,501.90 854.44,502.25 863.33,501.94 872.22,501.60 881.11,501.36 890.00,501.40 898.89,502.37 907.78,502.28 916.67,502.36 925.56,502.98 934.44,502.09 943.33,501.68 952.22,502.37 961.11,503.27 970.00,502.91" fill="none" stroke="#ea580c" stroke-width="2"/>
<line x1="105" y1="150" x2="135" y2="150" stroke="#ea580c" stroke-width="3"/>
<text x="142" y="154" font-family="sans-serif" font-size="13">silu</text>
</svg>
