<svg xmlns="http://www.w3.org/2000/svg" width="900" height="560" viewBox="0 0 900 560">
<rect width="100%" height="100%" fill="white"/>
<text x="450.0" y="34" text-anchor="middle" font-family="sans-serif" font-size="22" font-weight="bold">TinyStories batch-size throughput</text>
<line x1="90" y1="480.0" x2="870" y2="480.0" stroke="#e5e7eb"/>
<text x="80" y="484.0" text-anchor="end" font-family="sans-serif" font-size="12">0</text>
<line x1="90" y1="397.0" x2="870" y2="397.0" stroke="#e5e7eb"/>
<text x="80" y="401.0" text-anchor="end" font-family="sans-serif" font-size="12">80,894</text>
<line x1="90" y1="314.0" x2="870" y2="314.0" stroke="#e5e7eb"/>
<text x="80" y="318.0" text-anchor="end" font-family="sans-serif" font-size="12">161,788</text>
<line x1="90" y1="231.0" x2="870" y2="231.0" stroke="#e5e7eb"/>
<text x="80" y="235.0" text-anchor="end" font-family="sans-serif" font-size="12">242,682</text>
<line x1="90" y1="148.0" x2="870" y2="148.0" stroke="#e5e7eb"/>
<text x="80" y="152.0" text-anchor="end" font-family="sans-serif" font-size="12">323,576</text>
<line x1="90" y1="65.0" x2="870" y2="65.0" stroke="#e5e7eb"/>
<text x="80" y="69.0" text-anchor="end" font-family="sans-serif" font-size="12">404,471</text>
<rect x="119.6" y="468.0" width="96.7" height="12.0" fill="#2563eb"/>
<text x="168.0" y="460.0" text-anchor="middle" font-family="sans-serif" font-size="12">11,689</text>
<text x="168.0" y="504" text-anchor="middle" font-family="sans-serif" font-size="13">1</text>
<rect x="275.6" y="180.1" width="96.7" height="299.9" fill="#2563eb"/>
<text x="324.0" y="172.1" text-anchor="middle" font-family="sans-serif" font-size="12">292,246</text>
<text x="324.0" y="504" text-anchor="middle" font-family="sans-serif" font-size="13">64</text>
<rect x="431.6" y="176.9" width="96.7" height="303.1" fill="#2563eb"/>
<text x="480.0" y="168.9" text-anchor="middle" font-family="sans-serif" font-size="12">295,366</text>
<text x="480.0" y="504" text-anchor="middle" font-family="sans-serif" font-size="13">128</text>
<rect x="587.6" y="122.9" width="96.7" height="357.1" fill="#2563eb"/>
<text x="636.0" y="114.9" text-anchor="middle" font-family="sans-serif" font-size="12">348,020</text>
<text x="636.0" y="504" text-anchor="middle" font-family="sans-serif" font-size="13">256</text>
<rect x="743.6" y="109.5" width="96.7" height="370.5" fill="#2563eb"/>
<text x="792.0" y="101.5" text-anchor="middle" font-family="sans-serif" font-size="12">361,134</text>
<text x="792.0" y="504" text-anchor="middle" font-family="sans-serif" font-size="13">512</text>
<line x1="90" y1="480" x2="870" y2="480" stroke="black"/>
<text x="480.0" y="538" text-anchor="middle" font-family="sans-serif" font-size="15">Batch size</text>
<text x="22" y="272.5" text-anchor="middle" transform="rotate(-90 22 272.5)" font-family="sans-serif" font-size="15">Tokens / second</text>
</svg>
