<svg xmlns="http://www.w3.org/2000/svg" width="1000" height="620" viewBox="0 0 1000 620">
<rect width="100%" height="100%" fill="white"/>
<text x="500.0" y="34" text-anchor="middle" font-family="sans-serif" font-size="22" font-weight="bold">TinyStories learning-rate sweep</text>
<line x1="90.0" y1="65" x2="90.0" y2="545" stroke="#e5e7eb"/>
<line x1="90" y1="65.0" x2="970" y2="65.0" stroke="#e5e7eb"/>
<text x="90.0" y="569" text-anchor="middle" font-family="sans-serif" font-size="12">100</text>
<text x="78" y="69.0" text-anchor="end" font-family="sans-serif" font-size="12">6.044</text>
<line x1="266.0" y1="65" x2="266.0" y2="545" stroke="#e5e7eb"/>
<line x1="90" y1="161.0" x2="970" y2="161.0" stroke="#e5e7eb"/>
<text x="266.0" y="569" text-anchor="middle" font-family="sans-serif" font-size="12">2.08e+03</text>
<text x="78" y="165.0" text-anchor="end" font-family="sans-serif" font-size="12">5.039</text>
<line x1="442.0" y1="65" x2="442.0" y2="545" stroke="#e5e7eb"/>
<line x1="90" y1="257.0" x2="970" y2="257.0" stroke="#e5e7eb"/>
<text x="442.0" y="569" text-anchor="middle" font-family="sans-serif" font-size="12">4.06e+03</text>
<text x="78" y="261.0" text-anchor="end" font-family="sans-serif" font-size="12">4.035</text>
<line x1="618.0" y1="65" x2="618.0" y2="545" stroke="#e5e7eb"/>
<line x1="90" y1="353.0" x2="970" y2="353.0" stroke="#e5e7eb"/>
<text x="618.0" y="569" text-anchor="middle" font-family="sans-serif" font-size="12">6.04e+03</text>
<text x="78" y="357.0" text-anchor="end" font-family="sans-serif" font-size="12">3.030</text>
<line x1="794.0" y1="65" x2="794.0" y2="545" stroke="#e5e7eb"/>
<line x1="90" y1="449.0" x2="970" y2="449.0" stroke="#e5e7eb"/>
<text x="794.0" y="569" text-anchor="middle" font-family="sans-serif" font-size="12">8.02e+03</text>
<text x="78" y="453.0" text-anchor="end" font-family="sans-serif" font-size="12">2.025</text>
<line x1="970.0" y1="65" x2="970.0" y2="545" stroke="#e5e7eb"/>
<line x1="90" y1="545.0" x2="970" y2="545.0" stroke="#e5e7eb"/>
<text x="970.0" y="569" text-anchor="middle" font-family="sans-serif" font-size="12">1e+04</text>
<text x="78" y="549.0" text-anchor="end" font-family="sans-serif" font-size="12">1.021</text>
<line x1="90" y1="545" x2="970" y2="545" stroke="black"/>
<line x1="90" y1="65" x2="90" y2="545" stroke="black"/>
<text x="530.0" y="600" text-anchor="middle" font-family="sans-serif" font-size="15">Training step</text>
<text x="22" y="305.0" text-anchor="middle" transform="rotate(-90 22 305.0)" font-family="sans-serif" font-size="15">Validation loss</text>
<polyline points="90.00,353.06 98.89,384.15 107.78,389.41 116.67,390.74 125.56,391.57 134.44,386.50 143.33,393.10 152.22,399.61 161.11,403.80 170.00,406.46 178.89,407.51 187.78,413.87 196.67,417.49 205.56,420.43 214.44,423.53 223.33,427.44 232.22,430.17 241.11,435.23 250.00,438.53 258.89,443.69 267.78,446.91 276.67,451.33 285.56,453.96 294.44,457.64 303.33,461.45 312.22,463.58 321.11,465.58 330.00,468.10 338.89,470.50 347.78,470.79 356.67,473.59 365.56,473.03 374.44,473.32 383.33,476.36 392.22,476.40 401.11,477.30 410.00,479.38 418.89,478.77 427.78,480.14 436.67,481.18 445.56,481.95 454.44,481.98 463.33,483.37 472.22,484.80 481.11,484.25 490.00,484.77 498.89,486.23 507.78,487.15 516.67,486.82 525.56,486.78 534.44,487.56 543.33,488.58 552.22,488.25 561.11,489.12 570.00,490.03 578.89,490.39 587.78,491.06 596.67,491.02 605.56,491.15 614.44,492.66 623.33,493.60 632.22,492.71 641.11,493.75 650.00,494.79 658.89,494.73 667.78,496.13 676.67,495.22 685.56,496.27 694.44,497.08 703.33,497.80 712.22,499.54 721.11,498.58 730.00,498.21 738.89,499.03 747.78,501.28 756.67,498.91 765.56,500.61 774.44,502.23 783.33,502.02 792.22,501.81 801.11,504.48 810.00,503.35 818.89,502.85 827.78,503.49 836.67,504.62 845.56,504.37 854.44,505.50 863.33,506.08 872.22,505.86 881.11,506.17 890.00,506.58 898.89,506.61 907.78,505.57 916.67,507.07 925.56,506.30 934.44,507.53 943.33,508.87 952.22,508.19 961.11,507.45 970.00,507.03" fill="none" stroke="#2563eb" stroke-width="2"/>
<line x1="105" y1="62" x2="135" y2="62" stroke="#2563eb" stroke-width="3"/>
<text x="142" y="66" font-family="sans-serif" font-size="13">1e-2</text>
<polyline points="90.00,327.28 98.89,397.15 107.78,420.41 116.67,435.98 125.56,445.92 134.44,453.52 143.33,457.55 152.22,462.30 161.11,465.96 170.00,468.13 178.89,469.25 187.78,472.91 196.67,474.50 205.56,475.87 214.44,477.74 223.33,479.41 232.22,478.90 241.11,481.66 250.00,481.99 258.89,484.46 267.78,484.69 276.67,485.55 285.56,486.32 294.44,486.73 303.33,488.57 312.22,488.19 321.11,489.02 330.00,490.08 338.89,491.31 347.78,490.66 356.67,492.97 365.56,492.23 374.44,491.51 383.33,493.84 392.22,493.48 401.11,494.00 410.00,495.53 418.89,495.08 427.78,495.53 436.67,496.25 445.56,497.01 454.44,496.77 463.33,497.83 472.22,498.90 481.11,498.21 490.00,498.72 498.89,499.84 507.78,500.43 516.67,500.04 525.56,499.60 534.44,500.30 543.33,501.54 552.22,500.75 561.11,501.24 570.00,502.22 578.89,501.97 587.78,502.51 596.67,502.26 605.56,502.24 614.44,503.70 623.33,504.44 632.22,503.28 641.11,504.32 650.00,504.98 658.89,504.52 667.78,505.41 676.67,504.43 685.56,505.33 694.44,505.79 703.33,506.37 712.22,507.95 721.11,506.87 730.00,506.00 738.89,506.56 747.78,508.73 756.67,506.14 765.56,507.53 774.44,508.74 783.33,508.31 792.22,507.92 801.11,510.28 810.00,508.92 818.89,508.27 827.78,508.40 836.67,509.61 845.56,509.06 854.44,509.87 863.33,510.33 872.22,509.85 881.11,510.10 890.00,510.32 898.89,510.13 907.78,508.99 916.67,510.43 925.56,509.41 934.44,510.73 943.33,511.90 952.22,511.17 961.11,510.31 970.00,510.07" fill="none" stroke="#dc2626" stroke-width="2"/>
<line x1="105" y1="84" x2="135" y2="84" stroke="#dc2626" stroke-width="3"/>
<text x="142" y="88" font-family="sans-serif" font-size="13">1e-3</text>
<polyline points="90.00,98.10 98.89,270.97 107.78,316.83 116.67,341.84 125.56,357.72 134.44,370.64 143.33,377.73 152.22,386.03 161.11,392.38 170.00,397.20 178.89,400.44 187.78,405.78 196.67,409.12 205.56,412.43 214.44,415.96 223.33,419.00 232.22,419.93 241.11,423.58 250.00,425.32 258.89,429.12 267.78,430.46 276.67,433.05 285.56,434.28 294.44,435.89 303.33,438.68 312.22,439.24 321.11,440.51 330.00,442.86 338.89,444.68 347.78,444.57 356.67,448.14 365.56,447.52 374.44,447.41 383.33,450.47 392.22,450.19 401.11,451.35 410.00,453.52 418.89,452.60 427.78,454.01 436.67,454.90 445.56,456.38 454.44,456.10 463.33,457.18 472.22,459.06 481.11,458.26 490.00,458.76 498.89,459.79 507.78,461.07 516.67,460.34 525.56,460.04 534.44,461.03 543.33,462.50 552.22,461.66 561.11,462.21 570.00,463.44 578.89,463.13 587.78,463.75 596.67,463.82 605.56,463.62 614.44,465.25 623.33,465.69 632.22,464.73 641.11,465.63 650.00,466.49 658.89,465.84 667.78,466.88 676.67,465.77 685.56,466.69 694.44,467.53 703.33,468.01 712.22,469.67 721.11,468.03 730.00,467.55 738.89,467.76 747.78,470.36 756.67,467.10 765.56,468.63 774.44,469.86 783.33,469.87 792.22,468.95 801.11,471.82 810.00,469.66 818.89,469.02 827.78,469.57 836.67,470.49 845.56,470.05 854.44,470.90 863.33,471.52 872.22,470.75 881.11,470.87 890.00,471.23 898.89,470.70 907.78,469.49 916.67,471.26 925.56,470.14 934.44,471.34 943.33,472.92 952.22,471.77 961.11,471.23 970.00,470.96" fill="none" stroke="#16a34a" stroke-width="2"/>
<line x1="105" y1="106" x2="135" y2="106" stroke="#16a34a" stroke-width="3"/>
<text x="142" y="110" font-family="sans-serif" font-size="13">1e-4</text>
<polyline points="90.00,363.37 98.89,416.77 107.78,434.79 116.67,444.92 125.56,452.73 134.44,457.78 143.33,461.82 152.22,466.62 161.11,467.86 170.00,470.56 178.89,472.52 187.78,474.15 196.67,475.84 205.56,477.28 214.44,478.99 223.33,482.06 232.22,481.77 241.11,482.61 250.00,483.37 258.89,484.51 267.78,484.43 276.67,484.40 285.56,487.22 294.44,486.69 303.33,487.69 312.22,488.94 321.11,489.13 330.00,490.43 338.89,490.77 347.78,490.95 356.67,490.34 365.56,490.99 374.44,491.18 383.33,492.32 392.22,492.89 401.11,493.55 410.00,493.38 418.89,494.05 427.78,493.94 436.67,494.49 445.56,493.37 454.44,495.41 463.33,495.95 472.22,495.95 481.11,496.32 490.00,496.00 498.89,496.03 507.78,496.45 516.67,497.64 525.56,499.06 534.44,497.54 543.33,497.79 552.22,498.18 561.11,498.35 570.00,499.34 578.89,500.45 587.78,500.29 596.67,500.50 605.56,500.19 614.44,501.15 623.33,501.02 632.22,501.18 641.11,501.33 650.00,502.77 658.89,502.65 667.78,502.15 676.67,503.96 685.56,503.11 694.44,503.53 703.33,503.15 712.22,503.23 721.11,503.58 730.00,503.10 738.89,503.91 747.78,505.09 756.67,503.42 765.56,505.04 774.44,505.86 783.33,505.00 792.22,505.05 801.11,505.27 810.00,505.31 818.89,505.64 827.78,505.58 836.67,505.84 845.56,505.40 854.44,505.23 863.33,507.39 872.22,507.00 881.11,507.11 890.00,506.50 898.89,507.52 907.78,506.93 916.67,506.70 925.56,506.46 934.44,505.84 943.33,506.39 952.22,506.84 961.11,506.85 970.00,507.69" fill="none" stroke="#9333ea" stroke-width="2"/>
<line x1="105" y1="128" x2="135" y2="128" stroke="#9333ea" stroke-width="3"/>
<text x="142" y="132" font-family="sans-serif" font-size="13">3e-3</text>
<polyline points="90.00,252.57 98.89,346.58 107.78,377.89 116.67,395.91 125.56,407.94 134.44,415.75 143.33,423.18 152.22,430.71 161.11,435.91 170.00,442.07 178.89,445.37 187.78,447.84 196.67,452.09 205.56,455.58 214.44,458.75 223.33,458.97 232.22,461.34 241.11,463.15 250.00,466.02 258.89,467.30 267.78,467.63 276.67,468.95 285.56,470.98 294.44,472.44 303.33,472.53 312.22,474.09 321.11,475.03 330.00,474.72 338.89,476.86 347.78,477.69 356.67,477.94 365.56,479.26 374.44,479.32 383.33,479.93 392.22,479.93 401.11,479.48 410.00,481.15 418.89,482.02 427.78,482.08 436.67,483.77 445.56,484.07 454.44,483.77 463.33,484.08 472.22,485.69 481.11,484.78 490.00,486.57 498.89,486.83 507.78,488.03 516.67,486.98 525.56,487.18 534.44,487.31 543.33,488.35 552.22,488.52 561.11,490.89 570.00,489.22 578.89,490.16 587.78,490.29 596.67,490.62 605.56,490.84 614.44,490.90 623.33,491.12 632.22,490.14 641.11,490.62 650.00,492.48 658.89,492.51 667.78,492.93 676.67,492.40 685.56,492.95 694.44,492.39 703.33,493.53 712.22,493.30 721.11,494.30 730.00,493.58 738.89,493.67 747.78,493.36 756.67,494.61 765.56,493.79 774.44,494.63 783.33,495.35 792.22,496.05 801.11,496.12 810.00,495.34 818.89,494.46 827.78,495.02 836.67,494.90 845.56,495.95 854.44,495.89 863.33,496.29 872.22,496.50 881.11,495.88 890.00,496.88 898.89,496.29 907.78,496.35 916.67,496.48 925.56,496.91 934.44,496.57 943.33,496.73 952.22,498.17 961.11,496.92 970.00,497.32" fill="none" stroke="#ea580c" stroke-width="2"/>
<line x1="105" y1="150" x2="135" y2="150" stroke="#ea580c" stroke-width="3"/>
<text x="142" y="154" font-family="sans-serif" font-size="13">3e-4</text>
</svg>
