<svg xmlns="http://www.w3.org/2000/svg" width="1000" height="620" viewBox="0 0 1000 620">
<rect width="100%" height="100%" fill="white"/>
<text x="500.0" y="34" text-anchor="middle" font-family="sans-serif" font-size="22" font-weight="bold">TinyStories tuned run by wall-clock time</text>
<line x1="90.0" y1="65" x2="90.0" y2="545" stroke="#e5e7eb"/>
<line x1="90" y1="65.0" x2="970" y2="65.0" stroke="#e5e7eb"/>
<text x="90.0" y="569" text-anchor="middle" font-family="sans-serif" font-size="12">0.597</text>
<text x="78" y="69.0" text-anchor="end" font-family="sans-serif" font-size="12">9.890</text>
<line x1="266.0" y1="65" x2="266.0" y2="545" stroke="#e5e7eb"/>
<line x1="90" y1="161.0" x2="970" y2="161.0" stroke="#e5e7eb"/>
<text x="266.0" y="569" text-anchor="middle" font-family="sans-serif" font-size="12">436</text>
<text x="78" y="165.0" text-anchor="end" font-family="sans-serif" font-size="12">8.049</text>
<line x1="442.0" y1="65" x2="442.0" y2="545" stroke="#e5e7eb"/>
<line x1="90" y1="257.0" x2="970" y2="257.0" stroke="#e5e7eb"/>
<text x="442.0" y="569" text-anchor="middle" font-family="sans-serif" font-size="12">871</text>
<text x="78" y="261.0" text-anchor="end" font-family="sans-serif" font-size="12">6.208</text>
<line x1="618.0" y1="65" x2="618.0" y2="545" stroke="#e5e7eb"/>
<line x1="90" y1="353.0" x2="970" y2="353.0" stroke="#e5e7eb"/>
<text x="618.0" y="569" text-anchor="middle" font-family="sans-serif" font-size="12">1.31e+03</text>
<text x="78" y="357.0" text-anchor="end" font-family="sans-serif" font-size="12">4.366</text>
<line x1="794.0" y1="65" x2="794.0" y2="545" stroke="#e5e7eb"/>
<line x1="90" y1="449.0" x2="970" y2="449.0" stroke="#e5e7eb"/>
<text x="794.0" y="569" text-anchor="middle" font-family="sans-serif" font-size="12">1.74e+03</text>
<text x="78" y="453.0" text-anchor="end" font-family="sans-serif" font-size="12">2.525</text>
<line x1="970.0" y1="65" x2="970.0" y2="545" stroke="#e5e7eb"/>
<line x1="90" y1="545.0" x2="970" y2="545.0" stroke="#e5e7eb"/>
<text x="970.0" y="569" text-anchor="middle" font-family="sans-serif" font-size="12">2.18e+03</text>
<text x="78" y="549.0" text-anchor="end" font-family="sans-serif" font-size="12">0.684</text>
<line x1="90" y1="545" x2="970" y2="545" stroke="black"/>
<line x1="90" y1="65" x2="90" y2="545" stroke="black"/>
<text x="530.0" y="600" text-anchor="middle" font-family="sans-serif" font-size="15">Wall-clock seconds</text>
<text x="22" y="305.0" text-anchor="middle" transform="rotate(-90 22 305.0)" font-family="sans-serif" font-size="15">Cross-entropy loss</text>
<polyline points="90.00,98.10 90.75,120.76 91.59,180.41 92.42,248.25 93.26,307.49 94.09,342.73 94.93,367.78 95.76,381.32 96.60,390.10 97.44,399.44 98.78,407.69 99.61,414.48 100.45,422.67 101.28,426.00 102.12,427.44 102.95,432.58 103.79,434.48 104.62,440.67 105.46,444.07 106.30,443.17 107.64,448.14 108.47,447.35 109.31,450.16 110.14,446.94 110.98,452.57 111.82,452.96 112.65,456.80 113.48,456.77 114.32,456.60 115.16,459.99 116.50,457.42 117.33,458.01 118.17,462.94 119.01,463.20 119.84,462.00 120.68,462.57 121.51,466.00 122.34,467.83 123.09,466.58 123.93,470.99 125.27,471.39 126.11,469.53 126.94,468.12 127.78,472.68 128.61,474.54 129.45,470.32 130.28,470.68 131.12,470.58 131.95,470.92 132.79,472.95 134.13,472.25 134.97,473.71 135.80,474.99 136.64,475.90 137.47,475.64 138.31,474.82 139.14,477.70 139.98,476.57 140.82,475.50 141.65,476.50 142.99,478.52 143.83,478.97 144.66,477.14 145.50,475.69 146.33,479.05 147.17,478.45 148.00,478.08 148.84,483.01 149.68,482.45 150.51,480.14 151.85,480.63 152.69,479.70 153.52,481.21 154.36,480.61 155.19,480.48 156.03,481.15 156.86,483.10 157.70,480.72 158.53,481.59 159.37,481.59 160.71,481.11 161.55,480.57 162.38,482.67 163.22,482.55 164.05,482.67 164.89,483.48 165.72,481.25 166.56,484.01 167.31,483.09 168.14,486.20 169.49,486.68 170.32,486.70 171.16,482.68 171.99,484.09 172.83,483.25 173.66,486.82 174.50,484.17 175.34,488.02 176.17,485.64 177.01,486.33 178.35,485.62 179.26,483.72 180.09,487.44 180.93,482.80 181.76,485.33 182.60,488.14 183.43,484.57 184.27,486.79 185.10,484.78 185.94,486.22 187.28,485.48 188.12,487.08 188.95,485.61 189.79,487.61 190.62,484.42 191.46,488.77 192.29,488.13 193.13,487.20 193.97,485.00 194.80,490.53 196.14,486.12 196.98,487.19 197.81,487.62 198.65,488.22 199.49,487.65 200.32,489.55 201.16,487.86 201.99,489.80 202.83,488.37 203.66,490.12 205.00,489.91 205.84,489.40 206.67,490.94 207.51,490.06 208.34,487.56 209.18,489.09 210.01,489.79 210.85,488.06 211.60,489.85 212.44,492.79 213.78,488.88 214.61,487.70 215.45,491.15 216.29,489.69 217.12,491.85 217.96,491.72 218.79,492.59 219.62,488.22 220.46,494.47 221.30,490.68 222.64,488.29 223.47,488.96 224.31,490.39 225.15,489.13 225.98,488.09 226.82,489.65 227.65,488.03 228.49,490.34 229.32,493.24 230.16,486.56 231.50,490.35 232.34,493.47 233.17,491.13 234.01,494.20 234.84,493.05 235.68,489.16 236.51,488.08 237.35,490.30 238.18,493.89 239.02,487.99 240.36,492.46 241.20,491.43 242.03,491.99 242.87,492.45 243.70,492.34 244.54,489.86 245.37,491.41 246.21,492.29 247.04,493.04 247.87,491.10 249.22,492.83 250.05,492.16 250.89,492.76 251.72,490.90 252.56,491.08 253.39,493.48 254.23,487.59 255.06,494.76 255.82,490.54 256.65,491.36 257.99,494.96 258.83,495.13 259.67,493.70 260.51,490.92 261.34,494.37 262.18,493.12 263.02,489.92 263.85,493.03 264.69,496.09 265.52,491.27 266.87,493.38 267.77,496.28 268.61,490.52 269.45,495.11 270.28,493.42 271.12,494.03 271.95,493.05 272.79,495.02 273.62,492.18 274.46,494.31 275.80,495.46 276.64,493.44 277.47,493.42 278.31,492.81 279.14,492.49 279.98,495.94 280.81,494.58 281.65,494.06 282.48,495.32 283.32,494.11 284.66,497.14 285.49,495.56 286.33,494.78 287.16,496.09 288.00,497.14 288.83,494.03 289.67,491.75 290.50,494.25 291.34,494.95 292.17,495.34 293.52,498.49 294.35,492.53 295.19,495.77 296.02,495.03 296.86,496.12 297.69,496.22 298.53,497.56 299.36,496.65 300.12,493.71 300.95,495.07 302.30,495.75 303.13,495.24 303.97,494.06 304.80,495.19 305.64,495.44 306.47,496.20 307.31,494.86 308.14,499.12 308.98,495.13 309.81,495.09 311.16,497.71 311.99,496.99 312.83,500.34 313.66,494.13 314.50,496.60 315.33,496.79 316.17,492.88 317.00,498.47 317.84,495.37 318.67,497.40 320.02,494.47 320.85,494.46 321.69,495.65 322.52,495.94 323.36,496.85 324.19,497.06 325.03,493.85 325.86,496.76 326.70,497.95 327.53,497.36 328.88,495.24 329.71,496.27 330.55,497.12 331.38,498.08 332.22,496.61 333.05,498.47 333.89,498.13 334.73,495.99 335.56,493.98 336.40,497.19 337.74,497.25 338.58,498.42 339.41,499.82 340.25,495.90 341.08,499.81 341.92,495.73 342.76,498.62 343.59,494.93 344.35,498.54 345.18,499.55 346.53,497.18 347.36,497.93 348.20,497.63 349.03,500.90 349.87,498.18 350.70,497.06 351.54,497.48 352.37,498.25 353.21,499.08 354.04,498.40 355.39,498.15 356.30,499.33 357.13,499.01 357.96,501.45 358.80,495.73 359.64,496.05 360.47,496.57 361.31,497.92 362.14,500.19 362.98,497.58 364.32,493.97 365.16,498.21 365.99,499.48 366.83,498.47 367.66,495.30 368.50,500.95 369.33,497.47 370.17,500.14 371.00,498.17 371.84,498.76 373.19,499.34 374.02,498.84 374.86,500.45 375.69,500.99 376.53,499.53 377.36,500.65 378.20,498.19 379.03,498.61 379.87,500.57 380.70,496.42 382.05,499.62 382.89,498.48 383.72,499.50 384.56,501.18 385.39,498.56 386.23,498.75 387.06,499.23 387.90,501.40 388.65,498.83 389.48,500.47 390.83,498.82 391.66,498.90 392.50,500.94 393.33,498.91 394.17,499.59 395.00,500.85 395.84,499.31 396.67,498.97 397.50,501.25 398.34,499.74 399.69,500.23 400.52,500.92 401.36,498.79 402.19,499.25 403.03,497.03 403.86,500.77 404.70,499.37 405.53,499.21 406.37,500.44 407.20,501.47 408.55,499.13 409.38,499.37 410.22,500.89 411.05,502.07 411.89,500.21 412.72,501.11 413.56,499.10 414.39,501.48 415.23,500.08 416.06,502.79 417.41,498.19 418.24,502.65 419.08,500.99 419.91,500.73 420.75,499.00 421.58,503.65 422.42,501.64 423.25,500.88 424.09,499.89 424.93,503.26 426.27,499.71 427.10,498.06 427.94,501.28 428.77,502.73 429.61,501.07 430.44,500.41 431.28,500.34 432.11,504.06 432.94,502.18 433.70,501.33 435.05,503.54 435.88,500.81 436.72,499.96 437.55,501.61 438.38,501.22 439.22,502.39 440.05,500.12 440.89,500.15 441.73,503.07 442.56,500.09 443.91,501.35 444.81,501.28 445.65,499.84 446.48,501.21 447.32,497.85 448.15,501.81 448.99,499.30 449.82,501.44 450.66,500.09 451.49,501.77 452.84,502.54 453.67,499.53 454.51,502.86 455.34,499.37 456.18,499.38 457.01,502.06 457.85,502.07 458.68,502.10 459.52,499.36 460.35,501.12 461.70,501.41 462.53,505.43 463.37,501.27 464.20,500.15 465.04,503.29 465.87,503.24 466.71,501.79 467.54,500.44 468.38,503.78 469.21,502.14 470.56,499.67 471.39,504.53 472.23,501.19 473.06,500.19 473.90,503.50 474.73,499.94 475.57,503.16 476.40,500.08 477.23,505.28 477.99,500.52 479.34,500.05 480.17,502.79 481.01,499.75 481.84,502.87 482.68,499.69 483.51,502.37 484.35,501.93 485.18,500.82 486.02,500.88 486.85,500.88 488.20,503.71 489.03,503.87 489.87,500.43 490.70,500.32 491.53,501.72 492.37,501.58 493.20,501.91 494.04,501.09 494.87,502.71 495.71,504.65 497.05,499.91 497.89,502.67 498.72,502.81 499.56,499.69 500.39,502.23 501.23,503.21 502.06,503.32 502.90,499.76 503.74,501.23 504.57,503.44 505.91,505.18 506.75,502.97 507.58,502.88 508.42,501.14 509.25,500.05 510.09,502.30 510.92,502.44 511.76,504.43 512.60,500.88 513.43,503.60 514.78,500.80 515.61,501.56 516.45,504.20 517.28,501.89 518.11,500.72 518.95,503.30 519.79,504.96 520.62,503.26 521.46,504.02 522.21,500.80 523.55,503.91 524.39,503.09 525.22,501.58 526.06,505.88 526.89,506.45 527.73,506.19 528.56,502.67 529.40,504.11 530.23,505.17 531.07,505.47 532.41,503.71 533.32,503.44 534.16,502.51 534.99,503.77 535.83,505.19 536.66,502.22 537.50,504.01 538.33,503.70 539.17,500.41 540.00,503.18 541.35,502.02 542.18,504.38 543.02,500.81 543.85,503.04 544.69,504.35 545.52,501.59 546.36,503.11 547.19,503.76 548.03,503.11 548.86,500.47 550.21,504.82 551.04,502.34 551.88,504.25 552.71,505.91 553.52,503.82 554.58,502.96 555.51,503.27 556.38,503.61 557.23,504.36 558.03,504.09 559.37,504.29 560.21,502.72 561.04,503.23 561.87,503.54 562.71,503.29 563.54,505.00 564.37,503.09 565.20,501.91 566.04,503.89 566.79,502.42 568.13,505.02 568.97,506.46 569.80,502.29 570.64,502.60 571.47,503.80 572.30,503.88 573.13,504.20 573.97,504.93 574.80,506.66 575.64,499.74 576.98,505.98 577.81,503.49 578.65,503.74 579.48,504.23 580.32,504.95 581.15,506.50 581.99,503.98 582.83,504.24 583.66,503.23 584.49,504.92 585.84,504.65 586.67,503.47 587.51,504.27 588.34,504.95 589.17,505.22 590.01,504.53 590.84,504.33 591.67,502.19 592.51,505.99 593.35,504.16 594.69,503.80 595.52,504.87 596.36,505.82 597.19,502.84 598.02,506.33 598.86,506.10 599.69,505.16 600.53,504.88 601.36,505.28 602.20,505.15 603.54,504.83 604.37,506.42 605.21,506.98 606.04,502.54 606.88,507.33 607.71,504.92 608.54,503.98 609.38,503.34 610.22,507.60 610.96,505.39 612.28,503.45 613.11,506.72 613.95,505.06 614.78,502.76 615.61,504.56 616.45,506.38 617.28,500.73 618.12,506.59 618.95,502.18 619.79,504.55 621.13,507.15 622.04,504.50 622.87,504.11 623.75,506.08 624.58,502.06 625.42,505.35 626.25,504.16 627.09,506.44 627.92,504.10 628.75,507.37 630.10,502.99 630.93,504.92 631.77,506.54 632.60,506.06 633.44,505.11 634.27,505.61 635.10,505.72 635.94,504.55 636.77,507.78 637.61,504.61 638.95,505.54 639.79,505.81 640.62,506.06 641.46,506.13 642.29,504.92 643.13,504.61 643.96,505.72 644.79,504.06 645.63,507.44 646.46,504.44 647.81,505.73 648.64,506.77 649.48,506.41 650.31,506.03 651.15,506.73 651.98,504.52 652.81,507.03 653.65,508.21 654.48,504.05 655.23,504.22 656.58,505.05 657.41,502.37 658.24,507.12 659.08,505.24 659.91,505.06 660.75,503.15 661.58,505.64 662.42,505.82 663.25,507.92 664.09,507.15 665.43,506.15 666.26,507.64 667.09,505.88 667.93,506.15 668.77,506.46 669.60,504.79 670.43,506.55 671.27,505.81 672.10,507.74 672.94,505.84 674.28,505.72 675.12,504.08 675.95,504.96 676.79,503.36 677.62,504.60 678.46,508.77 679.29,506.91 680.13,505.79 680.96,504.64 681.80,506.26 683.14,504.95 683.98,505.23 684.81,505.08 685.65,504.95 686.48,507.25 687.32,507.83 688.15,505.05 688.99,505.13 689.82,506.14 690.66,507.54 692.00,506.37 692.83,506.49 693.67,506.60 694.50,504.69 695.34,505.81 696.17,507.88 697.01,505.32 697.84,507.55 698.68,503.73 699.48,508.19 700.77,504.82 701.61,507.07 702.44,506.49 703.28,505.95 704.11,506.65 704.95,507.71 705.78,506.17 706.62,505.92 707.45,508.12 708.29,506.74 709.63,505.61 710.54,509.68 711.37,506.22 712.20,506.50 713.04,508.00 713.88,508.20 714.71,507.24 715.54,506.74 716.38,509.17 717.21,505.25 718.56,504.87 719.39,507.60 720.23,504.99 721.06,505.77 721.90,506.91 722.73,505.19 723.57,508.82 724.40,505.40 725.24,510.23 726.07,505.39 727.42,507.71 728.25,506.69 729.09,505.10 729.92,506.27 730.76,508.13 731.59,503.81 732.43,510.17 733.26,509.26 734.10,510.11 734.93,507.26 736.28,508.34 737.11,505.61 737.95,507.62 738.78,508.29 739.62,505.15 740.45,507.96 741.28,506.94 742.12,507.47 742.96,508.54 743.77,508.07 745.05,508.31 745.89,509.07 746.72,505.82 747.56,507.84 748.39,506.18 749.23,506.35 750.06,506.16 750.89,508.04 751.73,507.98 752.56,505.65 753.91,506.06 754.74,504.48 755.58,507.34 756.41,509.65 757.25,508.55 758.08,508.80 758.92,504.99 759.75,503.70 760.59,507.39 761.42,506.58 762.77,507.61 763.60,504.60 764.44,507.55 765.27,506.01 766.11,506.47 766.94,506.90 767.78,508.40 768.61,505.74 769.45,507.35 770.28,506.69 771.62,505.88 772.46,509.55 773.30,507.93 774.13,508.11 774.97,508.32 775.80,507.83 776.64,507.45 777.47,506.12 778.31,508.47 779.14,507.26 780.48,507.10 781.32,506.04 782.15,508.45 782.99,509.82 783.83,506.90 784.66,507.06 785.49,506.80 786.33,507.50 787.16,506.57 788.00,509.03 789.26,508.17 790.09,508.96 790.93,508.28 791.76,505.51 792.60,508.61 793.43,509.25 794.27,510.77 795.10,511.90 795.94,508.73 796.77,508.51 798.11,507.67 799.02,508.89 799.86,507.64 800.69,510.33 801.53,507.73 802.36,507.34 803.20,508.62 804.03,508.34 804.87,509.88 805.70,505.99 807.05,509.68 807.88,509.96 808.72,507.83 809.55,506.19 810.39,508.94 811.22,509.28 812.03,506.20 812.81,506.94 813.57,509.79 814.28,509.18 815.52,506.78 816.20,504.66 817.02,509.79 817.85,509.89 818.61,506.46 819.41,509.92 820.23,506.49 820.93,509.81 821.76,508.51 822.55,510.68 823.86,510.20 824.68,509.78 825.50,506.10 826.32,507.10 827.10,510.12 827.92,505.79 828.73,508.09 829.55,509.77 830.38,508.61 831.19,508.78 832.48,509.75 833.30,508.40 834.00,507.60 834.80,506.36 835.62,509.50 836.44,510.22 837.26,507.25 838.07,506.12 838.89,507.42 839.71,506.65 840.99,506.06 841.79,508.25 842.62,508.77 843.45,508.06 844.26,508.98 845.08,509.19 845.89,506.31 846.71,506.85 847.52,508.61 848.33,507.88 849.65,507.82 850.44,510.87 851.25,507.27 852.09,505.49 852.92,507.65 853.74,510.31 854.54,508.31 855.36,507.78 856.19,510.97 857.00,508.87 858.32,507.06 859.15,507.87 859.97,508.81 860.79,509.34 861.61,507.20 862.44,509.57 863.24,510.85 864.06,508.99 864.89,508.91 865.71,510.33 867.03,507.79 867.85,507.06 868.66,509.96 869.49,511.57 870.31,510.69 871.13,509.34 871.96,506.90 872.79,507.11 873.62,508.92 874.44,508.08 875.77,509.45 876.58,507.15 877.39,508.12 878.22,508.21 878.96,507.85 879.78,508.84 880.61,509.08 881.43,510.00 882.26,506.85 883.09,509.25 884.40,507.89 885.30,509.09 885.97,510.33 886.80,507.56 887.63,509.02 888.46,508.06 889.28,506.36 890.05,508.97 890.85,508.93 891.67,508.41 893.00,508.61 893.83,510.70 894.66,507.77 895.48,506.19 896.31,505.86 897.15,508.68 897.97,509.12 898.80,509.85 899.63,507.42 900.46,508.04 901.79,505.81 902.62,509.63 903.45,506.86 904.28,510.87 905.11,510.07 905.94,508.43 906.76,505.75 907.59,507.51 908.42,508.79 909.25,509.66 910.58,506.78 911.40,505.99 912.22,509.46 913.04,509.49 913.88,507.42 914.71,508.51 915.53,508.77 916.36,509.21 917.19,509.03 918.01,508.70 919.34,511.28 920.17,510.87 920.97,509.02 921.80,507.90 922.63,509.50 923.46,509.74 924.21,508.26 925.04,508.12 925.86,507.56 926.69,507.49 928.02,508.62 928.85,509.90 929.68,508.04 930.52,508.47 931.35,511.10 932.19,510.86 933.02,510.16 933.85,508.22 934.68,507.31 935.51,509.17 936.85,509.86 937.67,509.97 938.50,509.18 939.33,507.92 940.16,508.37 940.98,510.56 941.82,510.23 942.64,509.75 943.47,507.52 944.30,511.75 945.64,507.35 946.47,508.86 947.30,510.50 948.13,507.96 948.96,510.85 949.79,507.69 950.63,510.26 951.46,510.69 952.29,508.93 953.13,506.18 954.46,510.25 955.28,510.76 956.11,508.30 956.93,511.25 957.76,507.03 958.59,507.26 959.43,509.04 960.26,508.00 961.09,508.18 961.92,505.91 963.25,510.23 964.09,511.75 964.92,508.76 965.75,509.18 966.58,508.18 967.41,509.54 968.20,508.16 968.59,511.09 968.98,508.05 969.36,508.49 970.00,511.24" fill="none" stroke="#2563eb" stroke-width="2"/>
<line x1="105" y1="62" x2="135" y2="62" stroke="#2563eb" stroke-width="3"/>
<text x="142" y="66" font-family="sans-serif" font-size="13">train loss</text>
<polyline points="98.78,408.65 107.64,446.76 116.50,459.46 125.27,467.95 134.13,473.37 142.99,477.52 151.85,479.72 160.71,482.31 169.49,484.31 178.35,485.49 187.28,486.10 196.14,488.10 205.00,488.97 213.78,489.72 222.64,490.74 231.50,491.64 240.36,491.37 249.22,492.88 257.99,493.05 266.87,494.40 275.80,494.53 284.66,494.99 293.52,495.41 302.30,495.64 311.16,496.64 320.02,496.44 328.88,496.89 337.74,497.47 346.53,498.14 355.39,497.78 364.32,499.04 373.19,498.64 382.05,498.25 390.83,499.52 399.69,499.32 408.55,499.61 417.41,500.44 426.27,500.19 435.05,500.44 443.91,500.84 452.84,501.25 461.70,501.12 470.56,501.70 479.34,502.28 488.20,501.90 497.05,502.18 505.91,502.79 514.78,503.11 523.55,502.90 532.41,502.66 541.35,503.04 550.21,503.72 559.37,503.29 568.13,503.55 576.98,504.09 585.84,503.95 594.69,504.25 603.54,504.11 612.28,504.10 621.13,504.90 630.10,505.30 638.95,504.67 647.81,505.23 656.58,505.60 665.43,505.34 674.28,505.83 683.14,505.30 692.00,505.79 700.77,506.04 709.63,506.35 718.56,507.21 727.42,506.63 736.28,506.16 745.05,506.46 753.91,507.64 762.77,506.23 771.62,506.99 780.48,507.65 789.26,507.41 798.11,507.20 807.05,508.49 815.52,507.74 823.86,507.39 832.48,507.46 840.99,508.12 849.65,507.82 858.32,508.26 867.03,508.52 875.77,508.25 884.40,508.39 893.00,508.51 901.79,508.41 910.58,507.78 919.34,508.57 928.02,508.01 936.85,508.73 945.64,509.37 954.46,508.97 963.25,508.50 970.00,508.37" fill="none" stroke="#dc2626" stroke-width="2"/>
<line x1="105" y1="84" x2="135" y2="84" stroke="#dc2626" stroke-width="3"/>
<text x="142" y="88" font-family="sans-serif" font-size="13">validation loss</text>
</svg>
