<svg xmlns="http://www.w3.org/2000/svg" width="1000" height="620" viewBox="0 0 1000 620">
<rect width="100%" height="100%" fill="white"/>
<text x="500.0" y="34" text-anchor="middle" font-family="sans-serif" font-size="22" font-weight="bold">TinyStories tuned run (LR=1e-3)</text>
<line x1="90.0" y1="65" x2="90.0" y2="545" stroke="#e5e7eb"/>
<line x1="90" y1="65.0" x2="970" y2="65.0" stroke="#e5e7eb"/>
<text x="90.0" y="569" text-anchor="middle" font-family="sans-serif" font-size="12">1</text>
<text x="78" y="69.0" text-anchor="end" font-family="sans-serif" font-size="12">9.890</text>
<line x1="266.0" y1="65" x2="266.0" y2="545" stroke="#e5e7eb"/>
<line x1="90" y1="161.0" x2="970" y2="161.0" stroke="#e5e7eb"/>
<text x="266.0" y="569" text-anchor="middle" font-family="sans-serif" font-size="12">2e+03</text>
<text x="78" y="165.0" text-anchor="end" font-family="sans-serif" font-size="12">8.049</text>
<line x1="442.0" y1="65" x2="442.0" y2="545" stroke="#e5e7eb"/>
<line x1="90" y1="257.0" x2="970" y2="257.0" stroke="#e5e7eb"/>
<text x="442.0" y="569" text-anchor="middle" font-family="sans-serif" font-size="12">4e+03</text>
<text x="78" y="261.0" text-anchor="end" font-family="sans-serif" font-size="12">6.208</text>
<line x1="618.0" y1="65" x2="618.0" y2="545" stroke="#e5e7eb"/>
<line x1="90" y1="353.0" x2="970" y2="353.0" stroke="#e5e7eb"/>
<text x="618.0" y="569" text-anchor="middle" font-family="sans-serif" font-size="12">6e+03</text>
<text x="78" y="357.0" text-anchor="end" font-family="sans-serif" font-size="12">4.366</text>
<line x1="794.0" y1="65" x2="794.0" y2="545" stroke="#e5e7eb"/>
<line x1="90" y1="449.0" x2="970" y2="449.0" stroke="#e5e7eb"/>
<text x="794.0" y="569" text-anchor="middle" font-family="sans-serif" font-size="12">8e+03</text>
<text x="78" y="453.0" text-anchor="end" font-family="sans-serif" font-size="12">2.525</text>
<line x1="970.0" y1="65" x2="970.0" y2="545" stroke="#e5e7eb"/>
<line x1="90" y1="545.0" x2="970" y2="545.0" stroke="#e5e7eb"/>
<text x="970.0" y="569" text-anchor="middle" font-family="sans-serif" font-size="12">1e+04</text>
<text x="78" y="549.0" text-anchor="end" font-family="sans-serif" font-size="12">0.684</text>
<line x1="90" y1="545" x2="970" y2="545" stroke="black"/>
<line x1="90" y1="65" x2="90" y2="545" stroke="black"/>
<text x="530.0" y="600" text-anchor="middle" font-family="sans-serif" font-size="15">Training step</text>
<text x="22" y="305.0" text-anchor="middle" transform="rotate(-90 22 305.0)" font-family="sans-serif" font-size="15">Cross-entropy loss</text>
<polyline points="90.00,98.10 90.79,120.76 91.67,180.41 92.55,248.25 93.43,307.49 94.31,342.73 95.19,367.78 96.07,381.32 96.95,390.10 97.83,399.44 98.71,407.69 99.59,414.48 100.47,422.67 101.35,426.00 102.23,427.44 103.11,432.58 103.99,434.48 104.87,440.67 105.75,444.07 106.63,443.17 107.51,448.14 108.39,447.35 109.27,450.16 110.15,446.94 111.03,452.57 111.91,452.96 112.79,456.80 113.67,456.77 114.55,456.60 115.43,459.99 116.31,457.42 117.19,458.01 118.07,462.94 118.95,463.20 119.83,462.00 120.72,462.57 121.60,466.00 122.48,467.83 123.36,466.58 124.24,470.99 125.12,471.39 126.00,469.53 126.88,468.12 127.76,472.68 128.64,474.54 129.52,470.32 130.40,470.68 131.28,470.58 132.16,470.92 133.04,472.95 133.92,472.25 134.80,473.71 135.68,474.99 136.56,475.90 137.44,475.64 138.32,474.82 139.20,477.70 140.08,476.57 140.96,475.50 141.84,476.50 142.72,478.52 143.60,478.97 144.48,477.14 145.36,475.69 146.24,479.05 147.12,478.45 148.00,478.08 148.88,483.01 149.76,482.45 150.64,480.14 151.52,480.63 152.40,479.70 153.28,481.21 154.16,480.61 155.04,480.48 155.92,481.15 156.80,483.10 157.68,480.72 158.56,481.59 159.44,481.59 160.32,481.11 161.20,480.57 162.08,482.67 162.96,482.55 163.84,482.67 164.72,483.48 165.60,481.25 166.48,484.01 167.36,483.09 168.24,486.20 169.12,486.68 170.00,486.70 170.88,482.68 171.76,484.09 172.64,483.25 173.52,486.82 174.40,484.17 175.28,488.02 176.16,485.64 177.04,486.33 177.92,485.62 178.80,483.72 179.68,487.44 180.56,482.80 181.44,485.33 182.32,488.14 183.20,484.57 184.08,486.79 184.96,484.78 185.84,486.22 186.72,485.48 187.60,487.08 188.48,485.61 189.36,487.61 190.24,484.42 191.12,488.77 192.00,488.13 192.88,487.20 193.76,485.00 194.64,490.53 195.52,486.12 196.40,487.19 197.28,487.62 198.16,488.22 199.04,487.65 199.92,489.55 200.80,487.86 201.68,489.80 202.56,488.37 203.44,490.12 204.32,489.91 205.20,489.40 206.08,490.94 206.96,490.06 207.84,487.56 208.72,489.09 209.60,489.79 210.48,488.06 211.36,489.85 212.24,492.79 213.12,488.88 214.00,487.70 214.88,491.15 215.76,489.69 216.64,491.85 217.52,491.72 218.40,492.59 219.28,488.22 220.17,494.47 221.05,490.68 221.93,488.29 222.81,488.96 223.69,490.39 224.57,489.13 225.45,488.09 226.33,489.65 227.21,488.03 228.09,490.34 228.97,493.24 229.85,486.56 230.73,490.35 231.61,493.47 232.49,491.13 233.37,494.20 234.25,493.05 235.13,489.16 236.01,488.08 236.89,490.30 237.77,493.89 238.65,487.99 239.53,492.46 240.41,491.43 241.29,491.99 242.17,492.45 243.05,492.34 243.93,489.86 244.81,491.41 245.69,492.29 246.57,493.04 247.45,491.10 248.33,492.83 249.21,492.16 250.09,492.76 250.97,490.90 251.85,491.08 252.73,493.48 253.61,487.59 254.49,494.76 255.37,490.54 256.25,491.36 257.13,494.96 258.01,495.13 258.89,493.70 259.77,490.92 260.65,494.37 261.53,493.12 262.41,489.92 263.29,493.03 264.17,496.09 265.05,491.27 265.93,493.38 266.81,496.28 267.69,490.52 268.57,495.11 269.45,493.42 270.33,494.03 271.21,493.05 272.09,495.02 272.97,492.18 273.85,494.31 274.73,495.46 275.61,493.44 276.49,493.42 277.37,492.81 278.25,492.49 279.13,495.94 280.01,494.58 280.89,494.06 281.77,495.32 282.65,494.11 283.53,497.14 284.41,495.56 285.29,494.78 286.17,496.09 287.05,497.14 287.93,494.03 288.81,491.75 289.69,494.25 290.57,494.95 291.45,495.34 292.33,498.49 293.21,492.53 294.09,495.77 294.97,495.03 295.85,496.12 296.73,496.22 297.61,497.56 298.49,496.65 299.37,493.71 300.25,495.07 301.13,495.75 302.01,495.24 302.89,494.06 303.77,495.19 304.65,495.44 305.53,496.20 306.41,494.86 307.29,499.12 308.17,495.13 309.05,495.09 309.93,497.71 310.81,496.99 311.69,500.34 312.57,494.13 313.45,496.60 314.33,496.79 315.21,492.88 316.09,498.47 316.97,495.37 317.85,497.40 318.73,494.47 319.61,494.46 320.50,495.65 321.38,495.94 322.26,496.85 323.14,497.06 324.02,493.85 324.90,496.76 325.78,497.95 326.66,497.36 327.54,495.24 328.42,496.27 329.30,497.12 330.18,498.08 331.06,496.61 331.94,498.47 332.82,498.13 333.70,495.99 334.58,493.98 335.46,497.19 336.34,497.25 337.22,498.42 338.10,499.82 338.98,495.90 339.86,499.81 340.74,495.73 341.62,498.62 342.50,494.93 343.38,498.54 344.26,499.55 345.14,497.18 346.02,497.93 346.90,497.63 347.78,500.90 348.66,498.18 349.54,497.06 350.42,497.48 351.30,498.25 352.18,499.08 353.06,498.40 353.94,498.15 354.82,499.33 355.70,499.01 356.58,501.45 357.46,495.73 358.34,496.05 359.22,496.57 360.10,497.92 360.98,500.19 361.86,497.58 362.74,493.97 363.62,498.21 364.50,499.48 365.38,498.47 366.26,495.30 367.14,500.95 368.02,497.47 368.90,500.14 369.78,498.17 370.66,498.76 371.54,499.34 372.42,498.84 373.30,500.45 374.18,500.99 375.06,499.53 375.94,500.65 376.82,498.19 377.70,498.61 378.58,500.57 379.46,496.42 380.34,499.62 381.22,498.48 382.10,499.50 382.98,501.18 383.86,498.56 384.74,498.75 385.62,499.23 386.50,501.40 387.38,498.83 388.26,500.47 389.14,498.82 390.02,498.90 390.90,500.94 391.78,498.91 392.66,499.59 393.54,500.85 394.42,499.31 395.30,498.97 396.18,501.25 397.06,499.74 397.94,500.23 398.82,500.92 399.70,498.79 400.58,499.25 401.46,497.03 402.34,500.77 403.22,499.37 404.10,499.21 404.98,500.44 405.86,501.47 406.74,499.13 407.62,499.37 408.50,500.89 409.38,502.07 410.26,500.21 411.14,501.11 412.02,499.10 412.90,501.48 413.78,500.08 414.66,502.79 415.54,498.19 416.42,502.65 417.30,500.99 418.18,500.73 419.06,499.00 419.94,503.65 420.83,501.64 421.71,500.88 422.59,499.89 423.47,503.26 424.35,499.71 425.23,498.06 426.11,501.28 426.99,502.73 427.87,501.07 428.75,500.41 429.63,500.34 430.51,504.06 431.39,502.18 432.27,501.33 433.15,503.54 434.03,500.81 434.91,499.96 435.79,501.61 436.67,501.22 437.55,502.39 438.43,500.12 439.31,500.15 440.19,503.07 441.07,500.09 441.95,501.35 442.83,501.28 443.71,499.84 444.59,501.21 445.47,497.85 446.35,501.81 447.23,499.30 448.11,501.44 448.99,500.09 449.87,501.77 450.75,502.54 451.63,499.53 452.51,502.86 453.39,499.37 454.27,499.38 455.15,502.06 456.03,502.07 456.91,502.10 457.79,499.36 458.67,501.12 459.55,501.41 460.43,505.43 461.31,501.27 462.19,500.15 463.07,503.29 463.95,503.24 464.83,501.79 465.71,500.44 466.59,503.78 467.47,502.14 468.35,499.67 469.23,504.53 470.11,501.19 470.99,500.19 471.87,503.50 472.75,499.94 473.63,503.16 474.51,500.08 475.39,505.28 476.27,500.52 477.15,500.05 478.03,502.79 478.91,499.75 479.79,502.87 480.67,499.69 481.55,502.37 482.43,501.93 483.31,500.82 484.19,500.88 485.07,500.88 485.95,503.71 486.83,503.87 487.71,500.43 488.59,500.32 489.47,501.72 490.35,501.58 491.23,501.91 492.11,501.09 492.99,502.71 493.87,504.65 494.75,499.91 495.63,502.67 496.51,502.81 497.39,499.69 498.27,502.23 499.15,503.21 500.03,503.32 500.91,499.76 501.79,501.23 502.67,503.44 503.55,505.18 504.43,502.97 505.31,502.88 506.19,501.14 507.07,500.05 507.95,502.30 508.83,502.44 509.71,504.43 510.59,500.88 511.47,503.60 512.35,500.80 513.23,501.56 514.11,504.20 514.99,501.89 515.87,500.72 516.75,503.30 517.63,504.96 518.51,503.26 519.39,504.02 520.28,500.80 521.16,503.91 522.04,503.09 522.92,501.58 523.80,505.88 524.68,506.45 525.56,506.19 526.44,502.67 527.32,504.11 528.20,505.17 529.08,505.47 529.96,503.71 530.84,503.44 531.72,502.51 532.60,503.77 533.48,505.19 534.36,502.22 535.24,504.01 536.12,503.70 537.00,500.41 537.88,503.18 538.76,502.02 539.64,504.38 540.52,500.81 541.40,503.04 542.28,504.35 543.16,501.59 544.04,503.11 544.92,503.76 545.80,503.11 546.68,500.47 547.56,504.82 548.44,502.34 549.32,504.25 550.20,505.91 551.08,503.82 551.96,502.96 552.84,503.27 553.72,503.61 554.60,504.36 555.48,504.09 556.36,504.29 557.24,502.72 558.12,503.23 559.00,503.54 559.88,503.29 560.76,505.00 561.64,503.09 562.52,501.91 563.40,503.89 564.28,502.42 565.16,505.02 566.04,506.46 566.92,502.29 567.80,502.60 568.68,503.80 569.56,503.88 570.44,504.20 571.32,504.93 572.20,506.66 573.08,499.74 573.96,505.98 574.84,503.49 575.72,503.74 576.60,504.23 577.48,504.95 578.36,506.50 579.24,503.98 580.12,504.24 581.00,503.23 581.88,504.92 582.76,504.65 583.64,503.47 584.52,504.27 585.40,504.95 586.28,505.22 587.16,504.53 588.04,504.33 588.92,502.19 589.80,505.99 590.68,504.16 591.56,503.80 592.44,504.87 593.32,505.82 594.20,502.84 595.08,506.33 595.96,506.10 596.84,505.16 597.72,504.88 598.60,505.28 599.48,505.15 600.36,504.83 601.24,506.42 602.12,506.98 603.00,502.54 603.88,507.33 604.76,504.92 605.64,503.98 606.52,503.34 607.40,507.60 608.28,505.39 609.16,503.45 610.04,506.72 610.92,505.06 611.80,502.76 612.68,504.56 613.56,506.38 614.44,500.73 615.32,506.59 616.20,502.18 617.08,504.55 617.96,507.15 618.84,504.50 619.72,504.11 620.61,506.08 621.49,502.06 622.37,505.35 623.25,504.16 624.13,506.44 625.01,504.10 625.89,507.37 626.77,502.99 627.65,504.92 628.53,506.54 629.41,506.06 630.29,505.11 631.17,505.61 632.05,505.72 632.93,504.55 633.81,507.78 634.69,504.61 635.57,505.54 636.45,505.81 637.33,506.06 638.21,506.13 639.09,504.92 639.97,504.61 640.85,505.72 641.73,504.06 642.61,507.44 643.49,504.44 644.37,505.73 645.25,506.77 646.13,506.41 647.01,506.03 647.89,506.73 648.77,504.52 649.65,507.03 650.53,508.21 651.41,504.05 652.29,504.22 653.17,505.05 654.05,502.37 654.93,507.12 655.81,505.24 656.69,505.06 657.57,503.15 658.45,505.64 659.33,505.82 660.21,507.92 661.09,507.15 661.97,506.15 662.85,507.64 663.73,505.88 664.61,506.15 665.49,506.46 666.37,504.79 667.25,506.55 668.13,505.81 669.01,507.74 669.89,505.84 670.77,505.72 671.65,504.08 672.53,504.96 673.41,503.36 674.29,504.60 675.17,508.77 676.05,506.91 676.93,505.79 677.81,504.64 678.69,506.26 679.57,504.95 680.45,505.23 681.33,505.08 682.21,504.95 683.09,507.25 683.97,507.83 684.85,505.05 685.73,505.13 686.61,506.14 687.49,507.54 688.37,506.37 689.25,506.49 690.13,506.60 691.01,504.69 691.89,505.81 692.77,507.88 693.65,505.32 694.53,507.55 695.41,503.73 696.29,508.19 697.17,504.82 698.05,507.07 698.93,506.49 699.81,505.95 700.69,506.65 701.57,507.71 702.45,506.17 703.33,505.92 704.21,508.12 705.09,506.74 705.97,505.61 706.85,509.68 707.73,506.22 708.61,506.50 709.49,508.00 710.37,508.20 711.25,507.24 712.13,506.74 713.01,509.17 713.89,505.25 714.77,504.87 715.65,507.60 716.53,504.99 717.41,505.77 718.29,506.91 719.17,505.19 720.06,508.82 720.94,505.40 721.82,510.23 722.70,505.39 723.58,507.71 724.46,506.69 725.34,505.10 726.22,506.27 727.10,508.13 727.98,503.81 728.86,510.17 729.74,509.26 730.62,510.11 731.50,507.26 732.38,508.34 733.26,505.61 734.14,507.62 735.02,508.29 735.90,505.15 736.78,507.96 737.66,506.94 738.54,507.47 739.42,508.54 740.30,508.07 741.18,508.31 742.06,509.07 742.94,505.82 743.82,507.84 744.70,506.18 745.58,506.35 746.46,506.16 747.34,508.04 748.22,507.98 749.10,505.65 749.98,506.06 750.86,504.48 751.74,507.34 752.62,509.65 753.50,508.55 754.38,508.80 755.26,504.99 756.14,503.70 757.02,507.39 757.90,506.58 758.78,507.61 759.66,504.60 760.54,507.55 761.42,506.01 762.30,506.47 763.18,506.90 764.06,508.40 764.94,505.74 765.82,507.35 766.70,506.69 767.58,505.88 768.46,509.55 769.34,507.93 770.22,508.11 771.10,508.32 771.98,507.83 772.86,507.45 773.74,506.12 774.62,508.47 775.50,507.26 776.38,507.10 777.26,506.04 778.14,508.45 779.02,509.82 779.90,506.90 780.78,507.06 781.66,506.80 782.54,507.50 783.42,506.57 784.30,509.03 785.18,508.17 786.06,508.96 786.94,508.28 787.82,505.51 788.70,508.61 789.58,509.25 790.46,510.77 791.34,511.90 792.22,508.73 793.10,508.51 793.98,507.67 794.86,508.89 795.74,507.64 796.62,510.33 797.50,507.73 798.38,507.34 799.26,508.62 800.14,508.34 801.02,509.88 801.90,505.99 802.78,509.68 803.66,509.96 804.54,507.83 805.42,506.19 806.30,508.94 807.18,509.28 808.06,506.20 808.94,506.94 809.82,509.79 810.70,509.18 811.58,506.78 812.46,504.66 813.34,509.79 814.22,509.89 815.10,506.46 815.98,509.92 816.86,506.49 817.74,509.81 818.62,508.51 819.50,510.68 820.39,510.20 821.27,509.78 822.15,506.10 823.03,507.10 823.91,510.12 824.79,505.79 825.67,508.09 826.55,509.77 827.43,508.61 828.31,508.78 829.19,509.75 830.07,508.40 830.95,507.60 831.83,506.36 832.71,509.50 833.59,510.22 834.47,507.25 835.35,506.12 836.23,507.42 837.11,506.65 837.99,506.06 838.87,508.25 839.75,508.77 840.63,508.06 841.51,508.98 842.39,509.19 843.27,506.31 844.15,506.85 845.03,508.61 845.91,507.88 846.79,507.82 847.67,510.87 848.55,507.27 849.43,505.49 850.31,507.65 851.19,510.31 852.07,508.31 852.95,507.78 853.83,510.97 854.71,508.87 855.59,507.06 856.47,507.87 857.35,508.81 858.23,509.34 859.11,507.20 859.99,509.57 860.87,510.85 861.75,508.99 862.63,508.91 863.51,510.33 864.39,507.79 865.27,507.06 866.15,509.96 867.03,511.57 867.91,510.69 868.79,509.34 869.67,506.90 870.55,507.11 871.43,508.92 872.31,508.08 873.19,509.45 874.07,507.15 874.95,508.12 875.83,508.21 876.71,507.85 877.59,508.84 878.47,509.08 879.35,510.00 880.23,506.85 881.11,509.25 881.99,507.89 882.87,509.09 883.75,510.33 884.63,507.56 885.51,509.02 886.39,508.06 887.27,506.36 888.15,508.97 889.03,508.93 889.91,508.41 890.79,508.61 891.67,510.70 892.55,507.77 893.43,506.19 894.31,505.86 895.19,508.68 896.07,509.12 896.95,509.85 897.83,507.42 898.71,508.04 899.59,505.81 900.47,509.63 901.35,506.86 902.23,510.87 903.11,510.07 903.99,508.43 904.87,505.75 905.75,507.51 906.63,508.79 907.51,509.66 908.39,506.78 909.27,505.99 910.15,509.46 911.03,509.49 911.91,507.42 912.79,508.51 913.67,508.77 914.55,509.21 915.43,509.03 916.31,508.70 917.19,511.28 918.07,510.87 918.95,509.02 919.83,507.90 920.72,509.50 921.60,509.74 922.48,508.26 923.36,508.12 924.24,507.56 925.12,507.49 926.00,508.62 926.88,509.90 927.76,508.04 928.64,508.47 929.52,511.10 930.40,510.86 931.28,510.16 932.16,508.22 933.04,507.31 933.92,509.17 934.80,509.86 935.68,509.97 936.56,509.18 937.44,507.92 938.32,508.37 939.20,510.56 940.08,510.23 940.96,509.75 941.84,507.52 942.72,511.75 943.60,507.35 944.48,508.86 945.36,510.50 946.24,507.96 947.12,510.85 948.00,507.69 948.88,510.26 949.76,510.69 950.64,508.93 951.52,506.18 952.40,510.25 953.28,510.76 954.16,508.30 955.04,511.25 955.92,507.03 956.80,507.26 957.68,509.04 958.56,508.00 959.44,508.18 960.32,505.91 961.20,510.23 962.08,511.75 962.96,508.76 963.84,509.18 964.72,508.18 965.60,509.54 966.48,508.16 967.36,511.09 968.24,508.05 969.12,508.49 970.00,511.24" fill="none" stroke="#2563eb" stroke-width="2"/>
<line x1="105" y1="62" x2="135" y2="62" stroke="#2563eb" stroke-width="3"/>
<text x="142" y="66" font-family="sans-serif" font-size="13">train loss</text>
<polyline points="98.71,408.65 107.51,446.76 116.31,459.46 125.12,467.95 133.92,473.37 142.72,477.52 151.52,479.72 160.32,482.31 169.12,484.31 177.92,485.49 186.72,486.10 195.52,488.10 204.32,488.97 213.12,489.72 221.93,490.74 230.73,491.64 239.53,491.37 248.33,492.88 257.13,493.05 265.93,494.40 274.73,494.53 283.53,494.99 292.33,495.41 301.13,495.64 309.93,496.64 318.73,496.44 327.54,496.89 336.34,497.47 345.14,498.14 353.94,497.78 362.74,499.04 371.54,498.64 380.34,498.25 389.14,499.52 397.94,499.32 406.74,499.61 415.54,500.44 424.35,500.19 433.15,500.44 441.95,500.84 450.75,501.25 459.55,501.12 468.35,501.70 477.15,502.28 485.95,501.90 494.75,502.18 503.55,502.79 512.35,503.11 521.16,502.90 529.96,502.66 538.76,503.04 547.56,503.72 556.36,503.29 565.16,503.55 573.96,504.09 582.76,503.95 591.56,504.25 600.36,504.11 609.16,504.10 617.96,504.90 626.77,505.30 635.57,504.67 644.37,505.23 653.17,505.60 661.97,505.34 670.77,505.83 679.57,505.30 688.37,505.79 697.17,506.04 705.97,506.35 714.77,507.21 723.58,506.63 732.38,506.16 741.18,506.46 749.98,507.64 758.78,506.23 767.58,506.99 776.38,507.65 785.18,507.41 793.98,507.20 802.78,508.49 811.58,507.74 820.39,507.39 829.19,507.46 837.99,508.12 846.79,507.82 855.59,508.26 864.39,508.52 873.19,508.25 881.99,508.39 890.79,508.51 899.59,508.41 908.39,507.78 917.19,508.57 926.00,508.01 934.80,508.73 943.60,509.37 952.40,508.97 961.20,508.50 970.00,508.37" fill="none" stroke="#dc2626" stroke-width="2"/>
<line x1="105" y1="84" x2="135" y2="84" stroke="#dc2626" stroke-width="3"/>
<text x="142" y="88" font-family="sans-serif" font-size="13">validation loss</text>
</svg>
