<svg xmlns="http://www.w3.org/2000/svg" width="1000" height="650" viewBox="0 0 1000 650">
<rect width="100%" height="100%" fill="white"/>
<text x="500.0" y="32" text-anchor="middle" font-family="sans-serif" font-size="22">Batch 8 learning-rate scaling</text>
<line x1="90.00" y1="70.0" x2="90.00" y2="570.0" stroke="#e5e7eb"/>
<text x="90.00" y="595.0" text-anchor="middle" font-family="sans-serif" font-size="12">4.096e+05</text>
<line x1="90.0" y1="70.00" x2="740.0" y2="70.00" stroke="#e5e7eb"/>
<text x="78.0" y="74.00" text-anchor="end" font-family="sans-serif" font-size="12">5.101</text>
<line x1="220.00" y1="70.0" x2="220.00" y2="570.0" stroke="#e5e7eb"/>
<text x="220.00" y="595.0" text-anchor="middle" font-family="sans-serif" font-size="12">1.966e+06</text>
<line x1="90.0" y1="170.00" x2="740.0" y2="170.00" stroke="#e5e7eb"/>
<text x="78.0" y="174.00" text-anchor="end" font-family="sans-serif" font-size="12">4.459</text>
<line x1="350.00" y1="70.0" x2="350.00" y2="570.0" stroke="#e5e7eb"/>
<text x="350.00" y="595.0" text-anchor="middle" font-family="sans-serif" font-size="12">3.523e+06</text>
<line x1="90.0" y1="270.00" x2="740.0" y2="270.00" stroke="#e5e7eb"/>
<text x="78.0" y="274.00" text-anchor="end" font-family="sans-serif" font-size="12">3.818</text>
<line x1="480.00" y1="70.0" x2="480.00" y2="570.0" stroke="#e5e7eb"/>
<text x="480.00" y="595.0" text-anchor="middle" font-family="sans-serif" font-size="12">5.079e+06</text>
<line x1="90.0" y1="370.00" x2="740.0" y2="370.00" stroke="#e5e7eb"/>
<text x="78.0" y="374.00" text-anchor="end" font-family="sans-serif" font-size="12">3.176</text>
<line x1="610.00" y1="70.0" x2="610.00" y2="570.0" stroke="#e5e7eb"/>
<text x="610.00" y="595.0" text-anchor="middle" font-family="sans-serif" font-size="12">6.636e+06</text>
<line x1="90.0" y1="470.00" x2="740.0" y2="470.00" stroke="#e5e7eb"/>
<text x="78.0" y="474.00" text-anchor="end" font-family="sans-serif" font-size="12">2.535</text>
<line x1="740.00" y1="70.0" x2="740.00" y2="570.0" stroke="#e5e7eb"/>
<text x="740.00" y="595.0" text-anchor="middle" font-family="sans-serif" font-size="12">8.192e+06</text>
<line x1="90.0" y1="570.00" x2="740.0" y2="570.00" stroke="#e5e7eb"/>
<text x="78.0" y="574.00" text-anchor="end" font-family="sans-serif" font-size="12">1.893</text>
<line x1="90.0" y1="570.0" x2="740.0" y2="570.0" stroke="#111827" stroke-width="1.5"/>
<line x1="90.0" y1="70.0" x2="90.0" y2="570.0" stroke="#111827" stroke-width="1.5"/>
<text x="415.0" y="628" text-anchor="middle" font-family="sans-serif" font-size="15">Training tokens processed</text>
<text x="24" y="320.0" text-anchor="middle" transform="rotate(-90 24 320.0)" font-family="sans-serif" font-size="15">Cross-entropy loss</text>
<polyline points="90.00,316.46 124.21,328.33 158.42,382.62 192.63,388.40 226.84,399.62 261.05,423.50 295.26,377.20 329.47,392.87 363.68,412.47 397.89,428.93 432.11,436.21 466.32,447.24 500.53,452.34 534.74,468.33 568.95,463.12 603.16,411.00 637.37,403.28 671.58,434.85 705.79,396.44 740.00,401.22" fill="none" stroke="#2563eb" stroke-width="2.2"/>
<line x1="768.0" y1="70.0" x2="804.0" y2="70.0" stroke="#2563eb" stroke-width="2.2"/>
<text x="812.0" y="74.0" font-family="sans-serif" font-size="12">bs8 fixed — train</text>
<polyline points="192.63,393.83 329.47,415.07 466.32,426.87 603.16,431.05 740.00,435.88" fill="none" stroke="#2563eb" stroke-width="2.2" stroke-dasharray="8 5"/>
<circle cx="192.63" cy="393.83" r="3.2" fill="#2563eb"/>
<circle cx="329.47" cy="415.07" r="3.2" fill="#2563eb"/>
<circle cx="466.32" cy="426.87" r="3.2" fill="#2563eb"/>
<circle cx="603.16" cy="431.05" r="3.2" fill="#2563eb"/>
<circle cx="740.00" cy="435.88" r="3.2" fill="#2563eb"/>
<line x1="768.0" y1="94.0" x2="804.0" y2="94.0" stroke="#2563eb" stroke-width="2.2" stroke-dasharray="8 5"/>
<text x="812.0" y="98.0" font-family="sans-serif" font-size="12">bs8 fixed — validation</text>
<polyline points="90.00,268.21 124.21,349.33 158.42,415.86 192.63,434.33 226.84,458.95 261.05,484.20 295.26,444.40 329.47,465.78 363.68,481.48 397.89,505.17 432.11,513.01 466.32,527.73 500.53,540.12 534.74,547.15 568.95,547.27 603.16,507.86 637.37,499.94 671.58,538.69 705.79,491.52 740.00,506.28" fill="none" stroke="#dc2626" stroke-width="2.2"/>
<line x1="768.0" y1="118.0" x2="804.0" y2="118.0" stroke="#dc2626" stroke-width="2.2"/>
<text x="812.0" y="122.0" font-family="sans-serif" font-size="12">bs8 sqrt — train</text>
<polyline points="192.63,436.93 329.47,484.35 466.32,509.55 603.16,524.15 740.00,536.76" fill="none" stroke="#dc2626" stroke-width="2.2" stroke-dasharray="8 5"/>
<circle cx="192.63" cy="436.93" r="3.2" fill="#dc2626"/>
<circle cx="329.47" cy="484.35" r="3.2" fill="#dc2626"/>
<circle cx="466.32" cy="509.55" r="3.2" fill="#dc2626"/>
<circle cx="603.16" cy="524.15" r="3.2" fill="#dc2626"/>
<circle cx="740.00" cy="536.76" r="3.2" fill="#dc2626"/>
<line x1="768.0" y1="142.0" x2="804.0" y2="142.0" stroke="#dc2626" stroke-width="2.2" stroke-dasharray="8 5"/>
<text x="812.0" y="146.0" font-family="sans-serif" font-size="12">bs8 sqrt — validation</text>
<polyline points="90.00,92.73 124.21,279.67 158.42,353.19 192.63,382.49 226.84,408.00 261.05,441.70 295.26,402.73 329.47,421.53 363.68,441.09 397.89,468.14 432.11,478.59 466.32,493.60 500.53,505.78 534.74,517.70 568.95,522.49 603.16,478.57 637.37,463.61 671.58,501.86 705.79,471.84 740.00,479.56" fill="none" stroke="#16a34a" stroke-width="2.2"/>
<line x1="768.0" y1="166.0" x2="804.0" y2="166.0" stroke="#16a34a" stroke-width="2.2"/>
<text x="812.0" y="170.0" font-family="sans-serif" font-size="12">bs8 linear — train</text>
<polyline points="192.63,384.27 329.47,446.33 466.32,475.66 603.16,495.38 740.00,510.70" fill="none" stroke="#16a34a" stroke-width="2.2" stroke-dasharray="8 5"/>
<circle cx="192.63" cy="384.27" r="3.2" fill="#16a34a"/>
<circle cx="329.47" cy="446.33" r="3.2" fill="#16a34a"/>
<circle cx="466.32" cy="475.66" r="3.2" fill="#16a34a"/>
<circle cx="603.16" cy="495.38" r="3.2" fill="#16a34a"/>
<circle cx="740.00" cy="510.70" r="3.2" fill="#16a34a"/>
<line x1="768.0" y1="190.0" x2="804.0" y2="190.0" stroke="#16a34a" stroke-width="2.2" stroke-dasharray="8 5"/>
<text x="812.0" y="194.0" font-family="sans-serif" font-size="12">bs8 linear — validation</text>
</svg>