<svg xmlns="http://www.w3.org/2000/svg" width="1000" height="650" viewBox="0 0 1000 650">
<rect width="100%" height="100%" fill="white"/>
<text x="500.0" y="32" text-anchor="middle" font-family="sans-serif" font-size="22">Batch 32 learning-rate scaling</text>
<line x1="90.00" y1="70.0" x2="90.00" y2="570.0" stroke="#e5e7eb"/>
<text x="90.00" y="595.0" text-anchor="middle" font-family="sans-serif" font-size="12">3.559</text>
<line x1="90.0" y1="70.00" x2="740.0" y2="70.00" stroke="#e5e7eb"/>
<text x="78.0" y="74.00" text-anchor="end" font-family="sans-serif" font-size="12">5.115</text>
<line x1="220.00" y1="70.0" x2="220.00" y2="570.0" stroke="#e5e7eb"/>
<text x="220.00" y="595.0" text-anchor="middle" font-family="sans-serif" font-size="12">17.35</text>
<line x1="90.0" y1="170.00" x2="740.0" y2="170.00" stroke="#e5e7eb"/>
<text x="78.0" y="174.00" text-anchor="end" font-family="sans-serif" font-size="12">4.493</text>
<line x1="350.00" y1="70.0" x2="350.00" y2="570.0" stroke="#e5e7eb"/>
<text x="350.00" y="595.0" text-anchor="middle" font-family="sans-serif" font-size="12">31.13</text>
<line x1="90.0" y1="270.00" x2="740.0" y2="270.00" stroke="#e5e7eb"/>
<text x="78.0" y="274.00" text-anchor="end" font-family="sans-serif" font-size="12">3.871</text>
<line x1="480.00" y1="70.0" x2="480.00" y2="570.0" stroke="#e5e7eb"/>
<text x="480.00" y="595.0" text-anchor="middle" font-family="sans-serif" font-size="12">44.92</text>
<line x1="90.0" y1="370.00" x2="740.0" y2="370.00" stroke="#e5e7eb"/>
<text x="78.0" y="374.00" text-anchor="end" font-family="sans-serif" font-size="12">3.248</text>
<line x1="610.00" y1="70.0" x2="610.00" y2="570.0" stroke="#e5e7eb"/>
<text x="610.00" y="595.0" text-anchor="middle" font-family="sans-serif" font-size="12">58.7</text>
<line x1="90.0" y1="470.00" x2="740.0" y2="470.00" stroke="#e5e7eb"/>
<text x="78.0" y="474.00" text-anchor="end" font-family="sans-serif" font-size="12">2.626</text>
<line x1="740.00" y1="70.0" x2="740.00" y2="570.0" stroke="#e5e7eb"/>
<text x="740.00" y="595.0" text-anchor="middle" font-family="sans-serif" font-size="12">72.49</text>
<line x1="90.0" y1="570.00" x2="740.0" y2="570.00" stroke="#e5e7eb"/>
<text x="78.0" y="574.00" text-anchor="end" font-family="sans-serif" font-size="12">2.003</text>
<line x1="90.0" y1="570.0" x2="740.0" y2="570.0" stroke="#111827" stroke-width="1.5"/>
<line x1="90.0" y1="70.0" x2="90.0" y2="570.0" stroke="#111827" stroke-width="1.5"/>
<text x="415.0" y="628" text-anchor="middle" font-family="sans-serif" font-size="15">Cumulative wall-clock time (seconds)</text>
<text x="24" y="320.0" text-anchor="middle" transform="rotate(-90 24 320.0)" font-family="sans-serif" font-size="15">Cross-entropy loss</text>
<polyline points="90.00,265.70 121.25,354.82 151.59,391.36 182.86,422.46 220.77,445.81 253.13,437.30 285.89,444.94 318.30,464.41 356.72,485.46 389.41,471.20 421.52,494.88 452.54,478.96 489.90,493.07 520.47,508.05 550.82,509.41 581.40,494.32 617.74,495.77 648.23,494.60 678.74,492.29 708.88,494.64" fill="none" stroke="#2563eb" stroke-width="2.2"/>
<line x1="768.0" y1="70.0" x2="804.0" y2="70.0" stroke="#2563eb" stroke-width="2.2"/>
<text x="812.0" y="74.0" font-family="sans-serif" font-size="12">bs32 fixed — train</text>
<polyline points="188.76,422.57 324.56,469.71 458.51,487.80 587.21,500.31 714.66,505.04" fill="none" stroke="#2563eb" stroke-width="2.2" stroke-dasharray="8 5"/>
<circle cx="188.76" cy="422.57" r="3.2" fill="#2563eb"/>
<circle cx="324.56" cy="469.71" r="3.2" fill="#2563eb"/>
<circle cx="458.51" cy="487.80" r="3.2" fill="#2563eb"/>
<circle cx="587.21" cy="500.31" r="3.2" fill="#2563eb"/>
<circle cx="714.66" cy="505.04" r="3.2" fill="#2563eb"/>
<line x1="768.0" y1="94.0" x2="804.0" y2="94.0" stroke="#2563eb" stroke-width="2.2" stroke-dasharray="8 5"/>
<text x="812.0" y="98.0" font-family="sans-serif" font-size="12">bs32 fixed — validation</text>
<polyline points="91.98,210.87 124.39,338.46 157.03,388.94 190.20,427.85 229.11,456.96 261.68,452.92 293.91,464.77 326.55,485.12 365.22,506.17 397.50,496.75 429.86,518.88 463.01,507.15 501.18,526.19 533.02,541.70 564.86,539.93 597.52,528.23 636.65,530.66 669.19,533.66 701.65,531.29 733.66,536.77" fill="none" stroke="#dc2626" stroke-width="2.2"/>
<line x1="768.0" y1="118.0" x2="804.0" y2="118.0" stroke="#dc2626" stroke-width="2.2"/>
<text x="812.0" y="122.0" font-family="sans-serif" font-size="12">bs32 sqrt — train</text>
<polyline points="196.50,429.88 332.80,488.05 469.24,516.29 603.71,533.65 740.00,547.27" fill="none" stroke="#dc2626" stroke-width="2.2" stroke-dasharray="8 5"/>
<circle cx="196.50" cy="429.88" r="3.2" fill="#dc2626"/>
<circle cx="332.80" cy="488.05" r="3.2" fill="#dc2626"/>
<circle cx="469.24" cy="516.29" r="3.2" fill="#dc2626"/>
<circle cx="603.71" cy="533.65" r="3.2" fill="#dc2626"/>
<circle cx="740.00" cy="547.27" r="3.2" fill="#dc2626"/>
<line x1="768.0" y1="142.0" x2="804.0" y2="142.0" stroke="#dc2626" stroke-width="2.2" stroke-dasharray="8 5"/>
<text x="812.0" y="146.0" font-family="sans-serif" font-size="12">bs32 sqrt — validation</text>
<polyline points="91.44,92.73 123.34,299.52 156.51,358.20 188.23,403.19 225.91,436.48 257.37,434.80 288.26,450.66 320.15,471.75 357.46,495.78 389.16,487.27 420.78,507.89 452.13,498.09 489.85,512.52 520.96,533.62 552.76,532.52 583.93,519.62 620.73,523.23 651.45,527.60 682.51,525.41 713.94,532.37" fill="none" stroke="#16a34a" stroke-width="2.2"/>
<line x1="768.0" y1="166.0" x2="804.0" y2="166.0" stroke="#16a34a" stroke-width="2.2"/>
<text x="812.0" y="170.0" font-family="sans-serif" font-size="12">bs32 linear — train</text>
<polyline points="194.50,405.49 326.18,475.11 458.19,507.00 589.89,526.98 720.26,543.22" fill="none" stroke="#16a34a" stroke-width="2.2" stroke-dasharray="8 5"/>
<circle cx="194.50" cy="405.49" r="3.2" fill="#16a34a"/>
<circle cx="326.18" cy="475.11" r="3.2" fill="#16a34a"/>
<circle cx="458.19" cy="507.00" r="3.2" fill="#16a34a"/>
<circle cx="589.89" cy="526.98" r="3.2" fill="#16a34a"/>
<circle cx="720.26" cy="543.22" r="3.2" fill="#16a34a"/>
<line x1="768.0" y1="190.0" x2="804.0" y2="190.0" stroke="#16a34a" stroke-width="2.2" stroke-dasharray="8 5"/>
<text x="812.0" y="194.0" font-family="sans-serif" font-size="12">bs32 linear — validation</text>
</svg>