<svg xmlns="http://www.w3.org/2000/svg" width="1000" height="650" viewBox="0 0 1000 650">
<rect width="100%" height="100%" fill="white"/>
<text x="500.0" y="32" text-anchor="middle" font-family="sans-serif" font-size="22">TinyStories fixed-LR batch-size comparison</text>
<line x1="90.00" y1="70.0" x2="90.00" y2="570.0" stroke="#e5e7eb"/>
<text x="90.00" y="595.0" text-anchor="middle" font-family="sans-serif" font-size="12">10</text>
<line x1="90.0" y1="70.00" x2="740.0" y2="70.00" stroke="#e5e7eb"/>
<text x="78.0" y="74.00" text-anchor="end" font-family="sans-serif" font-size="12">6.705</text>
<line x1="220.00" y1="70.0" x2="220.00" y2="570.0" stroke="#e5e7eb"/>
<text x="220.00" y="595.0" text-anchor="middle" font-family="sans-serif" font-size="12">6408</text>
<line x1="90.0" y1="170.00" x2="740.0" y2="170.00" stroke="#e5e7eb"/>
<text x="78.0" y="174.00" text-anchor="end" font-family="sans-serif" font-size="12">5.772</text>
<line x1="350.00" y1="70.0" x2="350.00" y2="570.0" stroke="#e5e7eb"/>
<text x="350.00" y="595.0" text-anchor="middle" font-family="sans-serif" font-size="12">1.281e+04</text>
<line x1="90.0" y1="270.00" x2="740.0" y2="270.00" stroke="#e5e7eb"/>
<text x="78.0" y="274.00" text-anchor="end" font-family="sans-serif" font-size="12">4.839</text>
<line x1="480.00" y1="70.0" x2="480.00" y2="570.0" stroke="#e5e7eb"/>
<text x="480.00" y="595.0" text-anchor="middle" font-family="sans-serif" font-size="12">1.92e+04</text>
<line x1="90.0" y1="370.00" x2="740.0" y2="370.00" stroke="#e5e7eb"/>
<text x="78.0" y="374.00" text-anchor="end" font-family="sans-serif" font-size="12">3.907</text>
<line x1="610.00" y1="70.0" x2="610.00" y2="570.0" stroke="#e5e7eb"/>
<text x="610.00" y="595.0" text-anchor="middle" font-family="sans-serif" font-size="12">2.56e+04</text>
<line x1="90.0" y1="470.00" x2="740.0" y2="470.00" stroke="#e5e7eb"/>
<text x="78.0" y="474.00" text-anchor="end" font-family="sans-serif" font-size="12">2.974</text>
<line x1="740.00" y1="70.0" x2="740.00" y2="570.0" stroke="#e5e7eb"/>
<text x="740.00" y="595.0" text-anchor="middle" font-family="sans-serif" font-size="12">3.2e+04</text>
<line x1="90.0" y1="570.00" x2="740.0" y2="570.00" stroke="#e5e7eb"/>
<text x="78.0" y="574.00" text-anchor="end" font-family="sans-serif" font-size="12">2.042</text>
<line x1="90.0" y1="570.0" x2="740.0" y2="570.0" stroke="#111827" stroke-width="1.5"/>
<line x1="90.0" y1="70.0" x2="90.0" y2="570.0" stroke="#111827" stroke-width="1.5"/>
<text x="415.0" y="628" text-anchor="middle" font-family="sans-serif" font-size="15">Optimizer step</text>
<text x="24" y="320.0" text-anchor="middle" transform="rotate(-90 24 320.0)" font-family="sans-serif" font-size="15">Cross-entropy loss</text>
<polyline points="122.31,449.80 154.82,419.29 187.33,349.68 219.84,442.76 252.35,425.06 284.86,453.13 317.37,331.65 349.88,390.95 382.39,360.52 414.90,451.11 447.41,443.39 479.92,423.14 512.43,469.74 544.94,469.07 577.45,539.27 609.96,396.20 642.47,465.71 674.98,499.53 707.49,359.48 740.00,468.76" fill="none" stroke="#2563eb" stroke-width="2.2"/>
<line x1="768.0" y1="70.0" x2="804.0" y2="70.0" stroke="#2563eb" stroke-width="2.2"/>
<text x="812.0" y="74.0" font-family="sans-serif" font-size="12">bs1 — train</text>
<polyline points="219.84,421.15 349.88,430.89 479.92,444.44 609.96,450.76 740.00,463.24" fill="none" stroke="#2563eb" stroke-width="2.2" stroke-dasharray="8 5"/>
<circle cx="219.84" cy="421.15" r="3.2" fill="#2563eb"/>
<circle cx="349.88" cy="430.89" r="3.2" fill="#2563eb"/>
<circle cx="479.92" cy="444.44" r="3.2" fill="#2563eb"/>
<circle cx="609.96" cy="450.76" r="3.2" fill="#2563eb"/>
<circle cx="740.00" cy="463.24" r="3.2" fill="#2563eb"/>
<line x1="768.0" y1="94.0" x2="804.0" y2="94.0" stroke="#2563eb" stroke-width="2.2" stroke-dasharray="8 5"/>
<text x="812.0" y="98.0" font-family="sans-serif" font-size="12">bs1 — validation</text>
<polyline points="93.86,411.50 97.92,419.67 101.99,457.02 106.05,461.00 110.12,468.72 114.18,485.14 118.24,453.29 122.31,464.07 126.37,477.56 130.43,488.88 134.50,493.89 138.56,501.48 142.63,504.99 146.69,515.99 150.75,512.41 154.82,476.55 158.88,471.24 162.94,492.95 167.01,466.53 171.07,469.82" fill="none" stroke="#dc2626" stroke-width="2.2"/>
<line x1="768.0" y1="118.0" x2="804.0" y2="118.0" stroke="#dc2626" stroke-width="2.2"/>
<text x="812.0" y="122.0" font-family="sans-serif" font-size="12">bs8 — train</text>
<polyline points="106.05,464.73 122.31,479.35 138.56,487.47 154.82,490.34 171.07,493.66" fill="none" stroke="#dc2626" stroke-width="2.2" stroke-dasharray="8 5"/>
<circle cx="106.05" cy="464.73" r="3.2" fill="#dc2626"/>
<circle cx="122.31" cy="479.35" r="3.2" fill="#dc2626"/>
<circle cx="138.56" cy="487.47" r="3.2" fill="#dc2626"/>
<circle cx="154.82" cy="490.34" r="3.2" fill="#dc2626"/>
<circle cx="171.07" cy="493.66" r="3.2" fill="#dc2626"/>
<line x1="768.0" y1="142.0" x2="804.0" y2="142.0" stroke="#dc2626" stroke-width="2.2" stroke-dasharray="8 5"/>
<text x="812.0" y="146.0" font-family="sans-serif" font-size="12">bs8 — validation</text>
<polyline points="90.81,371.00 91.83,430.48 92.84,454.86 93.86,475.62 94.88,491.20 95.89,485.52 96.91,490.62 97.92,503.61 98.94,517.67 99.96,508.14 100.97,523.95 101.99,513.33 103.00,522.75 104.02,532.74 105.04,533.64 106.05,523.58 107.07,524.55 108.08,523.76 109.10,522.22 110.12,523.79" fill="none" stroke="#16a34a" stroke-width="2.2"/>
<line x1="768.0" y1="166.0" x2="804.0" y2="166.0" stroke="#16a34a" stroke-width="2.2"/>
<text x="812.0" y="170.0" font-family="sans-serif" font-size="12">bs32 — train</text>
<polyline points="93.86,475.69 97.92,507.15 101.99,519.22 106.05,527.57 110.12,530.73" fill="none" stroke="#16a34a" stroke-width="2.2" stroke-dasharray="8 5"/>
<circle cx="93.86" cy="475.69" r="3.2" fill="#16a34a"/>
<circle cx="97.92" cy="507.15" r="3.2" fill="#16a34a"/>
<circle cx="101.99" cy="519.22" r="3.2" fill="#16a34a"/>
<circle cx="106.05" cy="527.57" r="3.2" fill="#16a34a"/>
<circle cx="110.12" cy="530.73" r="3.2" fill="#16a34a"/>
<line x1="768.0" y1="190.0" x2="804.0" y2="190.0" stroke="#16a34a" stroke-width="2.2" stroke-dasharray="8 5"/>
<text x="812.0" y="194.0" font-family="sans-serif" font-size="12">bs32 — validation</text>
<polyline points="90.30,292.07 90.81,390.26 91.32,428.46 91.83,451.61 92.34,475.12 92.84,482.13 93.35,497.14 93.86,502.45 94.37,515.85 94.88,514.36 95.38,526.79 95.89,521.57 96.40,528.12 96.91,536.51 97.42,536.59 97.92,526.58 98.43,540.59 98.94,532.87 99.45,540.61 99.96,537.40" fill="none" stroke="#9333ea" stroke-width="2.2"/>
<line x1="768.0" y1="214.0" x2="804.0" y2="214.0" stroke="#9333ea" stroke-width="2.2"/>
<text x="812.0" y="218.0" font-family="sans-serif" font-size="12">bs64 — train</text>
<polyline points="91.83,457.72 93.86,504.97 95.89,524.27 97.92,537.08 99.96,547.27" fill="none" stroke="#9333ea" stroke-width="2.2" stroke-dasharray="8 5"/>
<circle cx="91.83" cy="457.72" r="3.2" fill="#9333ea"/>
<circle cx="93.86" cy="504.97" r="3.2" fill="#9333ea"/>
<circle cx="95.89" cy="524.27" r="3.2" fill="#9333ea"/>
<circle cx="97.92" cy="537.08" r="3.2" fill="#9333ea"/>
<circle cx="99.96" cy="547.27" r="3.2" fill="#9333ea"/>
<line x1="768.0" y1="238.0" x2="804.0" y2="238.0" stroke="#9333ea" stroke-width="2.2" stroke-dasharray="8 5"/>
<text x="812.0" y="242.0" font-family="sans-serif" font-size="12">bs64 — validation</text>
<polyline points="90.00,92.73 90.20,288.95 90.41,358.17 90.61,388.18 90.81,401.79 91.02,421.10 91.22,441.20 91.42,449.78 91.63,461.08 91.83,471.45 92.03,483.23 92.24,482.61 92.44,501.63 92.64,500.43 92.84,506.66 93.05,510.98 93.25,515.95 93.45,523.45 93.66,524.53 93.86,514.59 94.06,530.75 94.27,537.88 94.47,539.82 94.67,536.24 94.88,535.30" fill="none" stroke="#ea580c" stroke-width="2.2"/>
<line x1="768.0" y1="262.0" x2="804.0" y2="262.0" stroke="#ea580c" stroke-width="2.2"/>
<text x="812.0" y="266.0" font-family="sans-serif" font-size="12">bs128 — train</text>
<polyline points="90.81,407.06 91.83,474.61 92.84,508.98 93.86,528.00 94.88,541.79" fill="none" stroke="#ea580c" stroke-width="2.2" stroke-dasharray="8 5"/>
<circle cx="90.81" cy="407.06" r="3.2" fill="#ea580c"/>
<circle cx="91.83" cy="474.61" r="3.2" fill="#ea580c"/>
<circle cx="92.84" cy="508.98" r="3.2" fill="#ea580c"/>
<circle cx="93.86" cy="528.00" r="3.2" fill="#ea580c"/>
<circle cx="94.88" cy="541.79" r="3.2" fill="#ea580c"/>
<line x1="768.0" y1="286.0" x2="804.0" y2="286.0" stroke="#ea580c" stroke-width="2.2" stroke-dasharray="8 5"/>
<text x="812.0" y="290.0" font-family="sans-serif" font-size="12">bs128 — validation</text>
<polyline points="90.00,137.69 90.20,312.80 90.41,325.21 90.61,362.98 90.81,384.11 91.02,398.11 91.22,416.90 91.42,429.28 91.63,444.21 91.83,449.44 92.03,471.19 92.24,476.99 92.44,483.36 92.64,492.82 92.84,497.36 93.05,494.28 93.25,506.05 93.45,506.95 93.66,514.87 93.86,519.01" fill="none" stroke="#0891b2" stroke-width="2.2"/>
<line x1="768.0" y1="310.0" x2="804.0" y2="310.0" stroke="#0891b2" stroke-width="2.2"/>
<text x="812.0" y="314.0" font-family="sans-serif" font-size="12">bs160 — train</text>
<polyline points="90.61,366.87 91.42,433.35 92.24,477.41 93.05,504.65 93.86,523.49" fill="none" stroke="#0891b2" stroke-width="2.2" stroke-dasharray="8 5"/>
<circle cx="90.61" cy="366.87" r="3.2" fill="#0891b2"/>
<circle cx="91.42" cy="433.35" r="3.2" fill="#0891b2"/>
<circle cx="92.24" cy="477.41" r="3.2" fill="#0891b2"/>
<circle cx="93.05" cy="504.65" r="3.2" fill="#0891b2"/>
<circle cx="93.86" cy="523.49" r="3.2" fill="#0891b2"/>
<line x1="768.0" y1="334.0" x2="804.0" y2="334.0" stroke="#0891b2" stroke-width="2.2" stroke-dasharray="8 5"/>
<text x="812.0" y="338.0" font-family="sans-serif" font-size="12">bs160 — validation</text>
</svg>