<svg xmlns="http://www.w3.org/2000/svg" width="1000" height="650" viewBox="0 0 1000 650">
<rect width="100%" height="100%" fill="white"/>
<text x="500.0" y="32" text-anchor="middle" font-family="sans-serif" font-size="22">TinyStories fixed-LR batch-size comparison</text>
<line x1="90.00" y1="70.0" x2="90.00" y2="570.0" stroke="#e5e7eb"/>
<text x="90.00" y="595.0" text-anchor="middle" font-family="sans-serif" font-size="12">2.379</text>
<line x1="90.0" y1="70.00" x2="740.0" y2="70.00" stroke="#e5e7eb"/>
<text x="78.0" y="74.00" text-anchor="end" font-family="sans-serif" font-size="12">6.705</text>
<line x1="220.00" y1="70.0" x2="220.00" y2="570.0" stroke="#e5e7eb"/>
<text x="220.00" y="595.0" text-anchor="middle" font-family="sans-serif" font-size="12">147.3</text>
<line x1="90.0" y1="170.00" x2="740.0" y2="170.00" stroke="#e5e7eb"/>
<text x="78.0" y="174.00" text-anchor="end" font-family="sans-serif" font-size="12">5.772</text>
<line x1="350.00" y1="70.0" x2="350.00" y2="570.0" stroke="#e5e7eb"/>
<text x="350.00" y="595.0" text-anchor="middle" font-family="sans-serif" font-size="12">292.2</text>
<line x1="90.0" y1="270.00" x2="740.0" y2="270.00" stroke="#e5e7eb"/>
<text x="78.0" y="274.00" text-anchor="end" font-family="sans-serif" font-size="12">4.839</text>
<line x1="480.00" y1="70.0" x2="480.00" y2="570.0" stroke="#e5e7eb"/>
<text x="480.00" y="595.0" text-anchor="middle" font-family="sans-serif" font-size="12">437.1</text>
<line x1="90.0" y1="370.00" x2="740.0" y2="370.00" stroke="#e5e7eb"/>
<text x="78.0" y="374.00" text-anchor="end" font-family="sans-serif" font-size="12">3.907</text>
<line x1="610.00" y1="70.0" x2="610.00" y2="570.0" stroke="#e5e7eb"/>
<text x="610.00" y="595.0" text-anchor="middle" font-family="sans-serif" font-size="12">582</text>
<line x1="90.0" y1="470.00" x2="740.0" y2="470.00" stroke="#e5e7eb"/>
<text x="78.0" y="474.00" text-anchor="end" font-family="sans-serif" font-size="12">2.974</text>
<line x1="740.00" y1="70.0" x2="740.00" y2="570.0" stroke="#e5e7eb"/>
<text x="740.00" y="595.0" text-anchor="middle" font-family="sans-serif" font-size="12">726.9</text>
<line x1="90.0" y1="570.00" x2="740.0" y2="570.00" stroke="#e5e7eb"/>
<text x="78.0" y="574.00" text-anchor="end" font-family="sans-serif" font-size="12">2.042</text>
<line x1="90.0" y1="570.0" x2="740.0" y2="570.0" stroke="#111827" stroke-width="1.5"/>
<line x1="90.0" y1="70.0" x2="90.0" y2="570.0" stroke="#111827" stroke-width="1.5"/>
<text x="415.0" y="628" text-anchor="middle" font-family="sans-serif" font-size="15">Cumulative wall-clock time (seconds)</text>
<text x="24" y="320.0" text-anchor="middle" transform="rotate(-90 24 320.0)" font-family="sans-serif" font-size="15">Cross-entropy loss</text>
<polyline points="120.51,449.80 153.13,419.29 185.85,349.68 218.21,442.76 250.76,425.06 283.08,453.13 314.28,331.65 346.36,390.95 378.18,360.52 408.90,451.11 441.27,443.39 474.21,423.14 507.23,469.74 540.34,469.07 573.75,539.27 606.88,396.20 640.53,465.71 672.14,499.53 705.56,359.48 739.41,468.76" fill="none" stroke="#2563eb" stroke-width="2.2"/>
<line x1="768.0" y1="70.0" x2="804.0" y2="70.0" stroke="#2563eb" stroke-width="2.2"/>
<text x="812.0" y="74.0" font-family="sans-serif" font-size="12">bs1 — train</text>
<polyline points="218.81,421.15 346.92,430.89 474.82,444.44 607.43,450.76 740.00,463.24" fill="none" stroke="#2563eb" stroke-width="2.2" stroke-dasharray="8 5"/>
<circle cx="218.81" cy="421.15" r="3.2" fill="#2563eb"/>
<circle cx="346.92" cy="430.89" r="3.2" fill="#2563eb"/>
<circle cx="474.82" cy="444.44" r="3.2" fill="#2563eb"/>
<circle cx="607.43" cy="450.76" r="3.2" fill="#2563eb"/>
<circle cx="740.00" cy="463.24" r="3.2" fill="#2563eb"/>
<line x1="768.0" y1="94.0" x2="804.0" y2="94.0" stroke="#2563eb" stroke-width="2.2" stroke-dasharray="8 5"/>
<text x="812.0" y="98.0" font-family="sans-serif" font-size="12">bs1 — validation</text>
<polyline points="94.07,411.50 99.76,419.67 105.55,457.02 111.42,461.00 117.74,468.72 123.64,485.14 129.36,453.29 135.13,464.07 141.56,477.56 147.29,488.88 152.66,493.89 158.20,501.48 164.25,504.99 169.75,515.99 175.23,512.41 180.68,476.55 186.71,471.24 192.29,492.95 197.86,466.53 203.44,469.82" fill="none" stroke="#dc2626" stroke-width="2.2"/>
<line x1="768.0" y1="118.0" x2="804.0" y2="118.0" stroke="#dc2626" stroke-width="2.2"/>
<text x="812.0" y="122.0" font-family="sans-serif" font-size="12">bs8 — train</text>
<polyline points="112.04,464.73 135.74,479.35 158.75,487.47 181.23,490.34 203.99,493.66" fill="none" stroke="#dc2626" stroke-width="2.2" stroke-dasharray="8 5"/>
<circle cx="112.04" cy="464.73" r="3.2" fill="#dc2626"/>
<circle cx="135.74" cy="479.35" r="3.2" fill="#dc2626"/>
<circle cx="158.75" cy="487.47" r="3.2" fill="#dc2626"/>
<circle cx="181.23" cy="490.34" r="3.2" fill="#dc2626"/>
<circle cx="203.99" cy="493.66" r="3.2" fill="#dc2626"/>
<line x1="768.0" y1="142.0" x2="804.0" y2="142.0" stroke="#dc2626" stroke-width="2.2" stroke-dasharray="8 5"/>
<text x="812.0" y="146.0" font-family="sans-serif" font-size="12">bs8 — validation</text>
<polyline points="91.06,371.00 94.03,430.48 96.92,454.86 99.89,475.62 103.50,491.20 106.58,485.52 109.70,490.62 112.78,503.61 116.43,517.67 119.54,508.14 122.60,523.95 125.55,513.33 129.10,522.75 132.01,532.74 134.90,533.64 137.81,523.58 141.27,524.55 144.17,523.76 147.07,522.22 149.94,523.79" fill="none" stroke="#16a34a" stroke-width="2.2"/>
<line x1="768.0" y1="166.0" x2="804.0" y2="166.0" stroke="#16a34a" stroke-width="2.2"/>
<text x="812.0" y="170.0" font-family="sans-serif" font-size="12">bs32 — train</text>
<polyline points="100.45,475.69 113.37,507.15 126.12,519.22 138.36,527.57 150.49,530.73" fill="none" stroke="#16a34a" stroke-width="2.2" stroke-dasharray="8 5"/>
<circle cx="100.45" cy="475.69" r="3.2" fill="#16a34a"/>
<circle cx="113.37" cy="507.15" r="3.2" fill="#16a34a"/>
<circle cx="126.12" cy="519.22" r="3.2" fill="#16a34a"/>
<circle cx="138.36" cy="527.57" r="3.2" fill="#16a34a"/>
<circle cx="150.49" cy="530.73" r="3.2" fill="#16a34a"/>
<line x1="768.0" y1="190.0" x2="804.0" y2="190.0" stroke="#16a34a" stroke-width="2.2" stroke-dasharray="8 5"/>
<text x="812.0" y="194.0" font-family="sans-serif" font-size="12">bs32 — validation</text>
<polyline points="90.60,292.07 93.08,390.26 95.55,428.46 98.03,451.61 101.08,475.12 103.56,482.13 106.05,497.14 108.53,502.45 111.56,515.85 114.04,514.36 116.52,526.79 119.00,521.57 122.03,528.12 124.51,536.51 126.99,536.59 129.47,526.58 132.50,540.59 134.97,532.87 137.46,540.61 139.94,537.40" fill="none" stroke="#9333ea" stroke-width="2.2"/>
<line x1="768.0" y1="214.0" x2="804.0" y2="214.0" stroke="#9333ea" stroke-width="2.2"/>
<text x="812.0" y="218.0" font-family="sans-serif" font-size="12">bs64 — train</text>
<polyline points="98.59,457.72 109.08,504.97 119.55,524.27 130.02,537.08 140.49,547.27" fill="none" stroke="#9333ea" stroke-width="2.2" stroke-dasharray="8 5"/>
<circle cx="98.59" cy="457.72" r="3.2" fill="#9333ea"/>
<circle cx="109.08" cy="504.97" r="3.2" fill="#9333ea"/>
<circle cx="119.55" cy="524.27" r="3.2" fill="#9333ea"/>
<circle cx="130.02" cy="537.08" r="3.2" fill="#9333ea"/>
<circle cx="140.49" cy="547.27" r="3.2" fill="#9333ea"/>
<line x1="768.0" y1="238.0" x2="804.0" y2="238.0" stroke="#9333ea" stroke-width="2.2" stroke-dasharray="8 5"/>
<text x="812.0" y="242.0" font-family="sans-serif" font-size="12">bs64 — validation</text>
<polyline points="90.00,92.73 91.88,288.95 93.76,358.17 95.63,388.18 97.50,401.79 99.92,421.10 101.79,441.20 103.67,449.78 105.54,461.08 107.42,471.45 109.83,483.23 111.70,482.61 113.58,501.63 115.46,500.43 117.34,506.66 119.79,510.98 121.68,515.95 123.57,523.45 125.46,524.53 127.34,514.59 129.76,530.75 131.64,537.88 133.54,539.82 135.41,536.24 137.30,535.30" fill="none" stroke="#ea580c" stroke-width="2.2"/>
<line x1="768.0" y1="262.0" x2="804.0" y2="262.0" stroke="#ea580c" stroke-width="2.2"/>
<text x="812.0" y="266.0" font-family="sans-serif" font-size="12">bs128 — train</text>
<polyline points="98.05,407.06 107.96,474.61 117.90,508.98 127.89,528.00 137.86,541.79" fill="none" stroke="#ea580c" stroke-width="2.2" stroke-dasharray="8 5"/>
<circle cx="98.05" cy="407.06" r="3.2" fill="#ea580c"/>
<circle cx="107.96" cy="474.61" r="3.2" fill="#ea580c"/>
<circle cx="117.90" cy="508.98" r="3.2" fill="#ea580c"/>
<circle cx="127.89" cy="528.00" r="3.2" fill="#ea580c"/>
<circle cx="137.86" cy="541.79" r="3.2" fill="#ea580c"/>
<line x1="768.0" y1="286.0" x2="804.0" y2="286.0" stroke="#ea580c" stroke-width="2.2" stroke-dasharray="8 5"/>
<text x="812.0" y="290.0" font-family="sans-serif" font-size="12">bs128 — validation</text>
<polyline points="90.66,137.69 93.16,312.80 95.67,325.21 98.23,362.98 101.39,384.11 103.92,398.11 106.44,416.90 108.93,429.28 112.01,444.21 114.49,449.44 116.98,471.19 119.47,476.99 122.54,483.36 125.03,492.82 127.54,497.36 130.02,494.28 133.09,506.05 135.57,506.95 138.05,514.87 140.53,519.01" fill="none" stroke="#0891b2" stroke-width="2.2"/>
<line x1="768.0" y1="310.0" x2="804.0" y2="310.0" stroke="#0891b2" stroke-width="2.2"/>
<text x="812.0" y="314.0" font-family="sans-serif" font-size="12">bs160 — train</text>
<polyline points="98.83,366.87 109.52,433.35 120.05,477.41 130.61,504.65 141.12,523.49" fill="none" stroke="#0891b2" stroke-width="2.2" stroke-dasharray="8 5"/>
<circle cx="98.83" cy="366.87" r="3.2" fill="#0891b2"/>
<circle cx="109.52" cy="433.35" r="3.2" fill="#0891b2"/>
<circle cx="120.05" cy="477.41" r="3.2" fill="#0891b2"/>
<circle cx="130.61" cy="504.65" r="3.2" fill="#0891b2"/>
<circle cx="141.12" cy="523.49" r="3.2" fill="#0891b2"/>
<line x1="768.0" y1="334.0" x2="804.0" y2="334.0" stroke="#0891b2" stroke-width="2.2" stroke-dasharray="8 5"/>
<text x="812.0" y="338.0" font-family="sans-serif" font-size="12">bs160 — validation</text>
</svg>