<svg xmlns="http://www.w3.org/2000/svg" width="1000" height="650" viewBox="0 0 1000 650">
<rect width="100%" height="100%" fill="white"/>
<text x="500.0" y="32" text-anchor="middle" font-family="sans-serif" font-size="22">TinyStories fixed-LR batch-size comparison</text>
<line x1="90.00" y1="70.0" x2="90.00" y2="570.0" stroke="#e5e7eb"/>
<text x="90.00" y="595.0" text-anchor="middle" font-family="sans-serif" font-size="12">3.277e+05</text>
<line x1="90.0" y1="70.00" x2="740.0" y2="70.00" stroke="#e5e7eb"/>
<text x="78.0" y="74.00" text-anchor="end" font-family="sans-serif" font-size="12">6.705</text>
<line x1="220.00" y1="70.0" x2="220.00" y2="570.0" stroke="#e5e7eb"/>
<text x="220.00" y="595.0" text-anchor="middle" font-family="sans-serif" font-size="12">1.901e+06</text>
<line x1="90.0" y1="170.00" x2="740.0" y2="170.00" stroke="#e5e7eb"/>
<text x="78.0" y="174.00" text-anchor="end" font-family="sans-serif" font-size="12">5.772</text>
<line x1="350.00" y1="70.0" x2="350.00" y2="570.0" stroke="#e5e7eb"/>
<text x="350.00" y="595.0" text-anchor="middle" font-family="sans-serif" font-size="12">3.473e+06</text>
<line x1="90.0" y1="270.00" x2="740.0" y2="270.00" stroke="#e5e7eb"/>
<text x="78.0" y="274.00" text-anchor="end" font-family="sans-serif" font-size="12">4.839</text>
<line x1="480.00" y1="70.0" x2="480.00" y2="570.0" stroke="#e5e7eb"/>
<text x="480.00" y="595.0" text-anchor="middle" font-family="sans-serif" font-size="12">5.046e+06</text>
<line x1="90.0" y1="370.00" x2="740.0" y2="370.00" stroke="#e5e7eb"/>
<text x="78.0" y="374.00" text-anchor="end" font-family="sans-serif" font-size="12">3.907</text>
<line x1="610.00" y1="70.0" x2="610.00" y2="570.0" stroke="#e5e7eb"/>
<text x="610.00" y="595.0" text-anchor="middle" font-family="sans-serif" font-size="12">6.619e+06</text>
<line x1="90.0" y1="470.00" x2="740.0" y2="470.00" stroke="#e5e7eb"/>
<text x="78.0" y="474.00" text-anchor="end" font-family="sans-serif" font-size="12">2.974</text>
<line x1="740.00" y1="70.0" x2="740.00" y2="570.0" stroke="#e5e7eb"/>
<text x="740.00" y="595.0" text-anchor="middle" font-family="sans-serif" font-size="12">8.192e+06</text>
<line x1="90.0" y1="570.00" x2="740.0" y2="570.00" stroke="#e5e7eb"/>
<text x="78.0" y="574.00" text-anchor="end" font-family="sans-serif" font-size="12">2.042</text>
<line x1="90.0" y1="570.0" x2="740.0" y2="570.0" stroke="#111827" stroke-width="1.5"/>
<line x1="90.0" y1="70.0" x2="90.0" y2="570.0" stroke="#111827" stroke-width="1.5"/>
<text x="415.0" y="628" text-anchor="middle" font-family="sans-serif" font-size="15">Training tokens processed</text>
<text x="24" y="320.0" text-anchor="middle" transform="rotate(-90 24 320.0)" font-family="sans-serif" font-size="15">Cross-entropy loss</text>
<polyline points="96.77,449.80 130.62,419.29 164.48,349.68 198.33,442.76 232.19,425.06 266.04,453.13 299.90,331.65 333.75,390.95 367.60,360.52 401.46,451.11 435.31,443.39 469.17,423.14 503.02,469.74 536.88,469.07 570.73,539.27 604.58,396.20 638.44,465.71 672.29,499.53 706.15,359.48 740.00,468.76" fill="none" stroke="#2563eb" stroke-width="2.2"/>
<line x1="768.0" y1="70.0" x2="804.0" y2="70.0" stroke="#2563eb" stroke-width="2.2"/>
<text x="812.0" y="74.0" font-family="sans-serif" font-size="12">bs1 — train</text>
<polyline points="198.33,421.15 333.75,430.89 469.17,444.44 604.58,450.76 740.00,463.24" fill="none" stroke="#2563eb" stroke-width="2.2" stroke-dasharray="8 5"/>
<circle cx="198.33" cy="421.15" r="3.2" fill="#2563eb"/>
<circle cx="333.75" cy="430.89" r="3.2" fill="#2563eb"/>
<circle cx="469.17" cy="444.44" r="3.2" fill="#2563eb"/>
<circle cx="604.58" cy="450.76" r="3.2" fill="#2563eb"/>
<circle cx="740.00" cy="463.24" r="3.2" fill="#2563eb"/>
<line x1="768.0" y1="94.0" x2="804.0" y2="94.0" stroke="#2563eb" stroke-width="2.2" stroke-dasharray="8 5"/>
<text x="812.0" y="98.0" font-family="sans-serif" font-size="12">bs1 — validation</text>
<polyline points="96.77,411.50 130.62,419.67 164.48,457.02 198.33,461.00 232.19,468.72 266.04,485.14 299.90,453.29 333.75,464.07 367.60,477.56 401.46,488.88 435.31,493.89 469.17,501.48 503.02,504.99 536.88,515.99 570.73,512.41 604.58,476.55 638.44,471.24 672.29,492.95 706.15,466.53 740.00,469.82" fill="none" stroke="#dc2626" stroke-width="2.2"/>
<line x1="768.0" y1="118.0" x2="804.0" y2="118.0" stroke="#dc2626" stroke-width="2.2"/>
<text x="812.0" y="122.0" font-family="sans-serif" font-size="12">bs8 — train</text>
<polyline points="198.33,464.73 333.75,479.35 469.17,487.47 604.58,490.34 740.00,493.66" fill="none" stroke="#dc2626" stroke-width="2.2" stroke-dasharray="8 5"/>
<circle cx="198.33" cy="464.73" r="3.2" fill="#dc2626"/>
<circle cx="333.75" cy="479.35" r="3.2" fill="#dc2626"/>
<circle cx="469.17" cy="487.47" r="3.2" fill="#dc2626"/>
<circle cx="604.58" cy="490.34" r="3.2" fill="#dc2626"/>
<circle cx="740.00" cy="493.66" r="3.2" fill="#dc2626"/>
<line x1="768.0" y1="142.0" x2="804.0" y2="142.0" stroke="#dc2626" stroke-width="2.2" stroke-dasharray="8 5"/>
<text x="812.0" y="146.0" font-family="sans-serif" font-size="12">bs8 — validation</text>
<polyline points="96.77,371.00 130.62,430.48 164.48,454.86 198.33,475.62 232.19,491.20 266.04,485.52 299.90,490.62 333.75,503.61 367.60,517.67 401.46,508.14 435.31,523.95 469.17,513.33 503.02,522.75 536.88,532.74 570.73,533.64 604.58,523.58 638.44,524.55 672.29,523.76 706.15,522.22 740.00,523.79" fill="none" stroke="#16a34a" stroke-width="2.2"/>
<line x1="768.0" y1="166.0" x2="804.0" y2="166.0" stroke="#16a34a" stroke-width="2.2"/>
<text x="812.0" y="170.0" font-family="sans-serif" font-size="12">bs32 — train</text>
<polyline points="198.33,475.69 333.75,507.15 469.17,519.22 604.58,527.57 740.00,530.73" fill="none" stroke="#16a34a" stroke-width="2.2" stroke-dasharray="8 5"/>
<circle cx="198.33" cy="475.69" r="3.2" fill="#16a34a"/>
<circle cx="333.75" cy="507.15" r="3.2" fill="#16a34a"/>
<circle cx="469.17" cy="519.22" r="3.2" fill="#16a34a"/>
<circle cx="604.58" cy="527.57" r="3.2" fill="#16a34a"/>
<circle cx="740.00" cy="530.73" r="3.2" fill="#16a34a"/>
<line x1="768.0" y1="190.0" x2="804.0" y2="190.0" stroke="#16a34a" stroke-width="2.2" stroke-dasharray="8 5"/>
<text x="812.0" y="194.0" font-family="sans-serif" font-size="12">bs32 — validation</text>
<polyline points="96.77,292.07 130.62,390.26 164.48,428.46 198.33,451.61 232.19,475.12 266.04,482.13 299.90,497.14 333.75,502.45 367.60,515.85 401.46,514.36 435.31,526.79 469.17,521.57 503.02,528.12 536.88,536.51 570.73,536.59 604.58,526.58 638.44,540.59 672.29,532.87 706.15,540.61 740.00,537.40" fill="none" stroke="#9333ea" stroke-width="2.2"/>
<line x1="768.0" y1="214.0" x2="804.0" y2="214.0" stroke="#9333ea" stroke-width="2.2"/>
<text x="812.0" y="218.0" font-family="sans-serif" font-size="12">bs64 — train</text>
<polyline points="198.33,457.72 333.75,504.97 469.17,524.27 604.58,537.08 740.00,547.27" fill="none" stroke="#9333ea" stroke-width="2.2" stroke-dasharray="8 5"/>
<circle cx="198.33" cy="457.72" r="3.2" fill="#9333ea"/>
<circle cx="333.75" cy="504.97" r="3.2" fill="#9333ea"/>
<circle cx="469.17" cy="524.27" r="3.2" fill="#9333ea"/>
<circle cx="604.58" cy="537.08" r="3.2" fill="#9333ea"/>
<circle cx="740.00" cy="547.27" r="3.2" fill="#9333ea"/>
<line x1="768.0" y1="238.0" x2="804.0" y2="238.0" stroke="#9333ea" stroke-width="2.2" stroke-dasharray="8 5"/>
<text x="812.0" y="242.0" font-family="sans-serif" font-size="12">bs64 — validation</text>
<polyline points="90.00,92.73 117.08,288.95 144.17,358.17 171.25,388.18 198.33,401.79 225.42,421.10 252.50,441.20 279.58,449.78 306.67,461.08 333.75,471.45 360.83,483.23 387.92,482.61 415.00,501.63 442.08,500.43 469.17,506.66 496.25,510.98 523.33,515.95 550.42,523.45 577.50,524.53 604.58,514.59 631.67,530.75 658.75,537.88 685.83,539.82 712.92,536.24 740.00,535.30" fill="none" stroke="#ea580c" stroke-width="2.2"/>
<line x1="768.0" y1="262.0" x2="804.0" y2="262.0" stroke="#ea580c" stroke-width="2.2"/>
<text x="812.0" y="266.0" font-family="sans-serif" font-size="12">bs128 — train</text>
<polyline points="198.33,407.06 333.75,474.61 469.17,508.98 604.58,528.00 740.00,541.79" fill="none" stroke="#ea580c" stroke-width="2.2" stroke-dasharray="8 5"/>
<circle cx="198.33" cy="407.06" r="3.2" fill="#ea580c"/>
<circle cx="333.75" cy="474.61" r="3.2" fill="#ea580c"/>
<circle cx="469.17" cy="508.98" r="3.2" fill="#ea580c"/>
<circle cx="604.58" cy="528.00" r="3.2" fill="#ea580c"/>
<circle cx="740.00" cy="541.79" r="3.2" fill="#ea580c"/>
<line x1="768.0" y1="286.0" x2="804.0" y2="286.0" stroke="#ea580c" stroke-width="2.2" stroke-dasharray="8 5"/>
<text x="812.0" y="290.0" font-family="sans-serif" font-size="12">bs128 — validation</text>
<polyline points="96.77,137.69 130.62,312.80 164.48,325.21 198.33,362.98 232.19,384.11 266.04,398.11 299.90,416.90 333.75,429.28 367.60,444.21 401.46,449.44 435.31,471.19 469.17,476.99 503.02,483.36 536.88,492.82 570.73,497.36 604.58,494.28 638.44,506.05 672.29,506.95 706.15,514.87 740.00,519.01" fill="none" stroke="#0891b2" stroke-width="2.2"/>
<line x1="768.0" y1="310.0" x2="804.0" y2="310.0" stroke="#0891b2" stroke-width="2.2"/>
<text x="812.0" y="314.0" font-family="sans-serif" font-size="12">bs160 — train</text>
<polyline points="198.33,366.87 333.75,433.35 469.17,477.41 604.58,504.65 740.00,523.49" fill="none" stroke="#0891b2" stroke-width="2.2" stroke-dasharray="8 5"/>
<circle cx="198.33" cy="366.87" r="3.2" fill="#0891b2"/>
<circle cx="333.75" cy="433.35" r="3.2" fill="#0891b2"/>
<circle cx="469.17" cy="477.41" r="3.2" fill="#0891b2"/>
<circle cx="604.58" cy="504.65" r="3.2" fill="#0891b2"/>
<circle cx="740.00" cy="523.49" r="3.2" fill="#0891b2"/>
<line x1="768.0" y1="334.0" x2="804.0" y2="334.0" stroke="#0891b2" stroke-width="2.2" stroke-dasharray="8 5"/>
<text x="812.0" y="338.0" font-family="sans-serif" font-size="12">bs160 — validation</text>
</svg>