<svg xmlns="http://www.w3.org/2000/svg" width="1000" height="650" viewBox="0 0 1000 650">
<rect width="100%" height="100%" fill="white"/>
<text x="500.0" y="32" text-anchor="middle" font-family="sans-serif" font-size="22">TinyStories learning-rate stability boundary</text>
<line x1="90.00" y1="70.0" x2="90.00" y2="570.0" stroke="#e5e7eb"/>
<text x="90.00" y="595.0" text-anchor="middle" font-family="sans-serif" font-size="12">2.868</text>
<line x1="90.0" y1="70.00" x2="740.0" y2="70.00" stroke="#e5e7eb"/>
<text x="78.0" y="74.00" text-anchor="end" font-family="sans-serif" font-size="12">5231</text>
<line x1="220.00" y1="70.0" x2="220.00" y2="570.0" stroke="#e5e7eb"/>
<text x="220.00" y="595.0" text-anchor="middle" font-family="sans-serif" font-size="12">16.31</text>
<line x1="90.0" y1="170.00" x2="740.0" y2="170.00" stroke="#e5e7eb"/>
<text x="78.0" y="174.00" text-anchor="end" font-family="sans-serif" font-size="12">4136</text>
<line x1="350.00" y1="70.0" x2="350.00" y2="570.0" stroke="#e5e7eb"/>
<text x="350.00" y="595.0" text-anchor="middle" font-family="sans-serif" font-size="12">29.75</text>
<line x1="90.0" y1="270.00" x2="740.0" y2="270.00" stroke="#e5e7eb"/>
<text x="78.0" y="274.00" text-anchor="end" font-family="sans-serif" font-size="12">3040</text>
<line x1="480.00" y1="70.0" x2="480.00" y2="570.0" stroke="#e5e7eb"/>
<text x="480.00" y="595.0" text-anchor="middle" font-family="sans-serif" font-size="12">43.18</text>
<line x1="90.0" y1="370.00" x2="740.0" y2="370.00" stroke="#e5e7eb"/>
<text x="78.0" y="374.00" text-anchor="end" font-family="sans-serif" font-size="12">1945</text>
<line x1="610.00" y1="70.0" x2="610.00" y2="570.0" stroke="#e5e7eb"/>
<text x="610.00" y="595.0" text-anchor="middle" font-family="sans-serif" font-size="12">56.62</text>
<line x1="90.0" y1="470.00" x2="740.0" y2="470.00" stroke="#e5e7eb"/>
<text x="78.0" y="474.00" text-anchor="end" font-family="sans-serif" font-size="12">850.1</text>
<line x1="740.00" y1="70.0" x2="740.00" y2="570.0" stroke="#e5e7eb"/>
<text x="740.00" y="595.0" text-anchor="middle" font-family="sans-serif" font-size="12">70.06</text>
<line x1="90.0" y1="570.00" x2="740.0" y2="570.00" stroke="#e5e7eb"/>
<text x="78.0" y="574.00" text-anchor="end" font-family="sans-serif" font-size="12">-245.1</text>
<line x1="90.0" y1="570.0" x2="740.0" y2="570.0" stroke="#111827" stroke-width="1.5"/>
<line x1="90.0" y1="70.0" x2="90.0" y2="570.0" stroke="#111827" stroke-width="1.5"/>
<text x="415.0" y="628" text-anchor="middle" font-family="sans-serif" font-size="15">Cumulative wall-clock time (seconds)</text>
<text x="24" y="320.0" text-anchor="middle" transform="rotate(-90 24 320.0)" font-family="sans-serif" font-size="15">Cross-entropy loss</text>
<polyline points="90.00,546.94 114.87,546.99 139.41,547.07 164.27,547.18 189.04,547.20 221.03,547.23 245.65,547.23 270.29,547.23 294.80,547.25 319.52,547.25 351.46,547.24 376.16,547.25 400.81,547.25 425.58,547.26 450.25,547.25 482.28,547.26 506.97,547.26 534.25,547.27 558.97,547.26 583.82,547.26 615.88,547.27 640.44,547.27 665.10,547.27 689.67,547.27 714.45,547.27" fill="none" stroke="#2563eb" stroke-width="2.2"/>
<line x1="768.0" y1="70.0" x2="804.0" y2="70.0" stroke="#2563eb" stroke-width="2.2"/>
<text x="812.0" y="74.0" font-family="sans-serif" font-size="12">3e-2 — train</text>
<polyline points="196.17,547.21 326.75,547.25 457.44,547.26 591.11,547.27 721.63,547.27" fill="none" stroke="#2563eb" stroke-width="2.2" stroke-dasharray="8 5"/>
<circle cx="196.17" cy="547.21" r="3.2" fill="#2563eb"/>
<circle cx="326.75" cy="547.25" r="3.2" fill="#2563eb"/>
<circle cx="457.44" cy="547.26" r="3.2" fill="#2563eb"/>
<circle cx="591.11" cy="547.27" r="3.2" fill="#2563eb"/>
<circle cx="721.63" cy="547.27" r="3.2" fill="#2563eb"/>
<line x1="768.0" y1="94.0" x2="804.0" y2="94.0" stroke="#2563eb" stroke-width="2.2" stroke-dasharray="8 5"/>
<text x="812.0" y="98.0" font-family="sans-serif" font-size="12">3e-2 — validation</text>
<polyline points="91.34,546.48 116.89,546.59 141.87,547.09 166.91,547.06 192.10,547.13 224.38,547.17 250.37,547.16 276.29,547.17 302.38,547.18 328.59,547.19 362.26,547.16 388.41,547.19 414.50,547.19 440.49,547.20 466.58,547.19 499.18,547.20 524.35,547.21 549.48,547.21 574.95,547.20 599.96,547.20 632.33,547.21 657.42,547.21 682.46,547.21 707.64,547.21 732.67,547.21" fill="none" stroke="#dc2626" stroke-width="2.2"/>
<line x1="768.0" y1="118.0" x2="804.0" y2="118.0" stroke="#dc2626" stroke-width="2.2"/>
<text x="812.0" y="122.0" font-family="sans-serif" font-size="12">1e-1 — train</text>
<polyline points="199.31,547.14 336.16,547.18 473.97,547.20 607.20,547.21 740.00,547.21" fill="none" stroke="#dc2626" stroke-width="2.2" stroke-dasharray="8 5"/>
<circle cx="199.31" cy="547.14" r="3.2" fill="#dc2626"/>
<circle cx="336.16" cy="547.18" r="3.2" fill="#dc2626"/>
<circle cx="473.97" cy="547.20" r="3.2" fill="#dc2626"/>
<circle cx="607.20" cy="547.21" r="3.2" fill="#dc2626"/>
<circle cx="740.00" cy="547.21" r="3.2" fill="#dc2626"/>
<line x1="768.0" y1="142.0" x2="804.0" y2="142.0" stroke="#dc2626" stroke-width="2.2" stroke-dasharray="8 5"/>
<text x="812.0" y="146.0" font-family="sans-serif" font-size="12">1e-1 — validation</text>
<polyline points="90.60,545.51 115.75,545.94 140.99,545.59 166.13,546.17 191.24,545.99 223.67,546.15 248.85,546.40 273.73,546.43 299.08,546.74 324.10,546.66 356.68,546.69 381.73,546.81 406.88,546.92 432.22,546.99 457.35,547.01 489.84,547.06 514.95,547.03 540.13,547.05 565.20,547.06 590.37,547.05 622.77,547.09 647.96,547.08 673.13,547.08 698.36,547.10 723.50,547.09" fill="none" stroke="#16a34a" stroke-width="2.2"/>
<line x1="768.0" y1="166.0" x2="804.0" y2="166.0" stroke="#16a34a" stroke-width="2.2"/>
<text x="812.0" y="170.0" font-family="sans-serif" font-size="12">3e-1 — train</text>
<polyline points="198.48,546.40 331.46,546.85 464.71,547.00 597.73,547.07 730.77,547.10" fill="none" stroke="#16a34a" stroke-width="2.2" stroke-dasharray="8 5"/>
<circle cx="198.48" cy="546.40" r="3.2" fill="#16a34a"/>
<circle cx="331.46" cy="546.85" r="3.2" fill="#16a34a"/>
<circle cx="464.71" cy="547.00" r="3.2" fill="#16a34a"/>
<circle cx="597.73" cy="547.07" r="3.2" fill="#16a34a"/>
<circle cx="730.77" cy="547.10" r="3.2" fill="#16a34a"/>
<line x1="768.0" y1="190.0" x2="804.0" y2="190.0" stroke="#16a34a" stroke-width="2.2" stroke-dasharray="8 5"/>
<text x="812.0" y="194.0" font-family="sans-serif" font-size="12">3e-1 — validation</text>
<polyline points="90.38,537.82 115.62,531.41 140.78,521.36 165.66,518.60 190.87,501.06 223.52,514.49 248.83,495.57 273.73,517.25 298.74,516.49 323.98,513.19 356.42,504.62 381.56,512.42 406.61,517.30 431.66,509.36 456.85,508.23 489.28,501.64 514.21,493.85 539.45,521.83 564.62,514.54 589.92,511.34 622.28,501.06 647.35,509.13 672.64,510.44 697.62,511.06 722.86,525.34" fill="none" stroke="#9333ea" stroke-width="2.2"/>
<line x1="768.0" y1="214.0" x2="804.0" y2="214.0" stroke="#9333ea" stroke-width="2.2"/>
<text x="812.0" y="218.0" font-family="sans-serif" font-size="12">1e0 — train</text>
<polyline points="198.32,490.68 331.25,524.98 464.17,507.55 597.29,505.40 730.12,526.32" fill="none" stroke="#9333ea" stroke-width="2.2" stroke-dasharray="8 5"/>
<circle cx="198.32" cy="490.68" r="3.2" fill="#9333ea"/>
<circle cx="331.25" cy="524.98" r="3.2" fill="#9333ea"/>
<circle cx="464.17" cy="507.55" r="3.2" fill="#9333ea"/>
<circle cx="597.29" cy="505.40" r="3.2" fill="#9333ea"/>
<circle cx="730.12" cy="526.32" r="3.2" fill="#9333ea"/>
<line x1="768.0" y1="238.0" x2="804.0" y2="238.0" stroke="#9333ea" stroke-width="2.2" stroke-dasharray="8 5"/>
<text x="812.0" y="242.0" font-family="sans-serif" font-size="12">1e0 — validation</text>
<polyline points="90.52,521.39 115.50,416.20 140.94,372.11 166.00,400.01 191.20,372.27 223.58,352.89 248.76,342.09 274.07,301.09 299.13,302.15 324.27,92.73 356.75,171.29 381.86,346.83 404.34,290.11 425.78,124.43 447.40,336.79 477.15,273.81 500.24,312.71 523.33,310.01 546.21,372.72 569.14,298.17 598.70,301.46 621.64,322.89 644.54,293.59 667.55,274.15 690.88,260.24" fill="none" stroke="#ea580c" stroke-width="2.2"/>
<line x1="768.0" y1="262.0" x2="804.0" y2="262.0" stroke="#ea580c" stroke-width="2.2"/>
<text x="812.0" y="266.0" font-family="sans-serif" font-size="12">3e0 — train</text>
<polyline points="198.56,374.00 331.55,202.71 453.78,295.22 575.82,333.07 697.55,350.09" fill="none" stroke="#ea580c" stroke-width="2.2" stroke-dasharray="8 5"/>
<circle cx="198.56" cy="374.00" r="3.2" fill="#ea580c"/>
<circle cx="331.55" cy="202.71" r="3.2" fill="#ea580c"/>
<circle cx="453.78" cy="295.22" r="3.2" fill="#ea580c"/>
<circle cx="575.82" cy="333.07" r="3.2" fill="#ea580c"/>
<circle cx="697.55" cy="350.09" r="3.2" fill="#ea580c"/>
<line x1="768.0" y1="286.0" x2="804.0" y2="286.0" stroke="#ea580c" stroke-width="2.2" stroke-dasharray="8 5"/>
<text x="812.0" y="290.0" font-family="sans-serif" font-size="12">3e0 — validation</text>
</svg>