<svg xmlns="http://www.w3.org/2000/svg" width="1000" height="650" viewBox="0 0 1000 650">
<rect width="100%" height="100%" fill="white"/>
<text x="500.0" y="32" text-anchor="middle" font-family="sans-serif" font-size="22">TinyStories coarse learning-rate sweep with high-LR probe</text>
<line x1="90.00" y1="70.0" x2="90.00" y2="570.0" stroke="#e5e7eb"/>
<text x="90.00" y="595.0" text-anchor="middle" font-family="sans-serif" font-size="12">3.277e+05</text>
<line x1="90.0" y1="70.00" x2="740.0" y2="70.00" stroke="#e5e7eb"/>
<text x="78.0" y="74.00" text-anchor="end" font-family="sans-serif" font-size="12">9.391</text>
<line x1="220.00" y1="70.0" x2="220.00" y2="570.0" stroke="#e5e7eb"/>
<text x="220.00" y="595.0" text-anchor="middle" font-family="sans-serif" font-size="12">1.901e+06</text>
<line x1="90.0" y1="170.00" x2="740.0" y2="170.00" stroke="#e5e7eb"/>
<text x="78.0" y="174.00" text-anchor="end" font-family="sans-serif" font-size="12">7.911</text>
<line x1="350.00" y1="70.0" x2="350.00" y2="570.0" stroke="#e5e7eb"/>
<text x="350.00" y="595.0" text-anchor="middle" font-family="sans-serif" font-size="12">3.473e+06</text>
<line x1="90.0" y1="270.00" x2="740.0" y2="270.00" stroke="#e5e7eb"/>
<text x="78.0" y="274.00" text-anchor="end" font-family="sans-serif" font-size="12">6.432</text>
<line x1="480.00" y1="70.0" x2="480.00" y2="570.0" stroke="#e5e7eb"/>
<text x="480.00" y="595.0" text-anchor="middle" font-family="sans-serif" font-size="12">5.046e+06</text>
<line x1="90.0" y1="370.00" x2="740.0" y2="370.00" stroke="#e5e7eb"/>
<text x="78.0" y="374.00" text-anchor="end" font-family="sans-serif" font-size="12">4.952</text>
<line x1="610.00" y1="70.0" x2="610.00" y2="570.0" stroke="#e5e7eb"/>
<text x="610.00" y="595.0" text-anchor="middle" font-family="sans-serif" font-size="12">6.619e+06</text>
<line x1="90.0" y1="470.00" x2="740.0" y2="470.00" stroke="#e5e7eb"/>
<text x="78.0" y="474.00" text-anchor="end" font-family="sans-serif" font-size="12">3.473</text>
<line x1="740.00" y1="70.0" x2="740.00" y2="570.0" stroke="#e5e7eb"/>
<text x="740.00" y="595.0" text-anchor="middle" font-family="sans-serif" font-size="12">8.192e+06</text>
<line x1="90.0" y1="570.00" x2="740.0" y2="570.00" stroke="#e5e7eb"/>
<text x="78.0" y="574.00" text-anchor="end" font-family="sans-serif" font-size="12">1.994</text>
<line x1="90.0" y1="570.0" x2="740.0" y2="570.0" stroke="#111827" stroke-width="1.5"/>
<line x1="90.0" y1="70.0" x2="90.0" y2="570.0" stroke="#111827" stroke-width="1.5"/>
<text x="415.0" y="628" text-anchor="middle" font-family="sans-serif" font-size="15">Training tokens processed</text>
<text x="24" y="320.0" text-anchor="middle" transform="rotate(-90 24 320.0)" font-family="sans-serif" font-size="15">Cross-entropy loss</text>
<polyline points="90.00,92.73 117.08,144.06 144.17,197.21 171.25,241.08 198.33,277.47 225.42,311.96 252.50,332.68 279.58,355.18 306.67,376.38 333.75,390.85 360.83,395.17 387.92,410.03 415.00,418.25 442.08,427.32 469.17,428.56 496.25,437.10 523.33,444.43 550.42,449.12 577.50,448.55 604.58,450.85 631.67,460.36 658.75,458.38 685.83,464.17 712.92,466.12 740.00,472.82" fill="none" stroke="#2563eb" stroke-width="2.2"/>
<line x1="768.0" y1="70.0" x2="804.0" y2="70.0" stroke="#2563eb" stroke-width="2.2"/>
<text x="812.0" y="74.0" font-family="sans-serif" font-size="12">1e-4 — train</text>
<polyline points="198.33,281.80 333.75,389.04 469.17,433.59 604.58,456.21 740.00,471.29" fill="none" stroke="#2563eb" stroke-width="2.2" stroke-dasharray="8 5"/>
<circle cx="198.33" cy="281.80" r="3.2" fill="#2563eb"/>
<circle cx="333.75" cy="389.04" r="3.2" fill="#2563eb"/>
<circle cx="469.17" cy="433.59" r="3.2" fill="#2563eb"/>
<circle cx="604.58" cy="456.21" r="3.2" fill="#2563eb"/>
<circle cx="740.00" cy="471.29" r="3.2" fill="#2563eb"/>
<line x1="768.0" y1="94.0" x2="804.0" y2="94.0" stroke="#2563eb" stroke-width="2.2" stroke-dasharray="8 5"/>
<text x="812.0" y="98.0" font-family="sans-serif" font-size="12">1e-4 — validation</text>
<polyline points="90.00,119.48 117.08,220.33 144.17,313.64 171.25,365.46 198.33,394.23 225.42,422.63 252.50,430.54 279.58,442.95 306.67,457.44 333.75,465.11 360.83,462.11 387.92,472.73 415.00,476.52 442.08,483.49 469.17,483.10 496.25,490.91 523.33,495.19 550.42,499.57 577.50,498.03 604.58,498.80 631.67,507.68 658.75,505.14 685.83,510.83 712.92,511.33 740.00,518.63" fill="none" stroke="#dc2626" stroke-width="2.2"/>
<line x1="768.0" y1="118.0" x2="804.0" y2="118.0" stroke="#dc2626" stroke-width="2.2"/>
<text x="812.0" y="122.0" font-family="sans-serif" font-size="12">3e-4 — train</text>
<polyline points="198.33,398.47 333.75,461.25 469.17,487.31 604.58,504.50 740.00,516.14" fill="none" stroke="#dc2626" stroke-width="2.2" stroke-dasharray="8 5"/>
<circle cx="198.33" cy="398.47" r="3.2" fill="#dc2626"/>
<circle cx="333.75" cy="461.25" r="3.2" fill="#dc2626"/>
<circle cx="469.17" cy="487.31" r="3.2" fill="#dc2626"/>
<circle cx="604.58" cy="504.50" r="3.2" fill="#dc2626"/>
<circle cx="740.00" cy="516.14" r="3.2" fill="#dc2626"/>
<line x1="768.0" y1="142.0" x2="804.0" y2="142.0" stroke="#dc2626" stroke-width="2.2" stroke-dasharray="8 5"/>
<text x="812.0" y="146.0" font-family="sans-serif" font-size="12">3e-4 — validation</text>
<polyline points="90.00,183.23 117.08,352.81 144.17,413.07 171.25,438.12 198.33,449.68 225.42,466.69 252.50,469.76 279.58,480.46 306.67,494.71 333.75,502.02 360.83,498.54 387.92,508.26 415.00,511.77 442.08,517.99 469.17,517.23 496.25,524.80 523.33,527.61 550.42,531.30 577.50,529.20 604.58,529.31 631.67,537.10 658.75,535.04 685.83,539.64 712.92,540.21 740.00,547.27" fill="none" stroke="#16a34a" stroke-width="2.2"/>
<line x1="768.0" y1="166.0" x2="804.0" y2="166.0" stroke="#16a34a" stroke-width="2.2"/>
<text x="812.0" y="170.0" font-family="sans-serif" font-size="12">1e-3 — train</text>
<polyline points="198.33,453.38 333.75,497.29 469.17,521.13 604.58,534.90 740.00,544.54" fill="none" stroke="#16a34a" stroke-width="2.2" stroke-dasharray="8 5"/>
<circle cx="198.33" cy="453.38" r="3.2" fill="#16a34a"/>
<circle cx="333.75" cy="497.29" r="3.2" fill="#16a34a"/>
<circle cx="469.17" cy="521.13" r="3.2" fill="#16a34a"/>
<circle cx="604.58" cy="534.90" r="3.2" fill="#16a34a"/>
<circle cx="740.00" cy="544.54" r="3.2" fill="#16a34a"/>
<line x1="768.0" y1="190.0" x2="804.0" y2="190.0" stroke="#16a34a" stroke-width="2.2" stroke-dasharray="8 5"/>
<text x="812.0" y="194.0" font-family="sans-serif" font-size="12">1e-3 — validation</text>
<polyline points="90.00,286.43 117.08,374.58 144.17,424.79 171.25,443.52 198.33,454.08 225.42,469.54 252.50,472.68 279.58,482.63 306.67,496.61 333.75,504.20 360.83,500.93 387.92,510.64 415.00,512.88 442.08,519.20 469.17,517.82 496.25,525.55 523.33,527.54 550.42,531.95 577.50,529.42 604.58,528.63 631.67,536.51 658.75,535.03 685.83,539.43 712.92,539.82 740.00,547.25" fill="none" stroke="#9333ea" stroke-width="2.2"/>
<line x1="768.0" y1="214.0" x2="804.0" y2="214.0" stroke="#9333ea" stroke-width="2.2"/>
<text x="812.0" y="218.0" font-family="sans-serif" font-size="12">3e-3 — train</text>
<polyline points="198.33,457.42 333.75,499.94 469.17,521.42 604.58,534.78 740.00,544.01" fill="none" stroke="#9333ea" stroke-width="2.2" stroke-dasharray="8 5"/>
<circle cx="198.33" cy="457.42" r="3.2" fill="#9333ea"/>
<circle cx="333.75" cy="499.94" r="3.2" fill="#9333ea"/>
<circle cx="469.17" cy="521.42" r="3.2" fill="#9333ea"/>
<circle cx="604.58" cy="534.78" r="3.2" fill="#9333ea"/>
<circle cx="740.00" cy="544.01" r="3.2" fill="#9333ea"/>
<line x1="768.0" y1="238.0" x2="804.0" y2="238.0" stroke="#9333ea" stroke-width="2.2" stroke-dasharray="8 5"/>
<text x="812.0" y="242.0" font-family="sans-serif" font-size="12">3e-3 — validation</text>
<polyline points="90.00,367.67 117.08,356.19 144.17,371.98 171.25,399.52 198.33,412.29 225.42,429.84 252.50,430.64 279.58,438.55 306.67,450.52 333.75,455.27 360.83,450.80 387.92,458.10 415.00,460.88 442.08,463.42 469.17,456.05 496.25,460.03 523.33,458.53 550.42,460.86 577.50,446.83 604.58,444.36 631.67,453.24 658.75,450.06 685.83,454.97 712.92,456.20 740.00,461.03" fill="none" stroke="#ea580c" stroke-width="2.2"/>
<line x1="768.0" y1="262.0" x2="804.0" y2="262.0" stroke="#ea580c" stroke-width="2.2"/>
<text x="812.0" y="266.0" font-family="sans-serif" font-size="12">1e-2 — train</text>
<polyline points="198.33,416.45 333.75,450.92 469.17,458.55 604.58,450.56 740.00,457.35" fill="none" stroke="#ea580c" stroke-width="2.2" stroke-dasharray="8 5"/>
<circle cx="198.33" cy="416.45" r="3.2" fill="#ea580c"/>
<circle cx="333.75" cy="450.92" r="3.2" fill="#ea580c"/>
<circle cx="469.17" cy="458.55" r="3.2" fill="#ea580c"/>
<circle cx="604.58" cy="450.56" r="3.2" fill="#ea580c"/>
<circle cx="740.00" cy="457.35" r="3.2" fill="#ea580c"/>
<line x1="768.0" y1="286.0" x2="804.0" y2="286.0" stroke="#ea580c" stroke-width="2.2" stroke-dasharray="8 5"/>
<text x="812.0" y="290.0" font-family="sans-serif" font-size="12">1e-2 — validation</text>
<polyline points="90.00,197.05 117.08,235.32 144.17,293.59 171.25,376.23 198.33,395.73 225.42,411.97 252.50,411.86 279.58,417.15 306.67,427.76 333.75,430.24 360.83,423.51 387.92,430.62 415.00,430.63 442.08,434.68 469.17,432.11 496.25,436.77 523.33,439.39 550.42,441.08 577.50,437.76 604.58,437.81 631.67,443.87 658.75,440.33 685.83,444.99 712.92,443.71 740.00,445.96" fill="none" stroke="#0891b2" stroke-width="2.2"/>
<line x1="768.0" y1="310.0" x2="804.0" y2="310.0" stroke="#0891b2" stroke-width="2.2"/>
<text x="812.0" y="314.0" font-family="sans-serif" font-size="12">3e-2 — train</text>
<polyline points="198.33,399.05 333.75,426.63 469.17,435.86 604.58,442.25 740.00,443.28" fill="none" stroke="#0891b2" stroke-width="2.2" stroke-dasharray="8 5"/>
<circle cx="198.33" cy="399.05" r="3.2" fill="#0891b2"/>
<circle cx="333.75" cy="426.63" r="3.2" fill="#0891b2"/>
<circle cx="469.17" cy="435.86" r="3.2" fill="#0891b2"/>
<circle cx="604.58" cy="442.25" r="3.2" fill="#0891b2"/>
<circle cx="740.00" cy="443.28" r="3.2" fill="#0891b2"/>
<line x1="768.0" y1="334.0" x2="804.0" y2="334.0" stroke="#0891b2" stroke-width="2.2" stroke-dasharray="8 5"/>
<text x="812.0" y="338.0" font-family="sans-serif" font-size="12">3e-2 — validation</text>
</svg>