<svg xmlns="http://www.w3.org/2000/svg" width="1000" height="650" viewBox="0 0 1000 650">
<rect width="100%" height="100%" fill="white"/>
<text x="500.0" y="32" text-anchor="middle" font-family="sans-serif" font-size="22">TinyStories 250-step constant-LR fine sweep</text>
<line x1="90.00" y1="70.0" x2="90.00" y2="570.0" stroke="#e5e7eb"/>
<text x="90.00" y="595.0" text-anchor="middle" font-family="sans-serif" font-size="12">2.846</text>
<line x1="90.0" y1="70.00" x2="740.0" y2="70.00" stroke="#e5e7eb"/>
<text x="78.0" y="74.00" text-anchor="end" font-family="sans-serif" font-size="12">7.989</text>
<line x1="220.00" y1="70.0" x2="220.00" y2="570.0" stroke="#e5e7eb"/>
<text x="220.00" y="595.0" text-anchor="middle" font-family="sans-serif" font-size="12">16.13</text>
<line x1="90.0" y1="170.00" x2="740.0" y2="170.00" stroke="#e5e7eb"/>
<text x="78.0" y="174.00" text-anchor="end" font-family="sans-serif" font-size="12">6.787</text>
<line x1="350.00" y1="70.0" x2="350.00" y2="570.0" stroke="#e5e7eb"/>
<text x="350.00" y="595.0" text-anchor="middle" font-family="sans-serif" font-size="12">29.4</text>
<line x1="90.0" y1="270.00" x2="740.0" y2="270.00" stroke="#e5e7eb"/>
<text x="78.0" y="274.00" text-anchor="end" font-family="sans-serif" font-size="12">5.586</text>
<line x1="480.00" y1="70.0" x2="480.00" y2="570.0" stroke="#e5e7eb"/>
<text x="480.00" y="595.0" text-anchor="middle" font-family="sans-serif" font-size="12">42.68</text>
<line x1="90.0" y1="370.00" x2="740.0" y2="370.00" stroke="#e5e7eb"/>
<text x="78.0" y="374.00" text-anchor="end" font-family="sans-serif" font-size="12">4.384</text>
<line x1="610.00" y1="70.0" x2="610.00" y2="570.0" stroke="#e5e7eb"/>
<text x="610.00" y="595.0" text-anchor="middle" font-family="sans-serif" font-size="12">55.96</text>
<line x1="90.0" y1="470.00" x2="740.0" y2="470.00" stroke="#e5e7eb"/>
<text x="78.0" y="474.00" text-anchor="end" font-family="sans-serif" font-size="12">3.183</text>
<line x1="740.00" y1="70.0" x2="740.00" y2="570.0" stroke="#e5e7eb"/>
<text x="740.00" y="595.0" text-anchor="middle" font-family="sans-serif" font-size="12">69.24</text>
<line x1="90.0" y1="570.00" x2="740.0" y2="570.00" stroke="#e5e7eb"/>
<text x="78.0" y="574.00" text-anchor="end" font-family="sans-serif" font-size="12">1.982</text>
<line x1="90.0" y1="570.0" x2="740.0" y2="570.0" stroke="#111827" stroke-width="1.5"/>
<line x1="90.0" y1="70.0" x2="90.0" y2="570.0" stroke="#111827" stroke-width="1.5"/>
<text x="415.0" y="628" text-anchor="middle" font-family="sans-serif" font-size="15">Cumulative wall-clock time (seconds)</text>
<text x="24" y="320.0" text-anchor="middle" transform="rotate(-90 24 320.0)" font-family="sans-serif" font-size="15">Cross-entropy loss</text>
<polyline points="90.16,92.73 115.30,301.55 140.43,375.75 165.63,406.60 190.68,420.83 223.20,441.79 248.22,445.56 273.35,458.74 298.32,476.29 323.60,485.29 356.04,481.01 381.11,492.98 406.12,497.30 431.22,504.96 456.41,504.01 488.86,513.34 513.72,516.81 538.98,521.34 564.31,518.76 589.56,518.89 621.78,528.49 646.96,525.95 671.92,531.61 696.92,532.31 721.95,541.01" fill="none" stroke="#2563eb" stroke-width="2.2"/>
<line x1="768.0" y1="70.0" x2="804.0" y2="70.0" stroke="#2563eb" stroke-width="2.2"/>
<text x="812.0" y="74.0" font-family="sans-serif" font-size="12">1e-3 — train</text>
<polyline points="198.04,425.39 330.95,479.47 463.65,508.82 596.85,525.78 729.20,537.65" fill="none" stroke="#2563eb" stroke-width="2.2" stroke-dasharray="8 5"/>
<circle cx="198.04" cy="425.39" r="3.2" fill="#2563eb"/>
<circle cx="330.95" cy="479.47" r="3.2" fill="#2563eb"/>
<circle cx="463.65" cy="508.82" r="3.2" fill="#2563eb"/>
<circle cx="596.85" cy="525.78" r="3.2" fill="#2563eb"/>
<circle cx="729.20" cy="537.65" r="3.2" fill="#2563eb"/>
<line x1="768.0" y1="94.0" x2="804.0" y2="94.0" stroke="#2563eb" stroke-width="2.2" stroke-dasharray="8 5"/>
<text x="812.0" y="98.0" font-family="sans-serif" font-size="12">1e-3 — validation</text>
<polyline points="90.00,130.76 115.08,338.71 140.02,392.12 165.12,417.23 189.99,429.41 222.26,450.35 247.12,454.31 272.06,467.37 296.97,484.64 322.13,494.28 354.27,489.73 379.23,502.32 404.08,505.23 429.09,512.55 454.17,511.75 486.49,521.10 511.47,523.97 536.48,528.74 561.38,525.86 586.44,525.33 618.73,534.77 643.82,532.22 668.72,538.97 693.68,538.52 718.49,547.27" fill="none" stroke="#dc2626" stroke-width="2.2"/>
<line x1="768.0" y1="118.0" x2="804.0" y2="118.0" stroke="#dc2626" stroke-width="2.2"/>
<text x="812.0" y="122.0" font-family="sans-serif" font-size="12">1.5e-3 — train</text>
<polyline points="197.27,433.65 329.39,488.62 461.46,516.08 593.70,532.72 725.81,544.04" fill="none" stroke="#dc2626" stroke-width="2.2" stroke-dasharray="8 5"/>
<circle cx="197.27" cy="433.65" r="3.2" fill="#dc2626"/>
<circle cx="329.39" cy="488.62" r="3.2" fill="#dc2626"/>
<circle cx="461.46" cy="516.08" r="3.2" fill="#dc2626"/>
<circle cx="593.70" cy="532.72" r="3.2" fill="#dc2626"/>
<circle cx="725.81" cy="544.04" r="3.2" fill="#dc2626"/>
<line x1="768.0" y1="142.0" x2="804.0" y2="142.0" stroke="#dc2626" stroke-width="2.2" stroke-dasharray="8 5"/>
<text x="812.0" y="146.0" font-family="sans-serif" font-size="12">1.5e-3 — validation</text>
<polyline points="90.09,164.60 115.16,352.54 140.48,376.00 165.37,415.72 190.46,428.43 222.82,447.85 247.87,451.73 272.67,464.42 297.64,481.53 322.71,490.50 354.91,485.65 379.94,498.78 404.79,502.61 429.70,509.81 454.54,509.04 486.87,518.67 511.64,521.39 536.61,526.87 561.58,523.78 586.62,523.57 618.97,532.89 643.87,530.57 668.71,536.93 693.76,536.82 719.59,545.97" fill="none" stroke="#16a34a" stroke-width="2.2"/>
<line x1="768.0" y1="166.0" x2="804.0" y2="166.0" stroke="#16a34a" stroke-width="2.2"/>
<text x="812.0" y="170.0" font-family="sans-serif" font-size="12">2e-3 — train</text>
<polyline points="197.72,432.18 329.92,485.38 461.85,513.79 593.86,530.84 727.11,542.82" fill="none" stroke="#16a34a" stroke-width="2.2" stroke-dasharray="8 5"/>
<circle cx="197.72" cy="432.18" r="3.2" fill="#16a34a"/>
<circle cx="329.92" cy="485.38" r="3.2" fill="#16a34a"/>
<circle cx="461.85" cy="513.79" r="3.2" fill="#16a34a"/>
<circle cx="593.86" cy="530.84" r="3.2" fill="#16a34a"/>
<circle cx="727.11" cy="542.82" r="3.2" fill="#16a34a"/>
<line x1="768.0" y1="190.0" x2="804.0" y2="190.0" stroke="#16a34a" stroke-width="2.2" stroke-dasharray="8 5"/>
<text x="812.0" y="194.0" font-family="sans-serif" font-size="12">2e-3 — validation</text>
<polyline points="90.52,194.52 116.27,346.84 142.16,400.57 168.06,423.87 194.11,434.43 227.35,454.73 253.21,458.67 278.98,471.70 304.86,488.14 330.98,497.05 364.63,491.88 390.43,503.67 416.29,506.30 442.23,513.31 468.22,512.72 500.43,521.90 525.23,524.89 550.19,528.77 575.34,525.97 600.35,524.72 632.70,534.22 657.73,531.74 682.89,538.58 707.80,537.29 732.78,546.32" fill="none" stroke="#9333ea" stroke-width="2.2"/>
<line x1="768.0" y1="214.0" x2="804.0" y2="214.0" stroke="#9333ea" stroke-width="2.2"/>
<text x="812.0" y="218.0" font-family="sans-serif" font-size="12">2.5e-3 — train</text>
<polyline points="201.61,438.80 338.51,492.06 475.45,517.19 607.68,532.55 740.00,543.37" fill="none" stroke="#9333ea" stroke-width="2.2" stroke-dasharray="8 5"/>
<circle cx="201.61" cy="438.80" r="3.2" fill="#9333ea"/>
<circle cx="338.51" cy="492.06" r="3.2" fill="#9333ea"/>
<circle cx="475.45" cy="517.19" r="3.2" fill="#9333ea"/>
<circle cx="607.68" cy="532.55" r="3.2" fill="#9333ea"/>
<circle cx="740.00" cy="543.37" r="3.2" fill="#9333ea"/>
<line x1="768.0" y1="238.0" x2="804.0" y2="238.0" stroke="#9333ea" stroke-width="2.2" stroke-dasharray="8 5"/>
<text x="812.0" y="242.0" font-family="sans-serif" font-size="12">2.5e-3 — validation</text>
<polyline points="90.06,219.81 115.21,328.36 140.30,390.18 165.38,413.25 190.63,426.25 223.03,445.29 248.12,449.16 273.22,461.42 298.35,478.62 323.28,487.97 355.44,483.95 380.69,495.91 405.83,498.67 430.81,506.45 455.88,504.75 488.17,514.27 513.34,516.72 538.33,522.15 563.49,519.03 588.47,518.06 620.91,527.76 645.82,525.94 670.88,531.36 695.96,531.83 720.95,540.99" fill="none" stroke="#ea580c" stroke-width="2.2"/>
<line x1="768.0" y1="262.0" x2="804.0" y2="262.0" stroke="#ea580c" stroke-width="2.2"/>
<text x="812.0" y="266.0" font-family="sans-serif" font-size="12">3e-3 — train</text>
<polyline points="197.89,430.37 330.62,482.73 463.06,509.18 595.78,525.63 728.13,537.00" fill="none" stroke="#ea580c" stroke-width="2.2" stroke-dasharray="8 5"/>
<circle cx="197.89" cy="430.37" r="3.2" fill="#ea580c"/>
<circle cx="330.62" cy="482.73" r="3.2" fill="#ea580c"/>
<circle cx="463.06" cy="509.18" r="3.2" fill="#ea580c"/>
<circle cx="595.78" cy="525.63" r="3.2" fill="#ea580c"/>
<circle cx="728.13" cy="537.00" r="3.2" fill="#ea580c"/>
<line x1="768.0" y1="286.0" x2="804.0" y2="286.0" stroke="#ea580c" stroke-width="2.2" stroke-dasharray="8 5"/>
<text x="812.0" y="290.0" font-family="sans-serif" font-size="12">3e-3 — validation</text>
</svg>