<svg xmlns="http://www.w3.org/2000/svg" width="1000" height="650" viewBox="0 0 1000 650">
<rect width="100%" height="100%" fill="white"/>
<text x="500.0" y="32" text-anchor="middle" font-family="sans-serif" font-size="22">TinyStories RoPE versus NoPE</text>
<line x1="90.00" y1="70.0" x2="90.00" y2="570.0" stroke="#e5e7eb"/>
<text x="90.00" y="595.0" text-anchor="middle" font-family="sans-serif" font-size="12">5.618</text>
<line x1="90.0" y1="70.00" x2="740.0" y2="70.00" stroke="#e5e7eb"/>
<text x="78.0" y="74.00" text-anchor="end" font-family="sans-serif" font-size="12">5.67</text>
<line x1="220.00" y1="70.0" x2="220.00" y2="570.0" stroke="#e5e7eb"/>
<text x="220.00" y="595.0" text-anchor="middle" font-family="sans-serif" font-size="12">62.98</text>
<line x1="90.0" y1="170.00" x2="740.0" y2="170.00" stroke="#e5e7eb"/>
<text x="78.0" y="174.00" text-anchor="end" font-family="sans-serif" font-size="12">4.822</text>
<line x1="350.00" y1="70.0" x2="350.00" y2="570.0" stroke="#e5e7eb"/>
<text x="350.00" y="595.0" text-anchor="middle" font-family="sans-serif" font-size="12">120.3</text>
<line x1="90.0" y1="270.00" x2="740.0" y2="270.00" stroke="#e5e7eb"/>
<text x="78.0" y="274.00" text-anchor="end" font-family="sans-serif" font-size="12">3.975</text>
<line x1="480.00" y1="70.0" x2="480.00" y2="570.0" stroke="#e5e7eb"/>
<text x="480.00" y="595.0" text-anchor="middle" font-family="sans-serif" font-size="12">177.7</text>
<line x1="90.0" y1="370.00" x2="740.0" y2="370.00" stroke="#e5e7eb"/>
<text x="78.0" y="374.00" text-anchor="end" font-family="sans-serif" font-size="12">3.127</text>
<line x1="610.00" y1="70.0" x2="610.00" y2="570.0" stroke="#e5e7eb"/>
<text x="610.00" y="595.0" text-anchor="middle" font-family="sans-serif" font-size="12">235.1</text>
<line x1="90.0" y1="470.00" x2="740.0" y2="470.00" stroke="#e5e7eb"/>
<text x="78.0" y="474.00" text-anchor="end" font-family="sans-serif" font-size="12">2.279</text>
<line x1="740.00" y1="70.0" x2="740.00" y2="570.0" stroke="#e5e7eb"/>
<text x="740.00" y="595.0" text-anchor="middle" font-family="sans-serif" font-size="12">292.4</text>
<line x1="90.0" y1="570.00" x2="740.0" y2="570.00" stroke="#e5e7eb"/>
<text x="78.0" y="574.00" text-anchor="end" font-family="sans-serif" font-size="12">1.431</text>
<line x1="90.0" y1="570.0" x2="740.0" y2="570.0" stroke="#111827" stroke-width="1.5"/>
<line x1="90.0" y1="70.0" x2="90.0" y2="570.0" stroke="#111827" stroke-width="1.5"/>
<text x="415.0" y="628" text-anchor="middle" font-family="sans-serif" font-size="15">Cumulative wall-clock time (seconds)</text>
<text x="24" y="320.0" text-anchor="middle" transform="rotate(-90 24 320.0)" font-family="sans-serif" font-size="15">Cross-entropy loss</text>
<polyline points="90.95,92.73 104.08,278.78 117.19,337.17 130.30,382.13 144.91,405.72 157.98,429.60 171.02,445.14 184.03,439.47 198.68,450.17 211.68,461.72 224.76,471.18 237.78,480.62 252.40,487.79 265.51,487.88 278.62,493.26 291.70,493.14 306.33,499.10 319.39,506.42 332.57,508.84 345.69,506.97 360.12,509.88 372.80,510.76 385.48,516.88 398.16,511.34 412.32,516.18 424.96,514.04 437.62,519.08 450.29,516.70 464.41,526.55 477.06,524.41 489.74,528.15 502.43,527.16 516.59,532.92 529.28,527.75 541.97,526.38 554.73,528.90 568.97,537.08 581.70,530.85 594.39,538.11 607.11,533.54 621.25,535.08 634.01,531.93 646.68,541.13 659.46,544.16 673.64,535.78 686.29,543.87 698.92,539.00 711.55,534.85 725.68,544.19 738.46,547.27" fill="none" stroke="#2563eb" stroke-width="2.2"/>
<line x1="768.0" y1="70.0" x2="804.0" y2="70.0" stroke="#2563eb" stroke-width="2.2"/>
<text x="812.0" y="74.0" font-family="sans-serif" font-size="12">RoPE — train</text>
<polyline points="131.85,386.59 185.58,453.44 239.33,481.40 293.25,496.56 347.22,507.24 399.66,515.77 451.79,522.81 503.92,528.38 556.22,533.34 608.60,537.28 660.96,540.07 713.03,542.01 740.00,542.62" fill="none" stroke="#2563eb" stroke-width="2.2" stroke-dasharray="8 5"/>
<circle cx="131.85" cy="386.59" r="3.2" fill="#2563eb"/>
<circle cx="185.58" cy="453.44" r="3.2" fill="#2563eb"/>
<circle cx="239.33" cy="481.40" r="3.2" fill="#2563eb"/>
<circle cx="293.25" cy="496.56" r="3.2" fill="#2563eb"/>
<circle cx="347.22" cy="507.24" r="3.2" fill="#2563eb"/>
<circle cx="399.66" cy="515.77" r="3.2" fill="#2563eb"/>
<circle cx="451.79" cy="522.81" r="3.2" fill="#2563eb"/>
<circle cx="503.92" cy="528.38" r="3.2" fill="#2563eb"/>
<circle cx="556.22" cy="533.34" r="3.2" fill="#2563eb"/>
<circle cx="608.60" cy="537.28" r="3.2" fill="#2563eb"/>
<circle cx="660.96" cy="540.07" r="3.2" fill="#2563eb"/>
<circle cx="713.03" cy="542.01" r="3.2" fill="#2563eb"/>
<circle cx="740.00" cy="542.62" r="3.2" fill="#2563eb"/>
<line x1="768.0" y1="94.0" x2="804.0" y2="94.0" stroke="#2563eb" stroke-width="2.2" stroke-dasharray="8 5"/>
<text x="812.0" y="98.0" font-family="sans-serif" font-size="12">RoPE — validation</text>
<polyline points="90.00,94.73 102.00,270.39 113.87,301.82 125.83,329.00 139.06,342.23 150.94,372.13 162.79,393.47 174.70,392.55 187.96,408.27 199.78,423.02 211.60,437.46 223.50,448.95 236.70,460.17 248.52,461.53 260.43,468.81 272.25,469.99 285.67,477.14 297.64,485.47 309.64,489.27 321.70,489.94 335.03,491.07 347.02,493.75 359.00,500.74 371.01,494.71 384.39,499.70 396.56,498.21 408.43,504.29 420.37,502.20 433.50,512.99 445.40,509.96 457.34,515.26 469.17,513.52 482.25,518.86 494.20,513.62 505.96,513.60 517.70,516.85 530.84,524.44 542.60,518.58 554.34,525.91 566.12,520.91 579.25,523.44 591.01,520.53 602.85,528.46 614.55,532.70 627.70,523.30 639.54,532.40 651.29,527.21 663.13,524.08 676.22,533.23 688.21,535.83" fill="none" stroke="#dc2626" stroke-width="2.2"/>
<line x1="768.0" y1="118.0" x2="804.0" y2="118.0" stroke="#dc2626" stroke-width="2.2"/>
<text x="812.0" y="122.0" font-family="sans-serif" font-size="12">NoPE — train</text>
<polyline points="127.21,332.88 176.07,406.82 224.86,450.06 273.60,473.97 323.06,488.75 372.39,499.80 421.71,508.55 470.51,515.20 519.05,520.67 567.46,524.86 615.90,528.03 664.46,530.16 689.58,530.79" fill="none" stroke="#dc2626" stroke-width="2.2" stroke-dasharray="8 5"/>
<circle cx="127.21" cy="332.88" r="3.2" fill="#dc2626"/>
<circle cx="176.07" cy="406.82" r="3.2" fill="#dc2626"/>
<circle cx="224.86" cy="450.06" r="3.2" fill="#dc2626"/>
<circle cx="273.60" cy="473.97" r="3.2" fill="#dc2626"/>
<circle cx="323.06" cy="488.75" r="3.2" fill="#dc2626"/>
<circle cx="372.39" cy="499.80" r="3.2" fill="#dc2626"/>
<circle cx="421.71" cy="508.55" r="3.2" fill="#dc2626"/>
<circle cx="470.51" cy="515.20" r="3.2" fill="#dc2626"/>
<circle cx="519.05" cy="520.67" r="3.2" fill="#dc2626"/>
<circle cx="567.46" cy="524.86" r="3.2" fill="#dc2626"/>
<circle cx="615.90" cy="528.03" r="3.2" fill="#dc2626"/>
<circle cx="664.46" cy="530.16" r="3.2" fill="#dc2626"/>
<circle cx="689.58" cy="530.79" r="3.2" fill="#dc2626"/>
<line x1="768.0" y1="142.0" x2="804.0" y2="142.0" stroke="#dc2626" stroke-width="2.2" stroke-dasharray="8 5"/>
<text x="812.0" y="146.0" font-family="sans-serif" font-size="12">NoPE — validation</text>
</svg>