<svg xmlns="http://www.w3.org/2000/svg" width="1000" height="650" viewBox="0 0 1000 650">
<rect width="100%" height="100%" fill="white"/>
<text x="500.0" y="32" text-anchor="middle" font-family="sans-serif" font-size="22">TinyStories RoPE versus NoPE</text>
<line x1="90.00" y1="70.0" x2="90.00" y2="570.0" stroke="#e5e7eb"/>
<text x="90.00" y="595.0" text-anchor="middle" font-family="sans-serif" font-size="12">25</text>
<line x1="90.0" y1="70.00" x2="740.0" y2="70.00" stroke="#e5e7eb"/>
<text x="78.0" y="74.00" text-anchor="end" font-family="sans-serif" font-size="12">5.67</text>
<line x1="220.00" y1="70.0" x2="220.00" y2="570.0" stroke="#e5e7eb"/>
<text x="220.00" y="595.0" text-anchor="middle" font-family="sans-serif" font-size="12">270</text>
<line x1="90.0" y1="170.00" x2="740.0" y2="170.00" stroke="#e5e7eb"/>
<text x="78.0" y="174.00" text-anchor="end" font-family="sans-serif" font-size="12">4.822</text>
<line x1="350.00" y1="70.0" x2="350.00" y2="570.0" stroke="#e5e7eb"/>
<text x="350.00" y="595.0" text-anchor="middle" font-family="sans-serif" font-size="12">515</text>
<line x1="90.0" y1="270.00" x2="740.0" y2="270.00" stroke="#e5e7eb"/>
<text x="78.0" y="274.00" text-anchor="end" font-family="sans-serif" font-size="12">3.975</text>
<line x1="480.00" y1="70.0" x2="480.00" y2="570.0" stroke="#e5e7eb"/>
<text x="480.00" y="595.0" text-anchor="middle" font-family="sans-serif" font-size="12">760</text>
<line x1="90.0" y1="370.00" x2="740.0" y2="370.00" stroke="#e5e7eb"/>
<text x="78.0" y="374.00" text-anchor="end" font-family="sans-serif" font-size="12">3.127</text>
<line x1="610.00" y1="70.0" x2="610.00" y2="570.0" stroke="#e5e7eb"/>
<text x="610.00" y="595.0" text-anchor="middle" font-family="sans-serif" font-size="12">1005</text>
<line x1="90.0" y1="470.00" x2="740.0" y2="470.00" stroke="#e5e7eb"/>
<text x="78.0" y="474.00" text-anchor="end" font-family="sans-serif" font-size="12">2.279</text>
<line x1="740.00" y1="70.0" x2="740.00" y2="570.0" stroke="#e5e7eb"/>
<text x="740.00" y="595.0" text-anchor="middle" font-family="sans-serif" font-size="12">1250</text>
<line x1="90.0" y1="570.00" x2="740.0" y2="570.00" stroke="#e5e7eb"/>
<text x="78.0" y="574.00" text-anchor="end" font-family="sans-serif" font-size="12">1.431</text>
<line x1="90.0" y1="570.0" x2="740.0" y2="570.0" stroke="#111827" stroke-width="1.5"/>
<line x1="90.0" y1="70.0" x2="90.0" y2="570.0" stroke="#111827" stroke-width="1.5"/>
<text x="415.0" y="628" text-anchor="middle" font-family="sans-serif" font-size="15">Optimizer step</text>
<text x="24" y="320.0" text-anchor="middle" transform="rotate(-90 24 320.0)" font-family="sans-serif" font-size="15">Cross-entropy loss</text>
<polyline points="90.00,92.73 103.27,278.78 116.53,337.17 129.80,382.13 143.06,405.72 156.33,429.60 169.59,445.14 182.86,439.47 196.12,450.17 209.39,461.72 222.65,471.18 235.92,480.62 249.18,487.79 262.45,487.88 275.71,493.26 288.98,493.14 302.24,499.10 315.51,506.42 328.78,508.84 342.04,506.97 355.31,509.88 368.57,510.76 381.84,516.88 395.10,511.34 408.37,516.18 421.63,514.04 434.90,519.08 448.16,516.70 461.43,526.55 474.69,524.41 487.96,528.15 501.22,527.16 514.49,532.92 527.76,527.75 541.02,526.38 554.29,528.90 567.55,537.08 580.82,530.85 594.08,538.11 607.35,533.54 620.61,535.08 633.88,531.93 647.14,541.13 660.41,544.16 673.67,535.78 686.94,543.87 700.20,539.00 713.47,534.85 726.73,544.19 740.00,547.27" fill="none" stroke="#2563eb" stroke-width="2.2"/>
<line x1="768.0" y1="70.0" x2="804.0" y2="70.0" stroke="#2563eb" stroke-width="2.2"/>
<text x="812.0" y="74.0" font-family="sans-serif" font-size="12">RoPE — train</text>
<polyline points="129.80,386.59 182.86,453.44 235.92,481.40 288.98,496.56 342.04,507.24 395.10,515.77 448.16,522.81 501.22,528.38 554.29,533.34 607.35,537.28 660.41,540.07 713.47,542.01 740.00,542.62" fill="none" stroke="#2563eb" stroke-width="2.2" stroke-dasharray="8 5"/>
<circle cx="129.80" cy="386.59" r="3.2" fill="#2563eb"/>
<circle cx="182.86" cy="453.44" r="3.2" fill="#2563eb"/>
<circle cx="235.92" cy="481.40" r="3.2" fill="#2563eb"/>
<circle cx="288.98" cy="496.56" r="3.2" fill="#2563eb"/>
<circle cx="342.04" cy="507.24" r="3.2" fill="#2563eb"/>
<circle cx="395.10" cy="515.77" r="3.2" fill="#2563eb"/>
<circle cx="448.16" cy="522.81" r="3.2" fill="#2563eb"/>
<circle cx="501.22" cy="528.38" r="3.2" fill="#2563eb"/>
<circle cx="554.29" cy="533.34" r="3.2" fill="#2563eb"/>
<circle cx="607.35" cy="537.28" r="3.2" fill="#2563eb"/>
<circle cx="660.41" cy="540.07" r="3.2" fill="#2563eb"/>
<circle cx="713.47" cy="542.01" r="3.2" fill="#2563eb"/>
<circle cx="740.00" cy="542.62" r="3.2" fill="#2563eb"/>
<line x1="768.0" y1="94.0" x2="804.0" y2="94.0" stroke="#2563eb" stroke-width="2.2" stroke-dasharray="8 5"/>
<text x="812.0" y="98.0" font-family="sans-serif" font-size="12">RoPE — validation</text>
<polyline points="90.00,94.73 103.27,270.39 116.53,301.82 129.80,329.00 143.06,342.23 156.33,372.13 169.59,393.47 182.86,392.55 196.12,408.27 209.39,423.02 222.65,437.46 235.92,448.95 249.18,460.17 262.45,461.53 275.71,468.81 288.98,469.99 302.24,477.14 315.51,485.47 328.78,489.27 342.04,489.94 355.31,491.07 368.57,493.75 381.84,500.74 395.10,494.71 408.37,499.70 421.63,498.21 434.90,504.29 448.16,502.20 461.43,512.99 474.69,509.96 487.96,515.26 501.22,513.52 514.49,518.86 527.76,513.62 541.02,513.60 554.29,516.85 567.55,524.44 580.82,518.58 594.08,525.91 607.35,520.91 620.61,523.44 633.88,520.53 647.14,528.46 660.41,532.70 673.67,523.30 686.94,532.40 700.20,527.21 713.47,524.08 726.73,533.23 740.00,535.83" fill="none" stroke="#dc2626" stroke-width="2.2"/>
<line x1="768.0" y1="118.0" x2="804.0" y2="118.0" stroke="#dc2626" stroke-width="2.2"/>
<text x="812.0" y="122.0" font-family="sans-serif" font-size="12">NoPE — train</text>
<polyline points="129.80,332.88 182.86,406.82 235.92,450.06 288.98,473.97 342.04,488.75 395.10,499.80 448.16,508.55 501.22,515.20 554.29,520.67 607.35,524.86 660.41,528.03 713.47,530.16 740.00,530.79" fill="none" stroke="#dc2626" stroke-width="2.2" stroke-dasharray="8 5"/>
<circle cx="129.80" cy="332.88" r="3.2" fill="#dc2626"/>
<circle cx="182.86" cy="406.82" r="3.2" fill="#dc2626"/>
<circle cx="235.92" cy="450.06" r="3.2" fill="#dc2626"/>
<circle cx="288.98" cy="473.97" r="3.2" fill="#dc2626"/>
<circle cx="342.04" cy="488.75" r="3.2" fill="#dc2626"/>
<circle cx="395.10" cy="499.80" r="3.2" fill="#dc2626"/>
<circle cx="448.16" cy="508.55" r="3.2" fill="#dc2626"/>
<circle cx="501.22" cy="515.20" r="3.2" fill="#dc2626"/>
<circle cx="554.29" cy="520.67" r="3.2" fill="#dc2626"/>
<circle cx="607.35" cy="524.86" r="3.2" fill="#dc2626"/>
<circle cx="660.41" cy="528.03" r="3.2" fill="#dc2626"/>
<circle cx="713.47" cy="530.16" r="3.2" fill="#dc2626"/>
<circle cx="740.00" cy="530.79" r="3.2" fill="#dc2626"/>
<line x1="768.0" y1="142.0" x2="804.0" y2="142.0" stroke="#dc2626" stroke-width="2.2" stroke-dasharray="8 5"/>
<text x="812.0" y="146.0" font-family="sans-serif" font-size="12">NoPE — validation</text>
</svg>