<svg xmlns="http://www.w3.org/2000/svg" width="1000" height="650" viewBox="0 0 1000 650">
<rect width="100%" height="100%" fill="white"/>
<text x="500.0" y="32" text-anchor="middle" font-family="sans-serif" font-size="22">OpenWebText LM learning curves</text>
<line x1="90.00" y1="70.0" x2="90.00" y2="570.0" stroke="#e5e7eb"/>
<text x="90.00" y="595.0" text-anchor="middle" font-family="sans-serif" font-size="12">14.92</text>
<line x1="90.0" y1="70.00" x2="740.0" y2="70.00" stroke="#e5e7eb"/>
<text x="78.0" y="74.00" text-anchor="end" font-family="sans-serif" font-size="12">7.259</text>
<line x1="220.00" y1="70.0" x2="220.00" y2="570.0" stroke="#e5e7eb"/>
<text x="220.00" y="595.0" text-anchor="middle" font-family="sans-serif" font-size="12">600.9</text>
<line x1="90.0" y1="170.00" x2="740.0" y2="170.00" stroke="#e5e7eb"/>
<text x="78.0" y="174.00" text-anchor="end" font-family="sans-serif" font-size="12">6.531</text>
<line x1="350.00" y1="70.0" x2="350.00" y2="570.0" stroke="#e5e7eb"/>
<text x="350.00" y="595.0" text-anchor="middle" font-family="sans-serif" font-size="12">1187</text>
<line x1="90.0" y1="270.00" x2="740.0" y2="270.00" stroke="#e5e7eb"/>
<text x="78.0" y="274.00" text-anchor="end" font-family="sans-serif" font-size="12">5.803</text>
<line x1="480.00" y1="70.0" x2="480.00" y2="570.0" stroke="#e5e7eb"/>
<text x="480.00" y="595.0" text-anchor="middle" font-family="sans-serif" font-size="12">1773</text>
<line x1="90.0" y1="370.00" x2="740.0" y2="370.00" stroke="#e5e7eb"/>
<text x="78.0" y="374.00" text-anchor="end" font-family="sans-serif" font-size="12">5.075</text>
<line x1="610.00" y1="70.0" x2="610.00" y2="570.0" stroke="#e5e7eb"/>
<text x="610.00" y="595.0" text-anchor="middle" font-family="sans-serif" font-size="12">2359</text>
<line x1="90.0" y1="470.00" x2="740.0" y2="470.00" stroke="#e5e7eb"/>
<text x="78.0" y="474.00" text-anchor="end" font-family="sans-serif" font-size="12">4.347</text>
<line x1="740.00" y1="70.0" x2="740.00" y2="570.0" stroke="#e5e7eb"/>
<text x="740.00" y="595.0" text-anchor="middle" font-family="sans-serif" font-size="12">2945</text>
<line x1="90.0" y1="570.00" x2="740.0" y2="570.00" stroke="#e5e7eb"/>
<text x="78.0" y="574.00" text-anchor="end" font-family="sans-serif" font-size="12">3.619</text>
<line x1="90.0" y1="570.0" x2="740.0" y2="570.0" stroke="#111827" stroke-width="1.5"/>
<line x1="90.0" y1="70.0" x2="90.0" y2="570.0" stroke="#111827" stroke-width="1.5"/>
<text x="415.0" y="628" text-anchor="middle" font-family="sans-serif" font-size="15">Cumulative wall-clock time (seconds)</text>
<text x="24" y="320.0" text-anchor="middle" transform="rotate(-90 24 320.0)" font-family="sans-serif" font-size="15">Cross-entropy loss</text>
<polyline points="90.00,92.73 93.27,195.31 96.34,245.31 99.36,287.28 102.56,304.65 105.65,329.91 108.73,333.97 112.06,347.80 115.29,358.68 118.42,361.82 121.62,358.55 124.63,385.52 127.67,384.39 130.68,385.15 133.69,389.86 136.73,401.82 139.78,401.15 142.90,407.30 146.23,412.00 149.51,404.35 152.88,413.17 156.15,417.88 159.41,420.61 162.45,427.53 165.49,436.40 168.66,446.80 171.94,442.34 175.04,433.89 178.09,444.53 181.14,443.49 184.27,447.75 187.35,451.24 190.43,442.96 193.69,446.54 196.85,449.67 199.94,459.40 203.11,451.72 206.25,449.54 209.38,450.34 212.68,455.07 216.09,458.35 219.39,459.53 222.68,463.39 225.98,460.87 229.27,471.37 232.57,462.31 235.88,470.78 239.18,467.84 242.47,464.80 245.76,468.32 249.26,461.30 252.55,475.73 255.85,478.24 259.14,466.41 262.43,473.98 265.72,473.38 269.00,478.76 272.28,480.43 275.55,467.79 278.82,483.28 282.18,474.17 285.46,479.29 288.73,470.55 292.08,477.02 295.36,477.41 298.66,480.12 301.94,485.88 305.23,481.87 308.51,479.02 311.79,492.45 315.17,483.88 318.45,482.84 321.73,482.79 325.01,491.27 328.30,486.74 331.58,491.62 334.86,485.51 338.12,488.93 341.38,490.12 344.65,490.28 348.02,482.31 351.30,503.32 354.57,488.03 357.86,499.07 361.13,494.75 364.48,486.81 367.76,480.73 371.04,488.44 374.32,486.95 377.60,490.14 380.96,496.08 384.24,498.49 387.51,503.41 390.80,499.00 394.07,496.29 397.35,490.51 400.62,503.16 403.88,495.98 407.15,492.90 410.41,508.09 413.89,504.90 417.17,503.28 420.44,505.03 423.72,501.79 427.00,502.99 430.28,504.41 433.55,508.43 436.83,507.82 440.10,497.46 443.37,509.58 446.74,505.34 450.01,513.50 453.28,513.07 456.68,506.79 459.95,502.27 463.23,506.94 466.51,502.60 469.77,506.22 473.03,511.93 476.29,502.07 479.64,513.15 482.90,507.26 486.17,518.73 489.44,511.66 492.71,506.15 495.98,509.25 499.26,518.61 502.53,509.76 505.80,509.06 509.08,507.76 512.45,523.32 515.72,518.98 519.00,521.38 522.28,507.56 525.54,504.56 528.82,510.66 532.09,504.90 535.42,525.76 538.69,508.89 541.97,517.21 545.34,520.36 548.62,505.93 551.89,524.75 555.17,512.30 558.44,517.59 561.72,520.60 565.00,512.79 568.28,526.79 571.56,513.63 574.83,530.59 578.31,513.00 581.58,513.93 584.85,518.75 588.12,515.57 591.40,512.33 594.67,525.01 598.01,520.66 601.28,520.34 604.54,516.61 607.81,519.57 611.18,527.16 614.45,527.93 617.72,515.57 620.99,517.60 624.26,534.44 627.53,524.92 630.80,514.60 634.08,524.18 637.36,503.96 640.64,507.09 644.01,519.97 647.28,519.07 650.55,521.54 653.95,531.73 657.22,521.93 660.49,524.83 663.77,523.28 667.05,530.33 670.30,525.57 673.55,527.58 676.91,525.56 680.18,526.93 683.51,516.57 686.78,520.84 690.06,526.92 693.33,532.23 696.60,527.91 699.87,514.85 703.14,525.48 706.42,519.90 709.79,520.11 713.06,519.44 716.29,524.36 719.63,547.27 723.07,535.41 726.32,521.96 729.68,528.81 733.09,528.69 736.50,528.73 739.90,517.65" fill="none" stroke="#2563eb" stroke-width="2.2"/>
<line x1="768.0" y1="70.0" x2="804.0" y2="70.0" stroke="#2563eb" stroke-width="2.2"/>
<text x="812.0" y="74.0" font-family="sans-serif" font-size="12">OWT — train</text>
<polyline points="118.51,361.60 149.60,411.10 181.22,440.20 212.78,456.46 245.85,466.96 278.92,475.48 311.88,482.48 344.74,488.70 377.69,493.49 410.50,498.81 443.47,502.36 476.38,506.52 509.18,510.14 542.07,513.26 574.93,516.02 607.90,518.39 640.73,520.26 673.65,521.85 706.52,523.28 740.00,524.10" fill="none" stroke="#2563eb" stroke-width="2.2" stroke-dasharray="8 5"/>
<circle cx="118.51" cy="361.60" r="3.2" fill="#2563eb"/>
<circle cx="149.60" cy="411.10" r="3.2" fill="#2563eb"/>
<circle cx="181.22" cy="440.20" r="3.2" fill="#2563eb"/>
<circle cx="212.78" cy="456.46" r="3.2" fill="#2563eb"/>
<circle cx="245.85" cy="466.96" r="3.2" fill="#2563eb"/>
<circle cx="278.92" cy="475.48" r="3.2" fill="#2563eb"/>
<circle cx="311.88" cy="482.48" r="3.2" fill="#2563eb"/>
<circle cx="344.74" cy="488.70" r="3.2" fill="#2563eb"/>
<circle cx="377.69" cy="493.49" r="3.2" fill="#2563eb"/>
<circle cx="410.50" cy="498.81" r="3.2" fill="#2563eb"/>
<circle cx="443.47" cy="502.36" r="3.2" fill="#2563eb"/>
<circle cx="476.38" cy="506.52" r="3.2" fill="#2563eb"/>
<circle cx="509.18" cy="510.14" r="3.2" fill="#2563eb"/>
<circle cx="542.07" cy="513.26" r="3.2" fill="#2563eb"/>
<circle cx="574.93" cy="516.02" r="3.2" fill="#2563eb"/>
<circle cx="607.90" cy="518.39" r="3.2" fill="#2563eb"/>
<circle cx="640.73" cy="520.26" r="3.2" fill="#2563eb"/>
<circle cx="673.65" cy="521.85" r="3.2" fill="#2563eb"/>
<circle cx="706.52" cy="523.28" r="3.2" fill="#2563eb"/>
<circle cx="740.00" cy="524.10" r="3.2" fill="#2563eb"/>
<line x1="768.0" y1="94.0" x2="804.0" y2="94.0" stroke="#2563eb" stroke-width="2.2" stroke-dasharray="8 5"/>
<text x="812.0" y="98.0" font-family="sans-serif" font-size="12">OWT — validation</text>
</svg>