<svg xmlns="http://www.w3.org/2000/svg" width="1000" height="650" viewBox="0 0 1000 650">
<rect width="100%" height="100%" fill="white"/>
<text x="500.0" y="32" text-anchor="middle" font-family="sans-serif" font-size="22">OpenWebText LM learning curves</text>
<line x1="90.00" y1="70.0" x2="90.00" y2="570.0" stroke="#e5e7eb"/>
<text x="90.00" y="595.0" text-anchor="middle" font-family="sans-serif" font-size="12">50</text>
<line x1="90.0" y1="70.00" x2="740.0" y2="70.00" stroke="#e5e7eb"/>
<text x="78.0" y="74.00" text-anchor="end" font-family="sans-serif" font-size="12">7.259</text>
<line x1="220.00" y1="70.0" x2="220.00" y2="570.0" stroke="#e5e7eb"/>
<text x="220.00" y="595.0" text-anchor="middle" font-family="sans-serif" font-size="12">2040</text>
<line x1="90.0" y1="170.00" x2="740.0" y2="170.00" stroke="#e5e7eb"/>
<text x="78.0" y="174.00" text-anchor="end" font-family="sans-serif" font-size="12">6.531</text>
<line x1="350.00" y1="70.0" x2="350.00" y2="570.0" stroke="#e5e7eb"/>
<text x="350.00" y="595.0" text-anchor="middle" font-family="sans-serif" font-size="12">4030</text>
<line x1="90.0" y1="270.00" x2="740.0" y2="270.00" stroke="#e5e7eb"/>
<text x="78.0" y="274.00" text-anchor="end" font-family="sans-serif" font-size="12">5.803</text>
<line x1="480.00" y1="70.0" x2="480.00" y2="570.0" stroke="#e5e7eb"/>
<text x="480.00" y="595.0" text-anchor="middle" font-family="sans-serif" font-size="12">6020</text>
<line x1="90.0" y1="370.00" x2="740.0" y2="370.00" stroke="#e5e7eb"/>
<text x="78.0" y="374.00" text-anchor="end" font-family="sans-serif" font-size="12">5.075</text>
<line x1="610.00" y1="70.0" x2="610.00" y2="570.0" stroke="#e5e7eb"/>
<text x="610.00" y="595.0" text-anchor="middle" font-family="sans-serif" font-size="12">8010</text>
<line x1="90.0" y1="470.00" x2="740.0" y2="470.00" stroke="#e5e7eb"/>
<text x="78.0" y="474.00" text-anchor="end" font-family="sans-serif" font-size="12">4.347</text>
<line x1="740.00" y1="70.0" x2="740.00" y2="570.0" stroke="#e5e7eb"/>
<text x="740.00" y="595.0" text-anchor="middle" font-family="sans-serif" font-size="12">1e+04</text>
<line x1="90.0" y1="570.00" x2="740.0" y2="570.00" stroke="#e5e7eb"/>
<text x="78.0" y="574.00" text-anchor="end" font-family="sans-serif" font-size="12">3.619</text>
<line x1="90.0" y1="570.0" x2="740.0" y2="570.0" stroke="#111827" stroke-width="1.5"/>
<line x1="90.0" y1="70.0" x2="90.0" y2="570.0" stroke="#111827" stroke-width="1.5"/>
<text x="415.0" y="628" text-anchor="middle" font-family="sans-serif" font-size="15">Optimizer step</text>
<text x="24" y="320.0" text-anchor="middle" transform="rotate(-90 24 320.0)" font-family="sans-serif" font-size="15">Cross-entropy loss</text>
<polyline points="90.00,92.73 93.27,195.31 96.53,245.31 99.80,287.28 103.07,304.65 106.33,329.91 109.60,333.97 112.86,347.80 116.13,358.68 119.40,361.82 122.66,358.55 125.93,385.52 129.20,384.39 132.46,385.15 135.73,389.86 138.99,401.82 142.26,401.15 145.53,407.30 148.79,412.00 152.06,404.35 155.33,413.17 158.59,417.88 161.86,420.61 165.13,427.53 168.39,436.40 171.66,446.80 174.92,442.34 178.19,433.89 181.46,444.53 184.72,443.49 187.99,447.75 191.26,451.24 194.52,442.96 197.79,446.54 201.06,449.67 204.32,459.40 207.59,451.72 210.85,449.54 214.12,450.34 217.39,455.07 220.65,458.35 223.92,459.53 227.19,463.39 230.45,460.87 233.72,471.37 236.98,462.31 240.25,470.78 243.52,467.84 246.78,464.80 250.05,468.32 253.32,461.30 256.58,475.73 259.85,478.24 263.12,466.41 266.38,473.98 269.65,473.38 272.91,478.76 276.18,480.43 279.45,467.79 282.71,483.28 285.98,474.17 289.25,479.29 292.51,470.55 295.78,477.02 299.05,477.41 302.31,480.12 305.58,485.88 308.84,481.87 312.11,479.02 315.38,492.45 318.64,483.88 321.91,482.84 325.18,482.79 328.44,491.27 331.71,486.74 334.97,491.62 338.24,485.51 341.51,488.93 344.77,490.12 348.04,490.28 351.31,482.31 354.57,503.32 357.84,488.03 361.11,499.07 364.37,494.75 367.64,486.81 370.90,480.73 374.17,488.44 377.44,486.95 380.70,490.14 383.97,496.08 387.24,498.49 390.50,503.41 393.77,499.00 397.04,496.29 400.30,490.51 403.57,503.16 406.83,495.98 410.10,492.90 413.37,508.09 416.63,504.90 419.90,503.28 423.17,505.03 426.43,501.79 429.70,502.99 432.96,504.41 436.23,508.43 439.50,507.82 442.76,497.46 446.03,509.58 449.30,505.34 452.56,513.50 455.83,513.07 459.10,506.79 462.36,502.27 465.63,506.94 468.89,502.60 472.16,506.22 475.43,511.93 478.69,502.07 481.96,513.15 485.23,507.26 488.49,518.73 491.76,511.66 495.03,506.15 498.29,509.25 501.56,518.61 504.82,509.76 508.09,509.06 511.36,507.76 514.62,523.32 517.89,518.98 521.16,521.38 524.42,507.56 527.69,504.56 530.95,510.66 534.22,504.90 537.49,525.76 540.75,508.89 544.02,517.21 547.29,520.36 550.55,505.93 553.82,524.75 557.09,512.30 560.35,517.59 563.62,520.60 566.88,512.79 570.15,526.79 573.42,513.63 576.68,530.59 579.95,513.00 583.22,513.93 586.48,518.75 589.75,515.57 593.02,512.33 596.28,525.01 599.55,520.66 602.81,520.34 606.08,516.61 609.35,519.57 612.61,527.16 615.88,527.93 619.15,515.57 622.41,517.60 625.68,534.44 628.94,524.92 632.21,514.60 635.48,524.18 638.74,503.96 642.01,507.09 645.28,519.97 648.54,519.07 651.81,521.54 655.08,531.73 658.34,521.93 661.61,524.83 664.87,523.28 668.14,530.33 671.41,525.57 674.67,527.58 677.94,525.56 681.21,526.93 684.47,516.57 687.74,520.84 691.01,526.92 694.27,532.23 697.54,527.91 700.80,514.85 704.07,525.48 707.34,519.90 710.60,520.11 713.87,519.44 717.14,524.36 720.40,547.27 723.67,535.41 726.93,521.96 730.20,528.81 733.47,528.69 736.73,528.73 740.00,517.65" fill="none" stroke="#2563eb" stroke-width="2.2"/>
<line x1="768.0" y1="70.0" x2="804.0" y2="70.0" stroke="#2563eb" stroke-width="2.2"/>
<text x="812.0" y="74.0" font-family="sans-serif" font-size="12">OWT — train</text>
<polyline points="119.40,361.60 152.06,411.10 184.72,440.20 217.39,456.46 250.05,466.96 282.71,475.48 315.38,482.48 348.04,488.70 380.70,493.49 413.37,498.81 446.03,502.36 478.69,506.52 511.36,510.14 544.02,513.26 576.68,516.02 609.35,518.39 642.01,520.26 674.67,521.85 707.34,523.28 740.00,524.10" fill="none" stroke="#2563eb" stroke-width="2.2" stroke-dasharray="8 5"/>
<circle cx="119.40" cy="361.60" r="3.2" fill="#2563eb"/>
<circle cx="152.06" cy="411.10" r="3.2" fill="#2563eb"/>
<circle cx="184.72" cy="440.20" r="3.2" fill="#2563eb"/>
<circle cx="217.39" cy="456.46" r="3.2" fill="#2563eb"/>
<circle cx="250.05" cy="466.96" r="3.2" fill="#2563eb"/>
<circle cx="282.71" cy="475.48" r="3.2" fill="#2563eb"/>
<circle cx="315.38" cy="482.48" r="3.2" fill="#2563eb"/>
<circle cx="348.04" cy="488.70" r="3.2" fill="#2563eb"/>
<circle cx="380.70" cy="493.49" r="3.2" fill="#2563eb"/>
<circle cx="413.37" cy="498.81" r="3.2" fill="#2563eb"/>
<circle cx="446.03" cy="502.36" r="3.2" fill="#2563eb"/>
<circle cx="478.69" cy="506.52" r="3.2" fill="#2563eb"/>
<circle cx="511.36" cy="510.14" r="3.2" fill="#2563eb"/>
<circle cx="544.02" cy="513.26" r="3.2" fill="#2563eb"/>
<circle cx="576.68" cy="516.02" r="3.2" fill="#2563eb"/>
<circle cx="609.35" cy="518.39" r="3.2" fill="#2563eb"/>
<circle cx="642.01" cy="520.26" r="3.2" fill="#2563eb"/>
<circle cx="674.67" cy="521.85" r="3.2" fill="#2563eb"/>
<circle cx="707.34" cy="523.28" r="3.2" fill="#2563eb"/>
<circle cx="740.00" cy="524.10" r="3.2" fill="#2563eb"/>
<line x1="768.0" y1="94.0" x2="804.0" y2="94.0" stroke="#2563eb" stroke-width="2.2" stroke-dasharray="8 5"/>
<text x="812.0" y="98.0" font-family="sans-serif" font-size="12">OWT — validation</text>
</svg>