<svg xmlns="http://www.w3.org/2000/svg" width="1000" height="650" viewBox="0 0 1000 650">
<rect width="100%" height="100%" fill="white"/>
<text x="500.0" y="32" text-anchor="middle" font-family="sans-serif" font-size="22">TinyStories pre-norm versus post-norm</text>
<line x1="90.00" y1="70.0" x2="90.00" y2="570.0" stroke="#e5e7eb"/>
<text x="90.00" y="595.0" text-anchor="middle" font-family="sans-serif" font-size="12">6.071</text>
<line x1="90.0" y1="70.00" x2="740.0" y2="70.00" stroke="#e5e7eb"/>
<text x="78.0" y="74.00" text-anchor="end" font-family="sans-serif" font-size="12">5.67</text>
<line x1="220.00" y1="70.0" x2="220.00" y2="570.0" stroke="#e5e7eb"/>
<text x="220.00" y="595.0" text-anchor="middle" font-family="sans-serif" font-size="12">64.3</text>
<line x1="90.0" y1="170.00" x2="740.0" y2="170.00" stroke="#e5e7eb"/>
<text x="78.0" y="174.00" text-anchor="end" font-family="sans-serif" font-size="12">4.822</text>
<line x1="350.00" y1="70.0" x2="350.00" y2="570.0" stroke="#e5e7eb"/>
<text x="350.00" y="595.0" text-anchor="middle" font-family="sans-serif" font-size="12">122.5</text>
<line x1="90.0" y1="270.00" x2="740.0" y2="270.00" stroke="#e5e7eb"/>
<text x="78.0" y="274.00" text-anchor="end" font-family="sans-serif" font-size="12">3.975</text>
<line x1="480.00" y1="70.0" x2="480.00" y2="570.0" stroke="#e5e7eb"/>
<text x="480.00" y="595.0" text-anchor="middle" font-family="sans-serif" font-size="12">180.8</text>
<line x1="90.0" y1="370.00" x2="740.0" y2="370.00" stroke="#e5e7eb"/>
<text x="78.0" y="374.00" text-anchor="end" font-family="sans-serif" font-size="12">3.127</text>
<line x1="610.00" y1="70.0" x2="610.00" y2="570.0" stroke="#e5e7eb"/>
<text x="610.00" y="595.0" text-anchor="middle" font-family="sans-serif" font-size="12">239</text>
<line x1="90.0" y1="470.00" x2="740.0" y2="470.00" stroke="#e5e7eb"/>
<text x="78.0" y="474.00" text-anchor="end" font-family="sans-serif" font-size="12">2.279</text>
<line x1="740.00" y1="70.0" x2="740.00" y2="570.0" stroke="#e5e7eb"/>
<text x="740.00" y="595.0" text-anchor="middle" font-family="sans-serif" font-size="12">297.2</text>
<line x1="90.0" y1="570.00" x2="740.0" y2="570.00" stroke="#e5e7eb"/>
<text x="78.0" y="574.00" text-anchor="end" font-family="sans-serif" font-size="12">1.431</text>
<line x1="90.0" y1="570.0" x2="740.0" y2="570.0" stroke="#111827" stroke-width="1.5"/>
<line x1="90.0" y1="70.0" x2="90.0" y2="570.0" stroke="#111827" stroke-width="1.5"/>
<text x="415.0" y="628" text-anchor="middle" font-family="sans-serif" font-size="15">Cumulative wall-clock time (seconds)</text>
<text x="24" y="320.0" text-anchor="middle" transform="rotate(-90 24 320.0)" font-family="sans-serif" font-size="15">Cross-entropy loss</text>
<polyline points="90.00,92.73 102.85,278.78 115.71,337.17 128.57,382.13 142.99,405.72 155.91,429.60 168.75,445.14 181.63,439.47 196.04,450.17 208.98,461.72 221.90,471.18 234.80,480.62 249.16,487.79 262.08,487.88 274.96,493.26 287.85,493.14 302.26,499.10 315.13,506.42 328.04,508.84 340.97,506.97 355.39,509.88 368.32,510.76 381.20,516.88 394.04,511.34 408.41,516.18 421.27,514.04 434.10,519.08 446.93,516.70 461.23,526.55 474.04,524.41 486.86,528.15 499.67,527.16 514.00,532.92 526.87,527.75 539.71,526.38 552.54,528.90 566.89,537.08 579.74,530.85 592.59,538.11 605.44,533.54 619.79,535.08 632.63,531.93 645.49,541.13 658.38,544.16 672.72,535.78 685.55,543.87 698.39,539.00 711.24,534.85 725.56,544.19 738.47,547.27" fill="none" stroke="#2563eb" stroke-width="2.2"/>
<line x1="768.0" y1="70.0" x2="804.0" y2="70.0" stroke="#2563eb" stroke-width="2.2"/>
<text x="812.0" y="74.0" font-family="sans-serif" font-size="12">pre_norm — train</text>
<polyline points="130.10,386.59 183.14,453.44 236.32,481.40 289.37,496.56 342.49,507.24 395.54,515.77 448.44,522.81 501.19,528.38 554.04,533.34 606.95,537.28 659.90,540.07 712.76,542.01 740.00,542.62" fill="none" stroke="#2563eb" stroke-width="2.2" stroke-dasharray="8 5"/>
<circle cx="130.10" cy="386.59" r="3.2" fill="#2563eb"/>
<circle cx="183.14" cy="453.44" r="3.2" fill="#2563eb"/>
<circle cx="236.32" cy="481.40" r="3.2" fill="#2563eb"/>
<circle cx="289.37" cy="496.56" r="3.2" fill="#2563eb"/>
<circle cx="342.49" cy="507.24" r="3.2" fill="#2563eb"/>
<circle cx="395.54" cy="515.77" r="3.2" fill="#2563eb"/>
<circle cx="448.44" cy="522.81" r="3.2" fill="#2563eb"/>
<circle cx="501.19" cy="528.38" r="3.2" fill="#2563eb"/>
<circle cx="554.04" cy="533.34" r="3.2" fill="#2563eb"/>
<circle cx="606.95" cy="537.28" r="3.2" fill="#2563eb"/>
<circle cx="659.90" cy="540.07" r="3.2" fill="#2563eb"/>
<circle cx="712.76" cy="542.01" r="3.2" fill="#2563eb"/>
<circle cx="740.00" cy="542.62" r="3.2" fill="#2563eb"/>
<line x1="768.0" y1="94.0" x2="804.0" y2="94.0" stroke="#2563eb" stroke-width="2.2" stroke-dasharray="8 5"/>
<text x="812.0" y="98.0" font-family="sans-serif" font-size="12">pre_norm — validation</text>
<polyline points="90.00,93.84 102.85,285.43 115.75,354.08 128.65,395.67 143.00,413.24 155.86,432.81 168.76,447.93 181.71,440.38 196.09,449.53 208.99,459.98 221.86,469.36 234.72,477.18 249.14,484.38 262.03,484.78 274.94,489.27 287.83,488.36 302.33,495.03 315.11,502.29 327.81,504.04 340.22,503.96 353.93,505.78 366.11,507.21 378.15,512.45 390.33,507.73 403.96,513.56 416.23,510.87 428.55,516.46 440.78,513.50 454.58,524.00 467.01,520.97 479.61,525.78 492.70,523.82 507.48,529.95 520.59,524.91 533.76,523.84 546.87,527.22 561.54,534.43 574.69,528.58 587.80,536.52 600.87,531.58 615.51,533.83 628.61,530.69 641.85,539.45 654.88,544.06 669.40,534.05 681.92,542.16 694.44,536.93 706.93,533.42 720.92,543.00 733.50,546.11" fill="none" stroke="#dc2626" stroke-width="2.2"/>
<line x1="768.0" y1="118.0" x2="804.0" y2="118.0" stroke="#dc2626" stroke-width="2.2"/>
<text x="812.0" y="122.0" font-family="sans-serif" font-size="12">post_norm — train</text>
<polyline points="130.15,399.61 183.22,454.92 236.23,478.46 289.35,492.88 341.67,503.50 391.77,512.01 442.21,519.12 494.27,525.77 548.40,530.73 602.42,535.31 656.42,538.49 708.39,540.60 734.96,541.19" fill="none" stroke="#dc2626" stroke-width="2.2" stroke-dasharray="8 5"/>
<circle cx="130.15" cy="399.61" r="3.2" fill="#dc2626"/>
<circle cx="183.22" cy="454.92" r="3.2" fill="#dc2626"/>
<circle cx="236.23" cy="478.46" r="3.2" fill="#dc2626"/>
<circle cx="289.35" cy="492.88" r="3.2" fill="#dc2626"/>
<circle cx="341.67" cy="503.50" r="3.2" fill="#dc2626"/>
<circle cx="391.77" cy="512.01" r="3.2" fill="#dc2626"/>
<circle cx="442.21" cy="519.12" r="3.2" fill="#dc2626"/>
<circle cx="494.27" cy="525.77" r="3.2" fill="#dc2626"/>
<circle cx="548.40" cy="530.73" r="3.2" fill="#dc2626"/>
<circle cx="602.42" cy="535.31" r="3.2" fill="#dc2626"/>
<circle cx="656.42" cy="538.49" r="3.2" fill="#dc2626"/>
<circle cx="708.39" cy="540.60" r="3.2" fill="#dc2626"/>
<circle cx="734.96" cy="541.19" r="3.2" fill="#dc2626"/>
<line x1="768.0" y1="142.0" x2="804.0" y2="142.0" stroke="#dc2626" stroke-width="2.2" stroke-dasharray="8 5"/>
<text x="812.0" y="146.0" font-family="sans-serif" font-size="12">post_norm — validation</text>
</svg>