<svg xmlns="http://www.w3.org/2000/svg" width="1000" height="650" viewBox="0 0 1000 650">
<rect width="100%" height="100%" fill="white"/>
<text x="500.0" y="32" text-anchor="middle" font-family="sans-serif" font-size="22">TinyStories pre-norm versus post-norm</text>
<line x1="90.00" y1="70.0" x2="90.00" y2="570.0" stroke="#e5e7eb"/>
<text x="90.00" y="595.0" text-anchor="middle" font-family="sans-serif" font-size="12">25</text>
<line x1="90.0" y1="70.00" x2="740.0" y2="70.00" stroke="#e5e7eb"/>
<text x="78.0" y="74.00" text-anchor="end" font-family="sans-serif" font-size="12">5.67</text>
<line x1="220.00" y1="70.0" x2="220.00" y2="570.0" stroke="#e5e7eb"/>
<text x="220.00" y="595.0" text-anchor="middle" font-family="sans-serif" font-size="12">270</text>
<line x1="90.0" y1="170.00" x2="740.0" y2="170.00" stroke="#e5e7eb"/>
<text x="78.0" y="174.00" text-anchor="end" font-family="sans-serif" font-size="12">4.822</text>
<line x1="350.00" y1="70.0" x2="350.00" y2="570.0" stroke="#e5e7eb"/>
<text x="350.00" y="595.0" text-anchor="middle" font-family="sans-serif" font-size="12">515</text>
<line x1="90.0" y1="270.00" x2="740.0" y2="270.00" stroke="#e5e7eb"/>
<text x="78.0" y="274.00" text-anchor="end" font-family="sans-serif" font-size="12">3.975</text>
<line x1="480.00" y1="70.0" x2="480.00" y2="570.0" stroke="#e5e7eb"/>
<text x="480.00" y="595.0" text-anchor="middle" font-family="sans-serif" font-size="12">760</text>
<line x1="90.0" y1="370.00" x2="740.0" y2="370.00" stroke="#e5e7eb"/>
<text x="78.0" y="374.00" text-anchor="end" font-family="sans-serif" font-size="12">3.127</text>
<line x1="610.00" y1="70.0" x2="610.00" y2="570.0" stroke="#e5e7eb"/>
<text x="610.00" y="595.0" text-anchor="middle" font-family="sans-serif" font-size="12">1005</text>
<line x1="90.0" y1="470.00" x2="740.0" y2="470.00" stroke="#e5e7eb"/>
<text x="78.0" y="474.00" text-anchor="end" font-family="sans-serif" font-size="12">2.279</text>
<line x1="740.00" y1="70.0" x2="740.00" y2="570.0" stroke="#e5e7eb"/>
<text x="740.00" y="595.0" text-anchor="middle" font-family="sans-serif" font-size="12">1250</text>
<line x1="90.0" y1="570.00" x2="740.0" y2="570.00" stroke="#e5e7eb"/>
<text x="78.0" y="574.00" text-anchor="end" font-family="sans-serif" font-size="12">1.431</text>
<line x1="90.0" y1="570.0" x2="740.0" y2="570.0" stroke="#111827" stroke-width="1.5"/>
<line x1="90.0" y1="70.0" x2="90.0" y2="570.0" stroke="#111827" stroke-width="1.5"/>
<text x="415.0" y="628" text-anchor="middle" font-family="sans-serif" font-size="15">Optimizer step</text>
<text x="24" y="320.0" text-anchor="middle" transform="rotate(-90 24 320.0)" font-family="sans-serif" font-size="15">Cross-entropy loss</text>
<polyline points="90.00,92.73 103.27,278.78 116.53,337.17 129.80,382.13 143.06,405.72 156.33,429.60 169.59,445.14 182.86,439.47 196.12,450.17 209.39,461.72 222.65,471.18 235.92,480.62 249.18,487.79 262.45,487.88 275.71,493.26 288.98,493.14 302.24,499.10 315.51,506.42 328.78,508.84 342.04,506.97 355.31,509.88 368.57,510.76 381.84,516.88 395.10,511.34 408.37,516.18 421.63,514.04 434.90,519.08 448.16,516.70 461.43,526.55 474.69,524.41 487.96,528.15 501.22,527.16 514.49,532.92 527.76,527.75 541.02,526.38 554.29,528.90 567.55,537.08 580.82,530.85 594.08,538.11 607.35,533.54 620.61,535.08 633.88,531.93 647.14,541.13 660.41,544.16 673.67,535.78 686.94,543.87 700.20,539.00 713.47,534.85 726.73,544.19 740.00,547.27" fill="none" stroke="#2563eb" stroke-width="2.2"/>
<line x1="768.0" y1="70.0" x2="804.0" y2="70.0" stroke="#2563eb" stroke-width="2.2"/>
<text x="812.0" y="74.0" font-family="sans-serif" font-size="12">pre_norm — train</text>
<polyline points="129.80,386.59 182.86,453.44 235.92,481.40 288.98,496.56 342.04,507.24 395.10,515.77 448.16,522.81 501.22,528.38 554.29,533.34 607.35,537.28 660.41,540.07 713.47,542.01 740.00,542.62" fill="none" stroke="#2563eb" stroke-width="2.2" stroke-dasharray="8 5"/>
<circle cx="129.80" cy="386.59" r="3.2" fill="#2563eb"/>
<circle cx="182.86" cy="453.44" r="3.2" fill="#2563eb"/>
<circle cx="235.92" cy="481.40" r="3.2" fill="#2563eb"/>
<circle cx="288.98" cy="496.56" r="3.2" fill="#2563eb"/>
<circle cx="342.04" cy="507.24" r="3.2" fill="#2563eb"/>
<circle cx="395.10" cy="515.77" r="3.2" fill="#2563eb"/>
<circle cx="448.16" cy="522.81" r="3.2" fill="#2563eb"/>
<circle cx="501.22" cy="528.38" r="3.2" fill="#2563eb"/>
<circle cx="554.29" cy="533.34" r="3.2" fill="#2563eb"/>
<circle cx="607.35" cy="537.28" r="3.2" fill="#2563eb"/>
<circle cx="660.41" cy="540.07" r="3.2" fill="#2563eb"/>
<circle cx="713.47" cy="542.01" r="3.2" fill="#2563eb"/>
<circle cx="740.00" cy="542.62" r="3.2" fill="#2563eb"/>
<line x1="768.0" y1="94.0" x2="804.0" y2="94.0" stroke="#2563eb" stroke-width="2.2" stroke-dasharray="8 5"/>
<text x="812.0" y="98.0" font-family="sans-serif" font-size="12">pre_norm — validation</text>
<polyline points="90.00,93.84 103.27,285.43 116.53,354.08 129.80,395.67 143.06,413.24 156.33,432.81 169.59,447.93 182.86,440.38 196.12,449.53 209.39,459.98 222.65,469.36 235.92,477.18 249.18,484.38 262.45,484.78 275.71,489.27 288.98,488.36 302.24,495.03 315.51,502.29 328.78,504.04 342.04,503.96 355.31,505.78 368.57,507.21 381.84,512.45 395.10,507.73 408.37,513.56 421.63,510.87 434.90,516.46 448.16,513.50 461.43,524.00 474.69,520.97 487.96,525.78 501.22,523.82 514.49,529.95 527.76,524.91 541.02,523.84 554.29,527.22 567.55,534.43 580.82,528.58 594.08,536.52 607.35,531.58 620.61,533.83 633.88,530.69 647.14,539.45 660.41,544.06 673.67,534.05 686.94,542.16 700.20,536.93 713.47,533.42 726.73,543.00 740.00,546.11" fill="none" stroke="#dc2626" stroke-width="2.2"/>
<line x1="768.0" y1="118.0" x2="804.0" y2="118.0" stroke="#dc2626" stroke-width="2.2"/>
<text x="812.0" y="122.0" font-family="sans-serif" font-size="12">post_norm — train</text>
<polyline points="129.80,399.61 182.86,454.92 235.92,478.46 288.98,492.88 342.04,503.50 395.10,512.01 448.16,519.12 501.22,525.77 554.29,530.73 607.35,535.31 660.41,538.49 713.47,540.60 740.00,541.19" fill="none" stroke="#dc2626" stroke-width="2.2" stroke-dasharray="8 5"/>
<circle cx="129.80" cy="399.61" r="3.2" fill="#dc2626"/>
<circle cx="182.86" cy="454.92" r="3.2" fill="#dc2626"/>
<circle cx="235.92" cy="478.46" r="3.2" fill="#dc2626"/>
<circle cx="288.98" cy="492.88" r="3.2" fill="#dc2626"/>
<circle cx="342.04" cy="503.50" r="3.2" fill="#dc2626"/>
<circle cx="395.10" cy="512.01" r="3.2" fill="#dc2626"/>
<circle cx="448.16" cy="519.12" r="3.2" fill="#dc2626"/>
<circle cx="501.22" cy="525.77" r="3.2" fill="#dc2626"/>
<circle cx="554.29" cy="530.73" r="3.2" fill="#dc2626"/>
<circle cx="607.35" cy="535.31" r="3.2" fill="#dc2626"/>
<circle cx="660.41" cy="538.49" r="3.2" fill="#dc2626"/>
<circle cx="713.47" cy="540.60" r="3.2" fill="#dc2626"/>
<circle cx="740.00" cy="541.19" r="3.2" fill="#dc2626"/>
<line x1="768.0" y1="142.0" x2="804.0" y2="142.0" stroke="#dc2626" stroke-width="2.2" stroke-dasharray="8 5"/>
<text x="812.0" y="146.0" font-family="sans-serif" font-size="12">post_norm — validation</text>
</svg>