<svg xmlns="http://www.w3.org/2000/svg" width="1000" height="650" viewBox="0 0 1000 650">
<rect width="100%" height="100%" fill="white"/>
<text x="500.0" y="32" text-anchor="middle" font-family="sans-serif" font-size="22">TinyStories RMSNorm ablation</text>
<line x1="90.00" y1="70.0" x2="90.00" y2="570.0" stroke="#e5e7eb"/>
<text x="90.00" y="595.0" text-anchor="middle" font-family="sans-serif" font-size="12">8.192e+05</text>
<line x1="90.0" y1="70.00" x2="740.0" y2="70.00" stroke="#e5e7eb"/>
<text x="78.0" y="74.00" text-anchor="end" font-family="sans-serif" font-size="12">1437</text>
<line x1="220.00" y1="70.0" x2="220.00" y2="570.0" stroke="#e5e7eb"/>
<text x="220.00" y="595.0" text-anchor="middle" font-family="sans-serif" font-size="12">8.847e+06</text>
<line x1="90.0" y1="170.00" x2="740.0" y2="170.00" stroke="#e5e7eb"/>
<text x="78.0" y="174.00" text-anchor="end" font-family="sans-serif" font-size="12">1137</text>
<line x1="350.00" y1="70.0" x2="350.00" y2="570.0" stroke="#e5e7eb"/>
<text x="350.00" y="595.0" text-anchor="middle" font-family="sans-serif" font-size="12">1.688e+07</text>
<line x1="90.0" y1="270.00" x2="740.0" y2="270.00" stroke="#e5e7eb"/>
<text x="78.0" y="274.00" text-anchor="end" font-family="sans-serif" font-size="12">835.7</text>
<line x1="480.00" y1="70.0" x2="480.00" y2="570.0" stroke="#e5e7eb"/>
<text x="480.00" y="595.0" text-anchor="middle" font-family="sans-serif" font-size="12">2.49e+07</text>
<line x1="90.0" y1="370.00" x2="740.0" y2="370.00" stroke="#e5e7eb"/>
<text x="78.0" y="374.00" text-anchor="end" font-family="sans-serif" font-size="12">534.9</text>
<line x1="610.00" y1="70.0" x2="610.00" y2="570.0" stroke="#e5e7eb"/>
<text x="610.00" y="595.0" text-anchor="middle" font-family="sans-serif" font-size="12">3.293e+07</text>
<line x1="90.0" y1="470.00" x2="740.0" y2="470.00" stroke="#e5e7eb"/>
<text x="78.0" y="474.00" text-anchor="end" font-family="sans-serif" font-size="12">234.1</text>
<line x1="740.00" y1="70.0" x2="740.00" y2="570.0" stroke="#e5e7eb"/>
<text x="740.00" y="595.0" text-anchor="middle" font-family="sans-serif" font-size="12">4.096e+07</text>
<line x1="90.0" y1="570.00" x2="740.0" y2="570.00" stroke="#e5e7eb"/>
<text x="78.0" y="574.00" text-anchor="end" font-family="sans-serif" font-size="12">-66.74</text>
<line x1="90.0" y1="570.0" x2="740.0" y2="570.0" stroke="#111827" stroke-width="1.5"/>
<line x1="90.0" y1="70.0" x2="90.0" y2="570.0" stroke="#111827" stroke-width="1.5"/>
<text x="415.0" y="628" text-anchor="middle" font-family="sans-serif" font-size="15">Training tokens processed</text>
<text x="24" y="320.0" text-anchor="middle" transform="rotate(-90 24 320.0)" font-family="sans-serif" font-size="15">Cross-entropy loss</text>
<polyline points="90.00,545.99 103.27,546.52 116.53,546.68 129.80,546.81 143.06,546.87 156.33,546.94 169.59,546.98 182.86,546.97 196.12,547.00 209.39,547.03 222.65,547.06 235.92,547.08 249.18,547.11 262.45,547.11 275.71,547.12 288.98,547.12 302.24,547.14 315.51,547.16 328.78,547.16 342.04,547.16 355.31,547.17 368.57,547.17 381.84,547.19 395.10,547.17 408.37,547.19 421.63,547.18 434.90,547.19 448.16,547.19 461.43,547.21 474.69,547.21 487.96,547.22 501.22,547.22 514.49,547.23 527.76,547.22 541.02,547.21 554.29,547.22 567.55,547.24 580.82,547.23 594.08,547.25 607.35,547.23 620.61,547.24 633.88,547.23 647.14,547.26 660.41,547.26 673.67,547.24 686.94,547.26 700.20,547.25 713.47,547.24 726.73,547.26 740.00,547.27" fill="none" stroke="#2563eb" stroke-width="2.2"/>
<line x1="768.0" y1="70.0" x2="804.0" y2="70.0" stroke="#2563eb" stroke-width="2.2"/>
<text x="812.0" y="74.0" font-family="sans-serif" font-size="12">baseline_rmsnorm — train</text>
<polyline points="129.80,546.82 182.86,547.01 235.92,547.09 288.98,547.13 342.04,547.16 395.10,547.18 448.16,547.20 501.22,547.22 554.29,547.23 607.35,547.24 660.41,547.25 713.47,547.26 740.00,547.26" fill="none" stroke="#2563eb" stroke-width="2.2" stroke-dasharray="8 5"/>
<circle cx="129.80" cy="546.82" r="3.2" fill="#2563eb"/>
<circle cx="182.86" cy="547.01" r="3.2" fill="#2563eb"/>
<circle cx="235.92" cy="547.09" r="3.2" fill="#2563eb"/>
<circle cx="288.98" cy="547.13" r="3.2" fill="#2563eb"/>
<circle cx="342.04" cy="547.16" r="3.2" fill="#2563eb"/>
<circle cx="395.10" cy="547.18" r="3.2" fill="#2563eb"/>
<circle cx="448.16" cy="547.20" r="3.2" fill="#2563eb"/>
<circle cx="501.22" cy="547.22" r="3.2" fill="#2563eb"/>
<circle cx="554.29" cy="547.23" r="3.2" fill="#2563eb"/>
<circle cx="607.35" cy="547.24" r="3.2" fill="#2563eb"/>
<circle cx="660.41" cy="547.25" r="3.2" fill="#2563eb"/>
<circle cx="713.47" cy="547.26" r="3.2" fill="#2563eb"/>
<circle cx="740.00" cy="547.26" r="3.2" fill="#2563eb"/>
<line x1="768.0" y1="94.0" x2="804.0" y2="94.0" stroke="#2563eb" stroke-width="2.2" stroke-dasharray="8 5"/>
<text x="812.0" y="98.0" font-family="sans-serif" font-size="12">baseline_rmsnorm — validation</text>
<polyline points="90.00,546.04 103.27,546.49 116.53,546.68 129.80,546.81 143.06,546.87 156.33,546.93 169.59,92.73" fill="none" stroke="#dc2626" stroke-width="2.2"/>
<line x1="768.0" y1="118.0" x2="804.0" y2="118.0" stroke="#dc2626" stroke-width="2.2"/>
<text x="812.0" y="122.0" font-family="sans-serif" font-size="12">no_rmsnorm_lr_2p5e-3 — train</text>
<polyline points="129.80,546.82" fill="none" stroke="#dc2626" stroke-width="2.2" stroke-dasharray="8 5"/>
<circle cx="129.80" cy="546.82" r="3.2" fill="#dc2626"/>
<line x1="768.0" y1="142.0" x2="804.0" y2="142.0" stroke="#dc2626" stroke-width="2.2" stroke-dasharray="8 5"/>
<text x="812.0" y="146.0" font-family="sans-serif" font-size="12">no_rmsnorm_lr_2p5e-3 — validation</text>
<polyline points="90.00,545.47 103.27,546.30 116.53,546.55 129.80,546.70 143.06,546.79 156.33,546.87 169.59,546.92 182.86,546.90 196.12,546.94 209.39,546.97 222.65,547.00 235.92,547.03 249.18,547.05 262.45,547.05 275.71,547.07 288.98,547.07 302.24,547.08 315.51,547.11 328.78,547.11 342.04,547.11 355.31,547.12 368.57,547.12 381.84,547.14 395.10,547.12 408.37,547.14 421.63,547.13 434.90,547.15 448.16,547.14 461.43,547.17 474.69,547.16 487.96,547.17 501.22,547.17 514.49,547.18 527.76,547.17 541.02,547.16 554.29,547.18 567.55,547.20 580.82,547.18 594.08,547.20 607.35,547.19 620.61,547.19 633.88,547.18 647.14,547.21 660.41,547.22 673.67,547.19 686.94,547.22 700.20,547.20 713.47,547.19 726.73,547.22 740.00,547.23" fill="none" stroke="#16a34a" stroke-width="2.2"/>
<line x1="768.0" y1="166.0" x2="804.0" y2="166.0" stroke="#16a34a" stroke-width="2.2"/>
<text x="812.0" y="170.0" font-family="sans-serif" font-size="12">no_rmsnorm_lr_1e-3 — train</text>
<polyline points="129.80,546.71 182.86,546.95 235.92,547.03 288.98,547.08 342.04,547.11 395.10,547.14 448.16,547.16 501.22,547.17 554.29,547.19 607.35,547.20 660.41,547.20 713.47,547.21 740.00,547.21" fill="none" stroke="#16a34a" stroke-width="2.2" stroke-dasharray="8 5"/>
<circle cx="129.80" cy="546.71" r="3.2" fill="#16a34a"/>
<circle cx="182.86" cy="546.95" r="3.2" fill="#16a34a"/>
<circle cx="235.92" cy="547.03" r="3.2" fill="#16a34a"/>
<circle cx="288.98" cy="547.08" r="3.2" fill="#16a34a"/>
<circle cx="342.04" cy="547.11" r="3.2" fill="#16a34a"/>
<circle cx="395.10" cy="547.14" r="3.2" fill="#16a34a"/>
<circle cx="448.16" cy="547.16" r="3.2" fill="#16a34a"/>
<circle cx="501.22" cy="547.17" r="3.2" fill="#16a34a"/>
<circle cx="554.29" cy="547.19" r="3.2" fill="#16a34a"/>
<circle cx="607.35" cy="547.20" r="3.2" fill="#16a34a"/>
<circle cx="660.41" cy="547.20" r="3.2" fill="#16a34a"/>
<circle cx="713.47" cy="547.21" r="3.2" fill="#16a34a"/>
<circle cx="740.00" cy="547.21" r="3.2" fill="#16a34a"/>
<line x1="768.0" y1="190.0" x2="804.0" y2="190.0" stroke="#16a34a" stroke-width="2.2" stroke-dasharray="8 5"/>
<text x="812.0" y="194.0" font-family="sans-serif" font-size="12">no_rmsnorm_lr_1e-3 — validation</text>
<polyline points="90.00,544.46 103.27,545.93 116.53,546.31 129.80,546.51 143.06,546.60 156.33,546.70 169.59,546.76 182.86,546.75 196.12,546.80 209.39,546.83 222.65,546.87 235.92,546.90 249.18,546.93 262.45,546.93 275.71,546.95 288.98,546.95 302.24,546.97 315.51,547.00 328.78,547.00 342.04,547.00 355.31,547.00 368.57,547.01 381.84,547.03 395.10,547.01 408.37,547.02 421.63,547.02 434.90,547.04 448.16,547.02 461.43,547.06 474.69,547.05 487.96,547.06 501.22,547.06 514.49,547.07 527.76,547.06 541.02,547.06 554.29,547.06 567.55,547.09 580.82,547.07 594.08,547.09 607.35,547.07 620.61,547.08 633.88,547.07 647.14,547.09 660.41,547.11 673.67,547.07 686.94,547.10 700.20,547.09 713.47,547.08 726.73,547.10 740.00,547.12" fill="none" stroke="#9333ea" stroke-width="2.2"/>
<line x1="768.0" y1="214.0" x2="804.0" y2="214.0" stroke="#9333ea" stroke-width="2.2"/>
<text x="812.0" y="218.0" font-family="sans-serif" font-size="12">no_rmsnorm_lr_3e-4 — train</text>
<polyline points="129.80,546.52 182.86,546.79 235.92,546.90 288.98,546.96 342.04,547.00 395.10,547.02 448.16,547.05 501.22,547.06 554.29,547.07 607.35,547.08 660.41,547.09 713.47,547.10 740.00,547.10" fill="none" stroke="#9333ea" stroke-width="2.2" stroke-dasharray="8 5"/>
<circle cx="129.80" cy="546.52" r="3.2" fill="#9333ea"/>
<circle cx="182.86" cy="546.79" r="3.2" fill="#9333ea"/>
<circle cx="235.92" cy="546.90" r="3.2" fill="#9333ea"/>
<circle cx="288.98" cy="546.96" r="3.2" fill="#9333ea"/>
<circle cx="342.04" cy="547.00" r="3.2" fill="#9333ea"/>
<circle cx="395.10" cy="547.02" r="3.2" fill="#9333ea"/>
<circle cx="448.16" cy="547.05" r="3.2" fill="#9333ea"/>
<circle cx="501.22" cy="547.06" r="3.2" fill="#9333ea"/>
<circle cx="554.29" cy="547.07" r="3.2" fill="#9333ea"/>
<circle cx="607.35" cy="547.08" r="3.2" fill="#9333ea"/>
<circle cx="660.41" cy="547.09" r="3.2" fill="#9333ea"/>
<circle cx="713.47" cy="547.10" r="3.2" fill="#9333ea"/>
<circle cx="740.00" cy="547.10" r="3.2" fill="#9333ea"/>
<line x1="768.0" y1="238.0" x2="804.0" y2="238.0" stroke="#9333ea" stroke-width="2.2" stroke-dasharray="8 5"/>
<text x="812.0" y="242.0" font-family="sans-serif" font-size="12">no_rmsnorm_lr_3e-4 — validation</text>
</svg>