<svg xmlns="http://www.w3.org/2000/svg" width="1000" height="650" viewBox="0 0 1000 650">
<rect width="100%" height="100%" fill="white"/>
<text x="500.0" y="32" text-anchor="middle" font-family="sans-serif" font-size="22">TinyStories SwiGLU versus parameter-matched SiLU</text>
<line x1="90.00" y1="70.0" x2="90.00" y2="570.0" stroke="#e5e7eb"/>
<text x="90.00" y="595.0" text-anchor="middle" font-family="sans-serif" font-size="12">5.436</text>
<line x1="90.0" y1="70.00" x2="740.0" y2="70.00" stroke="#e5e7eb"/>
<text x="78.0" y="74.00" text-anchor="end" font-family="sans-serif" font-size="12">5.746</text>
<line x1="220.00" y1="70.0" x2="220.00" y2="570.0" stroke="#e5e7eb"/>
<text x="220.00" y="595.0" text-anchor="middle" font-family="sans-serif" font-size="12">58.02</text>
<line x1="90.0" y1="170.00" x2="740.0" y2="170.00" stroke="#e5e7eb"/>
<text x="78.0" y="174.00" text-anchor="end" font-family="sans-serif" font-size="12">4.882</text>
<line x1="350.00" y1="70.0" x2="350.00" y2="570.0" stroke="#e5e7eb"/>
<text x="350.00" y="595.0" text-anchor="middle" font-family="sans-serif" font-size="12">110.6</text>
<line x1="90.0" y1="270.00" x2="740.0" y2="270.00" stroke="#e5e7eb"/>
<text x="78.0" y="274.00" text-anchor="end" font-family="sans-serif" font-size="12">4.019</text>
<line x1="480.00" y1="70.0" x2="480.00" y2="570.0" stroke="#e5e7eb"/>
<text x="480.00" y="595.0" text-anchor="middle" font-family="sans-serif" font-size="12">163.2</text>
<line x1="90.0" y1="370.00" x2="740.0" y2="370.00" stroke="#e5e7eb"/>
<text x="78.0" y="374.00" text-anchor="end" font-family="sans-serif" font-size="12">3.155</text>
<line x1="610.00" y1="70.0" x2="610.00" y2="570.0" stroke="#e5e7eb"/>
<text x="610.00" y="595.0" text-anchor="middle" font-family="sans-serif" font-size="12">215.8</text>
<line x1="90.0" y1="470.00" x2="740.0" y2="470.00" stroke="#e5e7eb"/>
<text x="78.0" y="474.00" text-anchor="end" font-family="sans-serif" font-size="12">2.291</text>
<line x1="740.00" y1="70.0" x2="740.00" y2="570.0" stroke="#e5e7eb"/>
<text x="740.00" y="595.0" text-anchor="middle" font-family="sans-serif" font-size="12">268.4</text>
<line x1="90.0" y1="570.00" x2="740.0" y2="570.00" stroke="#e5e7eb"/>
<text x="78.0" y="574.00" text-anchor="end" font-family="sans-serif" font-size="12">1.428</text>
<line x1="90.0" y1="570.0" x2="740.0" y2="570.0" stroke="#111827" stroke-width="1.5"/>
<line x1="90.0" y1="70.0" x2="90.0" y2="570.0" stroke="#111827" stroke-width="1.5"/>
<text x="415.0" y="628" text-anchor="middle" font-family="sans-serif" font-size="15">Cumulative wall-clock time (seconds)</text>
<text x="24" y="320.0" text-anchor="middle" transform="rotate(-90 24 320.0)" font-family="sans-serif" font-size="15">Cross-entropy loss</text>
<polyline points="90.00,101.08 102.44,283.71 114.83,341.03 127.20,385.16 141.14,408.32 153.67,431.76 166.29,447.01 178.83,441.45 192.95,451.96 205.38,463.30 217.94,472.57 230.51,481.84 244.95,488.89 257.32,488.98 269.76,494.25 282.96,494.14 298.05,499.98 311.55,507.17 325.09,509.55 337.71,507.71 351.74,510.56 364.18,511.43 376.62,517.44 389.31,512.00 403.24,516.75 415.66,514.66 428.09,519.60 440.54,517.26 454.47,526.93 466.94,524.83 480.28,528.51 493.15,527.53 507.44,533.18 520.18,528.11 532.94,526.76 545.69,529.24 559.94,537.27 572.66,531.15 585.40,538.28 598.24,533.80 612.69,535.30 625.63,532.21 638.59,541.24 652.21,544.22 667.62,535.99 681.56,543.93 695.39,539.15 709.18,535.08 724.56,544.24 738.38,547.27" fill="none" stroke="#2563eb" stroke-width="2.2"/>
<line x1="768.0" y1="70.0" x2="804.0" y2="70.0" stroke="#2563eb" stroke-width="2.2"/>
<text x="812.0" y="74.0" font-family="sans-serif" font-size="12">SwiGLU — train</text>
<polyline points="128.67,389.54 180.31,455.16 232.13,482.61 284.57,497.49 339.28,507.97 390.79,516.35 442.02,523.26 494.66,528.73 547.20,533.60 599.78,537.46 653.75,540.20 710.81,542.11 740.00,542.70" fill="none" stroke="#2563eb" stroke-width="2.2" stroke-dasharray="8 5"/>
<circle cx="128.67" cy="389.54" r="3.2" fill="#2563eb"/>
<circle cx="180.31" cy="455.16" r="3.2" fill="#2563eb"/>
<circle cx="232.13" cy="482.61" r="3.2" fill="#2563eb"/>
<circle cx="284.57" cy="497.49" r="3.2" fill="#2563eb"/>
<circle cx="339.28" cy="507.97" r="3.2" fill="#2563eb"/>
<circle cx="390.79" cy="516.35" r="3.2" fill="#2563eb"/>
<circle cx="442.02" cy="523.26" r="3.2" fill="#2563eb"/>
<circle cx="494.66" cy="528.73" r="3.2" fill="#2563eb"/>
<circle cx="547.20" cy="533.60" r="3.2" fill="#2563eb"/>
<circle cx="599.78" cy="537.46" r="3.2" fill="#2563eb"/>
<circle cx="653.75" cy="540.20" r="3.2" fill="#2563eb"/>
<circle cx="710.81" cy="542.11" r="3.2" fill="#2563eb"/>
<circle cx="740.00" cy="542.70" r="3.2" fill="#2563eb"/>
<line x1="768.0" y1="94.0" x2="804.0" y2="94.0" stroke="#2563eb" stroke-width="2.2" stroke-dasharray="8 5"/>
<text x="812.0" y="98.0" font-family="sans-serif" font-size="12">SwiGLU — validation</text>
<polyline points="90.08,92.73 102.58,272.54 115.07,332.46 127.56,373.24 141.66,396.92 154.24,418.61 166.79,434.85 179.41,427.82 193.34,441.46 205.96,451.51 219.03,461.59 231.66,472.89 245.75,480.50 258.35,481.70 270.83,486.84 283.19,487.29 297.06,494.12 309.75,501.44 322.29,503.65 335.00,503.24 350.15,505.64 362.54,506.62 375.63,512.53 388.73,506.83 403.42,512.31 415.88,510.39 428.18,515.91 440.34,513.75 454.30,523.23 466.73,520.22 479.59,525.36 492.96,524.15 507.96,529.18 521.30,524.41 534.63,522.93 548.02,526.52 562.43,533.86 574.89,528.65 587.41,535.23 599.91,531.15 614.26,533.39 627.51,529.86 640.69,538.14 654.03,542.11 668.27,532.48 680.71,541.24 693.34,536.30 706.66,532.62 721.61,541.03 734.99,545.29" fill="none" stroke="#dc2626" stroke-width="2.2"/>
<line x1="768.0" y1="118.0" x2="804.0" y2="118.0" stroke="#dc2626" stroke-width="2.2"/>
<text x="812.0" y="122.0" font-family="sans-serif" font-size="12">SiLU_dff2048 — train</text>
<polyline points="129.05,377.93 180.90,444.78 233.16,473.57 284.66,491.11 336.62,502.70 390.30,511.86 441.78,519.30 494.53,525.52 549.61,530.34 601.42,534.56 655.64,537.37 708.26,539.44 736.57,540.11" fill="none" stroke="#dc2626" stroke-width="2.2" stroke-dasharray="8 5"/>
<circle cx="129.05" cy="377.93" r="3.2" fill="#dc2626"/>
<circle cx="180.90" cy="444.78" r="3.2" fill="#dc2626"/>
<circle cx="233.16" cy="473.57" r="3.2" fill="#dc2626"/>
<circle cx="284.66" cy="491.11" r="3.2" fill="#dc2626"/>
<circle cx="336.62" cy="502.70" r="3.2" fill="#dc2626"/>
<circle cx="390.30" cy="511.86" r="3.2" fill="#dc2626"/>
<circle cx="441.78" cy="519.30" r="3.2" fill="#dc2626"/>
<circle cx="494.53" cy="525.52" r="3.2" fill="#dc2626"/>
<circle cx="549.61" cy="530.34" r="3.2" fill="#dc2626"/>
<circle cx="601.42" cy="534.56" r="3.2" fill="#dc2626"/>
<circle cx="655.64" cy="537.37" r="3.2" fill="#dc2626"/>
<circle cx="708.26" cy="539.44" r="3.2" fill="#dc2626"/>
<circle cx="736.57" cy="540.11" r="3.2" fill="#dc2626"/>
<line x1="768.0" y1="142.0" x2="804.0" y2="142.0" stroke="#dc2626" stroke-width="2.2" stroke-dasharray="8 5"/>
<text x="812.0" y="146.0" font-family="sans-serif" font-size="12">SiLU_dff2048 — validation</text>
</svg>