<svg xmlns="http://www.w3.org/2000/svg" width="1000" height="650" viewBox="0 0 1000 650">
<rect width="100%" height="100%" fill="white"/>
<text x="500.0" y="32" text-anchor="middle" font-family="sans-serif" font-size="22">TinyStories 327.68M-token training run</text>
<line x1="90.00" y1="70.0" x2="90.00" y2="570.0" stroke="#e5e7eb"/>
<text x="90.00" y="595.0" text-anchor="middle" font-family="sans-serif" font-size="12">26.25</text>
<line x1="90.0" y1="70.00" x2="740.0" y2="70.00" stroke="#e5e7eb"/>
<text x="78.0" y="74.00" text-anchor="end" font-family="sans-serif" font-size="12">3.112</text>
<line x1="220.00" y1="70.0" x2="220.00" y2="570.0" stroke="#e5e7eb"/>
<text x="220.00" y="595.0" text-anchor="middle" font-family="sans-serif" font-size="12">552.5</text>
<line x1="90.0" y1="170.00" x2="740.0" y2="170.00" stroke="#e5e7eb"/>
<text x="78.0" y="174.00" text-anchor="end" font-family="sans-serif" font-size="12">2.725</text>
<line x1="350.00" y1="70.0" x2="350.00" y2="570.0" stroke="#e5e7eb"/>
<text x="350.00" y="595.0" text-anchor="middle" font-family="sans-serif" font-size="12">1079</text>
<line x1="90.0" y1="270.00" x2="740.0" y2="270.00" stroke="#e5e7eb"/>
<text x="78.0" y="274.00" text-anchor="end" font-family="sans-serif" font-size="12">2.338</text>
<line x1="480.00" y1="70.0" x2="480.00" y2="570.0" stroke="#e5e7eb"/>
<text x="480.00" y="595.0" text-anchor="middle" font-family="sans-serif" font-size="12">1605</text>
<line x1="90.0" y1="370.00" x2="740.0" y2="370.00" stroke="#e5e7eb"/>
<text x="78.0" y="374.00" text-anchor="end" font-family="sans-serif" font-size="12">1.95</text>
<line x1="610.00" y1="70.0" x2="610.00" y2="570.0" stroke="#e5e7eb"/>
<text x="610.00" y="595.0" text-anchor="middle" font-family="sans-serif" font-size="12">2131</text>
<line x1="90.0" y1="470.00" x2="740.0" y2="470.00" stroke="#e5e7eb"/>
<text x="78.0" y="474.00" text-anchor="end" font-family="sans-serif" font-size="12">1.563</text>
<line x1="740.00" y1="70.0" x2="740.00" y2="570.0" stroke="#e5e7eb"/>
<text x="740.00" y="595.0" text-anchor="middle" font-family="sans-serif" font-size="12">2658</text>
<line x1="90.0" y1="570.00" x2="740.0" y2="570.00" stroke="#e5e7eb"/>
<text x="78.0" y="574.00" text-anchor="end" font-family="sans-serif" font-size="12">1.176</text>
<line x1="90.0" y1="570.0" x2="740.0" y2="570.0" stroke="#111827" stroke-width="1.5"/>
<line x1="90.0" y1="70.0" x2="90.0" y2="570.0" stroke="#111827" stroke-width="1.5"/>
<text x="415.0" y="628" text-anchor="middle" font-family="sans-serif" font-size="15">Cumulative wall-clock time (seconds)</text>
<text x="24" y="320.0" text-anchor="middle" transform="rotate(-90 24 320.0)" font-family="sans-serif" font-size="15">Cross-entropy loss</text>
<polyline points="90.00,92.73 96.52,217.78 102.99,298.89 109.28,341.44 115.57,365.15 122.26,355.94 128.67,381.70 135.24,388.18 141.55,405.57 148.09,415.91 154.83,429.70 161.39,420.63 168.16,433.57 174.71,423.38 181.24,452.87 187.88,435.67 194.30,445.21 200.78,444.68 207.11,454.31 213.56,460.23 220.16,457.29 226.62,458.97 233.12,476.01 239.43,461.45 245.73,478.07 252.21,465.37 258.51,473.71 264.99,467.19 271.30,464.60 277.71,482.76 284.40,481.76 290.69,479.23 297.44,488.46 303.76,491.27 310.26,493.38 316.95,483.60 323.26,491.74 329.75,478.37 336.22,488.04 342.77,491.87 349.43,483.53 355.82,493.30 362.48,481.81 368.80,505.60 375.26,498.52 381.85,504.06 388.29,494.51 394.81,505.94 401.19,487.60 407.71,495.86 414.34,519.12 420.64,509.52 427.28,492.24 433.85,518.17 440.46,504.97 446.99,503.07 453.54,504.41 460.26,504.86 466.79,518.69 473.33,505.51 480.13,518.55 486.68,508.24 493.44,518.89 499.99,512.79 506.55,523.66 513.27,515.89 519.80,511.68 526.54,520.28 533.71,518.59 540.79,524.86 547.21,511.62 553.42,525.22 560.14,517.07 566.66,516.00 573.26,521.22 580.14,528.28 586.52,513.46 593.30,519.88 599.83,528.67 606.50,535.84 613.42,519.45 620.07,522.56 626.92,509.76 633.59,525.23 640.15,530.26 646.82,530.62 653.49,523.42 660.14,539.16 666.60,522.32 673.20,528.73 679.86,521.45 686.48,537.60 693.19,531.06 699.67,514.18 706.27,523.15 713.06,538.79 719.73,534.92 726.61,531.22 733.25,532.16 739.81,547.27" fill="none" stroke="#2563eb" stroke-width="2.2"/>
<line x1="768.0" y1="70.0" x2="804.0" y2="70.0" stroke="#2563eb" stroke-width="2.2"/>
<text x="812.0" y="74.0" font-family="sans-serif" font-size="12">2.5e-3 cosine — train</text>
<polyline points="99.85,283.00 115.75,362.72 132.04,397.38 148.28,415.98 164.87,427.98 181.44,442.87 197.64,448.59 213.75,453.39 229.96,462.37 245.91,465.23 261.84,468.01 277.91,476.84 294.16,482.64 310.45,482.13 326.60,486.73 342.96,486.46 359.27,492.33 375.44,492.36 391.62,495.13 407.91,497.08 424.01,500.13 440.65,503.75 456.99,507.63 473.52,503.72 490.16,512.86 506.74,510.64 523.28,511.93 540.98,515.92 556.84,513.76 573.45,518.29 589.96,517.29 606.69,521.96 623.59,519.63 640.33,525.87 656.90,523.78 673.39,527.01 689.96,527.65 706.46,528.21 723.27,523.60 740.00,526.58" fill="none" stroke="#2563eb" stroke-width="2.2" stroke-dasharray="8 5"/>
<circle cx="99.85" cy="283.00" r="3.2" fill="#2563eb"/>
<circle cx="115.75" cy="362.72" r="3.2" fill="#2563eb"/>
<circle cx="132.04" cy="397.38" r="3.2" fill="#2563eb"/>
<circle cx="148.28" cy="415.98" r="3.2" fill="#2563eb"/>
<circle cx="164.87" cy="427.98" r="3.2" fill="#2563eb"/>
<circle cx="181.44" cy="442.87" r="3.2" fill="#2563eb"/>
<circle cx="197.64" cy="448.59" r="3.2" fill="#2563eb"/>
<circle cx="213.75" cy="453.39" r="3.2" fill="#2563eb"/>
<circle cx="229.96" cy="462.37" r="3.2" fill="#2563eb"/>
<circle cx="245.91" cy="465.23" r="3.2" fill="#2563eb"/>
<circle cx="261.84" cy="468.01" r="3.2" fill="#2563eb"/>
<circle cx="277.91" cy="476.84" r="3.2" fill="#2563eb"/>
<circle cx="294.16" cy="482.64" r="3.2" fill="#2563eb"/>
<circle cx="310.45" cy="482.13" r="3.2" fill="#2563eb"/>
<circle cx="326.60" cy="486.73" r="3.2" fill="#2563eb"/>
<circle cx="342.96" cy="486.46" r="3.2" fill="#2563eb"/>
<circle cx="359.27" cy="492.33" r="3.2" fill="#2563eb"/>
<circle cx="375.44" cy="492.36" r="3.2" fill="#2563eb"/>
<circle cx="391.62" cy="495.13" r="3.2" fill="#2563eb"/>
<circle cx="407.91" cy="497.08" r="3.2" fill="#2563eb"/>
<circle cx="424.01" cy="500.13" r="3.2" fill="#2563eb"/>
<circle cx="440.65" cy="503.75" r="3.2" fill="#2563eb"/>
<circle cx="456.99" cy="507.63" r="3.2" fill="#2563eb"/>
<circle cx="473.52" cy="503.72" r="3.2" fill="#2563eb"/>
<circle cx="490.16" cy="512.86" r="3.2" fill="#2563eb"/>
<circle cx="506.74" cy="510.64" r="3.2" fill="#2563eb"/>
<circle cx="523.28" cy="511.93" r="3.2" fill="#2563eb"/>
<circle cx="540.98" cy="515.92" r="3.2" fill="#2563eb"/>
<circle cx="556.84" cy="513.76" r="3.2" fill="#2563eb"/>
<circle cx="573.45" cy="518.29" r="3.2" fill="#2563eb"/>
<circle cx="589.96" cy="517.29" r="3.2" fill="#2563eb"/>
<circle cx="606.69" cy="521.96" r="3.2" fill="#2563eb"/>
<circle cx="623.59" cy="519.63" r="3.2" fill="#2563eb"/>
<circle cx="640.33" cy="525.87" r="3.2" fill="#2563eb"/>
<circle cx="656.90" cy="523.78" r="3.2" fill="#2563eb"/>
<circle cx="673.39" cy="527.01" r="3.2" fill="#2563eb"/>
<circle cx="689.96" cy="527.65" r="3.2" fill="#2563eb"/>
<circle cx="706.46" cy="528.21" r="3.2" fill="#2563eb"/>
<circle cx="723.27" cy="523.60" r="3.2" fill="#2563eb"/>
<circle cx="740.00" cy="526.58" r="3.2" fill="#2563eb"/>
<line x1="768.0" y1="94.0" x2="804.0" y2="94.0" stroke="#2563eb" stroke-width="2.2" stroke-dasharray="8 5"/>
<text x="812.0" y="98.0" font-family="sans-serif" font-size="12">2.5e-3 cosine — validation</text>
</svg>