<svg xmlns="http://www.w3.org/2000/svg" width="1000" height="650" viewBox="0 0 1000 650">
<rect width="100%" height="100%" fill="white"/>
<text x="500.0" y="32" text-anchor="middle" font-family="sans-serif" font-size="22">TinyStories vs OpenWebText learning curves</text>
<line x1="90.00" y1="70.0" x2="90.00" y2="570.0" stroke="#e5e7eb"/>
<text x="90.00" y="595.0" text-anchor="middle" font-family="sans-serif" font-size="12">1.638e+06</text>
<line x1="90.0" y1="70.00" x2="740.0" y2="70.00" stroke="#e5e7eb"/>
<text x="78.0" y="74.00" text-anchor="end" font-family="sans-serif" font-size="12">7.385</text>
<line x1="220.00" y1="70.0" x2="220.00" y2="570.0" stroke="#e5e7eb"/>
<text x="220.00" y="595.0" text-anchor="middle" font-family="sans-serif" font-size="12">6.685e+07</text>
<line x1="90.0" y1="170.00" x2="740.0" y2="170.00" stroke="#e5e7eb"/>
<text x="78.0" y="174.00" text-anchor="end" font-family="sans-serif" font-size="12">6.102</text>
<line x1="350.00" y1="70.0" x2="350.00" y2="570.0" stroke="#e5e7eb"/>
<text x="350.00" y="595.0" text-anchor="middle" font-family="sans-serif" font-size="12">1.321e+08</text>
<line x1="90.0" y1="270.00" x2="740.0" y2="270.00" stroke="#e5e7eb"/>
<text x="78.0" y="274.00" text-anchor="end" font-family="sans-serif" font-size="12">4.82</text>
<line x1="480.00" y1="70.0" x2="480.00" y2="570.0" stroke="#e5e7eb"/>
<text x="480.00" y="595.0" text-anchor="middle" font-family="sans-serif" font-size="12">1.973e+08</text>
<line x1="90.0" y1="370.00" x2="740.0" y2="370.00" stroke="#e5e7eb"/>
<text x="78.0" y="374.00" text-anchor="end" font-family="sans-serif" font-size="12">3.538</text>
<line x1="610.00" y1="70.0" x2="610.00" y2="570.0" stroke="#e5e7eb"/>
<text x="610.00" y="595.0" text-anchor="middle" font-family="sans-serif" font-size="12">2.625e+08</text>
<line x1="90.0" y1="470.00" x2="740.0" y2="470.00" stroke="#e5e7eb"/>
<text x="78.0" y="474.00" text-anchor="end" font-family="sans-serif" font-size="12">2.255</text>
<line x1="740.00" y1="70.0" x2="740.00" y2="570.0" stroke="#e5e7eb"/>
<text x="740.00" y="595.0" text-anchor="middle" font-family="sans-serif" font-size="12">3.277e+08</text>
<line x1="90.0" y1="570.00" x2="740.0" y2="570.00" stroke="#e5e7eb"/>
<text x="78.0" y="574.00" text-anchor="end" font-family="sans-serif" font-size="12">0.9726</text>
<line x1="90.0" y1="570.0" x2="740.0" y2="570.0" stroke="#111827" stroke-width="1.5"/>
<line x1="90.0" y1="70.0" x2="90.0" y2="570.0" stroke="#111827" stroke-width="1.5"/>
<text x="415.0" y="628" text-anchor="middle" font-family="sans-serif" font-size="15">Training tokens processed</text>
<text x="24" y="320.0" text-anchor="middle" transform="rotate(-90 24 320.0)" font-family="sans-serif" font-size="15">Cross-entropy loss</text>
<polyline points="93.27,410.04 99.80,447.79 106.33,472.28 112.86,485.13 119.40,492.29 125.93,489.50 132.46,497.28 138.99,499.24 145.53,504.49 152.06,507.61 158.59,511.78 165.13,509.04 171.66,512.94 178.19,509.87 184.72,518.77 191.26,513.58 197.79,516.46 204.32,516.30 210.85,519.21 217.39,520.99 223.92,520.10 230.45,520.61 236.98,525.76 243.52,521.36 250.05,526.38 256.58,522.54 263.12,525.06 269.65,523.09 276.18,522.31 282.71,527.80 289.25,527.49 295.78,526.73 302.31,529.52 308.84,530.36 315.38,531.00 321.91,528.05 328.44,530.51 334.97,526.47 341.51,529.39 348.04,530.55 354.57,528.03 361.11,530.98 367.64,527.51 374.17,534.69 380.70,532.55 387.24,534.23 393.77,531.34 400.30,534.79 406.83,529.26 413.37,531.75 419.90,538.77 426.43,535.88 432.96,530.66 439.50,538.49 446.03,534.50 452.56,533.93 459.10,534.33 465.63,534.47 472.16,538.64 478.69,534.66 485.23,538.60 491.76,535.49 498.29,538.70 504.82,536.86 511.36,540.14 517.89,537.80 524.42,536.53 530.95,539.12 537.49,538.61 544.02,540.51 550.55,536.51 557.09,540.61 563.62,538.15 570.15,537.83 576.68,539.41 583.22,541.54 589.75,537.06 596.28,539.00 602.81,541.65 609.35,543.82 615.88,538.87 622.41,539.81 628.94,535.95 635.48,540.62 642.01,542.14 648.54,542.24 655.08,540.07 661.61,544.82 668.14,539.74 674.67,541.67 681.21,539.48 687.74,544.35 694.27,542.38 700.80,537.28 707.34,539.99 713.87,544.71 720.40,543.54 726.93,542.43 733.47,542.71 740.00,547.27" fill="none" stroke="#2563eb" stroke-width="2.2"/>
<line x1="768.0" y1="70.0" x2="804.0" y2="70.0" stroke="#2563eb" stroke-width="2.2"/>
<text x="812.0" y="74.0" font-family="sans-serif" font-size="12">TinyStories — train</text>
<polyline points="103.07,467.48 119.40,491.55 135.73,502.02 152.06,507.63 168.39,511.25 184.72,515.75 201.06,517.48 217.39,518.93 233.72,521.64 250.05,522.50 266.38,523.34 282.71,526.01 299.05,527.76 315.38,527.61 331.71,528.99 348.04,528.91 364.37,530.68 380.70,530.69 397.04,531.53 413.37,532.12 429.70,533.04 446.03,534.13 462.36,535.30 478.69,534.12 495.03,536.88 511.36,536.21 527.69,536.60 544.02,537.81 560.35,537.15 576.68,538.52 593.02,538.22 609.35,539.63 625.68,538.93 642.01,540.81 658.34,540.18 674.67,541.16 691.01,541.35 707.34,541.52 723.67,540.13 740.00,541.02" fill="none" stroke="#2563eb" stroke-width="2.2" stroke-dasharray="8 5"/>
<circle cx="103.07" cy="467.48" r="3.2" fill="#2563eb"/>
<circle cx="119.40" cy="491.55" r="3.2" fill="#2563eb"/>
<circle cx="135.73" cy="502.02" r="3.2" fill="#2563eb"/>
<circle cx="152.06" cy="507.63" r="3.2" fill="#2563eb"/>
<circle cx="168.39" cy="511.25" r="3.2" fill="#2563eb"/>
<circle cx="184.72" cy="515.75" r="3.2" fill="#2563eb"/>
<circle cx="201.06" cy="517.48" r="3.2" fill="#2563eb"/>
<circle cx="217.39" cy="518.93" r="3.2" fill="#2563eb"/>
<circle cx="233.72" cy="521.64" r="3.2" fill="#2563eb"/>
<circle cx="250.05" cy="522.50" r="3.2" fill="#2563eb"/>
<circle cx="266.38" cy="523.34" r="3.2" fill="#2563eb"/>
<circle cx="282.71" cy="526.01" r="3.2" fill="#2563eb"/>
<circle cx="299.05" cy="527.76" r="3.2" fill="#2563eb"/>
<circle cx="315.38" cy="527.61" r="3.2" fill="#2563eb"/>
<circle cx="331.71" cy="528.99" r="3.2" fill="#2563eb"/>
<circle cx="348.04" cy="528.91" r="3.2" fill="#2563eb"/>
<circle cx="364.37" cy="530.68" r="3.2" fill="#2563eb"/>
<circle cx="380.70" cy="530.69" r="3.2" fill="#2563eb"/>
<circle cx="397.04" cy="531.53" r="3.2" fill="#2563eb"/>
<circle cx="413.37" cy="532.12" r="3.2" fill="#2563eb"/>
<circle cx="429.70" cy="533.04" r="3.2" fill="#2563eb"/>
<circle cx="446.03" cy="534.13" r="3.2" fill="#2563eb"/>
<circle cx="462.36" cy="535.30" r="3.2" fill="#2563eb"/>
<circle cx="478.69" cy="534.12" r="3.2" fill="#2563eb"/>
<circle cx="495.03" cy="536.88" r="3.2" fill="#2563eb"/>
<circle cx="511.36" cy="536.21" r="3.2" fill="#2563eb"/>
<circle cx="527.69" cy="536.60" r="3.2" fill="#2563eb"/>
<circle cx="544.02" cy="537.81" r="3.2" fill="#2563eb"/>
<circle cx="560.35" cy="537.15" r="3.2" fill="#2563eb"/>
<circle cx="576.68" cy="538.52" r="3.2" fill="#2563eb"/>
<circle cx="593.02" cy="538.22" r="3.2" fill="#2563eb"/>
<circle cx="609.35" cy="539.63" r="3.2" fill="#2563eb"/>
<circle cx="625.68" cy="538.93" r="3.2" fill="#2563eb"/>
<circle cx="642.01" cy="540.81" r="3.2" fill="#2563eb"/>
<circle cx="658.34" cy="540.18" r="3.2" fill="#2563eb"/>
<circle cx="674.67" cy="541.16" r="3.2" fill="#2563eb"/>
<circle cx="691.01" cy="541.35" r="3.2" fill="#2563eb"/>
<circle cx="707.34" cy="541.52" r="3.2" fill="#2563eb"/>
<circle cx="723.67" cy="540.13" r="3.2" fill="#2563eb"/>
<circle cx="740.00" cy="541.02" r="3.2" fill="#2563eb"/>
<line x1="768.0" y1="94.0" x2="804.0" y2="94.0" stroke="#2563eb" stroke-width="2.2" stroke-dasharray="8 5"/>
<text x="812.0" y="98.0" font-family="sans-serif" font-size="12">TinyStories — validation</text>
<polyline points="90.00,92.73 93.27,150.95 96.53,179.33 99.80,203.16 103.07,213.01 106.33,227.35 109.60,229.66 112.86,237.50 116.13,243.68 119.40,245.47 122.66,243.61 125.93,258.92 129.20,258.28 132.46,258.70 135.73,261.38 138.99,268.17 142.26,267.79 145.53,271.28 148.79,273.94 152.06,269.60 155.33,274.61 158.59,277.28 161.86,278.83 165.13,282.76 168.39,287.80 171.66,293.70 174.92,291.16 178.19,286.37 181.46,292.41 184.72,291.82 187.99,294.24 191.26,296.22 194.52,291.52 197.79,293.55 201.06,295.32 204.32,300.85 207.59,296.49 210.85,295.25 214.12,295.70 217.39,298.39 220.65,300.25 223.92,300.92 227.19,303.11 230.45,301.68 233.72,307.64 236.98,302.50 240.25,307.31 243.52,305.64 246.78,303.91 250.05,305.91 253.32,301.93 256.58,310.12 259.85,311.54 263.12,304.83 266.38,309.12 269.65,308.78 272.91,311.84 276.18,312.79 279.45,305.61 282.71,314.40 285.98,309.23 289.25,312.14 292.51,307.18 295.78,310.85 299.05,311.07 302.31,312.61 305.58,315.88 308.84,313.61 312.11,311.99 315.38,319.61 318.64,314.74 321.91,314.15 325.18,314.13 328.44,318.94 331.71,316.37 334.97,319.14 338.24,315.67 341.51,317.61 344.77,318.28 348.04,318.38 351.31,313.85 354.57,325.78 357.84,317.10 361.11,323.36 364.37,320.91 367.64,316.41 370.90,312.96 374.17,317.33 377.44,316.49 380.70,318.30 383.97,321.67 387.24,323.04 390.50,325.83 393.77,323.32 397.04,321.79 400.30,318.51 403.57,325.68 406.83,321.61 410.10,319.87 413.37,328.49 416.63,326.68 419.90,325.76 423.17,326.75 426.43,324.91 429.70,325.59 432.96,326.40 436.23,328.68 439.50,328.33 442.76,322.45 446.03,329.33 449.30,326.92 452.56,331.56 455.83,331.31 459.10,327.75 462.36,325.18 465.63,327.83 468.89,325.37 472.16,327.42 475.43,330.66 478.69,325.07 481.96,331.36 485.23,328.01 488.49,334.52 491.76,330.51 495.03,327.38 498.29,329.14 501.56,334.46 504.82,329.44 508.09,329.03 511.36,328.30 514.62,337.13 517.89,334.66 521.16,336.03 524.42,328.18 527.69,326.48 530.95,329.94 534.22,326.67 537.49,338.52 540.75,328.94 544.02,333.66 547.29,335.45 550.55,327.26 553.82,337.94 557.09,330.88 560.35,333.88 563.62,335.58 566.88,331.15 570.15,339.10 573.42,331.63 576.68,341.26 579.95,331.27 583.22,331.80 586.48,334.54 589.75,332.73 593.02,330.89 596.28,338.09 599.55,335.62 602.81,335.44 606.08,333.32 609.35,335.00 612.61,339.31 615.88,339.74 619.15,332.73 622.41,333.88 625.68,343.44 628.94,338.04 632.21,332.18 635.48,337.62 638.74,326.14 642.01,327.92 645.28,335.23 648.54,334.72 651.81,336.12 655.08,341.91 658.34,336.34 661.61,337.99 664.87,337.11 668.14,341.11 671.41,338.41 674.67,339.55 677.94,338.40 681.21,339.18 684.47,333.30 687.74,335.72 691.01,339.17 694.27,342.19 697.54,339.74 700.80,332.32 704.07,338.36 707.34,335.19 710.60,335.31 713.87,334.93 717.14,337.72 720.40,350.73 723.67,343.99 726.93,336.36 730.20,340.24 733.47,340.18 736.73,340.20 740.00,333.91" fill="none" stroke="#dc2626" stroke-width="2.2"/>
<line x1="768.0" y1="118.0" x2="804.0" y2="118.0" stroke="#dc2626" stroke-width="2.2"/>
<text x="812.0" y="122.0" font-family="sans-serif" font-size="12">OWT — train</text>
<polyline points="119.40,245.34 152.06,273.44 184.72,289.95 217.39,299.18 250.05,305.14 282.71,309.98 315.38,313.95 348.04,317.48 380.70,320.20 413.37,323.22 446.03,325.24 478.69,327.59 511.36,329.65 544.02,331.42 576.68,332.99 609.35,334.33 642.01,335.39 674.67,336.30 707.34,337.11 740.00,337.57" fill="none" stroke="#dc2626" stroke-width="2.2" stroke-dasharray="8 5"/>
<circle cx="119.40" cy="245.34" r="3.2" fill="#dc2626"/>
<circle cx="152.06" cy="273.44" r="3.2" fill="#dc2626"/>
<circle cx="184.72" cy="289.95" r="3.2" fill="#dc2626"/>
<circle cx="217.39" cy="299.18" r="3.2" fill="#dc2626"/>
<circle cx="250.05" cy="305.14" r="3.2" fill="#dc2626"/>
<circle cx="282.71" cy="309.98" r="3.2" fill="#dc2626"/>
<circle cx="315.38" cy="313.95" r="3.2" fill="#dc2626"/>
<circle cx="348.04" cy="317.48" r="3.2" fill="#dc2626"/>
<circle cx="380.70" cy="320.20" r="3.2" fill="#dc2626"/>
<circle cx="413.37" cy="323.22" r="3.2" fill="#dc2626"/>
<circle cx="446.03" cy="325.24" r="3.2" fill="#dc2626"/>
<circle cx="478.69" cy="327.59" r="3.2" fill="#dc2626"/>
<circle cx="511.36" cy="329.65" r="3.2" fill="#dc2626"/>
<circle cx="544.02" cy="331.42" r="3.2" fill="#dc2626"/>
<circle cx="576.68" cy="332.99" r="3.2" fill="#dc2626"/>
<circle cx="609.35" cy="334.33" r="3.2" fill="#dc2626"/>
<circle cx="642.01" cy="335.39" r="3.2" fill="#dc2626"/>
<circle cx="674.67" cy="336.30" r="3.2" fill="#dc2626"/>
<circle cx="707.34" cy="337.11" r="3.2" fill="#dc2626"/>
<circle cx="740.00" cy="337.57" r="3.2" fill="#dc2626"/>
<line x1="768.0" y1="142.0" x2="804.0" y2="142.0" stroke="#dc2626" stroke-width="2.2" stroke-dasharray="8 5"/>
<text x="812.0" y="146.0" font-family="sans-serif" font-size="12">OWT — validation</text>
</svg>