<svg xmlns="http://www.w3.org/2000/svg" width="1000" height="650" viewBox="0 0 1000 650">
<rect width="100%" height="100%" fill="white"/>
<text x="500.0" y="32" text-anchor="middle" font-family="sans-serif" font-size="22">TinyStories 327.68M-token training run</text>
<line x1="90.00" y1="70.0" x2="90.00" y2="570.0" stroke="#e5e7eb"/>
<text x="90.00" y="595.0" text-anchor="middle" font-family="sans-serif" font-size="12">3.277e+06</text>
<line x1="90.0" y1="70.00" x2="740.0" y2="70.00" stroke="#e5e7eb"/>
<text x="78.0" y="74.00" text-anchor="end" font-family="sans-serif" font-size="12">3.112</text>
<line x1="220.00" y1="70.0" x2="220.00" y2="570.0" stroke="#e5e7eb"/>
<text x="220.00" y="595.0" text-anchor="middle" font-family="sans-serif" font-size="12">6.816e+07</text>
<line x1="90.0" y1="170.00" x2="740.0" y2="170.00" stroke="#e5e7eb"/>
<text x="78.0" y="174.00" text-anchor="end" font-family="sans-serif" font-size="12">2.725</text>
<line x1="350.00" y1="70.0" x2="350.00" y2="570.0" stroke="#e5e7eb"/>
<text x="350.00" y="595.0" text-anchor="middle" font-family="sans-serif" font-size="12">1.33e+08</text>
<line x1="90.0" y1="270.00" x2="740.0" y2="270.00" stroke="#e5e7eb"/>
<text x="78.0" y="274.00" text-anchor="end" font-family="sans-serif" font-size="12">2.338</text>
<line x1="480.00" y1="70.0" x2="480.00" y2="570.0" stroke="#e5e7eb"/>
<text x="480.00" y="595.0" text-anchor="middle" font-family="sans-serif" font-size="12">1.979e+08</text>
<line x1="90.0" y1="370.00" x2="740.0" y2="370.00" stroke="#e5e7eb"/>
<text x="78.0" y="374.00" text-anchor="end" font-family="sans-serif" font-size="12">1.95</text>
<line x1="610.00" y1="70.0" x2="610.00" y2="570.0" stroke="#e5e7eb"/>
<text x="610.00" y="595.0" text-anchor="middle" font-family="sans-serif" font-size="12">2.628e+08</text>
<line x1="90.0" y1="470.00" x2="740.0" y2="470.00" stroke="#e5e7eb"/>
<text x="78.0" y="474.00" text-anchor="end" font-family="sans-serif" font-size="12">1.563</text>
<line x1="740.00" y1="70.0" x2="740.00" y2="570.0" stroke="#e5e7eb"/>
<text x="740.00" y="595.0" text-anchor="middle" font-family="sans-serif" font-size="12">3.277e+08</text>
<line x1="90.0" y1="570.00" x2="740.0" y2="570.00" stroke="#e5e7eb"/>
<text x="78.0" y="574.00" text-anchor="end" font-family="sans-serif" font-size="12">1.176</text>
<line x1="90.0" y1="570.0" x2="740.0" y2="570.0" stroke="#111827" stroke-width="1.5"/>
<line x1="90.0" y1="70.0" x2="90.0" y2="570.0" stroke="#111827" stroke-width="1.5"/>
<text x="415.0" y="628" text-anchor="middle" font-family="sans-serif" font-size="15">Training tokens processed</text>
<text x="24" y="320.0" text-anchor="middle" transform="rotate(-90 24 320.0)" font-family="sans-serif" font-size="15">Cross-entropy loss</text>
<polyline points="90.00,92.73 96.57,217.78 103.13,298.89 109.70,341.44 116.26,365.15 122.83,355.94 129.39,381.70 135.96,388.18 142.53,405.57 149.09,415.91 155.66,429.70 162.22,420.63 168.79,433.57 175.35,423.38 181.92,452.87 188.48,435.67 195.05,445.21 201.62,444.68 208.18,454.31 214.75,460.23 221.31,457.29 227.88,458.97 234.44,476.01 241.01,461.45 247.58,478.07 254.14,465.37 260.71,473.71 267.27,467.19 273.84,464.60 280.40,482.76 286.97,481.76 293.54,479.23 300.10,488.46 306.67,491.27 313.23,493.38 319.80,483.60 326.36,491.74 332.93,478.37 339.49,488.04 346.06,491.87 352.63,483.53 359.19,493.30 365.76,481.81 372.32,505.60 378.89,498.52 385.45,504.06 392.02,494.51 398.59,505.94 405.15,487.60 411.72,495.86 418.28,519.12 424.85,509.52 431.41,492.24 437.98,518.17 444.55,504.97 451.11,503.07 457.68,504.41 464.24,504.86 470.81,518.69 477.37,505.51 483.94,518.55 490.51,508.24 497.07,518.89 503.64,512.79 510.20,523.66 516.77,515.89 523.33,511.68 529.90,520.28 536.46,518.59 543.03,524.86 549.60,511.62 556.16,525.22 562.73,517.07 569.29,516.00 575.86,521.22 582.42,528.28 588.99,513.46 595.56,519.88 602.12,528.67 608.69,535.84 615.25,519.45 621.82,522.56 628.38,509.76 634.95,525.23 641.52,530.26 648.08,530.62 654.65,523.42 661.21,539.16 667.78,522.32 674.34,528.73 680.91,521.45 687.47,537.60 694.04,531.06 700.61,514.18 707.17,523.15 713.74,538.79 720.30,534.92 726.87,531.22 733.43,532.16 740.00,547.27" fill="none" stroke="#2563eb" stroke-width="2.2"/>
<line x1="768.0" y1="70.0" x2="804.0" y2="70.0" stroke="#2563eb" stroke-width="2.2"/>
<text x="812.0" y="74.0" font-family="sans-serif" font-size="12">2.5e-3 cosine — train</text>
<polyline points="99.85,283.00 116.26,362.72 132.68,397.38 149.09,415.98 165.51,427.98 181.92,442.87 198.33,448.59 214.75,453.39 231.16,462.37 247.58,465.23 263.99,468.01 280.40,476.84 296.82,482.64 313.23,482.13 329.65,486.73 346.06,486.46 362.47,492.33 378.89,492.36 395.30,495.13 411.72,497.08 428.13,500.13 444.55,503.75 460.96,507.63 477.37,503.72 493.79,512.86 510.20,510.64 526.62,511.93 543.03,515.92 559.44,513.76 575.86,518.29 592.27,517.29 608.69,521.96 625.10,519.63 641.52,525.87 657.93,523.78 674.34,527.01 690.76,527.65 707.17,528.21 723.59,523.60 740.00,526.58" fill="none" stroke="#2563eb" stroke-width="2.2" stroke-dasharray="8 5"/>
<circle cx="99.85" cy="283.00" r="3.2" fill="#2563eb"/>
<circle cx="116.26" cy="362.72" r="3.2" fill="#2563eb"/>
<circle cx="132.68" cy="397.38" r="3.2" fill="#2563eb"/>
<circle cx="149.09" cy="415.98" r="3.2" fill="#2563eb"/>
<circle cx="165.51" cy="427.98" r="3.2" fill="#2563eb"/>
<circle cx="181.92" cy="442.87" r="3.2" fill="#2563eb"/>
<circle cx="198.33" cy="448.59" r="3.2" fill="#2563eb"/>
<circle cx="214.75" cy="453.39" r="3.2" fill="#2563eb"/>
<circle cx="231.16" cy="462.37" r="3.2" fill="#2563eb"/>
<circle cx="247.58" cy="465.23" r="3.2" fill="#2563eb"/>
<circle cx="263.99" cy="468.01" r="3.2" fill="#2563eb"/>
<circle cx="280.40" cy="476.84" r="3.2" fill="#2563eb"/>
<circle cx="296.82" cy="482.64" r="3.2" fill="#2563eb"/>
<circle cx="313.23" cy="482.13" r="3.2" fill="#2563eb"/>
<circle cx="329.65" cy="486.73" r="3.2" fill="#2563eb"/>
<circle cx="346.06" cy="486.46" r="3.2" fill="#2563eb"/>
<circle cx="362.47" cy="492.33" r="3.2" fill="#2563eb"/>
<circle cx="378.89" cy="492.36" r="3.2" fill="#2563eb"/>
<circle cx="395.30" cy="495.13" r="3.2" fill="#2563eb"/>
<circle cx="411.72" cy="497.08" r="3.2" fill="#2563eb"/>
<circle cx="428.13" cy="500.13" r="3.2" fill="#2563eb"/>
<circle cx="444.55" cy="503.75" r="3.2" fill="#2563eb"/>
<circle cx="460.96" cy="507.63" r="3.2" fill="#2563eb"/>
<circle cx="477.37" cy="503.72" r="3.2" fill="#2563eb"/>
<circle cx="493.79" cy="512.86" r="3.2" fill="#2563eb"/>
<circle cx="510.20" cy="510.64" r="3.2" fill="#2563eb"/>
<circle cx="526.62" cy="511.93" r="3.2" fill="#2563eb"/>
<circle cx="543.03" cy="515.92" r="3.2" fill="#2563eb"/>
<circle cx="559.44" cy="513.76" r="3.2" fill="#2563eb"/>
<circle cx="575.86" cy="518.29" r="3.2" fill="#2563eb"/>
<circle cx="592.27" cy="517.29" r="3.2" fill="#2563eb"/>
<circle cx="608.69" cy="521.96" r="3.2" fill="#2563eb"/>
<circle cx="625.10" cy="519.63" r="3.2" fill="#2563eb"/>
<circle cx="641.52" cy="525.87" r="3.2" fill="#2563eb"/>
<circle cx="657.93" cy="523.78" r="3.2" fill="#2563eb"/>
<circle cx="674.34" cy="527.01" r="3.2" fill="#2563eb"/>
<circle cx="690.76" cy="527.65" r="3.2" fill="#2563eb"/>
<circle cx="707.17" cy="528.21" r="3.2" fill="#2563eb"/>
<circle cx="723.59" cy="523.60" r="3.2" fill="#2563eb"/>
<circle cx="740.00" cy="526.58" r="3.2" fill="#2563eb"/>
<line x1="768.0" y1="94.0" x2="804.0" y2="94.0" stroke="#2563eb" stroke-width="2.2" stroke-dasharray="8 5"/>
<text x="812.0" y="98.0" font-family="sans-serif" font-size="12">2.5e-3 cosine — validation</text>
</svg>