<svg xmlns="http://www.w3.org/2000/svg" width="1000" height="650" viewBox="0 0 1000 650">
<rect width="100%" height="100%" fill="white"/>
<text x="500.0" y="32" text-anchor="middle" font-family="sans-serif" font-size="22">TinyStories vs OpenWebText learning curves</text>
<line x1="90.00" y1="70.0" x2="90.00" y2="570.0" stroke="#e5e7eb"/>
<text x="90.00" y="595.0" text-anchor="middle" font-family="sans-serif" font-size="12">14.92</text>
<line x1="90.0" y1="70.00" x2="740.0" y2="70.00" stroke="#e5e7eb"/>
<text x="78.0" y="74.00" text-anchor="end" font-family="sans-serif" font-size="12">7.385</text>
<line x1="220.00" y1="70.0" x2="220.00" y2="570.0" stroke="#e5e7eb"/>
<text x="220.00" y="595.0" text-anchor="middle" font-family="sans-serif" font-size="12">600.9</text>
<line x1="90.0" y1="170.00" x2="740.0" y2="170.00" stroke="#e5e7eb"/>
<text x="78.0" y="174.00" text-anchor="end" font-family="sans-serif" font-size="12">6.102</text>
<line x1="350.00" y1="70.0" x2="350.00" y2="570.0" stroke="#e5e7eb"/>
<text x="350.00" y="595.0" text-anchor="middle" font-family="sans-serif" font-size="12">1187</text>
<line x1="90.0" y1="270.00" x2="740.0" y2="270.00" stroke="#e5e7eb"/>
<text x="78.0" y="274.00" text-anchor="end" font-family="sans-serif" font-size="12">4.82</text>
<line x1="480.00" y1="70.0" x2="480.00" y2="570.0" stroke="#e5e7eb"/>
<text x="480.00" y="595.0" text-anchor="middle" font-family="sans-serif" font-size="12">1773</text>
<line x1="90.0" y1="370.00" x2="740.0" y2="370.00" stroke="#e5e7eb"/>
<text x="78.0" y="374.00" text-anchor="end" font-family="sans-serif" font-size="12">3.538</text>
<line x1="610.00" y1="70.0" x2="610.00" y2="570.0" stroke="#e5e7eb"/>
<text x="610.00" y="595.0" text-anchor="middle" font-family="sans-serif" font-size="12">2359</text>
<line x1="90.0" y1="470.00" x2="740.0" y2="470.00" stroke="#e5e7eb"/>
<text x="78.0" y="474.00" text-anchor="end" font-family="sans-serif" font-size="12">2.255</text>
<line x1="740.00" y1="70.0" x2="740.00" y2="570.0" stroke="#e5e7eb"/>
<text x="740.00" y="595.0" text-anchor="middle" font-family="sans-serif" font-size="12">2945</text>
<line x1="90.0" y1="570.00" x2="740.0" y2="570.00" stroke="#e5e7eb"/>
<text x="78.0" y="574.00" text-anchor="end" font-family="sans-serif" font-size="12">0.9726</text>
<line x1="90.0" y1="570.0" x2="740.0" y2="570.0" stroke="#111827" stroke-width="1.5"/>
<line x1="90.0" y1="70.0" x2="90.0" y2="570.0" stroke="#111827" stroke-width="1.5"/>
<text x="415.0" y="628" text-anchor="middle" font-family="sans-serif" font-size="15">Cumulative wall-clock time (seconds)</text>
<text x="24" y="320.0" text-anchor="middle" transform="rotate(-90 24 320.0)" font-family="sans-serif" font-size="15">Cross-entropy loss</text>
<polyline points="92.51,410.04 98.37,447.79 104.18,472.28 109.83,485.13 115.48,492.29 121.49,489.50 127.25,497.28 133.14,499.24 138.82,504.49 144.69,507.61 150.74,511.78 156.63,509.04 162.71,512.94 168.59,509.87 174.47,518.77 180.42,513.58 186.19,516.46 192.01,516.30 197.69,519.21 203.49,520.99 209.42,520.10 215.22,520.61 221.06,525.76 226.72,521.36 232.38,526.38 238.20,522.54 243.87,525.06 249.68,523.09 255.35,522.31 261.11,527.80 267.12,527.49 272.77,526.73 278.83,529.52 284.51,530.36 290.35,531.00 296.35,528.05 302.02,530.51 307.85,526.47 313.66,529.39 319.55,530.55 325.53,528.03 331.27,530.98 337.25,527.51 342.92,534.69 348.72,532.55 354.64,534.23 360.42,531.34 366.29,534.79 372.01,529.26 377.87,531.75 383.83,538.77 389.49,535.88 395.45,530.66 401.34,538.49 407.29,534.50 413.15,533.93 419.03,534.33 425.07,534.47 430.93,538.64 436.81,534.66 442.92,538.60 448.80,535.49 454.87,538.70 460.76,536.86 466.64,540.14 472.68,537.80 478.55,536.53 484.60,539.12 491.04,538.61 497.40,540.51 503.16,536.51 508.74,540.61 514.78,538.15 520.64,537.83 526.56,539.41 532.74,541.54 538.48,537.06 544.56,539.00 550.43,541.65 556.42,543.82 562.63,538.87 568.61,539.81 574.76,535.95 580.75,540.62 586.64,542.14 592.63,542.24 598.62,540.07 604.59,544.82 610.40,539.74 616.33,541.67 622.31,539.48 628.25,544.35 634.28,542.38 640.10,537.28 646.03,539.99 652.13,544.71 658.12,543.54 664.30,542.43 670.26,542.71 676.15,547.27" fill="none" stroke="#2563eb" stroke-width="2.2"/>
<line x1="768.0" y1="70.0" x2="804.0" y2="70.0" stroke="#2563eb" stroke-width="2.2"/>
<text x="812.0" y="74.0" font-family="sans-serif" font-size="12">TinyStories — train</text>
<polyline points="101.36,467.48 115.65,491.55 130.27,502.02 144.86,507.63 159.76,511.25 174.64,515.75 189.19,517.48 203.66,518.93 218.22,521.64 232.55,522.50 246.86,523.34 261.28,526.01 275.88,527.76 290.52,527.61 305.02,528.99 319.71,528.91 334.37,530.68 348.89,530.69 363.42,531.53 378.05,532.12 392.51,533.04 407.46,534.13 422.13,535.30 436.98,534.12 451.92,536.88 466.81,536.21 481.67,536.60 497.57,537.81 511.81,537.15 526.73,538.52 541.56,538.22 556.59,539.63 571.77,538.93 586.81,540.81 601.69,540.18 616.50,541.16 631.38,541.35 646.20,541.52 661.29,540.13 676.32,541.02" fill="none" stroke="#2563eb" stroke-width="2.2" stroke-dasharray="8 5"/>
<circle cx="101.36" cy="467.48" r="3.2" fill="#2563eb"/>
<circle cx="115.65" cy="491.55" r="3.2" fill="#2563eb"/>
<circle cx="130.27" cy="502.02" r="3.2" fill="#2563eb"/>
<circle cx="144.86" cy="507.63" r="3.2" fill="#2563eb"/>
<circle cx="159.76" cy="511.25" r="3.2" fill="#2563eb"/>
<circle cx="174.64" cy="515.75" r="3.2" fill="#2563eb"/>
<circle cx="189.19" cy="517.48" r="3.2" fill="#2563eb"/>
<circle cx="203.66" cy="518.93" r="3.2" fill="#2563eb"/>
<circle cx="218.22" cy="521.64" r="3.2" fill="#2563eb"/>
<circle cx="232.55" cy="522.50" r="3.2" fill="#2563eb"/>
<circle cx="246.86" cy="523.34" r="3.2" fill="#2563eb"/>
<circle cx="261.28" cy="526.01" r="3.2" fill="#2563eb"/>
<circle cx="275.88" cy="527.76" r="3.2" fill="#2563eb"/>
<circle cx="290.52" cy="527.61" r="3.2" fill="#2563eb"/>
<circle cx="305.02" cy="528.99" r="3.2" fill="#2563eb"/>
<circle cx="319.71" cy="528.91" r="3.2" fill="#2563eb"/>
<circle cx="334.37" cy="530.68" r="3.2" fill="#2563eb"/>
<circle cx="348.89" cy="530.69" r="3.2" fill="#2563eb"/>
<circle cx="363.42" cy="531.53" r="3.2" fill="#2563eb"/>
<circle cx="378.05" cy="532.12" r="3.2" fill="#2563eb"/>
<circle cx="392.51" cy="533.04" r="3.2" fill="#2563eb"/>
<circle cx="407.46" cy="534.13" r="3.2" fill="#2563eb"/>
<circle cx="422.13" cy="535.30" r="3.2" fill="#2563eb"/>
<circle cx="436.98" cy="534.12" r="3.2" fill="#2563eb"/>
<circle cx="451.92" cy="536.88" r="3.2" fill="#2563eb"/>
<circle cx="466.81" cy="536.21" r="3.2" fill="#2563eb"/>
<circle cx="481.67" cy="536.60" r="3.2" fill="#2563eb"/>
<circle cx="497.57" cy="537.81" r="3.2" fill="#2563eb"/>
<circle cx="511.81" cy="537.15" r="3.2" fill="#2563eb"/>
<circle cx="526.73" cy="538.52" r="3.2" fill="#2563eb"/>
<circle cx="541.56" cy="538.22" r="3.2" fill="#2563eb"/>
<circle cx="556.59" cy="539.63" r="3.2" fill="#2563eb"/>
<circle cx="571.77" cy="538.93" r="3.2" fill="#2563eb"/>
<circle cx="586.81" cy="540.81" r="3.2" fill="#2563eb"/>
<circle cx="601.69" cy="540.18" r="3.2" fill="#2563eb"/>
<circle cx="616.50" cy="541.16" r="3.2" fill="#2563eb"/>
<circle cx="631.38" cy="541.35" r="3.2" fill="#2563eb"/>
<circle cx="646.20" cy="541.52" r="3.2" fill="#2563eb"/>
<circle cx="661.29" cy="540.13" r="3.2" fill="#2563eb"/>
<circle cx="676.32" cy="541.02" r="3.2" fill="#2563eb"/>
<line x1="768.0" y1="94.0" x2="804.0" y2="94.0" stroke="#2563eb" stroke-width="2.2" stroke-dasharray="8 5"/>
<text x="812.0" y="98.0" font-family="sans-serif" font-size="12">TinyStories — validation</text>
<polyline points="90.00,92.73 93.27,150.95 96.34,179.33 99.36,203.16 102.56,213.01 105.65,227.35 108.73,229.66 112.06,237.50 115.29,243.68 118.42,245.47 121.62,243.61 124.63,258.92 127.67,258.28 130.68,258.70 133.69,261.38 136.73,268.17 139.78,267.79 142.90,271.28 146.23,273.94 149.51,269.60 152.88,274.61 156.15,277.28 159.41,278.83 162.45,282.76 165.49,287.80 168.66,293.70 171.94,291.16 175.04,286.37 178.09,292.41 181.14,291.82 184.27,294.24 187.35,296.22 190.43,291.52 193.69,293.55 196.85,295.32 199.94,300.85 203.11,296.49 206.25,295.25 209.38,295.70 212.68,298.39 216.09,300.25 219.39,300.92 222.68,303.11 225.98,301.68 229.27,307.64 232.57,302.50 235.88,307.31 239.18,305.64 242.47,303.91 245.76,305.91 249.26,301.93 252.55,310.12 255.85,311.54 259.14,304.83 262.43,309.12 265.72,308.78 269.00,311.84 272.28,312.79 275.55,305.61 278.82,314.40 282.18,309.23 285.46,312.14 288.73,307.18 292.08,310.85 295.36,311.07 298.66,312.61 301.94,315.88 305.23,313.61 308.51,311.99 311.79,319.61 315.17,314.74 318.45,314.15 321.73,314.13 325.01,318.94 328.30,316.37 331.58,319.14 334.86,315.67 338.12,317.61 341.38,318.28 344.65,318.38 348.02,313.85 351.30,325.78 354.57,317.10 357.86,323.36 361.13,320.91 364.48,316.41 367.76,312.96 371.04,317.33 374.32,316.49 377.60,318.30 380.96,321.67 384.24,323.04 387.51,325.83 390.80,323.32 394.07,321.79 397.35,318.51 400.62,325.68 403.88,321.61 407.15,319.87 410.41,328.49 413.89,326.68 417.17,325.76 420.44,326.75 423.72,324.91 427.00,325.59 430.28,326.40 433.55,328.68 436.83,328.33 440.10,322.45 443.37,329.33 446.74,326.92 450.01,331.56 453.28,331.31 456.68,327.75 459.95,325.18 463.23,327.83 466.51,325.37 469.77,327.42 473.03,330.66 476.29,325.07 479.64,331.36 482.90,328.01 486.17,334.52 489.44,330.51 492.71,327.38 495.98,329.14 499.26,334.46 502.53,329.44 505.80,329.03 509.08,328.30 512.45,337.13 515.72,334.66 519.00,336.03 522.28,328.18 525.54,326.48 528.82,329.94 532.09,326.67 535.42,338.52 538.69,328.94 541.97,333.66 545.34,335.45 548.62,327.26 551.89,337.94 555.17,330.88 558.44,333.88 561.72,335.58 565.00,331.15 568.28,339.10 571.56,331.63 574.83,341.26 578.31,331.27 581.58,331.80 584.85,334.54 588.12,332.73 591.40,330.89 594.67,338.09 598.01,335.62 601.28,335.44 604.54,333.32 607.81,335.00 611.18,339.31 614.45,339.74 617.72,332.73 620.99,333.88 624.26,343.44 627.53,338.04 630.80,332.18 634.08,337.62 637.36,326.14 640.64,327.92 644.01,335.23 647.28,334.72 650.55,336.12 653.95,341.91 657.22,336.34 660.49,337.99 663.77,337.11 667.05,341.11 670.30,338.41 673.55,339.55 676.91,338.40 680.18,339.18 683.51,333.30 686.78,335.72 690.06,339.17 693.33,342.19 696.60,339.74 699.87,332.32 703.14,338.36 706.42,335.19 709.79,335.31 713.06,334.93 716.29,337.72 719.63,350.73 723.07,343.99 726.32,336.36 729.68,340.24 733.09,340.18 736.50,340.20 739.90,333.91" fill="none" stroke="#dc2626" stroke-width="2.2"/>
<line x1="768.0" y1="118.0" x2="804.0" y2="118.0" stroke="#dc2626" stroke-width="2.2"/>
<text x="812.0" y="122.0" font-family="sans-serif" font-size="12">OWT — train</text>
<polyline points="118.51,245.34 149.60,273.44 181.22,289.95 212.78,299.18 245.85,305.14 278.92,309.98 311.88,313.95 344.74,317.48 377.69,320.20 410.50,323.22 443.47,325.24 476.38,327.59 509.18,329.65 542.07,331.42 574.93,332.99 607.90,334.33 640.73,335.39 673.65,336.30 706.52,337.11 740.00,337.57" fill="none" stroke="#dc2626" stroke-width="2.2" stroke-dasharray="8 5"/>
<circle cx="118.51" cy="245.34" r="3.2" fill="#dc2626"/>
<circle cx="149.60" cy="273.44" r="3.2" fill="#dc2626"/>
<circle cx="181.22" cy="289.95" r="3.2" fill="#dc2626"/>
<circle cx="212.78" cy="299.18" r="3.2" fill="#dc2626"/>
<circle cx="245.85" cy="305.14" r="3.2" fill="#dc2626"/>
<circle cx="278.92" cy="309.98" r="3.2" fill="#dc2626"/>
<circle cx="311.88" cy="313.95" r="3.2" fill="#dc2626"/>
<circle cx="344.74" cy="317.48" r="3.2" fill="#dc2626"/>
<circle cx="377.69" cy="320.20" r="3.2" fill="#dc2626"/>
<circle cx="410.50" cy="323.22" r="3.2" fill="#dc2626"/>
<circle cx="443.47" cy="325.24" r="3.2" fill="#dc2626"/>
<circle cx="476.38" cy="327.59" r="3.2" fill="#dc2626"/>
<circle cx="509.18" cy="329.65" r="3.2" fill="#dc2626"/>
<circle cx="542.07" cy="331.42" r="3.2" fill="#dc2626"/>
<circle cx="574.93" cy="332.99" r="3.2" fill="#dc2626"/>
<circle cx="607.90" cy="334.33" r="3.2" fill="#dc2626"/>
<circle cx="640.73" cy="335.39" r="3.2" fill="#dc2626"/>
<circle cx="673.65" cy="336.30" r="3.2" fill="#dc2626"/>
<circle cx="706.52" cy="337.11" r="3.2" fill="#dc2626"/>
<circle cx="740.00" cy="337.57" r="3.2" fill="#dc2626"/>
<line x1="768.0" y1="142.0" x2="804.0" y2="142.0" stroke="#dc2626" stroke-width="2.2" stroke-dasharray="8 5"/>
<text x="812.0" y="146.0" font-family="sans-serif" font-size="12">OWT — validation</text>
</svg>