<?xml version="1.0" encoding="UTF-8"?>
<svg xmlns="http://www.w3.org/2000/svg" width="1600" height="900" viewBox="0 0 1600 900" role="img" aria-labelledby="title desc">
<title id="title">Architecture ablations by wall-clock time</title>
<desc id="desc">Loss by elapsed wall-clock time in seconds, with solid training curves and dashed validation curves.</desc>
<rect width="100%" height="100%" fill="#ffffff"/>
<style>text{font-family:ui-sans-serif,system-ui,sans-serif;fill:#334155}.grid{stroke:#e2e8f0;stroke-width:1}.axis{stroke:#64748b;stroke-width:1.2}.curve{fill:none;stroke-linejoin:round;stroke-linecap:round}.tick{font-size:12px}.legend{font-size:12px}.label{font-size:14px}.heading{font-size:20px;font-weight:600;fill:#0f172a}</style>
<clipPath id="plot-area"><rect x="78.0" y="118.0" width="1494.0" height="712.0"/></clipPath>
<text class="heading" x="78.0" y="32">Architecture ablations by wall-clock time</text>
<line x1="78.0" y1="54.0" x2="103.0" y2="54.0" stroke="#2563eb" stroke-width="2"/>
<text class="legend" x="109.0" y="58.0">ablation_no_rmsnorm train</text>
<line x1="451.5" y1="54.0" x2="476.5" y2="54.0" stroke="#2563eb" stroke-width="2" stroke-dasharray="7 4"/>
<text class="legend" x="482.5" y="58.0">ablation_no_rmsnorm val</text>
<line x1="825.0" y1="54.0" x2="850.0" y2="54.0" stroke="#dc2626" stroke-width="2"/>
<text class="legend" x="856.0" y="58.0">ablation_no_rmsnorm_low_lr train</text>
<line x1="1198.5" y1="54.0" x2="1223.5" y2="54.0" stroke="#dc2626" stroke-width="2" stroke-dasharray="7 4"/>
<text class="legend" x="1229.5" y="58.0">ablation_no_rmsnorm_low_lr val</text>
<line x1="78.0" y1="74.0" x2="103.0" y2="74.0" stroke="#059669" stroke-width="2"/>
<text class="legend" x="109.0" y="78.0">ablation_no_rope train</text>
<line x1="451.5" y1="74.0" x2="476.5" y2="74.0" stroke="#059669" stroke-width="2" stroke-dasharray="7 4"/>
<text class="legend" x="482.5" y="78.0">ablation_no_rope val</text>
<line x1="825.0" y1="74.0" x2="850.0" y2="74.0" stroke="#9333ea" stroke-width="2"/>
<text class="legend" x="856.0" y="78.0">ablation_post_norm train</text>
<line x1="1198.5" y1="74.0" x2="1223.5" y2="74.0" stroke="#9333ea" stroke-width="2" stroke-dasharray="7 4"/>
<text class="legend" x="1229.5" y="78.0">ablation_post_norm val</text>
<line x1="78.0" y1="94.0" x2="103.0" y2="94.0" stroke="#ea580c" stroke-width="2"/>
<text class="legend" x="109.0" y="98.0">ablation_silu_matched train</text>
<line x1="451.5" y1="94.0" x2="476.5" y2="94.0" stroke="#ea580c" stroke-width="2" stroke-dasharray="7 4"/>
<text class="legend" x="482.5" y="98.0">ablation_silu_matched val</text>
<line class="grid" x1="78.0" y1="118.0" x2="78.0" y2="830.0"/>
<text class="tick" x="78.0" y="853.0" text-anchor="middle">0</text>
<line class="grid" x1="376.8" y1="118.0" x2="376.8" y2="830.0"/>
<text class="tick" x="376.8" y="853.0" text-anchor="middle">165</text>
<line class="grid" x1="675.6" y1="118.0" x2="675.6" y2="830.0"/>
<text class="tick" x="675.6" y="853.0" text-anchor="middle">330</text>
<line class="grid" x1="974.4" y1="118.0" x2="974.4" y2="830.0"/>
<text class="tick" x="974.4" y="853.0" text-anchor="middle">495</text>
<line class="grid" x1="1273.2" y1="118.0" x2="1273.2" y2="830.0"/>
<text class="tick" x="1273.2" y="853.0" text-anchor="middle">661</text>
<line class="grid" x1="1572.0" y1="118.0" x2="1572.0" y2="830.0"/>
<text class="tick" x="1572.0" y="853.0" text-anchor="middle">826</text>
<line class="grid" x1="78.0" y1="118.0" x2="1572.0" y2="118.0"/>
<text class="tick" x="67.0" y="122.0" text-anchor="end">18.1</text>
<line class="grid" x1="78.0" y1="260.4" x2="1572.0" y2="260.4"/>
<text class="tick" x="67.0" y="264.4" text-anchor="end">14.5</text>
<line class="grid" x1="78.0" y1="402.8" x2="1572.0" y2="402.8"/>
<text class="tick" x="67.0" y="406.8" text-anchor="end">11.0</text>
<line class="grid" x1="78.0" y1="545.2" x2="1572.0" y2="545.2"/>
<text class="tick" x="67.0" y="549.2" text-anchor="end">7.52</text>
<line class="grid" x1="78.0" y1="687.6" x2="1572.0" y2="687.6"/>
<text class="tick" x="67.0" y="691.6" text-anchor="end">4.01</text>
<line class="grid" x1="78.0" y1="830.0" x2="1572.0" y2="830.0"/>
<text class="tick" x="67.0" y="834.0" text-anchor="end">0.494</text>
<line class="axis" x1="78.0" y1="830.0" x2="1572.0" y2="830.0"/>
<line class="axis" x1="78.0" y1="118.0" x2="78.0" y2="830.0"/>
<text class="label" x="825.0" y="880.0" text-anchor="middle">wall clock (seconds)</text>
<text class="label" x="20" y="474.0" text-anchor="middle" transform="rotate(-90 20 474.0)">loss</text>
<g clip-path="url(#plot-area)">
<polyline class="curve" points="80.0,155.1 81.2,282.4 82.6,369.0 83.9,449.3 85.4,517.2 86.7,584.6 88.1,622.9 89.5,643.1 90.9,657.8 92.3,669.0 93.7,681.5 95.0,688.5 96.4,693.4 97.8,699.7 99.1,702.1 100.5,708.5 101.9,712.2 103.3,715.2 104.6,719.4 106.0,720.4 107.4,720.2 108.7,726.4 110.1,728.2 111.5,726.6 112.8,728.9 115.6,734.7 117.0,733.6 118.5,735.1 119.8,735.1 121.2,738.8 122.6,742.0 124.0,742.7 125.3,740.9 126.6,743.7 128.0,745.1 129.4,741.2 130.8,745.4 132.1,742.1 133.5,745.7 134.9,745.8 136.3,749.3 137.6,745.9 139.0,749.9 140.3,748.8 141.6,750.7 143.0,752.0 144.4,751.7 145.8,750.8 147.1,751.4 148.5,754.0 151.1,754.4 152.4,752.8 153.8,754.9 155.3,756.0 156.6,756.8 158.1,757.8 159.4,758.9 160.9,760.9 162.3,760.8 163.7,757.8 165.0,760.9 166.4,760.1 167.7,763.2 169.1,761.2 170.4,761.2 171.8,764.1 173.2,764.3 174.5,764.9 175.9,764.1 177.2,764.3 178.6,763.5 179.9,761.9 181.3,764.8 182.7,765.8 184.0,763.8 186.6,764.2 188.0,765.0 189.4,764.6 190.7,766.5 192.2,765.7 193.5,765.4 194.9,768.0 196.3,767.5 197.8,766.3 199.2,767.6 200.6,765.3 201.9,767.5 203.3,766.6 204.7,767.4 206.1,767.1 207.4,769.8 208.8,768.4 210.2,766.9 211.5,765.0 212.9,766.9 214.3,769.3 215.6,770.0 217.0,769.4 218.3,769.5 219.7,769.5 222.3,768.6 224.0,769.5 225.3,771.0 226.7,769.2 228.1,769.7 229.5,769.5 230.9,771.1 232.2,769.9 233.6,772.1 235.1,773.7 236.4,770.5 237.8,772.7 239.2,772.9 240.6,770.1 241.9,772.5 243.3,770.0 244.7,773.6 246.1,769.6 247.4,772.1 248.8,773.4 250.1,769.7 251.5,772.4 252.8,771.9 254.2,772.4 255.5,772.5 258.1,773.6 259.4,772.2 260.8,771.7 262.2,773.8 263.5,772.7 264.9,774.5 266.3,770.7 267.7,774.0 269.0,773.8 270.4,772.1 271.8,772.0 273.2,773.8 274.6,774.9 275.9,773.6 277.3,772.8 278.6,775.3 280.0,774.0 281.3,775.4 282.7,775.0 284.1,774.3 285.4,774.7 286.8,776.7 288.1,772.6 289.5,774.9 290.8,772.8 293.4,774.9 294.8,774.9 296.2,777.9 297.5,774.1 298.9,773.9 300.3,776.7 301.7,777.1 303.1,777.0 304.5,777.3 305.9,777.4 307.3,776.5 308.6,775.9 310.0,778.6 311.3,776.7 312.6,777.3 314.0,775.6 315.4,775.7 316.7,778.1 318.1,776.7 319.4,776.1 320.8,776.7 322.2,777.4 323.5,774.0 324.9,776.8 326.2,779.3 328.8,776.5 330.2,775.8 331.5,778.8 332.9,776.4 334.2,776.7 335.5,778.6 336.9,777.1 338.2,776.5 339.6,775.9 340.9,776.8 342.3,777.6 343.6,776.1 344.9,778.7 346.3,777.6 347.7,777.1 349.0,775.9 350.3,778.6 351.7,781.0 353.1,778.1 354.5,778.8 355.8,779.7 357.1,777.6 358.5,777.3 359.8,781.2 361.1,778.1 363.6,779.4 365.3,779.6 366.6,778.2 367.9,779.0 369.3,780.3 370.6,779.8 372.0,779.4 373.3,779.0 374.7,778.1 376.0,777.5 377.4,780.9 378.7,778.6 380.0,778.8 381.4,777.3 382.7,779.7 384.0,780.7 385.4,779.6 386.7,780.0 388.1,780.6 389.5,780.1 390.9,778.7 392.2,781.4 393.5,780.4 394.8,779.8 396.2,780.6 398.7,778.0 400.1,779.3 401.4,780.4 402.8,781.0 404.1,780.2 405.4,780.0 406.8,780.7 408.1,780.4 409.5,779.8 410.8,781.3 412.1,780.5 413.5,779.0 414.8,779.7 416.2,780.0 417.5,781.3 418.9,779.8 420.2,779.9 421.6,782.3 422.9,781.6 424.3,778.7 425.6,779.4 427.0,780.1 428.3,782.9 429.7,780.9 431.0,783.2 433.5,780.0 434.9,781.3 436.2,779.7 437.5,781.9 438.8,781.0 440.2,779.3 441.5,780.0 442.8,780.6 444.2,781.4 445.5,781.3 446.9,780.6 448.2,778.9 449.6,782.0 450.9,781.1 452.3,780.9 453.6,778.5 454.9,782.6 456.2,781.1 457.6,781.7 459.0,781.0 460.4,781.7 461.8,781.7 463.1,779.4 464.4,783.3 465.8,783.0 468.3,781.9 469.6,778.6 470.9,782.1 472.2,779.8 473.6,782.3 475.0,783.2 476.3,781.6 477.7,781.6 479.0,783.9 480.3,782.2 481.6,778.8 483.0,781.5 484.3,782.9 485.6,780.3 487.0,782.3 488.4,782.1 489.7,781.0 491.1,782.0 492.4,782.8 493.7,783.7 495.1,780.4 496.4,782.1 497.8,779.8 499.1,783.5 500.4,780.4 502.9,781.5 504.6,781.5 505.9,784.1 507.2,779.9 508.6,780.9 509.9,782.7 511.2,781.9 512.6,784.1 513.9,780.8 515.3,783.4 516.7,781.9 518.0,782.9 519.3,784.2 520.7,783.5 522.0,781.8 523.3,781.4 524.7,782.7 526.0,783.2 527.3,782.8 528.7,781.9 530.0,783.3 531.3,783.7 532.7,779.4 534.0,782.4 535.3,783.1 537.8,783.8 539.2,782.6 540.5,782.5 541.8,784.4 543.2,783.6 544.5,783.4 545.8,783.1 547.1,784.3 548.5,782.9 549.8,784.6 551.2,783.0 552.5,782.7 553.9,785.9 555.2,785.2 556.5,785.1 557.9,783.5 559.2,785.2 560.5,782.7 561.9,782.7 563.2,781.9 564.5,784.0 565.9,783.3 567.2,785.3 568.6,783.4 569.9,783.8 572.4,784.6 573.8,783.1 575.1,785.4 576.4,782.3 577.8,784.6 579.1,785.0 580.4,786.7 581.8,786.1 583.1,782.6 584.5,784.3 585.9,782.8 587.2,782.4 588.6,784.9 589.9,783.8 591.2,784.4 592.5,785.2 593.9,782.5 595.2,785.3 596.5,785.1 597.9,784.1 599.2,784.6 600.6,785.5 601.9,785.9 603.3,781.1 604.6,783.2 607.1,784.6 608.5,782.9 609.9,783.3 611.2,785.3 612.6,784.4 613.9,785.6 615.2,785.0 616.6,783.7 617.9,785.2 619.2,784.5 620.6,783.8 621.9,783.4 623.2,785.1 624.6,784.6 626.0,786.5 627.3,785.0 628.6,785.3 630.0,786.2 631.3,783.4 632.7,785.0 634.0,786.3 635.4,785.4 636.7,784.8 638.1,784.2 639.4,785.2 641.9,786.8 643.6,786.4 644.9,786.1 646.2,786.2 647.6,785.3 648.9,786.7 650.3,786.7 651.6,786.4 652.9,783.7 654.3,786.8 655.6,784.4 657.0,785.7 658.4,784.5 659.8,785.2 661.1,787.5 662.4,785.1 663.7,787.1 665.1,786.9 666.4,784.8 667.7,785.6 669.1,784.5 670.4,785.5 671.7,785.3 673.0,786.2 674.4,787.5 676.9,786.1 678.2,785.9 679.5,785.9 680.9,786.0 682.2,785.9 683.5,783.2 684.9,786.2 686.2,787.6 687.6,785.7 688.9,785.8 690.2,784.8 691.6,787.5 692.9,786.0 694.2,785.9 695.6,786.5 696.9,786.9 698.3,785.4 699.6,787.9 700.9,787.4 702.3,787.6 703.6,786.4 704.9,788.1 706.3,786.5 707.6,789.0 708.9,786.1 711.5,785.6 712.8,786.0 714.1,787.0 715.4,786.7 716.8,784.4 718.1,787.5 719.4,786.8 720.8,786.0 722.1,786.2 723.4,786.0 724.8,786.9 726.1,787.7 727.4,787.2 728.7,787.1 730.1,788.0 731.4,786.6 732.7,787.0 734.1,786.0 735.4,787.1 736.7,786.2 738.0,787.2 739.4,785.1 740.7,787.3 742.1,788.4 743.4,787.5 746.0,787.7 747.3,786.3 748.6,787.6 750.0,787.4 751.4,786.3 752.7,788.7 754.1,788.1 755.4,786.6 756.8,786.4 758.1,788.2 759.6,784.8 761.0,787.1 762.3,788.0 763.6,786.4 765.0,790.3 766.3,788.5 767.6,787.2 769.0,788.0 770.3,789.9 771.7,787.1 773.0,785.5 774.4,788.7 775.7,788.8 777.0,789.0 778.3,789.5 780.8,788.8 782.5,787.8 783.8,788.8 785.2,787.8 786.5,789.4 787.9,787.9 789.2,787.1 790.6,790.0 791.9,787.2 793.2,788.3 794.6,786.6 795.9,789.0 797.2,789.8 798.6,789.3 799.9,787.6 801.3,788.6 802.7,789.2 804.0,789.6 805.3,787.7 806.7,788.6 808.0,787.2 809.3,787.4 810.7,787.4 812.0,785.5 813.4,789.4 815.9,787.4 817.2,786.8 818.5,791.7 819.8,787.7 821.2,789.0 822.5,789.8 823.9,787.8 825.2,790.0 826.5,789.6 827.9,786.7 829.2,787.4 830.6,786.9 831.9,789.6 833.2,788.1 834.6,786.4 835.9,789.1 837.2,790.1 838.6,790.1 839.9,790.3 841.2,788.5 842.6,790.4 843.9,788.8 845.2,786.8 846.6,789.3 847.9,787.3 850.5,788.8 851.8,787.8 853.1,789.4 854.5,786.3 855.8,787.1 857.1,787.6 858.5,787.3 859.8,788.2 861.1,789.7 862.5,789.1 863.8,787.3 865.1,791.3 866.5,788.9 867.8,788.4 869.2,789.8 870.6,789.1 871.9,789.8 873.3,788.5 874.6,788.4 875.9,789.7 877.2,790.0 878.6,789.9 879.9,789.8 881.2,791.0 882.6,787.6 885.0,790.1 886.4,789.8 887.7,787.8 889.0,788.8 890.4,790.6 891.7,788.6 893.1,786.4 894.4,789.4 895.8,788.5 897.1,789.8 898.5,789.1 899.8,790.4 901.1,789.0 902.4,788.3 903.7,790.7 905.1,788.7 906.4,790.2 907.7,789.2 909.1,792.4 910.5,790.2 911.8,787.6 913.1,790.0 914.5,790.2 915.9,788.6 917.3,789.0 919.8,788.1 921.5,789.2 922.9,790.0 924.3,790.6 925.6,790.2 926.9,790.2 928.2,789.8 929.6,788.5 930.9,791.1 932.2,790.7 933.6,789.9 934.9,789.6 936.2,790.2 937.6,789.9 938.9,789.2 940.2,789.8 941.5,791.0 942.8,790.8 944.1,791.0 945.5,791.1 946.8,792.0 948.1,787.9 949.5,792.4 950.8,791.1 952.1,789.6 954.6,791.2 955.9,790.6 957.3,789.4 958.6,789.3 959.9,789.6 961.3,790.3 962.6,790.5 963.9,790.2 965.3,789.7 966.6,791.0 968.0,789.9 969.3,789.4 970.7,790.1 972.0,790.1 973.4,791.5 974.7,790.0 976.0,790.0 977.4,788.9 978.8,788.7 980.1,791.1 981.4,792.3 982.8,790.8 984.1,791.7 985.5,791.0 986.8,791.5 989.3,789.6 990.6,790.5 991.9,790.7 993.3,788.4 994.6,789.7 996.0,792.4 997.3,791.6 998.7,789.3 1000.0,790.5 1001.3,791.9 1002.7,791.5 1004.0,788.9 1005.3,790.6 1006.7,791.1 1008.0,789.0 1009.3,791.2 1010.6,788.4 1012.0,788.7 1013.3,792.0 1014.7,792.3 1016.0,791.7 1017.4,790.7 1018.7,792.2 1020.0,791.0 1021.3,791.8 1023.8,790.9 1025.1,792.0 1026.5,788.6 1027.8,792.6 1029.2,790.8 1030.5,792.1 1031.8,789.3 1033.1,792.2 1034.4,792.6 1035.8,791.7 1037.1,792.3 1038.4,790.1 1039.8,791.6 1041.1,790.5 1042.4,791.1 1043.8,793.0 1045.1,791.2 1046.4,790.6 1047.8,791.0 1049.2,792.5 1050.5,791.5 1051.8,793.0 1053.1,793.0 1054.5,791.2 1055.8,791.7 1058.4,790.0 1060.0,793.2 1061.4,791.7 1062.7,792.8 1064.1,792.1 1065.4,792.0 1066.8,792.6 1068.1,793.0 1069.4,791.5 1070.8,791.0 1072.1,791.5 1073.4,791.8 1074.8,792.2 1076.2,791.3 1077.5,793.4 1078.8,790.9 1080.2,792.9 1081.5,790.9 1082.9,789.3 1084.2,791.2 1085.5,791.0 1086.9,791.9 1088.3,791.4 1089.6,790.3 1090.9,789.2 1093.4,791.5 1094.8,792.8 1096.1,792.3 1097.4,792.5 1098.7,792.2 1100.1,791.0 1101.4,791.4 1102.7,791.0 1104.0,792.3 1105.4,792.3 1106.7,794.2 1108.1,791.3 1109.4,791.7 1110.7,792.5 1112.1,793.9 1113.4,791.7 1114.7,793.3 1116.0,792.2 1117.4,790.1 1118.7,792.4 1120.1,791.2 1121.5,790.9 1122.8,792.6 1124.2,792.8 1125.6,791.0 1128.1,790.7 1129.4,794.5 1130.7,790.4 1132.1,794.7 1133.4,792.1 1134.8,792.0 1136.1,791.5 1137.4,792.1 1138.8,792.3 1140.1,792.5 1141.5,792.6 1142.8,793.3 1144.2,791.3 1145.5,792.7 1146.8,793.0 1148.2,791.8 1149.5,792.7 1150.9,792.8 1152.2,792.8 1153.5,793.8 1154.9,792.3 1156.2,792.5 1157.6,792.0 1158.9,793.9 1160.2,791.5 1162.7,792.7 1164.1,790.9 1165.4,794.1 1166.7,794.0 1168.0,792.2 1169.3,792.9 1170.7,790.6 1172.1,793.1 1173.4,791.9 1174.8,791.7 1176.1,792.7 1177.4,792.8 1178.8,793.6 1180.1,793.1 1181.5,792.7 1182.8,793.9 1184.1,792.4 1185.4,793.8 1186.8,791.8 1188.1,792.6 1189.5,790.7 1190.8,791.5 1192.2,791.5 1193.5,793.0 1194.8,794.3 1197.4,792.0 1199.0,792.7 1200.3,792.2 1201.7,793.1 1203.0,793.3 1204.3,792.3 1205.7,792.3 1207.0,793.5 1208.3,794.7 1209.7,793.5 1211.0,793.2 1212.3,792.5 1213.7,791.0 1215.0,792.5 1216.3,792.8 1217.7,793.5 1219.0,793.3 1220.4,793.5 1221.7,794.5 1223.0,793.0 1224.4,794.0 1225.7,791.8 1227.1,794.9 1228.5,794.7 1229.8,794.2 1232.3,792.7 1233.6,792.1 1234.9,791.6 1236.3,792.5 1237.6,792.3 1238.9,795.8 1240.2,793.0 1241.5,792.9 1242.9,794.4 1244.3,790.8 1245.6,790.5 1247.0,793.0 1248.3,794.9 1249.7,793.3 1251.0,792.6 1252.3,794.4 1253.7,791.5 1255.0,792.7 1256.3,793.3 1257.6,792.7 1259.0,795.0 1260.3,794.7 1261.6,792.0 1263.0,793.6 1264.3,793.7 1266.8,792.9 1268.1,792.5 1269.5,793.6 1270.8,791.1 1272.1,793.6 1273.4,791.9 1274.7,791.0 1276.1,793.6 1277.5,794.4 1278.8,791.7 1280.1,792.3 1281.5,792.0 1282.8,791.3 1284.2,793.3 1285.5,793.5 1286.8,795.4 1288.2,794.5 1289.5,794.4 1290.8,796.9 1292.2,791.5 1293.5,793.2 1294.9,794.5 1296.2,792.2 1297.5,793.2 1298.9,794.7 1301.4,793.2 1302.7,794.5 1304.1,795.9 1305.4,794.3 1306.7,793.7 1308.1,794.9 1309.5,792.4 1310.8,795.4 1312.2,793.2 1313.5,793.2 1314.8,791.1 1316.2,794.6 1317.5,793.9 1318.9,794.7 1320.2,792.9 1321.5,792.7 1322.8,796.1 1324.2,794.4 1325.5,794.9 1326.8,795.7 1328.1,793.8 1329.4,793.8 1330.8,792.2 1332.1,792.7 1333.4,794.1 1335.9,792.2 1337.5,792.8 1338.8,794.1 1340.2,794.9 1341.6,794.6 1342.9,792.6 1344.3,793.9 1345.6,796.4 1346.9,793.0 1348.3,794.8 1349.6,793.3 1350.9,794.7 1352.2,795.0 1353.6,794.3 1354.9,795.3 1356.2,790.9 1357.5,792.8 1358.8,794.2 1360.2,791.4 1361.5,791.2 1362.9,793.8 1364.2,794.1 1365.5,795.1 1366.9,792.4 1368.2,791.8 1370.7,793.3 1372.1,794.3 1373.5,794.2 1374.8,793.7 1376.2,794.6 1377.5,793.2 1378.8,791.9 1380.2,792.4 1381.5,792.1 1382.8,794.9 1384.2,794.4 1385.5,794.3 1386.8,794.0 1388.1,792.9 1389.4,794.6 1390.8,794.0 1392.1,792.4 1393.4,795.6 1394.8,795.0 1396.1,792.7 1397.4,794.0 1398.7,794.1 1400.1,794.0 1401.4,793.5 1402.8,794.0 1405.3,795.6 1406.7,794.4 1408.1,792.4 1409.6,795.3 1411.0,792.8 1412.3,792.2 1413.7,795.2 1415.0,793.3 1416.4,796.8 1417.7,793.4 1419.0,792.3 1420.3,795.2 1421.7,793.2 1423.0,795.0 1424.3,794.6 1425.6,794.2 1427.0,793.6 1428.3,794.0 1429.7,794.6 1431.0,794.9 1432.5,794.2 1433.8,795.3 1435.2,793.3 1436.5,793.4 1437.9,794.7 1440.4,793.6 1441.8,792.9 1443.1,794.4 1444.4,794.1 1445.8,794.5 1447.1,794.0 1448.5,793.1 1449.8,794.7 1451.1,793.2 1452.4,794.6 1453.8,793.5 1455.1,792.4 1456.5,793.0 1457.8,794.3 1459.2,792.2 1460.5,794.0 1461.9,796.1 1463.2,792.9 1464.5,794.2 1465.9,795.7 1467.3,793.1 1468.6,794.8 1470.0,795.3 1471.3,794.0 1472.6,793.6 1475.2,794.3" stroke="#2563eb" stroke-width="1.7" opacity="0.78"/>
<polyline class="curve" points="78.0,150.4 115.6,732.9 151.1,754.6 186.6,765.2 222.3,770.1 258.1,773.3 293.4,775.7 328.8,777.2 363.6,778.8 398.7,779.8 433.5,781.0 468.3,781.9 502.9,782.7 537.8,783.5 572.4,784.1 607.1,784.8 641.9,785.5 676.9,786.0 711.5,786.8 746.0,787.3 780.8,787.8 815.9,788.3 850.5,788.9 885.0,789.4 919.8,789.8 954.6,790.2 989.3,790.7 1023.8,791.1 1058.4,791.4 1093.4,791.8 1128.1,792.2 1162.7,792.5 1197.4,792.8 1232.3,793.0 1266.8,793.2 1301.4,793.4 1335.9,793.6 1370.7,793.8 1405.3,793.9 1440.4,793.9 1475.2,794.0" stroke="#2563eb" stroke-width="2.4" stroke-dasharray="7 4"/>
<circle cx="78.0" cy="150.4" r="2.2" fill="#2563eb"/>
<circle cx="115.6" cy="732.9" r="2.2" fill="#2563eb"/>
<circle cx="151.1" cy="754.6" r="2.2" fill="#2563eb"/>
<circle cx="186.6" cy="765.2" r="2.2" fill="#2563eb"/>
<circle cx="222.3" cy="770.1" r="2.2" fill="#2563eb"/>
<circle cx="258.1" cy="773.3" r="2.2" fill="#2563eb"/>
<circle cx="293.4" cy="775.7" r="2.2" fill="#2563eb"/>
<circle cx="328.8" cy="777.2" r="2.2" fill="#2563eb"/>
<circle cx="363.6" cy="778.8" r="2.2" fill="#2563eb"/>
<circle cx="398.7" cy="779.8" r="2.2" fill="#2563eb"/>
<circle cx="433.5" cy="781.0" r="2.2" fill="#2563eb"/>
<circle cx="468.3" cy="781.9" r="2.2" fill="#2563eb"/>
<circle cx="502.9" cy="782.7" r="2.2" fill="#2563eb"/>
<circle cx="537.8" cy="783.5" r="2.2" fill="#2563eb"/>
<circle cx="572.4" cy="784.1" r="2.2" fill="#2563eb"/>
<circle cx="607.1" cy="784.8" r="2.2" fill="#2563eb"/>
<circle cx="641.9" cy="785.5" r="2.2" fill="#2563eb"/>
<circle cx="676.9" cy="786.0" r="2.2" fill="#2563eb"/>
<circle cx="711.5" cy="786.8" r="2.2" fill="#2563eb"/>
<circle cx="746.0" cy="787.3" r="2.2" fill="#2563eb"/>
<circle cx="780.8" cy="787.8" r="2.2" fill="#2563eb"/>
<circle cx="815.9" cy="788.3" r="2.2" fill="#2563eb"/>
<circle cx="850.5" cy="788.9" r="2.2" fill="#2563eb"/>
<circle cx="885.0" cy="789.4" r="2.2" fill="#2563eb"/>
<circle cx="919.8" cy="789.8" r="2.2" fill="#2563eb"/>
<circle cx="954.6" cy="790.2" r="2.2" fill="#2563eb"/>
<circle cx="989.3" cy="790.7" r="2.2" fill="#2563eb"/>
<circle cx="1023.8" cy="791.1" r="2.2" fill="#2563eb"/>
<circle cx="1058.4" cy="791.4" r="2.2" fill="#2563eb"/>
<circle cx="1093.4" cy="791.8" r="2.2" fill="#2563eb"/>
<circle cx="1128.1" cy="792.2" r="2.2" fill="#2563eb"/>
<circle cx="1162.7" cy="792.5" r="2.2" fill="#2563eb"/>
<circle cx="1197.4" cy="792.8" r="2.2" fill="#2563eb"/>
<circle cx="1232.3" cy="793.0" r="2.2" fill="#2563eb"/>
<circle cx="1266.8" cy="793.2" r="2.2" fill="#2563eb"/>
<circle cx="1301.4" cy="793.4" r="2.2" fill="#2563eb"/>
<circle cx="1335.9" cy="793.6" r="2.2" fill="#2563eb"/>
<circle cx="1370.7" cy="793.8" r="2.2" fill="#2563eb"/>
<circle cx="1405.3" cy="793.9" r="2.2" fill="#2563eb"/>
<circle cx="1440.4" cy="793.9" r="2.2" fill="#2563eb"/>
<circle cx="1475.2" cy="794.0" r="2.2" fill="#2563eb"/>
<polyline class="curve" points="80.3,155.1 81.5,174.0 82.9,205.7 84.2,272.9 85.6,315.4 86.9,349.2 88.3,399.0 89.6,414.6 91.0,432.7 92.3,460.6 93.7,481.2 95.1,514.8 96.5,547.2 97.8,573.0 99.2,591.1 100.6,608.5 101.9,621.4 103.3,632.3 104.7,641.6 106.0,645.6 107.4,650.0 108.8,657.6 110.2,664.4 111.5,663.5 112.9,667.5 115.6,675.2 117.0,675.5 118.4,679.2 119.8,680.8 121.2,685.9 122.6,688.9 124.0,692.0 125.4,690.1 126.8,694.5 128.2,696.5 129.6,693.2 131.0,698.2 132.4,696.0 133.8,700.9 135.2,700.9 136.6,705.4 137.9,703.3 139.3,705.6 140.7,706.7 142.0,708.6 143.4,710.0 144.8,711.0 146.2,711.3 147.6,711.3 149.0,714.7 151.6,716.2 153.0,714.5 154.4,718.4 155.8,718.6 157.3,719.5 158.6,721.1 160.0,722.7 161.4,723.7 162.8,724.3 164.2,721.6 165.6,725.9 167.0,725.7 168.3,728.2 169.7,725.9 171.1,727.4 172.6,729.7 173.9,730.0 175.4,730.9 176.8,729.5 178.2,730.8 179.5,730.2 181.0,728.5 182.4,732.5 183.8,732.3 185.2,730.8 188.0,731.6 189.4,732.8 190.9,732.7 192.3,734.4 193.7,734.7 195.1,733.7 196.6,736.5 197.9,735.6 199.3,735.5 200.6,736.4 202.0,735.0 203.4,737.1 204.8,735.5 206.1,737.2 207.5,736.6 208.9,739.2 210.3,738.6 211.8,736.8 213.2,735.2 214.6,737.9 216.0,739.3 217.4,740.5 218.8,740.0 220.2,739.8 221.7,741.2 224.4,738.9 226.7,741.0 228.4,742.7 230.0,739.4 231.5,740.8 232.8,741.0 234.3,742.7 235.7,741.7 237.1,744.4 238.4,746.0 239.9,743.0 241.3,745.2 242.7,745.6 244.1,741.3 245.5,744.9 247.0,741.4 248.4,745.8 249.8,742.4 251.2,744.5 252.6,746.2 254.1,742.2 255.6,746.2 256.9,744.2 258.2,745.2 259.6,745.1 262.6,747.1 263.9,745.4 265.3,745.2 266.7,746.9 268.1,745.3 269.5,748.1 270.9,744.2 272.2,747.6 273.6,747.1 275.0,745.9 276.4,745.7 277.8,748.2 279.2,748.9 280.5,747.7 281.9,747.1 283.3,749.1 284.7,748.4 286.0,750.2 287.4,749.3 288.8,748.1 290.2,749.1 291.5,751.8 293.0,747.4 294.4,750.5 295.7,747.4 298.4,749.2 299.8,749.6 301.2,752.6 302.5,748.2 303.8,748.8 305.2,751.4 306.7,752.3 308.1,752.1 309.5,753.3 310.9,753.4 312.3,752.3 313.7,751.5 315.0,754.8 316.4,752.5 317.8,753.4 319.2,751.1 320.6,751.9 321.9,754.8 323.3,752.4 324.6,751.3 326.0,752.7 327.4,753.8 328.8,750.0 330.2,753.1 331.6,756.3 334.3,753.3 335.6,752.6 337.1,754.6 338.5,753.1 339.8,752.9 341.2,755.4 342.5,754.1 344.0,753.1 345.4,752.0 346.7,753.7 348.2,754.8 349.5,752.4 350.8,755.5 352.2,754.4 353.6,753.5 355.0,752.6 356.3,756.9 357.7,758.8 359.1,755.1 360.4,756.3 361.8,757.1 363.2,754.7 364.6,754.9 366.0,758.9 367.3,755.4 370.0,757.1 371.7,757.8 373.1,755.6 374.4,756.9 375.8,758.1 377.2,758.1 378.6,757.2 380.0,757.4 381.4,755.9 382.8,755.4 384.2,759.0 385.6,756.5 387.0,757.5 388.4,755.1 389.8,758.4 391.2,759.5 392.5,758.2 393.8,758.8 395.2,758.4 396.5,758.5 397.8,758.2 399.2,759.9 400.6,758.8 402.0,758.1 403.3,758.7 406.1,756.5 407.5,757.8 408.8,759.3 410.2,759.1 411.6,759.0 412.9,759.0 414.3,759.9 415.7,758.1 417.0,758.1 418.4,760.4 419.7,759.5 421.1,757.2 422.5,759.3 423.8,758.9 425.2,760.7 426.5,759.9 427.9,759.0 429.2,761.4 430.6,760.4 432.0,758.0 433.3,759.4 434.7,759.4 436.0,762.8 437.4,760.6 438.8,761.8 441.5,759.5 442.9,761.0 444.2,758.9 445.6,761.3 446.9,761.9 448.3,758.8 449.7,759.1 451.0,760.1 452.3,762.1 453.7,761.6 455.1,760.6 456.5,759.5 457.9,762.7 459.3,760.6 460.7,760.9 462.1,758.8 463.5,763.1 464.8,762.0 466.2,761.9 467.5,761.6 468.9,762.0 470.2,761.8 471.6,759.6 473.0,763.8 474.3,763.9 477.1,762.4 478.4,758.9 479.8,762.3 481.2,760.4 482.5,762.9 483.9,763.6 485.3,762.2 486.6,761.5 487.9,764.6 489.3,762.4 490.7,759.1 492.0,762.1 493.5,763.4 494.9,760.4 496.2,762.5 497.6,763.2 499.0,761.0 500.4,762.4 501.7,763.5 503.1,764.5 504.4,761.6 505.8,762.8 507.1,760.5 508.5,765.1 509.8,761.1 512.6,762.2 514.2,763.0 515.6,765.7 517.0,761.3 518.4,761.6 519.7,764.1 521.1,762.9 522.4,765.5 523.8,761.9 525.2,765.3 526.5,763.5 527.8,764.6 529.2,766.1 530.5,765.6 531.9,763.8 533.4,763.4 534.8,764.7 536.1,764.9 537.5,763.6 538.9,763.8 540.3,764.7 541.6,765.0 543.0,760.0 544.3,763.5 545.7,764.5 548.3,765.4 549.7,764.6 551.1,764.5 552.4,766.1 553.7,765.1 555.2,764.8 556.6,765.2 558.0,766.0 559.3,763.8 560.7,766.7 562.0,764.3 563.4,763.6 564.8,768.8 566.1,767.3 567.5,766.8 568.8,765.6 570.2,767.8 571.5,764.1 572.9,764.8 574.3,763.9 575.7,766.3 577.0,764.9 578.4,768.0 579.7,765.2 581.1,765.9 583.7,767.1 585.1,765.9 586.4,768.0 587.8,764.3 589.1,766.7 590.5,767.4 591.9,769.1 593.3,768.5 594.7,765.0 596.0,766.5 597.4,765.3 598.7,764.7 600.1,767.1 601.5,766.2 602.8,766.2 604.2,767.4 605.5,764.0 606.9,767.9 608.2,768.1 609.6,767.1 611.0,767.5 612.4,768.4 613.7,768.8 615.0,763.5 616.4,765.2 619.0,767.8 620.4,765.3 621.7,765.6 623.1,767.7 624.4,766.8 625.8,769.3 627.1,767.6 628.5,765.7 629.8,768.4 631.2,766.9 632.6,765.8 633.9,766.3 635.3,767.4 636.7,767.7 638.0,769.4 639.4,768.3 640.7,768.4 642.1,769.2 643.5,765.9 644.9,767.7 646.3,769.4 647.7,768.1 649.2,767.6 650.5,766.6 651.9,768.0 654.5,770.1 656.2,768.9 657.7,769.2 659.1,769.0 660.4,768.2 661.8,769.6 663.2,770.1 664.5,770.1 665.9,766.8 667.3,769.9 668.7,766.6 670.0,768.9 671.3,767.1 672.8,768.2 674.2,771.2 675.5,768.4 677.0,769.9 678.3,770.0 679.7,767.2 681.0,768.8 682.4,767.0 683.8,768.3 685.1,768.1 686.5,769.0 687.9,770.0 690.6,769.0 692.0,768.6 693.3,768.9 694.7,769.4 696.1,768.4 697.5,765.3 698.8,769.6 700.2,770.4 701.5,768.5 702.9,769.2 704.3,768.2 705.7,770.6 707.1,769.2 708.4,768.8 709.8,770.2 711.2,769.9 712.5,768.9 713.8,771.4 715.2,770.7 716.6,770.4 717.9,770.0 719.3,771.3 720.7,770.4 722.1,772.5 723.4,768.8 726.2,768.1 727.6,768.6 728.9,770.3 730.3,769.5 731.7,767.3 733.0,770.7 734.4,769.4 735.8,769.0 737.2,768.6 738.5,769.0 739.9,770.0 741.3,771.3 742.7,770.1 744.1,770.2 745.4,771.1 746.8,770.2 748.2,770.5 749.5,768.2 750.9,770.7 752.3,769.0 753.7,770.9 755.1,767.8 756.4,770.5 757.8,772.2 759.1,771.3 761.9,771.2 763.3,769.8 764.6,770.6 766.0,771.0 767.3,770.0 768.7,772.1 770.0,771.5 771.4,769.8 772.8,769.8 774.2,770.5 775.5,768.1 776.9,769.8 778.2,771.3 779.6,769.6 781.0,773.6 782.3,771.7 783.7,771.0 785.0,771.0 786.4,774.2 787.7,770.2 789.1,768.2 790.4,771.9 791.8,771.7 793.2,772.6 794.6,772.9 797.3,771.8 799.0,771.0 800.4,772.2 801.8,771.1 803.1,773.1 804.5,771.2 805.8,770.7 807.2,773.7 808.6,770.0 810.0,771.4 811.3,769.6 812.7,772.7 814.1,773.2 815.5,773.4 816.9,770.6 818.2,771.3 819.6,772.8 821.0,773.1 822.3,770.9 823.7,771.7 825.1,770.4 826.5,770.9 827.8,770.1 829.3,768.4 830.7,772.9 833.4,771.0 834.8,769.7 836.1,775.4 837.5,771.3 838.9,772.2 840.3,773.8 841.7,772.0 843.1,773.4 844.6,772.8 846.0,769.9 847.3,770.2 848.7,770.1 850.1,772.8 851.5,771.0 852.8,768.8 854.2,773.4 855.6,773.8 856.9,774.2 858.3,773.8 859.7,771.8 861.0,774.2 862.4,771.9 863.8,770.2 865.1,772.8 866.5,770.2 869.2,771.9 870.6,771.6 872.0,772.6 873.4,768.2 874.7,770.3 876.1,770.4 877.5,770.2 878.8,771.0 880.2,773.3 881.6,772.5 883.0,771.1 884.4,774.6 885.8,771.1 887.1,771.8 888.5,773.0 889.9,772.2 891.4,773.3 892.7,771.7 894.1,771.6 895.5,773.3 896.9,774.6 898.3,773.7 899.7,772.9 901.1,774.4 902.5,771.2 905.2,773.4 906.6,772.9 908.0,770.5 909.5,771.4 910.8,773.7 912.2,770.9 913.6,769.2 915.0,773.0 916.4,771.0 917.8,773.8 919.2,772.4 920.7,774.6 922.0,771.4 923.4,771.6 924.8,773.9 926.2,771.4 927.5,772.3 929.0,772.6 930.3,775.7 931.7,773.2 933.1,771.0 934.5,773.7 935.9,773.3 937.3,771.5 938.7,772.1 941.5,771.3 943.2,772.5 944.6,772.8 946.0,774.4 947.4,774.1 948.8,773.7 950.2,772.9 951.6,771.2 953.0,774.6 954.4,773.4 955.9,772.8 957.2,773.1 958.6,773.5 960.0,773.2 961.4,772.7 962.7,773.4 964.2,774.1 965.5,774.6 966.9,774.0 968.3,774.5 969.6,775.3 971.0,770.7 972.4,775.8 973.7,774.8 975.1,773.1 977.9,774.5 979.3,773.1 980.6,772.2 982.0,771.8 983.4,772.6 984.7,773.5 986.1,774.0 987.5,773.1 988.9,773.0 990.4,774.4 991.8,772.7 993.2,772.2 994.5,773.0 995.9,772.7 997.2,775.0 998.6,772.6 1000.0,772.7 1001.5,771.9 1002.8,771.3 1004.2,773.6 1005.6,775.6 1007.1,773.8 1008.4,774.3 1009.9,774.2 1011.2,774.4 1014.0,772.8 1015.3,773.6 1016.7,773.6 1018.2,770.9 1019.6,772.4 1021.0,775.5 1022.5,774.7 1023.9,772.5 1025.3,773.4 1026.6,774.7 1028.0,775.0 1029.4,771.6 1030.8,773.8 1032.2,774.7 1033.6,772.0 1034.9,774.4 1036.3,770.6 1037.7,771.2 1039.1,775.9 1040.5,775.2 1041.9,774.7 1043.3,773.7 1044.6,775.2 1046.0,774.0 1047.4,774.6 1050.2,774.2 1051.6,774.5 1052.9,771.1 1054.4,775.9 1055.7,774.1 1057.1,775.3 1058.4,771.9 1059.9,774.8 1061.2,776.2 1062.5,774.3 1063.9,774.8 1065.3,772.5 1066.7,774.5 1068.1,773.4 1069.4,773.8 1070.8,776.1 1072.2,773.8 1073.6,773.3 1075.0,774.1 1076.3,775.9 1077.8,774.0 1079.2,775.8 1080.6,775.7 1082.0,774.2 1083.4,774.3 1086.2,772.7 1088.0,775.9 1089.3,774.5 1090.7,776.0 1092.1,775.1 1093.4,775.0 1094.8,775.8 1096.2,775.5 1097.7,774.7 1099.1,773.2 1100.5,773.9 1101.9,774.5 1103.3,775.1 1104.7,773.2 1106.1,777.1 1107.5,773.2 1108.9,776.1 1110.2,773.8 1111.6,771.8 1112.9,773.7 1114.3,773.9 1115.7,774.8 1117.0,774.0 1118.4,772.1 1119.8,771.4 1122.5,774.1 1123.8,775.9 1125.2,775.1 1126.6,774.8 1127.9,775.7 1129.3,773.2 1130.7,774.3 1132.0,773.7 1133.4,774.5 1134.8,774.3 1136.2,777.8 1137.5,773.6 1138.8,774.4 1140.2,774.8 1141.6,776.6 1143.0,774.8 1144.3,776.0 1145.7,774.7 1147.1,772.2 1148.4,774.8 1149.8,773.9 1151.1,773.5 1152.5,775.3 1153.8,775.5 1155.2,773.4 1157.9,773.4 1159.2,777.2 1160.6,772.4 1162.0,777.1 1163.3,774.9 1164.7,774.1 1166.0,774.5 1167.3,774.1 1168.7,774.9 1170.1,775.4 1171.5,775.2 1172.8,775.6 1174.2,773.4 1175.6,774.9 1177.0,775.5 1178.3,774.4 1179.7,775.4 1181.0,775.6 1182.4,775.5 1183.7,776.3 1185.1,774.8 1186.5,774.6 1187.8,774.3 1189.2,776.9 1190.5,773.0 1193.2,774.9 1194.6,772.9 1195.9,777.0 1197.3,776.8 1198.7,774.7 1200.0,774.9 1201.4,773.0 1202.8,775.2 1204.1,775.0 1205.6,773.6 1206.9,774.5 1208.3,775.5 1209.7,775.4 1211.0,775.9 1212.4,775.3 1213.8,776.7 1215.2,774.5 1216.6,776.2 1217.9,773.7 1219.3,774.7 1220.6,772.7 1222.0,773.1 1223.3,773.5 1224.7,775.4 1226.0,777.4 1228.6,775.1 1230.3,774.9 1231.7,774.4 1233.0,776.0 1234.4,775.2 1235.8,774.9 1237.2,774.1 1238.5,775.6 1239.8,777.8 1241.2,776.6 1242.5,775.6 1243.9,774.8 1245.3,772.8 1246.6,774.3 1247.9,775.5 1249.2,776.1 1250.7,775.9 1252.0,776.5 1253.4,776.1 1254.8,775.3 1256.1,776.1 1257.5,773.4 1258.9,777.0 1260.2,778.3 1261.5,776.3 1264.3,774.7 1265.7,774.2 1267.0,773.3 1268.4,774.2 1269.7,774.7 1271.1,778.5 1272.4,774.0 1273.8,774.7 1275.2,776.5 1276.5,773.0 1277.8,772.9 1279.2,775.0 1280.5,777.2 1281.9,775.3 1283.3,774.4 1284.6,776.8 1286.0,773.5 1287.4,774.1 1288.8,776.0 1290.1,775.9 1291.5,777.8 1292.9,776.5 1294.2,774.1 1295.6,775.2 1296.9,775.9 1299.5,774.9 1300.8,774.9 1302.1,776.0 1303.5,772.9 1304.9,775.8 1306.3,773.8 1307.7,772.8 1309.0,776.2 1310.4,776.4 1311.8,774.0 1313.2,774.9 1314.5,774.5 1315.9,772.7 1317.2,775.6 1318.6,776.1 1320.0,777.7 1321.4,777.3 1322.7,776.7 1324.1,778.9 1325.4,773.1 1326.8,774.7 1328.1,776.2 1329.4,773.8 1330.8,774.8 1332.2,776.6 1334.8,775.0 1336.1,776.1 1337.4,778.7 1338.8,776.6 1340.1,776.2 1341.4,777.6 1342.8,773.7 1344.1,778.2 1345.5,775.1 1346.8,775.8 1348.2,772.6 1349.5,776.9 1350.8,776.3 1352.2,776.8 1353.5,774.5 1354.9,775.1 1356.3,778.7 1357.7,776.4 1359.0,777.5 1360.3,778.6 1361.7,775.7 1363.0,776.0 1364.3,773.7 1365.7,774.7 1367.1,776.4 1369.7,774.0 1371.4,774.3 1372.7,775.6 1374.0,777.5 1375.4,777.6 1376.7,774.3 1378.1,775.7 1379.4,779.1 1380.8,775.0 1382.1,777.4 1383.5,775.4 1384.8,777.1 1386.2,776.5 1387.5,776.6 1388.9,777.3 1390.2,772.4 1391.6,774.6 1393.0,776.2 1394.4,773.2 1395.7,772.7 1397.1,775.2 1398.4,776.4 1399.8,777.1 1401.1,774.3 1402.5,773.2 1405.3,774.9 1406.6,776.3 1408.0,775.8 1409.4,775.0 1410.8,776.9 1412.2,774.7 1413.6,773.1 1414.9,774.1 1416.2,774.0 1417.6,777.4 1419.0,775.9 1420.4,776.5 1421.7,776.3 1423.1,774.7 1424.5,776.9 1425.9,776.2 1427.2,774.0 1428.6,777.9 1429.9,777.0 1431.3,774.2 1432.6,776.4 1433.9,776.5 1435.3,775.7 1436.6,775.1 1438.0,776.0 1440.7,777.7 1442.1,775.7 1443.4,774.3 1444.8,778.2 1446.1,774.6 1447.5,773.7 1448.8,777.6 1450.2,774.9 1451.5,779.4 1452.9,774.8 1454.2,773.6 1455.6,777.2 1456.9,775.3 1458.3,777.3 1459.7,776.9 1461.0,776.6 1462.4,776.0 1463.7,775.9 1465.0,776.9 1466.4,777.3 1467.8,775.8 1469.1,777.9 1470.5,774.7 1471.8,775.3 1473.2,777.5 1475.8,775.7 1477.1,774.4 1478.5,776.2 1479.8,776.1 1481.1,776.1 1482.5,776.3 1483.9,775.6 1485.2,776.1 1486.6,775.0 1488.0,777.3 1489.4,775.5 1490.7,774.2 1492.1,775.0 1493.4,776.0 1494.8,773.6 1496.1,776.2 1497.4,777.7 1498.8,774.7 1500.1,776.5 1501.5,777.3 1502.9,775.0 1504.2,777.5 1505.6,777.0 1506.9,776.4 1508.3,775.5 1510.9,775.6" stroke="#dc2626" stroke-width="1.7" opacity="0.78"/>
<polyline class="curve" points="78.0,150.4 115.6,674.0 151.6,716.3 188.0,732.9 224.4,741.1 262.6,746.7 298.4,750.7 334.3,753.9 370.0,756.5 406.1,758.6 441.5,760.7 477.1,762.5 512.6,764.1 548.3,765.4 583.7,766.6 619.0,767.6 654.5,768.5 690.6,769.3 726.2,770.1 761.9,770.7 797.3,771.3 833.4,771.8 869.2,772.3 905.2,772.8 941.5,773.2 977.9,773.5 1014.0,773.9 1050.2,774.2 1086.2,774.5 1122.5,774.8 1157.9,775.0 1193.2,775.2 1228.6,775.4 1264.3,775.5 1299.5,775.7 1334.8,775.8 1369.7,776.0 1405.3,776.0 1440.7,776.2 1475.8,776.2 1510.9,776.3" stroke="#dc2626" stroke-width="2.4" stroke-dasharray="7 4"/>
<circle cx="78.0" cy="150.4" r="2.2" fill="#dc2626"/>
<circle cx="115.6" cy="674.0" r="2.2" fill="#dc2626"/>
<circle cx="151.6" cy="716.3" r="2.2" fill="#dc2626"/>
<circle cx="188.0" cy="732.9" r="2.2" fill="#dc2626"/>
<circle cx="224.4" cy="741.1" r="2.2" fill="#dc2626"/>
<circle cx="262.6" cy="746.7" r="2.2" fill="#dc2626"/>
<circle cx="298.4" cy="750.7" r="2.2" fill="#dc2626"/>
<circle cx="334.3" cy="753.9" r="2.2" fill="#dc2626"/>
<circle cx="370.0" cy="756.5" r="2.2" fill="#dc2626"/>
<circle cx="406.1" cy="758.6" r="2.2" fill="#dc2626"/>
<circle cx="441.5" cy="760.7" r="2.2" fill="#dc2626"/>
<circle cx="477.1" cy="762.5" r="2.2" fill="#dc2626"/>
<circle cx="512.6" cy="764.1" r="2.2" fill="#dc2626"/>
<circle cx="548.3" cy="765.4" r="2.2" fill="#dc2626"/>
<circle cx="583.7" cy="766.6" r="2.2" fill="#dc2626"/>
<circle cx="619.0" cy="767.6" r="2.2" fill="#dc2626"/>
<circle cx="654.5" cy="768.5" r="2.2" fill="#dc2626"/>
<circle cx="690.6" cy="769.3" r="2.2" fill="#dc2626"/>
<circle cx="726.2" cy="770.1" r="2.2" fill="#dc2626"/>
<circle cx="761.9" cy="770.7" r="2.2" fill="#dc2626"/>
<circle cx="797.3" cy="771.3" r="2.2" fill="#dc2626"/>
<circle cx="833.4" cy="771.8" r="2.2" fill="#dc2626"/>
<circle cx="869.2" cy="772.3" r="2.2" fill="#dc2626"/>
<circle cx="905.2" cy="772.8" r="2.2" fill="#dc2626"/>
<circle cx="941.5" cy="773.2" r="2.2" fill="#dc2626"/>
<circle cx="977.9" cy="773.5" r="2.2" fill="#dc2626"/>
<circle cx="1014.0" cy="773.9" r="2.2" fill="#dc2626"/>
<circle cx="1050.2" cy="774.2" r="2.2" fill="#dc2626"/>
<circle cx="1086.2" cy="774.5" r="2.2" fill="#dc2626"/>
<circle cx="1122.5" cy="774.8" r="2.2" fill="#dc2626"/>
<circle cx="1157.9" cy="775.0" r="2.2" fill="#dc2626"/>
<circle cx="1193.2" cy="775.2" r="2.2" fill="#dc2626"/>
<circle cx="1228.6" cy="775.4" r="2.2" fill="#dc2626"/>
<circle cx="1264.3" cy="775.5" r="2.2" fill="#dc2626"/>
<circle cx="1299.5" cy="775.7" r="2.2" fill="#dc2626"/>
<circle cx="1334.8" cy="775.8" r="2.2" fill="#dc2626"/>
<circle cx="1369.7" cy="776.0" r="2.2" fill="#dc2626"/>
<circle cx="1405.3" cy="776.0" r="2.2" fill="#dc2626"/>
<circle cx="1440.7" cy="776.2" r="2.2" fill="#dc2626"/>
<circle cx="1475.8" cy="776.2" r="2.2" fill="#dc2626"/>
<circle cx="1510.9" cy="776.3" r="2.2" fill="#dc2626"/>
<polyline class="curve" points="82.4,474.5 85.2,478.5 87.5,492.0 89.4,513.1 91.0,535.3 92.5,560.6 94.0,585.3 95.4,611.0 96.8,632.7 98.2,647.6 99.7,663.1 101.1,674.1 102.6,680.3 104.0,686.5 105.4,689.4 106.9,694.2 108.3,697.2 109.7,699.6 111.2,702.5 112.6,704.1 114.1,703.1 115.5,708.0 116.9,710.2 118.4,708.5 119.8,710.4 122.6,715.8 124.0,714.4 125.4,716.7 126.8,716.6 128.3,720.5 129.7,722.5 131.2,724.8 132.6,724.1 134.1,725.4 135.5,728.0 136.9,724.7 138.4,729.6 139.8,727.6 141.3,731.3 142.7,731.3 144.1,735.8 145.5,732.5 147.0,736.9 148.4,736.9 149.9,738.6 151.3,741.0 152.7,741.6 154.1,739.0 155.6,740.3 157.0,744.4 159.7,745.6 161.2,743.8 162.6,746.4 164.0,747.7 165.5,748.8 167.0,750.1 168.4,751.7 169.8,753.3 171.3,753.1 172.7,750.5 174.1,754.3 175.5,753.7 176.9,757.2 178.4,754.8 179.8,755.5 181.3,758.3 182.7,758.5 184.1,758.9 185.5,758.7 186.9,759.2 188.4,758.4 189.8,756.8 191.3,760.6 192.7,760.8 194.1,759.6 196.8,759.8 198.2,760.5 199.7,760.7 201.1,762.2 202.5,761.7 204.0,761.9 205.4,764.6 206.9,763.7 208.3,762.4 209.7,763.9 211.2,762.3 212.6,764.2 214.0,763.1 215.5,764.2 216.9,764.2 218.4,766.7 219.8,765.2 221.2,763.9 222.7,761.9 224.1,764.5 225.5,766.4 226.9,767.5 228.4,767.4 229.8,766.9 231.3,767.6 233.9,765.7 235.7,766.7 237.2,768.7 238.6,766.7 240.1,767.9 241.5,766.9 243.0,768.5 244.4,767.7 245.8,770.0 247.2,771.0 248.7,768.4 250.1,770.9 251.5,770.8 252.9,767.7 254.4,770.1 255.8,768.0 257.3,771.3 258.7,767.6 260.1,769.6 261.5,771.1 262.9,767.7 264.4,771.0 265.8,769.9 267.2,770.4 268.6,770.1 271.3,771.5 272.7,770.2 274.2,769.9 275.6,771.7 277.0,770.5 278.5,772.5 279.9,768.9 281.3,771.9 282.7,771.9 284.2,770.2 285.6,770.2 287.1,772.2 288.5,773.1 289.9,772.2 291.3,771.2 292.7,773.8 294.2,772.1 295.6,773.7 297.0,773.7 298.5,772.4 299.9,773.0 301.3,775.2 302.8,771.9 304.2,773.4 305.7,771.3 308.3,772.9 309.7,773.3 311.2,776.2 312.7,772.8 314.1,772.1 315.5,775.3 316.9,774.8 318.3,775.8 319.8,776.2 321.2,776.2 322.6,775.4 324.1,774.9 325.5,777.4 326.9,775.2 328.4,776.1 329.8,774.4 331.2,774.6 332.6,777.0 334.1,775.5 335.5,774.7 336.9,775.2 338.3,776.0 339.7,773.1 341.1,775.9 342.6,778.3 345.2,775.1 346.6,774.7 348.0,777.6 349.4,775.6 350.9,775.4 352.3,777.5 353.7,776.1 355.2,775.7 356.6,774.6 358.0,775.8 359.4,776.3 360.9,774.8 362.3,777.5 363.7,776.5 365.2,776.1 366.6,774.5 368.0,777.8 369.4,779.9 370.8,776.9 372.2,777.9 373.7,778.6 375.1,776.6 376.5,776.9 377.9,779.7 379.4,776.6 381.9,778.3 383.7,778.7 385.1,777.1 386.5,777.8 387.8,779.5 389.3,778.8 390.7,778.1 392.1,778.2 393.5,777.1 394.9,776.5 396.3,780.0 397.7,777.1 399.1,778.5 400.5,776.0 402.0,778.5 403.4,779.9 404.8,778.4 406.3,778.9 407.7,779.7 409.1,779.6 410.5,777.8 411.9,780.4 413.3,779.6 414.8,779.2 416.2,779.6 418.8,776.9 420.2,778.4 421.6,779.5 423.0,780.1 424.4,779.4 425.9,779.5 427.3,780.5 428.7,779.4 430.2,779.1 431.6,780.3 433.0,780.0 434.4,777.9 435.9,778.5 437.3,778.9 438.7,780.2 440.1,779.1 441.5,779.1 442.9,781.7 444.4,781.2 445.8,778.1 447.2,779.2 448.7,779.6 450.1,782.2 451.5,779.8 453.0,782.3 455.5,779.2 457.0,780.2 458.3,778.9 459.7,781.1 461.1,780.5 462.5,778.4 464.0,779.3 465.4,779.9 466.8,780.7 468.2,781.0 469.6,780.0 471.1,778.4 472.5,781.6 473.9,780.3 475.3,780.3 476.7,778.1 478.2,782.0 479.6,780.4 481.0,781.1 482.4,780.3 483.9,780.9 485.3,781.4 486.6,778.9 488.1,782.4 489.5,782.6 492.1,781.4 493.5,778.0 494.9,781.2 496.3,779.4 497.7,781.9 499.1,782.3 500.5,781.0 501.9,781.2 503.3,783.1 504.8,781.8 506.2,778.3 507.6,781.0 509.0,782.5 510.4,779.8 511.8,781.4 513.2,781.6 514.6,780.5 516.1,781.4 517.5,782.4 518.9,783.2 520.4,780.2 521.8,781.1 523.2,778.9 524.6,783.0 526.0,779.6 528.6,781.2 530.3,781.1 531.7,783.7 533.1,779.4 534.5,780.3 535.9,782.0 537.3,781.0 538.7,783.8 540.2,780.4 541.6,783.3 543.0,781.4 544.4,782.2 545.9,783.5 547.3,782.8 548.7,781.4 550.1,780.6 551.6,782.3 553.0,782.5 554.4,781.7 555.8,781.3 557.2,782.9 558.6,783.1 560.0,778.8 561.4,781.7 562.9,782.1 565.5,783.3 566.9,782.3 568.3,782.1 569.7,783.8 571.2,782.7 572.6,782.9 574.0,782.5 575.4,783.5 576.8,782.1 578.2,783.9 579.7,782.4 581.1,781.7 582.5,785.6 584.0,784.5 585.4,784.2 586.8,783.0 588.2,784.4 589.7,781.8 591.1,782.1 592.6,781.1 594.0,783.5 595.4,782.7 596.8,784.8 598.2,782.7 599.6,783.0 602.2,784.4 603.6,782.7 605.0,784.9 606.5,782.2 607.9,784.2 609.3,784.2 610.7,786.0 612.1,785.1 613.5,782.4 614.9,783.6 616.3,782.1 617.7,782.2 619.2,784.3 620.6,783.2 622.0,783.9 623.4,784.4 624.8,781.5 626.2,785.0 627.7,784.2 629.1,783.3 630.5,784.1 631.9,784.7 633.4,785.2 634.7,780.5 636.1,782.5 638.7,784.2 640.1,782.2 641.5,782.9 642.9,784.6 644.3,783.4 645.8,784.8 647.1,784.5 648.5,782.9 649.9,784.4 651.4,783.8 652.8,783.0 654.2,782.8 655.6,784.2 657.1,784.0 658.5,786.0 659.9,784.7 661.3,784.7 662.8,785.9 664.2,782.8 665.6,784.3 667.1,785.3 668.4,784.5 669.8,783.9 671.2,783.5 672.7,784.2 675.2,786.2 676.9,785.6 678.4,785.6 679.8,785.5 681.2,784.7 682.6,785.9 684.0,786.4 685.4,785.9 686.8,783.5 688.2,786.4 689.6,783.6 691.0,785.1 692.4,783.9 693.9,784.8 695.3,787.0 696.7,784.5 698.2,786.6 699.6,786.4 701.0,783.8 702.3,784.8 703.8,783.8 705.2,784.9 706.6,784.5 708.1,785.2 709.5,786.5 712.1,785.5 713.5,785.3 714.9,785.1 716.4,785.6 717.8,784.7 719.3,782.3 720.7,785.3 722.0,786.6 723.4,784.7 724.8,784.9 726.3,784.3 727.7,786.9 729.1,784.9 730.5,785.2 732.0,785.7 733.4,786.3 734.8,784.6 736.3,787.0 737.7,786.9 739.1,786.8 740.5,785.8 741.9,787.0 743.3,785.6 744.7,787.9 746.1,785.1 748.7,784.9 750.1,785.2 751.5,786.2 752.9,785.6 754.3,783.7 755.7,786.8 757.2,785.9 758.6,785.3 760.0,785.3 761.4,784.9 762.8,786.1 764.3,786.8 765.7,786.3 767.1,786.0 768.6,786.8 770.0,785.9 771.4,786.2 772.9,785.0 774.3,786.2 775.7,785.3 777.2,786.5 778.6,784.4 780.0,786.6 781.5,787.7 782.9,786.9 785.5,786.9 786.8,785.6 788.2,786.5 789.6,786.8 791.1,785.8 792.5,787.3 793.9,787.4 795.3,785.8 796.7,785.5 798.2,787.4 799.6,784.3 801.0,785.9 802.5,787.1 803.9,785.5 805.3,789.2 806.7,787.7 808.1,786.4 809.5,787.1 810.9,789.1 812.4,786.1 813.8,784.5 815.2,787.5 816.6,787.8 818.1,788.2 819.5,788.4 822.0,787.7 823.7,786.9 825.1,787.8 826.5,787.0 828.0,788.1 829.4,786.9 830.8,786.2 832.2,788.8 833.6,786.1 835.0,787.5 836.5,785.6 837.9,788.2 839.3,788.7 840.7,788.1 842.1,786.7 843.6,787.5 845.0,788.3 846.4,788.5 847.8,786.6 849.2,787.4 850.6,786.2 852.0,786.4 853.5,786.1 854.9,784.2 856.2,788.1 858.8,786.3 860.2,785.7 861.7,790.4 863.1,786.9 864.5,787.9 866.0,788.8 867.4,786.8 868.8,789.0 870.2,788.3 871.7,786.1 873.1,786.5 874.5,786.0 875.9,788.6 877.4,787.0 878.8,785.0 880.2,788.2 881.6,789.0 883.0,789.3 884.4,789.3 885.9,787.7 887.3,789.3 888.7,787.7 890.2,786.0 891.6,788.5 893.0,786.0 895.6,787.7 897.0,786.9 898.4,788.2 899.7,785.0 901.2,786.0 902.6,786.4 904.0,786.2 905.5,786.7 906.9,788.8 908.3,788.0 909.7,786.2 911.1,790.2 912.6,787.3 914.0,787.2 915.4,788.6 916.9,788.2 918.3,788.7 919.7,787.3 921.1,787.6 922.6,788.8 924.0,789.1 925.4,789.0 926.9,788.7 928.3,789.8 929.7,786.6 932.3,788.8 933.6,788.4 935.1,786.7 936.5,787.8 937.9,789.3 939.4,787.2 940.8,785.4 942.2,788.1 943.6,786.9 945.0,788.8 946.4,787.8 947.9,789.2 949.3,787.7 950.7,786.8 952.2,789.4 953.6,787.4 955.0,788.7 956.5,788.2 957.9,790.9 959.3,788.9 960.7,786.6 962.1,788.7 963.5,788.9 964.9,787.5 966.4,787.7 969.0,787.0 970.7,788.1 972.1,788.5 973.5,789.5 974.9,789.1 976.4,789.0 977.8,788.6 979.2,787.1 980.6,789.7 982.0,789.3 983.4,788.4 984.8,788.5 986.2,788.6 987.6,788.7 989.1,788.4 990.5,788.7 991.9,789.7 993.4,789.7 994.8,789.5 996.1,789.6 997.6,790.6 999.0,786.6 1000.4,790.8 1001.8,789.8 1003.3,788.3 1005.9,789.9 1007.3,789.2 1008.7,787.9 1010.0,787.9 1011.5,788.1 1012.9,788.8 1014.3,789.3 1015.7,788.8 1017.2,788.5 1018.5,789.7 1020.0,788.3 1021.4,787.7 1022.8,788.4 1024.2,788.6 1025.6,790.1 1027.0,788.4 1028.5,788.6 1029.9,787.5 1031.3,787.6 1032.7,789.2 1034.2,790.5 1035.6,789.4 1037.0,790.3 1038.4,789.8 1039.9,789.5 1042.5,788.1 1043.8,789.4 1045.2,789.0 1046.7,786.7 1048.1,788.0 1049.4,791.2 1050.8,790.2 1052.3,788.3 1053.7,788.9 1055.1,790.0 1056.5,790.1 1057.9,787.4 1059.4,789.0 1060.8,789.7 1062.2,787.5 1063.7,789.8 1065.1,786.8 1066.4,787.2 1067.8,790.4 1069.3,790.8 1070.7,790.1 1072.1,789.1 1073.6,790.8 1075.0,789.7 1076.4,790.3 1079.0,789.2 1080.4,790.6 1081.8,787.0 1083.3,791.1 1084.7,789.3 1086.1,790.7 1087.6,787.7 1089.0,790.8 1090.4,791.2 1091.8,789.9 1093.2,790.4 1094.6,788.3 1096.0,790.0 1097.5,789.0 1098.9,789.4 1100.3,791.2 1101.7,789.9 1103.1,789.2 1104.5,789.3 1105.9,790.8 1107.3,790.0 1108.7,791.2 1110.1,791.3 1111.5,789.7 1112.9,790.1 1115.5,788.5 1117.3,791.4 1118.7,790.1 1120.1,791.4 1121.5,790.5 1123.0,790.4 1124.4,791.1 1125.8,791.4 1127.3,790.1 1128.7,789.3 1130.0,789.6 1131.4,790.2 1132.8,790.6 1134.3,789.6 1135.7,792.0 1137.1,789.0 1138.5,791.0 1139.9,789.5 1141.4,787.5 1142.8,789.8 1144.2,789.2 1145.6,790.4 1147.0,789.7 1148.5,788.7 1149.9,787.5 1152.6,789.9 1154.1,791.6 1155.5,790.4 1156.9,790.6 1158.4,790.6 1159.8,789.0 1161.2,790.0 1162.6,789.5 1164.1,791.0 1165.5,790.5 1166.9,792.6 1168.3,789.5 1169.6,790.4 1171.1,790.9 1172.5,792.1 1173.9,790.1 1175.3,791.6 1176.8,790.5 1178.1,788.5 1179.5,790.6 1180.9,789.5 1182.4,789.4 1183.8,791.1 1185.2,791.0 1186.6,789.4 1189.2,789.1 1190.7,792.5 1192.1,788.6 1193.5,792.8 1194.9,790.2 1196.4,790.4 1197.8,789.9 1199.2,790.3 1200.6,790.7 1202.0,790.7 1203.4,790.9 1204.8,791.4 1206.2,789.7 1207.7,790.7 1209.1,790.9 1210.4,789.9 1211.8,790.8 1213.3,791.0 1214.7,790.9 1216.1,791.8 1217.5,790.5 1218.9,790.8 1220.4,790.2 1221.8,792.2 1223.2,789.5 1225.7,790.5 1227.2,789.2 1228.6,792.4 1230.0,792.2 1231.4,790.4 1232.8,791.0 1234.2,788.7 1235.6,791.3 1237.0,790.3 1238.4,789.8 1239.8,790.6 1241.2,790.9 1242.6,791.9 1244.0,791.5 1245.5,791.2 1246.9,792.0 1248.3,790.4 1249.7,792.0 1251.1,790.0 1252.6,790.7 1254.0,788.8 1255.4,789.5 1256.8,789.6 1258.2,791.3 1259.7,792.1 1262.2,790.3 1264.0,790.9 1265.4,790.2 1266.8,791.6 1268.2,791.2 1269.7,790.5 1271.1,790.0 1272.5,791.4 1274.0,792.8 1275.4,792.0 1276.8,791.1 1278.2,790.4 1279.6,789.0 1281.0,790.7 1282.4,791.0 1283.8,791.3 1285.3,791.4 1286.7,791.5 1288.1,792.3 1289.5,790.9 1291.0,792.1 1292.3,789.5 1293.7,793.0 1295.2,793.0 1296.6,792.4 1299.2,790.6 1300.6,790.4 1302.0,789.7 1303.4,790.4 1304.9,790.5 1306.3,793.8 1307.7,790.7 1309.1,790.9 1310.5,792.3 1311.9,788.9 1313.3,788.4 1314.7,790.8 1316.2,793.0 1317.6,791.2 1319.0,790.5 1320.5,792.6 1321.9,789.6 1323.3,790.6 1324.7,791.4 1326.1,791.0 1327.5,792.9 1329.0,792.7 1330.4,790.1 1331.8,791.6 1333.2,791.6 1335.8,790.9 1337.2,790.5 1338.7,791.6 1340.0,788.9 1341.4,791.4 1342.8,789.8 1344.3,788.9 1345.7,791.7 1347.1,792.4 1348.5,789.5 1349.9,790.7 1351.3,790.1 1352.7,789.4 1354.1,791.1 1355.6,791.7 1357.0,793.4 1358.4,792.4 1359.8,792.4 1361.3,794.9 1362.6,789.6 1364.0,790.9 1365.4,792.4 1366.9,790.1 1368.3,791.1 1369.7,792.8 1372.2,791.3 1373.6,792.4 1375.1,793.9 1376.5,792.2 1377.9,791.8 1379.3,793.1 1380.7,790.3 1382.1,793.1 1383.5,791.1 1384.9,791.2 1386.4,789.3 1387.7,792.7 1389.2,792.1 1390.6,792.6 1392.0,790.8 1393.4,790.7 1394.8,794.2 1396.3,792.4 1397.7,792.9 1399.1,794.0 1400.6,791.9 1402.0,791.9 1403.4,790.1 1404.8,790.9 1406.3,792.1 1408.8,790.4 1410.6,790.7 1412.0,791.7 1413.4,792.7 1414.8,792.4 1416.3,790.5 1417.7,791.7 1419.1,794.5 1420.5,791.2 1421.9,793.1 1423.3,791.2 1424.7,792.5 1426.2,792.8 1427.6,792.3 1429.0,793.2 1430.4,788.9 1431.8,790.8 1433.2,792.3 1434.6,789.4 1436.0,789.0 1437.4,791.7 1438.9,792.1 1440.3,792.9 1441.7,790.1 1443.2,789.6 1445.8,791.2 1447.2,792.4 1448.6,792.0 1450.0,791.3 1451.5,792.5 1452.9,791.3 1454.3,789.8 1455.8,790.0 1457.2,789.9 1458.5,793.0 1459.9,792.3 1461.4,792.2 1462.8,792.0 1464.2,790.9 1465.6,792.5 1467.1,792.2 1468.5,790.3 1469.9,793.4 1471.4,792.8 1472.8,790.5 1474.2,792.1 1475.6,792.0 1477.0,791.8 1478.5,791.2 1479.9,791.8 1482.4,793.2 1483.8,792.1 1485.3,790.4 1486.7,793.3 1488.1,790.5 1489.5,790.0 1491.0,793.1 1492.4,791.1 1493.8,794.5 1495.2,791.4 1496.6,790.2 1498.0,793.0 1499.4,791.1 1500.8,793.0 1502.2,792.7 1503.6,792.3 1505.1,791.4 1506.5,791.7 1507.9,792.4 1509.3,792.8 1510.8,792.1 1512.2,793.4 1513.6,790.9 1515.0,791.4 1516.4,792.4 1519.0,791.7 1520.4,790.7 1521.9,792.2 1523.3,792.1 1524.7,792.3 1526.1,792.4 1527.6,791.2 1529.0,792.3 1530.4,790.9 1531.8,792.6 1533.3,791.4 1534.6,790.5 1536.0,790.7 1537.4,792.1 1538.8,790.0 1540.2,791.8 1541.6,793.9 1543.0,790.5 1544.4,792.2 1545.8,793.4 1547.3,790.9 1548.7,792.7 1550.1,793.2 1551.5,791.9 1553.0,791.3 1555.5,792.0" stroke="#059669" stroke-width="1.7" opacity="0.78"/>
<polyline class="curve" points="78.0,474.5 122.6,714.0 159.7,745.7 196.8,760.9 233.9,767.5 271.3,771.4 308.3,774.1 345.2,776.1 381.9,777.7 418.8,779.1 455.5,780.3 492.1,781.3 528.6,782.2 565.5,783.0 602.2,783.6 638.7,784.2 675.2,784.9 712.1,785.5 748.7,786.0 785.5,786.5 822.0,786.9 858.8,787.3 895.6,787.8 932.3,788.2 969.0,788.6 1005.9,788.9 1042.5,789.3 1079.0,789.6 1115.5,790.0 1152.6,790.2 1189.2,790.5 1225.7,790.8 1262.2,791.0 1299.2,791.2 1335.8,791.4 1372.2,791.5 1408.8,791.7 1445.8,791.8 1482.4,791.9 1519.0,791.9 1555.5,792.0" stroke="#059669" stroke-width="2.4" stroke-dasharray="7 4"/>
<circle cx="78.0" cy="474.5" r="2.2" fill="#059669"/>
<circle cx="122.6" cy="714.0" r="2.2" fill="#059669"/>
<circle cx="159.7" cy="745.7" r="2.2" fill="#059669"/>
<circle cx="196.8" cy="760.9" r="2.2" fill="#059669"/>
<circle cx="233.9" cy="767.5" r="2.2" fill="#059669"/>
<circle cx="271.3" cy="771.4" r="2.2" fill="#059669"/>
<circle cx="308.3" cy="774.1" r="2.2" fill="#059669"/>
<circle cx="345.2" cy="776.1" r="2.2" fill="#059669"/>
<circle cx="381.9" cy="777.7" r="2.2" fill="#059669"/>
<circle cx="418.8" cy="779.1" r="2.2" fill="#059669"/>
<circle cx="455.5" cy="780.3" r="2.2" fill="#059669"/>
<circle cx="492.1" cy="781.3" r="2.2" fill="#059669"/>
<circle cx="528.6" cy="782.2" r="2.2" fill="#059669"/>
<circle cx="565.5" cy="783.0" r="2.2" fill="#059669"/>
<circle cx="602.2" cy="783.6" r="2.2" fill="#059669"/>
<circle cx="638.7" cy="784.2" r="2.2" fill="#059669"/>
<circle cx="675.2" cy="784.9" r="2.2" fill="#059669"/>
<circle cx="712.1" cy="785.5" r="2.2" fill="#059669"/>
<circle cx="748.7" cy="786.0" r="2.2" fill="#059669"/>
<circle cx="785.5" cy="786.5" r="2.2" fill="#059669"/>
<circle cx="822.0" cy="786.9" r="2.2" fill="#059669"/>
<circle cx="858.8" cy="787.3" r="2.2" fill="#059669"/>
<circle cx="895.6" cy="787.8" r="2.2" fill="#059669"/>
<circle cx="932.3" cy="788.2" r="2.2" fill="#059669"/>
<circle cx="969.0" cy="788.6" r="2.2" fill="#059669"/>
<circle cx="1005.9" cy="788.9" r="2.2" fill="#059669"/>
<circle cx="1042.5" cy="789.3" r="2.2" fill="#059669"/>
<circle cx="1079.0" cy="789.6" r="2.2" fill="#059669"/>
<circle cx="1115.5" cy="790.0" r="2.2" fill="#059669"/>
<circle cx="1152.6" cy="790.2" r="2.2" fill="#059669"/>
<circle cx="1189.2" cy="790.5" r="2.2" fill="#059669"/>
<circle cx="1225.7" cy="790.8" r="2.2" fill="#059669"/>
<circle cx="1262.2" cy="791.0" r="2.2" fill="#059669"/>
<circle cx="1299.2" cy="791.2" r="2.2" fill="#059669"/>
<circle cx="1335.8" cy="791.4" r="2.2" fill="#059669"/>
<circle cx="1372.2" cy="791.5" r="2.2" fill="#059669"/>
<circle cx="1408.8" cy="791.7" r="2.2" fill="#059669"/>
<circle cx="1445.8" cy="791.8" r="2.2" fill="#059669"/>
<circle cx="1482.4" cy="791.9" r="2.2" fill="#059669"/>
<circle cx="1519.0" cy="791.9" r="2.2" fill="#059669"/>
<circle cx="1555.5" cy="792.0" r="2.2" fill="#059669"/>
<polyline class="curve" points="80.2,474.5 82.3,479.0 84.6,493.7 86.4,515.7 88.1,536.3 89.6,561.1 91.0,586.0 92.5,612.1 94.0,634.0 95.5,649.4 96.9,665.9 98.4,678.2 99.9,685.3 101.3,692.8 102.8,697.3 104.2,704.0 105.7,708.5 107.1,712.6 108.6,716.6 110.0,718.9 111.5,719.4 112.9,724.9 114.4,727.3 115.8,726.2 117.3,728.5 120.2,734.5 121.7,733.6 123.1,736.0 124.6,736.0 126.1,739.7 127.5,742.2 129.0,743.9 130.4,742.7 131.9,744.6 133.3,746.0 134.8,743.0 136.2,747.2 137.6,744.6 139.1,747.6 140.5,747.6 142.0,751.3 143.4,747.9 144.9,752.0 146.4,751.8 147.8,752.9 149.3,754.8 150.7,754.8 152.2,753.2 153.7,754.5 155.1,757.1 157.9,757.4 159.3,756.4 160.8,758.0 162.3,759.1 163.8,759.9 165.3,761.0 166.7,762.1 168.1,764.1 169.6,764.0 171.0,761.0 172.4,764.1 173.9,763.7 175.3,766.5 176.8,764.7 178.2,764.3 179.7,767.1 181.1,767.6 182.6,767.7 184.0,767.6 185.4,767.8 186.9,766.8 188.3,764.9 189.8,768.9 191.3,769.1 192.7,767.4 195.6,767.9 197.0,768.6 198.4,768.2 200.0,769.8 201.4,769.4 202.9,769.1 204.3,771.8 205.8,771.3 207.3,769.4 208.7,770.8 210.1,769.0 211.6,771.5 213.0,769.8 214.5,770.8 215.9,771.1 217.3,773.5 218.8,771.6 220.2,770.7 221.7,768.6 223.1,770.6 224.6,772.8 226.0,773.8 227.5,773.6 228.9,773.2 230.3,773.3 233.2,772.2 234.9,772.5 236.4,774.3 237.9,772.6 239.4,773.8 240.8,772.6 242.2,774.5 243.7,773.9 245.1,775.9 246.6,777.1 248.0,774.1 249.5,776.2 250.9,776.6 252.4,773.6 253.8,775.5 255.2,773.3 256.7,777.1 258.1,773.2 259.6,775.6 261.0,776.7 262.5,773.1 263.9,776.0 265.3,775.4 266.8,776.0 268.3,775.6 271.1,776.7 272.5,775.2 274.0,775.1 275.5,777.1 276.9,776.2 278.4,777.6 279.8,774.3 281.3,777.2 282.7,777.1 284.1,775.5 285.6,775.1 287.1,777.5 288.5,778.1 290.0,776.8 291.4,776.4 292.8,779.0 294.3,777.0 295.7,778.6 297.2,778.5 298.6,777.7 300.1,777.9 301.5,779.5 303.0,776.5 304.4,778.4 305.9,776.3 308.8,777.7 310.2,778.0 311.7,780.9 313.1,777.9 314.6,776.8 316.0,780.0 317.5,780.2 318.9,780.4 320.4,780.5 321.9,780.5 323.3,779.8 324.8,779.2 326.2,781.9 327.7,779.9 329.1,780.9 330.6,778.9 332.0,779.2 333.4,780.9 334.9,780.0 336.3,779.0 337.7,779.6 339.2,780.5 340.6,777.3 342.0,780.2 343.5,782.3 346.2,779.7 347.6,779.1 349.1,781.8 350.5,779.9 351.9,779.7 353.4,781.8 354.8,780.0 356.2,779.7 357.6,778.8 359.1,780.1 360.5,780.9 361.9,779.4 363.4,781.5 364.8,780.5 366.3,780.4 367.7,778.9 369.1,781.8 370.5,783.6 372.0,781.0 373.4,781.6 374.9,782.7 376.3,780.6 377.7,780.7 379.2,783.8 380.6,780.8 383.3,782.1 385.0,782.8 386.5,781.3 387.9,781.7 389.4,783.5 390.8,782.7 392.3,782.0 393.7,782.3 395.1,780.9 396.6,780.5 398.0,783.8 399.4,781.6 400.9,782.2 402.3,780.2 403.8,782.5 405.2,783.7 406.6,782.4 408.1,782.7 409.5,783.2 410.9,783.5 412.4,781.3 413.8,784.0 415.2,783.5 416.7,782.9 418.1,783.4 420.8,781.0 422.2,782.4 423.6,783.3 425.1,783.3 426.5,782.8 427.9,783.2 429.4,784.3 430.8,783.3 432.2,782.7 433.7,784.0 435.1,783.9 436.5,781.7 438.0,782.2 439.4,782.9 440.8,783.9 442.3,782.9 443.7,782.6 445.1,784.9 446.6,784.5 448.0,781.9 449.4,782.8 450.9,783.2 452.3,785.9 453.7,783.7 455.2,785.9 457.9,783.0 459.3,784.0 460.7,782.5 462.2,784.6 463.6,784.0 465.0,782.2 466.5,782.8 467.9,783.8 469.3,784.2 470.8,784.3 472.2,783.2 473.6,781.7 475.1,784.8 476.5,784.0 477.9,784.0 479.4,781.4 480.8,785.3 482.2,784.1 483.7,784.3 485.1,784.0 486.5,784.6 488.0,784.5 489.4,782.5 490.8,785.8 492.3,785.6 494.9,784.5 496.4,781.6 497.8,785.0 499.2,782.7 500.7,785.2 502.1,785.6 503.5,784.5 505.0,784.4 506.4,786.4 507.8,785.1 509.3,782.0 510.7,784.5 512.1,785.8 513.6,783.4 515.0,785.0 516.4,785.0 517.8,783.6 519.3,784.8 520.7,785.6 522.2,786.1 523.6,783.7 525.0,784.7 526.5,782.6 527.9,786.4 529.3,783.1 532.0,784.1 533.8,784.4 535.2,786.7 536.7,782.7 538.1,783.7 539.5,785.6 541.0,784.9 542.4,786.9 543.9,783.7 545.3,786.3 546.7,784.9 548.1,785.5 549.6,787.0 551.0,786.0 552.5,784.5 553.9,784.3 555.3,785.4 556.8,785.8 558.2,785.4 559.6,784.7 561.1,785.9 562.5,786.2 564.0,782.3 565.4,785.1 566.9,785.7 569.5,786.5 571.0,785.4 572.4,785.1 573.8,787.2 575.3,786.0 576.7,786.1 578.1,785.8 579.6,786.8 581.0,785.5 582.5,786.8 583.9,785.7 585.3,784.9 586.7,788.5 588.2,787.5 589.6,787.7 591.0,786.0 592.5,787.5 593.9,785.4 595.4,785.0 596.8,784.6 598.2,786.7 599.6,785.9 601.1,787.7 602.5,785.8 604.0,786.3 606.6,787.3 608.1,785.9 609.5,788.0 610.9,785.1 612.4,787.0 613.8,787.4 615.2,789.0 616.7,788.3 618.1,785.5 619.6,786.8 621.0,785.3 622.4,785.4 623.8,787.3 625.3,786.1 626.7,786.9 628.1,787.7 629.6,784.8 631.0,787.8 632.5,787.5 633.9,786.7 635.3,787.2 636.8,787.8 638.2,788.2 639.7,783.8 641.1,785.8 643.8,787.0 645.2,785.4 646.7,786.0 648.1,787.8 649.5,786.9 651.0,787.9 652.4,787.5 653.8,786.2 655.3,787.4 656.7,786.7 658.1,786.2 659.5,786.0 661.0,787.6 662.4,786.7 663.8,788.9 665.3,787.9 666.7,787.4 668.2,788.6 669.6,786.2 671.1,787.2 672.5,788.3 673.9,787.6 675.4,787.1 676.8,786.7 678.3,787.5 681.0,789.2 682.8,788.6 684.2,788.5 685.6,788.6 687.1,787.7 688.5,788.7 689.9,789.2 691.4,788.8 692.8,786.3 694.2,789.0 695.7,786.9 697.1,788.2 698.5,786.8 700.0,787.8 701.4,790.0 702.8,787.6 704.2,789.4 705.7,789.1 707.1,786.9 708.5,787.9 710.0,786.7 711.4,787.9 712.8,787.5 714.3,788.4 715.7,789.6 718.4,788.2 719.9,787.9 721.3,788.1 722.7,788.5 724.1,788.2 725.6,785.6 727.0,788.1 728.4,789.4 729.9,787.9 731.3,788.0 732.7,787.0 734.2,789.7 735.6,788.0 737.0,788.2 738.5,788.9 739.9,789.2 741.3,787.9 742.8,790.1 744.2,789.8 745.6,789.7 747.1,788.8 748.5,790.0 749.9,788.8 751.4,791.1 752.8,787.8 755.5,787.6 756.9,788.0 758.3,789.2 759.8,788.7 761.2,786.3 762.6,789.5 764.0,788.9 765.5,788.0 766.9,788.2 768.3,788.0 769.8,788.9 771.2,789.8 772.6,789.2 774.1,788.9 775.5,789.8 776.9,789.1 778.4,789.1 779.8,788.1 781.2,789.3 782.7,788.2 784.1,789.6 785.5,787.7 787.0,789.5 788.4,790.5 789.8,789.4 792.5,789.8 793.9,788.5 795.4,789.7 796.8,789.4 798.2,788.7 799.7,790.6 801.1,790.3 802.5,788.6 804.0,788.3 805.4,790.5 806.8,786.9 808.3,789.3 809.7,790.1 811.1,788.3 812.6,791.9 814.0,790.5 815.4,789.4 816.9,790.2 818.3,791.6 819.7,789.0 821.2,787.7 822.6,790.7 824.0,790.8 825.4,791.0 826.9,791.2 829.5,790.5 831.3,789.9 832.7,790.5 834.1,790.0 835.6,791.2 837.0,789.8 838.5,789.2 839.9,791.7 841.3,789.1 842.8,790.4 844.2,788.5 845.6,790.9 847.1,791.5 848.5,791.1 849.9,789.7 851.4,790.5 852.8,791.2 854.2,791.5 855.7,789.4 857.2,790.3 858.6,789.1 860.0,789.1 861.5,789.4 862.9,787.7 864.3,791.3 867.0,789.4 868.4,788.8 869.9,793.4 871.3,789.7 872.7,790.7 874.1,791.3 875.6,789.8 877.0,791.7 878.5,791.4 879.9,788.8 881.3,789.4 882.8,789.0 884.2,791.2 885.6,789.9 887.0,788.3 888.5,791.1 889.9,791.9 891.3,792.1 892.8,792.2 894.2,790.5 895.6,792.0 897.1,790.7 898.5,788.8 899.9,791.4 901.4,789.1 904.0,790.5 905.5,789.7 906.9,791.0 908.3,788.0 909.8,789.0 911.2,789.5 912.6,789.1 914.1,789.7 915.5,791.6 916.9,790.7 918.3,789.1 919.8,792.9 921.2,790.2 922.6,790.2 924.1,791.7 925.5,790.8 926.9,791.5 928.4,790.1 929.8,790.5 931.2,791.6 932.7,791.8 934.1,791.6 935.5,791.7 937.0,792.5 938.4,789.6 941.1,791.8 942.5,791.6 943.9,789.7 945.4,790.5 946.8,792.1 948.2,790.3 949.7,788.3 951.1,791.3 952.5,790.1 953.9,791.5 955.4,790.9 956.8,792.2 958.3,790.7 959.7,790.0 961.1,792.3 962.6,790.3 964.0,791.7 965.4,791.1 966.8,793.8 968.3,791.8 969.7,789.4 971.1,791.4 972.6,791.8 974.0,790.4 975.4,790.7 978.1,790.0 979.8,790.9 981.3,791.7 982.7,792.5 984.1,791.9 985.6,791.8 987.0,791.8 988.4,790.0 989.9,792.4 991.3,792.2 992.8,791.5 994.2,791.3 995.6,791.4 997.0,791.7 998.5,791.1 999.9,791.5 1001.3,792.5 1002.8,792.4 1004.2,792.5 1005.6,792.9 1007.1,793.4 1008.5,789.4 1009.9,794.1 1011.4,792.8 1012.8,791.3 1015.5,792.7 1016.9,792.1 1018.3,790.8 1019.8,791.0 1021.2,791.2 1022.6,791.7 1024.1,792.3 1025.5,791.7 1026.9,791.1 1028.4,792.3 1029.8,791.4 1031.2,790.9 1032.7,791.5 1034.1,791.8 1035.5,793.1 1036.9,791.4 1038.4,791.8 1039.8,790.4 1041.3,790.4 1042.7,792.4 1044.1,793.6 1045.6,792.3 1047.0,793.0 1048.4,792.4 1049.9,792.6 1052.6,791.2 1054.0,792.1 1055.4,792.0 1056.9,789.7 1058.3,791.0 1059.7,794.0 1061.2,793.1 1062.6,791.2 1064.0,792.2 1065.5,793.3 1066.9,792.8 1068.3,790.6 1069.8,792.1 1071.2,792.5 1072.6,790.4 1074.0,792.8 1075.5,789.8 1076.9,790.3 1078.3,793.7 1079.7,793.8 1081.2,793.1 1082.6,792.0 1084.1,793.4 1085.5,792.5 1086.9,793.3 1089.6,792.0 1091.1,793.5 1092.5,790.1 1093.9,794.2 1095.4,792.3 1096.8,793.6 1098.3,790.7 1099.7,793.6 1101.1,794.0 1102.5,792.8 1104.0,793.5 1105.4,791.4 1106.8,793.1 1108.3,791.8 1109.7,792.3 1111.1,794.5 1112.6,792.5 1114.0,791.8 1115.5,792.3 1116.9,793.8 1118.3,792.8 1119.7,794.1 1121.2,794.2 1122.6,792.7 1124.0,792.9 1126.7,791.4 1128.5,794.3 1129.9,792.9 1131.4,794.2 1132.8,793.4 1134.2,793.3 1135.7,794.1 1137.1,794.2 1138.5,792.8 1139.9,792.2 1141.4,792.7 1142.8,793.0 1144.2,793.5 1145.7,792.6 1147.1,794.5 1148.5,792.0 1150.0,794.2 1151.4,792.2 1152.8,790.6 1154.3,792.9 1155.7,792.1 1157.1,793.3 1158.6,792.7 1160.0,791.6 1161.4,790.6 1164.1,792.4 1165.5,794.2 1167.0,793.4 1168.4,793.5 1169.8,793.4 1171.3,792.1 1172.7,792.9 1174.1,792.5 1175.6,793.7 1177.0,793.5 1178.4,795.5 1179.8,792.4 1181.3,793.2 1182.7,793.6 1184.1,795.0 1185.6,793.1 1187.0,794.4 1188.4,793.4 1189.9,791.3 1191.3,793.5 1192.7,792.5 1194.2,792.1 1195.6,793.8 1197.0,794.3 1198.5,792.4 1201.1,792.0 1202.6,795.6 1204.0,791.6 1205.4,795.5 1206.9,793.3 1208.3,793.1 1209.7,792.7 1211.2,793.3 1212.6,793.4 1214.0,793.2 1215.4,793.9 1216.9,794.4 1218.3,792.6 1219.7,793.6 1221.2,793.9 1222.6,792.9 1224.1,793.9 1225.5,793.8 1226.9,793.8 1228.4,794.8 1229.8,793.4 1231.2,793.6 1232.7,793.2 1234.1,795.1 1235.5,792.5 1238.2,794.0 1239.7,792.1 1241.1,795.2 1242.5,795.1 1244.0,793.4 1245.4,794.0 1246.8,791.5 1248.3,794.2 1249.7,793.3 1251.1,792.8 1252.5,793.6 1254.0,793.9 1255.4,794.8 1256.9,794.4 1258.3,794.0 1259.7,794.6 1261.1,793.5 1262.6,794.9 1264.0,793.2 1265.4,793.6 1266.9,791.7 1268.3,792.5 1269.7,792.5 1271.2,794.0 1272.6,795.4 1275.3,793.3 1277.0,793.8 1278.5,793.2 1279.9,794.0 1281.3,794.4 1282.7,793.4 1284.2,793.1 1285.6,794.5 1287.0,795.6 1288.5,794.8 1289.9,793.8 1291.3,793.3 1292.8,792.2 1294.2,793.7 1295.6,794.0 1297.1,794.4 1298.5,794.3 1299.9,794.3 1301.3,795.6 1302.8,793.7 1304.2,794.9 1305.6,792.7 1307.1,795.8 1308.5,795.7 1310.0,795.4 1312.6,793.6 1314.1,793.1 1315.5,792.6 1317.0,793.5 1318.4,793.4 1319.8,796.7 1321.2,793.9 1322.7,793.5 1324.1,795.2 1325.5,791.7 1327.0,791.4 1328.4,793.9 1329.8,795.8 1331.3,794.2 1332.7,793.5 1334.2,795.2 1335.6,792.6 1337.0,793.5 1338.5,794.3 1339.9,793.9 1341.3,795.7 1342.8,795.4 1344.2,793.1 1345.6,794.6 1347.1,794.6 1349.7,793.7 1351.2,793.3 1352.6,794.4 1354.0,791.7 1355.5,794.3 1356.9,792.9 1358.3,792.0 1359.8,794.5 1361.2,795.3 1362.6,792.5 1364.1,793.4 1365.5,793.0 1367.0,792.5 1368.4,794.0 1369.8,794.4 1371.2,796.1 1372.7,795.4 1374.1,795.2 1375.5,797.6 1377.0,792.5 1378.4,794.0 1379.9,795.2 1381.3,793.1 1382.7,793.9 1384.2,795.5 1386.9,794.3 1388.3,795.4 1389.7,796.8 1391.1,795.2 1392.6,794.7 1394.0,795.9 1395.5,793.4 1396.9,796.0 1398.3,794.2 1399.7,794.2 1401.2,792.2 1402.6,795.6 1404.0,794.9 1405.5,795.3 1406.9,793.8 1408.3,793.5 1409.8,797.0 1411.2,795.2 1412.6,795.8 1414.0,796.7 1415.5,794.7 1416.9,794.7 1418.3,792.9 1419.8,793.6 1421.2,794.8 1423.9,793.3 1425.7,793.5 1427.1,794.9 1428.5,795.4 1429.9,795.5 1431.4,793.6 1432.8,794.6 1434.2,797.2 1435.6,794.0 1437.1,795.8 1438.5,794.1 1439.9,795.5 1441.4,795.5 1442.8,795.1 1444.2,796.0 1445.7,792.0 1447.1,793.7 1448.5,795.1 1449.9,792.0 1451.4,792.0 1452.8,794.6 1454.2,794.8 1455.7,795.9 1457.1,793.0 1458.6,792.8 1461.3,794.3 1462.7,794.9 1464.1,795.0 1465.6,794.4 1467.0,795.4 1468.4,794.0 1469.9,792.9 1471.3,793.2 1472.7,792.8 1474.2,795.7 1475.6,795.0 1477.0,795.1 1478.5,794.9 1479.9,793.8 1481.3,795.3 1482.8,795.1 1484.2,793.2 1485.6,796.2 1487.0,795.7 1488.4,793.5 1489.9,794.8 1491.3,794.8 1492.7,794.8 1494.2,794.3 1495.6,794.5 1498.3,796.3 1499.7,795.2 1501.1,793.1 1502.6,796.0 1504.0,793.6 1505.4,793.0 1506.8,795.9 1508.2,794.1 1509.7,797.3 1511.1,794.3 1512.5,793.0 1513.9,795.7 1515.4,793.6 1516.8,795.6 1518.2,795.4 1519.6,795.0 1521.1,794.3 1522.5,794.8 1523.9,795.4 1525.3,795.9 1526.8,795.0 1528.2,796.4 1529.6,793.9 1531.1,794.2 1532.5,795.6 1535.2,794.4 1536.6,793.5 1538.1,794.9 1539.5,794.9 1540.9,795.1 1542.3,794.8 1543.8,794.0 1545.2,795.3 1546.6,793.9 1548.0,795.7 1549.4,794.3 1550.9,793.3 1552.3,793.7 1553.7,795.0 1555.1,793.1 1556.6,794.7 1558.0,796.7 1559.4,793.4 1560.8,795.0 1562.3,796.3 1563.7,793.8 1565.1,795.6 1566.5,796.2 1568.0,794.7 1569.4,794.3 1572.0,795.0" stroke="#9333ea" stroke-width="1.7" opacity="0.78"/>
<polyline class="curve" points="78.0,474.5 120.2,732.9 157.9,757.9 195.6,768.7 233.2,773.9 271.1,776.6 308.8,778.7 346.2,780.5 383.3,781.8 420.8,782.9 457.9,784.0 494.9,784.7 532.0,785.4 569.5,786.1 606.6,786.7 643.8,787.2 681.0,787.8 718.4,788.4 755.5,788.9 792.5,789.3 829.5,789.9 867.0,790.2 904.0,790.6 941.1,791.0 978.1,791.5 1015.5,791.8 1052.6,792.1 1089.6,792.5 1126.7,792.8 1164.1,793.1 1201.1,793.4 1238.2,793.6 1275.3,793.9 1312.6,794.0 1349.7,794.2 1386.9,794.4 1423.9,794.5 1461.3,794.6 1498.3,794.7 1535.2,794.7 1572.0,794.8" stroke="#9333ea" stroke-width="2.4" stroke-dasharray="7 4"/>
<circle cx="78.0" cy="474.5" r="2.2" fill="#9333ea"/>
<circle cx="120.2" cy="732.9" r="2.2" fill="#9333ea"/>
<circle cx="157.9" cy="757.9" r="2.2" fill="#9333ea"/>
<circle cx="195.6" cy="768.7" r="2.2" fill="#9333ea"/>
<circle cx="233.2" cy="773.9" r="2.2" fill="#9333ea"/>
<circle cx="271.1" cy="776.6" r="2.2" fill="#9333ea"/>
<circle cx="308.8" cy="778.7" r="2.2" fill="#9333ea"/>
<circle cx="346.2" cy="780.5" r="2.2" fill="#9333ea"/>
<circle cx="383.3" cy="781.8" r="2.2" fill="#9333ea"/>
<circle cx="420.8" cy="782.9" r="2.2" fill="#9333ea"/>
<circle cx="457.9" cy="784.0" r="2.2" fill="#9333ea"/>
<circle cx="494.9" cy="784.7" r="2.2" fill="#9333ea"/>
<circle cx="532.0" cy="785.4" r="2.2" fill="#9333ea"/>
<circle cx="569.5" cy="786.1" r="2.2" fill="#9333ea"/>
<circle cx="606.6" cy="786.7" r="2.2" fill="#9333ea"/>
<circle cx="643.8" cy="787.2" r="2.2" fill="#9333ea"/>
<circle cx="681.0" cy="787.8" r="2.2" fill="#9333ea"/>
<circle cx="718.4" cy="788.4" r="2.2" fill="#9333ea"/>
<circle cx="755.5" cy="788.9" r="2.2" fill="#9333ea"/>
<circle cx="792.5" cy="789.3" r="2.2" fill="#9333ea"/>
<circle cx="829.5" cy="789.9" r="2.2" fill="#9333ea"/>
<circle cx="867.0" cy="790.2" r="2.2" fill="#9333ea"/>
<circle cx="904.0" cy="790.6" r="2.2" fill="#9333ea"/>
<circle cx="941.1" cy="791.0" r="2.2" fill="#9333ea"/>
<circle cx="978.1" cy="791.5" r="2.2" fill="#9333ea"/>
<circle cx="1015.5" cy="791.8" r="2.2" fill="#9333ea"/>
<circle cx="1052.6" cy="792.1" r="2.2" fill="#9333ea"/>
<circle cx="1089.6" cy="792.5" r="2.2" fill="#9333ea"/>
<circle cx="1126.7" cy="792.8" r="2.2" fill="#9333ea"/>
<circle cx="1164.1" cy="793.1" r="2.2" fill="#9333ea"/>
<circle cx="1201.1" cy="793.4" r="2.2" fill="#9333ea"/>
<circle cx="1238.2" cy="793.6" r="2.2" fill="#9333ea"/>
<circle cx="1275.3" cy="793.9" r="2.2" fill="#9333ea"/>
<circle cx="1312.6" cy="794.0" r="2.2" fill="#9333ea"/>
<circle cx="1349.7" cy="794.2" r="2.2" fill="#9333ea"/>
<circle cx="1386.9" cy="794.4" r="2.2" fill="#9333ea"/>
<circle cx="1423.9" cy="794.5" r="2.2" fill="#9333ea"/>
<circle cx="1461.3" cy="794.6" r="2.2" fill="#9333ea"/>
<circle cx="1498.3" cy="794.7" r="2.2" fill="#9333ea"/>
<circle cx="1535.2" cy="794.7" r="2.2" fill="#9333ea"/>
<circle cx="1572.0" cy="794.8" r="2.2" fill="#9333ea"/>
<polyline class="curve" points="80.0,475.4 82.1,481.2 84.4,499.9 86.3,520.9 88.0,540.7 89.5,564.5 90.9,588.0 92.4,612.1 93.9,632.0 95.3,646.1 96.8,661.9 98.3,673.8 99.7,681.5 101.2,689.1 102.6,693.7 104.1,700.1 105.6,704.9 107.0,708.6 108.5,712.9 109.9,715.3 111.3,714.5 112.8,720.8 114.2,723.7 115.7,722.2 117.1,724.3 120.0,730.1 121.4,729.1 122.8,731.5 124.3,731.3 125.8,734.8 127.2,737.7 128.7,739.3 130.1,737.7 131.6,740.0 133.0,741.6 134.4,738.1 135.9,742.2 137.3,739.3 138.7,742.8 140.2,742.8 141.6,746.7 143.1,742.9 144.5,746.7 146.0,746.6 147.4,747.7 148.9,749.2 150.3,748.9 151.8,748.8 153.3,749.3 154.7,751.6 157.6,752.1 159.0,750.8 160.5,753.0 161.9,753.6 163.5,754.1 164.9,756.0 166.3,757.1 167.8,759.0 169.2,758.8 170.7,756.1 172.1,758.9 173.5,758.6 175.0,761.6 176.4,759.6 177.9,759.5 179.3,762.4 180.8,763.0 182.2,762.8 183.7,762.5 185.1,763.1 186.5,762.2 188.0,760.4 189.4,764.2 190.9,764.7 192.3,763.1 195.2,763.7 196.6,764.3 198.0,763.9 199.5,765.7 201.0,765.4 202.5,765.4 203.9,767.7 205.4,767.4 206.8,766.0 208.2,767.3 209.7,765.1 211.1,767.6 212.6,766.1 214.0,767.3 215.5,767.7 216.9,769.9 218.3,768.5 219.8,767.2 221.2,765.2 222.7,767.1 224.1,769.4 225.5,770.4 227.0,770.3 228.4,770.2 229.9,770.2 232.7,769.0 234.4,770.0 235.9,771.5 237.4,769.6 238.8,770.6 240.3,769.8 241.7,771.5 243.1,770.8 244.6,773.3 246.0,774.0 247.5,771.4 248.9,773.5 250.4,773.9 251.8,770.7 253.3,772.7 254.7,770.5 256.1,774.3 257.6,770.2 259.0,772.8 260.5,774.1 261.9,770.4 263.3,773.2 264.8,773.0 266.3,773.4 267.7,772.8 270.5,774.1 271.9,772.9 273.4,772.7 274.9,774.9 276.3,773.7 277.7,775.4 279.2,771.6 280.6,774.8 282.0,774.7 283.5,772.9 284.9,773.0 286.5,775.1 287.9,775.9 289.3,774.6 290.8,773.7 292.2,776.5 293.7,774.9 295.1,776.7 296.6,776.1 298.0,775.5 299.5,775.9 300.9,777.6 302.4,774.2 303.8,776.2 305.3,774.3 308.1,776.1 309.5,776.2 311.0,778.8 312.5,775.6 313.9,775.2 315.4,777.8 316.8,778.0 318.2,778.6 319.7,778.7 321.1,778.7 322.6,778.0 324.0,777.4 325.4,780.0 326.8,777.8 328.3,778.7 329.7,777.3 331.2,777.3 332.6,779.7 334.0,778.2 335.5,777.1 336.9,778.0 338.3,778.6 339.8,775.8 341.2,778.4 342.7,780.7 345.4,777.9 346.8,777.4 348.2,780.3 349.7,777.8 351.1,778.1 352.5,780.1 354.0,778.7 355.4,777.9 356.8,777.5 358.2,778.5 359.7,779.0 361.1,777.7 362.5,779.9 364.0,779.0 365.4,778.6 366.8,777.3 368.3,780.2 369.7,782.3 371.1,779.5 372.6,780.2 374.0,781.1 375.5,779.1 376.9,779.3 378.3,782.7 379.8,779.4 382.4,780.5 384.2,781.1 385.6,779.6 387.0,780.3 388.4,781.9 389.8,781.2 391.2,780.8 392.7,780.7 394.1,779.8 395.5,779.1 396.9,782.6 398.3,780.1 399.8,780.9 401.2,779.0 402.6,781.1 404.1,782.4 405.5,781.1 407.0,781.4 408.4,782.1 409.8,782.2 411.3,780.2 412.7,782.6 414.1,781.9 415.6,781.6 417.0,782.1 419.7,779.6 421.1,780.7 422.5,782.1 424.0,782.2 425.4,781.9 426.8,782.0 428.2,782.8 429.7,782.1 431.1,781.4 432.5,782.8 434.0,782.2 435.4,780.3 436.8,780.9 438.3,781.6 439.7,782.9 441.1,781.6 442.6,781.5 444.0,783.9 445.4,783.2 446.9,780.8 448.3,781.6 449.7,781.7 451.2,784.7 452.6,782.7 454.1,784.6 456.7,781.9 458.1,783.2 459.6,781.5 461.0,783.6 462.4,782.9 463.8,780.9 465.2,781.3 466.6,782.3 468.1,783.2 469.5,783.2 470.9,782.2 472.3,780.7 473.7,783.9 475.1,782.6 476.6,782.7 478.0,780.4 479.4,784.2 480.8,782.9 482.3,783.3 483.7,783.0 485.1,783.4 486.6,783.4 488.0,781.0 489.4,784.7 490.9,785.0 493.6,783.6 495.0,780.6 496.4,783.7 497.9,781.6 499.3,784.0 500.7,784.4 502.1,783.0 503.6,783.5 505.0,785.3 506.4,784.0 507.9,780.8 509.3,783.4 510.7,784.7 512.2,782.1 513.6,783.8 515.0,784.0 516.5,782.7 517.9,783.7 519.3,784.6 520.8,785.3 522.2,782.7 523.6,783.7 525.1,781.5 526.5,785.3 527.9,782.0 530.6,783.1 532.4,783.1 533.8,785.9 535.3,781.7 536.7,782.7 538.1,784.6 539.6,783.4 541.0,785.9 542.4,782.6 543.8,785.0 545.2,783.8 546.7,784.5 548.1,785.8 549.5,785.1 550.9,783.5 552.4,783.0 553.8,784.6 555.2,784.9 556.7,784.3 558.1,783.6 559.5,785.1 561.0,785.2 562.4,781.2 563.8,784.0 565.2,784.5 567.9,785.6 569.3,784.4 570.8,784.0 572.2,786.2 573.6,785.2 575.0,785.1 576.5,784.7 577.9,785.5 579.3,784.1 580.8,786.0 582.2,784.7 583.6,784.3 585.1,787.6 586.5,786.9 587.9,786.6 589.4,785.1 590.8,786.5 592.2,784.0 593.6,784.4 595.1,783.6 596.5,785.8 597.9,785.0 599.4,786.9 600.8,785.0 602.3,785.5 604.9,786.3 606.3,785.0 607.7,787.0 609.1,783.9 610.6,786.5 612.0,786.5 613.4,788.3 614.8,787.6 616.3,784.4 617.7,785.9 619.2,784.2 620.6,784.2 622.0,786.2 623.4,785.0 624.9,785.9 626.3,786.9 627.8,784.0 629.2,787.0 630.6,786.7 632.1,785.7 633.5,786.2 635.0,787.0 636.4,787.3 637.8,782.6 639.3,784.6 642.0,786.4 643.5,784.2 644.9,784.9 646.3,786.8 647.7,785.8 649.1,786.9 650.6,786.7 652.0,785.4 653.4,786.7 654.9,785.8 656.3,785.2 657.7,784.8 659.2,786.6 660.6,786.0 662.0,788.1 663.4,786.9 664.9,786.5 666.3,787.7 667.7,785.3 669.1,786.5 670.6,787.5 672.0,786.5 673.4,786.2 674.8,785.8 676.2,786.5 678.9,788.1 680.7,787.7 682.1,787.6 683.5,787.3 684.9,786.7 686.4,787.8 687.8,788.2 689.3,787.9 690.7,785.4 692.1,788.3 693.5,785.9 695.0,787.2 696.4,786.2 697.8,787.1 699.3,789.0 700.7,786.9 702.1,788.5 703.6,788.5 705.0,786.0 706.4,786.9 707.8,785.7 709.3,786.8 710.7,786.5 712.1,787.3 713.6,788.6 716.2,787.3 717.6,787.1 719.1,787.2 720.5,787.5 721.9,787.0 723.3,784.5 724.8,787.3 726.2,788.6 727.6,786.8 729.1,787.0 730.5,786.0 731.9,789.0 733.4,787.1 734.8,787.3 736.2,788.0 737.7,788.4 739.1,787.1 740.5,789.1 742.0,788.7 743.4,788.9 744.8,787.9 746.2,788.9 747.7,787.9 749.1,790.3 750.5,787.0 753.2,786.8 754.6,787.5 756.1,788.3 757.5,787.9 758.9,785.3 760.4,788.4 761.8,787.8 763.2,787.3 764.6,787.5 766.1,787.4 767.5,788.0 769.0,788.8 770.4,788.3 771.8,787.9 773.2,789.0 774.6,788.0 776.1,788.3 777.5,787.0 778.9,788.4 780.3,787.3 781.7,788.7 783.2,786.8 784.6,788.8 786.0,789.6 787.4,789.1 790.1,788.9 791.5,787.4 793.0,788.9 794.4,788.5 795.8,787.9 797.3,789.7 798.7,789.4 800.1,787.9 801.6,787.5 803.0,789.5 804.4,786.1 805.9,788.1 807.3,789.3 808.7,787.4 810.1,791.1 811.6,789.5 813.0,788.6 814.4,789.1 815.9,790.9 817.3,787.9 818.7,786.6 820.2,789.7 821.6,789.8 823.0,790.0 824.5,790.2 827.1,789.7 828.8,789.1 830.3,790.0 831.7,789.0 833.1,790.3 834.5,788.7 835.9,788.4 837.3,791.1 838.8,788.1 840.2,789.3 841.7,787.5 843.1,790.2 844.5,790.6 845.9,789.9 847.4,788.8 848.8,789.7 850.2,790.4 851.7,790.7 853.1,788.7 854.6,789.5 856.0,788.3 857.4,788.3 858.8,788.3 860.2,786.6 861.6,790.5 864.3,788.4 865.7,787.8 867.1,792.4 868.6,788.9 870.0,790.0 871.4,790.7 872.8,789.1 874.2,790.9 875.6,790.6 877.1,787.7 878.5,788.5 879.9,788.1 881.4,790.2 882.8,789.1 884.2,787.4 885.6,790.1 887.1,791.1 888.5,791.1 889.9,791.1 891.4,789.4 892.8,791.1 894.2,789.8 895.7,787.6 897.1,790.3 898.5,788.0 901.2,789.6 902.6,788.9 904.0,789.9 905.4,786.9 906.8,788.0 908.2,788.4 909.7,788.1 911.1,788.8 912.5,790.5 914.0,790.0 915.4,788.3 916.8,792.0 918.2,789.2 919.7,789.4 921.1,790.6 922.5,790.0 924.0,790.6 925.4,789.2 926.8,789.6 928.3,790.6 929.7,790.9 931.1,790.9 932.6,790.7 934.0,791.6 935.4,788.6 938.1,790.7 939.5,790.6 940.9,788.6 942.3,789.6 943.8,791.2 945.2,789.6 946.6,787.2 948.0,790.2 949.4,789.1 950.8,790.9 952.3,790.0 953.7,791.1 955.1,789.5 956.6,789.1 958.0,791.5 959.4,789.6 960.9,790.6 962.3,790.1 963.7,792.9 965.2,791.0 966.6,788.4 968.0,790.5 969.5,790.9 970.9,789.5 972.3,789.6 975.0,789.0 976.8,789.8 978.2,790.9 979.6,791.2 981.0,791.1 982.4,791.0 983.9,790.8 985.3,789.0 986.7,791.6 988.2,791.3 989.6,790.5 991.0,790.3 992.5,790.8 993.9,790.6 995.4,790.0 996.8,790.5 998.2,791.4 999.7,791.3 1001.1,791.6 1002.5,791.8 1004.0,792.4 1005.4,788.3 1006.8,792.9 1008.2,791.7 1009.7,790.3 1012.3,791.8 1013.7,791.3 1015.2,790.0 1016.6,789.9 1018.0,790.3 1019.4,790.8 1020.8,791.3 1022.2,790.8 1023.7,790.3 1025.1,791.2 1026.6,790.3 1028.0,789.7 1029.4,790.5 1030.8,790.7 1032.3,792.1 1033.7,790.5 1035.1,790.4 1036.6,789.4 1038.0,789.7 1039.4,791.4 1040.9,792.5 1042.3,791.3 1043.7,792.1 1045.2,791.6 1046.6,791.6 1049.3,790.2 1050.7,791.4 1052.1,791.0 1053.5,788.8 1054.9,790.1 1056.3,793.2 1057.7,792.1 1059.2,790.1 1060.6,791.3 1062.1,792.3 1063.5,791.9 1064.9,789.5 1066.3,791.0 1067.8,791.6 1069.2,789.6 1070.6,792.1 1072.1,788.8 1073.5,789.2 1074.9,792.3 1076.4,792.9 1077.8,792.2 1079.2,791.2 1080.6,792.5 1082.1,791.5 1083.5,792.3 1086.2,791.1 1087.6,792.3 1089.0,789.3 1090.4,792.9 1091.8,791.4 1093.3,792.4 1094.7,789.8 1096.1,792.5 1097.6,793.1 1099.0,791.9 1100.4,792.5 1101.9,790.6 1103.3,792.1 1104.7,791.2 1106.1,791.3 1107.6,793.2 1109.0,791.3 1110.4,791.0 1111.9,791.3 1113.3,792.7 1114.8,791.8 1116.2,793.0 1117.6,793.2 1119.0,791.9 1120.5,792.1 1123.2,790.3 1124.9,793.1 1126.4,791.9 1127.8,793.2 1129.2,792.4 1130.6,792.3 1132.0,793.2 1133.5,793.4 1134.9,792.0 1136.3,791.3 1137.7,791.9 1139.2,792.0 1140.6,792.5 1142.0,791.6 1143.4,793.6 1144.9,791.0 1146.3,793.0 1147.7,791.2 1149.2,789.5 1150.6,791.8 1152.0,791.1 1153.4,792.4 1154.9,791.7 1156.3,790.8 1157.7,789.4 1160.4,791.8 1161.8,793.3 1163.2,792.5 1164.6,792.7 1166.1,792.4 1167.5,791.1 1168.9,792.0 1170.3,791.4 1171.7,792.7 1173.2,792.5 1174.6,794.5 1176.0,791.5 1177.5,792.2 1178.9,792.6 1180.3,793.9 1181.7,792.1 1183.2,793.3 1184.6,792.6 1186.0,790.4 1187.5,792.5 1188.9,791.6 1190.3,791.1 1191.8,792.8 1193.2,793.1 1194.6,791.5 1197.3,791.0 1198.7,794.6 1200.1,790.5 1201.5,794.6 1203.0,792.2 1204.4,792.2 1205.8,791.7 1207.2,792.1 1208.6,792.8 1210.0,792.3 1211.5,792.8 1212.9,793.4 1214.3,791.7 1215.8,792.7 1217.2,793.2 1218.6,791.7 1220.1,792.6 1221.5,792.8 1222.9,793.1 1224.4,793.7 1225.8,792.5 1227.3,792.6 1228.7,792.2 1230.1,794.3 1231.6,791.6 1234.2,792.7 1235.6,791.1 1237.0,794.2 1238.5,794.1 1239.9,792.3 1241.3,793.0 1242.7,790.4 1244.1,793.5 1245.6,792.3 1247.0,791.8 1248.4,792.6 1249.9,792.8 1251.3,793.8 1252.7,793.3 1254.2,793.1 1255.6,793.8 1257.0,792.4 1258.5,793.8 1259.9,792.0 1261.3,792.6 1262.7,790.8 1264.2,791.5 1265.6,791.4 1267.0,793.3 1268.5,794.3 1271.2,792.0 1272.9,792.7 1274.4,792.4 1275.8,793.1 1277.2,793.3 1278.6,792.4 1280.1,792.2 1281.5,793.4 1282.9,794.4 1284.4,794.0 1285.8,793.2 1287.2,792.2 1288.7,790.9 1290.1,792.5 1291.5,793.2 1292.9,793.4 1294.4,793.3 1295.8,793.4 1297.2,794.4 1298.7,792.9 1300.1,793.7 1301.5,791.7 1303.0,794.8 1304.4,794.9 1305.8,794.3 1308.5,792.7 1309.9,792.3 1311.3,791.4 1312.7,792.5 1314.2,792.4 1315.6,795.6 1317.0,792.9 1318.4,792.7 1319.9,794.2 1321.3,790.9 1322.7,790.4 1324.1,792.9 1325.6,794.7 1327.0,793.4 1328.4,792.3 1329.9,794.2 1331.3,791.3 1332.7,792.6 1334.1,793.3 1335.5,792.8 1336.9,794.8 1338.4,794.5 1339.8,792.1 1341.2,793.7 1342.6,793.8 1345.3,793.0 1346.7,792.4 1348.1,793.5 1349.5,790.8 1351.0,793.4 1352.4,791.7 1353.8,791.1 1355.2,793.3 1356.6,794.2 1358.1,791.6 1359.5,792.5 1361.0,792.2 1362.4,791.4 1363.8,793.2 1365.2,793.7 1366.7,795.1 1368.1,794.3 1369.6,794.1 1371.0,796.5 1372.4,791.4 1373.9,792.9 1375.3,794.1 1376.7,791.9 1378.1,793.3 1379.6,794.5 1382.3,793.2 1383.7,794.3 1385.1,795.8 1386.5,794.2 1387.9,793.5 1389.3,794.8 1390.8,792.4 1392.2,795.1 1393.6,793.0 1395.1,793.3 1396.5,791.1 1397.9,794.6 1399.4,793.9 1400.8,794.7 1402.2,792.8 1403.6,792.7 1405.1,795.9 1406.5,794.1 1408.0,794.9 1409.4,795.8 1410.8,793.6 1412.2,793.6 1413.7,792.1 1415.1,792.7 1416.5,793.9 1419.2,792.2 1420.9,792.6 1422.3,793.8 1423.8,794.5 1425.2,794.5 1426.6,792.7 1428.0,793.6 1429.4,796.5 1430.8,792.9 1432.3,794.7 1433.7,793.0 1435.1,794.5 1436.5,794.6 1438.0,794.3 1439.4,795.0 1440.8,791.0 1442.3,792.7 1443.7,794.1 1445.1,791.1 1446.5,791.0 1448.0,793.6 1449.4,793.8 1450.8,795.0 1452.2,792.2 1453.7,791.8 1456.4,793.1 1457.8,794.3 1459.2,793.9 1460.6,793.3 1462.0,794.2 1463.4,793.1 1464.9,791.9 1466.3,792.0 1467.7,791.9 1469.2,794.9 1470.6,794.2 1472.0,794.1 1473.5,793.8 1474.9,792.9 1476.3,794.5 1477.8,793.9 1479.2,792.1 1480.7,795.1 1482.1,795.0 1483.5,792.5 1484.9,793.9 1486.3,794.1 1487.8,793.6 1489.2,793.4 1490.6,793.6 1493.2,795.2 1494.6,794.0 1496.1,792.4 1497.5,795.2 1498.9,792.4 1500.3,791.8 1501.7,795.2 1503.1,793.2 1504.6,796.4 1506.0,793.3 1507.4,792.1 1508.8,794.9 1510.3,792.9 1511.7,794.9 1513.1,794.4 1514.5,794.0 1516.0,793.3 1517.4,793.7 1518.8,794.5 1520.2,794.7 1521.6,794.0 1523.1,795.2 1524.5,793.0 1525.9,793.3 1527.3,794.5 1530.0,793.5 1531.4,792.5 1532.8,793.9 1534.2,793.8 1535.6,794.2 1537.0,794.0 1538.4,792.9 1539.8,794.2 1541.2,792.9 1542.7,794.8 1544.1,793.0 1545.5,792.0 1546.9,792.7 1548.3,794.0 1549.8,792.0 1551.2,793.6 1552.6,795.9 1554.0,792.5 1555.5,794.1 1556.9,795.4 1558.3,792.8 1559.7,794.5 1561.2,795.2 1562.6,793.8 1564.0,793.4 1566.6,794.0" stroke="#ea580c" stroke-width="1.7" opacity="0.78"/>
<polyline class="curve" points="78.0,475.4 120.0,728.5 157.6,752.6 195.2,764.5 232.7,770.7 270.5,774.3 308.1,776.9 345.4,778.7 382.4,780.4 419.7,781.5 456.7,782.7 493.6,783.6 530.6,784.4 567.9,785.1 604.9,785.8 642.0,786.2 678.9,786.9 716.2,787.5 753.2,788.0 790.1,788.4 827.1,788.9 864.3,789.2 901.2,789.7 938.1,790.1 975.0,790.5 1012.3,790.8 1049.3,791.1 1086.2,791.4 1123.2,791.8 1160.4,792.1 1197.3,792.4 1234.2,792.7 1271.2,792.9 1308.5,793.1 1345.3,793.2 1382.3,793.4 1419.2,793.5 1456.4,793.6 1493.2,793.7 1530.0,793.8 1566.6,793.8" stroke="#ea580c" stroke-width="2.4" stroke-dasharray="7 4"/>
<circle cx="78.0" cy="475.4" r="2.2" fill="#ea580c"/>
<circle cx="120.0" cy="728.5" r="2.2" fill="#ea580c"/>
<circle cx="157.6" cy="752.6" r="2.2" fill="#ea580c"/>
<circle cx="195.2" cy="764.5" r="2.2" fill="#ea580c"/>
<circle cx="232.7" cy="770.7" r="2.2" fill="#ea580c"/>
<circle cx="270.5" cy="774.3" r="2.2" fill="#ea580c"/>
<circle cx="308.1" cy="776.9" r="2.2" fill="#ea580c"/>
<circle cx="345.4" cy="778.7" r="2.2" fill="#ea580c"/>
<circle cx="382.4" cy="780.4" r="2.2" fill="#ea580c"/>
<circle cx="419.7" cy="781.5" r="2.2" fill="#ea580c"/>
<circle cx="456.7" cy="782.7" r="2.2" fill="#ea580c"/>
<circle cx="493.6" cy="783.6" r="2.2" fill="#ea580c"/>
<circle cx="530.6" cy="784.4" r="2.2" fill="#ea580c"/>
<circle cx="567.9" cy="785.1" r="2.2" fill="#ea580c"/>
<circle cx="604.9" cy="785.8" r="2.2" fill="#ea580c"/>
<circle cx="642.0" cy="786.2" r="2.2" fill="#ea580c"/>
<circle cx="678.9" cy="786.9" r="2.2" fill="#ea580c"/>
<circle cx="716.2" cy="787.5" r="2.2" fill="#ea580c"/>
<circle cx="753.2" cy="788.0" r="2.2" fill="#ea580c"/>
<circle cx="790.1" cy="788.4" r="2.2" fill="#ea580c"/>
<circle cx="827.1" cy="788.9" r="2.2" fill="#ea580c"/>
<circle cx="864.3" cy="789.2" r="2.2" fill="#ea580c"/>
<circle cx="901.2" cy="789.7" r="2.2" fill="#ea580c"/>
<circle cx="938.1" cy="790.1" r="2.2" fill="#ea580c"/>
<circle cx="975.0" cy="790.5" r="2.2" fill="#ea580c"/>
<circle cx="1012.3" cy="790.8" r="2.2" fill="#ea580c"/>
<circle cx="1049.3" cy="791.1" r="2.2" fill="#ea580c"/>
<circle cx="1086.2" cy="791.4" r="2.2" fill="#ea580c"/>
<circle cx="1123.2" cy="791.8" r="2.2" fill="#ea580c"/>
<circle cx="1160.4" cy="792.1" r="2.2" fill="#ea580c"/>
<circle cx="1197.3" cy="792.4" r="2.2" fill="#ea580c"/>
<circle cx="1234.2" cy="792.7" r="2.2" fill="#ea580c"/>
<circle cx="1271.2" cy="792.9" r="2.2" fill="#ea580c"/>
<circle cx="1308.5" cy="793.1" r="2.2" fill="#ea580c"/>
<circle cx="1345.3" cy="793.2" r="2.2" fill="#ea580c"/>
<circle cx="1382.3" cy="793.4" r="2.2" fill="#ea580c"/>
<circle cx="1419.2" cy="793.5" r="2.2" fill="#ea580c"/>
<circle cx="1456.4" cy="793.6" r="2.2" fill="#ea580c"/>
<circle cx="1493.2" cy="793.7" r="2.2" fill="#ea580c"/>
<circle cx="1530.0" cy="793.8" r="2.2" fill="#ea580c"/>
<circle cx="1566.6" cy="793.8" r="2.2" fill="#ea580c"/>
</g>
</svg>
