<?xml version="1.0" encoding="UTF-8"?>
<svg xmlns="http://www.w3.org/2000/svg" width="1600" height="900" viewBox="0 0 1600 900" role="img" aria-labelledby="title desc">
<title id="title">Architecture ablations by training step</title>
<desc id="desc">Loss by training step, with solid training curves and dashed validation curves.</desc>
<rect width="100%" height="100%" fill="#ffffff"/>
<style>text{font-family:ui-sans-serif,system-ui,sans-serif;fill:#334155}.grid{stroke:#e2e8f0;stroke-width:1}.axis{stroke:#64748b;stroke-width:1.2}.curve{fill:none;stroke-linejoin:round;stroke-linecap:round}.tick{font-size:12px}.legend{font-size:12px}.label{font-size:14px}.heading{font-size:20px;font-weight:600;fill:#0f172a}</style>
<clipPath id="plot-area"><rect x="78.0" y="118.0" width="1494.0" height="712.0"/></clipPath>
<text class="heading" x="78.0" y="32">Architecture ablations by training step</text>
<line x1="78.0" y1="54.0" x2="103.0" y2="54.0" stroke="#2563eb" stroke-width="2"/>
<text class="legend" x="109.0" y="58.0">ablation_no_rmsnorm train</text>
<line x1="451.5" y1="54.0" x2="476.5" y2="54.0" stroke="#2563eb" stroke-width="2" stroke-dasharray="7 4"/>
<text class="legend" x="482.5" y="58.0">ablation_no_rmsnorm val</text>
<line x1="825.0" y1="54.0" x2="850.0" y2="54.0" stroke="#dc2626" stroke-width="2"/>
<text class="legend" x="856.0" y="58.0">ablation_no_rmsnorm_low_lr train</text>
<line x1="1198.5" y1="54.0" x2="1223.5" y2="54.0" stroke="#dc2626" stroke-width="2" stroke-dasharray="7 4"/>
<text class="legend" x="1229.5" y="58.0">ablation_no_rmsnorm_low_lr val</text>
<line x1="78.0" y1="74.0" x2="103.0" y2="74.0" stroke="#059669" stroke-width="2"/>
<text class="legend" x="109.0" y="78.0">ablation_no_rope train</text>
<line x1="451.5" y1="74.0" x2="476.5" y2="74.0" stroke="#059669" stroke-width="2" stroke-dasharray="7 4"/>
<text class="legend" x="482.5" y="78.0">ablation_no_rope val</text>
<line x1="825.0" y1="74.0" x2="850.0" y2="74.0" stroke="#9333ea" stroke-width="2"/>
<text class="legend" x="856.0" y="78.0">ablation_post_norm train</text>
<line x1="1198.5" y1="74.0" x2="1223.5" y2="74.0" stroke="#9333ea" stroke-width="2" stroke-dasharray="7 4"/>
<text class="legend" x="1229.5" y="78.0">ablation_post_norm val</text>
<line x1="78.0" y1="94.0" x2="103.0" y2="94.0" stroke="#ea580c" stroke-width="2"/>
<text class="legend" x="109.0" y="98.0">ablation_silu_matched train</text>
<line x1="451.5" y1="94.0" x2="476.5" y2="94.0" stroke="#ea580c" stroke-width="2" stroke-dasharray="7 4"/>
<text class="legend" x="482.5" y="98.0">ablation_silu_matched val</text>
<line class="grid" x1="78.0" y1="118.0" x2="78.0" y2="830.0"/>
<text class="tick" x="78.0" y="853.0" text-anchor="middle">0</text>
<line class="grid" x1="376.8" y1="118.0" x2="376.8" y2="830.0"/>
<text class="tick" x="376.8" y="853.0" text-anchor="middle">2000</text>
<line class="grid" x1="675.6" y1="118.0" x2="675.6" y2="830.0"/>
<text class="tick" x="675.6" y="853.0" text-anchor="middle">4000</text>
<line class="grid" x1="974.4" y1="118.0" x2="974.4" y2="830.0"/>
<text class="tick" x="974.4" y="853.0" text-anchor="middle">6000</text>
<line class="grid" x1="1273.2" y1="118.0" x2="1273.2" y2="830.0"/>
<text class="tick" x="1273.2" y="853.0" text-anchor="middle">8000</text>
<line class="grid" x1="1572.0" y1="118.0" x2="1572.0" y2="830.0"/>
<text class="tick" x="1572.0" y="853.0" text-anchor="middle">1.0e+04</text>
<line class="grid" x1="78.0" y1="118.0" x2="1572.0" y2="118.0"/>
<text class="tick" x="67.0" y="122.0" text-anchor="end">18.1</text>
<line class="grid" x1="78.0" y1="260.4" x2="1572.0" y2="260.4"/>
<text class="tick" x="67.0" y="264.4" text-anchor="end">14.5</text>
<line class="grid" x1="78.0" y1="402.8" x2="1572.0" y2="402.8"/>
<text class="tick" x="67.0" y="406.8" text-anchor="end">11.0</text>
<line class="grid" x1="78.0" y1="545.2" x2="1572.0" y2="545.2"/>
<text class="tick" x="67.0" y="549.2" text-anchor="end">7.52</text>
<line class="grid" x1="78.0" y1="687.6" x2="1572.0" y2="687.6"/>
<text class="tick" x="67.0" y="691.6" text-anchor="end">4.01</text>
<line class="grid" x1="78.0" y1="830.0" x2="1572.0" y2="830.0"/>
<text class="tick" x="67.0" y="834.0" text-anchor="end">0.494</text>
<line class="axis" x1="78.0" y1="830.0" x2="1572.0" y2="830.0"/>
<line class="axis" x1="78.0" y1="118.0" x2="78.0" y2="830.0"/>
<text class="label" x="825.0" y="880.0" text-anchor="middle">step</text>
<text class="label" x="20" y="474.0" text-anchor="middle" transform="rotate(-90 20 474.0)">loss</text>
<g clip-path="url(#plot-area)">
<polyline class="curve" points="78.1,155.1 79.5,282.4 81.0,369.0 82.5,449.3 84.0,517.2 85.5,584.6 87.0,622.9 88.5,643.1 90.0,657.8 91.4,669.0 92.9,681.5 94.4,688.5 95.9,693.4 97.4,699.7 98.9,702.1 100.4,708.5 101.9,712.2 103.4,715.2 104.9,719.4 106.4,720.4 107.9,720.2 109.4,726.4 110.9,728.2 112.4,726.6 113.9,728.9 115.3,734.7 116.8,733.6 118.3,735.1 119.8,735.1 121.3,738.8 122.8,742.0 124.3,742.7 125.8,740.9 127.3,743.7 128.8,745.1 130.3,741.2 131.8,745.4 133.3,742.1 134.8,745.7 136.3,745.8 137.8,749.3 139.3,745.9 140.7,749.9 142.2,748.8 143.7,750.7 145.2,752.0 146.7,751.7 148.2,750.8 149.7,751.4 151.2,754.0 152.7,754.4 154.2,752.8 155.7,754.9 157.2,756.0 158.7,756.8 160.2,757.8 161.7,758.9 163.2,760.9 164.7,760.8 166.1,757.8 167.6,760.9 169.1,760.1 170.6,763.2 172.1,761.2 173.6,761.2 175.1,764.1 176.6,764.3 178.1,764.9 179.6,764.1 181.1,764.3 182.6,763.5 184.1,761.9 185.6,764.8 187.1,765.8 188.6,763.8 190.1,764.2 191.5,765.0 193.0,764.6 194.5,766.5 196.0,765.7 197.5,765.4 199.0,768.0 200.5,767.5 202.0,766.3 203.5,767.6 205.0,765.3 206.5,767.5 208.0,766.6 209.5,767.4 211.0,767.1 212.5,769.8 214.0,768.4 215.4,766.9 216.9,765.0 218.4,766.9 219.9,769.3 221.4,770.0 222.9,769.4 224.4,769.5 225.9,769.5 227.4,768.6 228.9,769.5 230.4,771.0 231.9,769.2 233.4,769.7 234.9,769.5 236.4,771.1 237.9,769.9 239.4,772.1 240.8,773.7 242.3,770.5 243.8,772.7 245.3,772.9 246.8,770.1 248.3,772.5 249.8,770.0 251.3,773.6 252.8,769.6 254.3,772.1 255.8,773.4 257.3,769.7 258.8,772.4 260.3,771.9 261.8,772.4 263.3,772.5 264.8,773.6 266.2,772.2 267.7,771.7 269.2,773.8 270.7,772.7 272.2,774.5 273.7,770.7 275.2,774.0 276.7,773.8 278.2,772.1 279.7,772.0 281.2,773.8 282.7,774.9 284.2,773.6 285.7,772.8 287.2,775.3 288.7,774.0 290.1,775.4 291.6,775.0 293.1,774.3 294.6,774.7 296.1,776.7 297.6,772.6 299.1,774.9 300.6,772.8 302.1,774.9 303.6,774.9 305.1,777.9 306.6,774.1 308.1,773.9 309.6,776.7 311.1,777.1 312.6,777.0 314.1,777.3 315.5,777.4 317.0,776.5 318.5,775.9 320.0,778.6 321.5,776.7 323.0,777.3 324.5,775.6 326.0,775.7 327.5,778.1 329.0,776.7 330.5,776.1 332.0,776.7 333.5,777.4 335.0,774.0 336.5,776.8 338.0,779.3 339.4,776.5 340.9,775.8 342.4,778.8 343.9,776.4 345.4,776.7 346.9,778.6 348.4,777.1 349.9,776.5 351.4,775.9 352.9,776.8 354.4,777.6 355.9,776.1 357.4,778.7 358.9,777.6 360.4,777.1 361.9,775.9 363.4,778.6 364.8,781.0 366.3,778.1 367.8,778.8 369.3,779.7 370.8,777.6 372.3,777.3 373.8,781.2 375.3,778.1 376.8,779.4 378.3,779.6 379.8,778.2 381.3,779.0 382.8,780.3 384.3,779.8 385.8,779.4 387.3,779.0 388.8,778.1 390.2,777.5 391.7,780.9 393.2,778.6 394.7,778.8 396.2,777.3 397.7,779.7 399.2,780.7 400.7,779.6 402.2,780.0 403.7,780.6 405.2,780.1 406.7,778.7 408.2,781.4 409.7,780.4 411.2,779.8 412.7,780.6 414.2,778.0 415.6,779.3 417.1,780.4 418.6,781.0 420.1,780.2 421.6,780.0 423.1,780.7 424.6,780.4 426.1,779.8 427.6,781.3 429.1,780.5 430.6,779.0 432.1,779.7 433.6,780.0 435.1,781.3 436.6,779.8 438.1,779.9 439.5,782.3 441.0,781.6 442.5,778.7 444.0,779.4 445.5,780.1 447.0,782.9 448.5,780.9 450.0,783.2 451.5,780.0 453.0,781.3 454.5,779.7 456.0,781.9 457.5,781.0 459.0,779.3 460.5,780.0 462.0,780.6 463.5,781.4 464.9,781.3 466.4,780.6 467.9,778.9 469.4,782.0 470.9,781.1 472.4,780.9 473.9,778.5 475.4,782.6 476.9,781.1 478.4,781.7 479.9,781.0 481.4,781.7 482.9,781.7 484.4,779.4 485.9,783.3 487.4,783.0 488.9,781.9 490.3,778.6 491.8,782.1 493.3,779.8 494.8,782.3 496.3,783.2 497.8,781.6 499.3,781.6 500.8,783.9 502.3,782.2 503.8,778.8 505.3,781.5 506.8,782.9 508.3,780.3 509.8,782.3 511.3,782.1 512.8,781.0 514.2,782.0 515.7,782.8 517.2,783.7 518.7,780.4 520.2,782.1 521.7,779.8 523.2,783.5 524.7,780.4 526.2,781.5 527.7,781.5 529.2,784.1 530.7,779.9 532.2,780.9 533.7,782.7 535.2,781.9 536.7,784.1 538.2,780.8 539.6,783.4 541.1,781.9 542.6,782.9 544.1,784.2 545.6,783.5 547.1,781.8 548.6,781.4 550.1,782.7 551.6,783.2 553.1,782.8 554.6,781.9 556.1,783.3 557.6,783.7 559.1,779.4 560.6,782.4 562.1,783.1 563.5,783.8 565.0,782.6 566.5,782.5 568.0,784.4 569.5,783.6 571.0,783.4 572.5,783.1 574.0,784.3 575.5,782.9 577.0,784.6 578.5,783.0 580.0,782.7 581.5,785.9 583.0,785.2 584.5,785.1 586.0,783.5 587.5,785.2 588.9,782.7 590.4,782.7 591.9,781.9 593.4,784.0 594.9,783.3 596.4,785.3 597.9,783.4 599.4,783.8 600.9,784.6 602.4,783.1 603.9,785.4 605.4,782.3 606.9,784.6 608.4,785.0 609.9,786.7 611.4,786.1 612.9,782.6 614.3,784.3 615.8,782.8 617.3,782.4 618.8,784.9 620.3,783.8 621.8,784.4 623.3,785.2 624.8,782.5 626.3,785.3 627.8,785.1 629.3,784.1 630.8,784.6 632.3,785.5 633.8,785.9 635.3,781.1 636.8,783.2 638.2,784.6 639.7,782.9 641.2,783.3 642.7,785.3 644.2,784.4 645.7,785.6 647.2,785.0 648.7,783.7 650.2,785.2 651.7,784.5 653.2,783.8 654.7,783.4 656.2,785.1 657.7,784.6 659.2,786.5 660.7,785.0 662.2,785.3 663.6,786.2 665.1,783.4 666.6,785.0 668.1,786.3 669.6,785.4 671.1,784.8 672.6,784.2 674.1,785.2 675.6,786.8 677.1,786.4 678.6,786.1 680.1,786.2 681.6,785.3 683.1,786.7 684.6,786.7 686.1,786.4 687.6,783.7 689.0,786.8 690.5,784.4 692.0,785.7 693.5,784.5 695.0,785.2 696.5,787.5 698.0,785.1 699.5,787.1 701.0,786.9 702.5,784.8 704.0,785.6 705.5,784.5 707.0,785.5 708.5,785.3 710.0,786.2 711.5,787.5 712.9,786.1 714.4,785.9 715.9,785.9 717.4,786.0 718.9,785.9 720.4,783.2 721.9,786.2 723.4,787.6 724.9,785.7 726.4,785.8 727.9,784.8 729.4,787.5 730.9,786.0 732.4,785.9 733.9,786.5 735.4,786.9 736.9,785.4 738.3,787.9 739.8,787.4 741.3,787.6 742.8,786.4 744.3,788.1 745.8,786.5 747.3,789.0 748.8,786.1 750.3,785.6 751.8,786.0 753.3,787.0 754.8,786.7 756.3,784.4 757.8,787.5 759.3,786.8 760.8,786.0 762.3,786.2 763.7,786.0 765.2,786.9 766.7,787.7 768.2,787.2 769.7,787.1 771.2,788.0 772.7,786.6 774.2,787.0 775.7,786.0 777.2,787.1 778.7,786.2 780.2,787.2 781.7,785.1 783.2,787.3 784.7,788.4 786.2,787.5 787.6,787.7 789.1,786.3 790.6,787.6 792.1,787.4 793.6,786.3 795.1,788.7 796.6,788.1 798.1,786.6 799.6,786.4 801.1,788.2 802.6,784.8 804.1,787.1 805.6,788.0 807.1,786.4 808.6,790.3 810.1,788.5 811.6,787.2 813.0,788.0 814.5,789.9 816.0,787.1 817.5,785.5 819.0,788.7 820.5,788.8 822.0,789.0 823.5,789.5 825.0,788.8 826.5,787.8 828.0,788.8 829.5,787.8 831.0,789.4 832.5,787.9 834.0,787.1 835.5,790.0 837.0,787.2 838.4,788.3 839.9,786.6 841.4,789.0 842.9,789.8 844.4,789.3 845.9,787.6 847.4,788.6 848.9,789.2 850.4,789.6 851.9,787.7 853.4,788.6 854.9,787.2 856.4,787.4 857.9,787.4 859.4,785.5 860.9,789.4 862.4,787.4 863.8,786.8 865.3,791.7 866.8,787.7 868.3,789.0 869.8,789.8 871.3,787.8 872.8,790.0 874.3,789.6 875.8,786.7 877.3,787.4 878.8,786.9 880.3,789.6 881.8,788.1 883.3,786.4 884.8,789.1 886.3,790.1 887.7,790.1 889.2,790.3 890.7,788.5 892.2,790.4 893.7,788.8 895.2,786.8 896.7,789.3 898.2,787.3 899.7,788.8 901.2,787.8 902.7,789.4 904.2,786.3 905.7,787.1 907.2,787.6 908.7,787.3 910.2,788.2 911.7,789.7 913.1,789.1 914.6,787.3 916.1,791.3 917.6,788.9 919.1,788.4 920.6,789.8 922.1,789.1 923.6,789.8 925.1,788.5 926.6,788.4 928.1,789.7 929.6,790.0 931.1,789.9 932.6,789.8 934.1,791.0 935.6,787.6 937.0,790.1 938.5,789.8 940.0,787.8 941.5,788.8 943.0,790.6 944.5,788.6 946.0,786.4 947.5,789.4 949.0,788.5 950.5,789.8 952.0,789.1 953.5,790.4 955.0,789.0 956.5,788.3 958.0,790.7 959.5,788.7 961.0,790.2 962.4,789.2 963.9,792.4 965.4,790.2 966.9,787.6 968.4,790.0 969.9,790.2 971.4,788.6 972.9,789.0 974.4,788.1 975.9,789.2 977.4,790.0 978.9,790.6 980.4,790.2 981.9,790.2 983.4,789.8 984.9,788.5 986.4,791.1 987.8,790.7 989.3,789.9 990.8,789.6 992.3,790.2 993.8,789.9 995.3,789.2 996.8,789.8 998.3,791.0 999.8,790.8 1001.3,791.0 1002.8,791.1 1004.3,792.0 1005.8,787.9 1007.3,792.4 1008.8,791.1 1010.3,789.6 1011.8,791.2 1013.2,790.6 1014.7,789.4 1016.2,789.3 1017.7,789.6 1019.2,790.3 1020.7,790.5 1022.2,790.2 1023.7,789.7 1025.2,791.0 1026.7,789.9 1028.2,789.4 1029.7,790.1 1031.2,790.1 1032.7,791.5 1034.2,790.0 1035.7,790.0 1037.1,788.9 1038.6,788.7 1040.1,791.1 1041.6,792.3 1043.1,790.8 1044.6,791.7 1046.1,791.0 1047.6,791.5 1049.1,789.6 1050.6,790.5 1052.1,790.7 1053.6,788.4 1055.1,789.7 1056.6,792.4 1058.1,791.6 1059.6,789.3 1061.1,790.5 1062.5,791.9 1064.0,791.5 1065.5,788.9 1067.0,790.6 1068.5,791.1 1070.0,789.0 1071.5,791.2 1073.0,788.4 1074.5,788.7 1076.0,792.0 1077.5,792.3 1079.0,791.7 1080.5,790.7 1082.0,792.2 1083.5,791.0 1085.0,791.8 1086.5,790.9 1087.9,792.0 1089.4,788.6 1090.9,792.6 1092.4,790.8 1093.9,792.1 1095.4,789.3 1096.9,792.2 1098.4,792.6 1099.9,791.7 1101.4,792.3 1102.9,790.1 1104.4,791.6 1105.9,790.5 1107.4,791.1 1108.9,793.0 1110.4,791.2 1111.8,790.6 1113.3,791.0 1114.8,792.5 1116.3,791.5 1117.8,793.0 1119.3,793.0 1120.8,791.2 1122.3,791.7 1123.8,790.0 1125.3,793.2 1126.8,791.7 1128.3,792.8 1129.8,792.1 1131.3,792.0 1132.8,792.6 1134.3,793.0 1135.8,791.5 1137.2,791.0 1138.7,791.5 1140.2,791.8 1141.7,792.2 1143.2,791.3 1144.7,793.4 1146.2,790.9 1147.7,792.9 1149.2,790.9 1150.7,789.3 1152.2,791.2 1153.7,791.0 1155.2,791.9 1156.7,791.4 1158.2,790.3 1159.7,789.2 1161.1,791.5 1162.6,792.8 1164.1,792.3 1165.6,792.5 1167.1,792.2 1168.6,791.0 1170.1,791.4 1171.6,791.0 1173.1,792.3 1174.6,792.3 1176.1,794.2 1177.6,791.3 1179.1,791.7 1180.6,792.5 1182.1,793.9 1183.6,791.7 1185.1,793.3 1186.5,792.2 1188.0,790.1 1189.5,792.4 1191.0,791.2 1192.5,790.9 1194.0,792.6 1195.5,792.8 1197.0,791.0 1198.5,790.7 1200.0,794.5 1201.5,790.4 1203.0,794.7 1204.5,792.1 1206.0,792.0 1207.5,791.5 1209.0,792.1 1210.5,792.3 1211.9,792.5 1213.4,792.6 1214.9,793.3 1216.4,791.3 1217.9,792.7 1219.4,793.0 1220.9,791.8 1222.4,792.7 1223.9,792.8 1225.4,792.8 1226.9,793.8 1228.4,792.3 1229.9,792.5 1231.4,792.0 1232.9,793.9 1234.4,791.5 1235.9,792.7 1237.3,790.9 1238.8,794.1 1240.3,794.0 1241.8,792.2 1243.3,792.9 1244.8,790.6 1246.3,793.1 1247.8,791.9 1249.3,791.7 1250.8,792.7 1252.3,792.8 1253.8,793.6 1255.3,793.1 1256.8,792.7 1258.3,793.9 1259.8,792.4 1261.2,793.8 1262.7,791.8 1264.2,792.6 1265.7,790.7 1267.2,791.5 1268.7,791.5 1270.2,793.0 1271.7,794.3 1273.2,792.0 1274.7,792.7 1276.2,792.2 1277.7,793.1 1279.2,793.3 1280.7,792.3 1282.2,792.3 1283.7,793.5 1285.2,794.7 1286.6,793.5 1288.1,793.2 1289.6,792.5 1291.1,791.0 1292.6,792.5 1294.1,792.8 1295.6,793.5 1297.1,793.3 1298.6,793.5 1300.1,794.5 1301.6,793.0 1303.1,794.0 1304.6,791.8 1306.1,794.9 1307.6,794.7 1309.1,794.2 1310.5,792.7 1312.0,792.1 1313.5,791.6 1315.0,792.5 1316.5,792.3 1318.0,795.8 1319.5,793.0 1321.0,792.9 1322.5,794.4 1324.0,790.8 1325.5,790.5 1327.0,793.0 1328.5,794.9 1330.0,793.3 1331.5,792.6 1333.0,794.4 1334.5,791.5 1335.9,792.7 1337.4,793.3 1338.9,792.7 1340.4,795.0 1341.9,794.7 1343.4,792.0 1344.9,793.6 1346.4,793.7 1347.9,792.9 1349.4,792.5 1350.9,793.6 1352.4,791.1 1353.9,793.6 1355.4,791.9 1356.9,791.0 1358.4,793.6 1359.9,794.4 1361.3,791.7 1362.8,792.3 1364.3,792.0 1365.8,791.3 1367.3,793.3 1368.8,793.5 1370.3,795.4 1371.8,794.5 1373.3,794.4 1374.8,796.9 1376.3,791.5 1377.8,793.2 1379.3,794.5 1380.8,792.2 1382.3,793.2 1383.8,794.7 1385.2,793.2 1386.7,794.5 1388.2,795.9 1389.7,794.3 1391.2,793.7 1392.7,794.9 1394.2,792.4 1395.7,795.4 1397.2,793.2 1398.7,793.2 1400.2,791.1 1401.7,794.6 1403.2,793.9 1404.7,794.7 1406.2,792.9 1407.7,792.7 1409.2,796.1 1410.6,794.4 1412.1,794.9 1413.6,795.7 1415.1,793.8 1416.6,793.8 1418.1,792.2 1419.6,792.7 1421.1,794.1 1422.6,792.2 1424.1,792.8 1425.6,794.1 1427.1,794.9 1428.6,794.6 1430.1,792.6 1431.6,793.9 1433.1,796.4 1434.6,793.0 1436.0,794.8 1437.5,793.3 1439.0,794.7 1440.5,795.0 1442.0,794.3 1443.5,795.3 1445.0,790.9 1446.5,792.8 1448.0,794.2 1449.5,791.4 1451.0,791.2 1452.5,793.8 1454.0,794.1 1455.5,795.1 1457.0,792.4 1458.5,791.8 1460.0,793.3 1461.4,794.3 1462.9,794.2 1464.4,793.7 1465.9,794.6 1467.4,793.2 1468.9,791.9 1470.4,792.4 1471.9,792.1 1473.4,794.9 1474.9,794.4 1476.4,794.3 1477.9,794.0 1479.4,792.9 1480.9,794.6 1482.4,794.0 1483.9,792.4 1485.3,795.6 1486.8,795.0 1488.3,792.7 1489.8,794.0 1491.3,794.1 1492.8,794.0 1494.3,793.5 1495.8,794.0 1497.3,795.6 1498.8,794.4 1500.3,792.4 1501.8,795.3 1503.3,792.8 1504.8,792.2 1506.3,795.2 1507.8,793.3 1509.3,796.8 1510.7,793.4 1512.2,792.3 1513.7,795.2 1515.2,793.2 1516.7,795.0 1518.2,794.6 1519.7,794.2 1521.2,793.6 1522.7,794.0 1524.2,794.6 1525.7,794.9 1527.2,794.2 1528.7,795.3 1530.2,793.3 1531.7,793.4 1533.2,794.7 1534.6,793.6 1536.1,792.9 1537.6,794.4 1539.1,794.1 1540.6,794.5 1542.1,794.0 1543.6,793.1 1545.1,794.7 1546.6,793.2 1548.1,794.6 1549.6,793.5 1551.1,792.4 1552.6,793.0 1554.1,794.3 1555.6,792.2 1557.1,794.0 1558.6,796.1 1560.0,792.9 1561.5,794.2 1563.0,795.7 1564.5,793.1 1566.0,794.8 1567.5,795.3 1569.0,794.0 1570.5,793.6 1572.0,794.3" stroke="#2563eb" stroke-width="1.7" opacity="0.78"/>
<polyline class="curve" points="78.0,150.4 115.3,732.9 152.7,754.6 190.1,765.2 227.4,770.1 264.8,773.3 302.1,775.7 339.4,777.2 376.8,778.8 414.2,779.8 451.5,781.0 488.9,781.9 526.2,782.7 563.5,783.5 600.9,784.1 638.2,784.8 675.6,785.5 712.9,786.0 750.3,786.8 787.6,787.3 825.0,787.8 862.4,788.3 899.7,788.9 937.0,789.4 974.4,789.8 1011.8,790.2 1049.1,790.7 1086.5,791.1 1123.8,791.4 1161.1,791.8 1198.5,792.2 1235.9,792.5 1273.2,792.8 1310.5,793.0 1347.9,793.2 1385.2,793.4 1422.6,793.6 1460.0,793.8 1497.3,793.9 1534.6,793.9 1572.0,794.0" stroke="#2563eb" stroke-width="2.4" stroke-dasharray="7 4"/>
<circle cx="78.0" cy="150.4" r="2.2" fill="#2563eb"/>
<circle cx="115.3" cy="732.9" r="2.2" fill="#2563eb"/>
<circle cx="152.7" cy="754.6" r="2.2" fill="#2563eb"/>
<circle cx="190.1" cy="765.2" r="2.2" fill="#2563eb"/>
<circle cx="227.4" cy="770.1" r="2.2" fill="#2563eb"/>
<circle cx="264.8" cy="773.3" r="2.2" fill="#2563eb"/>
<circle cx="302.1" cy="775.7" r="2.2" fill="#2563eb"/>
<circle cx="339.4" cy="777.2" r="2.2" fill="#2563eb"/>
<circle cx="376.8" cy="778.8" r="2.2" fill="#2563eb"/>
<circle cx="414.2" cy="779.8" r="2.2" fill="#2563eb"/>
<circle cx="451.5" cy="781.0" r="2.2" fill="#2563eb"/>
<circle cx="488.9" cy="781.9" r="2.2" fill="#2563eb"/>
<circle cx="526.2" cy="782.7" r="2.2" fill="#2563eb"/>
<circle cx="563.5" cy="783.5" r="2.2" fill="#2563eb"/>
<circle cx="600.9" cy="784.1" r="2.2" fill="#2563eb"/>
<circle cx="638.2" cy="784.8" r="2.2" fill="#2563eb"/>
<circle cx="675.6" cy="785.5" r="2.2" fill="#2563eb"/>
<circle cx="712.9" cy="786.0" r="2.2" fill="#2563eb"/>
<circle cx="750.3" cy="786.8" r="2.2" fill="#2563eb"/>
<circle cx="787.6" cy="787.3" r="2.2" fill="#2563eb"/>
<circle cx="825.0" cy="787.8" r="2.2" fill="#2563eb"/>
<circle cx="862.4" cy="788.3" r="2.2" fill="#2563eb"/>
<circle cx="899.7" cy="788.9" r="2.2" fill="#2563eb"/>
<circle cx="937.0" cy="789.4" r="2.2" fill="#2563eb"/>
<circle cx="974.4" cy="789.8" r="2.2" fill="#2563eb"/>
<circle cx="1011.8" cy="790.2" r="2.2" fill="#2563eb"/>
<circle cx="1049.1" cy="790.7" r="2.2" fill="#2563eb"/>
<circle cx="1086.5" cy="791.1" r="2.2" fill="#2563eb"/>
<circle cx="1123.8" cy="791.4" r="2.2" fill="#2563eb"/>
<circle cx="1161.1" cy="791.8" r="2.2" fill="#2563eb"/>
<circle cx="1198.5" cy="792.2" r="2.2" fill="#2563eb"/>
<circle cx="1235.9" cy="792.5" r="2.2" fill="#2563eb"/>
<circle cx="1273.2" cy="792.8" r="2.2" fill="#2563eb"/>
<circle cx="1310.5" cy="793.0" r="2.2" fill="#2563eb"/>
<circle cx="1347.9" cy="793.2" r="2.2" fill="#2563eb"/>
<circle cx="1385.2" cy="793.4" r="2.2" fill="#2563eb"/>
<circle cx="1422.6" cy="793.6" r="2.2" fill="#2563eb"/>
<circle cx="1460.0" cy="793.8" r="2.2" fill="#2563eb"/>
<circle cx="1497.3" cy="793.9" r="2.2" fill="#2563eb"/>
<circle cx="1534.6" cy="793.9" r="2.2" fill="#2563eb"/>
<circle cx="1572.0" cy="794.0" r="2.2" fill="#2563eb"/>
<polyline class="curve" points="78.1,155.1 79.5,174.0 81.0,205.7 82.5,272.9 84.0,315.4 85.5,349.2 87.0,399.0 88.5,414.6 90.0,432.7 91.4,460.6 92.9,481.2 94.4,514.8 95.9,547.2 97.4,573.0 98.9,591.1 100.4,608.5 101.9,621.4 103.4,632.3 104.9,641.6 106.4,645.6 107.9,650.0 109.4,657.6 110.9,664.4 112.4,663.5 113.9,667.5 115.3,675.2 116.8,675.5 118.3,679.2 119.8,680.8 121.3,685.9 122.8,688.9 124.3,692.0 125.8,690.1 127.3,694.5 128.8,696.5 130.3,693.2 131.8,698.2 133.3,696.0 134.8,700.9 136.3,700.9 137.8,705.4 139.3,703.3 140.7,705.6 142.2,706.7 143.7,708.6 145.2,710.0 146.7,711.0 148.2,711.3 149.7,711.3 151.2,714.7 152.7,716.2 154.2,714.5 155.7,718.4 157.2,718.6 158.7,719.5 160.2,721.1 161.7,722.7 163.2,723.7 164.7,724.3 166.1,721.6 167.6,725.9 169.1,725.7 170.6,728.2 172.1,725.9 173.6,727.4 175.1,729.7 176.6,730.0 178.1,730.9 179.6,729.5 181.1,730.8 182.6,730.2 184.1,728.5 185.6,732.5 187.1,732.3 188.6,730.8 190.1,731.6 191.5,732.8 193.0,732.7 194.5,734.4 196.0,734.7 197.5,733.7 199.0,736.5 200.5,735.6 202.0,735.5 203.5,736.4 205.0,735.0 206.5,737.1 208.0,735.5 209.5,737.2 211.0,736.6 212.5,739.2 214.0,738.6 215.4,736.8 216.9,735.2 218.4,737.9 219.9,739.3 221.4,740.5 222.9,740.0 224.4,739.8 225.9,741.2 227.4,738.9 228.9,741.0 230.4,742.7 231.9,739.4 233.4,740.8 234.9,741.0 236.4,742.7 237.9,741.7 239.4,744.4 240.8,746.0 242.3,743.0 243.8,745.2 245.3,745.6 246.8,741.3 248.3,744.9 249.8,741.4 251.3,745.8 252.8,742.4 254.3,744.5 255.8,746.2 257.3,742.2 258.8,746.2 260.3,744.2 261.8,745.2 263.3,745.1 264.8,747.1 266.2,745.4 267.7,745.2 269.2,746.9 270.7,745.3 272.2,748.1 273.7,744.2 275.2,747.6 276.7,747.1 278.2,745.9 279.7,745.7 281.2,748.2 282.7,748.9 284.2,747.7 285.7,747.1 287.2,749.1 288.7,748.4 290.1,750.2 291.6,749.3 293.1,748.1 294.6,749.1 296.1,751.8 297.6,747.4 299.1,750.5 300.6,747.4 302.1,749.2 303.6,749.6 305.1,752.6 306.6,748.2 308.1,748.8 309.6,751.4 311.1,752.3 312.6,752.1 314.1,753.3 315.5,753.4 317.0,752.3 318.5,751.5 320.0,754.8 321.5,752.5 323.0,753.4 324.5,751.1 326.0,751.9 327.5,754.8 329.0,752.4 330.5,751.3 332.0,752.7 333.5,753.8 335.0,750.0 336.5,753.1 338.0,756.3 339.4,753.3 340.9,752.6 342.4,754.6 343.9,753.1 345.4,752.9 346.9,755.4 348.4,754.1 349.9,753.1 351.4,752.0 352.9,753.7 354.4,754.8 355.9,752.4 357.4,755.5 358.9,754.4 360.4,753.5 361.9,752.6 363.4,756.9 364.8,758.8 366.3,755.1 367.8,756.3 369.3,757.1 370.8,754.7 372.3,754.9 373.8,758.9 375.3,755.4 376.8,757.1 378.3,757.8 379.8,755.6 381.3,756.9 382.8,758.1 384.3,758.1 385.8,757.2 387.3,757.4 388.8,755.9 390.2,755.4 391.7,759.0 393.2,756.5 394.7,757.5 396.2,755.1 397.7,758.4 399.2,759.5 400.7,758.2 402.2,758.8 403.7,758.4 405.2,758.5 406.7,758.2 408.2,759.9 409.7,758.8 411.2,758.1 412.7,758.7 414.2,756.5 415.6,757.8 417.1,759.3 418.6,759.1 420.1,759.0 421.6,759.0 423.1,759.9 424.6,758.1 426.1,758.1 427.6,760.4 429.1,759.5 430.6,757.2 432.1,759.3 433.6,758.9 435.1,760.7 436.6,759.9 438.1,759.0 439.5,761.4 441.0,760.4 442.5,758.0 444.0,759.4 445.5,759.4 447.0,762.8 448.5,760.6 450.0,761.8 451.5,759.5 453.0,761.0 454.5,758.9 456.0,761.3 457.5,761.9 459.0,758.8 460.5,759.1 462.0,760.1 463.5,762.1 464.9,761.6 466.4,760.6 467.9,759.5 469.4,762.7 470.9,760.6 472.4,760.9 473.9,758.8 475.4,763.1 476.9,762.0 478.4,761.9 479.9,761.6 481.4,762.0 482.9,761.8 484.4,759.6 485.9,763.8 487.4,763.9 488.9,762.4 490.3,758.9 491.8,762.3 493.3,760.4 494.8,762.9 496.3,763.6 497.8,762.2 499.3,761.5 500.8,764.6 502.3,762.4 503.8,759.1 505.3,762.1 506.8,763.4 508.3,760.4 509.8,762.5 511.3,763.2 512.8,761.0 514.2,762.4 515.7,763.5 517.2,764.5 518.7,761.6 520.2,762.8 521.7,760.5 523.2,765.1 524.7,761.1 526.2,762.2 527.7,763.0 529.2,765.7 530.7,761.3 532.2,761.6 533.7,764.1 535.2,762.9 536.7,765.5 538.2,761.9 539.6,765.3 541.1,763.5 542.6,764.6 544.1,766.1 545.6,765.6 547.1,763.8 548.6,763.4 550.1,764.7 551.6,764.9 553.1,763.6 554.6,763.8 556.1,764.7 557.6,765.0 559.1,760.0 560.6,763.5 562.1,764.5 563.5,765.4 565.0,764.6 566.5,764.5 568.0,766.1 569.5,765.1 571.0,764.8 572.5,765.2 574.0,766.0 575.5,763.8 577.0,766.7 578.5,764.3 580.0,763.6 581.5,768.8 583.0,767.3 584.5,766.8 586.0,765.6 587.5,767.8 588.9,764.1 590.4,764.8 591.9,763.9 593.4,766.3 594.9,764.9 596.4,768.0 597.9,765.2 599.4,765.9 600.9,767.1 602.4,765.9 603.9,768.0 605.4,764.3 606.9,766.7 608.4,767.4 609.9,769.1 611.4,768.5 612.9,765.0 614.3,766.5 615.8,765.3 617.3,764.7 618.8,767.1 620.3,766.2 621.8,766.2 623.3,767.4 624.8,764.0 626.3,767.9 627.8,768.1 629.3,767.1 630.8,767.5 632.3,768.4 633.8,768.8 635.3,763.5 636.8,765.2 638.2,767.8 639.7,765.3 641.2,765.6 642.7,767.7 644.2,766.8 645.7,769.3 647.2,767.6 648.7,765.7 650.2,768.4 651.7,766.9 653.2,765.8 654.7,766.3 656.2,767.4 657.7,767.7 659.2,769.4 660.7,768.3 662.2,768.4 663.6,769.2 665.1,765.9 666.6,767.7 668.1,769.4 669.6,768.1 671.1,767.6 672.6,766.6 674.1,768.0 675.6,770.1 677.1,768.9 678.6,769.2 680.1,769.0 681.6,768.2 683.1,769.6 684.6,770.1 686.1,770.1 687.6,766.8 689.0,769.9 690.5,766.6 692.0,768.9 693.5,767.1 695.0,768.2 696.5,771.2 698.0,768.4 699.5,769.9 701.0,770.0 702.5,767.2 704.0,768.8 705.5,767.0 707.0,768.3 708.5,768.1 710.0,769.0 711.5,770.0 712.9,769.0 714.4,768.6 715.9,768.9 717.4,769.4 718.9,768.4 720.4,765.3 721.9,769.6 723.4,770.4 724.9,768.5 726.4,769.2 727.9,768.2 729.4,770.6 730.9,769.2 732.4,768.8 733.9,770.2 735.4,769.9 736.9,768.9 738.3,771.4 739.8,770.7 741.3,770.4 742.8,770.0 744.3,771.3 745.8,770.4 747.3,772.5 748.8,768.8 750.3,768.1 751.8,768.6 753.3,770.3 754.8,769.5 756.3,767.3 757.8,770.7 759.3,769.4 760.8,769.0 762.3,768.6 763.7,769.0 765.2,770.0 766.7,771.3 768.2,770.1 769.7,770.2 771.2,771.1 772.7,770.2 774.2,770.5 775.7,768.2 777.2,770.7 778.7,769.0 780.2,770.9 781.7,767.8 783.2,770.5 784.7,772.2 786.2,771.3 787.6,771.2 789.1,769.8 790.6,770.6 792.1,771.0 793.6,770.0 795.1,772.1 796.6,771.5 798.1,769.8 799.6,769.8 801.1,770.5 802.6,768.1 804.1,769.8 805.6,771.3 807.1,769.6 808.6,773.6 810.1,771.7 811.6,771.0 813.0,771.0 814.5,774.2 816.0,770.2 817.5,768.2 819.0,771.9 820.5,771.7 822.0,772.6 823.5,772.9 825.0,771.8 826.5,771.0 828.0,772.2 829.5,771.1 831.0,773.1 832.5,771.2 834.0,770.7 835.5,773.7 837.0,770.0 838.4,771.4 839.9,769.6 841.4,772.7 842.9,773.2 844.4,773.4 845.9,770.6 847.4,771.3 848.9,772.8 850.4,773.1 851.9,770.9 853.4,771.7 854.9,770.4 856.4,770.9 857.9,770.1 859.4,768.4 860.9,772.9 862.4,771.0 863.8,769.7 865.3,775.4 866.8,771.3 868.3,772.2 869.8,773.8 871.3,772.0 872.8,773.4 874.3,772.8 875.8,769.9 877.3,770.2 878.8,770.1 880.3,772.8 881.8,771.0 883.3,768.8 884.8,773.4 886.3,773.8 887.7,774.2 889.2,773.8 890.7,771.8 892.2,774.2 893.7,771.9 895.2,770.2 896.7,772.8 898.2,770.2 899.7,771.9 901.2,771.6 902.7,772.6 904.2,768.2 905.7,770.3 907.2,770.4 908.7,770.2 910.2,771.0 911.7,773.3 913.1,772.5 914.6,771.1 916.1,774.6 917.6,771.1 919.1,771.8 920.6,773.0 922.1,772.2 923.6,773.3 925.1,771.7 926.6,771.6 928.1,773.3 929.6,774.6 931.1,773.7 932.6,772.9 934.1,774.4 935.6,771.2 937.0,773.4 938.5,772.9 940.0,770.5 941.5,771.4 943.0,773.7 944.5,770.9 946.0,769.2 947.5,773.0 949.0,771.0 950.5,773.8 952.0,772.4 953.5,774.6 955.0,771.4 956.5,771.6 958.0,773.9 959.5,771.4 961.0,772.3 962.4,772.6 963.9,775.7 965.4,773.2 966.9,771.0 968.4,773.7 969.9,773.3 971.4,771.5 972.9,772.1 974.4,771.3 975.9,772.5 977.4,772.8 978.9,774.4 980.4,774.1 981.9,773.7 983.4,772.9 984.9,771.2 986.4,774.6 987.8,773.4 989.3,772.8 990.8,773.1 992.3,773.5 993.8,773.2 995.3,772.7 996.8,773.4 998.3,774.1 999.8,774.6 1001.3,774.0 1002.8,774.5 1004.3,775.3 1005.8,770.7 1007.3,775.8 1008.8,774.8 1010.3,773.1 1011.8,774.5 1013.2,773.1 1014.7,772.2 1016.2,771.8 1017.7,772.6 1019.2,773.5 1020.7,774.0 1022.2,773.1 1023.7,773.0 1025.2,774.4 1026.7,772.7 1028.2,772.2 1029.7,773.0 1031.2,772.7 1032.7,775.0 1034.2,772.6 1035.7,772.7 1037.1,771.9 1038.6,771.3 1040.1,773.6 1041.6,775.6 1043.1,773.8 1044.6,774.3 1046.1,774.2 1047.6,774.4 1049.1,772.8 1050.6,773.6 1052.1,773.6 1053.6,770.9 1055.1,772.4 1056.6,775.5 1058.1,774.7 1059.6,772.5 1061.1,773.4 1062.5,774.7 1064.0,775.0 1065.5,771.6 1067.0,773.8 1068.5,774.7 1070.0,772.0 1071.5,774.4 1073.0,770.6 1074.5,771.2 1076.0,775.9 1077.5,775.2 1079.0,774.7 1080.5,773.7 1082.0,775.2 1083.5,774.0 1085.0,774.6 1086.5,774.2 1087.9,774.5 1089.4,771.1 1090.9,775.9 1092.4,774.1 1093.9,775.3 1095.4,771.9 1096.9,774.8 1098.4,776.2 1099.9,774.3 1101.4,774.8 1102.9,772.5 1104.4,774.5 1105.9,773.4 1107.4,773.8 1108.9,776.1 1110.4,773.8 1111.8,773.3 1113.3,774.1 1114.8,775.9 1116.3,774.0 1117.8,775.8 1119.3,775.7 1120.8,774.2 1122.3,774.3 1123.8,772.7 1125.3,775.9 1126.8,774.5 1128.3,776.0 1129.8,775.1 1131.3,775.0 1132.8,775.8 1134.3,775.5 1135.8,774.7 1137.2,773.2 1138.7,773.9 1140.2,774.5 1141.7,775.1 1143.2,773.2 1144.7,777.1 1146.2,773.2 1147.7,776.1 1149.2,773.8 1150.7,771.8 1152.2,773.7 1153.7,773.9 1155.2,774.8 1156.7,774.0 1158.2,772.1 1159.7,771.4 1161.1,774.1 1162.6,775.9 1164.1,775.1 1165.6,774.8 1167.1,775.7 1168.6,773.2 1170.1,774.3 1171.6,773.7 1173.1,774.5 1174.6,774.3 1176.1,777.8 1177.6,773.6 1179.1,774.4 1180.6,774.8 1182.1,776.6 1183.6,774.8 1185.1,776.0 1186.5,774.7 1188.0,772.2 1189.5,774.8 1191.0,773.9 1192.5,773.5 1194.0,775.3 1195.5,775.5 1197.0,773.4 1198.5,773.4 1200.0,777.2 1201.5,772.4 1203.0,777.1 1204.5,774.9 1206.0,774.1 1207.5,774.5 1209.0,774.1 1210.5,774.9 1211.9,775.4 1213.4,775.2 1214.9,775.6 1216.4,773.4 1217.9,774.9 1219.4,775.5 1220.9,774.4 1222.4,775.4 1223.9,775.6 1225.4,775.5 1226.9,776.3 1228.4,774.8 1229.9,774.6 1231.4,774.3 1232.9,776.9 1234.4,773.0 1235.9,774.9 1237.3,772.9 1238.8,777.0 1240.3,776.8 1241.8,774.7 1243.3,774.9 1244.8,773.0 1246.3,775.2 1247.8,775.0 1249.3,773.6 1250.8,774.5 1252.3,775.5 1253.8,775.4 1255.3,775.9 1256.8,775.3 1258.3,776.7 1259.8,774.5 1261.2,776.2 1262.7,773.7 1264.2,774.7 1265.7,772.7 1267.2,773.1 1268.7,773.5 1270.2,775.4 1271.7,777.4 1273.2,775.1 1274.7,774.9 1276.2,774.4 1277.7,776.0 1279.2,775.2 1280.7,774.9 1282.2,774.1 1283.7,775.6 1285.2,777.8 1286.6,776.6 1288.1,775.6 1289.6,774.8 1291.1,772.8 1292.6,774.3 1294.1,775.5 1295.6,776.1 1297.1,775.9 1298.6,776.5 1300.1,776.1 1301.6,775.3 1303.1,776.1 1304.6,773.4 1306.1,777.0 1307.6,778.3 1309.1,776.3 1310.5,774.7 1312.0,774.2 1313.5,773.3 1315.0,774.2 1316.5,774.7 1318.0,778.5 1319.5,774.0 1321.0,774.7 1322.5,776.5 1324.0,773.0 1325.5,772.9 1327.0,775.0 1328.5,777.2 1330.0,775.3 1331.5,774.4 1333.0,776.8 1334.5,773.5 1335.9,774.1 1337.4,776.0 1338.9,775.9 1340.4,777.8 1341.9,776.5 1343.4,774.1 1344.9,775.2 1346.4,775.9 1347.9,774.9 1349.4,774.9 1350.9,776.0 1352.4,772.9 1353.9,775.8 1355.4,773.8 1356.9,772.8 1358.4,776.2 1359.9,776.4 1361.3,774.0 1362.8,774.9 1364.3,774.5 1365.8,772.7 1367.3,775.6 1368.8,776.1 1370.3,777.7 1371.8,777.3 1373.3,776.7 1374.8,778.9 1376.3,773.1 1377.8,774.7 1379.3,776.2 1380.8,773.8 1382.3,774.8 1383.8,776.6 1385.2,775.0 1386.7,776.1 1388.2,778.7 1389.7,776.6 1391.2,776.2 1392.7,777.6 1394.2,773.7 1395.7,778.2 1397.2,775.1 1398.7,775.8 1400.2,772.6 1401.7,776.9 1403.2,776.3 1404.7,776.8 1406.2,774.5 1407.7,775.1 1409.2,778.7 1410.6,776.4 1412.1,777.5 1413.6,778.6 1415.1,775.7 1416.6,776.0 1418.1,773.7 1419.6,774.7 1421.1,776.4 1422.6,774.0 1424.1,774.3 1425.6,775.6 1427.1,777.5 1428.6,777.6 1430.1,774.3 1431.6,775.7 1433.1,779.1 1434.6,775.0 1436.0,777.4 1437.5,775.4 1439.0,777.1 1440.5,776.5 1442.0,776.6 1443.5,777.3 1445.0,772.4 1446.5,774.6 1448.0,776.2 1449.5,773.2 1451.0,772.7 1452.5,775.2 1454.0,776.4 1455.5,777.1 1457.0,774.3 1458.5,773.2 1460.0,774.9 1461.4,776.3 1462.9,775.8 1464.4,775.0 1465.9,776.9 1467.4,774.7 1468.9,773.1 1470.4,774.1 1471.9,774.0 1473.4,777.4 1474.9,775.9 1476.4,776.5 1477.9,776.3 1479.4,774.7 1480.9,776.9 1482.4,776.2 1483.9,774.0 1485.3,777.9 1486.8,777.0 1488.3,774.2 1489.8,776.4 1491.3,776.5 1492.8,775.7 1494.3,775.1 1495.8,776.0 1497.3,777.7 1498.8,775.7 1500.3,774.3 1501.8,778.2 1503.3,774.6 1504.8,773.7 1506.3,777.6 1507.8,774.9 1509.3,779.4 1510.7,774.8 1512.2,773.6 1513.7,777.2 1515.2,775.3 1516.7,777.3 1518.2,776.9 1519.7,776.6 1521.2,776.0 1522.7,775.9 1524.2,776.9 1525.7,777.3 1527.2,775.8 1528.7,777.9 1530.2,774.7 1531.7,775.3 1533.2,777.5 1534.6,775.7 1536.1,774.4 1537.6,776.2 1539.1,776.1 1540.6,776.1 1542.1,776.3 1543.6,775.6 1545.1,776.1 1546.6,775.0 1548.1,777.3 1549.6,775.5 1551.1,774.2 1552.6,775.0 1554.1,776.0 1555.6,773.6 1557.1,776.2 1558.6,777.7 1560.0,774.7 1561.5,776.5 1563.0,777.3 1564.5,775.0 1566.0,777.5 1567.5,777.0 1569.0,776.4 1570.5,775.5 1572.0,775.6" stroke="#dc2626" stroke-width="1.7" opacity="0.78"/>
<polyline class="curve" points="78.0,150.4 115.3,674.0 152.7,716.3 190.1,732.9 227.4,741.1 264.8,746.7 302.1,750.7 339.4,753.9 376.8,756.5 414.2,758.6 451.5,760.7 488.9,762.5 526.2,764.1 563.5,765.4 600.9,766.6 638.2,767.6 675.6,768.5 712.9,769.3 750.3,770.1 787.6,770.7 825.0,771.3 862.4,771.8 899.7,772.3 937.0,772.8 974.4,773.2 1011.8,773.5 1049.1,773.9 1086.5,774.2 1123.8,774.5 1161.1,774.8 1198.5,775.0 1235.9,775.2 1273.2,775.4 1310.5,775.5 1347.9,775.7 1385.2,775.8 1422.6,776.0 1460.0,776.0 1497.3,776.2 1534.6,776.2 1572.0,776.3" stroke="#dc2626" stroke-width="2.4" stroke-dasharray="7 4"/>
<circle cx="78.0" cy="150.4" r="2.2" fill="#dc2626"/>
<circle cx="115.3" cy="674.0" r="2.2" fill="#dc2626"/>
<circle cx="152.7" cy="716.3" r="2.2" fill="#dc2626"/>
<circle cx="190.1" cy="732.9" r="2.2" fill="#dc2626"/>
<circle cx="227.4" cy="741.1" r="2.2" fill="#dc2626"/>
<circle cx="264.8" cy="746.7" r="2.2" fill="#dc2626"/>
<circle cx="302.1" cy="750.7" r="2.2" fill="#dc2626"/>
<circle cx="339.4" cy="753.9" r="2.2" fill="#dc2626"/>
<circle cx="376.8" cy="756.5" r="2.2" fill="#dc2626"/>
<circle cx="414.2" cy="758.6" r="2.2" fill="#dc2626"/>
<circle cx="451.5" cy="760.7" r="2.2" fill="#dc2626"/>
<circle cx="488.9" cy="762.5" r="2.2" fill="#dc2626"/>
<circle cx="526.2" cy="764.1" r="2.2" fill="#dc2626"/>
<circle cx="563.5" cy="765.4" r="2.2" fill="#dc2626"/>
<circle cx="600.9" cy="766.6" r="2.2" fill="#dc2626"/>
<circle cx="638.2" cy="767.6" r="2.2" fill="#dc2626"/>
<circle cx="675.6" cy="768.5" r="2.2" fill="#dc2626"/>
<circle cx="712.9" cy="769.3" r="2.2" fill="#dc2626"/>
<circle cx="750.3" cy="770.1" r="2.2" fill="#dc2626"/>
<circle cx="787.6" cy="770.7" r="2.2" fill="#dc2626"/>
<circle cx="825.0" cy="771.3" r="2.2" fill="#dc2626"/>
<circle cx="862.4" cy="771.8" r="2.2" fill="#dc2626"/>
<circle cx="899.7" cy="772.3" r="2.2" fill="#dc2626"/>
<circle cx="937.0" cy="772.8" r="2.2" fill="#dc2626"/>
<circle cx="974.4" cy="773.2" r="2.2" fill="#dc2626"/>
<circle cx="1011.8" cy="773.5" r="2.2" fill="#dc2626"/>
<circle cx="1049.1" cy="773.9" r="2.2" fill="#dc2626"/>
<circle cx="1086.5" cy="774.2" r="2.2" fill="#dc2626"/>
<circle cx="1123.8" cy="774.5" r="2.2" fill="#dc2626"/>
<circle cx="1161.1" cy="774.8" r="2.2" fill="#dc2626"/>
<circle cx="1198.5" cy="775.0" r="2.2" fill="#dc2626"/>
<circle cx="1235.9" cy="775.2" r="2.2" fill="#dc2626"/>
<circle cx="1273.2" cy="775.4" r="2.2" fill="#dc2626"/>
<circle cx="1310.5" cy="775.5" r="2.2" fill="#dc2626"/>
<circle cx="1347.9" cy="775.7" r="2.2" fill="#dc2626"/>
<circle cx="1385.2" cy="775.8" r="2.2" fill="#dc2626"/>
<circle cx="1422.6" cy="776.0" r="2.2" fill="#dc2626"/>
<circle cx="1460.0" cy="776.0" r="2.2" fill="#dc2626"/>
<circle cx="1497.3" cy="776.2" r="2.2" fill="#dc2626"/>
<circle cx="1534.6" cy="776.2" r="2.2" fill="#dc2626"/>
<circle cx="1572.0" cy="776.3" r="2.2" fill="#dc2626"/>
<polyline class="curve" points="78.1,474.5 79.5,478.5 81.0,492.0 82.5,513.1 84.0,535.3 85.5,560.6 87.0,585.3 88.5,611.0 90.0,632.7 91.4,647.6 92.9,663.1 94.4,674.1 95.9,680.3 97.4,686.5 98.9,689.4 100.4,694.2 101.9,697.2 103.4,699.6 104.9,702.5 106.4,704.1 107.9,703.1 109.4,708.0 110.9,710.2 112.4,708.5 113.9,710.4 115.3,715.8 116.8,714.4 118.3,716.7 119.8,716.6 121.3,720.5 122.8,722.5 124.3,724.8 125.8,724.1 127.3,725.4 128.8,728.0 130.3,724.7 131.8,729.6 133.3,727.6 134.8,731.3 136.3,731.3 137.8,735.8 139.3,732.5 140.7,736.9 142.2,736.9 143.7,738.6 145.2,741.0 146.7,741.6 148.2,739.0 149.7,740.3 151.2,744.4 152.7,745.6 154.2,743.8 155.7,746.4 157.2,747.7 158.7,748.8 160.2,750.1 161.7,751.7 163.2,753.3 164.7,753.1 166.1,750.5 167.6,754.3 169.1,753.7 170.6,757.2 172.1,754.8 173.6,755.5 175.1,758.3 176.6,758.5 178.1,758.9 179.6,758.7 181.1,759.2 182.6,758.4 184.1,756.8 185.6,760.6 187.1,760.8 188.6,759.6 190.1,759.8 191.5,760.5 193.0,760.7 194.5,762.2 196.0,761.7 197.5,761.9 199.0,764.6 200.5,763.7 202.0,762.4 203.5,763.9 205.0,762.3 206.5,764.2 208.0,763.1 209.5,764.2 211.0,764.2 212.5,766.7 214.0,765.2 215.4,763.9 216.9,761.9 218.4,764.5 219.9,766.4 221.4,767.5 222.9,767.4 224.4,766.9 225.9,767.6 227.4,765.7 228.9,766.7 230.4,768.7 231.9,766.7 233.4,767.9 234.9,766.9 236.4,768.5 237.9,767.7 239.4,770.0 240.8,771.0 242.3,768.4 243.8,770.9 245.3,770.8 246.8,767.7 248.3,770.1 249.8,768.0 251.3,771.3 252.8,767.6 254.3,769.6 255.8,771.1 257.3,767.7 258.8,771.0 260.3,769.9 261.8,770.4 263.3,770.1 264.8,771.5 266.2,770.2 267.7,769.9 269.2,771.7 270.7,770.5 272.2,772.5 273.7,768.9 275.2,771.9 276.7,771.9 278.2,770.2 279.7,770.2 281.2,772.2 282.7,773.1 284.2,772.2 285.7,771.2 287.2,773.8 288.7,772.1 290.1,773.7 291.6,773.7 293.1,772.4 294.6,773.0 296.1,775.2 297.6,771.9 299.1,773.4 300.6,771.3 302.1,772.9 303.6,773.3 305.1,776.2 306.6,772.8 308.1,772.1 309.6,775.3 311.1,774.8 312.6,775.8 314.1,776.2 315.5,776.2 317.0,775.4 318.5,774.9 320.0,777.4 321.5,775.2 323.0,776.1 324.5,774.4 326.0,774.6 327.5,777.0 329.0,775.5 330.5,774.7 332.0,775.2 333.5,776.0 335.0,773.1 336.5,775.9 338.0,778.3 339.4,775.1 340.9,774.7 342.4,777.6 343.9,775.6 345.4,775.4 346.9,777.5 348.4,776.1 349.9,775.7 351.4,774.6 352.9,775.8 354.4,776.3 355.9,774.8 357.4,777.5 358.9,776.5 360.4,776.1 361.9,774.5 363.4,777.8 364.8,779.9 366.3,776.9 367.8,777.9 369.3,778.6 370.8,776.6 372.3,776.9 373.8,779.7 375.3,776.6 376.8,778.3 378.3,778.7 379.8,777.1 381.3,777.8 382.8,779.5 384.3,778.8 385.8,778.1 387.3,778.2 388.8,777.1 390.2,776.5 391.7,780.0 393.2,777.1 394.7,778.5 396.2,776.0 397.7,778.5 399.2,779.9 400.7,778.4 402.2,778.9 403.7,779.7 405.2,779.6 406.7,777.8 408.2,780.4 409.7,779.6 411.2,779.2 412.7,779.6 414.2,776.9 415.6,778.4 417.1,779.5 418.6,780.1 420.1,779.4 421.6,779.5 423.1,780.5 424.6,779.4 426.1,779.1 427.6,780.3 429.1,780.0 430.6,777.9 432.1,778.5 433.6,778.9 435.1,780.2 436.6,779.1 438.1,779.1 439.5,781.7 441.0,781.2 442.5,778.1 444.0,779.2 445.5,779.6 447.0,782.2 448.5,779.8 450.0,782.3 451.5,779.2 453.0,780.2 454.5,778.9 456.0,781.1 457.5,780.5 459.0,778.4 460.5,779.3 462.0,779.9 463.5,780.7 464.9,781.0 466.4,780.0 467.9,778.4 469.4,781.6 470.9,780.3 472.4,780.3 473.9,778.1 475.4,782.0 476.9,780.4 478.4,781.1 479.9,780.3 481.4,780.9 482.9,781.4 484.4,778.9 485.9,782.4 487.4,782.6 488.9,781.4 490.3,778.0 491.8,781.2 493.3,779.4 494.8,781.9 496.3,782.3 497.8,781.0 499.3,781.2 500.8,783.1 502.3,781.8 503.8,778.3 505.3,781.0 506.8,782.5 508.3,779.8 509.8,781.4 511.3,781.6 512.8,780.5 514.2,781.4 515.7,782.4 517.2,783.2 518.7,780.2 520.2,781.1 521.7,778.9 523.2,783.0 524.7,779.6 526.2,781.2 527.7,781.1 529.2,783.7 530.7,779.4 532.2,780.3 533.7,782.0 535.2,781.0 536.7,783.8 538.2,780.4 539.6,783.3 541.1,781.4 542.6,782.2 544.1,783.5 545.6,782.8 547.1,781.4 548.6,780.6 550.1,782.3 551.6,782.5 553.1,781.7 554.6,781.3 556.1,782.9 557.6,783.1 559.1,778.8 560.6,781.7 562.1,782.1 563.5,783.3 565.0,782.3 566.5,782.1 568.0,783.8 569.5,782.7 571.0,782.9 572.5,782.5 574.0,783.5 575.5,782.1 577.0,783.9 578.5,782.4 580.0,781.7 581.5,785.6 583.0,784.5 584.5,784.2 586.0,783.0 587.5,784.4 588.9,781.8 590.4,782.1 591.9,781.1 593.4,783.5 594.9,782.7 596.4,784.8 597.9,782.7 599.4,783.0 600.9,784.4 602.4,782.7 603.9,784.9 605.4,782.2 606.9,784.2 608.4,784.2 609.9,786.0 611.4,785.1 612.9,782.4 614.3,783.6 615.8,782.1 617.3,782.2 618.8,784.3 620.3,783.2 621.8,783.9 623.3,784.4 624.8,781.5 626.3,785.0 627.8,784.2 629.3,783.3 630.8,784.1 632.3,784.7 633.8,785.2 635.3,780.5 636.8,782.5 638.2,784.2 639.7,782.2 641.2,782.9 642.7,784.6 644.2,783.4 645.7,784.8 647.2,784.5 648.7,782.9 650.2,784.4 651.7,783.8 653.2,783.0 654.7,782.8 656.2,784.2 657.7,784.0 659.2,786.0 660.7,784.7 662.2,784.7 663.6,785.9 665.1,782.8 666.6,784.3 668.1,785.3 669.6,784.5 671.1,783.9 672.6,783.5 674.1,784.2 675.6,786.2 677.1,785.6 678.6,785.6 680.1,785.5 681.6,784.7 683.1,785.9 684.6,786.4 686.1,785.9 687.6,783.5 689.0,786.4 690.5,783.6 692.0,785.1 693.5,783.9 695.0,784.8 696.5,787.0 698.0,784.5 699.5,786.6 701.0,786.4 702.5,783.8 704.0,784.8 705.5,783.8 707.0,784.9 708.5,784.5 710.0,785.2 711.5,786.5 712.9,785.5 714.4,785.3 715.9,785.1 717.4,785.6 718.9,784.7 720.4,782.3 721.9,785.3 723.4,786.6 724.9,784.7 726.4,784.9 727.9,784.3 729.4,786.9 730.9,784.9 732.4,785.2 733.9,785.7 735.4,786.3 736.9,784.6 738.3,787.0 739.8,786.9 741.3,786.8 742.8,785.8 744.3,787.0 745.8,785.6 747.3,787.9 748.8,785.1 750.3,784.9 751.8,785.2 753.3,786.2 754.8,785.6 756.3,783.7 757.8,786.8 759.3,785.9 760.8,785.3 762.3,785.3 763.7,784.9 765.2,786.1 766.7,786.8 768.2,786.3 769.7,786.0 771.2,786.8 772.7,785.9 774.2,786.2 775.7,785.0 777.2,786.2 778.7,785.3 780.2,786.5 781.7,784.4 783.2,786.6 784.7,787.7 786.2,786.9 787.6,786.9 789.1,785.6 790.6,786.5 792.1,786.8 793.6,785.8 795.1,787.3 796.6,787.4 798.1,785.8 799.6,785.5 801.1,787.4 802.6,784.3 804.1,785.9 805.6,787.1 807.1,785.5 808.6,789.2 810.1,787.7 811.6,786.4 813.0,787.1 814.5,789.1 816.0,786.1 817.5,784.5 819.0,787.5 820.5,787.8 822.0,788.2 823.5,788.4 825.0,787.7 826.5,786.9 828.0,787.8 829.5,787.0 831.0,788.1 832.5,786.9 834.0,786.2 835.5,788.8 837.0,786.1 838.4,787.5 839.9,785.6 841.4,788.2 842.9,788.7 844.4,788.1 845.9,786.7 847.4,787.5 848.9,788.3 850.4,788.5 851.9,786.6 853.4,787.4 854.9,786.2 856.4,786.4 857.9,786.1 859.4,784.2 860.9,788.1 862.4,786.3 863.8,785.7 865.3,790.4 866.8,786.9 868.3,787.9 869.8,788.8 871.3,786.8 872.8,789.0 874.3,788.3 875.8,786.1 877.3,786.5 878.8,786.0 880.3,788.6 881.8,787.0 883.3,785.0 884.8,788.2 886.3,789.0 887.7,789.3 889.2,789.3 890.7,787.7 892.2,789.3 893.7,787.7 895.2,786.0 896.7,788.5 898.2,786.0 899.7,787.7 901.2,786.9 902.7,788.2 904.2,785.0 905.7,786.0 907.2,786.4 908.7,786.2 910.2,786.7 911.7,788.8 913.1,788.0 914.6,786.2 916.1,790.2 917.6,787.3 919.1,787.2 920.6,788.6 922.1,788.2 923.6,788.7 925.1,787.3 926.6,787.6 928.1,788.8 929.6,789.1 931.1,789.0 932.6,788.7 934.1,789.8 935.6,786.6 937.0,788.8 938.5,788.4 940.0,786.7 941.5,787.8 943.0,789.3 944.5,787.2 946.0,785.4 947.5,788.1 949.0,786.9 950.5,788.8 952.0,787.8 953.5,789.2 955.0,787.7 956.5,786.8 958.0,789.4 959.5,787.4 961.0,788.7 962.4,788.2 963.9,790.9 965.4,788.9 966.9,786.6 968.4,788.7 969.9,788.9 971.4,787.5 972.9,787.7 974.4,787.0 975.9,788.1 977.4,788.5 978.9,789.5 980.4,789.1 981.9,789.0 983.4,788.6 984.9,787.1 986.4,789.7 987.8,789.3 989.3,788.4 990.8,788.5 992.3,788.6 993.8,788.7 995.3,788.4 996.8,788.7 998.3,789.7 999.8,789.7 1001.3,789.5 1002.8,789.6 1004.3,790.6 1005.8,786.6 1007.3,790.8 1008.8,789.8 1010.3,788.3 1011.8,789.9 1013.2,789.2 1014.7,787.9 1016.2,787.9 1017.7,788.1 1019.2,788.8 1020.7,789.3 1022.2,788.8 1023.7,788.5 1025.2,789.7 1026.7,788.3 1028.2,787.7 1029.7,788.4 1031.2,788.6 1032.7,790.1 1034.2,788.4 1035.7,788.6 1037.1,787.5 1038.6,787.6 1040.1,789.2 1041.6,790.5 1043.1,789.4 1044.6,790.3 1046.1,789.8 1047.6,789.5 1049.1,788.1 1050.6,789.4 1052.1,789.0 1053.6,786.7 1055.1,788.0 1056.6,791.2 1058.1,790.2 1059.6,788.3 1061.1,788.9 1062.5,790.0 1064.0,790.1 1065.5,787.4 1067.0,789.0 1068.5,789.7 1070.0,787.5 1071.5,789.8 1073.0,786.8 1074.5,787.2 1076.0,790.4 1077.5,790.8 1079.0,790.1 1080.5,789.1 1082.0,790.8 1083.5,789.7 1085.0,790.3 1086.5,789.2 1087.9,790.6 1089.4,787.0 1090.9,791.1 1092.4,789.3 1093.9,790.7 1095.4,787.7 1096.9,790.8 1098.4,791.2 1099.9,789.9 1101.4,790.4 1102.9,788.3 1104.4,790.0 1105.9,789.0 1107.4,789.4 1108.9,791.2 1110.4,789.9 1111.8,789.2 1113.3,789.3 1114.8,790.8 1116.3,790.0 1117.8,791.2 1119.3,791.3 1120.8,789.7 1122.3,790.1 1123.8,788.5 1125.3,791.4 1126.8,790.1 1128.3,791.4 1129.8,790.5 1131.3,790.4 1132.8,791.1 1134.3,791.4 1135.8,790.1 1137.2,789.3 1138.7,789.6 1140.2,790.2 1141.7,790.6 1143.2,789.6 1144.7,792.0 1146.2,789.0 1147.7,791.0 1149.2,789.5 1150.7,787.5 1152.2,789.8 1153.7,789.2 1155.2,790.4 1156.7,789.7 1158.2,788.7 1159.7,787.5 1161.1,789.9 1162.6,791.6 1164.1,790.4 1165.6,790.6 1167.1,790.6 1168.6,789.0 1170.1,790.0 1171.6,789.5 1173.1,791.0 1174.6,790.5 1176.1,792.6 1177.6,789.5 1179.1,790.4 1180.6,790.9 1182.1,792.1 1183.6,790.1 1185.1,791.6 1186.5,790.5 1188.0,788.5 1189.5,790.6 1191.0,789.5 1192.5,789.4 1194.0,791.1 1195.5,791.0 1197.0,789.4 1198.5,789.1 1200.0,792.5 1201.5,788.6 1203.0,792.8 1204.5,790.2 1206.0,790.4 1207.5,789.9 1209.0,790.3 1210.5,790.7 1211.9,790.7 1213.4,790.9 1214.9,791.4 1216.4,789.7 1217.9,790.7 1219.4,790.9 1220.9,789.9 1222.4,790.8 1223.9,791.0 1225.4,790.9 1226.9,791.8 1228.4,790.5 1229.9,790.8 1231.4,790.2 1232.9,792.2 1234.4,789.5 1235.9,790.5 1237.3,789.2 1238.8,792.4 1240.3,792.2 1241.8,790.4 1243.3,791.0 1244.8,788.7 1246.3,791.3 1247.8,790.3 1249.3,789.8 1250.8,790.6 1252.3,790.9 1253.8,791.9 1255.3,791.5 1256.8,791.2 1258.3,792.0 1259.8,790.4 1261.2,792.0 1262.7,790.0 1264.2,790.7 1265.7,788.8 1267.2,789.5 1268.7,789.6 1270.2,791.3 1271.7,792.1 1273.2,790.3 1274.7,790.9 1276.2,790.2 1277.7,791.6 1279.2,791.2 1280.7,790.5 1282.2,790.0 1283.7,791.4 1285.2,792.8 1286.6,792.0 1288.1,791.1 1289.6,790.4 1291.1,789.0 1292.6,790.7 1294.1,791.0 1295.6,791.3 1297.1,791.4 1298.6,791.5 1300.1,792.3 1301.6,790.9 1303.1,792.1 1304.6,789.5 1306.1,793.0 1307.6,793.0 1309.1,792.4 1310.5,790.6 1312.0,790.4 1313.5,789.7 1315.0,790.4 1316.5,790.5 1318.0,793.8 1319.5,790.7 1321.0,790.9 1322.5,792.3 1324.0,788.9 1325.5,788.4 1327.0,790.8 1328.5,793.0 1330.0,791.2 1331.5,790.5 1333.0,792.6 1334.5,789.6 1335.9,790.6 1337.4,791.4 1338.9,791.0 1340.4,792.9 1341.9,792.7 1343.4,790.1 1344.9,791.6 1346.4,791.6 1347.9,790.9 1349.4,790.5 1350.9,791.6 1352.4,788.9 1353.9,791.4 1355.4,789.8 1356.9,788.9 1358.4,791.7 1359.9,792.4 1361.3,789.5 1362.8,790.7 1364.3,790.1 1365.8,789.4 1367.3,791.1 1368.8,791.7 1370.3,793.4 1371.8,792.4 1373.3,792.4 1374.8,794.9 1376.3,789.6 1377.8,790.9 1379.3,792.4 1380.8,790.1 1382.3,791.1 1383.8,792.8 1385.2,791.3 1386.7,792.4 1388.2,793.9 1389.7,792.2 1391.2,791.8 1392.7,793.1 1394.2,790.3 1395.7,793.1 1397.2,791.1 1398.7,791.2 1400.2,789.3 1401.7,792.7 1403.2,792.1 1404.7,792.6 1406.2,790.8 1407.7,790.7 1409.2,794.2 1410.6,792.4 1412.1,792.9 1413.6,794.0 1415.1,791.9 1416.6,791.9 1418.1,790.1 1419.6,790.9 1421.1,792.1 1422.6,790.4 1424.1,790.7 1425.6,791.7 1427.1,792.7 1428.6,792.4 1430.1,790.5 1431.6,791.7 1433.1,794.5 1434.6,791.2 1436.0,793.1 1437.5,791.2 1439.0,792.5 1440.5,792.8 1442.0,792.3 1443.5,793.2 1445.0,788.9 1446.5,790.8 1448.0,792.3 1449.5,789.4 1451.0,789.0 1452.5,791.7 1454.0,792.1 1455.5,792.9 1457.0,790.1 1458.5,789.6 1460.0,791.2 1461.4,792.4 1462.9,792.0 1464.4,791.3 1465.9,792.5 1467.4,791.3 1468.9,789.8 1470.4,790.0 1471.9,789.9 1473.4,793.0 1474.9,792.3 1476.4,792.2 1477.9,792.0 1479.4,790.9 1480.9,792.5 1482.4,792.2 1483.9,790.3 1485.3,793.4 1486.8,792.8 1488.3,790.5 1489.8,792.1 1491.3,792.0 1492.8,791.8 1494.3,791.2 1495.8,791.8 1497.3,793.2 1498.8,792.1 1500.3,790.4 1501.8,793.3 1503.3,790.5 1504.8,790.0 1506.3,793.1 1507.8,791.1 1509.3,794.5 1510.7,791.4 1512.2,790.2 1513.7,793.0 1515.2,791.1 1516.7,793.0 1518.2,792.7 1519.7,792.3 1521.2,791.4 1522.7,791.7 1524.2,792.4 1525.7,792.8 1527.2,792.1 1528.7,793.4 1530.2,790.9 1531.7,791.4 1533.2,792.4 1534.6,791.7 1536.1,790.7 1537.6,792.2 1539.1,792.1 1540.6,792.3 1542.1,792.4 1543.6,791.2 1545.1,792.3 1546.6,790.9 1548.1,792.6 1549.6,791.4 1551.1,790.5 1552.6,790.7 1554.1,792.1 1555.6,790.0 1557.1,791.8 1558.6,793.9 1560.0,790.5 1561.5,792.2 1563.0,793.4 1564.5,790.9 1566.0,792.7 1567.5,793.2 1569.0,791.9 1570.5,791.3 1572.0,792.0" stroke="#059669" stroke-width="1.7" opacity="0.78"/>
<polyline class="curve" points="78.0,474.5 115.3,714.0 152.7,745.7 190.1,760.9 227.4,767.5 264.8,771.4 302.1,774.1 339.4,776.1 376.8,777.7 414.2,779.1 451.5,780.3 488.9,781.3 526.2,782.2 563.5,783.0 600.9,783.6 638.2,784.2 675.6,784.9 712.9,785.5 750.3,786.0 787.6,786.5 825.0,786.9 862.4,787.3 899.7,787.8 937.0,788.2 974.4,788.6 1011.8,788.9 1049.1,789.3 1086.5,789.6 1123.8,790.0 1161.1,790.2 1198.5,790.5 1235.9,790.8 1273.2,791.0 1310.5,791.2 1347.9,791.4 1385.2,791.5 1422.6,791.7 1460.0,791.8 1497.3,791.9 1534.6,791.9 1572.0,792.0" stroke="#059669" stroke-width="2.4" stroke-dasharray="7 4"/>
<circle cx="78.0" cy="474.5" r="2.2" fill="#059669"/>
<circle cx="115.3" cy="714.0" r="2.2" fill="#059669"/>
<circle cx="152.7" cy="745.7" r="2.2" fill="#059669"/>
<circle cx="190.1" cy="760.9" r="2.2" fill="#059669"/>
<circle cx="227.4" cy="767.5" r="2.2" fill="#059669"/>
<circle cx="264.8" cy="771.4" r="2.2" fill="#059669"/>
<circle cx="302.1" cy="774.1" r="2.2" fill="#059669"/>
<circle cx="339.4" cy="776.1" r="2.2" fill="#059669"/>
<circle cx="376.8" cy="777.7" r="2.2" fill="#059669"/>
<circle cx="414.2" cy="779.1" r="2.2" fill="#059669"/>
<circle cx="451.5" cy="780.3" r="2.2" fill="#059669"/>
<circle cx="488.9" cy="781.3" r="2.2" fill="#059669"/>
<circle cx="526.2" cy="782.2" r="2.2" fill="#059669"/>
<circle cx="563.5" cy="783.0" r="2.2" fill="#059669"/>
<circle cx="600.9" cy="783.6" r="2.2" fill="#059669"/>
<circle cx="638.2" cy="784.2" r="2.2" fill="#059669"/>
<circle cx="675.6" cy="784.9" r="2.2" fill="#059669"/>
<circle cx="712.9" cy="785.5" r="2.2" fill="#059669"/>
<circle cx="750.3" cy="786.0" r="2.2" fill="#059669"/>
<circle cx="787.6" cy="786.5" r="2.2" fill="#059669"/>
<circle cx="825.0" cy="786.9" r="2.2" fill="#059669"/>
<circle cx="862.4" cy="787.3" r="2.2" fill="#059669"/>
<circle cx="899.7" cy="787.8" r="2.2" fill="#059669"/>
<circle cx="937.0" cy="788.2" r="2.2" fill="#059669"/>
<circle cx="974.4" cy="788.6" r="2.2" fill="#059669"/>
<circle cx="1011.8" cy="788.9" r="2.2" fill="#059669"/>
<circle cx="1049.1" cy="789.3" r="2.2" fill="#059669"/>
<circle cx="1086.5" cy="789.6" r="2.2" fill="#059669"/>
<circle cx="1123.8" cy="790.0" r="2.2" fill="#059669"/>
<circle cx="1161.1" cy="790.2" r="2.2" fill="#059669"/>
<circle cx="1198.5" cy="790.5" r="2.2" fill="#059669"/>
<circle cx="1235.9" cy="790.8" r="2.2" fill="#059669"/>
<circle cx="1273.2" cy="791.0" r="2.2" fill="#059669"/>
<circle cx="1310.5" cy="791.2" r="2.2" fill="#059669"/>
<circle cx="1347.9" cy="791.4" r="2.2" fill="#059669"/>
<circle cx="1385.2" cy="791.5" r="2.2" fill="#059669"/>
<circle cx="1422.6" cy="791.7" r="2.2" fill="#059669"/>
<circle cx="1460.0" cy="791.8" r="2.2" fill="#059669"/>
<circle cx="1497.3" cy="791.9" r="2.2" fill="#059669"/>
<circle cx="1534.6" cy="791.9" r="2.2" fill="#059669"/>
<circle cx="1572.0" cy="792.0" r="2.2" fill="#059669"/>
<polyline class="curve" points="78.1,474.5 79.5,479.0 81.0,493.7 82.5,515.7 84.0,536.3 85.5,561.1 87.0,586.0 88.5,612.1 90.0,634.0 91.4,649.4 92.9,665.9 94.4,678.2 95.9,685.3 97.4,692.8 98.9,697.3 100.4,704.0 101.9,708.5 103.4,712.6 104.9,716.6 106.4,718.9 107.9,719.4 109.4,724.9 110.9,727.3 112.4,726.2 113.9,728.5 115.3,734.5 116.8,733.6 118.3,736.0 119.8,736.0 121.3,739.7 122.8,742.2 124.3,743.9 125.8,742.7 127.3,744.6 128.8,746.0 130.3,743.0 131.8,747.2 133.3,744.6 134.8,747.6 136.3,747.6 137.8,751.3 139.3,747.9 140.7,752.0 142.2,751.8 143.7,752.9 145.2,754.8 146.7,754.8 148.2,753.2 149.7,754.5 151.2,757.1 152.7,757.4 154.2,756.4 155.7,758.0 157.2,759.1 158.7,759.9 160.2,761.0 161.7,762.1 163.2,764.1 164.7,764.0 166.1,761.0 167.6,764.1 169.1,763.7 170.6,766.5 172.1,764.7 173.6,764.3 175.1,767.1 176.6,767.6 178.1,767.7 179.6,767.6 181.1,767.8 182.6,766.8 184.1,764.9 185.6,768.9 187.1,769.1 188.6,767.4 190.1,767.9 191.5,768.6 193.0,768.2 194.5,769.8 196.0,769.4 197.5,769.1 199.0,771.8 200.5,771.3 202.0,769.4 203.5,770.8 205.0,769.0 206.5,771.5 208.0,769.8 209.5,770.8 211.0,771.1 212.5,773.5 214.0,771.6 215.4,770.7 216.9,768.6 218.4,770.6 219.9,772.8 221.4,773.8 222.9,773.6 224.4,773.2 225.9,773.3 227.4,772.2 228.9,772.5 230.4,774.3 231.9,772.6 233.4,773.8 234.9,772.6 236.4,774.5 237.9,773.9 239.4,775.9 240.8,777.1 242.3,774.1 243.8,776.2 245.3,776.6 246.8,773.6 248.3,775.5 249.8,773.3 251.3,777.1 252.8,773.2 254.3,775.6 255.8,776.7 257.3,773.1 258.8,776.0 260.3,775.4 261.8,776.0 263.3,775.6 264.8,776.7 266.2,775.2 267.7,775.1 269.2,777.1 270.7,776.2 272.2,777.6 273.7,774.3 275.2,777.2 276.7,777.1 278.2,775.5 279.7,775.1 281.2,777.5 282.7,778.1 284.2,776.8 285.7,776.4 287.2,779.0 288.7,777.0 290.1,778.6 291.6,778.5 293.1,777.7 294.6,777.9 296.1,779.5 297.6,776.5 299.1,778.4 300.6,776.3 302.1,777.7 303.6,778.0 305.1,780.9 306.6,777.9 308.1,776.8 309.6,780.0 311.1,780.2 312.6,780.4 314.1,780.5 315.5,780.5 317.0,779.8 318.5,779.2 320.0,781.9 321.5,779.9 323.0,780.9 324.5,778.9 326.0,779.2 327.5,780.9 329.0,780.0 330.5,779.0 332.0,779.6 333.5,780.5 335.0,777.3 336.5,780.2 338.0,782.3 339.4,779.7 340.9,779.1 342.4,781.8 343.9,779.9 345.4,779.7 346.9,781.8 348.4,780.0 349.9,779.7 351.4,778.8 352.9,780.1 354.4,780.9 355.9,779.4 357.4,781.5 358.9,780.5 360.4,780.4 361.9,778.9 363.4,781.8 364.8,783.6 366.3,781.0 367.8,781.6 369.3,782.7 370.8,780.6 372.3,780.7 373.8,783.8 375.3,780.8 376.8,782.1 378.3,782.8 379.8,781.3 381.3,781.7 382.8,783.5 384.3,782.7 385.8,782.0 387.3,782.3 388.8,780.9 390.2,780.5 391.7,783.8 393.2,781.6 394.7,782.2 396.2,780.2 397.7,782.5 399.2,783.7 400.7,782.4 402.2,782.7 403.7,783.2 405.2,783.5 406.7,781.3 408.2,784.0 409.7,783.5 411.2,782.9 412.7,783.4 414.2,781.0 415.6,782.4 417.1,783.3 418.6,783.3 420.1,782.8 421.6,783.2 423.1,784.3 424.6,783.3 426.1,782.7 427.6,784.0 429.1,783.9 430.6,781.7 432.1,782.2 433.6,782.9 435.1,783.9 436.6,782.9 438.1,782.6 439.5,784.9 441.0,784.5 442.5,781.9 444.0,782.8 445.5,783.2 447.0,785.9 448.5,783.7 450.0,785.9 451.5,783.0 453.0,784.0 454.5,782.5 456.0,784.6 457.5,784.0 459.0,782.2 460.5,782.8 462.0,783.8 463.5,784.2 464.9,784.3 466.4,783.2 467.9,781.7 469.4,784.8 470.9,784.0 472.4,784.0 473.9,781.4 475.4,785.3 476.9,784.1 478.4,784.3 479.9,784.0 481.4,784.6 482.9,784.5 484.4,782.5 485.9,785.8 487.4,785.6 488.9,784.5 490.3,781.6 491.8,785.0 493.3,782.7 494.8,785.2 496.3,785.6 497.8,784.5 499.3,784.4 500.8,786.4 502.3,785.1 503.8,782.0 505.3,784.5 506.8,785.8 508.3,783.4 509.8,785.0 511.3,785.0 512.8,783.6 514.2,784.8 515.7,785.6 517.2,786.1 518.7,783.7 520.2,784.7 521.7,782.6 523.2,786.4 524.7,783.1 526.2,784.1 527.7,784.4 529.2,786.7 530.7,782.7 532.2,783.7 533.7,785.6 535.2,784.9 536.7,786.9 538.2,783.7 539.6,786.3 541.1,784.9 542.6,785.5 544.1,787.0 545.6,786.0 547.1,784.5 548.6,784.3 550.1,785.4 551.6,785.8 553.1,785.4 554.6,784.7 556.1,785.9 557.6,786.2 559.1,782.3 560.6,785.1 562.1,785.7 563.5,786.5 565.0,785.4 566.5,785.1 568.0,787.2 569.5,786.0 571.0,786.1 572.5,785.8 574.0,786.8 575.5,785.5 577.0,786.8 578.5,785.7 580.0,784.9 581.5,788.5 583.0,787.5 584.5,787.7 586.0,786.0 587.5,787.5 588.9,785.4 590.4,785.0 591.9,784.6 593.4,786.7 594.9,785.9 596.4,787.7 597.9,785.8 599.4,786.3 600.9,787.3 602.4,785.9 603.9,788.0 605.4,785.1 606.9,787.0 608.4,787.4 609.9,789.0 611.4,788.3 612.9,785.5 614.3,786.8 615.8,785.3 617.3,785.4 618.8,787.3 620.3,786.1 621.8,786.9 623.3,787.7 624.8,784.8 626.3,787.8 627.8,787.5 629.3,786.7 630.8,787.2 632.3,787.8 633.8,788.2 635.3,783.8 636.8,785.8 638.2,787.0 639.7,785.4 641.2,786.0 642.7,787.8 644.2,786.9 645.7,787.9 647.2,787.5 648.7,786.2 650.2,787.4 651.7,786.7 653.2,786.2 654.7,786.0 656.2,787.6 657.7,786.7 659.2,788.9 660.7,787.9 662.2,787.4 663.6,788.6 665.1,786.2 666.6,787.2 668.1,788.3 669.6,787.6 671.1,787.1 672.6,786.7 674.1,787.5 675.6,789.2 677.1,788.6 678.6,788.5 680.1,788.6 681.6,787.7 683.1,788.7 684.6,789.2 686.1,788.8 687.6,786.3 689.0,789.0 690.5,786.9 692.0,788.2 693.5,786.8 695.0,787.8 696.5,790.0 698.0,787.6 699.5,789.4 701.0,789.1 702.5,786.9 704.0,787.9 705.5,786.7 707.0,787.9 708.5,787.5 710.0,788.4 711.5,789.6 712.9,788.2 714.4,787.9 715.9,788.1 717.4,788.5 718.9,788.2 720.4,785.6 721.9,788.1 723.4,789.4 724.9,787.9 726.4,788.0 727.9,787.0 729.4,789.7 730.9,788.0 732.4,788.2 733.9,788.9 735.4,789.2 736.9,787.9 738.3,790.1 739.8,789.8 741.3,789.7 742.8,788.8 744.3,790.0 745.8,788.8 747.3,791.1 748.8,787.8 750.3,787.6 751.8,788.0 753.3,789.2 754.8,788.7 756.3,786.3 757.8,789.5 759.3,788.9 760.8,788.0 762.3,788.2 763.7,788.0 765.2,788.9 766.7,789.8 768.2,789.2 769.7,788.9 771.2,789.8 772.7,789.1 774.2,789.1 775.7,788.1 777.2,789.3 778.7,788.2 780.2,789.6 781.7,787.7 783.2,789.5 784.7,790.5 786.2,789.4 787.6,789.8 789.1,788.5 790.6,789.7 792.1,789.4 793.6,788.7 795.1,790.6 796.6,790.3 798.1,788.6 799.6,788.3 801.1,790.5 802.6,786.9 804.1,789.3 805.6,790.1 807.1,788.3 808.6,791.9 810.1,790.5 811.6,789.4 813.0,790.2 814.5,791.6 816.0,789.0 817.5,787.7 819.0,790.7 820.5,790.8 822.0,791.0 823.5,791.2 825.0,790.5 826.5,789.9 828.0,790.5 829.5,790.0 831.0,791.2 832.5,789.8 834.0,789.2 835.5,791.7 837.0,789.1 838.4,790.4 839.9,788.5 841.4,790.9 842.9,791.5 844.4,791.1 845.9,789.7 847.4,790.5 848.9,791.2 850.4,791.5 851.9,789.4 853.4,790.3 854.9,789.1 856.4,789.1 857.9,789.4 859.4,787.7 860.9,791.3 862.4,789.4 863.8,788.8 865.3,793.4 866.8,789.7 868.3,790.7 869.8,791.3 871.3,789.8 872.8,791.7 874.3,791.4 875.8,788.8 877.3,789.4 878.8,789.0 880.3,791.2 881.8,789.9 883.3,788.3 884.8,791.1 886.3,791.9 887.7,792.1 889.2,792.2 890.7,790.5 892.2,792.0 893.7,790.7 895.2,788.8 896.7,791.4 898.2,789.1 899.7,790.5 901.2,789.7 902.7,791.0 904.2,788.0 905.7,789.0 907.2,789.5 908.7,789.1 910.2,789.7 911.7,791.6 913.1,790.7 914.6,789.1 916.1,792.9 917.6,790.2 919.1,790.2 920.6,791.7 922.1,790.8 923.6,791.5 925.1,790.1 926.6,790.5 928.1,791.6 929.6,791.8 931.1,791.6 932.6,791.7 934.1,792.5 935.6,789.6 937.0,791.8 938.5,791.6 940.0,789.7 941.5,790.5 943.0,792.1 944.5,790.3 946.0,788.3 947.5,791.3 949.0,790.1 950.5,791.5 952.0,790.9 953.5,792.2 955.0,790.7 956.5,790.0 958.0,792.3 959.5,790.3 961.0,791.7 962.4,791.1 963.9,793.8 965.4,791.8 966.9,789.4 968.4,791.4 969.9,791.8 971.4,790.4 972.9,790.7 974.4,790.0 975.9,790.9 977.4,791.7 978.9,792.5 980.4,791.9 981.9,791.8 983.4,791.8 984.9,790.0 986.4,792.4 987.8,792.2 989.3,791.5 990.8,791.3 992.3,791.4 993.8,791.7 995.3,791.1 996.8,791.5 998.3,792.5 999.8,792.4 1001.3,792.5 1002.8,792.9 1004.3,793.4 1005.8,789.4 1007.3,794.1 1008.8,792.8 1010.3,791.3 1011.8,792.7 1013.2,792.1 1014.7,790.8 1016.2,791.0 1017.7,791.2 1019.2,791.7 1020.7,792.3 1022.2,791.7 1023.7,791.1 1025.2,792.3 1026.7,791.4 1028.2,790.9 1029.7,791.5 1031.2,791.8 1032.7,793.1 1034.2,791.4 1035.7,791.8 1037.1,790.4 1038.6,790.4 1040.1,792.4 1041.6,793.6 1043.1,792.3 1044.6,793.0 1046.1,792.4 1047.6,792.6 1049.1,791.2 1050.6,792.1 1052.1,792.0 1053.6,789.7 1055.1,791.0 1056.6,794.0 1058.1,793.1 1059.6,791.2 1061.1,792.2 1062.5,793.3 1064.0,792.8 1065.5,790.6 1067.0,792.1 1068.5,792.5 1070.0,790.4 1071.5,792.8 1073.0,789.8 1074.5,790.3 1076.0,793.7 1077.5,793.8 1079.0,793.1 1080.5,792.0 1082.0,793.4 1083.5,792.5 1085.0,793.3 1086.5,792.0 1087.9,793.5 1089.4,790.1 1090.9,794.2 1092.4,792.3 1093.9,793.6 1095.4,790.7 1096.9,793.6 1098.4,794.0 1099.9,792.8 1101.4,793.5 1102.9,791.4 1104.4,793.1 1105.9,791.8 1107.4,792.3 1108.9,794.5 1110.4,792.5 1111.8,791.8 1113.3,792.3 1114.8,793.8 1116.3,792.8 1117.8,794.1 1119.3,794.2 1120.8,792.7 1122.3,792.9 1123.8,791.4 1125.3,794.3 1126.8,792.9 1128.3,794.2 1129.8,793.4 1131.3,793.3 1132.8,794.1 1134.3,794.2 1135.8,792.8 1137.2,792.2 1138.7,792.7 1140.2,793.0 1141.7,793.5 1143.2,792.6 1144.7,794.5 1146.2,792.0 1147.7,794.2 1149.2,792.2 1150.7,790.6 1152.2,792.9 1153.7,792.1 1155.2,793.3 1156.7,792.7 1158.2,791.6 1159.7,790.6 1161.1,792.4 1162.6,794.2 1164.1,793.4 1165.6,793.5 1167.1,793.4 1168.6,792.1 1170.1,792.9 1171.6,792.5 1173.1,793.7 1174.6,793.5 1176.1,795.5 1177.6,792.4 1179.1,793.2 1180.6,793.6 1182.1,795.0 1183.6,793.1 1185.1,794.4 1186.5,793.4 1188.0,791.3 1189.5,793.5 1191.0,792.5 1192.5,792.1 1194.0,793.8 1195.5,794.3 1197.0,792.4 1198.5,792.0 1200.0,795.6 1201.5,791.6 1203.0,795.5 1204.5,793.3 1206.0,793.1 1207.5,792.7 1209.0,793.3 1210.5,793.4 1211.9,793.2 1213.4,793.9 1214.9,794.4 1216.4,792.6 1217.9,793.6 1219.4,793.9 1220.9,792.9 1222.4,793.9 1223.9,793.8 1225.4,793.8 1226.9,794.8 1228.4,793.4 1229.9,793.6 1231.4,793.2 1232.9,795.1 1234.4,792.5 1235.9,794.0 1237.3,792.1 1238.8,795.2 1240.3,795.1 1241.8,793.4 1243.3,794.0 1244.8,791.5 1246.3,794.2 1247.8,793.3 1249.3,792.8 1250.8,793.6 1252.3,793.9 1253.8,794.8 1255.3,794.4 1256.8,794.0 1258.3,794.6 1259.8,793.5 1261.2,794.9 1262.7,793.2 1264.2,793.6 1265.7,791.7 1267.2,792.5 1268.7,792.5 1270.2,794.0 1271.7,795.4 1273.2,793.3 1274.7,793.8 1276.2,793.2 1277.7,794.0 1279.2,794.4 1280.7,793.4 1282.2,793.1 1283.7,794.5 1285.2,795.6 1286.6,794.8 1288.1,793.8 1289.6,793.3 1291.1,792.2 1292.6,793.7 1294.1,794.0 1295.6,794.4 1297.1,794.3 1298.6,794.3 1300.1,795.6 1301.6,793.7 1303.1,794.9 1304.6,792.7 1306.1,795.8 1307.6,795.7 1309.1,795.4 1310.5,793.6 1312.0,793.1 1313.5,792.6 1315.0,793.5 1316.5,793.4 1318.0,796.7 1319.5,793.9 1321.0,793.5 1322.5,795.2 1324.0,791.7 1325.5,791.4 1327.0,793.9 1328.5,795.8 1330.0,794.2 1331.5,793.5 1333.0,795.2 1334.5,792.6 1335.9,793.5 1337.4,794.3 1338.9,793.9 1340.4,795.7 1341.9,795.4 1343.4,793.1 1344.9,794.6 1346.4,794.6 1347.9,793.7 1349.4,793.3 1350.9,794.4 1352.4,791.7 1353.9,794.3 1355.4,792.9 1356.9,792.0 1358.4,794.5 1359.9,795.3 1361.3,792.5 1362.8,793.4 1364.3,793.0 1365.8,792.5 1367.3,794.0 1368.8,794.4 1370.3,796.1 1371.8,795.4 1373.3,795.2 1374.8,797.6 1376.3,792.5 1377.8,794.0 1379.3,795.2 1380.8,793.1 1382.3,793.9 1383.8,795.5 1385.2,794.3 1386.7,795.4 1388.2,796.8 1389.7,795.2 1391.2,794.7 1392.7,795.9 1394.2,793.4 1395.7,796.0 1397.2,794.2 1398.7,794.2 1400.2,792.2 1401.7,795.6 1403.2,794.9 1404.7,795.3 1406.2,793.8 1407.7,793.5 1409.2,797.0 1410.6,795.2 1412.1,795.8 1413.6,796.7 1415.1,794.7 1416.6,794.7 1418.1,792.9 1419.6,793.6 1421.1,794.8 1422.6,793.3 1424.1,793.5 1425.6,794.9 1427.1,795.4 1428.6,795.5 1430.1,793.6 1431.6,794.6 1433.1,797.2 1434.6,794.0 1436.0,795.8 1437.5,794.1 1439.0,795.5 1440.5,795.5 1442.0,795.1 1443.5,796.0 1445.0,792.0 1446.5,793.7 1448.0,795.1 1449.5,792.0 1451.0,792.0 1452.5,794.6 1454.0,794.8 1455.5,795.9 1457.0,793.0 1458.5,792.8 1460.0,794.3 1461.4,794.9 1462.9,795.0 1464.4,794.4 1465.9,795.4 1467.4,794.0 1468.9,792.9 1470.4,793.2 1471.9,792.8 1473.4,795.7 1474.9,795.0 1476.4,795.1 1477.9,794.9 1479.4,793.8 1480.9,795.3 1482.4,795.1 1483.9,793.2 1485.3,796.2 1486.8,795.7 1488.3,793.5 1489.8,794.8 1491.3,794.8 1492.8,794.8 1494.3,794.3 1495.8,794.5 1497.3,796.3 1498.8,795.2 1500.3,793.1 1501.8,796.0 1503.3,793.6 1504.8,793.0 1506.3,795.9 1507.8,794.1 1509.3,797.3 1510.7,794.3 1512.2,793.0 1513.7,795.7 1515.2,793.6 1516.7,795.6 1518.2,795.4 1519.7,795.0 1521.2,794.3 1522.7,794.8 1524.2,795.4 1525.7,795.9 1527.2,795.0 1528.7,796.4 1530.2,793.9 1531.7,794.2 1533.2,795.6 1534.6,794.4 1536.1,793.5 1537.6,794.9 1539.1,794.9 1540.6,795.1 1542.1,794.8 1543.6,794.0 1545.1,795.3 1546.6,793.9 1548.1,795.7 1549.6,794.3 1551.1,793.3 1552.6,793.7 1554.1,795.0 1555.6,793.1 1557.1,794.7 1558.6,796.7 1560.0,793.4 1561.5,795.0 1563.0,796.3 1564.5,793.8 1566.0,795.6 1567.5,796.2 1569.0,794.7 1570.5,794.3 1572.0,795.0" stroke="#9333ea" stroke-width="1.7" opacity="0.78"/>
<polyline class="curve" points="78.0,474.5 115.3,732.9 152.7,757.9 190.1,768.7 227.4,773.9 264.8,776.6 302.1,778.7 339.4,780.5 376.8,781.8 414.2,782.9 451.5,784.0 488.9,784.7 526.2,785.4 563.5,786.1 600.9,786.7 638.2,787.2 675.6,787.8 712.9,788.4 750.3,788.9 787.6,789.3 825.0,789.9 862.4,790.2 899.7,790.6 937.0,791.0 974.4,791.5 1011.8,791.8 1049.1,792.1 1086.5,792.5 1123.8,792.8 1161.1,793.1 1198.5,793.4 1235.9,793.6 1273.2,793.9 1310.5,794.0 1347.9,794.2 1385.2,794.4 1422.6,794.5 1460.0,794.6 1497.3,794.7 1534.6,794.7 1572.0,794.8" stroke="#9333ea" stroke-width="2.4" stroke-dasharray="7 4"/>
<circle cx="78.0" cy="474.5" r="2.2" fill="#9333ea"/>
<circle cx="115.3" cy="732.9" r="2.2" fill="#9333ea"/>
<circle cx="152.7" cy="757.9" r="2.2" fill="#9333ea"/>
<circle cx="190.1" cy="768.7" r="2.2" fill="#9333ea"/>
<circle cx="227.4" cy="773.9" r="2.2" fill="#9333ea"/>
<circle cx="264.8" cy="776.6" r="2.2" fill="#9333ea"/>
<circle cx="302.1" cy="778.7" r="2.2" fill="#9333ea"/>
<circle cx="339.4" cy="780.5" r="2.2" fill="#9333ea"/>
<circle cx="376.8" cy="781.8" r="2.2" fill="#9333ea"/>
<circle cx="414.2" cy="782.9" r="2.2" fill="#9333ea"/>
<circle cx="451.5" cy="784.0" r="2.2" fill="#9333ea"/>
<circle cx="488.9" cy="784.7" r="2.2" fill="#9333ea"/>
<circle cx="526.2" cy="785.4" r="2.2" fill="#9333ea"/>
<circle cx="563.5" cy="786.1" r="2.2" fill="#9333ea"/>
<circle cx="600.9" cy="786.7" r="2.2" fill="#9333ea"/>
<circle cx="638.2" cy="787.2" r="2.2" fill="#9333ea"/>
<circle cx="675.6" cy="787.8" r="2.2" fill="#9333ea"/>
<circle cx="712.9" cy="788.4" r="2.2" fill="#9333ea"/>
<circle cx="750.3" cy="788.9" r="2.2" fill="#9333ea"/>
<circle cx="787.6" cy="789.3" r="2.2" fill="#9333ea"/>
<circle cx="825.0" cy="789.9" r="2.2" fill="#9333ea"/>
<circle cx="862.4" cy="790.2" r="2.2" fill="#9333ea"/>
<circle cx="899.7" cy="790.6" r="2.2" fill="#9333ea"/>
<circle cx="937.0" cy="791.0" r="2.2" fill="#9333ea"/>
<circle cx="974.4" cy="791.5" r="2.2" fill="#9333ea"/>
<circle cx="1011.8" cy="791.8" r="2.2" fill="#9333ea"/>
<circle cx="1049.1" cy="792.1" r="2.2" fill="#9333ea"/>
<circle cx="1086.5" cy="792.5" r="2.2" fill="#9333ea"/>
<circle cx="1123.8" cy="792.8" r="2.2" fill="#9333ea"/>
<circle cx="1161.1" cy="793.1" r="2.2" fill="#9333ea"/>
<circle cx="1198.5" cy="793.4" r="2.2" fill="#9333ea"/>
<circle cx="1235.9" cy="793.6" r="2.2" fill="#9333ea"/>
<circle cx="1273.2" cy="793.9" r="2.2" fill="#9333ea"/>
<circle cx="1310.5" cy="794.0" r="2.2" fill="#9333ea"/>
<circle cx="1347.9" cy="794.2" r="2.2" fill="#9333ea"/>
<circle cx="1385.2" cy="794.4" r="2.2" fill="#9333ea"/>
<circle cx="1422.6" cy="794.5" r="2.2" fill="#9333ea"/>
<circle cx="1460.0" cy="794.6" r="2.2" fill="#9333ea"/>
<circle cx="1497.3" cy="794.7" r="2.2" fill="#9333ea"/>
<circle cx="1534.6" cy="794.7" r="2.2" fill="#9333ea"/>
<circle cx="1572.0" cy="794.8" r="2.2" fill="#9333ea"/>
<polyline class="curve" points="78.1,475.4 79.5,481.2 81.0,499.9 82.5,520.9 84.0,540.7 85.5,564.5 87.0,588.0 88.5,612.1 90.0,632.0 91.4,646.1 92.9,661.9 94.4,673.8 95.9,681.5 97.4,689.1 98.9,693.7 100.4,700.1 101.9,704.9 103.4,708.6 104.9,712.9 106.4,715.3 107.9,714.5 109.4,720.8 110.9,723.7 112.4,722.2 113.9,724.3 115.3,730.1 116.8,729.1 118.3,731.5 119.8,731.3 121.3,734.8 122.8,737.7 124.3,739.3 125.8,737.7 127.3,740.0 128.8,741.6 130.3,738.1 131.8,742.2 133.3,739.3 134.8,742.8 136.3,742.8 137.8,746.7 139.3,742.9 140.7,746.7 142.2,746.6 143.7,747.7 145.2,749.2 146.7,748.9 148.2,748.8 149.7,749.3 151.2,751.6 152.7,752.1 154.2,750.8 155.7,753.0 157.2,753.6 158.7,754.1 160.2,756.0 161.7,757.1 163.2,759.0 164.7,758.8 166.1,756.1 167.6,758.9 169.1,758.6 170.6,761.6 172.1,759.6 173.6,759.5 175.1,762.4 176.6,763.0 178.1,762.8 179.6,762.5 181.1,763.1 182.6,762.2 184.1,760.4 185.6,764.2 187.1,764.7 188.6,763.1 190.1,763.7 191.5,764.3 193.0,763.9 194.5,765.7 196.0,765.4 197.5,765.4 199.0,767.7 200.5,767.4 202.0,766.0 203.5,767.3 205.0,765.1 206.5,767.6 208.0,766.1 209.5,767.3 211.0,767.7 212.5,769.9 214.0,768.5 215.4,767.2 216.9,765.2 218.4,767.1 219.9,769.4 221.4,770.4 222.9,770.3 224.4,770.2 225.9,770.2 227.4,769.0 228.9,770.0 230.4,771.5 231.9,769.6 233.4,770.6 234.9,769.8 236.4,771.5 237.9,770.8 239.4,773.3 240.8,774.0 242.3,771.4 243.8,773.5 245.3,773.9 246.8,770.7 248.3,772.7 249.8,770.5 251.3,774.3 252.8,770.2 254.3,772.8 255.8,774.1 257.3,770.4 258.8,773.2 260.3,773.0 261.8,773.4 263.3,772.8 264.8,774.1 266.2,772.9 267.7,772.7 269.2,774.9 270.7,773.7 272.2,775.4 273.7,771.6 275.2,774.8 276.7,774.7 278.2,772.9 279.7,773.0 281.2,775.1 282.7,775.9 284.2,774.6 285.7,773.7 287.2,776.5 288.7,774.9 290.1,776.7 291.6,776.1 293.1,775.5 294.6,775.9 296.1,777.6 297.6,774.2 299.1,776.2 300.6,774.3 302.1,776.1 303.6,776.2 305.1,778.8 306.6,775.6 308.1,775.2 309.6,777.8 311.1,778.0 312.6,778.6 314.1,778.7 315.5,778.7 317.0,778.0 318.5,777.4 320.0,780.0 321.5,777.8 323.0,778.7 324.5,777.3 326.0,777.3 327.5,779.7 329.0,778.2 330.5,777.1 332.0,778.0 333.5,778.6 335.0,775.8 336.5,778.4 338.0,780.7 339.4,777.9 340.9,777.4 342.4,780.3 343.9,777.8 345.4,778.1 346.9,780.1 348.4,778.7 349.9,777.9 351.4,777.5 352.9,778.5 354.4,779.0 355.9,777.7 357.4,779.9 358.9,779.0 360.4,778.6 361.9,777.3 363.4,780.2 364.8,782.3 366.3,779.5 367.8,780.2 369.3,781.1 370.8,779.1 372.3,779.3 373.8,782.7 375.3,779.4 376.8,780.5 378.3,781.1 379.8,779.6 381.3,780.3 382.8,781.9 384.3,781.2 385.8,780.8 387.3,780.7 388.8,779.8 390.2,779.1 391.7,782.6 393.2,780.1 394.7,780.9 396.2,779.0 397.7,781.1 399.2,782.4 400.7,781.1 402.2,781.4 403.7,782.1 405.2,782.2 406.7,780.2 408.2,782.6 409.7,781.9 411.2,781.6 412.7,782.1 414.2,779.6 415.6,780.7 417.1,782.1 418.6,782.2 420.1,781.9 421.6,782.0 423.1,782.8 424.6,782.1 426.1,781.4 427.6,782.8 429.1,782.2 430.6,780.3 432.1,780.9 433.6,781.6 435.1,782.9 436.6,781.6 438.1,781.5 439.5,783.9 441.0,783.2 442.5,780.8 444.0,781.6 445.5,781.7 447.0,784.7 448.5,782.7 450.0,784.6 451.5,781.9 453.0,783.2 454.5,781.5 456.0,783.6 457.5,782.9 459.0,780.9 460.5,781.3 462.0,782.3 463.5,783.2 464.9,783.2 466.4,782.2 467.9,780.7 469.4,783.9 470.9,782.6 472.4,782.7 473.9,780.4 475.4,784.2 476.9,782.9 478.4,783.3 479.9,783.0 481.4,783.4 482.9,783.4 484.4,781.0 485.9,784.7 487.4,785.0 488.9,783.6 490.3,780.6 491.8,783.7 493.3,781.6 494.8,784.0 496.3,784.4 497.8,783.0 499.3,783.5 500.8,785.3 502.3,784.0 503.8,780.8 505.3,783.4 506.8,784.7 508.3,782.1 509.8,783.8 511.3,784.0 512.8,782.7 514.2,783.7 515.7,784.6 517.2,785.3 518.7,782.7 520.2,783.7 521.7,781.5 523.2,785.3 524.7,782.0 526.2,783.1 527.7,783.1 529.2,785.9 530.7,781.7 532.2,782.7 533.7,784.6 535.2,783.4 536.7,785.9 538.2,782.6 539.6,785.0 541.1,783.8 542.6,784.5 544.1,785.8 545.6,785.1 547.1,783.5 548.6,783.0 550.1,784.6 551.6,784.9 553.1,784.3 554.6,783.6 556.1,785.1 557.6,785.2 559.1,781.2 560.6,784.0 562.1,784.5 563.5,785.6 565.0,784.4 566.5,784.0 568.0,786.2 569.5,785.2 571.0,785.1 572.5,784.7 574.0,785.5 575.5,784.1 577.0,786.0 578.5,784.7 580.0,784.3 581.5,787.6 583.0,786.9 584.5,786.6 586.0,785.1 587.5,786.5 588.9,784.0 590.4,784.4 591.9,783.6 593.4,785.8 594.9,785.0 596.4,786.9 597.9,785.0 599.4,785.5 600.9,786.3 602.4,785.0 603.9,787.0 605.4,783.9 606.9,786.5 608.4,786.5 609.9,788.3 611.4,787.6 612.9,784.4 614.3,785.9 615.8,784.2 617.3,784.2 618.8,786.2 620.3,785.0 621.8,785.9 623.3,786.9 624.8,784.0 626.3,787.0 627.8,786.7 629.3,785.7 630.8,786.2 632.3,787.0 633.8,787.3 635.3,782.6 636.8,784.6 638.2,786.4 639.7,784.2 641.2,784.9 642.7,786.8 644.2,785.8 645.7,786.9 647.2,786.7 648.7,785.4 650.2,786.7 651.7,785.8 653.2,785.2 654.7,784.8 656.2,786.6 657.7,786.0 659.2,788.1 660.7,786.9 662.2,786.5 663.6,787.7 665.1,785.3 666.6,786.5 668.1,787.5 669.6,786.5 671.1,786.2 672.6,785.8 674.1,786.5 675.6,788.1 677.1,787.7 678.6,787.6 680.1,787.3 681.6,786.7 683.1,787.8 684.6,788.2 686.1,787.9 687.6,785.4 689.0,788.3 690.5,785.9 692.0,787.2 693.5,786.2 695.0,787.1 696.5,789.0 698.0,786.9 699.5,788.5 701.0,788.5 702.5,786.0 704.0,786.9 705.5,785.7 707.0,786.8 708.5,786.5 710.0,787.3 711.5,788.6 712.9,787.3 714.4,787.1 715.9,787.2 717.4,787.5 718.9,787.0 720.4,784.5 721.9,787.3 723.4,788.6 724.9,786.8 726.4,787.0 727.9,786.0 729.4,789.0 730.9,787.1 732.4,787.3 733.9,788.0 735.4,788.4 736.9,787.1 738.3,789.1 739.8,788.7 741.3,788.9 742.8,787.9 744.3,788.9 745.8,787.9 747.3,790.3 748.8,787.0 750.3,786.8 751.8,787.5 753.3,788.3 754.8,787.9 756.3,785.3 757.8,788.4 759.3,787.8 760.8,787.3 762.3,787.5 763.7,787.4 765.2,788.0 766.7,788.8 768.2,788.3 769.7,787.9 771.2,789.0 772.7,788.0 774.2,788.3 775.7,787.0 777.2,788.4 778.7,787.3 780.2,788.7 781.7,786.8 783.2,788.8 784.7,789.6 786.2,789.1 787.6,788.9 789.1,787.4 790.6,788.9 792.1,788.5 793.6,787.9 795.1,789.7 796.6,789.4 798.1,787.9 799.6,787.5 801.1,789.5 802.6,786.1 804.1,788.1 805.6,789.3 807.1,787.4 808.6,791.1 810.1,789.5 811.6,788.6 813.0,789.1 814.5,790.9 816.0,787.9 817.5,786.6 819.0,789.7 820.5,789.8 822.0,790.0 823.5,790.2 825.0,789.7 826.5,789.1 828.0,790.0 829.5,789.0 831.0,790.3 832.5,788.7 834.0,788.4 835.5,791.1 837.0,788.1 838.4,789.3 839.9,787.5 841.4,790.2 842.9,790.6 844.4,789.9 845.9,788.8 847.4,789.7 848.9,790.4 850.4,790.7 851.9,788.7 853.4,789.5 854.9,788.3 856.4,788.3 857.9,788.3 859.4,786.6 860.9,790.5 862.4,788.4 863.8,787.8 865.3,792.4 866.8,788.9 868.3,790.0 869.8,790.7 871.3,789.1 872.8,790.9 874.3,790.6 875.8,787.7 877.3,788.5 878.8,788.1 880.3,790.2 881.8,789.1 883.3,787.4 884.8,790.1 886.3,791.1 887.7,791.1 889.2,791.1 890.7,789.4 892.2,791.1 893.7,789.8 895.2,787.6 896.7,790.3 898.2,788.0 899.7,789.6 901.2,788.9 902.7,789.9 904.2,786.9 905.7,788.0 907.2,788.4 908.7,788.1 910.2,788.8 911.7,790.5 913.1,790.0 914.6,788.3 916.1,792.0 917.6,789.2 919.1,789.4 920.6,790.6 922.1,790.0 923.6,790.6 925.1,789.2 926.6,789.6 928.1,790.6 929.6,790.9 931.1,790.9 932.6,790.7 934.1,791.6 935.6,788.6 937.0,790.7 938.5,790.6 940.0,788.6 941.5,789.6 943.0,791.2 944.5,789.6 946.0,787.2 947.5,790.2 949.0,789.1 950.5,790.9 952.0,790.0 953.5,791.1 955.0,789.5 956.5,789.1 958.0,791.5 959.5,789.6 961.0,790.6 962.4,790.1 963.9,792.9 965.4,791.0 966.9,788.4 968.4,790.5 969.9,790.9 971.4,789.5 972.9,789.6 974.4,789.0 975.9,789.8 977.4,790.9 978.9,791.2 980.4,791.1 981.9,791.0 983.4,790.8 984.9,789.0 986.4,791.6 987.8,791.3 989.3,790.5 990.8,790.3 992.3,790.8 993.8,790.6 995.3,790.0 996.8,790.5 998.3,791.4 999.8,791.3 1001.3,791.6 1002.8,791.8 1004.3,792.4 1005.8,788.3 1007.3,792.9 1008.8,791.7 1010.3,790.3 1011.8,791.8 1013.2,791.3 1014.7,790.0 1016.2,789.9 1017.7,790.3 1019.2,790.8 1020.7,791.3 1022.2,790.8 1023.7,790.3 1025.2,791.2 1026.7,790.3 1028.2,789.7 1029.7,790.5 1031.2,790.7 1032.7,792.1 1034.2,790.5 1035.7,790.4 1037.1,789.4 1038.6,789.7 1040.1,791.4 1041.6,792.5 1043.1,791.3 1044.6,792.1 1046.1,791.6 1047.6,791.6 1049.1,790.2 1050.6,791.4 1052.1,791.0 1053.6,788.8 1055.1,790.1 1056.6,793.2 1058.1,792.1 1059.6,790.1 1061.1,791.3 1062.5,792.3 1064.0,791.9 1065.5,789.5 1067.0,791.0 1068.5,791.6 1070.0,789.6 1071.5,792.1 1073.0,788.8 1074.5,789.2 1076.0,792.3 1077.5,792.9 1079.0,792.2 1080.5,791.2 1082.0,792.5 1083.5,791.5 1085.0,792.3 1086.5,791.1 1087.9,792.3 1089.4,789.3 1090.9,792.9 1092.4,791.4 1093.9,792.4 1095.4,789.8 1096.9,792.5 1098.4,793.1 1099.9,791.9 1101.4,792.5 1102.9,790.6 1104.4,792.1 1105.9,791.2 1107.4,791.3 1108.9,793.2 1110.4,791.3 1111.8,791.0 1113.3,791.3 1114.8,792.7 1116.3,791.8 1117.8,793.0 1119.3,793.2 1120.8,791.9 1122.3,792.1 1123.8,790.3 1125.3,793.1 1126.8,791.9 1128.3,793.2 1129.8,792.4 1131.3,792.3 1132.8,793.2 1134.3,793.4 1135.8,792.0 1137.2,791.3 1138.7,791.9 1140.2,792.0 1141.7,792.5 1143.2,791.6 1144.7,793.6 1146.2,791.0 1147.7,793.0 1149.2,791.2 1150.7,789.5 1152.2,791.8 1153.7,791.1 1155.2,792.4 1156.7,791.7 1158.2,790.8 1159.7,789.4 1161.1,791.8 1162.6,793.3 1164.1,792.5 1165.6,792.7 1167.1,792.4 1168.6,791.1 1170.1,792.0 1171.6,791.4 1173.1,792.7 1174.6,792.5 1176.1,794.5 1177.6,791.5 1179.1,792.2 1180.6,792.6 1182.1,793.9 1183.6,792.1 1185.1,793.3 1186.5,792.6 1188.0,790.4 1189.5,792.5 1191.0,791.6 1192.5,791.1 1194.0,792.8 1195.5,793.1 1197.0,791.5 1198.5,791.0 1200.0,794.6 1201.5,790.5 1203.0,794.6 1204.5,792.2 1206.0,792.2 1207.5,791.7 1209.0,792.1 1210.5,792.8 1211.9,792.3 1213.4,792.8 1214.9,793.4 1216.4,791.7 1217.9,792.7 1219.4,793.2 1220.9,791.7 1222.4,792.6 1223.9,792.8 1225.4,793.1 1226.9,793.7 1228.4,792.5 1229.9,792.6 1231.4,792.2 1232.9,794.3 1234.4,791.6 1235.9,792.7 1237.3,791.1 1238.8,794.2 1240.3,794.1 1241.8,792.3 1243.3,793.0 1244.8,790.4 1246.3,793.5 1247.8,792.3 1249.3,791.8 1250.8,792.6 1252.3,792.8 1253.8,793.8 1255.3,793.3 1256.8,793.1 1258.3,793.8 1259.8,792.4 1261.2,793.8 1262.7,792.0 1264.2,792.6 1265.7,790.8 1267.2,791.5 1268.7,791.4 1270.2,793.3 1271.7,794.3 1273.2,792.0 1274.7,792.7 1276.2,792.4 1277.7,793.1 1279.2,793.3 1280.7,792.4 1282.2,792.2 1283.7,793.4 1285.2,794.4 1286.6,794.0 1288.1,793.2 1289.6,792.2 1291.1,790.9 1292.6,792.5 1294.1,793.2 1295.6,793.4 1297.1,793.3 1298.6,793.4 1300.1,794.4 1301.6,792.9 1303.1,793.7 1304.6,791.7 1306.1,794.8 1307.6,794.9 1309.1,794.3 1310.5,792.7 1312.0,792.3 1313.5,791.4 1315.0,792.5 1316.5,792.4 1318.0,795.6 1319.5,792.9 1321.0,792.7 1322.5,794.2 1324.0,790.9 1325.5,790.4 1327.0,792.9 1328.5,794.7 1330.0,793.4 1331.5,792.3 1333.0,794.2 1334.5,791.3 1335.9,792.6 1337.4,793.3 1338.9,792.8 1340.4,794.8 1341.9,794.5 1343.4,792.1 1344.9,793.7 1346.4,793.8 1347.9,793.0 1349.4,792.4 1350.9,793.5 1352.4,790.8 1353.9,793.4 1355.4,791.7 1356.9,791.1 1358.4,793.3 1359.9,794.2 1361.3,791.6 1362.8,792.5 1364.3,792.2 1365.8,791.4 1367.3,793.2 1368.8,793.7 1370.3,795.1 1371.8,794.3 1373.3,794.1 1374.8,796.5 1376.3,791.4 1377.8,792.9 1379.3,794.1 1380.8,791.9 1382.3,793.3 1383.8,794.5 1385.2,793.2 1386.7,794.3 1388.2,795.8 1389.7,794.2 1391.2,793.5 1392.7,794.8 1394.2,792.4 1395.7,795.1 1397.2,793.0 1398.7,793.3 1400.2,791.1 1401.7,794.6 1403.2,793.9 1404.7,794.7 1406.2,792.8 1407.7,792.7 1409.2,795.9 1410.6,794.1 1412.1,794.9 1413.6,795.8 1415.1,793.6 1416.6,793.6 1418.1,792.1 1419.6,792.7 1421.1,793.9 1422.6,792.2 1424.1,792.6 1425.6,793.8 1427.1,794.5 1428.6,794.5 1430.1,792.7 1431.6,793.6 1433.1,796.5 1434.6,792.9 1436.0,794.7 1437.5,793.0 1439.0,794.5 1440.5,794.6 1442.0,794.3 1443.5,795.0 1445.0,791.0 1446.5,792.7 1448.0,794.1 1449.5,791.1 1451.0,791.0 1452.5,793.6 1454.0,793.8 1455.5,795.0 1457.0,792.2 1458.5,791.8 1460.0,793.1 1461.4,794.3 1462.9,793.9 1464.4,793.3 1465.9,794.2 1467.4,793.1 1468.9,791.9 1470.4,792.0 1471.9,791.9 1473.4,794.9 1474.9,794.2 1476.4,794.1 1477.9,793.8 1479.4,792.9 1480.9,794.5 1482.4,793.9 1483.9,792.1 1485.3,795.1 1486.8,795.0 1488.3,792.5 1489.8,793.9 1491.3,794.1 1492.8,793.6 1494.3,793.4 1495.8,793.6 1497.3,795.2 1498.8,794.0 1500.3,792.4 1501.8,795.2 1503.3,792.4 1504.8,791.8 1506.3,795.2 1507.8,793.2 1509.3,796.4 1510.7,793.3 1512.2,792.1 1513.7,794.9 1515.2,792.9 1516.7,794.9 1518.2,794.4 1519.7,794.0 1521.2,793.3 1522.7,793.7 1524.2,794.5 1525.7,794.7 1527.2,794.0 1528.7,795.2 1530.2,793.0 1531.7,793.3 1533.2,794.5 1534.6,793.5 1536.1,792.5 1537.6,793.9 1539.1,793.8 1540.6,794.2 1542.1,794.0 1543.6,792.9 1545.1,794.2 1546.6,792.9 1548.1,794.8 1549.6,793.0 1551.1,792.0 1552.6,792.7 1554.1,794.0 1555.6,792.0 1557.1,793.6 1558.6,795.9 1560.0,792.5 1561.5,794.1 1563.0,795.4 1564.5,792.8 1566.0,794.5 1567.5,795.2 1569.0,793.8 1570.5,793.4 1572.0,794.0" stroke="#ea580c" stroke-width="1.7" opacity="0.78"/>
<polyline class="curve" points="78.0,475.4 115.3,728.5 152.7,752.6 190.1,764.5 227.4,770.7 264.8,774.3 302.1,776.9 339.4,778.7 376.8,780.4 414.2,781.5 451.5,782.7 488.9,783.6 526.2,784.4 563.5,785.1 600.9,785.8 638.2,786.2 675.6,786.9 712.9,787.5 750.3,788.0 787.6,788.4 825.0,788.9 862.4,789.2 899.7,789.7 937.0,790.1 974.4,790.5 1011.8,790.8 1049.1,791.1 1086.5,791.4 1123.8,791.8 1161.1,792.1 1198.5,792.4 1235.9,792.7 1273.2,792.9 1310.5,793.1 1347.9,793.2 1385.2,793.4 1422.6,793.5 1460.0,793.6 1497.3,793.7 1534.6,793.8 1572.0,793.8" stroke="#ea580c" stroke-width="2.4" stroke-dasharray="7 4"/>
<circle cx="78.0" cy="475.4" r="2.2" fill="#ea580c"/>
<circle cx="115.3" cy="728.5" r="2.2" fill="#ea580c"/>
<circle cx="152.7" cy="752.6" r="2.2" fill="#ea580c"/>
<circle cx="190.1" cy="764.5" r="2.2" fill="#ea580c"/>
<circle cx="227.4" cy="770.7" r="2.2" fill="#ea580c"/>
<circle cx="264.8" cy="774.3" r="2.2" fill="#ea580c"/>
<circle cx="302.1" cy="776.9" r="2.2" fill="#ea580c"/>
<circle cx="339.4" cy="778.7" r="2.2" fill="#ea580c"/>
<circle cx="376.8" cy="780.4" r="2.2" fill="#ea580c"/>
<circle cx="414.2" cy="781.5" r="2.2" fill="#ea580c"/>
<circle cx="451.5" cy="782.7" r="2.2" fill="#ea580c"/>
<circle cx="488.9" cy="783.6" r="2.2" fill="#ea580c"/>
<circle cx="526.2" cy="784.4" r="2.2" fill="#ea580c"/>
<circle cx="563.5" cy="785.1" r="2.2" fill="#ea580c"/>
<circle cx="600.9" cy="785.8" r="2.2" fill="#ea580c"/>
<circle cx="638.2" cy="786.2" r="2.2" fill="#ea580c"/>
<circle cx="675.6" cy="786.9" r="2.2" fill="#ea580c"/>
<circle cx="712.9" cy="787.5" r="2.2" fill="#ea580c"/>
<circle cx="750.3" cy="788.0" r="2.2" fill="#ea580c"/>
<circle cx="787.6" cy="788.4" r="2.2" fill="#ea580c"/>
<circle cx="825.0" cy="788.9" r="2.2" fill="#ea580c"/>
<circle cx="862.4" cy="789.2" r="2.2" fill="#ea580c"/>
<circle cx="899.7" cy="789.7" r="2.2" fill="#ea580c"/>
<circle cx="937.0" cy="790.1" r="2.2" fill="#ea580c"/>
<circle cx="974.4" cy="790.5" r="2.2" fill="#ea580c"/>
<circle cx="1011.8" cy="790.8" r="2.2" fill="#ea580c"/>
<circle cx="1049.1" cy="791.1" r="2.2" fill="#ea580c"/>
<circle cx="1086.5" cy="791.4" r="2.2" fill="#ea580c"/>
<circle cx="1123.8" cy="791.8" r="2.2" fill="#ea580c"/>
<circle cx="1161.1" cy="792.1" r="2.2" fill="#ea580c"/>
<circle cx="1198.5" cy="792.4" r="2.2" fill="#ea580c"/>
<circle cx="1235.9" cy="792.7" r="2.2" fill="#ea580c"/>
<circle cx="1273.2" cy="792.9" r="2.2" fill="#ea580c"/>
<circle cx="1310.5" cy="793.1" r="2.2" fill="#ea580c"/>
<circle cx="1347.9" cy="793.2" r="2.2" fill="#ea580c"/>
<circle cx="1385.2" cy="793.4" r="2.2" fill="#ea580c"/>
<circle cx="1422.6" cy="793.5" r="2.2" fill="#ea580c"/>
<circle cx="1460.0" cy="793.6" r="2.2" fill="#ea580c"/>
<circle cx="1497.3" cy="793.7" r="2.2" fill="#ea580c"/>
<circle cx="1534.6" cy="793.8" r="2.2" fill="#ea580c"/>
<circle cx="1572.0" cy="793.8" r="2.2" fill="#ea580c"/>
</g>
</svg>
