<?xml version="1.0" encoding="UTF-8"?>
<svg xmlns="http://www.w3.org/2000/svg" width="1600" height="900" viewBox="0 0 1600 900" role="img" aria-labelledby="title desc">
<title id="title">Learning-rate sweep (completed subset) by training step</title>
<desc id="desc">Loss by training step, with solid training curves and dashed validation curves.</desc>
<rect width="100%" height="100%" fill="#ffffff"/>
<style>text{font-family:ui-sans-serif,system-ui,sans-serif;fill:#334155}.grid{stroke:#e2e8f0;stroke-width:1}.axis{stroke:#64748b;stroke-width:1.2}.curve{fill:none;stroke-linejoin:round;stroke-linecap:round}.tick{font-size:12px}.legend{font-size:12px}.label{font-size:14px}.heading{font-size:20px;font-weight:600;fill:#0f172a}</style>
<clipPath id="plot-area"><rect x="78.0" y="98.0" width="1494.0" height="732.0"/></clipPath>
<text class="heading" x="78.0" y="32">Learning-rate sweep (completed subset) by training step</text>
<line x1="78.0" y1="54.0" x2="103.0" y2="54.0" stroke="#2563eb" stroke-width="2"/>
<text class="legend" x="109.0" y="58.0">lr_1e-04 train</text>
<line x1="451.5" y1="54.0" x2="476.5" y2="54.0" stroke="#2563eb" stroke-width="2" stroke-dasharray="7 4"/>
<text class="legend" x="482.5" y="58.0">lr_1e-04 val</text>
<line x1="825.0" y1="54.0" x2="850.0" y2="54.0" stroke="#dc2626" stroke-width="2"/>
<text class="legend" x="856.0" y="58.0">lr_3e-04 train</text>
<line x1="1198.5" y1="54.0" x2="1223.5" y2="54.0" stroke="#dc2626" stroke-width="2" stroke-dasharray="7 4"/>
<text class="legend" x="1229.5" y="58.0">lr_3e-04 val</text>
<line x1="78.0" y1="74.0" x2="103.0" y2="74.0" stroke="#059669" stroke-width="2"/>
<text class="legend" x="109.0" y="78.0">lr_1e-03 train</text>
<line x1="451.5" y1="74.0" x2="476.5" y2="74.0" stroke="#059669" stroke-width="2" stroke-dasharray="7 4"/>
<text class="legend" x="482.5" y="78.0">lr_1e-03 val</text>
<line x1="825.0" y1="74.0" x2="850.0" y2="74.0" stroke="#9333ea" stroke-width="2"/>
<text class="legend" x="856.0" y="78.0">lr_3e-02 train</text>
<line x1="1198.5" y1="74.0" x2="1223.5" y2="74.0" stroke="#9333ea" stroke-width="2" stroke-dasharray="7 4"/>
<text class="legend" x="1229.5" y="78.0">lr_3e-02 val</text>
<line class="grid" x1="78.0" y1="98.0" x2="78.0" y2="830.0"/>
<text class="tick" x="78.0" y="853.0" text-anchor="middle">0</text>
<line class="grid" x1="376.8" y1="98.0" x2="376.8" y2="830.0"/>
<text class="tick" x="376.8" y="853.0" text-anchor="middle">300</text>
<line class="grid" x1="675.6" y1="98.0" x2="675.6" y2="830.0"/>
<text class="tick" x="675.6" y="853.0" text-anchor="middle">600</text>
<line class="grid" x1="974.4" y1="98.0" x2="974.4" y2="830.0"/>
<text class="tick" x="974.4" y="853.0" text-anchor="middle">900</text>
<line class="grid" x1="1273.2" y1="98.0" x2="1273.2" y2="830.0"/>
<text class="tick" x="1273.2" y="853.0" text-anchor="middle">1200</text>
<line class="grid" x1="1572.0" y1="98.0" x2="1572.0" y2="830.0"/>
<text class="tick" x="1572.0" y="853.0" text-anchor="middle">1500</text>
<line class="grid" x1="78.0" y1="98.0" x2="1572.0" y2="98.0"/>
<text class="tick" x="67.0" y="102.0" text-anchor="end">9.64</text>
<line class="grid" x1="78.0" y1="244.4" x2="1572.0" y2="244.4"/>
<text class="tick" x="67.0" y="248.4" text-anchor="end">7.97</text>
<line class="grid" x1="78.0" y1="390.8" x2="1572.0" y2="390.8"/>
<text class="tick" x="67.0" y="394.8" text-anchor="end">6.31</text>
<line class="grid" x1="78.0" y1="537.2" x2="1572.0" y2="537.2"/>
<text class="tick" x="67.0" y="541.2" text-anchor="end">4.64</text>
<line class="grid" x1="78.0" y1="683.6" x2="1572.0" y2="683.6"/>
<text class="tick" x="67.0" y="687.6" text-anchor="end">2.97</text>
<line class="grid" x1="78.0" y1="830.0" x2="1572.0" y2="830.0"/>
<text class="tick" x="67.0" y="834.0" text-anchor="end">1.31</text>
<line class="axis" x1="78.0" y1="830.0" x2="1572.0" y2="830.0"/>
<line class="axis" x1="78.0" y1="98.0" x2="78.0" y2="830.0"/>
<text class="label" x="825.0" y="880.0" text-anchor="middle">step</text>
<text class="label" x="20" y="464.0" text-anchor="middle" transform="rotate(-90 20 464.0)">loss</text>
<g clip-path="url(#plot-area)">
<polyline class="curve" points="79.0,131.3 88.0,135.8 97.9,150.5 107.9,175.4 117.8,208.1 127.8,246.1 137.8,280.5 147.7,319.8 157.7,360.7 167.6,398.6 177.6,440.4 187.6,475.5 197.5,500.4 207.5,523.2 217.4,538.0 227.4,554.7 237.4,568.8 247.3,579.3 257.3,590.3 267.2,596.6 277.2,596.6 287.2,609.4 297.1,618.7 307.1,613.8 317.0,619.4 327.0,632.0 337.0,629.8 346.9,635.3 356.9,636.7 366.8,644.5 376.8,648.8 386.8,654.4 396.7,650.4 406.7,656.7 416.6,658.5 426.6,650.9 436.6,660.1 446.5,655.1 456.5,662.4 466.4,661.3 476.4,669.4 486.4,663.8 496.3,668.5 506.3,669.5 516.2,672.7 526.2,675.1 536.2,675.4 546.1,674.6 556.1,674.3 566.0,679.7 576.0,681.6 586.0,677.7 595.9,684.4 605.9,685.8 615.8,685.6 625.8,687.9 635.8,690.4 645.7,692.8 655.7,692.1 665.6,686.9 675.6,693.9 685.6,692.5 695.5,697.5 705.5,692.4 715.4,695.3 725.4,699.0 735.4,700.0 745.3,699.1 755.3,697.2 765.2,699.9 775.2,698.3 785.2,693.3 795.1,700.6 805.1,701.1 815.0,698.2 825.0,698.7 835.0,700.0 844.9,699.9 854.9,703.8 864.8,702.3 874.8,701.0 884.8,706.4 894.7,705.7 904.7,704.4 914.6,704.9 924.6,701.9 934.6,705.9 944.5,703.3 954.5,706.3 964.4,703.9 974.4,709.0 984.4,707.2 994.3,703.1 1004.3,700.4 1014.2,705.6 1024.2,707.4 1034.2,711.1 1044.1,709.8 1054.1,708.2 1064.0,711.0 1074.0,705.3 1084.0,710.1 1093.9,713.6 1103.9,706.1 1113.8,708.5 1123.8,707.9 1133.8,711.1 1143.7,709.7 1153.7,714.9 1163.6,717.4 1173.6,711.6 1183.6,715.5 1193.5,716.0 1203.5,706.8 1213.4,715.0 1223.4,707.4 1233.4,715.8 1243.3,708.2 1253.3,712.3 1263.2,715.2 1273.2,707.0 1283.2,714.7 1293.1,710.7 1303.1,712.7 1313.0,712.0 1323.0,716.4 1333.0,711.9 1342.9,710.3 1352.9,714.2 1362.8,711.5 1372.8,716.1 1382.8,708.3 1392.7,714.2 1402.7,715.1 1412.6,711.4 1422.6,710.9 1432.6,715.3 1442.5,716.3 1452.5,713.5 1462.4,712.1 1472.4,717.1 1482.4,714.9 1492.3,718.5 1502.3,717.1 1512.2,713.5 1522.2,714.7 1532.2,720.6 1542.1,710.0 1552.1,717.4 1562.0,710.1 1572.0,714.1" stroke="#2563eb" stroke-width="1.7" opacity="0.78"/>
<polyline class="curve" points="78.0,131.3 327.0,628.5 576.0,681.8 825.0,701.2 1074.0,710.5 1323.0,715.0 1572.0,717.1" stroke="#2563eb" stroke-width="2.4" stroke-dasharray="7 4"/>
<circle cx="78.0" cy="131.3" r="2.2" fill="#2563eb"/>
<circle cx="327.0" cy="628.5" r="2.2" fill="#2563eb"/>
<circle cx="576.0" cy="681.8" r="2.2" fill="#2563eb"/>
<circle cx="825.0" cy="701.2" r="2.2" fill="#2563eb"/>
<circle cx="1074.0" cy="710.5" r="2.2" fill="#2563eb"/>
<circle cx="1323.0" cy="715.0" r="2.2" fill="#2563eb"/>
<circle cx="1572.0" cy="717.1" r="2.2" fill="#2563eb"/>
<polyline class="curve" points="79.0,131.3 88.0,143.9 97.9,185.6 107.9,244.1 117.8,303.6 127.8,374.1 137.8,435.5 147.7,489.3 157.7,528.9 167.6,555.3 177.6,585.4 187.6,603.9 197.5,614.2 207.5,626.9 217.4,633.3 227.4,645.9 237.4,652.3 247.3,658.8 257.3,665.9 267.2,669.0 277.2,667.3 287.2,678.4 297.1,683.4 307.1,678.7 317.0,682.8 327.0,693.7 337.0,691.0 346.9,695.0 356.9,694.7 366.8,701.5 376.8,706.4 386.8,709.5 396.7,705.4 406.7,709.3 416.6,712.8 426.6,704.1 436.6,712.9 446.5,706.2 456.5,712.8 466.4,712.5 476.4,719.6 486.4,712.4 496.3,719.6 506.3,718.7 516.2,721.7 526.2,724.1 536.2,724.0 546.1,721.4 556.1,722.4 566.0,727.5 576.0,728.5 586.0,724.9 595.9,729.5 605.9,730.7 615.8,731.6 625.8,734.1 635.8,735.7 645.7,739.2 655.7,737.8 665.6,732.2 675.6,739.0 685.6,737.1 695.5,742.8 705.5,737.6 715.4,738.7 725.4,744.2 735.4,744.4 745.3,743.4 755.3,742.1 765.2,743.9 775.2,742.2 785.2,737.9 795.1,744.5 805.1,745.3 815.0,742.1 825.0,742.6 835.0,744.2 844.9,744.3 854.9,747.5 864.8,745.3 874.8,745.4 884.8,750.1 894.7,749.8 904.7,747.9 914.6,749.7 924.6,744.7 934.6,749.6 944.5,746.9 954.5,749.7 964.4,748.1 974.4,753.7 984.4,750.5 994.3,747.4 1004.3,743.0 1014.2,748.7 1024.2,752.3 1034.2,754.9 1044.1,754.1 1054.1,752.0 1064.0,753.7 1074.0,750.3 1084.0,753.6 1093.9,757.1 1103.9,750.3 1113.8,753.0 1123.8,752.0 1133.8,755.1 1143.7,753.5 1153.7,759.0 1163.6,761.8 1173.6,755.4 1183.6,760.2 1193.5,760.5 1203.5,752.4 1213.4,757.7 1223.4,751.9 1233.4,760.4 1243.3,752.2 1253.3,757.9 1263.2,759.7 1273.2,751.4 1283.2,758.1 1293.1,756.2 1303.1,757.3 1313.0,757.1 1323.0,759.8 1333.0,756.6 1342.9,755.3 1352.9,759.7 1362.8,755.9 1372.8,761.0 1382.8,752.8 1392.7,759.6 1402.7,759.0 1412.6,755.9 1422.6,755.0 1432.6,759.6 1442.5,761.1 1452.5,757.6 1462.4,756.9 1472.4,760.7 1482.4,759.4 1492.3,762.7 1502.3,761.2 1512.2,759.4 1522.2,759.7 1532.2,763.8 1542.1,756.0 1552.1,762.1 1562.0,755.0 1572.0,759.1" stroke="#dc2626" stroke-width="1.7" opacity="0.78"/>
<polyline class="curve" points="78.0,131.3 327.0,690.7 576.0,729.0 825.0,745.1 1074.0,754.5 1323.0,759.4 1572.0,761.8" stroke="#dc2626" stroke-width="2.4" stroke-dasharray="7 4"/>
<circle cx="78.0" cy="131.3" r="2.2" fill="#dc2626"/>
<circle cx="327.0" cy="690.7" r="2.2" fill="#dc2626"/>
<circle cx="576.0" cy="729.0" r="2.2" fill="#dc2626"/>
<circle cx="825.0" cy="745.1" r="2.2" fill="#dc2626"/>
<circle cx="1074.0" cy="754.5" r="2.2" fill="#dc2626"/>
<circle cx="1323.0" cy="759.4" r="2.2" fill="#dc2626"/>
<circle cx="1572.0" cy="761.8" r="2.2" fill="#dc2626"/>
<polyline class="curve" points="79.0,131.3 88.0,170.1 97.9,268.8 107.9,385.1 117.8,479.4 127.8,545.9 137.8,579.7 147.7,605.2 157.7,623.6 167.6,634.7 177.6,655.4 187.6,667.3 197.5,675.3 207.5,684.9 217.4,688.7 227.4,699.8 237.4,704.8 247.3,708.9 257.3,714.1 267.2,715.7 277.2,713.2 287.2,723.7 297.1,726.5 307.1,722.2 317.0,725.2 327.0,735.7 337.0,732.3 346.9,736.0 356.9,734.7 366.8,741.3 376.8,746.5 386.8,748.5 396.7,744.8 406.7,748.3 416.6,750.9 426.6,743.1 436.6,751.1 446.5,745.7 456.5,752.0 466.4,750.4 476.4,757.7 486.4,751.2 496.3,758.4 506.3,757.0 516.2,759.3 526.2,763.1 536.2,761.9 546.1,758.6 556.1,761.4 566.0,765.1 576.0,765.4 586.0,762.9 595.9,765.0 605.9,767.8 615.8,768.2 625.8,769.6 635.8,771.8 645.7,775.8 655.7,774.8 665.6,768.0 675.6,774.4 685.6,773.1 695.5,778.7 705.5,774.2 715.4,773.4 725.4,780.1 735.4,779.4 745.3,779.5 755.3,779.3 765.2,779.3 775.2,777.0 785.2,772.8 795.1,780.6 805.1,780.2 815.0,776.8 825.0,777.4 835.0,779.2 844.9,778.6 854.9,781.3 864.8,780.8 874.8,779.7 884.8,785.3 894.7,784.0 904.7,781.2 914.6,782.7 924.6,778.3 934.6,784.1 944.5,780.9 954.5,783.0 964.4,783.1 974.4,788.0 984.4,784.8 994.3,782.2 1004.3,777.4 1014.2,781.8 1024.2,786.8 1034.2,788.6 1044.1,787.8 1054.1,787.2 1064.0,786.9 1074.0,784.6 1084.0,785.5 1093.9,789.0 1103.9,785.4 1113.8,787.4 1123.8,785.8 1133.8,788.6 1143.7,787.3 1153.7,792.0 1163.6,794.9 1173.6,788.4 1183.6,793.1 1193.5,793.3 1203.5,787.6 1213.4,790.9 1223.4,786.2 1233.4,793.7 1243.3,785.9 1253.3,790.8 1263.2,792.7 1273.2,785.4 1283.2,791.9 1293.1,790.8 1303.1,791.4 1313.0,790.2 1323.0,792.8 1333.0,789.7 1342.9,789.3 1352.9,793.4 1362.8,791.2 1372.8,794.5 1382.8,786.4 1392.7,792.6 1402.7,793.2 1412.6,789.6 1422.6,789.1 1432.6,792.9 1442.5,794.9 1452.5,791.9 1462.4,790.7 1472.4,795.8 1482.4,792.1 1492.3,796.0 1502.3,794.9 1512.2,792.4 1522.2,793.2 1532.2,796.7 1542.1,790.5 1552.1,794.7 1562.0,789.7 1572.0,792.9" stroke="#059669" stroke-width="1.7" opacity="0.78"/>
<polyline class="curve" points="78.0,131.3 327.0,732.8 576.0,766.0 825.0,779.6 1074.0,787.8 1323.0,792.8 1572.0,795.2" stroke="#059669" stroke-width="2.4" stroke-dasharray="7 4"/>
<circle cx="78.0" cy="131.3" r="2.2" fill="#059669"/>
<circle cx="327.0" cy="732.8" r="2.2" fill="#059669"/>
<circle cx="576.0" cy="766.0" r="2.2" fill="#059669"/>
<circle cx="825.0" cy="779.6" r="2.2" fill="#059669"/>
<circle cx="1074.0" cy="787.8" r="2.2" fill="#059669"/>
<circle cx="1323.0" cy="792.8" r="2.2" fill="#059669"/>
<circle cx="1572.0" cy="795.2" r="2.2" fill="#059669"/>
<polyline class="curve" points="79.0,131.3 88.0,323.3 97.9,514.5 107.9,550.0 117.8,561.4 127.8,588.7 137.8,597.3 147.7,614.3 157.7,617.7 167.6,618.2 177.6,619.4 187.6,602.8 197.5,613.9 207.5,614.1 217.4,602.2 227.4,590.5 237.4,604.0 247.3,596.2 257.3,594.0 267.2,591.7 277.2,555.0 287.2,576.7 297.1,583.5 307.1,571.8 317.0,580.8 327.0,557.2 337.0,546.9 346.9,521.6 356.9,550.8 366.8,559.3 376.8,565.1 386.8,575.7 396.7,568.9 406.7,551.5 416.6,545.8 426.6,544.8 436.6,551.9 446.5,543.1 456.5,559.2 466.4,557.0 476.4,563.5 486.4,550.7 496.3,526.9 506.3,531.5 516.2,536.1 526.2,545.9 536.2,553.8 546.1,564.6 556.1,553.8 566.0,564.8 576.0,573.6 586.0,570.0 595.9,576.1 605.9,566.5 615.8,566.3 625.8,572.5 635.8,576.9 645.7,576.6 655.7,567.4 665.6,564.4 675.6,574.7 685.6,572.1 695.5,583.1 705.5,579.0 715.4,580.7 725.4,585.9 735.4,593.0 745.3,593.3 755.3,588.8 765.2,598.3 775.2,601.4 785.2,595.3 795.1,602.6 805.1,608.4 815.0,608.9 825.0,614.6 835.0,618.2 844.9,620.9 854.9,628.7 864.8,629.0 874.8,628.8 884.8,632.5 894.7,633.3 904.7,633.9 914.6,636.2 924.6,636.8 934.6,640.9 944.5,637.6 954.5,641.9 964.4,644.0 974.4,649.6 984.4,650.1 994.3,645.1 1004.3,643.8 1014.2,651.6 1024.2,654.3 1034.2,659.5 1044.1,659.8 1054.1,659.9 1064.0,663.5 1074.0,658.2 1084.0,663.7 1093.9,668.5 1103.9,662.6 1113.8,666.3 1123.8,665.7 1133.8,671.4 1143.7,669.0 1153.7,675.2 1163.6,678.4 1173.6,674.0 1183.6,678.6 1193.5,680.9 1203.5,670.5 1213.4,679.5 1223.4,674.2 1233.4,681.9 1243.3,676.6 1253.3,680.8 1263.2,685.0 1273.2,678.2 1283.2,684.7 1293.1,681.3 1303.1,685.6 1313.0,684.6 1323.0,689.9 1333.0,686.2 1342.9,685.7 1352.9,689.7 1362.8,688.5 1372.8,693.0 1382.8,685.2 1392.7,693.0 1402.7,692.6 1412.6,690.3 1422.6,690.0 1432.6,695.4 1442.5,696.5 1452.5,695.4 1462.4,693.1 1472.4,700.8 1482.4,697.0 1492.3,701.4 1502.3,700.9 1512.2,697.6 1522.2,699.3 1532.2,704.7 1542.1,695.9 1552.1,703.0 1562.0,695.8 1572.0,700.6" stroke="#9333ea" stroke-width="1.7" opacity="0.78"/>
<polyline class="curve" points="78.0,131.3 327.0,551.2 576.0,573.1 825.0,617.1 1074.0,663.8 1323.0,688.5 1572.0,703.4" stroke="#9333ea" stroke-width="2.4" stroke-dasharray="7 4"/>
<circle cx="78.0" cy="131.3" r="2.2" fill="#9333ea"/>
<circle cx="327.0" cy="551.2" r="2.2" fill="#9333ea"/>
<circle cx="576.0" cy="573.1" r="2.2" fill="#9333ea"/>
<circle cx="825.0" cy="617.1" r="2.2" fill="#9333ea"/>
<circle cx="1074.0" cy="663.8" r="2.2" fill="#9333ea"/>
<circle cx="1323.0" cy="688.5" r="2.2" fill="#9333ea"/>
<circle cx="1572.0" cy="703.4" r="2.2" fill="#9333ea"/>
</g>
</svg>
