<?xml version="1.0" encoding="UTF-8"?>
<svg xmlns="http://www.w3.org/2000/svg" width="1600" height="900" viewBox="0 0 1600 900" role="img" aria-labelledby="title desc">
<title id="title">Learning-rate sweep (completed subset) by wall-clock time</title>
<desc id="desc">Loss by elapsed wall-clock time in seconds, with solid training curves and dashed validation curves.</desc>
<rect width="100%" height="100%" fill="#ffffff"/>
<style>text{font-family:ui-sans-serif,system-ui,sans-serif;fill:#334155}.grid{stroke:#e2e8f0;stroke-width:1}.axis{stroke:#64748b;stroke-width:1.2}.curve{fill:none;stroke-linejoin:round;stroke-linecap:round}.tick{font-size:12px}.legend{font-size:12px}.label{font-size:14px}.heading{font-size:20px;font-weight:600;fill:#0f172a}</style>
<clipPath id="plot-area"><rect x="78.0" y="98.0" width="1494.0" height="732.0"/></clipPath>
<text class="heading" x="78.0" y="32">Learning-rate sweep (completed subset) by wall-clock time</text>
<line x1="78.0" y1="54.0" x2="103.0" y2="54.0" stroke="#2563eb" stroke-width="2"/>
<text class="legend" x="109.0" y="58.0">lr_1e-04 train</text>
<line x1="451.5" y1="54.0" x2="476.5" y2="54.0" stroke="#2563eb" stroke-width="2" stroke-dasharray="7 4"/>
<text class="legend" x="482.5" y="58.0">lr_1e-04 val</text>
<line x1="825.0" y1="54.0" x2="850.0" y2="54.0" stroke="#dc2626" stroke-width="2"/>
<text class="legend" x="856.0" y="58.0">lr_3e-04 train</text>
<line x1="1198.5" y1="54.0" x2="1223.5" y2="54.0" stroke="#dc2626" stroke-width="2" stroke-dasharray="7 4"/>
<text class="legend" x="1229.5" y="58.0">lr_3e-04 val</text>
<line x1="78.0" y1="74.0" x2="103.0" y2="74.0" stroke="#059669" stroke-width="2"/>
<text class="legend" x="109.0" y="78.0">lr_1e-03 train</text>
<line x1="451.5" y1="74.0" x2="476.5" y2="74.0" stroke="#059669" stroke-width="2" stroke-dasharray="7 4"/>
<text class="legend" x="482.5" y="78.0">lr_1e-03 val</text>
<line x1="825.0" y1="74.0" x2="850.0" y2="74.0" stroke="#9333ea" stroke-width="2"/>
<text class="legend" x="856.0" y="78.0">lr_3e-02 train</text>
<line x1="1198.5" y1="74.0" x2="1223.5" y2="74.0" stroke="#9333ea" stroke-width="2" stroke-dasharray="7 4"/>
<text class="legend" x="1229.5" y="78.0">lr_3e-02 val</text>
<line class="grid" x1="78.0" y1="98.0" x2="78.0" y2="830.0"/>
<text class="tick" x="78.0" y="853.0" text-anchor="middle">0</text>
<line class="grid" x1="376.8" y1="98.0" x2="376.8" y2="830.0"/>
<text class="tick" x="376.8" y="853.0" text-anchor="middle">25.9</text>
<line class="grid" x1="675.6" y1="98.0" x2="675.6" y2="830.0"/>
<text class="tick" x="675.6" y="853.0" text-anchor="middle">51.7</text>
<line class="grid" x1="974.4" y1="98.0" x2="974.4" y2="830.0"/>
<text class="tick" x="974.4" y="853.0" text-anchor="middle">77.6</text>
<line class="grid" x1="1273.2" y1="98.0" x2="1273.2" y2="830.0"/>
<text class="tick" x="1273.2" y="853.0" text-anchor="middle">103</text>
<line class="grid" x1="1572.0" y1="98.0" x2="1572.0" y2="830.0"/>
<text class="tick" x="1572.0" y="853.0" text-anchor="middle">129</text>
<line class="grid" x1="78.0" y1="98.0" x2="1572.0" y2="98.0"/>
<text class="tick" x="67.0" y="102.0" text-anchor="end">9.64</text>
<line class="grid" x1="78.0" y1="244.4" x2="1572.0" y2="244.4"/>
<text class="tick" x="67.0" y="248.4" text-anchor="end">7.97</text>
<line class="grid" x1="78.0" y1="390.8" x2="1572.0" y2="390.8"/>
<text class="tick" x="67.0" y="394.8" text-anchor="end">6.31</text>
<line class="grid" x1="78.0" y1="537.2" x2="1572.0" y2="537.2"/>
<text class="tick" x="67.0" y="541.2" text-anchor="end">4.64</text>
<line class="grid" x1="78.0" y1="683.6" x2="1572.0" y2="683.6"/>
<text class="tick" x="67.0" y="687.6" text-anchor="end">2.97</text>
<line class="grid" x1="78.0" y1="830.0" x2="1572.0" y2="830.0"/>
<text class="tick" x="67.0" y="834.0" text-anchor="end">1.31</text>
<line class="axis" x1="78.0" y1="830.0" x2="1572.0" y2="830.0"/>
<line class="axis" x1="78.0" y1="98.0" x2="78.0" y2="830.0"/>
<text class="label" x="825.0" y="880.0" text-anchor="middle">wall clock (seconds)</text>
<text class="label" x="20" y="464.0" text-anchor="middle" transform="rotate(-90 20 464.0)">loss</text>
<g clip-path="url(#plot-area)">
<polyline class="curve" points="93.6,131.3 101.9,135.8 111.2,150.5 120.7,175.4 130.0,208.1 139.4,246.1 149.0,280.5 158.4,319.8 167.7,360.7 177.1,398.6 186.3,440.4 195.6,475.5 204.8,500.4 214.1,523.2 223.5,538.0 232.6,554.7 241.9,568.8 251.1,579.3 260.5,590.3 269.7,596.6 278.9,596.6 288.0,609.4 297.1,618.7 306.5,613.8 316.1,619.4 334.9,632.0 344.4,629.8 353.6,635.3 362.7,636.7 372.0,644.5 381.2,648.8 390.4,654.4 399.9,650.4 409.1,656.7 418.3,658.5 427.4,650.9 436.7,660.1 445.9,655.1 455.2,662.4 464.4,661.3 473.7,669.4 482.8,663.8 492.2,668.5 501.6,669.5 510.9,672.7 520.1,675.1 529.3,675.4 538.5,674.6 548.3,674.3 557.8,679.7 576.5,681.6 585.8,677.7 595.2,684.4 604.8,685.8 613.9,685.6 623.1,687.9 632.4,690.4 641.8,692.8 651.1,692.1 660.3,686.9 669.7,693.9 678.8,692.5 688.1,697.5 697.2,692.4 706.7,695.3 715.9,699.0 725.1,700.0 734.5,699.1 743.8,697.2 753.1,699.9 762.3,698.3 771.7,693.3 781.7,700.6 790.8,701.1 800.5,698.2 818.6,698.7 827.8,700.0 837.5,699.9 846.7,703.8 855.9,702.3 865.3,701.0 874.5,706.4 883.8,705.7 892.8,704.4 902.1,704.9 911.5,701.9 920.9,705.9 930.0,703.3 939.0,706.3 948.3,703.9 957.4,709.0 966.8,707.2 975.9,703.1 985.2,700.4 994.4,705.6 1003.8,707.4 1013.5,711.1 1022.7,709.8 1032.3,708.2 1041.6,711.0 1059.5,705.3 1068.9,710.1 1078.2,713.6 1087.3,706.1 1096.6,708.5 1105.9,707.9 1115.4,711.1 1124.6,709.7 1133.9,714.9 1143.3,717.4 1152.5,711.6 1161.7,715.5 1170.8,716.0 1180.0,706.8 1189.2,715.0 1198.7,707.4 1208.0,715.8 1217.2,708.2 1226.5,712.3 1235.6,715.2 1244.7,707.0 1254.2,714.7 1263.4,710.7 1272.6,712.7 1281.9,712.0 1301.1,716.4 1310.3,711.9 1319.5,710.3 1329.0,714.2 1338.0,711.5 1347.2,716.1 1356.5,708.3 1365.7,714.2 1375.1,715.1 1384.2,711.4 1393.9,710.9 1403.2,715.3 1412.5,716.3 1421.6,713.5 1431.1,712.1 1440.4,717.1 1450.0,714.9 1459.3,718.5 1468.5,717.1 1477.6,713.5 1487.0,714.7 1496.2,720.6 1505.7,710.0 1514.8,717.4 1524.1,710.1 1542.4,714.1" stroke="#2563eb" stroke-width="1.7" opacity="0.78"/>
<polyline class="curve" points="78.0,131.3 334.9,628.5 576.5,681.8 818.6,701.2 1059.5,710.5 1301.1,715.0 1542.4,717.1" stroke="#2563eb" stroke-width="2.4" stroke-dasharray="7 4"/>
<circle cx="78.0" cy="131.3" r="2.2" fill="#2563eb"/>
<circle cx="334.9" cy="628.5" r="2.2" fill="#2563eb"/>
<circle cx="576.5" cy="681.8" r="2.2" fill="#2563eb"/>
<circle cx="818.6" cy="701.2" r="2.2" fill="#2563eb"/>
<circle cx="1059.5" cy="710.5" r="2.2" fill="#2563eb"/>
<circle cx="1301.1" cy="715.0" r="2.2" fill="#2563eb"/>
<circle cx="1542.4" cy="717.1" r="2.2" fill="#2563eb"/>
<polyline class="curve" points="93.1,131.3 101.7,143.9 111.1,185.6 120.3,244.1 129.8,303.6 138.9,374.1 148.6,435.5 157.7,489.3 167.0,528.9 176.3,555.3 185.4,585.4 194.6,603.9 204.2,614.2 213.5,626.9 222.9,633.3 232.1,645.9 241.3,652.3 250.4,658.8 259.6,665.9 268.8,669.0 278.1,667.3 287.4,678.4 296.6,683.4 306.2,678.7 315.6,682.8 333.1,693.7 342.3,691.0 351.7,695.0 361.1,694.7 370.3,701.5 379.6,706.4 388.9,709.5 398.5,705.4 407.9,709.3 417.4,712.8 426.6,704.1 436.2,712.9 445.7,706.2 455.5,712.8 464.7,712.5 473.8,719.6 483.0,712.4 492.3,719.6 501.7,718.7 510.8,721.7 520.0,724.1 529.4,724.0 538.7,721.4 548.0,722.4 557.1,727.5 574.7,728.5 584.2,724.9 593.5,729.5 602.7,730.7 612.0,731.6 621.4,734.1 630.8,735.7 640.0,739.2 649.3,737.8 658.5,732.2 668.0,739.0 677.3,737.1 686.6,742.8 695.7,737.6 705.0,738.7 714.3,744.2 723.4,744.4 732.7,743.4 742.4,742.1 751.8,743.9 761.1,742.2 770.2,737.9 779.5,744.5 788.6,745.3 797.9,742.1 816.3,742.6 825.6,744.2 834.7,744.3 843.9,747.5 853.3,745.3 862.8,745.4 872.1,750.1 881.4,749.8 890.5,747.9 900.3,749.7 909.7,744.7 919.3,749.6 928.6,746.9 938.1,749.7 947.5,748.1 956.8,753.7 966.1,750.5 975.5,747.4 984.8,743.0 994.0,748.7 1003.3,752.3 1012.8,754.9 1022.1,754.1 1031.3,752.0 1040.9,753.7 1058.8,750.3 1068.4,753.6 1077.7,757.1 1087.0,750.3 1096.5,753.0 1105.8,752.0 1114.9,755.1 1124.2,753.5 1133.7,759.0 1143.0,761.8 1152.2,755.4 1161.8,760.2 1171.3,760.5 1180.5,752.4 1189.7,757.7 1199.0,751.9 1208.4,760.4 1217.6,752.2 1226.9,757.9 1236.5,759.7 1245.7,751.4 1254.9,758.1 1264.4,756.2 1273.7,757.3 1282.9,757.1 1300.8,759.8 1310.1,756.6 1319.6,755.3 1328.9,759.7 1338.2,755.9 1347.5,761.0 1356.9,752.8 1366.1,759.6 1375.5,759.0 1384.7,755.9 1394.3,755.0 1403.7,759.6 1412.9,761.1 1422.2,757.6 1431.6,756.9 1441.1,760.7 1450.3,759.4 1459.5,762.7 1468.6,761.2 1478.2,759.4 1487.3,759.7 1496.7,763.8 1505.9,756.0 1515.4,762.1 1524.6,755.0 1542.1,759.1" stroke="#dc2626" stroke-width="1.7" opacity="0.78"/>
<polyline class="curve" points="78.0,131.3 333.1,690.7 574.7,729.0 816.3,745.1 1058.8,754.5 1300.8,759.4 1542.1,761.8" stroke="#dc2626" stroke-width="2.4" stroke-dasharray="7 4"/>
<circle cx="78.0" cy="131.3" r="2.2" fill="#dc2626"/>
<circle cx="333.1" cy="690.7" r="2.2" fill="#dc2626"/>
<circle cx="574.7" cy="729.0" r="2.2" fill="#dc2626"/>
<circle cx="816.3" cy="745.1" r="2.2" fill="#dc2626"/>
<circle cx="1058.8" cy="754.5" r="2.2" fill="#dc2626"/>
<circle cx="1300.8" cy="759.4" r="2.2" fill="#dc2626"/>
<circle cx="1542.1" cy="761.8" r="2.2" fill="#dc2626"/>
<polyline class="curve" points="92.2,131.3 100.6,170.1 109.8,268.8 119.0,385.1 128.4,479.4 137.7,545.9 147.0,579.7 156.3,605.2 165.4,623.6 174.7,634.7 183.9,655.4 193.1,667.3 202.5,675.3 211.7,684.9 221.0,688.7 230.2,699.8 239.4,704.8 248.7,708.9 258.0,714.1 267.3,715.7 276.6,713.2 285.9,723.7 295.4,726.5 304.8,722.2 314.1,725.2 331.8,735.7 341.1,732.3 350.4,736.0 359.8,734.7 369.1,741.3 378.3,746.5 387.5,748.5 396.7,744.8 405.9,748.3 415.2,750.9 424.4,743.1 433.5,751.1 442.8,745.7 452.2,752.0 461.5,750.4 470.9,757.7 480.5,751.2 489.7,758.4 499.0,757.0 508.3,759.3 517.4,763.1 526.9,761.9 536.4,758.6 546.1,761.4 555.6,765.1 572.8,765.4 581.9,762.9 591.4,765.0 600.9,767.8 610.3,768.2 619.5,769.6 628.8,771.8 637.9,775.8 647.3,774.8 656.3,768.0 665.6,774.4 675.0,773.1 684.2,778.7 693.5,774.2 702.5,773.4 712.0,780.1 721.1,779.4 730.3,779.5 739.6,779.3 748.6,779.3 757.9,777.0 767.2,772.8 776.4,780.6 785.7,780.2 795.0,776.8 813.0,777.4 822.3,779.2 831.6,778.6 840.8,781.3 849.9,780.8 859.2,779.7 868.4,785.3 877.8,784.0 887.1,781.2 896.5,782.7 905.7,778.3 915.3,784.1 924.8,780.9 934.0,783.0 943.3,783.1 952.7,788.0 961.9,784.8 971.2,782.2 980.4,777.4 989.6,781.8 998.9,786.8 1008.5,788.6 1017.8,787.8 1027.6,787.2 1036.9,786.9 1055.5,784.6 1064.8,785.5 1074.2,789.0 1083.4,785.4 1092.6,787.4 1101.8,785.8 1111.1,788.6 1120.3,787.3 1129.5,792.0 1138.7,794.9 1148.2,788.4 1157.6,793.1 1166.8,793.3 1175.9,787.6 1185.1,790.9 1194.5,786.2 1203.6,793.7 1212.9,785.9 1222.1,790.8 1231.2,792.7 1240.6,785.4 1250.0,791.9 1259.3,790.8 1269.3,791.4 1278.5,790.2 1296.6,792.8 1306.0,789.7 1315.1,789.3 1324.3,793.4 1333.6,791.2 1343.0,794.5 1352.2,786.4 1361.4,792.6 1370.6,793.2 1380.0,789.6 1389.1,789.1 1398.6,792.9 1407.8,794.9 1417.1,791.9 1426.3,790.7 1435.5,795.8 1444.9,792.1 1454.1,796.0 1463.3,794.9 1472.9,792.4 1482.3,793.2 1491.5,796.7 1501.1,790.5 1510.7,794.7 1519.8,789.7 1537.2,792.9" stroke="#059669" stroke-width="1.7" opacity="0.78"/>
<polyline class="curve" points="78.0,131.3 331.8,732.8 572.8,766.0 813.0,779.6 1055.5,787.8 1296.6,792.8 1537.2,795.2" stroke="#059669" stroke-width="2.4" stroke-dasharray="7 4"/>
<circle cx="78.0" cy="131.3" r="2.2" fill="#059669"/>
<circle cx="331.8" cy="732.8" r="2.2" fill="#059669"/>
<circle cx="572.8" cy="766.0" r="2.2" fill="#059669"/>
<circle cx="813.0" cy="779.6" r="2.2" fill="#059669"/>
<circle cx="1055.5" cy="787.8" r="2.2" fill="#059669"/>
<circle cx="1296.6" cy="792.8" r="2.2" fill="#059669"/>
<circle cx="1537.2" cy="795.2" r="2.2" fill="#059669"/>
<polyline class="curve" points="94.2,131.3 102.7,323.3 111.9,514.5 121.1,550.0 130.4,561.4 139.9,588.7 149.8,597.3 159.8,614.3 169.9,617.7 179.4,618.2 188.9,619.4 198.2,602.8 207.7,613.9 217.1,614.1 226.5,602.2 235.9,590.5 245.7,604.0 255.1,596.2 264.4,594.0 273.8,591.7 283.2,555.0 292.5,576.7 301.9,583.5 311.3,571.8 320.7,580.8 338.6,557.2 347.9,546.9 357.3,521.6 366.7,550.8 376.3,559.3 385.6,565.1 394.9,575.7 404.3,568.9 413.9,551.5 423.2,545.8 432.6,544.8 441.9,551.9 451.2,543.1 460.6,559.2 469.9,557.0 479.3,563.5 488.6,550.7 498.0,526.9 507.7,531.5 517.6,536.1 527.0,545.9 536.4,553.8 545.9,564.6 555.5,553.8 564.8,564.8 582.7,573.6 592.1,570.0 601.8,576.1 611.4,566.5 620.7,566.3 630.1,572.5 639.5,576.9 649.1,576.6 658.5,567.4 668.0,564.4 677.4,574.7 686.8,572.1 696.1,583.1 705.7,579.0 715.0,580.7 724.4,585.9 734.0,593.0 743.3,593.3 752.8,588.8 762.2,598.3 771.9,601.4 781.4,595.3 790.9,602.6 800.4,608.4 809.7,608.9 827.7,614.6 837.2,618.2 846.6,620.9 855.9,628.7 865.2,629.0 874.8,628.8 884.2,632.5 893.5,633.3 903.1,633.9 913.3,636.2 922.7,636.8 932.3,640.9 941.7,637.6 951.2,641.9 960.6,644.0 970.3,649.6 979.8,650.1 989.3,645.1 998.8,643.8 1008.4,651.6 1017.8,654.3 1027.2,659.5 1036.6,659.8 1046.0,659.9 1055.8,663.5 1074.5,658.2 1084.0,663.7 1093.4,668.5 1102.8,662.6 1112.5,666.3 1122.1,665.7 1131.7,671.4 1141.1,669.0 1150.8,675.2 1160.3,678.4 1169.9,674.0 1179.6,678.6 1189.0,680.9 1198.4,670.5 1208.0,679.5 1217.4,674.2 1227.4,681.9 1237.0,676.6 1246.7,680.8 1256.2,685.0 1265.8,678.2 1275.4,684.7 1285.3,681.3 1294.9,685.6 1304.6,684.6 1322.4,689.9 1332.1,686.2 1341.9,685.7 1351.4,689.7 1361.5,688.5 1371.4,693.0 1381.3,685.2 1391.1,693.0 1400.5,692.6 1410.0,690.3 1419.5,690.0 1429.0,695.4 1438.4,696.5 1447.8,695.4 1457.3,693.1 1467.1,700.8 1476.5,697.0 1486.2,701.4 1495.6,700.9 1505.5,697.6 1515.0,699.3 1524.5,704.7 1534.7,695.9 1544.2,703.0 1553.7,695.8 1572.0,700.6" stroke="#9333ea" stroke-width="1.7" opacity="0.78"/>
<polyline class="curve" points="78.0,131.3 338.6,551.2 582.7,573.1 827.7,617.1 1074.5,663.8 1322.4,688.5 1572.0,703.4" stroke="#9333ea" stroke-width="2.4" stroke-dasharray="7 4"/>
<circle cx="78.0" cy="131.3" r="2.2" fill="#9333ea"/>
<circle cx="338.6" cy="551.2" r="2.2" fill="#9333ea"/>
<circle cx="582.7" cy="573.1" r="2.2" fill="#9333ea"/>
<circle cx="827.7" cy="617.1" r="2.2" fill="#9333ea"/>
<circle cx="1074.5" cy="663.8" r="2.2" fill="#9333ea"/>
<circle cx="1322.4" cy="688.5" r="2.2" fill="#9333ea"/>
<circle cx="1572.0" cy="703.4" r="2.2" fill="#9333ea"/>
</g>
</svg>
