<?xml version="1.0" encoding="UTF-8"?>
<svg xmlns="http://www.w3.org/2000/svg" width="1600" height="900" viewBox="0 0 1600 900" role="img" aria-labelledby="title desc">
<title id="title">Full learning-rate sweep, including divergence</title>
<desc id="desc">Loss by training step, with solid training curves and dashed validation curves.</desc>
<rect width="100%" height="100%" fill="#ffffff"/>
<style>text{font-family:ui-sans-serif,system-ui,sans-serif;fill:#334155}.grid{stroke:#e2e8f0;stroke-width:1}.axis{stroke:#64748b;stroke-width:1.2}.curve{fill:none;stroke-linejoin:round;stroke-linecap:round}.tick{font-size:12px}.legend{font-size:12px}.label{font-size:14px}.heading{font-size:20px;font-weight:600;fill:#0f172a}</style>
<clipPath id="plot-area"><rect x="78.0" y="138.0" width="1494.0" height="692.0"/></clipPath>
<text class="heading" x="78.0" y="32">Full learning-rate sweep, including divergence</text>
<line x1="78.0" y1="54.0" x2="103.0" y2="54.0" stroke="#2563eb" stroke-width="2"/>
<text class="legend" x="109.0" y="58.0">lr_1e-04 train</text>
<line x1="451.5" y1="54.0" x2="476.5" y2="54.0" stroke="#2563eb" stroke-width="2" stroke-dasharray="7 4"/>
<text class="legend" x="482.5" y="58.0">lr_1e-04 val</text>
<line x1="825.0" y1="54.0" x2="850.0" y2="54.0" stroke="#dc2626" stroke-width="2"/>
<text class="legend" x="856.0" y="58.0">lr_3e-04 train</text>
<line x1="1198.5" y1="54.0" x2="1223.5" y2="54.0" stroke="#dc2626" stroke-width="2" stroke-dasharray="7 4"/>
<text class="legend" x="1229.5" y="58.0">lr_3e-04 val</text>
<line x1="78.0" y1="74.0" x2="103.0" y2="74.0" stroke="#059669" stroke-width="2"/>
<text class="legend" x="109.0" y="78.0">lr_1e-03 train</text>
<line x1="451.5" y1="74.0" x2="476.5" y2="74.0" stroke="#059669" stroke-width="2" stroke-dasharray="7 4"/>
<text class="legend" x="482.5" y="78.0">lr_1e-03 val</text>
<line x1="825.0" y1="74.0" x2="850.0" y2="74.0" stroke="#9333ea" stroke-width="2"/>
<text class="legend" x="856.0" y="78.0">lr_3e-02 train</text>
<line x1="1198.5" y1="74.0" x2="1223.5" y2="74.0" stroke="#9333ea" stroke-width="2" stroke-dasharray="7 4"/>
<text class="legend" x="1229.5" y="78.0">lr_3e-02 val</text>
<line x1="78.0" y1="94.0" x2="103.0" y2="94.0" stroke="#ea580c" stroke-width="2"/>
<text class="legend" x="109.0" y="98.0">lr_1e-01 train</text>
<line x1="451.5" y1="94.0" x2="476.5" y2="94.0" stroke="#ea580c" stroke-width="2" stroke-dasharray="7 4"/>
<text class="legend" x="482.5" y="98.0">lr_1e-01 val</text>
<line x1="825.0" y1="94.0" x2="850.0" y2="94.0" stroke="#0891b2" stroke-width="2"/>
<text class="legend" x="856.0" y="98.0">lr_3e-01 train</text>
<line x1="1198.5" y1="94.0" x2="1223.5" y2="94.0" stroke="#0891b2" stroke-width="2" stroke-dasharray="7 4"/>
<text class="legend" x="1229.5" y="98.0">lr_3e-01 val</text>
<line x1="78.0" y1="114.0" x2="103.0" y2="114.0" stroke="#4f46e5" stroke-width="2"/>
<text class="legend" x="109.0" y="118.0">lr_1e00 train</text>
<line x1="451.5" y1="114.0" x2="476.5" y2="114.0" stroke="#4f46e5" stroke-width="2" stroke-dasharray="7 4"/>
<text class="legend" x="482.5" y="118.0">lr_1e00 val</text>
<line x1="825.0" y1="114.0" x2="850.0" y2="114.0" stroke="#be123c" stroke-width="2"/>
<text class="legend" x="856.0" y="118.0">lr_3e01 train</text>
<line x1="1198.5" y1="114.0" x2="1223.5" y2="114.0" stroke="#be123c" stroke-width="2" stroke-dasharray="7 4"/>
<text class="legend" x="1229.5" y="118.0">lr_3e01 val</text>
<line class="grid" x1="78.0" y1="138.0" x2="78.0" y2="830.0"/>
<text class="tick" x="78.0" y="853.0" text-anchor="middle">0</text>
<line class="grid" x1="376.8" y1="138.0" x2="376.8" y2="830.0"/>
<text class="tick" x="376.8" y="853.0" text-anchor="middle">300</text>
<line class="grid" x1="675.6" y1="138.0" x2="675.6" y2="830.0"/>
<text class="tick" x="675.6" y="853.0" text-anchor="middle">600</text>
<line class="grid" x1="974.4" y1="138.0" x2="974.4" y2="830.0"/>
<text class="tick" x="974.4" y="853.0" text-anchor="middle">900</text>
<line class="grid" x1="1273.2" y1="138.0" x2="1273.2" y2="830.0"/>
<text class="tick" x="1273.2" y="853.0" text-anchor="middle">1200</text>
<line class="grid" x1="1572.0" y1="138.0" x2="1572.0" y2="830.0"/>
<text class="tick" x="1572.0" y="853.0" text-anchor="middle">1500</text>
<line class="grid" x1="78.0" y1="138.0" x2="1572.0" y2="138.0"/>
<text class="tick" x="67.0" y="142.0" text-anchor="end">701</text>
<line class="grid" x1="78.0" y1="276.4" x2="1572.0" y2="276.4"/>
<text class="tick" x="67.0" y="280.4" text-anchor="end">555</text>
<line class="grid" x1="78.0" y1="414.8" x2="1572.0" y2="414.8"/>
<text class="tick" x="67.0" y="418.8" text-anchor="end">408</text>
<line class="grid" x1="78.0" y1="553.2" x2="1572.0" y2="553.2"/>
<text class="tick" x="67.0" y="557.2" text-anchor="end">262</text>
<line class="grid" x1="78.0" y1="691.6" x2="1572.0" y2="691.6"/>
<text class="tick" x="67.0" y="695.6" text-anchor="end">115</text>
<line class="grid" x1="78.0" y1="830.0" x2="1572.0" y2="830.0"/>
<text class="tick" x="67.0" y="834.0" text-anchor="end">-31.6</text>
<line class="axis" x1="78.0" y1="830.0" x2="1572.0" y2="830.0"/>
<line class="axis" x1="78.0" y1="138.0" x2="78.0" y2="830.0"/>
<text class="label" x="825.0" y="880.0" text-anchor="middle">step</text>
<text class="label" x="20" y="484.0" text-anchor="middle" transform="rotate(-90 20 484.0)">loss</text>
<g clip-path="url(#plot-area)">
<polyline class="curve" points="79.0,791.4 88.0,791.4 97.9,791.6 107.9,791.9 117.8,792.2 127.8,792.6 137.8,793.0 147.7,793.4 157.7,793.9 167.6,794.3 177.6,794.7 187.6,795.1 197.5,795.4 207.5,795.6 217.4,795.8 227.4,795.9 237.4,796.1 247.3,796.2 257.3,796.3 267.2,796.4 277.2,796.4 287.2,796.5 297.1,796.6 307.1,796.6 317.0,796.6 327.0,796.8 337.0,796.8 346.9,796.8 356.9,796.8 366.8,796.9 376.8,797.0 386.8,797.0 396.7,797.0 406.7,797.0 416.6,797.1 426.6,797.0 436.6,797.1 446.5,797.0 456.5,797.1 466.4,797.1 476.4,797.2 486.4,797.1 496.3,797.2 506.3,797.2 516.2,797.2 526.2,797.2 536.2,797.2 546.1,797.2 556.1,797.2 566.0,797.3 576.0,797.3 586.0,797.3 595.9,797.3 605.9,797.4 615.8,797.4 625.8,797.4 635.8,797.4 645.7,797.4 655.7,797.4 665.6,797.4 675.6,797.4 685.6,797.4 695.5,797.5 705.5,797.4 715.4,797.5 725.4,797.5 735.4,797.5 745.3,797.5 755.3,797.5 765.2,797.5 775.2,797.5 785.2,797.4 795.1,797.5 805.1,797.5 815.0,797.5 825.0,797.5 835.0,797.5 844.9,797.5 854.9,797.5 864.8,797.5 874.8,797.5 884.8,797.6 894.7,797.6 904.7,797.6 914.6,797.6 924.6,797.5 934.6,797.6 944.5,797.5 954.5,797.6 964.4,797.5 974.4,797.6 984.4,797.6 994.3,797.5 1004.3,797.5 1014.2,797.6 1024.2,797.6 1034.2,797.6 1044.1,797.6 1054.1,797.6 1064.0,797.6 1074.0,797.6 1084.0,797.6 1093.9,797.7 1103.9,797.6 1113.8,797.6 1123.8,797.6 1133.8,797.6 1143.7,797.6 1153.7,797.7 1163.6,797.7 1173.6,797.6 1183.6,797.7 1193.5,797.7 1203.5,797.6 1213.4,797.7 1223.4,797.6 1233.4,797.7 1243.3,797.6 1253.3,797.6 1263.2,797.7 1273.2,797.6 1283.2,797.7 1293.1,797.6 1303.1,797.6 1313.0,797.6 1323.0,797.7 1333.0,797.6 1342.9,797.6 1352.9,797.7 1362.8,797.6 1372.8,797.7 1382.8,797.6 1392.7,797.7 1402.7,797.7 1412.6,797.6 1422.6,797.6 1432.6,797.7 1442.5,797.7 1452.5,797.7 1462.4,797.6 1472.4,797.7 1482.4,797.7 1492.3,797.7 1502.3,797.7 1512.2,797.7 1522.2,797.7 1532.2,797.7 1542.1,797.6 1552.1,797.7 1562.0,797.6 1572.0,797.7" stroke="#2563eb" stroke-width="1.7" opacity="0.78"/>
<polyline class="curve" points="78.0,791.4 327.0,796.7 576.0,797.3 825.0,797.5 1074.0,797.6 1323.0,797.7 1572.0,797.7" stroke="#2563eb" stroke-width="2.4" stroke-dasharray="7 4"/>
<circle cx="78.0" cy="791.4" r="2.2" fill="#2563eb"/>
<circle cx="327.0" cy="796.7" r="2.2" fill="#2563eb"/>
<circle cx="576.0" cy="797.3" r="2.2" fill="#2563eb"/>
<circle cx="825.0" cy="797.5" r="2.2" fill="#2563eb"/>
<circle cx="1074.0" cy="797.6" r="2.2" fill="#2563eb"/>
<circle cx="1323.0" cy="797.7" r="2.2" fill="#2563eb"/>
<circle cx="1572.0" cy="797.7" r="2.2" fill="#2563eb"/>
<polyline class="curve" points="79.0,791.4 88.0,791.5 97.9,792.0 107.9,792.6 117.8,793.2 127.8,794.0 137.8,794.7 147.7,795.2 157.7,795.7 167.6,796.0 177.6,796.3 187.6,796.5 197.5,796.6 207.5,796.7 217.4,796.8 227.4,796.9 237.4,797.0 247.3,797.1 257.3,797.1 267.2,797.2 277.2,797.2 287.2,797.3 297.1,797.3 307.1,797.3 317.0,797.3 327.0,797.4 337.0,797.4 346.9,797.5 356.9,797.4 366.8,797.5 376.8,797.6 386.8,797.6 396.7,797.6 406.7,797.6 416.6,797.6 426.6,797.6 436.6,797.6 446.5,797.6 456.5,797.6 466.4,797.6 476.4,797.7 486.4,797.6 496.3,797.7 506.3,797.7 516.2,797.7 526.2,797.8 536.2,797.8 546.1,797.7 556.1,797.7 566.0,797.8 576.0,797.8 586.0,797.8 595.9,797.8 605.9,797.8 615.8,797.8 625.8,797.9 635.8,797.9 645.7,797.9 655.7,797.9 665.6,797.9 675.6,797.9 685.6,797.9 695.5,798.0 705.5,797.9 715.4,797.9 725.4,798.0 735.4,798.0 745.3,798.0 755.3,798.0 765.2,798.0 775.2,798.0 785.2,797.9 795.1,798.0 805.1,798.0 815.0,798.0 825.0,798.0 835.0,798.0 844.9,798.0 854.9,798.0 864.8,798.0 874.8,798.0 884.8,798.0 894.7,798.0 904.7,798.0 914.6,798.0 924.6,798.0 934.6,798.0 944.5,798.0 954.5,798.0 964.4,798.0 974.4,798.1 984.4,798.0 994.3,798.0 1004.3,798.0 1014.2,798.0 1024.2,798.1 1034.2,798.1 1044.1,798.1 1054.1,798.1 1064.0,798.1 1074.0,798.0 1084.0,798.1 1093.9,798.1 1103.9,798.0 1113.8,798.1 1123.8,798.1 1133.8,798.1 1143.7,798.1 1153.7,798.1 1163.6,798.2 1173.6,798.1 1183.6,798.2 1193.5,798.2 1203.5,798.1 1213.4,798.1 1223.4,798.1 1233.4,798.2 1243.3,798.1 1253.3,798.1 1263.2,798.1 1273.2,798.1 1283.2,798.1 1293.1,798.1 1303.1,798.1 1313.0,798.1 1323.0,798.1 1333.0,798.1 1342.9,798.1 1352.9,798.1 1362.8,798.1 1372.8,798.2 1382.8,798.1 1392.7,798.1 1402.7,798.1 1412.6,798.1 1422.6,798.1 1432.6,798.1 1442.5,798.2 1452.5,798.1 1462.4,798.1 1472.4,798.2 1482.4,798.1 1492.3,798.2 1502.3,798.2 1512.2,798.1 1522.2,798.1 1532.2,798.2 1542.1,798.1 1552.1,798.2 1562.0,798.1 1572.0,798.1" stroke="#dc2626" stroke-width="1.7" opacity="0.78"/>
<polyline class="curve" points="78.0,791.4 327.0,797.4 576.0,797.8 825.0,798.0 1074.0,798.1 1323.0,798.1 1572.0,798.2" stroke="#dc2626" stroke-width="2.4" stroke-dasharray="7 4"/>
<circle cx="78.0" cy="791.4" r="2.2" fill="#dc2626"/>
<circle cx="327.0" cy="797.4" r="2.2" fill="#dc2626"/>
<circle cx="576.0" cy="797.8" r="2.2" fill="#dc2626"/>
<circle cx="825.0" cy="798.0" r="2.2" fill="#dc2626"/>
<circle cx="1074.0" cy="798.1" r="2.2" fill="#dc2626"/>
<circle cx="1323.0" cy="798.1" r="2.2" fill="#dc2626"/>
<circle cx="1572.0" cy="798.2" r="2.2" fill="#dc2626"/>
<polyline class="curve" points="79.0,791.4 88.0,791.8 97.9,792.9 107.9,794.1 117.8,795.1 127.8,795.8 137.8,796.2 147.7,796.5 157.7,796.7 167.6,796.8 177.6,797.0 187.6,797.2 197.5,797.2 207.5,797.3 217.4,797.4 227.4,797.5 237.4,797.6 247.3,797.6 257.3,797.7 267.2,797.7 277.2,797.6 287.2,797.8 297.1,797.8 307.1,797.7 317.0,797.8 327.0,797.9 337.0,797.9 346.9,797.9 356.9,797.9 366.8,798.0 376.8,798.0 386.8,798.0 396.7,798.0 406.7,798.0 416.6,798.1 426.6,798.0 436.6,798.1 446.5,798.0 456.5,798.1 466.4,798.0 476.4,798.1 486.4,798.1 496.3,798.1 506.3,798.1 516.2,798.1 526.2,798.2 536.2,798.2 546.1,798.1 556.1,798.2 566.0,798.2 576.0,798.2 586.0,798.2 595.9,798.2 605.9,798.2 615.8,798.2 625.8,798.3 635.8,798.3 645.7,798.3 655.7,798.3 665.6,798.2 675.6,798.3 685.6,798.3 695.5,798.4 705.5,798.3 715.4,798.3 725.4,798.4 735.4,798.4 745.3,798.4 755.3,798.4 765.2,798.4 775.2,798.3 785.2,798.3 795.1,798.4 805.1,798.4 815.0,798.3 825.0,798.3 835.0,798.4 844.9,798.4 854.9,798.4 864.8,798.4 874.8,798.4 884.8,798.4 894.7,798.4 904.7,798.4 914.6,798.4 924.6,798.3 934.6,798.4 944.5,798.4 954.5,798.4 964.4,798.4 974.4,798.5 984.4,798.4 994.3,798.4 1004.3,798.3 1014.2,798.4 1024.2,798.4 1034.2,798.5 1044.1,798.4 1054.1,798.4 1064.0,798.4 1074.0,798.4 1084.0,798.4 1093.9,798.5 1103.9,798.4 1113.8,798.4 1123.8,798.4 1133.8,798.5 1143.7,798.4 1153.7,798.5 1163.6,798.5 1173.6,798.5 1183.6,798.5 1193.5,798.5 1203.5,798.4 1213.4,798.5 1223.4,798.4 1233.4,798.5 1243.3,798.4 1253.3,798.5 1263.2,798.5 1273.2,798.4 1283.2,798.5 1293.1,798.5 1303.1,798.5 1313.0,798.5 1323.0,798.5 1333.0,798.5 1342.9,798.5 1352.9,798.5 1362.8,798.5 1372.8,798.5 1382.8,798.4 1392.7,798.5 1402.7,798.5 1412.6,798.5 1422.6,798.5 1432.6,798.5 1442.5,798.5 1452.5,798.5 1462.4,798.5 1472.4,798.5 1482.4,798.5 1492.3,798.5 1502.3,798.5 1512.2,798.5 1522.2,798.5 1532.2,798.5 1542.1,798.5 1552.1,798.5 1562.0,798.5 1572.0,798.5" stroke="#059669" stroke-width="1.7" opacity="0.78"/>
<polyline class="curve" points="78.0,791.4 327.0,797.9 576.0,798.2 825.0,798.4 1074.0,798.4 1323.0,798.5 1572.0,798.5" stroke="#059669" stroke-width="2.4" stroke-dasharray="7 4"/>
<circle cx="78.0" cy="791.4" r="2.2" fill="#059669"/>
<circle cx="327.0" cy="797.9" r="2.2" fill="#059669"/>
<circle cx="576.0" cy="798.2" r="2.2" fill="#059669"/>
<circle cx="825.0" cy="798.4" r="2.2" fill="#059669"/>
<circle cx="1074.0" cy="798.4" r="2.2" fill="#059669"/>
<circle cx="1323.0" cy="798.5" r="2.2" fill="#059669"/>
<circle cx="1572.0" cy="798.5" r="2.2" fill="#059669"/>
<polyline class="curve" points="79.0,791.4 88.0,793.5 97.9,795.5 107.9,795.9 117.8,796.0 127.8,796.3 137.8,796.4 147.7,796.6 157.7,796.6 167.6,796.6 177.6,796.6 187.6,796.5 197.5,796.6 207.5,796.6 217.4,796.5 227.4,796.3 237.4,796.5 247.3,796.4 257.3,796.4 267.2,796.3 277.2,795.9 287.2,796.2 297.1,796.3 307.1,796.1 317.0,796.2 327.0,796.0 337.0,795.9 346.9,795.6 356.9,795.9 366.8,796.0 376.8,796.1 386.8,796.2 396.7,796.1 406.7,795.9 416.6,795.8 426.6,795.8 436.6,795.9 446.5,795.8 456.5,796.0 466.4,796.0 476.4,796.0 486.4,795.9 496.3,795.6 506.3,795.7 516.2,795.7 526.2,795.8 536.2,795.9 546.1,796.1 556.1,795.9 566.0,796.1 576.0,796.1 586.0,796.1 595.9,796.2 605.9,796.1 615.8,796.1 625.8,796.1 635.8,796.2 645.7,796.2 655.7,796.1 665.6,796.0 675.6,796.2 685.6,796.1 695.5,796.2 705.5,796.2 715.4,796.2 725.4,796.3 735.4,796.4 745.3,796.4 755.3,796.3 765.2,796.4 775.2,796.4 785.2,796.4 795.1,796.5 805.1,796.5 815.0,796.5 825.0,796.6 835.0,796.6 844.9,796.7 854.9,796.7 864.8,796.7 874.8,796.7 884.8,796.8 894.7,796.8 904.7,796.8 914.6,796.8 924.6,796.8 934.6,796.9 944.5,796.8 954.5,796.9 964.4,796.9 974.4,797.0 984.4,797.0 994.3,796.9 1004.3,796.9 1014.2,797.0 1024.2,797.0 1034.2,797.1 1044.1,797.1 1054.1,797.1 1064.0,797.1 1074.0,797.1 1084.0,797.1 1093.9,797.2 1103.9,797.1 1113.8,797.1 1123.8,797.1 1133.8,797.2 1143.7,797.2 1153.7,797.2 1163.6,797.3 1173.6,797.2 1183.6,797.3 1193.5,797.3 1203.5,797.2 1213.4,797.3 1223.4,797.2 1233.4,797.3 1243.3,797.3 1253.3,797.3 1263.2,797.3 1273.2,797.3 1283.2,797.3 1293.1,797.3 1303.1,797.4 1313.0,797.3 1323.0,797.4 1333.0,797.4 1342.9,797.4 1352.9,797.4 1362.8,797.4 1372.8,797.4 1382.8,797.3 1392.7,797.4 1402.7,797.4 1412.6,797.4 1422.6,797.4 1432.6,797.5 1442.5,797.5 1452.5,797.5 1462.4,797.4 1472.4,797.5 1482.4,797.5 1492.3,797.5 1502.3,797.5 1512.2,797.5 1522.2,797.5 1532.2,797.6 1542.1,797.5 1552.1,797.5 1562.0,797.5 1572.0,797.5" stroke="#9333ea" stroke-width="1.7" opacity="0.78"/>
<polyline class="curve" points="78.0,791.4 327.0,795.9 576.0,796.1 825.0,796.6 1074.0,797.1 1323.0,797.4 1572.0,797.5" stroke="#9333ea" stroke-width="2.4" stroke-dasharray="7 4"/>
<circle cx="78.0" cy="791.4" r="2.2" fill="#9333ea"/>
<circle cx="327.0" cy="795.9" r="2.2" fill="#9333ea"/>
<circle cx="576.0" cy="796.1" r="2.2" fill="#9333ea"/>
<circle cx="825.0" cy="796.6" r="2.2" fill="#9333ea"/>
<circle cx="1074.0" cy="797.1" r="2.2" fill="#9333ea"/>
<circle cx="1323.0" cy="797.4" r="2.2" fill="#9333ea"/>
<circle cx="1572.0" cy="797.5" r="2.2" fill="#9333ea"/>
<polyline class="curve" points="79.0,791.4 88.0,792.5 97.9,793.5 107.9,794.7 117.8,795.5 127.8,796.0 137.8,796.0 147.7,796.1 157.7,796.2 167.6,796.2 177.6,796.3 187.6,796.2 197.5,796.1 207.5,795.5 217.4,795.7 227.4,795.6 237.4,795.4 247.3,795.4 257.3,795.4 267.2,795.3 277.2,795.2 287.2,795.0 297.1,795.2 307.1,795.1 317.0,795.2 327.0,795.1 337.0,795.1 346.9,795.1 356.9,795.0 366.8,795.2 376.8,795.2 386.8,795.2 396.7,794.8 406.7,794.8 416.6,794.9 426.6,794.9 436.6,794.6 446.5,794.8 456.5,795.0 466.4,795.0 476.4,794.8 486.4,794.8 496.3,794.7 506.3,795.0 516.2,795.0 526.2,795.0 536.2,794.8 546.1,794.7 556.1,794.6 566.0,794.9 576.0,795.0 586.0,795.1 595.9,795.2 605.9,795.0 615.8,795.0 625.8,794.9 635.8,795.0 645.7,794.6 655.7,794.8 665.6,794.8 675.6,795.0 685.6,795.0 695.5,795.1 705.5,795.0 715.4,795.1 725.4,794.9 735.4,795.1 745.3,794.9 755.3,795.1 765.2,794.8 775.2,794.9 785.2,794.8 795.1,794.9 805.1,795.1 815.0,795.1 825.0,795.1 835.0,795.2 844.9,795.0 854.9,795.0 864.8,795.0 874.8,794.8 884.8,794.8 894.7,794.8 904.7,794.9 914.6,795.0 924.6,795.0 934.6,795.1 944.5,794.8 954.5,794.9 964.4,795.0 974.4,795.0 984.4,795.0 994.3,795.0 1004.3,794.9 1014.2,795.0 1024.2,795.1 1034.2,795.2 1044.1,795.2 1054.1,795.3 1064.0,795.3 1074.0,795.3 1084.0,795.4 1093.9,795.4 1103.9,795.3 1113.8,795.4 1123.8,795.5 1133.8,795.5 1143.7,795.5 1153.7,795.6 1163.6,795.6 1173.6,795.6 1183.6,795.6 1193.5,795.7 1203.5,795.6 1213.4,795.8 1223.4,795.7 1233.4,795.8 1243.3,795.8 1253.3,795.9 1263.2,795.9 1273.2,795.9 1283.2,796.0 1293.1,796.0 1303.1,796.1 1313.0,796.1 1323.0,796.2 1333.0,796.1 1342.9,796.2 1352.9,796.2 1362.8,796.3 1372.8,796.3 1382.8,796.2 1392.7,796.3 1402.7,796.4 1412.6,796.4 1422.6,796.4 1432.6,796.4 1442.5,796.5 1452.5,796.5 1462.4,796.4 1472.4,796.5 1482.4,796.5 1492.3,796.6 1502.3,796.6 1512.2,796.6 1522.2,796.6 1532.2,796.7 1542.1,796.6 1552.1,796.7 1562.0,796.6 1572.0,796.7" stroke="#ea580c" stroke-width="1.7" opacity="0.78"/>
<polyline class="curve" points="78.0,791.4 327.0,795.0 576.0,795.0 825.0,795.1 1074.0,795.3 1323.0,796.2 1572.0,796.7" stroke="#ea580c" stroke-width="2.4" stroke-dasharray="7 4"/>
<circle cx="78.0" cy="791.4" r="2.2" fill="#ea580c"/>
<circle cx="327.0" cy="795.0" r="2.2" fill="#ea580c"/>
<circle cx="576.0" cy="795.0" r="2.2" fill="#ea580c"/>
<circle cx="825.0" cy="795.1" r="2.2" fill="#ea580c"/>
<circle cx="1074.0" cy="795.3" r="2.2" fill="#ea580c"/>
<circle cx="1323.0" cy="796.2" r="2.2" fill="#ea580c"/>
<circle cx="1572.0" cy="796.7" r="2.2" fill="#ea580c"/>
<polyline class="curve" points="79.0,791.4 88.0,790.9 97.9,784.7 107.9,794.0 117.8,794.7 127.8,795.1 137.8,795.1 147.7,795.2 157.7,795.3 167.6,795.3 177.6,795.3 187.6,795.3 197.5,795.2 207.5,795.5 217.4,795.5 227.4,795.5 237.4,795.6 247.3,795.6 257.3,795.6 267.2,795.7 277.2,795.6 287.2,795.2 297.1,795.2 307.1,795.0 317.0,795.2 327.0,795.2 337.0,795.0 346.9,794.7 356.9,793.7 366.8,793.3 376.8,792.8 386.8,794.6 396.7,795.0 406.7,795.0 416.6,795.0 426.6,795.0 436.6,795.2 446.5,795.4 456.5,795.4 466.4,795.5 476.4,795.2 486.4,795.3 496.3,795.4 506.3,795.0 516.2,795.2 526.2,795.5 536.2,794.3 546.1,794.4 556.1,794.6 566.0,795.5 576.0,793.3 586.0,793.5 595.9,793.1 605.9,792.6 615.8,794.1 625.8,793.9 635.8,793.4 645.7,792.7 655.7,792.8 665.6,792.8 675.6,794.3 685.6,794.0 695.5,793.7 705.5,789.0 715.4,793.2 725.4,792.4 735.4,794.2 745.3,794.5 755.3,794.9 765.2,794.8 775.2,794.6 785.2,794.2 795.1,791.8 805.1,793.5 815.0,795.1 825.0,793.2 835.0,794.0 844.9,794.4 854.9,795.0 864.8,795.0 874.8,795.0 884.8,794.9 894.7,794.8 904.7,794.8 914.6,795.1 924.6,794.9 934.6,794.9 944.5,794.1 954.5,794.7 964.4,794.8 974.4,795.3 984.4,795.4 994.3,795.3 1004.3,795.6 1014.2,795.7 1024.2,795.4 1034.2,795.8 1044.1,795.5 1054.1,795.4 1064.0,795.3 1074.0,795.1 1084.0,795.3 1093.9,795.2 1103.9,795.1 1113.8,794.6 1123.8,794.8 1133.8,794.7 1143.7,795.1 1153.7,795.0 1163.6,795.2 1173.6,795.2 1183.6,795.2 1193.5,795.2 1203.5,794.9 1213.4,794.9 1223.4,795.0 1233.4,795.0 1243.3,795.0 1253.3,795.1 1263.2,795.1 1273.2,795.0 1283.2,794.7 1293.1,795.2 1303.1,795.2 1313.0,795.2 1323.0,795.1 1333.0,795.1 1342.9,795.2 1352.9,795.1 1362.8,795.2 1372.8,795.3 1382.8,795.2 1392.7,795.1 1402.7,795.2 1412.6,795.2 1422.6,794.9 1432.6,795.1 1442.5,795.3 1452.5,795.2 1462.4,795.2 1472.4,795.2 1482.4,795.3 1492.3,795.2 1502.3,795.0 1512.2,795.1 1522.2,795.2 1532.2,795.4 1542.1,795.3 1552.1,795.4 1562.0,795.3 1572.0,795.4" stroke="#0891b2" stroke-width="1.7" opacity="0.78"/>
<polyline class="curve" points="78.0,791.4 327.0,795.2 576.0,790.9 825.0,791.8 1074.0,795.2 1323.0,795.1 1572.0,795.4" stroke="#0891b2" stroke-width="2.4" stroke-dasharray="7 4"/>
<circle cx="78.0" cy="791.4" r="2.2" fill="#0891b2"/>
<circle cx="327.0" cy="795.2" r="2.2" fill="#0891b2"/>
<circle cx="576.0" cy="790.9" r="2.2" fill="#0891b2"/>
<circle cx="825.0" cy="791.8" r="2.2" fill="#0891b2"/>
<circle cx="1074.0" cy="795.2" r="2.2" fill="#0891b2"/>
<circle cx="1323.0" cy="795.1" r="2.2" fill="#0891b2"/>
<circle cx="1572.0" cy="795.4" r="2.2" fill="#0891b2"/>
<polyline class="curve" points="79.0,791.4 88.0,783.1 97.9,784.6 107.9,789.7 117.8,790.9 127.8,791.6 137.8,788.9 147.7,790.9 157.7,787.9 167.6,793.0 177.6,789.6 187.6,782.8 197.5,762.3 207.5,756.3 217.4,788.0 227.4,768.5 237.4,781.8 247.3,767.2 257.3,737.0 267.2,764.6 277.2,559.8 287.2,658.2 297.1,761.7 307.1,752.3 317.0,695.9 327.0,746.0 337.0,775.1 346.9,700.4 356.9,756.6 366.8,713.8 376.8,768.9 386.8,777.3 396.7,772.2 406.7,777.1 416.6,742.8 426.6,659.2 436.6,759.3 446.5,772.0 456.5,714.8 466.4,762.4 476.4,784.9 486.4,743.9 496.3,761.0 506.3,781.9 516.2,705.6 526.2,717.1 536.2,762.6 546.1,725.4 556.1,718.6 566.0,757.8 576.0,697.9 586.0,707.1 595.9,762.6 605.9,767.5 615.8,417.1 625.8,678.9 635.8,740.1 645.7,737.9 655.7,681.1 665.6,734.2 675.6,724.0 685.6,657.6 695.5,759.2 705.5,771.6 715.4,761.8 725.4,724.1 735.4,764.6 745.3,761.6 755.3,743.3 765.2,742.3 775.2,753.7 785.2,750.7 795.1,739.5 805.1,773.1 815.0,767.0 825.0,727.8 835.0,739.5 844.9,768.6 854.9,767.1 864.8,744.9 874.8,743.8 884.8,767.7 894.7,781.0 904.7,740.0 914.6,771.8 924.6,728.7 934.6,758.0 944.5,748.5 954.5,750.5 964.4,773.3 974.4,772.2 984.4,767.3 994.3,786.8 1004.3,790.1 1014.2,773.9 1024.2,769.0 1034.2,776.2 1044.1,768.0 1054.1,761.7 1064.0,782.0 1074.0,786.8 1084.0,777.8 1093.9,780.0 1103.9,781.4 1113.8,791.2 1123.8,786.0 1133.8,767.2 1143.7,775.9 1153.7,788.8 1163.6,785.3 1173.6,790.3 1183.6,787.8 1193.5,792.2 1203.5,791.6 1213.4,792.9 1223.4,791.7 1233.4,792.5 1243.3,792.7 1253.3,794.2 1263.2,793.3 1273.2,793.6 1283.2,792.3 1293.1,793.1 1303.1,791.9 1313.0,793.8 1323.0,794.4 1333.0,794.5 1342.9,794.5 1352.9,794.9 1362.8,795.0 1372.8,794.7 1382.8,795.1 1392.7,794.9 1402.7,795.0 1412.6,795.2 1422.6,795.3 1432.6,795.3 1442.5,795.4 1452.5,795.6 1462.4,795.4 1472.4,795.5 1482.4,795.5 1492.3,795.7 1502.3,795.7 1512.2,795.8 1522.2,795.8 1532.2,795.9 1542.1,795.9 1552.1,795.9 1562.0,795.7 1572.0,795.7" stroke="#4f46e5" stroke-width="1.7" opacity="0.78"/>
<polyline class="curve" points="78.0,791.4 327.0,749.4 576.0,678.6 825.0,737.0 1074.0,785.9 1323.0,794.4 1572.0,795.4" stroke="#4f46e5" stroke-width="2.4" stroke-dasharray="7 4"/>
<circle cx="78.0" cy="791.4" r="2.2" fill="#4f46e5"/>
<circle cx="327.0" cy="749.4" r="2.2" fill="#4f46e5"/>
<circle cx="576.0" cy="678.6" r="2.2" fill="#4f46e5"/>
<circle cx="825.0" cy="737.0" r="2.2" fill="#4f46e5"/>
<circle cx="1074.0" cy="785.9" r="2.2" fill="#4f46e5"/>
<circle cx="1323.0" cy="794.4" r="2.2" fill="#4f46e5"/>
<circle cx="1572.0" cy="795.4" r="2.2" fill="#4f46e5"/>
<polyline class="curve" points="79.0,791.4 88.0,230.2 97.9,652.9 107.9,786.9 117.8,655.9 122.8,169.5" stroke="#be123c" stroke-width="1.7" opacity="0.78"/>
<polyline class="curve" points="78.0,791.4" stroke="#be123c" stroke-width="2.4" stroke-dasharray="7 4"/>
<circle cx="78.0" cy="791.4" r="2.2" fill="#be123c"/>
</g>
</svg>
