<?xml version="1.0" encoding="UTF-8"?>
<svg xmlns="http://www.w3.org/2000/svg" width="1600" height="900" viewBox="0 0 1600 900" role="img" aria-labelledby="title desc">
<title id="title">OpenWebText baseline loss by wall-clock time</title>
<desc id="desc">Loss by elapsed wall-clock time in seconds, with solid training curves and dashed validation curves.</desc>
<rect width="100%" height="100%" fill="#ffffff"/>
<style>text{font-family:ui-sans-serif,system-ui,sans-serif;fill:#334155}.grid{stroke:#e2e8f0;stroke-width:1}.axis{stroke:#64748b;stroke-width:1.2}.curve{fill:none;stroke-linejoin:round;stroke-linecap:round}.tick{font-size:12px}.legend{font-size:12px}.label{font-size:14px}.heading{font-size:20px;font-weight:600;fill:#0f172a}</style>
<clipPath id="plot-area"><rect x="78.0" y="78.0" width="1494.0" height="752.0"/></clipPath>
<text class="heading" x="78.0" y="32">OpenWebText baseline loss by wall-clock time</text>
<line x1="78.0" y1="54.0" x2="103.0" y2="54.0" stroke="#2563eb" stroke-width="2"/>
<text class="legend" x="109.0" y="58.0">train_owt train</text>
<line x1="451.5" y1="54.0" x2="476.5" y2="54.0" stroke="#2563eb" stroke-width="2" stroke-dasharray="7 4"/>
<text class="legend" x="482.5" y="58.0">train_owt val</text>
<line class="grid" x1="78.0" y1="78.0" x2="78.0" y2="830.0"/>
<text class="tick" x="78.0" y="853.0" text-anchor="middle">0</text>
<line class="grid" x1="376.8" y1="78.0" x2="376.8" y2="830.0"/>
<text class="tick" x="376.8" y="853.0" text-anchor="middle">231</text>
<line class="grid" x1="675.6" y1="78.0" x2="675.6" y2="830.0"/>
<text class="tick" x="675.6" y="853.0" text-anchor="middle">463</text>
<line class="grid" x1="974.4" y1="78.0" x2="974.4" y2="830.0"/>
<text class="tick" x="974.4" y="853.0" text-anchor="middle">694</text>
<line class="grid" x1="1273.2" y1="78.0" x2="1273.2" y2="830.0"/>
<text class="tick" x="1273.2" y="853.0" text-anchor="middle">926</text>
<line class="grid" x1="1572.0" y1="78.0" x2="1572.0" y2="830.0"/>
<text class="tick" x="1572.0" y="853.0" text-anchor="middle">1157</text>
<line class="grid" x1="78.0" y1="78.0" x2="1572.0" y2="78.0"/>
<text class="tick" x="67.0" y="82.0" text-anchor="end">10.7</text>
<line class="grid" x1="78.0" y1="228.4" x2="1572.0" y2="228.4"/>
<text class="tick" x="67.0" y="232.4" text-anchor="end">9.34</text>
<line class="grid" x1="78.0" y1="378.8" x2="1572.0" y2="378.8"/>
<text class="tick" x="67.0" y="382.8" text-anchor="end">7.98</text>
<line class="grid" x1="78.0" y1="529.2" x2="1572.0" y2="529.2"/>
<text class="tick" x="67.0" y="533.2" text-anchor="end">6.62</text>
<line class="grid" x1="78.0" y1="679.6" x2="1572.0" y2="679.6"/>
<text class="tick" x="67.0" y="683.6" text-anchor="end">5.26</text>
<line class="grid" x1="78.0" y1="830.0" x2="1572.0" y2="830.0"/>
<text class="tick" x="67.0" y="834.0" text-anchor="end">3.9</text>
<line class="axis" x1="78.0" y1="830.0" x2="1572.0" y2="830.0"/>
<line class="axis" x1="78.0" y1="78.0" x2="78.0" y2="830.0"/>
<text class="label" x="825.0" y="880.0" text-anchor="middle">wall clock (seconds)</text>
<text class="label" x="20" y="454.0" text-anchor="middle" transform="rotate(-90 20 454.0)">loss</text>
<g clip-path="url(#plot-area)">
<polyline class="curve" points="80.5,112.2 82.8,113.3 85.3,117.2 87.7,124.5 89.9,135.3 92.1,153.4 94.2,175.6 96.3,203.9 98.4,228.1 100.4,253.9 102.3,279.3 104.3,309.8 106.2,338.0 108.0,363.0 109.8,388.2 111.6,402.7 113.4,426.8 115.1,435.3 116.9,449.1 118.6,454.6 120.4,457.7 122.1,469.1 123.8,488.1 125.5,485.7 127.1,501.2 130.6,512.6 132.4,512.9 134.2,512.9 135.9,530.0 137.7,533.3 139.3,526.9 141.0,537.1 142.6,549.5 144.2,556.8 145.8,554.7 147.5,563.7 149.1,560.4 150.6,564.1 152.3,564.2 153.8,575.6 155.4,571.4 157.0,574.4 158.6,581.4 160.2,573.1 161.8,586.9 163.4,590.8 164.9,594.6 166.5,590.5 168.0,598.7 169.5,596.9 172.7,600.5 174.3,606.9 175.8,611.0 177.3,605.5 178.8,607.9 180.3,602.3 181.8,616.9 183.7,606.9 185.5,612.1 189.0,614.3 190.9,615.3 192.4,621.4 194.0,627.2 195.5,628.1 197.0,622.3 198.5,630.6 200.0,621.9 201.5,624.3 202.9,640.0 204.4,630.5 205.8,624.3 207.3,634.3 208.8,642.7 210.3,641.9 211.8,641.5 215.0,636.3 216.5,643.8 218.0,652.1 219.5,643.8 221.1,649.8 222.5,641.2 224.0,644.3 225.5,654.4 227.0,647.7 228.4,651.8 229.9,646.1 231.4,657.8 232.8,653.1 234.2,645.5 235.7,651.2 237.1,659.8 238.6,656.4 240.1,661.5 241.6,651.1 243.1,656.4 244.5,659.3 246.0,670.0 247.5,665.5 249.0,670.6 250.5,663.5 253.6,663.4 255.8,665.3 257.3,654.9 258.8,664.3 260.2,658.5 261.7,669.4 263.2,677.7 264.6,677.5 266.1,673.0 267.5,671.2 269.0,667.9 270.5,674.9 271.9,671.8 273.4,668.2 274.8,676.4 276.2,684.4 277.7,682.8 279.1,671.6 280.6,681.4 282.0,687.9 283.5,677.0 284.9,686.1 286.3,684.3 287.8,678.1 289.2,683.4 292.3,678.9 293.8,694.9 295.2,682.1 296.7,684.8 298.2,686.7 299.6,688.2 301.1,696.2 302.5,689.8 303.9,689.2 305.3,684.2 306.8,691.4 308.2,686.6 309.6,691.9 311.0,686.0 312.5,699.8 313.9,686.9 315.4,693.3 316.8,698.5 318.2,687.5 319.6,690.6 321.0,691.9 322.5,699.4 323.9,693.2 325.3,692.8 326.7,703.0 329.8,698.2 331.2,696.5 332.6,699.7 334.0,695.3 335.5,694.2 336.9,705.8 338.4,704.8 339.8,703.2 341.2,699.2 342.6,703.3 344.0,705.9 345.4,702.2 346.8,702.3 348.2,701.9 349.6,699.8 351.1,705.5 352.5,708.8 353.9,709.4 355.3,706.3 356.7,703.2 358.1,703.2 359.5,708.3 361.0,704.8 362.4,705.7 363.9,705.0 367.0,704.7 368.4,703.0 369.8,706.8 371.2,706.0 372.6,710.3 374.0,707.0 375.4,716.6 376.9,705.9 378.3,709.6 379.7,714.4 381.1,707.7 382.5,712.5 383.9,717.0 385.3,718.1 386.7,713.6 388.1,719.0 389.5,716.5 391.0,711.8 392.4,722.0 393.8,714.0 395.3,704.9 396.7,711.4 398.1,726.7 399.5,714.7 400.9,710.2 403.9,713.2 406.1,713.9 407.5,722.1 408.9,715.1 410.3,724.7 411.8,716.9 413.2,715.5 414.6,717.7 416.0,713.2 417.5,717.8 418.9,718.0 420.3,720.2 421.7,719.8 423.1,714.7 424.5,726.3 426.0,724.1 427.4,712.6 428.9,720.2 430.3,716.0 431.7,716.7 433.1,713.0 434.5,730.0 436.0,722.2 437.4,720.6 438.9,722.5 441.9,716.8 443.3,721.2 444.7,721.6 446.2,732.8 447.6,723.3 449.0,720.7 450.4,728.5 451.9,723.1 453.3,720.7 454.7,718.2 456.1,717.7 457.6,726.4 459.0,727.9 460.4,718.0 461.8,728.1 463.2,729.4 464.7,732.2 466.1,728.9 467.5,724.6 468.9,725.9 470.3,725.6 471.7,724.8 473.1,722.1 474.6,722.9 476.0,738.7 479.1,733.4 480.5,730.9 481.9,725.6 483.4,727.6 484.8,735.2 486.2,734.6 487.6,730.9 489.1,731.6 490.6,730.0 492.1,734.7 493.5,730.0 494.9,725.4 496.7,730.7 498.1,731.2 499.5,723.0 501.0,732.7 502.4,733.3 503.8,738.7 505.2,737.3 506.6,730.5 508.0,731.0 509.4,732.3 510.9,739.1 512.3,736.5 513.7,726.0 516.8,736.3 518.2,728.5 519.6,730.5 521.1,738.6 522.5,737.0 523.9,740.0 525.3,737.9 526.8,736.5 528.2,736.8 529.6,734.5 531.0,734.5 532.4,746.8 533.8,731.3 535.3,748.2 536.7,748.7 538.1,741.5 539.5,736.7 541.0,742.9 542.4,739.3 543.8,743.5 545.2,736.4 546.7,740.8 548.1,743.5 549.5,737.2 550.9,729.4 554.0,734.9 556.1,736.5 557.5,738.6 558.9,731.8 560.3,730.8 561.7,728.8 563.1,750.4 564.5,742.7 565.9,750.9 567.3,740.8 568.8,743.5 570.2,736.3 571.6,742.2 573.0,738.5 574.5,741.2 575.9,741.6 577.3,737.7 578.7,743.5 580.1,736.2 581.5,743.7 582.9,744.8 584.3,738.8 585.8,738.4 587.2,749.4 588.6,746.8 591.7,740.5 593.2,746.6 594.6,742.2 596.0,742.5 597.4,741.6 598.8,742.1 600.2,739.6 601.6,740.8 603.0,748.1 604.4,743.5 605.8,740.2 607.2,753.5 608.7,749.0 610.1,744.0 611.4,748.7 612.8,755.0 614.3,752.2 615.7,748.2 617.1,740.3 618.5,739.9 619.9,748.7 621.3,745.3 622.8,743.5 624.2,739.6 625.6,738.4 628.6,745.5 630.0,752.1 631.4,743.2 632.9,753.3 634.3,752.9 635.7,750.8 637.1,746.9 638.5,742.2 640.0,744.4 641.4,755.2 642.8,751.7 644.3,741.9 645.7,746.3 647.1,748.9 648.7,752.1 650.1,747.6 651.5,746.7 653.0,751.2 654.4,746.9 655.8,752.2 657.2,750.4 658.6,752.8 660.0,747.6 661.5,745.8 662.9,758.3 665.9,746.8 667.3,743.4 668.8,757.7 670.2,749.0 671.6,748.8 673.1,746.1 674.5,749.6 675.9,752.5 677.3,752.4 678.7,759.3 680.2,751.8 681.6,760.5 683.0,752.3 684.4,750.5 685.8,754.7 687.2,752.8 688.6,748.8 690.1,755.7 691.5,750.6 692.9,754.7 694.3,752.9 695.7,745.6 697.1,750.3 698.5,746.8 699.9,755.3 703.0,755.1 705.1,749.1 706.5,751.7 707.9,758.8 709.3,758.0 710.7,752.7 712.1,760.6 713.6,758.6 714.9,758.0 716.4,753.7 717.8,758.3 719.2,758.5 720.6,757.3 722.0,753.2 723.4,754.9 724.9,760.9 726.3,757.0 727.7,753.1 729.1,756.6 730.5,750.6 731.9,754.6 733.3,764.0 734.7,756.4 736.1,752.2 737.5,754.4 740.5,759.0 742.0,757.8 743.4,752.8 744.8,765.7 746.2,758.1 747.7,763.4 749.1,750.2 750.5,765.2 751.9,759.6 753.4,759.3 754.8,755.9 756.2,757.3 757.7,756.2 759.1,766.2 760.5,766.3 761.9,759.4 763.3,759.2 764.7,761.0 766.1,767.4 767.5,763.4 769.0,763.1 770.4,754.7 771.8,758.0 773.2,756.6 774.6,753.7 777.6,755.3 779.0,766.8 780.4,757.9 781.8,768.7 783.3,765.2 784.7,754.6 786.1,760.2 787.5,764.6 788.9,766.2 790.4,757.9 791.8,760.1 793.2,760.8 794.6,766.6 796.0,763.1 797.5,767.5 798.9,766.5 800.3,756.9 801.7,768.4 803.1,758.4 804.5,756.7 805.9,760.6 807.4,770.4 808.8,773.6 810.3,757.3 811.7,753.5 814.7,755.8 816.1,762.0 817.5,763.7 818.9,765.3 820.3,758.8 821.8,766.5 823.2,769.9 824.6,760.6 826.0,759.8 827.5,760.1 828.9,763.2 830.3,763.1 831.7,762.3 833.1,770.5 834.5,767.0 835.8,758.1 837.2,772.0 838.6,760.7 840.0,770.4 841.4,759.0 842.8,762.9 844.2,764.4 845.6,779.3 847.0,760.2 848.4,762.6 851.3,766.9 853.4,764.0 854.8,769.2 856.2,754.9 857.6,756.7 859.0,765.3 860.4,767.2 861.8,770.1 863.3,772.9 864.7,767.5 866.1,764.1 867.5,760.4 868.8,763.1 870.2,769.6 871.6,767.0 873.1,767.2 874.5,764.3 875.8,768.5 877.2,762.1 878.6,773.1 880.0,765.9 881.4,769.6 882.9,774.3 884.3,760.8 885.6,767.1 888.7,768.1 890.1,769.6 891.5,766.1 892.9,766.9 894.3,772.2 895.7,769.3 897.0,775.4 898.4,770.2 899.8,765.7 901.2,761.3 902.6,762.1 904.0,763.2 905.4,775.8 906.8,769.1 908.2,768.4 909.6,769.5 911.0,767.8 912.4,772.1 913.8,776.0 915.2,767.2 916.6,767.7 917.9,773.1 919.3,763.3 920.7,772.7 922.1,770.1 925.1,763.9 926.5,765.4 928.0,768.1 929.3,766.8 930.8,766.9 932.1,779.1 933.6,767.5 934.9,771.6 936.4,767.8 937.7,770.6 939.1,775.9 940.5,766.0 941.9,771.2 943.3,773.1 944.7,770.7 946.1,770.7 947.5,764.5 948.9,780.5 950.3,775.0 951.7,765.3 953.1,776.8 954.7,768.8 956.1,775.1 957.5,768.6 958.9,770.5 961.8,773.9 963.2,776.5 964.7,775.8 966.1,774.0 967.5,772.5 968.9,774.0 970.3,774.3 971.7,774.2 973.1,768.9 974.5,775.3 976.0,766.7 977.4,778.0 978.8,778.1 980.2,770.5 981.6,775.2 983.0,776.8 984.4,773.8 985.8,781.1 987.2,767.8 988.5,774.6 989.9,779.4 991.3,764.0 992.7,777.1 994.1,775.3 995.5,772.5 998.5,772.3 1000.6,770.3 1002.0,782.1 1003.4,771.0 1004.8,772.1 1006.2,772.4 1007.6,774.4 1009.0,781.9 1010.4,774.7 1011.8,768.5 1013.2,769.9 1014.6,769.2 1016.0,781.1 1017.4,780.5 1018.8,780.8 1020.2,776.6 1021.6,783.1 1022.9,783.9 1024.3,777.2 1025.8,781.2 1027.2,778.1 1028.6,777.0 1030.0,771.9 1031.4,772.2 1032.8,773.2 1035.7,776.3 1037.1,773.9 1038.5,774.0 1039.9,782.8 1041.3,769.4 1042.7,774.3 1044.0,771.2 1045.4,777.0 1046.8,776.0 1048.2,775.5 1049.6,780.1 1051.1,770.0 1052.5,771.5 1053.9,774.5 1055.3,777.6 1056.6,771.7 1058.0,783.1 1059.4,778.0 1060.8,782.3 1062.2,783.4 1063.6,774.0 1065.0,777.9 1066.4,774.5 1067.8,780.8 1069.1,783.4 1072.1,779.4 1073.5,775.1 1075.0,775.3 1076.4,775.2 1077.8,768.6 1079.2,776.3 1080.6,777.3 1082.0,775.4 1083.4,781.7 1084.8,779.0 1086.1,777.1 1087.6,775.3 1089.0,784.0 1090.3,775.5 1091.7,779.2 1093.1,782.5 1094.5,769.3 1095.9,776.1 1097.3,770.9 1098.7,769.9 1100.1,782.6 1101.5,776.3 1102.8,785.5 1104.2,776.4 1105.6,779.2 1108.8,771.4 1110.1,775.0 1111.5,777.9 1112.9,775.0 1114.2,779.5 1115.6,780.1 1117.0,777.9 1118.3,783.4 1119.7,774.5 1121.1,777.8 1122.4,775.5 1123.8,780.2 1125.2,779.1 1126.5,782.2 1127.9,775.3 1129.3,782.5 1130.6,778.8 1132.0,774.4 1133.4,776.4 1134.7,780.5 1136.1,779.9 1137.5,776.2 1138.8,783.0 1140.2,775.3 1141.5,775.6 1144.4,779.0 1146.5,784.2 1147.8,778.3 1149.2,785.7 1150.5,774.3 1151.9,776.6 1153.3,775.1 1154.6,780.6 1156.0,772.0 1157.4,781.3 1158.7,785.2 1160.1,770.3 1161.5,785.6 1162.8,783.8 1164.2,778.9 1165.5,774.2 1166.9,790.6 1168.3,781.5 1169.6,777.2 1171.0,775.8 1172.3,779.4 1173.7,782.1 1175.1,782.7 1176.4,779.5 1177.8,785.3 1180.6,779.0 1182.0,772.7 1183.3,779.3 1184.7,783.3 1186.1,782.1 1187.4,777.1 1188.8,779.1 1190.1,779.9 1191.5,777.3 1192.9,779.7 1194.2,776.4 1195.6,774.7 1196.9,783.0 1198.3,782.5 1199.7,777.0 1201.0,774.9 1202.4,787.8 1203.7,782.0 1205.1,779.8 1206.4,776.2 1207.8,784.7 1209.2,775.5 1210.5,781.5 1211.9,779.6 1213.2,786.9 1216.1,786.5 1217.5,779.0 1218.8,778.8 1220.2,786.1 1221.5,782.2 1222.9,779.2 1224.3,778.4 1225.6,783.0 1227.0,788.9 1228.3,782.4 1229.7,776.9 1231.0,778.7 1232.4,778.9 1233.8,785.7 1235.1,778.7 1236.5,775.9 1237.8,785.5 1239.2,783.8 1240.6,778.3 1241.9,786.1 1243.3,784.4 1244.6,787.3 1246.0,774.3 1247.3,776.0 1248.7,783.5 1251.6,778.9 1252.9,782.2 1254.3,794.0 1255.6,780.8 1257.0,778.0 1258.4,788.6 1259.7,782.6 1261.1,777.6 1262.4,786.7 1263.8,782.9 1265.1,789.4 1266.5,781.4 1267.9,788.1 1269.2,790.4 1270.6,793.5 1271.9,778.4 1273.3,775.0 1274.7,786.6 1276.0,787.1 1277.4,786.2 1278.7,781.0 1280.1,779.4 1281.4,777.1 1282.8,788.4 1284.2,781.0 1287.0,787.2 1289.0,795.2 1290.4,791.4 1291.7,788.5 1293.1,785.0 1294.5,783.7 1295.8,785.6 1297.2,780.8 1298.5,785.5 1299.9,777.4 1301.2,778.9 1302.6,778.6 1304.0,779.5 1305.3,778.5 1306.7,782.8 1308.0,779.9 1309.4,778.8 1310.8,781.7 1312.1,786.2 1313.5,779.7 1314.8,791.0 1316.2,780.9 1317.5,783.5 1318.9,780.3 1320.3,782.8 1323.1,780.6 1324.5,784.3 1325.8,782.4 1327.2,780.0 1328.5,785.5 1329.9,783.2 1331.3,783.9 1332.6,781.8 1334.0,788.3 1335.3,783.3 1336.7,784.7 1338.0,785.1 1339.4,779.5 1340.8,785.7 1342.1,787.4 1343.5,789.7 1344.8,787.5 1346.2,784.3 1347.5,780.0 1348.9,782.9 1350.3,786.5 1351.6,787.7 1353.0,788.7 1354.3,783.0 1355.7,783.0 1358.5,784.0 1359.9,785.6 1361.3,784.4 1362.6,783.0 1364.0,779.4 1365.3,784.3 1366.7,790.2 1368.1,780.5 1369.4,787.2 1370.8,783.0 1372.1,778.0 1373.5,780.0 1374.8,779.0 1376.2,779.9 1377.6,789.2 1378.9,782.6 1380.3,779.8 1381.6,786.9 1383.0,791.7 1384.3,782.1 1385.7,788.9 1387.1,780.8 1388.4,777.7 1389.8,781.8 1391.1,778.8 1394.0,787.4 1395.3,780.7 1396.7,783.5 1398.1,791.1 1399.4,788.7 1400.8,785.7 1402.1,782.1 1403.5,784.3 1404.9,782.8 1406.2,789.5 1407.6,779.1 1408.9,794.6 1410.3,784.4 1411.6,787.1 1413.0,788.2 1414.4,787.1 1415.7,780.0 1417.1,783.2 1418.4,778.0 1419.8,784.6 1421.1,788.0 1422.5,779.5 1423.9,781.2 1425.2,793.6 1426.6,787.6 1429.4,789.5 1431.5,784.5 1432.8,795.8 1434.2,779.7 1435.5,790.6 1436.9,776.9 1438.2,773.0 1439.6,783.7 1441.0,781.1 1442.3,786.4 1443.7,788.7 1445.0,792.6 1446.4,783.0 1447.7,785.0 1449.1,781.9 1450.5,789.3 1451.8,786.6 1453.2,784.9 1454.5,787.8 1455.9,786.1 1457.2,790.4 1458.6,785.3 1460.0,782.9 1461.3,783.7 1462.7,793.9 1465.6,787.1 1466.9,788.1 1468.3,788.6 1469.7,787.8 1471.0,787.6 1472.4,784.3 1473.7,785.1 1475.1,794.7 1476.4,782.4 1477.8,785.5 1479.1,781.9 1480.5,780.8 1481.9,792.9 1483.2,786.3 1484.6,791.8 1485.9,781.4 1487.3,790.1 1488.6,795.2 1490.0,780.8 1491.4,791.8 1492.7,787.5 1494.1,786.4 1495.4,792.6 1496.8,787.7 1498.1,781.9 1501.0,788.0 1502.4,788.3 1503.8,790.4 1505.1,787.4 1506.5,779.9 1507.8,784.5 1509.2,784.2 1510.6,789.9 1511.9,788.4 1513.3,784.6 1514.6,792.5 1516.0,784.2 1517.3,783.7 1518.7,791.3 1520.0,786.5 1521.4,784.2 1522.8,786.1 1524.1,785.9 1525.5,787.9 1526.8,781.2 1528.2,789.9 1529.5,783.9 1530.9,788.4 1532.3,790.4 1533.6,784.4 1536.5,789.2 1537.9,782.6 1539.2,784.9 1540.6,790.6 1542.0,782.3 1543.3,786.6 1544.7,786.8 1546.0,785.5 1547.4,789.0 1548.7,783.9 1550.1,782.4 1551.5,780.5 1552.8,787.2 1554.2,790.1 1555.5,784.8 1556.9,789.6 1558.2,791.0 1559.6,780.0 1560.9,786.1 1562.3,783.5 1563.7,791.1 1565.0,786.4 1566.4,780.9 1567.7,785.2 1569.1,785.7 1572.0,787.0" stroke="#2563eb" stroke-width="1.7" opacity="0.78"/>
<polyline class="curve" points="78.0,112.2 130.6,507.3 172.7,599.1 215.0,639.5 253.6,665.1 292.3,683.6 329.8,697.8 367.0,708.3 403.9,716.8 441.9,723.9 479.1,729.5 516.8,734.9 554.0,739.3 591.7,743.3 628.6,747.2 665.9,751.0 703.0,754.3 740.5,757.4 777.6,760.4 814.7,763.1 851.3,765.3 888.7,767.5 925.1,769.6 961.8,771.5 998.5,773.2 1035.7,774.8 1072.1,776.2 1108.8,777.4 1144.4,778.7 1180.6,779.7 1216.1,780.7 1251.6,781.6 1287.0,782.4 1323.1,783.0 1358.5,783.7 1394.0,784.3 1429.4,784.8 1465.6,785.2 1501.0,785.7 1536.5,785.9 1572.0,786.3" stroke="#2563eb" stroke-width="2.4" stroke-dasharray="7 4"/>
<circle cx="78.0" cy="112.2" r="2.2" fill="#2563eb"/>
<circle cx="130.6" cy="507.3" r="2.2" fill="#2563eb"/>
<circle cx="172.7" cy="599.1" r="2.2" fill="#2563eb"/>
<circle cx="215.0" cy="639.5" r="2.2" fill="#2563eb"/>
<circle cx="253.6" cy="665.1" r="2.2" fill="#2563eb"/>
<circle cx="292.3" cy="683.6" r="2.2" fill="#2563eb"/>
<circle cx="329.8" cy="697.8" r="2.2" fill="#2563eb"/>
<circle cx="367.0" cy="708.3" r="2.2" fill="#2563eb"/>
<circle cx="403.9" cy="716.8" r="2.2" fill="#2563eb"/>
<circle cx="441.9" cy="723.9" r="2.2" fill="#2563eb"/>
<circle cx="479.1" cy="729.5" r="2.2" fill="#2563eb"/>
<circle cx="516.8" cy="734.9" r="2.2" fill="#2563eb"/>
<circle cx="554.0" cy="739.3" r="2.2" fill="#2563eb"/>
<circle cx="591.7" cy="743.3" r="2.2" fill="#2563eb"/>
<circle cx="628.6" cy="747.2" r="2.2" fill="#2563eb"/>
<circle cx="665.9" cy="751.0" r="2.2" fill="#2563eb"/>
<circle cx="703.0" cy="754.3" r="2.2" fill="#2563eb"/>
<circle cx="740.5" cy="757.4" r="2.2" fill="#2563eb"/>
<circle cx="777.6" cy="760.4" r="2.2" fill="#2563eb"/>
<circle cx="814.7" cy="763.1" r="2.2" fill="#2563eb"/>
<circle cx="851.3" cy="765.3" r="2.2" fill="#2563eb"/>
<circle cx="888.7" cy="767.5" r="2.2" fill="#2563eb"/>
<circle cx="925.1" cy="769.6" r="2.2" fill="#2563eb"/>
<circle cx="961.8" cy="771.5" r="2.2" fill="#2563eb"/>
<circle cx="998.5" cy="773.2" r="2.2" fill="#2563eb"/>
<circle cx="1035.7" cy="774.8" r="2.2" fill="#2563eb"/>
<circle cx="1072.1" cy="776.2" r="2.2" fill="#2563eb"/>
<circle cx="1108.8" cy="777.4" r="2.2" fill="#2563eb"/>
<circle cx="1144.4" cy="778.7" r="2.2" fill="#2563eb"/>
<circle cx="1180.6" cy="779.7" r="2.2" fill="#2563eb"/>
<circle cx="1216.1" cy="780.7" r="2.2" fill="#2563eb"/>
<circle cx="1251.6" cy="781.6" r="2.2" fill="#2563eb"/>
<circle cx="1287.0" cy="782.4" r="2.2" fill="#2563eb"/>
<circle cx="1323.1" cy="783.0" r="2.2" fill="#2563eb"/>
<circle cx="1358.5" cy="783.7" r="2.2" fill="#2563eb"/>
<circle cx="1394.0" cy="784.3" r="2.2" fill="#2563eb"/>
<circle cx="1429.4" cy="784.8" r="2.2" fill="#2563eb"/>
<circle cx="1465.6" cy="785.2" r="2.2" fill="#2563eb"/>
<circle cx="1501.0" cy="785.7" r="2.2" fill="#2563eb"/>
<circle cx="1536.5" cy="785.9" r="2.2" fill="#2563eb"/>
<circle cx="1572.0" cy="786.3" r="2.2" fill="#2563eb"/>
</g>
</svg>
