<?xml version="1.0" encoding="UTF-8"?>
<svg xmlns="http://www.w3.org/2000/svg" width="1600" height="900" viewBox="0 0 1600 900" role="img" aria-labelledby="title desc">
<title id="title">OpenWebText baseline loss by training step</title>
<desc id="desc">Loss by training step, with solid training curves and dashed validation curves.</desc>
<rect width="100%" height="100%" fill="#ffffff"/>
<style>text{font-family:ui-sans-serif,system-ui,sans-serif;fill:#334155}.grid{stroke:#e2e8f0;stroke-width:1}.axis{stroke:#64748b;stroke-width:1.2}.curve{fill:none;stroke-linejoin:round;stroke-linecap:round}.tick{font-size:12px}.legend{font-size:12px}.label{font-size:14px}.heading{font-size:20px;font-weight:600;fill:#0f172a}</style>
<clipPath id="plot-area"><rect x="78.0" y="78.0" width="1494.0" height="752.0"/></clipPath>
<text class="heading" x="78.0" y="32">OpenWebText baseline loss by training step</text>
<line x1="78.0" y1="54.0" x2="103.0" y2="54.0" stroke="#2563eb" stroke-width="2"/>
<text class="legend" x="109.0" y="58.0">train_owt train</text>
<line x1="451.5" y1="54.0" x2="476.5" y2="54.0" stroke="#2563eb" stroke-width="2" stroke-dasharray="7 4"/>
<text class="legend" x="482.5" y="58.0">train_owt val</text>
<line class="grid" x1="78.0" y1="78.0" x2="78.0" y2="830.0"/>
<text class="tick" x="78.0" y="853.0" text-anchor="middle">0</text>
<line class="grid" x1="376.8" y1="78.0" x2="376.8" y2="830.0"/>
<text class="tick" x="376.8" y="853.0" text-anchor="middle">2000</text>
<line class="grid" x1="675.6" y1="78.0" x2="675.6" y2="830.0"/>
<text class="tick" x="675.6" y="853.0" text-anchor="middle">4000</text>
<line class="grid" x1="974.4" y1="78.0" x2="974.4" y2="830.0"/>
<text class="tick" x="974.4" y="853.0" text-anchor="middle">6000</text>
<line class="grid" x1="1273.2" y1="78.0" x2="1273.2" y2="830.0"/>
<text class="tick" x="1273.2" y="853.0" text-anchor="middle">8000</text>
<line class="grid" x1="1572.0" y1="78.0" x2="1572.0" y2="830.0"/>
<text class="tick" x="1572.0" y="853.0" text-anchor="middle">1.0e+04</text>
<line class="grid" x1="78.0" y1="78.0" x2="1572.0" y2="78.0"/>
<text class="tick" x="67.0" y="82.0" text-anchor="end">10.7</text>
<line class="grid" x1="78.0" y1="228.4" x2="1572.0" y2="228.4"/>
<text class="tick" x="67.0" y="232.4" text-anchor="end">9.34</text>
<line class="grid" x1="78.0" y1="378.8" x2="1572.0" y2="378.8"/>
<text class="tick" x="67.0" y="382.8" text-anchor="end">7.98</text>
<line class="grid" x1="78.0" y1="529.2" x2="1572.0" y2="529.2"/>
<text class="tick" x="67.0" y="533.2" text-anchor="end">6.62</text>
<line class="grid" x1="78.0" y1="679.6" x2="1572.0" y2="679.6"/>
<text class="tick" x="67.0" y="683.6" text-anchor="end">5.26</text>
<line class="grid" x1="78.0" y1="830.0" x2="1572.0" y2="830.0"/>
<text class="tick" x="67.0" y="834.0" text-anchor="end">3.9</text>
<line class="axis" x1="78.0" y1="830.0" x2="1572.0" y2="830.0"/>
<line class="axis" x1="78.0" y1="78.0" x2="78.0" y2="830.0"/>
<text class="label" x="825.0" y="880.0" text-anchor="middle">step</text>
<text class="label" x="20" y="454.0" text-anchor="middle" transform="rotate(-90 20 454.0)">loss</text>
<g clip-path="url(#plot-area)">
<polyline class="curve" points="78.1,112.2 79.5,113.3 81.0,117.2 82.5,124.5 84.0,135.3 85.5,153.4 87.0,175.6 88.5,203.9 90.0,228.1 91.4,253.9 92.9,279.3 94.4,309.8 95.9,338.0 97.4,363.0 98.9,388.2 100.4,402.7 101.9,426.8 103.4,435.3 104.9,449.1 106.4,454.6 107.9,457.7 109.4,469.1 110.9,488.1 112.4,485.7 113.9,501.2 115.3,512.6 116.8,512.9 118.3,512.9 119.8,530.0 121.3,533.3 122.8,526.9 124.3,537.1 125.8,549.5 127.3,556.8 128.8,554.7 130.3,563.7 131.8,560.4 133.3,564.1 134.8,564.2 136.3,575.6 137.8,571.4 139.3,574.4 140.7,581.4 142.2,573.1 143.7,586.9 145.2,590.8 146.7,594.6 148.2,590.5 149.7,598.7 151.2,596.9 152.7,600.5 154.2,606.9 155.7,611.0 157.2,605.5 158.7,607.9 160.2,602.3 161.7,616.9 163.2,606.9 164.7,612.1 166.1,614.3 167.6,615.3 169.1,621.4 170.6,627.2 172.1,628.1 173.6,622.3 175.1,630.6 176.6,621.9 178.1,624.3 179.6,640.0 181.1,630.5 182.6,624.3 184.1,634.3 185.6,642.7 187.1,641.9 188.6,641.5 190.1,636.3 191.5,643.8 193.0,652.1 194.5,643.8 196.0,649.8 197.5,641.2 199.0,644.3 200.5,654.4 202.0,647.7 203.5,651.8 205.0,646.1 206.5,657.8 208.0,653.1 209.5,645.5 211.0,651.2 212.5,659.8 214.0,656.4 215.4,661.5 216.9,651.1 218.4,656.4 219.9,659.3 221.4,670.0 222.9,665.5 224.4,670.6 225.9,663.5 227.4,663.4 228.9,665.3 230.4,654.9 231.9,664.3 233.4,658.5 234.9,669.4 236.4,677.7 237.9,677.5 239.4,673.0 240.8,671.2 242.3,667.9 243.8,674.9 245.3,671.8 246.8,668.2 248.3,676.4 249.8,684.4 251.3,682.8 252.8,671.6 254.3,681.4 255.8,687.9 257.3,677.0 258.8,686.1 260.3,684.3 261.8,678.1 263.3,683.4 264.8,678.9 266.2,694.9 267.7,682.1 269.2,684.8 270.7,686.7 272.2,688.2 273.7,696.2 275.2,689.8 276.7,689.2 278.2,684.2 279.7,691.4 281.2,686.6 282.7,691.9 284.2,686.0 285.7,699.8 287.2,686.9 288.7,693.3 290.1,698.5 291.6,687.5 293.1,690.6 294.6,691.9 296.1,699.4 297.6,693.2 299.1,692.8 300.6,703.0 302.1,698.2 303.6,696.5 305.1,699.7 306.6,695.3 308.1,694.2 309.6,705.8 311.1,704.8 312.6,703.2 314.1,699.2 315.5,703.3 317.0,705.9 318.5,702.2 320.0,702.3 321.5,701.9 323.0,699.8 324.5,705.5 326.0,708.8 327.5,709.4 329.0,706.3 330.5,703.2 332.0,703.2 333.5,708.3 335.0,704.8 336.5,705.7 338.0,705.0 339.4,704.7 340.9,703.0 342.4,706.8 343.9,706.0 345.4,710.3 346.9,707.0 348.4,716.6 349.9,705.9 351.4,709.6 352.9,714.4 354.4,707.7 355.9,712.5 357.4,717.0 358.9,718.1 360.4,713.6 361.9,719.0 363.4,716.5 364.8,711.8 366.3,722.0 367.8,714.0 369.3,704.9 370.8,711.4 372.3,726.7 373.8,714.7 375.3,710.2 376.8,713.2 378.3,713.9 379.8,722.1 381.3,715.1 382.8,724.7 384.3,716.9 385.8,715.5 387.3,717.7 388.8,713.2 390.2,717.8 391.7,718.0 393.2,720.2 394.7,719.8 396.2,714.7 397.7,726.3 399.2,724.1 400.7,712.6 402.2,720.2 403.7,716.0 405.2,716.7 406.7,713.0 408.2,730.0 409.7,722.2 411.2,720.6 412.7,722.5 414.2,716.8 415.6,721.2 417.1,721.6 418.6,732.8 420.1,723.3 421.6,720.7 423.1,728.5 424.6,723.1 426.1,720.7 427.6,718.2 429.1,717.7 430.6,726.4 432.1,727.9 433.6,718.0 435.1,728.1 436.6,729.4 438.1,732.2 439.5,728.9 441.0,724.6 442.5,725.9 444.0,725.6 445.5,724.8 447.0,722.1 448.5,722.9 450.0,738.7 451.5,733.4 453.0,730.9 454.5,725.6 456.0,727.6 457.5,735.2 459.0,734.6 460.5,730.9 462.0,731.6 463.5,730.0 464.9,734.7 466.4,730.0 467.9,725.4 469.4,730.7 470.9,731.2 472.4,723.0 473.9,732.7 475.4,733.3 476.9,738.7 478.4,737.3 479.9,730.5 481.4,731.0 482.9,732.3 484.4,739.1 485.9,736.5 487.4,726.0 488.9,736.3 490.3,728.5 491.8,730.5 493.3,738.6 494.8,737.0 496.3,740.0 497.8,737.9 499.3,736.5 500.8,736.8 502.3,734.5 503.8,734.5 505.3,746.8 506.8,731.3 508.3,748.2 509.8,748.7 511.3,741.5 512.8,736.7 514.2,742.9 515.7,739.3 517.2,743.5 518.7,736.4 520.2,740.8 521.7,743.5 523.2,737.2 524.7,729.4 526.2,734.9 527.7,736.5 529.2,738.6 530.7,731.8 532.2,730.8 533.7,728.8 535.2,750.4 536.7,742.7 538.2,750.9 539.6,740.8 541.1,743.5 542.6,736.3 544.1,742.2 545.6,738.5 547.1,741.2 548.6,741.6 550.1,737.7 551.6,743.5 553.1,736.2 554.6,743.7 556.1,744.8 557.6,738.8 559.1,738.4 560.6,749.4 562.1,746.8 563.5,740.5 565.0,746.6 566.5,742.2 568.0,742.5 569.5,741.6 571.0,742.1 572.5,739.6 574.0,740.8 575.5,748.1 577.0,743.5 578.5,740.2 580.0,753.5 581.5,749.0 583.0,744.0 584.5,748.7 586.0,755.0 587.5,752.2 588.9,748.2 590.4,740.3 591.9,739.9 593.4,748.7 594.9,745.3 596.4,743.5 597.9,739.6 599.4,738.4 600.9,745.5 602.4,752.1 603.9,743.2 605.4,753.3 606.9,752.9 608.4,750.8 609.9,746.9 611.4,742.2 612.9,744.4 614.3,755.2 615.8,751.7 617.3,741.9 618.8,746.3 620.3,748.9 621.8,752.1 623.3,747.6 624.8,746.7 626.3,751.2 627.8,746.9 629.3,752.2 630.8,750.4 632.3,752.8 633.8,747.6 635.3,745.8 636.8,758.3 638.2,746.8 639.7,743.4 641.2,757.7 642.7,749.0 644.2,748.8 645.7,746.1 647.2,749.6 648.7,752.5 650.2,752.4 651.7,759.3 653.2,751.8 654.7,760.5 656.2,752.3 657.7,750.5 659.2,754.7 660.7,752.8 662.2,748.8 663.6,755.7 665.1,750.6 666.6,754.7 668.1,752.9 669.6,745.6 671.1,750.3 672.6,746.8 674.1,755.3 675.6,755.1 677.1,749.1 678.6,751.7 680.1,758.8 681.6,758.0 683.1,752.7 684.6,760.6 686.1,758.6 687.6,758.0 689.0,753.7 690.5,758.3 692.0,758.5 693.5,757.3 695.0,753.2 696.5,754.9 698.0,760.9 699.5,757.0 701.0,753.1 702.5,756.6 704.0,750.6 705.5,754.6 707.0,764.0 708.5,756.4 710.0,752.2 711.5,754.4 712.9,759.0 714.4,757.8 715.9,752.8 717.4,765.7 718.9,758.1 720.4,763.4 721.9,750.2 723.4,765.2 724.9,759.6 726.4,759.3 727.9,755.9 729.4,757.3 730.9,756.2 732.4,766.2 733.9,766.3 735.4,759.4 736.9,759.2 738.3,761.0 739.8,767.4 741.3,763.4 742.8,763.1 744.3,754.7 745.8,758.0 747.3,756.6 748.8,753.7 750.3,755.3 751.8,766.8 753.3,757.9 754.8,768.7 756.3,765.2 757.8,754.6 759.3,760.2 760.8,764.6 762.3,766.2 763.7,757.9 765.2,760.1 766.7,760.8 768.2,766.6 769.7,763.1 771.2,767.5 772.7,766.5 774.2,756.9 775.7,768.4 777.2,758.4 778.7,756.7 780.2,760.6 781.7,770.4 783.2,773.6 784.7,757.3 786.2,753.5 787.6,755.8 789.1,762.0 790.6,763.7 792.1,765.3 793.6,758.8 795.1,766.5 796.6,769.9 798.1,760.6 799.6,759.8 801.1,760.1 802.6,763.2 804.1,763.1 805.6,762.3 807.1,770.5 808.6,767.0 810.1,758.1 811.6,772.0 813.0,760.7 814.5,770.4 816.0,759.0 817.5,762.9 819.0,764.4 820.5,779.3 822.0,760.2 823.5,762.6 825.0,766.9 826.5,764.0 828.0,769.2 829.5,754.9 831.0,756.7 832.5,765.3 834.0,767.2 835.5,770.1 837.0,772.9 838.4,767.5 839.9,764.1 841.4,760.4 842.9,763.1 844.4,769.6 845.9,767.0 847.4,767.2 848.9,764.3 850.4,768.5 851.9,762.1 853.4,773.1 854.9,765.9 856.4,769.6 857.9,774.3 859.4,760.8 860.9,767.1 862.4,768.1 863.8,769.6 865.3,766.1 866.8,766.9 868.3,772.2 869.8,769.3 871.3,775.4 872.8,770.2 874.3,765.7 875.8,761.3 877.3,762.1 878.8,763.2 880.3,775.8 881.8,769.1 883.3,768.4 884.8,769.5 886.3,767.8 887.7,772.1 889.2,776.0 890.7,767.2 892.2,767.7 893.7,773.1 895.2,763.3 896.7,772.7 898.2,770.1 899.7,763.9 901.2,765.4 902.7,768.1 904.2,766.8 905.7,766.9 907.2,779.1 908.7,767.5 910.2,771.6 911.7,767.8 913.1,770.6 914.6,775.9 916.1,766.0 917.6,771.2 919.1,773.1 920.6,770.7 922.1,770.7 923.6,764.5 925.1,780.5 926.6,775.0 928.1,765.3 929.6,776.8 931.1,768.8 932.6,775.1 934.1,768.6 935.6,770.5 937.0,773.9 938.5,776.5 940.0,775.8 941.5,774.0 943.0,772.5 944.5,774.0 946.0,774.3 947.5,774.2 949.0,768.9 950.5,775.3 952.0,766.7 953.5,778.0 955.0,778.1 956.5,770.5 958.0,775.2 959.5,776.8 961.0,773.8 962.4,781.1 963.9,767.8 965.4,774.6 966.9,779.4 968.4,764.0 969.9,777.1 971.4,775.3 972.9,772.5 974.4,772.3 975.9,770.3 977.4,782.1 978.9,771.0 980.4,772.1 981.9,772.4 983.4,774.4 984.9,781.9 986.4,774.7 987.8,768.5 989.3,769.9 990.8,769.2 992.3,781.1 993.8,780.5 995.3,780.8 996.8,776.6 998.3,783.1 999.8,783.9 1001.3,777.2 1002.8,781.2 1004.3,778.1 1005.8,777.0 1007.3,771.9 1008.8,772.2 1010.3,773.2 1011.8,776.3 1013.2,773.9 1014.7,774.0 1016.2,782.8 1017.7,769.4 1019.2,774.3 1020.7,771.2 1022.2,777.0 1023.7,776.0 1025.2,775.5 1026.7,780.1 1028.2,770.0 1029.7,771.5 1031.2,774.5 1032.7,777.6 1034.2,771.7 1035.7,783.1 1037.1,778.0 1038.6,782.3 1040.1,783.4 1041.6,774.0 1043.1,777.9 1044.6,774.5 1046.1,780.8 1047.6,783.4 1049.1,779.4 1050.6,775.1 1052.1,775.3 1053.6,775.2 1055.1,768.6 1056.6,776.3 1058.1,777.3 1059.6,775.4 1061.1,781.7 1062.5,779.0 1064.0,777.1 1065.5,775.3 1067.0,784.0 1068.5,775.5 1070.0,779.2 1071.5,782.5 1073.0,769.3 1074.5,776.1 1076.0,770.9 1077.5,769.9 1079.0,782.6 1080.5,776.3 1082.0,785.5 1083.5,776.4 1085.0,779.2 1086.5,771.4 1087.9,775.0 1089.4,777.9 1090.9,775.0 1092.4,779.5 1093.9,780.1 1095.4,777.9 1096.9,783.4 1098.4,774.5 1099.9,777.8 1101.4,775.5 1102.9,780.2 1104.4,779.1 1105.9,782.2 1107.4,775.3 1108.9,782.5 1110.4,778.8 1111.8,774.4 1113.3,776.4 1114.8,780.5 1116.3,779.9 1117.8,776.2 1119.3,783.0 1120.8,775.3 1122.3,775.6 1123.8,779.0 1125.3,784.2 1126.8,778.3 1128.3,785.7 1129.8,774.3 1131.3,776.6 1132.8,775.1 1134.3,780.6 1135.8,772.0 1137.2,781.3 1138.7,785.2 1140.2,770.3 1141.7,785.6 1143.2,783.8 1144.7,778.9 1146.2,774.2 1147.7,790.6 1149.2,781.5 1150.7,777.2 1152.2,775.8 1153.7,779.4 1155.2,782.1 1156.7,782.7 1158.2,779.5 1159.7,785.3 1161.1,779.0 1162.6,772.7 1164.1,779.3 1165.6,783.3 1167.1,782.1 1168.6,777.1 1170.1,779.1 1171.6,779.9 1173.1,777.3 1174.6,779.7 1176.1,776.4 1177.6,774.7 1179.1,783.0 1180.6,782.5 1182.1,777.0 1183.6,774.9 1185.1,787.8 1186.5,782.0 1188.0,779.8 1189.5,776.2 1191.0,784.7 1192.5,775.5 1194.0,781.5 1195.5,779.6 1197.0,786.9 1198.5,786.5 1200.0,779.0 1201.5,778.8 1203.0,786.1 1204.5,782.2 1206.0,779.2 1207.5,778.4 1209.0,783.0 1210.5,788.9 1211.9,782.4 1213.4,776.9 1214.9,778.7 1216.4,778.9 1217.9,785.7 1219.4,778.7 1220.9,775.9 1222.4,785.5 1223.9,783.8 1225.4,778.3 1226.9,786.1 1228.4,784.4 1229.9,787.3 1231.4,774.3 1232.9,776.0 1234.4,783.5 1235.9,778.9 1237.3,782.2 1238.8,794.0 1240.3,780.8 1241.8,778.0 1243.3,788.6 1244.8,782.6 1246.3,777.6 1247.8,786.7 1249.3,782.9 1250.8,789.4 1252.3,781.4 1253.8,788.1 1255.3,790.4 1256.8,793.5 1258.3,778.4 1259.8,775.0 1261.2,786.6 1262.7,787.1 1264.2,786.2 1265.7,781.0 1267.2,779.4 1268.7,777.1 1270.2,788.4 1271.7,781.0 1273.2,787.2 1274.7,795.2 1276.2,791.4 1277.7,788.5 1279.2,785.0 1280.7,783.7 1282.2,785.6 1283.7,780.8 1285.2,785.5 1286.6,777.4 1288.1,778.9 1289.6,778.6 1291.1,779.5 1292.6,778.5 1294.1,782.8 1295.6,779.9 1297.1,778.8 1298.6,781.7 1300.1,786.2 1301.6,779.7 1303.1,791.0 1304.6,780.9 1306.1,783.5 1307.6,780.3 1309.1,782.8 1310.5,780.6 1312.0,784.3 1313.5,782.4 1315.0,780.0 1316.5,785.5 1318.0,783.2 1319.5,783.9 1321.0,781.8 1322.5,788.3 1324.0,783.3 1325.5,784.7 1327.0,785.1 1328.5,779.5 1330.0,785.7 1331.5,787.4 1333.0,789.7 1334.5,787.5 1335.9,784.3 1337.4,780.0 1338.9,782.9 1340.4,786.5 1341.9,787.7 1343.4,788.7 1344.9,783.0 1346.4,783.0 1347.9,784.0 1349.4,785.6 1350.9,784.4 1352.4,783.0 1353.9,779.4 1355.4,784.3 1356.9,790.2 1358.4,780.5 1359.9,787.2 1361.3,783.0 1362.8,778.0 1364.3,780.0 1365.8,779.0 1367.3,779.9 1368.8,789.2 1370.3,782.6 1371.8,779.8 1373.3,786.9 1374.8,791.7 1376.3,782.1 1377.8,788.9 1379.3,780.8 1380.8,777.7 1382.3,781.8 1383.8,778.8 1385.2,787.4 1386.7,780.7 1388.2,783.5 1389.7,791.1 1391.2,788.7 1392.7,785.7 1394.2,782.1 1395.7,784.3 1397.2,782.8 1398.7,789.5 1400.2,779.1 1401.7,794.6 1403.2,784.4 1404.7,787.1 1406.2,788.2 1407.7,787.1 1409.2,780.0 1410.6,783.2 1412.1,778.0 1413.6,784.6 1415.1,788.0 1416.6,779.5 1418.1,781.2 1419.6,793.6 1421.1,787.6 1422.6,789.5 1424.1,784.5 1425.6,795.8 1427.1,779.7 1428.6,790.6 1430.1,776.9 1431.6,773.0 1433.1,783.7 1434.6,781.1 1436.0,786.4 1437.5,788.7 1439.0,792.6 1440.5,783.0 1442.0,785.0 1443.5,781.9 1445.0,789.3 1446.5,786.6 1448.0,784.9 1449.5,787.8 1451.0,786.1 1452.5,790.4 1454.0,785.3 1455.5,782.9 1457.0,783.7 1458.5,793.9 1460.0,787.1 1461.4,788.1 1462.9,788.6 1464.4,787.8 1465.9,787.6 1467.4,784.3 1468.9,785.1 1470.4,794.7 1471.9,782.4 1473.4,785.5 1474.9,781.9 1476.4,780.8 1477.9,792.9 1479.4,786.3 1480.9,791.8 1482.4,781.4 1483.9,790.1 1485.3,795.2 1486.8,780.8 1488.3,791.8 1489.8,787.5 1491.3,786.4 1492.8,792.6 1494.3,787.7 1495.8,781.9 1497.3,788.0 1498.8,788.3 1500.3,790.4 1501.8,787.4 1503.3,779.9 1504.8,784.5 1506.3,784.2 1507.8,789.9 1509.3,788.4 1510.7,784.6 1512.2,792.5 1513.7,784.2 1515.2,783.7 1516.7,791.3 1518.2,786.5 1519.7,784.2 1521.2,786.1 1522.7,785.9 1524.2,787.9 1525.7,781.2 1527.2,789.9 1528.7,783.9 1530.2,788.4 1531.7,790.4 1533.2,784.4 1534.6,789.2 1536.1,782.6 1537.6,784.9 1539.1,790.6 1540.6,782.3 1542.1,786.6 1543.6,786.8 1545.1,785.5 1546.6,789.0 1548.1,783.9 1549.6,782.4 1551.1,780.5 1552.6,787.2 1554.1,790.1 1555.6,784.8 1557.1,789.6 1558.6,791.0 1560.0,780.0 1561.5,786.1 1563.0,783.5 1564.5,791.1 1566.0,786.4 1567.5,780.9 1569.0,785.2 1570.5,785.7 1572.0,787.0" stroke="#2563eb" stroke-width="1.7" opacity="0.78"/>
<polyline class="curve" points="78.0,112.2 115.3,507.3 152.7,599.1 190.1,639.5 227.4,665.1 264.8,683.6 302.1,697.8 339.4,708.3 376.8,716.8 414.2,723.9 451.5,729.5 488.9,734.9 526.2,739.3 563.5,743.3 600.9,747.2 638.2,751.0 675.6,754.3 712.9,757.4 750.3,760.4 787.6,763.1 825.0,765.3 862.4,767.5 899.7,769.6 937.0,771.5 974.4,773.2 1011.8,774.8 1049.1,776.2 1086.5,777.4 1123.8,778.7 1161.1,779.7 1198.5,780.7 1235.9,781.6 1273.2,782.4 1310.5,783.0 1347.9,783.7 1385.2,784.3 1422.6,784.8 1460.0,785.2 1497.3,785.7 1534.6,785.9 1572.0,786.3" stroke="#2563eb" stroke-width="2.4" stroke-dasharray="7 4"/>
<circle cx="78.0" cy="112.2" r="2.2" fill="#2563eb"/>
<circle cx="115.3" cy="507.3" r="2.2" fill="#2563eb"/>
<circle cx="152.7" cy="599.1" r="2.2" fill="#2563eb"/>
<circle cx="190.1" cy="639.5" r="2.2" fill="#2563eb"/>
<circle cx="227.4" cy="665.1" r="2.2" fill="#2563eb"/>
<circle cx="264.8" cy="683.6" r="2.2" fill="#2563eb"/>
<circle cx="302.1" cy="697.8" r="2.2" fill="#2563eb"/>
<circle cx="339.4" cy="708.3" r="2.2" fill="#2563eb"/>
<circle cx="376.8" cy="716.8" r="2.2" fill="#2563eb"/>
<circle cx="414.2" cy="723.9" r="2.2" fill="#2563eb"/>
<circle cx="451.5" cy="729.5" r="2.2" fill="#2563eb"/>
<circle cx="488.9" cy="734.9" r="2.2" fill="#2563eb"/>
<circle cx="526.2" cy="739.3" r="2.2" fill="#2563eb"/>
<circle cx="563.5" cy="743.3" r="2.2" fill="#2563eb"/>
<circle cx="600.9" cy="747.2" r="2.2" fill="#2563eb"/>
<circle cx="638.2" cy="751.0" r="2.2" fill="#2563eb"/>
<circle cx="675.6" cy="754.3" r="2.2" fill="#2563eb"/>
<circle cx="712.9" cy="757.4" r="2.2" fill="#2563eb"/>
<circle cx="750.3" cy="760.4" r="2.2" fill="#2563eb"/>
<circle cx="787.6" cy="763.1" r="2.2" fill="#2563eb"/>
<circle cx="825.0" cy="765.3" r="2.2" fill="#2563eb"/>
<circle cx="862.4" cy="767.5" r="2.2" fill="#2563eb"/>
<circle cx="899.7" cy="769.6" r="2.2" fill="#2563eb"/>
<circle cx="937.0" cy="771.5" r="2.2" fill="#2563eb"/>
<circle cx="974.4" cy="773.2" r="2.2" fill="#2563eb"/>
<circle cx="1011.8" cy="774.8" r="2.2" fill="#2563eb"/>
<circle cx="1049.1" cy="776.2" r="2.2" fill="#2563eb"/>
<circle cx="1086.5" cy="777.4" r="2.2" fill="#2563eb"/>
<circle cx="1123.8" cy="778.7" r="2.2" fill="#2563eb"/>
<circle cx="1161.1" cy="779.7" r="2.2" fill="#2563eb"/>
<circle cx="1198.5" cy="780.7" r="2.2" fill="#2563eb"/>
<circle cx="1235.9" cy="781.6" r="2.2" fill="#2563eb"/>
<circle cx="1273.2" cy="782.4" r="2.2" fill="#2563eb"/>
<circle cx="1310.5" cy="783.0" r="2.2" fill="#2563eb"/>
<circle cx="1347.9" cy="783.7" r="2.2" fill="#2563eb"/>
<circle cx="1385.2" cy="784.3" r="2.2" fill="#2563eb"/>
<circle cx="1422.6" cy="784.8" r="2.2" fill="#2563eb"/>
<circle cx="1460.0" cy="785.2" r="2.2" fill="#2563eb"/>
<circle cx="1497.3" cy="785.7" r="2.2" fill="#2563eb"/>
<circle cx="1534.6" cy="785.9" r="2.2" fill="#2563eb"/>
<circle cx="1572.0" cy="786.3" r="2.2" fill="#2563eb"/>
</g>
</svg>
