<?xml version="1.0" encoding="UTF-8"?>
<svg xmlns="http://www.w3.org/2000/svg" width="1600" height="900" viewBox="0 0 1600 900" role="img" aria-labelledby="title desc">
<title id="title">TinyStories baseline loss by training step</title>
<desc id="desc">Loss by training step, with solid training curves and dashed validation curves.</desc>
<rect width="100%" height="100%" fill="#ffffff"/>
<style>text{font-family:ui-sans-serif,system-ui,sans-serif;fill:#334155}.grid{stroke:#e2e8f0;stroke-width:1}.axis{stroke:#64748b;stroke-width:1.2}.curve{fill:none;stroke-linejoin:round;stroke-linecap:round}.tick{font-size:12px}.legend{font-size:12px}.label{font-size:14px}.heading{font-size:20px;font-weight:600;fill:#0f172a}</style>
<clipPath id="plot-area"><rect x="78.0" y="78.0" width="1494.0" height="752.0"/></clipPath>
<text class="heading" x="78.0" y="32">TinyStories baseline loss by training step</text>
<line x1="78.0" y1="54.0" x2="103.0" y2="54.0" stroke="#2563eb" stroke-width="2"/>
<text class="legend" x="109.0" y="58.0">train_tinystories train</text>
<line x1="451.5" y1="54.0" x2="476.5" y2="54.0" stroke="#2563eb" stroke-width="2" stroke-dasharray="7 4"/>
<text class="legend" x="482.5" y="58.0">train_tinystories val</text>
<line class="grid" x1="78.0" y1="78.0" x2="78.0" y2="830.0"/>
<text class="tick" x="78.0" y="853.0" text-anchor="middle">0</text>
<line class="grid" x1="376.8" y1="78.0" x2="376.8" y2="830.0"/>
<text class="tick" x="376.8" y="853.0" text-anchor="middle">2000</text>
<line class="grid" x1="675.6" y1="78.0" x2="675.6" y2="830.0"/>
<text class="tick" x="675.6" y="853.0" text-anchor="middle">4000</text>
<line class="grid" x1="974.4" y1="78.0" x2="974.4" y2="830.0"/>
<text class="tick" x="974.4" y="853.0" text-anchor="middle">6000</text>
<line class="grid" x1="1273.2" y1="78.0" x2="1273.2" y2="830.0"/>
<text class="tick" x="1273.2" y="853.0" text-anchor="middle">8000</text>
<line class="grid" x1="1572.0" y1="78.0" x2="1572.0" y2="830.0"/>
<text class="tick" x="1572.0" y="853.0" text-anchor="middle">1.0e+04</text>
<line class="grid" x1="78.0" y1="78.0" x2="1572.0" y2="78.0"/>
<text class="tick" x="67.0" y="82.0" text-anchor="end">9.66</text>
<line class="grid" x1="78.0" y1="228.4" x2="1572.0" y2="228.4"/>
<text class="tick" x="67.0" y="232.4" text-anchor="end">7.91</text>
<line class="grid" x1="78.0" y1="378.8" x2="1572.0" y2="378.8"/>
<text class="tick" x="67.0" y="382.8" text-anchor="end">6.16</text>
<line class="grid" x1="78.0" y1="529.2" x2="1572.0" y2="529.2"/>
<text class="tick" x="67.0" y="533.2" text-anchor="end">4.41</text>
<line class="grid" x1="78.0" y1="679.6" x2="1572.0" y2="679.6"/>
<text class="tick" x="67.0" y="683.6" text-anchor="end">2.65</text>
<line class="grid" x1="78.0" y1="830.0" x2="1572.0" y2="830.0"/>
<text class="tick" x="67.0" y="834.0" text-anchor="end">0.904</text>
<line class="axis" x1="78.0" y1="830.0" x2="1572.0" y2="830.0"/>
<line class="axis" x1="78.0" y1="78.0" x2="78.0" y2="830.0"/>
<text class="label" x="825.0" y="880.0" text-anchor="middle">step</text>
<text class="label" x="20" y="454.0" text-anchor="middle" transform="rotate(-90 20 454.0)">loss</text>
<g clip-path="url(#plot-area)">
<polyline class="curve" points="78.1,112.2 79.5,120.6 81.0,148.7 82.5,193.0 84.0,240.1 85.5,293.4 87.0,345.7 88.5,400.1 90.0,446.2 91.4,479.0 92.9,514.2 94.4,541.0 95.9,556.5 97.4,572.3 98.9,581.7 100.4,596.2 101.9,606.0 103.4,615.0 104.9,624.0 106.4,629.4 107.9,629.1 109.4,641.2 110.9,647.3 112.4,644.4 113.9,649.2 115.3,661.3 116.8,660.4 118.3,664.9 119.8,665.6 121.3,673.1 122.8,678.7 124.3,682.4 125.8,679.1 127.3,683.7 128.8,688.2 130.3,680.1 131.8,689.0 133.3,683.1 134.8,690.6 136.3,690.8 137.8,698.1 139.3,691.4 140.7,699.6 142.2,698.9 143.7,701.4 145.2,705.3 146.7,704.9 148.2,702.9 149.7,705.3 151.2,709.9 152.7,711.4 154.2,708.6 155.7,712.6 157.2,714.8 158.7,715.8 160.2,718.8 161.7,721.5 163.2,726.2 164.7,724.8 166.1,719.1 167.6,725.6 169.1,725.0 170.6,730.8 172.1,726.8 173.6,726.6 175.1,732.4 176.6,733.7 178.1,733.7 179.6,732.8 181.1,733.4 182.6,731.7 184.1,728.2 185.6,735.2 187.1,736.0 188.6,732.3 190.1,732.9 191.5,734.7 193.0,734.7 194.5,738.0 196.0,736.4 197.5,736.6 199.0,741.8 200.5,741.0 202.0,737.9 203.5,740.1 205.0,736.1 206.5,740.9 208.0,738.5 209.5,740.2 211.0,740.9 212.5,745.7 214.0,741.9 215.4,739.9 216.9,735.0 218.4,740.0 219.9,744.1 221.4,746.2 222.9,746.2 224.4,745.2 225.9,745.4 227.4,742.8 228.9,744.0 230.4,748.0 231.9,743.3 233.4,746.0 234.9,744.0 236.4,747.9 237.9,745.2 239.4,751.0 240.8,753.6 242.3,747.4 243.8,752.4 245.3,752.6 246.8,746.4 248.3,750.5 249.8,745.9 251.3,752.7 252.8,745.2 254.3,750.3 255.8,752.1 257.3,744.7 258.8,751.0 260.3,750.2 261.8,751.2 263.3,750.2 264.8,752.3 266.2,749.7 267.7,749.9 269.2,753.5 270.7,751.3 272.2,755.2 273.7,746.8 275.2,753.5 276.7,752.8 278.2,750.5 279.7,750.3 281.2,753.2 282.7,756.0 284.2,753.6 285.7,752.0 287.2,756.9 288.7,753.3 290.1,756.7 291.6,757.0 293.1,754.3 294.6,755.0 296.1,758.8 297.6,752.7 299.1,756.4 300.6,751.8 302.1,755.6 303.6,755.3 305.1,761.6 306.6,754.6 308.1,753.1 309.6,758.8 311.1,759.4 312.6,760.9 314.1,760.9 315.5,761.1 317.0,760.0 318.5,758.4 320.0,763.4 321.5,758.9 323.0,760.6 324.5,757.5 326.0,758.5 327.5,761.9 329.0,759.9 330.5,758.1 332.0,758.9 333.5,760.4 335.0,754.2 336.5,760.4 338.0,764.8 339.4,758.8 340.9,757.6 342.4,763.4 343.9,759.0 345.4,759.3 346.9,763.3 348.4,760.7 349.9,759.4 351.4,757.8 352.9,759.8 354.4,761.1 355.9,758.5 357.4,763.5 358.9,761.4 360.4,760.8 361.9,757.5 363.4,763.1 364.8,767.6 366.3,761.7 367.8,763.4 369.3,765.6 370.8,760.9 372.3,760.9 373.8,767.9 375.3,761.5 376.8,764.4 378.3,765.2 379.8,762.5 381.3,763.4 382.8,766.8 384.3,765.7 385.8,764.4 387.3,764.1 388.8,761.3 390.2,761.1 391.7,768.2 393.2,762.6 394.7,764.9 396.2,760.2 397.7,764.8 399.2,768.0 400.7,764.5 402.2,765.6 403.7,766.8 405.2,767.1 406.7,762.5 408.2,767.9 409.7,767.0 411.2,766.0 412.7,766.9 414.2,761.8 415.6,764.3 417.1,767.0 418.6,767.8 420.1,766.3 421.6,766.4 423.1,768.6 424.6,766.9 426.1,765.7 427.6,768.7 429.1,768.0 430.6,763.4 432.1,764.5 433.6,765.6 435.1,768.5 436.6,765.7 438.1,765.6 439.5,770.7 441.0,769.0 442.5,763.6 444.0,766.3 445.5,766.0 447.0,772.1 448.5,767.9 450.0,772.6 451.5,765.7 453.0,768.5 454.5,765.1 456.0,769.5 457.5,768.2 459.0,764.7 460.5,765.6 462.0,767.8 463.5,768.8 464.9,769.4 466.4,767.2 467.9,763.4 469.4,770.5 470.9,767.9 472.4,767.8 473.9,763.4 475.4,771.4 476.9,767.9 478.4,769.0 479.9,768.2 481.4,769.2 482.9,769.4 484.4,764.4 485.9,771.8 487.4,772.5 488.9,769.5 490.3,763.2 491.8,770.3 493.3,765.3 494.8,770.6 496.3,771.6 497.8,769.2 499.3,769.4 500.8,773.5 502.3,770.7 503.8,762.9 505.3,768.9 506.8,771.8 508.3,766.9 509.8,770.5 511.3,770.3 512.8,767.7 514.2,770.0 515.7,771.7 517.2,773.1 518.7,767.3 520.2,769.3 521.7,765.6 523.2,773.4 524.7,765.7 526.2,768.5 527.7,768.5 529.2,774.3 530.7,765.0 532.2,767.5 533.7,771.5 535.2,769.8 536.7,774.0 538.2,767.6 539.6,772.6 541.1,769.4 542.6,771.5 544.1,773.9 545.6,772.8 547.1,769.7 548.6,768.7 550.1,771.2 551.6,772.4 553.1,771.4 554.6,769.5 556.1,772.5 557.6,773.0 559.1,764.6 560.6,770.9 562.1,772.0 563.5,773.4 565.0,771.1 566.5,770.7 568.0,774.9 569.5,772.6 571.0,772.6 572.5,772.1 574.0,774.0 575.5,771.1 577.0,774.4 578.5,771.8 580.0,770.5 581.5,778.3 583.0,776.0 584.5,776.0 586.0,772.6 587.5,775.7 588.9,770.9 590.4,771.3 591.9,769.0 593.4,773.6 594.9,772.3 596.4,776.8 597.9,772.4 599.4,772.9 600.9,775.3 602.4,772.1 603.9,776.4 605.4,770.7 606.9,775.0 608.4,775.5 609.9,778.9 611.4,777.1 612.9,770.7 614.3,774.3 615.8,770.7 617.3,770.5 618.8,774.6 620.3,772.5 621.8,773.7 623.3,775.7 624.8,770.2 626.3,776.6 627.8,775.6 629.3,773.5 630.8,775.1 632.3,776.5 633.8,777.2 635.3,767.8 636.8,771.8 638.2,774.6 639.7,771.0 641.2,772.1 642.7,776.2 644.2,774.2 645.7,776.3 647.2,776.2 648.7,773.1 650.2,775.6 651.7,774.3 653.2,772.9 654.7,772.2 656.2,775.4 657.7,774.3 659.2,778.8 660.7,776.3 662.2,775.1 663.6,777.5 665.1,772.1 666.6,775.3 668.1,777.5 669.6,775.7 671.1,774.6 672.6,774.2 674.1,775.7 675.6,778.8 677.1,777.6 678.6,778.0 680.1,777.5 681.6,775.8 683.1,778.2 684.6,778.9 686.1,778.3 687.6,772.7 689.0,779.2 690.5,774.5 692.0,776.4 693.5,774.2 695.0,775.9 696.5,780.3 698.0,775.6 699.5,779.5 701.0,779.0 702.5,774.2 704.0,776.0 705.5,773.7 707.0,776.4 708.5,776.5 710.0,777.4 711.5,779.9 712.9,777.0 714.4,776.6 715.9,776.5 717.4,777.6 718.9,776.7 720.4,770.8 721.9,777.1 723.4,779.5 724.9,776.2 726.4,776.4 727.9,774.5 729.4,779.9 730.9,776.6 732.4,776.7 733.9,778.3 735.4,779.1 736.9,776.4 738.3,780.7 739.8,779.8 741.3,779.9 742.8,778.0 744.3,780.8 745.8,778.2 747.3,782.7 748.8,776.1 750.3,776.0 751.8,776.7 753.3,779.1 754.8,778.3 756.3,773.2 757.8,779.4 759.3,777.8 760.8,777.0 762.3,777.1 763.7,776.8 765.2,778.0 766.7,779.8 768.2,779.0 769.7,778.5 771.2,780.4 772.7,778.1 774.2,778.2 775.7,776.4 777.2,779.3 778.7,777.1 780.2,779.4 781.7,775.3 783.2,779.4 784.7,781.2 786.2,779.7 787.6,780.2 789.1,776.8 790.6,779.7 792.1,779.6 793.6,778.0 795.1,781.7 796.6,780.9 798.1,777.8 799.6,777.2 801.1,781.5 802.6,773.8 804.1,778.6 805.6,781.3 807.1,777.3 808.6,784.8 810.1,782.0 811.6,779.3 813.0,781.0 814.5,784.4 816.0,778.2 817.5,775.6 819.0,781.5 820.5,782.3 822.0,782.8 823.5,782.9 825.0,781.7 826.5,780.8 828.0,782.2 829.5,780.7 831.0,783.3 832.5,779.9 834.0,778.8 835.5,784.4 837.0,778.5 838.4,781.0 839.9,777.7 841.4,782.7 842.9,783.8 844.4,782.6 845.9,779.7 847.4,781.3 848.9,783.3 850.4,783.7 851.9,779.2 853.4,781.6 854.9,778.3 856.4,778.5 857.9,778.7 859.4,775.1 860.9,783.7 862.4,779.3 863.8,778.0 865.3,787.7 866.8,779.7 868.3,781.9 869.8,784.0 871.3,780.0 872.8,784.0 874.3,783.5 875.8,777.7 877.3,779.6 878.8,778.5 880.3,783.4 881.8,780.3 883.3,777.1 884.8,782.8 886.3,784.3 887.7,784.6 889.2,785.1 890.7,781.4 892.2,784.7 893.7,782.1 895.2,778.5 896.7,783.1 898.2,778.6 899.7,781.4 901.2,780.4 902.7,782.7 904.2,776.2 905.7,778.4 907.2,779.3 908.7,778.8 910.2,780.0 911.7,784.0 913.1,782.3 914.6,778.7 916.1,786.7 917.6,781.3 919.1,781.1 920.6,783.7 922.1,782.3 923.6,783.6 925.1,780.6 926.6,780.9 928.1,783.5 929.6,783.4 931.1,783.8 932.6,783.8 934.1,785.8 935.6,779.2 937.0,783.7 938.5,784.0 940.0,779.5 941.5,781.2 943.0,785.0 944.5,781.2 946.0,776.8 947.5,783.2 949.0,780.9 950.5,783.7 952.0,782.1 953.5,784.7 955.0,781.5 956.5,780.3 958.0,785.3 959.5,780.9 961.0,783.9 962.4,782.8 963.9,788.4 965.4,784.5 966.9,778.8 968.4,783.5 969.9,784.2 971.4,781.0 972.9,781.8 974.4,780.3 975.9,782.0 977.4,784.4 978.9,785.9 980.4,784.7 981.9,784.4 983.4,783.8 984.9,780.5 986.4,785.7 987.8,784.5 989.3,783.2 990.8,782.7 992.3,783.6 993.8,783.6 995.3,782.3 996.8,783.6 998.3,785.5 999.8,785.3 1001.3,785.6 1002.8,785.9 1004.3,787.1 1005.8,778.7 1007.3,788.2 1008.8,785.9 1010.3,783.0 1011.8,785.6 1013.2,785.1 1014.7,782.4 1016.2,782.0 1017.7,782.4 1019.2,784.1 1020.7,784.7 1022.2,784.1 1023.7,782.6 1025.2,785.2 1026.7,783.2 1028.2,782.2 1029.7,783.5 1031.2,783.9 1032.7,786.7 1034.2,783.1 1035.7,783.6 1037.1,780.8 1038.6,781.1 1040.1,785.2 1041.6,787.7 1043.1,785.0 1044.6,786.8 1046.1,785.5 1047.6,785.5 1049.1,782.8 1050.6,784.7 1052.1,784.4 1053.6,779.4 1055.1,782.2 1056.6,788.3 1058.1,786.8 1059.6,782.3 1061.1,784.9 1062.5,787.0 1064.0,785.9 1065.5,780.9 1067.0,784.0 1068.5,785.3 1070.0,781.3 1071.5,786.0 1073.0,779.8 1074.5,780.8 1076.0,787.6 1077.5,788.2 1079.0,786.7 1080.5,784.8 1082.0,787.7 1083.5,785.4 1085.0,786.9 1086.5,784.6 1087.9,787.3 1089.4,780.5 1090.9,788.6 1092.4,784.8 1093.9,787.8 1095.4,781.5 1096.9,787.6 1098.4,789.0 1099.9,785.8 1101.4,787.6 1102.9,783.1 1104.4,786.9 1105.9,784.3 1107.4,785.1 1108.9,788.9 1110.4,785.1 1111.8,783.8 1113.3,785.3 1114.8,787.6 1116.3,786.0 1117.8,788.6 1119.3,789.1 1120.8,785.8 1122.3,786.2 1123.8,783.0 1125.3,788.8 1126.8,785.9 1128.3,788.9 1129.8,787.2 1131.3,787.0 1132.8,788.5 1134.3,789.1 1135.8,785.9 1137.2,784.9 1138.7,785.7 1140.2,786.4 1141.7,787.4 1143.2,785.3 1144.7,790.1 1146.2,784.0 1147.7,788.5 1149.2,785.2 1150.7,781.4 1152.2,786.0 1153.7,784.7 1155.2,786.9 1156.7,785.5 1158.2,783.8 1159.7,781.2 1161.1,785.6 1162.6,788.9 1164.1,787.3 1165.6,787.5 1167.1,787.5 1168.6,784.3 1170.1,786.2 1171.6,785.4 1173.1,787.4 1174.6,787.3 1176.1,791.4 1177.6,785.1 1179.1,786.8 1180.6,787.8 1182.1,790.3 1183.6,786.4 1185.1,789.3 1186.5,787.1 1188.0,782.8 1189.5,787.7 1191.0,785.3 1192.5,784.2 1194.0,788.0 1195.5,788.8 1197.0,785.1 1198.5,784.5 1200.0,791.4 1201.5,783.2 1203.0,791.6 1204.5,786.9 1206.0,786.9 1207.5,785.4 1209.0,786.3 1210.5,787.8 1211.9,787.4 1213.4,787.6 1214.9,789.6 1216.4,785.5 1217.9,787.6 1219.4,788.3 1220.9,786.1 1222.4,788.1 1223.9,788.1 1225.4,788.1 1226.9,790.1 1228.4,787.3 1229.9,787.3 1231.4,786.9 1232.9,790.6 1234.4,785.2 1235.9,788.1 1237.3,784.4 1238.8,791.0 1240.3,791.0 1241.8,786.5 1243.3,788.2 1244.8,782.8 1246.3,789.2 1247.8,786.5 1249.3,786.0 1250.8,787.4 1252.3,787.9 1253.8,790.1 1255.3,788.7 1256.8,788.0 1258.3,790.3 1259.8,787.4 1261.2,789.9 1262.7,786.4 1264.2,787.4 1265.7,783.7 1267.2,785.3 1268.7,785.2 1270.2,788.8 1271.7,791.2 1273.2,786.6 1274.7,787.8 1276.2,786.7 1277.7,788.9 1279.2,789.2 1280.7,787.1 1282.2,786.1 1283.7,789.7 1285.2,791.7 1286.6,789.8 1288.1,788.8 1289.6,786.7 1291.1,784.4 1292.6,787.5 1294.1,788.3 1295.6,788.9 1297.1,789.1 1298.6,788.9 1300.1,791.2 1301.6,788.3 1303.1,790.4 1304.6,785.6 1306.1,792.0 1307.6,792.1 1309.1,791.0 1310.5,787.8 1312.0,786.6 1313.5,785.3 1315.0,787.2 1316.5,787.1 1318.0,793.2 1319.5,788.2 1321.0,787.8 1322.5,791.1 1324.0,783.7 1325.5,782.5 1327.0,787.8 1328.5,792.1 1330.0,788.4 1331.5,787.0 1333.0,791.0 1334.5,785.1 1335.9,787.5 1337.4,788.6 1338.9,787.6 1340.4,792.5 1341.9,791.3 1343.4,786.4 1344.9,789.4 1346.4,790.0 1347.9,788.1 1349.4,786.8 1350.9,789.3 1352.4,783.7 1353.9,788.9 1355.4,785.8 1356.9,784.3 1358.4,789.4 1359.9,791.2 1361.3,785.1 1362.8,787.2 1364.3,786.3 1365.8,784.6 1367.3,789.1 1368.8,790.0 1370.3,792.6 1371.8,791.0 1373.3,790.9 1374.8,795.8 1376.3,785.0 1377.8,787.9 1379.3,791.0 1380.8,786.3 1382.3,788.0 1383.8,791.6 1385.2,788.6 1386.7,791.1 1388.2,794.4 1389.7,791.0 1391.2,789.7 1392.7,792.4 1394.2,786.6 1395.7,792.4 1397.2,788.2 1398.7,788.8 1400.2,784.1 1401.7,791.5 1403.2,790.1 1404.7,792.0 1406.2,788.0 1407.7,787.4 1409.2,794.7 1410.6,790.7 1412.1,792.2 1413.6,794.1 1415.1,789.9 1416.6,789.5 1418.1,786.5 1419.6,787.1 1421.1,790.7 1422.6,786.9 1424.1,787.3 1425.6,789.7 1427.1,791.2 1428.6,791.1 1430.1,787.5 1431.6,789.5 1433.1,795.4 1434.6,788.1 1436.0,792.2 1437.5,788.6 1439.0,791.3 1440.5,791.6 1442.0,790.9 1443.5,792.7 1445.0,783.7 1446.5,787.7 1448.0,790.6 1449.5,784.8 1451.0,784.0 1452.5,789.8 1454.0,790.5 1455.5,792.3 1457.0,786.3 1458.5,786.0 1460.0,788.2 1461.4,790.3 1462.9,790.2 1464.4,788.6 1465.9,791.1 1467.4,788.3 1468.9,786.0 1470.4,786.5 1471.9,785.7 1473.4,792.0 1474.9,790.8 1476.4,790.3 1477.9,790.1 1479.4,787.5 1480.9,791.3 1482.4,790.3 1483.9,786.6 1485.3,793.0 1486.8,792.1 1488.3,786.8 1489.8,790.0 1491.3,790.6 1492.8,789.7 1494.3,788.7 1495.8,789.4 1497.3,793.0 1498.8,790.5 1500.3,786.8 1501.8,792.6 1503.3,787.5 1504.8,786.1 1506.3,792.5 1507.8,788.2 1509.3,795.3 1510.7,788.8 1512.2,786.6 1513.7,792.3 1515.2,787.8 1516.7,792.0 1518.2,791.0 1519.7,790.2 1521.2,789.2 1522.7,789.6 1524.2,791.1 1525.7,792.0 1527.2,790.3 1528.7,792.6 1530.2,788.0 1531.7,788.7 1533.2,791.6 1534.6,789.2 1536.1,787.3 1537.6,790.8 1539.1,789.9 1540.6,791.1 1542.1,790.1 1543.6,788.2 1545.1,791.2 1546.6,788.4 1548.1,791.4 1549.6,789.0 1551.1,786.9 1552.6,787.4 1554.1,790.2 1555.6,786.5 1557.1,790.0 1558.6,794.0 1560.0,787.4 1561.5,790.6 1563.0,793.1 1564.5,787.8 1566.0,790.9 1567.5,793.1 1569.0,789.5 1570.5,788.9 1572.0,790.3" stroke="#2563eb" stroke-width="1.7" opacity="0.78"/>
<polyline class="curve" points="78.0,112.2 115.3,658.5 152.7,711.9 190.1,735.6 227.4,746.5 264.8,752.7 302.1,757.5 339.4,760.6 376.8,763.5 414.2,765.8 451.5,767.9 488.9,769.8 526.2,771.2 563.5,772.5 600.9,773.9 638.2,774.9 675.6,776.2 712.9,777.2 750.3,778.5 787.6,779.1 825.0,780.1 862.4,780.9 899.7,781.7 937.0,782.6 974.4,783.4 1011.8,784.0 1049.1,784.8 1086.5,785.4 1123.8,786.0 1161.1,786.7 1198.5,787.1 1235.9,787.6 1273.2,788.1 1310.5,788.5 1347.9,788.8 1385.2,789.1 1422.6,789.4 1460.0,789.6 1497.3,789.8 1534.6,789.9 1572.0,789.9" stroke="#2563eb" stroke-width="2.4" stroke-dasharray="7 4"/>
<circle cx="78.0" cy="112.2" r="2.2" fill="#2563eb"/>
<circle cx="115.3" cy="658.5" r="2.2" fill="#2563eb"/>
<circle cx="152.7" cy="711.9" r="2.2" fill="#2563eb"/>
<circle cx="190.1" cy="735.6" r="2.2" fill="#2563eb"/>
<circle cx="227.4" cy="746.5" r="2.2" fill="#2563eb"/>
<circle cx="264.8" cy="752.7" r="2.2" fill="#2563eb"/>
<circle cx="302.1" cy="757.5" r="2.2" fill="#2563eb"/>
<circle cx="339.4" cy="760.6" r="2.2" fill="#2563eb"/>
<circle cx="376.8" cy="763.5" r="2.2" fill="#2563eb"/>
<circle cx="414.2" cy="765.8" r="2.2" fill="#2563eb"/>
<circle cx="451.5" cy="767.9" r="2.2" fill="#2563eb"/>
<circle cx="488.9" cy="769.8" r="2.2" fill="#2563eb"/>
<circle cx="526.2" cy="771.2" r="2.2" fill="#2563eb"/>
<circle cx="563.5" cy="772.5" r="2.2" fill="#2563eb"/>
<circle cx="600.9" cy="773.9" r="2.2" fill="#2563eb"/>
<circle cx="638.2" cy="774.9" r="2.2" fill="#2563eb"/>
<circle cx="675.6" cy="776.2" r="2.2" fill="#2563eb"/>
<circle cx="712.9" cy="777.2" r="2.2" fill="#2563eb"/>
<circle cx="750.3" cy="778.5" r="2.2" fill="#2563eb"/>
<circle cx="787.6" cy="779.1" r="2.2" fill="#2563eb"/>
<circle cx="825.0" cy="780.1" r="2.2" fill="#2563eb"/>
<circle cx="862.4" cy="780.9" r="2.2" fill="#2563eb"/>
<circle cx="899.7" cy="781.7" r="2.2" fill="#2563eb"/>
<circle cx="937.0" cy="782.6" r="2.2" fill="#2563eb"/>
<circle cx="974.4" cy="783.4" r="2.2" fill="#2563eb"/>
<circle cx="1011.8" cy="784.0" r="2.2" fill="#2563eb"/>
<circle cx="1049.1" cy="784.8" r="2.2" fill="#2563eb"/>
<circle cx="1086.5" cy="785.4" r="2.2" fill="#2563eb"/>
<circle cx="1123.8" cy="786.0" r="2.2" fill="#2563eb"/>
<circle cx="1161.1" cy="786.7" r="2.2" fill="#2563eb"/>
<circle cx="1198.5" cy="787.1" r="2.2" fill="#2563eb"/>
<circle cx="1235.9" cy="787.6" r="2.2" fill="#2563eb"/>
<circle cx="1273.2" cy="788.1" r="2.2" fill="#2563eb"/>
<circle cx="1310.5" cy="788.5" r="2.2" fill="#2563eb"/>
<circle cx="1347.9" cy="788.8" r="2.2" fill="#2563eb"/>
<circle cx="1385.2" cy="789.1" r="2.2" fill="#2563eb"/>
<circle cx="1422.6" cy="789.4" r="2.2" fill="#2563eb"/>
<circle cx="1460.0" cy="789.6" r="2.2" fill="#2563eb"/>
<circle cx="1497.3" cy="789.8" r="2.2" fill="#2563eb"/>
<circle cx="1534.6" cy="789.9" r="2.2" fill="#2563eb"/>
<circle cx="1572.0" cy="789.9" r="2.2" fill="#2563eb"/>
</g>
</svg>
