<?xml version="1.0" encoding="UTF-8"?>
<svg xmlns="http://www.w3.org/2000/svg" width="1600" height="900" viewBox="0 0 1600 900" role="img" aria-labelledby="title desc">
<title id="title">TinyStories baseline loss by wall-clock time</title>
<desc id="desc">Loss by elapsed wall-clock time in seconds, with solid training curves and dashed validation curves.</desc>
<rect width="100%" height="100%" fill="#ffffff"/>
<style>text{font-family:ui-sans-serif,system-ui,sans-serif;fill:#334155}.grid{stroke:#e2e8f0;stroke-width:1}.axis{stroke:#64748b;stroke-width:1.2}.curve{fill:none;stroke-linejoin:round;stroke-linecap:round}.tick{font-size:12px}.legend{font-size:12px}.label{font-size:14px}.heading{font-size:20px;font-weight:600;fill:#0f172a}</style>
<clipPath id="plot-area"><rect x="78.0" y="78.0" width="1494.0" height="752.0"/></clipPath>
<text class="heading" x="78.0" y="32">TinyStories baseline loss by wall-clock time</text>
<line x1="78.0" y1="54.0" x2="103.0" y2="54.0" stroke="#2563eb" stroke-width="2"/>
<text class="legend" x="109.0" y="58.0">train_tinystories train</text>
<line x1="451.5" y1="54.0" x2="476.5" y2="54.0" stroke="#2563eb" stroke-width="2" stroke-dasharray="7 4"/>
<text class="legend" x="482.5" y="58.0">train_tinystories val</text>
<line class="grid" x1="78.0" y1="78.0" x2="78.0" y2="830.0"/>
<text class="tick" x="78.0" y="853.0" text-anchor="middle">0</text>
<line class="grid" x1="376.8" y1="78.0" x2="376.8" y2="830.0"/>
<text class="tick" x="376.8" y="853.0" text-anchor="middle">165</text>
<line class="grid" x1="675.6" y1="78.0" x2="675.6" y2="830.0"/>
<text class="tick" x="675.6" y="853.0" text-anchor="middle">329</text>
<line class="grid" x1="974.4" y1="78.0" x2="974.4" y2="830.0"/>
<text class="tick" x="974.4" y="853.0" text-anchor="middle">494</text>
<line class="grid" x1="1273.2" y1="78.0" x2="1273.2" y2="830.0"/>
<text class="tick" x="1273.2" y="853.0" text-anchor="middle">659</text>
<line class="grid" x1="1572.0" y1="78.0" x2="1572.0" y2="830.0"/>
<text class="tick" x="1572.0" y="853.0" text-anchor="middle">823</text>
<line class="grid" x1="78.0" y1="78.0" x2="1572.0" y2="78.0"/>
<text class="tick" x="67.0" y="82.0" text-anchor="end">9.66</text>
<line class="grid" x1="78.0" y1="228.4" x2="1572.0" y2="228.4"/>
<text class="tick" x="67.0" y="232.4" text-anchor="end">7.91</text>
<line class="grid" x1="78.0" y1="378.8" x2="1572.0" y2="378.8"/>
<text class="tick" x="67.0" y="382.8" text-anchor="end">6.16</text>
<line class="grid" x1="78.0" y1="529.2" x2="1572.0" y2="529.2"/>
<text class="tick" x="67.0" y="533.2" text-anchor="end">4.41</text>
<line class="grid" x1="78.0" y1="679.6" x2="1572.0" y2="679.6"/>
<text class="tick" x="67.0" y="683.6" text-anchor="end">2.65</text>
<line class="grid" x1="78.0" y1="830.0" x2="1572.0" y2="830.0"/>
<text class="tick" x="67.0" y="834.0" text-anchor="end">0.904</text>
<line class="axis" x1="78.0" y1="830.0" x2="1572.0" y2="830.0"/>
<line class="axis" x1="78.0" y1="78.0" x2="78.0" y2="830.0"/>
<text class="label" x="825.0" y="880.0" text-anchor="middle">wall clock (seconds)</text>
<text class="label" x="20" y="454.0" text-anchor="middle" transform="rotate(-90 20 454.0)">loss</text>
<g clip-path="url(#plot-area)">
<polyline class="curve" points="80.1,112.2 81.4,120.6 82.9,148.7 84.5,193.0 85.9,240.1 87.4,293.4 88.8,345.7 90.3,400.1 91.8,446.2 93.3,479.0 94.7,514.2 96.2,541.0 97.6,556.5 99.1,572.3 100.6,581.7 102.0,596.2 103.5,606.0 104.9,615.0 106.4,624.0 107.8,629.4 109.3,629.1 110.7,641.2 112.2,647.3 113.7,644.4 115.2,649.2 118.0,661.3 119.5,660.4 120.9,664.9 122.4,665.6 123.8,673.1 125.3,678.7 126.7,682.4 128.2,679.1 129.6,683.7 131.1,688.2 132.5,680.1 134.0,689.0 135.4,683.1 136.9,690.6 138.3,690.8 139.8,698.1 141.2,691.4 142.7,699.6 144.1,698.9 145.6,701.4 147.1,705.3 148.5,704.9 150.0,702.9 151.5,705.3 152.9,709.9 155.8,711.4 157.2,708.6 158.7,712.6 160.3,714.8 161.8,715.8 163.2,718.8 164.6,721.5 166.1,726.2 167.5,724.8 168.9,719.1 170.4,725.6 171.8,725.0 173.3,730.8 174.8,726.8 176.2,726.6 177.7,732.4 179.1,733.7 180.5,733.7 182.0,732.8 183.4,733.4 184.9,731.7 186.4,728.2 187.8,735.2 189.2,736.0 190.7,732.3 193.5,732.9 195.0,734.7 196.4,734.7 198.0,738.0 199.4,736.4 200.9,736.6 202.3,741.8 203.8,741.0 205.2,737.9 206.7,740.1 208.1,736.1 209.6,740.9 211.0,738.5 212.5,740.2 213.9,740.9 215.3,745.7 216.8,741.9 218.2,739.9 219.7,735.0 221.1,740.0 222.6,744.1 224.0,746.2 225.5,746.2 227.0,745.2 228.4,745.4 231.2,742.8 233.0,744.0 234.5,748.0 236.0,743.3 237.5,746.0 238.9,744.0 240.4,747.9 241.8,745.2 243.2,751.0 244.7,753.6 246.1,747.4 247.6,752.4 249.0,752.6 250.5,746.4 252.0,750.5 253.4,745.9 254.8,752.7 256.3,745.2 257.7,750.3 259.2,752.1 260.6,744.7 262.1,751.0 263.5,750.2 265.0,751.2 266.5,750.2 269.2,752.3 270.7,749.7 272.2,749.9 273.7,753.5 275.1,751.3 276.6,755.2 278.0,746.8 279.5,753.5 280.9,752.8 282.4,750.5 283.9,750.3 285.4,753.2 286.8,756.0 288.3,753.6 289.7,752.0 291.2,756.9 292.6,753.3 294.1,756.7 295.5,757.0 297.0,754.3 298.5,755.0 299.9,758.8 301.3,752.7 302.8,756.4 304.3,751.8 307.1,755.6 308.5,755.3 310.1,761.6 311.5,754.6 313.0,753.1 314.4,758.8 315.9,759.4 317.3,760.9 318.7,760.9 320.2,761.1 321.6,760.0 323.1,758.4 324.5,763.4 326.0,758.9 327.4,760.6 328.9,757.5 330.3,758.5 331.7,761.9 333.1,759.9 334.6,758.1 336.0,758.9 337.4,760.4 338.9,754.2 340.3,760.4 341.8,764.8 344.5,758.8 345.9,757.6 347.3,763.4 348.8,759.0 350.2,759.3 351.7,763.3 353.1,760.7 354.5,759.4 356.0,757.8 357.4,759.8 358.8,761.1 360.3,758.5 361.7,763.5 363.1,761.4 364.6,760.8 366.0,757.5 367.5,763.1 368.9,767.6 370.3,761.7 371.8,763.4 373.2,765.6 374.7,760.9 376.1,760.9 377.6,767.9 379.0,761.5 381.6,764.4 383.4,765.2 384.8,762.5 386.3,763.4 387.7,766.8 389.1,765.7 390.6,764.4 392.0,764.1 393.4,761.3 394.9,761.1 396.3,768.2 397.7,762.6 399.2,764.9 400.6,760.2 402.0,764.8 403.5,768.0 404.9,764.5 406.4,765.6 407.8,766.8 409.3,767.1 410.7,762.5 412.1,767.9 413.6,767.0 415.0,766.0 416.4,766.9 419.1,761.8 420.6,764.3 422.0,767.0 423.5,767.8 424.9,766.3 426.3,766.4 427.8,768.6 429.2,766.9 430.6,765.7 432.1,768.7 433.5,768.0 435.0,763.4 436.4,764.5 437.8,765.6 439.3,768.5 440.7,765.7 442.1,765.6 443.6,770.7 445.0,769.0 446.5,763.6 447.9,766.3 449.3,766.0 450.8,772.1 452.2,767.9 453.7,772.6 456.3,765.7 457.7,768.5 459.2,765.1 460.6,769.5 462.0,768.2 463.5,764.7 464.9,765.6 466.3,767.8 467.8,768.8 469.2,769.4 470.6,767.2 472.0,763.4 473.5,770.5 474.9,767.9 476.3,767.8 477.8,763.4 479.2,771.4 480.6,767.9 482.1,769.0 483.5,768.2 484.9,769.2 486.4,769.4 487.8,764.4 489.3,771.8 490.7,772.5 493.4,769.5 494.8,763.2 496.3,770.3 497.7,765.3 499.1,770.6 500.6,771.6 502.0,769.2 503.4,769.4 504.9,773.5 506.3,770.7 507.8,762.9 509.2,768.9 510.7,771.8 512.1,766.9 513.5,770.5 515.0,770.3 516.4,767.7 517.8,770.0 519.2,771.7 520.7,773.1 522.1,767.3 523.6,769.3 525.0,765.6 526.5,773.4 527.9,765.7 530.6,768.5 532.3,768.5 533.8,774.3 535.2,765.0 536.6,767.5 538.1,771.5 539.5,769.8 541.0,774.0 542.4,767.6 543.8,772.6 545.2,769.4 546.7,771.5 548.1,773.9 549.5,772.8 551.0,769.7 552.4,768.7 553.8,771.2 555.3,772.4 556.7,771.4 558.1,769.5 559.6,772.5 561.0,773.0 562.4,764.6 563.9,770.9 565.3,772.0 568.0,773.4 569.4,771.1 570.8,770.7 572.3,774.9 573.7,772.6 575.1,772.6 576.6,772.1 578.0,774.0 579.4,771.1 580.9,774.4 582.3,771.8 583.8,770.5 585.2,778.3 586.6,776.0 588.1,776.0 589.5,772.6 590.9,775.7 592.4,770.9 593.9,771.3 595.3,769.0 596.7,773.6 598.2,772.3 599.6,776.8 601.0,772.4 602.5,772.9 605.2,775.3 606.6,772.1 608.0,776.4 609.5,770.7 610.9,775.0 612.3,775.5 613.8,778.9 615.2,777.1 616.7,770.7 618.1,774.3 619.5,770.7 621.0,770.5 622.4,774.6 623.9,772.5 625.3,773.7 626.7,775.7 628.2,770.2 629.6,776.6 631.0,775.6 632.5,773.5 633.9,775.1 635.4,776.5 636.8,777.2 638.3,767.8 639.7,771.8 642.4,774.6 643.9,771.0 645.3,772.1 646.7,776.2 648.2,774.2 649.6,776.3 651.0,776.2 652.5,773.1 653.9,775.6 655.4,774.3 656.8,772.9 658.2,772.2 659.7,775.4 661.1,774.3 662.5,778.8 664.0,776.3 665.4,775.1 666.9,777.5 668.3,772.1 669.7,775.3 671.1,777.5 672.6,775.7 674.0,774.6 675.4,774.2 676.8,775.7 679.6,778.8 681.3,777.6 682.8,778.0 684.2,777.5 685.6,775.8 687.1,778.2 688.5,778.9 689.9,778.3 691.3,772.7 692.8,779.2 694.2,774.5 695.6,776.4 697.1,774.2 698.5,775.9 699.9,780.3 701.4,775.6 702.8,779.5 704.2,779.0 705.7,774.2 707.1,776.0 708.6,773.7 710.0,776.4 711.4,776.5 712.9,777.4 714.3,779.9 717.0,777.0 718.5,776.6 719.9,776.5 721.3,777.6 722.7,776.7 724.2,770.8 725.6,777.1 727.1,779.5 728.5,776.2 729.9,776.4 731.4,774.5 732.8,779.9 734.2,776.6 735.7,776.7 737.1,778.3 738.6,779.1 740.0,776.4 741.4,780.7 742.9,779.8 744.3,779.9 745.8,778.0 747.2,780.8 748.6,778.2 750.1,782.7 751.5,776.1 754.2,776.0 755.6,776.7 757.1,779.1 758.5,778.3 759.9,773.2 761.4,779.4 762.8,777.8 764.2,777.0 765.7,777.1 767.1,776.8 768.5,778.0 770.0,779.8 771.4,779.0 772.8,778.5 774.3,780.4 775.7,778.1 777.1,778.2 778.6,776.4 780.0,779.3 781.5,777.1 782.9,779.4 784.3,775.3 785.8,779.4 787.2,781.2 788.6,779.7 791.3,780.2 792.8,776.8 794.2,779.7 795.7,779.6 797.1,778.0 798.5,781.7 800.0,780.9 801.4,777.8 802.8,777.2 804.3,781.5 805.7,773.8 807.2,778.6 808.6,781.3 810.0,777.3 811.5,784.8 812.9,782.0 814.3,779.3 815.8,781.0 817.2,784.4 818.6,778.2 820.1,775.6 821.5,781.5 822.9,782.3 824.4,782.8 825.8,782.9 828.5,781.7 830.2,780.8 831.7,782.2 833.1,780.7 834.5,783.3 836.0,779.9 837.4,778.8 838.8,784.4 840.3,778.5 841.7,781.0 843.2,777.7 844.6,782.7 846.1,783.8 847.5,782.6 848.9,779.7 850.4,781.3 851.8,783.3 853.3,783.7 854.7,779.2 856.2,781.6 857.6,778.3 859.0,778.5 860.5,778.7 861.9,775.1 863.4,783.7 866.1,779.3 867.5,778.0 868.9,787.7 870.4,779.7 871.8,781.9 873.2,784.0 874.7,780.0 876.1,784.0 877.6,783.5 879.0,777.7 880.4,779.6 881.9,778.5 883.3,783.4 884.7,780.3 886.2,777.1 887.6,782.8 889.1,784.3 890.5,784.6 891.9,785.1 893.4,781.4 894.8,784.7 896.2,782.1 897.7,778.5 899.1,783.1 900.5,778.6 903.2,781.4 904.6,780.4 906.1,782.7 907.5,776.2 908.9,778.4 910.4,779.3 911.8,778.8 913.2,780.0 914.7,784.0 916.1,782.3 917.6,778.7 919.0,786.7 920.4,781.3 921.9,781.1 923.3,783.7 924.7,782.3 926.2,783.6 927.6,780.6 929.1,780.9 930.5,783.5 931.9,783.4 933.4,783.8 934.8,783.8 936.2,785.8 937.7,779.2 940.4,783.7 941.8,784.0 943.2,779.5 944.7,781.2 946.1,785.0 947.5,781.2 949.0,776.8 950.4,783.2 951.8,780.9 953.3,783.7 954.7,782.1 956.2,784.7 957.6,781.5 959.0,780.3 960.5,785.3 961.9,780.9 963.3,783.9 964.8,782.8 966.2,788.4 967.6,784.5 969.1,778.8 970.5,783.5 972.0,784.2 973.4,781.0 974.8,781.8 977.5,780.3 979.2,782.0 980.7,784.4 982.1,785.9 983.5,784.7 985.0,784.4 986.4,783.8 987.9,780.5 989.3,785.7 990.7,784.5 992.2,783.2 993.6,782.7 995.1,783.6 996.5,783.6 997.9,782.3 999.4,783.6 1000.8,785.5 1002.2,785.3 1003.7,785.6 1005.1,785.9 1006.6,787.1 1008.0,778.7 1009.4,788.2 1010.9,785.9 1012.3,783.0 1015.0,785.6 1016.5,785.1 1017.9,782.4 1019.3,782.0 1020.8,782.4 1022.2,784.1 1023.6,784.7 1025.1,784.1 1026.5,782.6 1027.9,785.2 1029.4,783.2 1030.8,782.2 1032.3,783.5 1033.7,783.9 1035.1,786.7 1036.5,783.1 1038.0,783.6 1039.4,780.8 1040.9,781.1 1042.3,785.2 1043.7,787.7 1045.2,785.0 1046.6,786.8 1048.1,785.5 1049.5,785.5 1052.2,782.8 1053.6,784.7 1055.0,784.4 1056.5,779.4 1057.9,782.2 1059.3,788.3 1060.8,786.8 1062.2,782.3 1063.7,784.9 1065.1,787.0 1066.5,785.9 1067.9,780.9 1069.4,784.0 1070.8,785.3 1072.2,781.3 1073.7,786.0 1075.1,779.8 1076.5,780.8 1077.9,787.6 1079.4,788.2 1080.8,786.7 1082.2,784.8 1083.7,787.7 1085.1,785.4 1086.6,786.9 1089.2,784.6 1090.7,787.3 1092.1,780.5 1093.5,788.6 1095.0,784.8 1096.4,787.8 1097.9,781.5 1099.3,787.6 1100.7,789.0 1102.2,785.8 1103.6,787.6 1105.0,783.1 1106.5,786.9 1107.9,784.3 1109.3,785.1 1110.8,788.9 1112.2,785.1 1113.7,783.8 1115.1,785.3 1116.6,787.6 1118.0,786.0 1119.4,788.6 1120.9,789.1 1122.3,785.8 1123.7,786.2 1126.4,783.0 1128.2,788.8 1129.6,785.9 1131.0,788.9 1132.5,787.2 1133.9,787.0 1135.3,788.5 1136.8,789.1 1138.2,785.9 1139.6,784.9 1141.0,785.7 1142.5,786.4 1143.9,787.4 1145.3,785.3 1146.8,790.1 1148.2,784.0 1149.6,788.5 1151.1,785.2 1152.5,781.4 1153.9,786.0 1155.4,784.7 1156.8,786.9 1158.3,785.5 1159.7,783.8 1161.1,781.2 1163.8,785.6 1165.3,788.9 1166.7,787.3 1168.1,787.5 1169.5,787.5 1171.0,784.3 1172.4,786.2 1173.9,785.4 1175.3,787.4 1176.7,787.3 1178.2,791.4 1179.6,785.1 1181.0,786.8 1182.5,787.8 1183.9,790.3 1185.3,786.4 1186.8,789.3 1188.2,787.1 1189.7,782.8 1191.1,787.7 1192.5,785.3 1194.0,784.2 1195.4,788.0 1196.8,788.8 1198.3,785.1 1200.9,784.5 1202.4,791.4 1203.8,783.2 1205.3,791.6 1206.7,786.9 1208.2,786.9 1209.6,785.4 1211.0,786.3 1212.4,787.8 1213.9,787.4 1215.3,787.6 1216.8,789.6 1218.2,785.5 1219.6,787.6 1221.1,788.3 1222.5,786.1 1224.0,788.1 1225.4,788.1 1226.9,788.1 1228.3,790.1 1229.7,787.3 1231.2,787.3 1232.6,786.9 1234.1,790.6 1235.5,785.2 1238.2,788.1 1239.6,784.4 1241.0,791.0 1242.4,791.0 1243.9,786.5 1245.3,788.2 1246.7,782.8 1248.2,789.2 1249.6,786.5 1251.0,786.0 1252.4,787.4 1253.9,787.9 1255.3,790.1 1256.7,788.7 1258.2,788.0 1259.6,790.3 1261.0,787.4 1262.5,789.9 1263.9,786.4 1265.4,787.4 1266.8,783.7 1268.2,785.3 1269.7,785.2 1271.1,788.8 1272.5,791.2 1275.2,786.6 1277.0,787.8 1278.4,786.7 1279.8,788.9 1281.3,789.2 1282.7,787.1 1284.1,786.1 1285.6,789.7 1287.0,791.7 1288.4,789.8 1289.9,788.8 1291.3,786.7 1292.7,784.4 1294.2,787.5 1295.6,788.3 1297.1,788.9 1298.5,789.1 1299.9,788.9 1301.3,791.2 1302.8,788.3 1304.2,790.4 1305.7,785.6 1307.1,792.0 1308.5,792.1 1310.0,791.0 1312.7,787.8 1314.1,786.6 1315.5,785.3 1317.0,787.2 1318.4,787.1 1319.8,793.2 1321.3,788.2 1322.7,787.8 1324.1,791.1 1325.5,783.7 1327.0,782.5 1328.4,787.8 1329.8,792.1 1331.3,788.4 1332.7,787.0 1334.1,791.0 1335.6,785.1 1337.0,787.5 1338.4,788.6 1339.9,787.6 1341.3,792.5 1342.7,791.3 1344.2,786.4 1345.6,789.4 1347.1,790.0 1349.8,788.1 1351.2,786.8 1352.6,789.3 1354.1,783.7 1355.5,788.9 1356.9,785.8 1358.4,784.3 1359.8,789.4 1361.3,791.2 1362.7,785.1 1364.1,787.2 1365.6,786.3 1367.0,784.6 1368.4,789.1 1369.9,790.0 1371.3,792.6 1372.7,791.0 1374.2,790.9 1375.6,795.8 1377.0,785.0 1378.5,787.9 1379.9,791.0 1381.3,786.3 1382.8,788.0 1384.2,791.6 1386.8,788.6 1388.3,791.1 1389.7,794.4 1391.2,791.0 1392.6,789.7 1394.0,792.4 1395.5,786.6 1396.9,792.4 1398.3,788.2 1399.8,788.8 1401.2,784.1 1402.6,791.5 1404.1,790.1 1405.5,792.0 1407.0,788.0 1408.4,787.4 1409.8,794.7 1411.3,790.7 1412.7,792.2 1414.1,794.1 1415.6,789.9 1417.0,789.5 1418.4,786.5 1419.9,787.1 1421.3,790.7 1424.0,786.9 1425.7,787.3 1427.2,789.7 1428.6,791.2 1430.0,791.1 1431.4,787.5 1432.9,789.5 1434.3,795.4 1435.7,788.1 1437.1,792.2 1438.6,788.6 1440.0,791.3 1441.4,791.6 1442.8,790.9 1444.3,792.7 1445.7,783.7 1447.1,787.7 1448.6,790.6 1450.0,784.8 1451.4,784.0 1452.9,789.8 1454.3,790.5 1455.8,792.3 1457.2,786.3 1458.6,786.0 1461.3,788.2 1462.8,790.3 1464.2,790.2 1465.6,788.6 1467.1,791.1 1468.5,788.3 1469.9,786.0 1471.4,786.5 1472.8,785.7 1474.2,792.0 1475.6,790.8 1477.1,790.3 1478.5,790.1 1479.9,787.5 1481.4,791.3 1482.8,790.3 1484.2,786.6 1485.6,793.0 1487.1,792.1 1488.5,786.8 1489.9,790.0 1491.4,790.6 1492.8,789.7 1494.2,788.7 1495.7,789.4 1498.3,793.0 1499.7,790.5 1501.2,786.8 1502.6,792.6 1504.0,787.5 1505.4,786.1 1506.9,792.5 1508.3,788.2 1509.7,795.3 1511.2,788.8 1512.6,786.6 1514.0,792.3 1515.4,787.8 1516.9,792.0 1518.3,791.0 1519.7,790.2 1521.1,789.2 1522.6,789.6 1524.0,791.1 1525.4,792.0 1526.8,790.3 1528.2,792.6 1529.7,788.0 1531.1,788.7 1532.5,791.6 1535.1,789.2 1536.6,787.3 1538.0,790.8 1539.4,789.9 1540.8,791.1 1542.3,790.1 1543.7,788.2 1545.1,791.2 1546.5,788.4 1548.0,791.4 1549.4,789.0 1550.8,786.9 1552.3,787.4 1553.7,790.2 1555.1,786.5 1556.5,790.0 1558.0,794.0 1559.4,787.4 1560.8,790.6 1562.2,793.1 1563.7,787.8 1565.1,790.9 1566.5,793.1 1568.0,789.5 1569.4,788.9 1572.0,790.3" stroke="#2563eb" stroke-width="1.7" opacity="0.78"/>
<polyline class="curve" points="78.0,112.2 118.0,658.5 155.8,711.9 193.5,735.6 231.2,746.5 269.2,752.7 307.1,757.5 344.5,760.6 381.6,763.5 419.1,765.8 456.3,767.9 493.4,769.8 530.6,771.2 568.0,772.5 605.2,773.9 642.4,774.9 679.6,776.2 717.0,777.2 754.2,778.5 791.3,779.1 828.5,780.1 866.1,780.9 903.2,781.7 940.4,782.6 977.5,783.4 1015.0,784.0 1052.2,784.8 1089.2,785.4 1126.4,786.0 1163.8,786.7 1200.9,787.1 1238.2,787.6 1275.2,788.1 1312.7,788.5 1349.8,788.8 1386.8,789.1 1424.0,789.4 1461.3,789.6 1498.3,789.8 1535.1,789.9 1572.0,789.9" stroke="#2563eb" stroke-width="2.4" stroke-dasharray="7 4"/>
<circle cx="78.0" cy="112.2" r="2.2" fill="#2563eb"/>
<circle cx="118.0" cy="658.5" r="2.2" fill="#2563eb"/>
<circle cx="155.8" cy="711.9" r="2.2" fill="#2563eb"/>
<circle cx="193.5" cy="735.6" r="2.2" fill="#2563eb"/>
<circle cx="231.2" cy="746.5" r="2.2" fill="#2563eb"/>
<circle cx="269.2" cy="752.7" r="2.2" fill="#2563eb"/>
<circle cx="307.1" cy="757.5" r="2.2" fill="#2563eb"/>
<circle cx="344.5" cy="760.6" r="2.2" fill="#2563eb"/>
<circle cx="381.6" cy="763.5" r="2.2" fill="#2563eb"/>
<circle cx="419.1" cy="765.8" r="2.2" fill="#2563eb"/>
<circle cx="456.3" cy="767.9" r="2.2" fill="#2563eb"/>
<circle cx="493.4" cy="769.8" r="2.2" fill="#2563eb"/>
<circle cx="530.6" cy="771.2" r="2.2" fill="#2563eb"/>
<circle cx="568.0" cy="772.5" r="2.2" fill="#2563eb"/>
<circle cx="605.2" cy="773.9" r="2.2" fill="#2563eb"/>
<circle cx="642.4" cy="774.9" r="2.2" fill="#2563eb"/>
<circle cx="679.6" cy="776.2" r="2.2" fill="#2563eb"/>
<circle cx="717.0" cy="777.2" r="2.2" fill="#2563eb"/>
<circle cx="754.2" cy="778.5" r="2.2" fill="#2563eb"/>
<circle cx="791.3" cy="779.1" r="2.2" fill="#2563eb"/>
<circle cx="828.5" cy="780.1" r="2.2" fill="#2563eb"/>
<circle cx="866.1" cy="780.9" r="2.2" fill="#2563eb"/>
<circle cx="903.2" cy="781.7" r="2.2" fill="#2563eb"/>
<circle cx="940.4" cy="782.6" r="2.2" fill="#2563eb"/>
<circle cx="977.5" cy="783.4" r="2.2" fill="#2563eb"/>
<circle cx="1015.0" cy="784.0" r="2.2" fill="#2563eb"/>
<circle cx="1052.2" cy="784.8" r="2.2" fill="#2563eb"/>
<circle cx="1089.2" cy="785.4" r="2.2" fill="#2563eb"/>
<circle cx="1126.4" cy="786.0" r="2.2" fill="#2563eb"/>
<circle cx="1163.8" cy="786.7" r="2.2" fill="#2563eb"/>
<circle cx="1200.9" cy="787.1" r="2.2" fill="#2563eb"/>
<circle cx="1238.2" cy="787.6" r="2.2" fill="#2563eb"/>
<circle cx="1275.2" cy="788.1" r="2.2" fill="#2563eb"/>
<circle cx="1312.7" cy="788.5" r="2.2" fill="#2563eb"/>
<circle cx="1349.8" cy="788.8" r="2.2" fill="#2563eb"/>
<circle cx="1386.8" cy="789.1" r="2.2" fill="#2563eb"/>
<circle cx="1424.0" cy="789.4" r="2.2" fill="#2563eb"/>
<circle cx="1461.3" cy="789.6" r="2.2" fill="#2563eb"/>
<circle cx="1498.3" cy="789.8" r="2.2" fill="#2563eb"/>
<circle cx="1535.1" cy="789.9" r="2.2" fill="#2563eb"/>
<circle cx="1572.0" cy="789.9" r="2.2" fill="#2563eb"/>
</g>
</svg>
