<svg xmlns="http://www.w3.org/2000/svg" width="760" height="360" viewBox="0 0 760 360"><rect width="100%" height="100%" fill="#f6f1e7"/><text x="30" y="35" font-size="22" font-family="serif">XL context 128 forward timeline</text><text x="30" y="62" font-size="13">Active allocated memory; peak 13027.4 MiB</text><line x1="55" y1="300" x2="725" y2="300" stroke="#263238"/><polyline fill="none" stroke="#d1495b" stroke-width="2" points="55.0,80.3 56.0,80.3 57.0,80.2 58.0,80.2 59.0,80.2 60.0,80.2 61.0,80.2 62.0,80.2 63.0,80.2 64.1,80.2 65.1,80.2 66.1,80.2 67.1,80.2 68.1,80.1 69.1,80.1 70.1,80.1 71.1,80.2 72.1,80.3 73.1,80.3 74.1,80.1 75.1,80.2 76.1,80.3 77.1,80.3 78.1,80.2 79.1,80.2 80.2,80.2 81.2,80.2 82.2,80.2 83.2,80.2 84.2,80.2 85.2,80.2 86.2,80.1 87.2,80.2 88.2,80.2 89.2,80.1 90.2,80.0 91.2,80.2 92.2,80.2 93.2,80.3 94.2,80.3 95.2,80.1 96.2,80.2 97.3,80.3 98.3,80.3 99.3,80.2 100.3,80.2 101.3,80.2 102.3,80.2 103.3,80.2 104.3,80.2 105.3,80.2 106.3,80.2 107.3,80.2 108.3,80.2 109.3,80.1 110.3,80.1 111.3,80.1 112.3,80.2 113.3,80.2 114.4,80.3 115.4,80.3 116.4,80.1 117.4,80.2 118.4,80.3 119.4,80.3 120.4,80.2 121.4,80.2 122.4,80.2 123.4,80.2 124.4,80.2 125.4,80.2 126.4,80.2 127.4,80.1 128.4,80.2 129.4,80.2 130.5,80.1 131.5,80.1 132.5,80.1 133.5,80.1 134.5,80.2 135.5,80.3 136.5,80.3 137.5,80.1 138.5,80.3 139.5,80.3 140.5,80.2 141.5,80.2 142.5,80.2 143.5,80.2 144.5,80.2 145.5,80.2 146.5,80.2 147.6,80.2 148.6,80.1 149.6,80.2 150.6,80.2 151.6,80.1 152.6,80.0 153.6,80.1 154.6,80.2 155.6,80.3 156.6,80.3 157.6,80.0 158.6,80.1 159.6,80.3 160.6,80.3 161.6,80.2 162.6,80.2 163.6,80.2 164.7,80.2 165.7,80.2 166.7,80.2 167.7,80.2 168.7,80.2 169.7,80.1 170.7,80.2 171.7,80.2 172.7,80.1 173.7,80.0 174.7,80.2 175.7,80.2 176.7,80.3 177.7,80.3 178.7,80.1 179.7,80.2 180.8,80.3 181.8,80.3 182.8,80.2 183.8,80.2 184.8,80.2 185.8,80.2 186.8,80.2 187.8,80.2 188.8,80.2 189.8,80.2 190.8,80.2 191.8,80.2 192.8,80.1 193.8,80.1 194.8,80.1 195.8,80.2 196.8,80.2 197.9,80.3 198.9,80.2 199.9,80.0 200.9,80.2 201.9,80.3 202.9,80.3 203.9,80.2 204.9,80.2 205.9,80.2 206.9,80.2 207.9,80.2 208.9,80.2 209.9,80.2 210.9,80.2 211.9,80.2 212.9,80.2 213.9,80.1 215.0,80.1 216.0,80.1 217.0,80.1 218.0,80.3 219.0,80.3 220.0,80.2 221.0,80.1 222.0,80.3 223.0,80.3 224.0,80.2 225.0,80.2 226.0,80.2 227.0,80.2 228.0,80.2 229.0,80.2 230.0,80.2 231.1,80.2 232.1,80.1 233.1,80.2 234.1,80.2 235.1,80.1 236.1,80.0 237.1,80.1 238.1,80.2 239.1,80.3 240.1,80.3 241.1,80.0 242.1,80.1 243.1,80.3 244.1,80.3 245.1,80.2 246.1,80.2 247.1,80.2 248.2,80.2 249.2,80.2 250.2,80.2 251.2,80.2 252.2,80.2 253.2,80.2 254.2,80.2 255.2,80.2 256.2,80.1 257.2,80.1 258.2,80.2 259.2,80.2 260.2,80.3 261.2,80.3 262.2,80.2 263.2,80.3 264.2,80.3 265.3,80.3 266.3,80.2 267.3,80.2 268.3,80.2 269.3,80.2 270.3,80.2 271.3,80.2 272.3,80.2 273.3,80.1 274.3,80.2 275.3,80.2 276.3,80.1 277.3,80.1 278.3,80.1 279.3,80.2 280.3,80.2 281.4,80.3 282.4,80.2 283.4,80.0 284.4,80.3 285.4,80.3 286.4,80.2 287.4,80.2 288.4,80.2 289.4,80.2 290.4,80.2 291.4,80.2 292.4,80.2 293.4,80.2 294.4,80.2 295.4,80.2 296.4,80.2 297.4,80.1 298.5,80.1 299.5,80.1 300.5,80.2 301.5,80.3 302.5,80.3 303.5,80.1 304.5,80.2 305.5,80.3 306.5,80.3 307.5,80.2 308.5,80.2 309.5,80.2 310.5,80.2 311.5,80.2 312.5,80.2 313.5,80.2 314.5,80.2 315.6,80.1 316.6,80.2 317.6,80.2 318.6,80.1 319.6,80.0 320.6,80.2 321.6,80.2 322.6,80.3 323.6,80.3 324.6,80.1 325.6,80.2 326.6,80.3 327.6,80.3 328.6,80.2 329.6,80.2 330.6,80.2 331.7,80.2 332.7,80.2 333.7,80.2 334.7,80.2 335.7,80.2 336.7,80.2 337.7,80.2 338.7,80.1 339.7,80.1 340.7,80.1 341.7,80.2 342.7,80.2 343.7,80.3 344.7,80.3 345.7,80.1 346.7,80.2 347.7,80.3 348.8,80.3 349.8,80.2 350.8,80.2 351.8,80.2 352.8,80.2 353.8,80.2 354.8,80.2 355.8,80.2 356.8,80.1 357.8,80.2 358.8,80.2 359.8,80.1 360.8,80.1 361.8,80.1 362.8,80.1 363.8,80.2 364.8,80.3 365.9,80.3 366.9,80.1 367.9,80.3 368.9,80.3 369.9,80.2 370.9,80.2 371.9,80.2 372.9,80.2 373.9,80.2 374.9,80.2 375.9,80.2 376.9,80.2 377.9,80.1 378.9,80.2 379.9,80.2 380.9,80.1 382.0,80.0 383.0,80.1 384.0,80.2 385.0,80.3 386.0,80.3 387.0,80.0 388.0,80.1 389.0,80.3 390.0,80.3 391.0,80.2 392.0,80.2 393.0,80.2 394.0,80.2 395.0,80.2 396.0,80.2 397.0,80.2 398.0,80.2 399.1,80.1 400.1,80.2 401.1,80.2 402.1,80.1 403.1,80.0 404.1,80.2 405.1,80.2 406.1,80.3 407.1,80.3 408.1,80.1 409.1,80.2 410.1,80.3 411.1,80.3 412.1,80.2 413.1,80.2 414.1,80.2 415.2,80.2 416.2,80.2 417.2,80.2 418.2,80.2 419.2,80.2 420.2,80.2 421.2,80.2 422.2,80.1 423.2,80.1 424.2,80.1 425.2,80.2 426.2,80.2 427.2,80.3 428.2,80.2 429.2,80.0 430.2,80.2 431.2,80.3 432.3,80.3 433.3,80.2 434.3,80.2 435.3,80.2 436.3,80.2 437.3,80.2 438.3,80.2 439.3,80.2 440.3,80.2 441.3,80.2 442.3,80.2 443.3,80.1 444.3,80.1 445.3,80.1 446.3,80.1 447.3,80.3 448.3,80.3 449.4,80.2 450.4,80.1 451.4,80.3 452.4,80.3 453.4,80.2 454.4,80.2 455.4,80.2 456.4,80.2 457.4,80.2 458.4,80.2 459.4,80.2 460.4,80.2 461.4,80.1 462.4,80.2 463.4,80.2 464.4,80.1 465.5,80.0 466.5,80.1 467.5,80.2 468.5,80.3 469.5,80.3 470.5,80.0 471.5,80.1 472.5,80.3 473.5,80.3 474.5,80.2 475.5,80.2 476.5,80.2 477.5,80.2 478.5,80.2 479.5,80.2 480.5,80.2 481.5,80.2 482.6,80.2 483.6,80.2 484.6,80.2 485.6,80.1 486.6,80.1 487.6,80.2 488.6,80.2 489.6,80.3 490.6,80.3 491.6,80.2 492.6,80.3 493.6,80.3 494.6,80.3 495.6,80.2 496.6,80.2 497.6,80.2 498.6,80.2 499.7,80.2 500.7,80.2 501.7,80.2 502.7,80.1 503.7,80.2 504.7,80.2 505.7,80.1 506.7,80.1 507.7,80.1 508.7,80.2 509.7,80.2 510.7,80.3 511.7,80.2 512.7,80.0 513.7,80.3 514.7,80.3 515.8,80.2 516.8,80.2 517.8,80.2 518.8,80.2 519.8,80.2 520.8,80.2 521.8,80.2 522.8,80.2 523.8,80.2 524.8,80.2 525.8,80.2 526.8,80.1 527.8,80.1 528.8,80.1 529.8,80.2 530.8,80.3 531.8,80.3 532.9,80.1 533.9,80.2 534.9,80.3 535.9,80.3 536.9,80.2 537.9,80.2 538.9,80.2 539.9,80.2 540.9,80.2 541.9,80.2 542.9,80.2 543.9,80.2 544.9,80.1 545.9,80.2 546.9,80.2 547.9,80.1 548.9,80.0 550.0,80.2 551.0,80.2 552.0,80.3 553.0,80.3 554.0,80.1 555.0,80.2 556.0,80.3 557.0,80.3 558.0,80.2 559.0,80.2 560.0,80.2 561.0,80.2 562.0,80.2 563.0,80.2 564.0,80.2 565.0,80.2 566.1,80.2 567.1,80.2 568.1,80.1 569.1,80.1 570.1,80.1 571.1,80.2 572.1,80.2 573.1,80.3 574.1,80.3 575.1,80.1 576.1,80.2 577.1,80.3 578.1,80.3 579.1,80.2 580.1,80.2 581.1,80.2 582.1,80.2 583.2,80.2 584.2,80.2 585.2,80.2 586.2,80.1 587.2,80.2 588.2,80.2 589.2,80.1 590.2,80.1 591.2,80.1 592.2,80.1 593.2,80.2 594.2,80.3 595.2,80.3 596.2,80.1 597.2,80.3 598.2,80.3 599.2,80.2 600.3,80.2 601.3,80.2 602.3,80.2 603.3,80.2 604.3,80.2 605.3,80.2 606.3,80.2 607.3,80.1 608.3,80.2 609.3,80.2 610.3,80.1 611.3,80.0 612.3,80.1 613.3,80.2 614.3,80.3 615.3,80.3 616.4,80.0 617.4,80.1 618.4,80.3 619.4,80.3 620.4,80.2 621.4,80.2 622.4,80.2 623.4,80.2 624.4,80.2 625.4,80.2 626.4,80.2 627.4,80.2 628.4,80.1 629.4,80.2 630.4,80.2 631.4,80.1 632.4,80.0 633.5,80.2 634.5,80.2 635.5,80.3 636.5,80.3 637.5,80.1 638.5,80.2 639.5,80.3 640.5,80.3 641.5,80.2 642.5,80.2 643.5,80.2 644.5,80.2 645.5,80.2 646.5,80.2 647.5,80.2 648.5,80.2 649.5,80.2 650.6,80.2 651.6,80.1 652.6,80.1 653.6,80.1 654.6,80.2 655.6,80.2 656.6,80.3 657.6,80.2 658.6,80.0 659.6,80.2 660.6,80.3 661.6,80.3 662.6,80.2 663.6,80.2 664.6,80.2 665.6,80.2 666.7,80.2 667.7,80.2 668.7,80.2 669.7,80.2 670.7,80.2 671.7,80.2 672.7,80.1 673.7,80.1 674.7,80.1 675.7,80.1 676.7,80.3 677.7,80.3 678.7,80.2 679.7,80.1 680.7,80.3 681.7,80.3 682.7,80.2 683.8,80.2 684.8,80.2 685.8,80.2 686.8,80.2 687.8,80.2 688.8,80.2 689.8,80.2 690.8,80.1 691.8,80.2 692.8,80.2 693.8,80.1 694.8,80.0 695.8,80.1 696.8,80.2 697.8,80.3 698.8,80.3 699.8,80.0 700.9,80.1 701.9,80.3 702.9,80.3 703.9,80.2 704.9,80.2 705.9,80.2 706.9,80.2 707.9,80.2 708.9,80.2 709.9,80.2 710.9,80.2 711.9,80.2 712.9,80.2 713.9,80.2 714.9,80.1 715.9,80.1 717.0,80.2 718.0,80.2 719.0,80.3 720.0,80.3 721.0,80.2 722.0,80.3 723.0,80.3 724.0,80.3 725.0,80.3"/><text x="55" y="325">allocator events</text></svg>