<svg xmlns="http://www.w3.org/2000/svg" width="760" height="360" viewBox="0 0 760 360"><rect width="100%" height="100%" fill="#f6f1e7"/><text x="30" y="35" font-size="22" font-family="serif">XL context 2048 forward timeline</text><text x="30" y="62" font-size="13">Active allocated memory; peak 15692.0 MiB</text><line x1="55" y1="300" x2="725" y2="300" stroke="#263238"/><polyline fill="none" stroke="#d1495b" stroke-width="2" points="55.0,117.4 56.0,117.1 57.0,116.2 58.0,116.0 59.0,115.5 60.0,115.5 61.0,115.7 62.0,116.0 63.0,115.7 64.0,115.4 65.0,115.8 66.0,101.5 67.1,108.7 68.1,108.7 69.1,87.2 70.1,87.2 71.1,101.3 72.1,115.3 73.1,116.5 74.1,116.8 75.1,114.3 76.1,115.4 77.1,116.8 78.1,117.1 79.1,116.0 80.1,116.0 81.1,115.4 82.1,115.5 83.1,116.0 84.1,115.5 85.1,115.4 86.1,115.9 87.1,101.5 88.1,108.7 89.2,108.7 90.2,94.4 91.2,80.0 92.2,108.4 93.2,115.6 94.2,116.5 95.2,116.8 96.2,114.3 97.2,116.2 98.2,116.8 99.2,116.8 100.2,116.0 101.2,115.7 102.2,115.5 103.2,115.7 104.2,116.0 105.2,115.8 106.2,115.4 107.2,115.9 108.2,108.7 109.2,108.7 110.2,101.5 111.3,101.5 112.3,87.2 113.3,108.4 114.3,116.2 115.3,116.5 116.3,116.5 117.3,114.3 118.3,116.2 119.3,117.1 120.3,116.8 121.3,116.0 122.3,115.7 123.3,115.4 124.3,116.0 125.3,116.0 126.3,115.4 127.3,115.5 128.3,101.5 129.3,108.7 130.3,108.7 131.3,101.5 132.3,94.4 133.4,94.1 134.4,115.1 135.4,116.2 136.4,116.8 137.4,116.5 138.4,114.3 139.4,116.5 140.4,117.1 141.4,116.0 142.4,116.0 143.4,115.7 144.4,115.4 145.4,116.0 146.4,115.7 147.4,115.5 148.4,115.7 149.4,101.5 150.4,108.7 151.4,108.7 152.4,87.2 153.4,80.0 154.4,101.3 155.4,115.3 156.5,116.8 157.5,116.8 158.5,113.2 159.5,115.1 160.5,117.1 161.5,116.8 162.5,116.0 163.5,115.9 164.5,115.4 165.5,115.5 166.5,116.0 167.5,115.7 168.5,115.4 169.5,115.8 170.5,101.5 171.5,108.7 172.5,108.7 173.5,101.5 174.5,80.0 175.5,108.4 176.5,115.9 177.5,116.8 178.6,116.5 179.6,114.3 180.6,116.2 181.6,116.8 182.6,116.5 183.6,116.0 184.6,115.5 185.6,115.7 186.6,116.0 187.6,116.0 188.6,115.7 189.6,115.4 190.6,108.7 191.6,108.7 192.6,108.7 193.6,94.4 194.6,101.5 195.6,94.4 196.6,115.6 197.6,116.2 198.6,116.5 199.6,116.2 200.7,113.2 201.7,116.2 202.7,117.1 203.7,116.5 204.7,116.0 205.7,115.7 206.7,115.4 207.7,116.0 208.7,115.9 209.7,115.4 210.7,115.5 211.7,108.7 212.7,108.7 213.7,108.7 214.7,94.4 215.7,94.4 216.7,101.3 217.7,115.1 218.7,116.5 219.7,116.8 220.7,115.4 221.7,114.3 222.8,116.8 223.8,117.1 224.8,116.0 225.8,116.0 226.8,115.5 227.8,115.4 228.8,116.0 229.8,115.5 230.8,115.7 231.8,116.0 232.8,101.5 233.8,108.7 234.8,108.7 235.8,94.4 236.8,80.0 237.8,101.3 238.8,115.6 239.8,116.5 240.8,116.8 241.8,113.2 242.8,115.1 243.8,116.8 244.9,116.8 245.9,116.0 246.9,115.8 247.9,115.5 248.9,115.7 249.9,116.0 250.9,115.7 251.9,115.4 252.9,115.8 253.9,108.7 254.9,108.7 255.9,108.7 256.9,101.5 257.9,87.2 258.9,108.4 259.9,115.9 260.9,116.5 261.9,116.5 262.9,115.4 263.9,116.5 264.9,117.1 265.9,116.5 266.9,116.0 268.0,115.5 269.0,115.4 270.0,116.0 271.0,116.0 272.0,115.5 273.0,115.4 274.0,101.5 275.0,108.7 276.0,108.7 277.0,94.4 278.0,94.4 279.0,94.1 280.0,115.3 281.0,116.2 282.0,116.8 283.0,116.2 284.0,113.2 285.0,116.5 286.0,117.1 287.0,116.2 288.0,116.0 289.0,115.8 290.1,115.4 291.1,116.0 292.1,115.8 293.1,115.5 294.1,115.7 295.1,108.7 296.1,108.7 297.1,108.7 298.1,87.2 299.1,87.2 300.1,101.3 301.1,115.3 302.1,116.5 303.1,116.8 304.1,114.3 305.1,115.4 306.1,116.8 307.1,117.1 308.1,116.0 309.1,116.0 310.1,115.4 311.1,115.5 312.2,116.0 313.2,115.5 314.2,115.4 315.2,115.9 316.2,101.5 317.2,108.7 318.2,108.7 319.2,94.4 320.2,80.0 321.2,108.4 322.2,115.6 323.2,116.5 324.2,116.8 325.2,114.3 326.2,116.2 327.2,116.8 328.2,116.8 329.2,116.0 330.2,115.7 331.2,115.5 332.2,115.7 333.2,116.0 334.3,115.8 335.3,115.4 336.3,115.9 337.3,108.7 338.3,108.7 339.3,101.5 340.3,101.5 341.3,87.2 342.3,108.4 343.3,116.2 344.3,116.5 345.3,116.5 346.3,114.3 347.3,116.2 348.3,117.1 349.3,116.8 350.3,116.0 351.3,115.7 352.3,115.4 353.3,116.0 354.3,116.0 355.3,115.4 356.3,115.5 357.4,101.5 358.4,108.7 359.4,108.7 360.4,101.5 361.4,94.4 362.4,94.1 363.4,115.1 364.4,116.2 365.4,116.8 366.4,116.5 367.4,114.3 368.4,116.5 369.4,117.1 370.4,116.0 371.4,116.0 372.4,115.7 373.4,115.4 374.4,116.0 375.4,115.7 376.4,115.5 377.4,115.7 378.4,101.5 379.5,108.7 380.5,108.7 381.5,87.2 382.5,80.0 383.5,101.3 384.5,115.3 385.5,116.8 386.5,116.8 387.5,113.2 388.5,115.1 389.5,117.1 390.5,116.8 391.5,116.0 392.5,115.9 393.5,115.4 394.5,115.5 395.5,116.0 396.5,115.7 397.5,115.4 398.5,115.8 399.5,101.5 400.5,108.7 401.6,108.7 402.6,101.5 403.6,80.0 404.6,108.4 405.6,115.9 406.6,116.8 407.6,116.5 408.6,114.3 409.6,116.2 410.6,116.8 411.6,116.5 412.6,116.0 413.6,115.5 414.6,115.7 415.6,116.0 416.6,116.0 417.6,115.7 418.6,115.4 419.6,108.7 420.6,108.7 421.6,108.7 422.6,94.4 423.7,101.5 424.7,94.4 425.7,115.6 426.7,116.2 427.7,116.5 428.7,116.2 429.7,113.2 430.7,116.2 431.7,117.1 432.7,116.5 433.7,116.0 434.7,115.7 435.7,115.4 436.7,116.0 437.7,115.9 438.7,115.4 439.7,115.5 440.7,108.7 441.7,108.7 442.7,108.7 443.7,94.4 444.7,94.4 445.7,101.3 446.8,115.1 447.8,116.5 448.8,116.8 449.8,115.4 450.8,114.3 451.8,116.8 452.8,117.1 453.8,116.0 454.8,116.0 455.8,115.5 456.8,115.4 457.8,116.0 458.8,115.5 459.8,115.7 460.8,116.0 461.8,101.5 462.8,108.7 463.8,108.7 464.8,94.4 465.8,80.0 466.8,101.3 467.8,115.6 468.9,116.5 469.9,116.8 470.9,113.2 471.9,115.1 472.9,116.8 473.9,116.8 474.9,116.0 475.9,115.8 476.9,115.5 477.9,115.7 478.9,116.0 479.9,115.7 480.9,115.4 481.9,115.8 482.9,108.7 483.9,108.7 484.9,108.7 485.9,101.5 486.9,87.2 487.9,108.4 488.9,115.9 489.9,116.5 491.0,116.5 492.0,115.4 493.0,116.5 494.0,117.1 495.0,116.5 496.0,116.0 497.0,115.5 498.0,115.4 499.0,116.0 500.0,116.0 501.0,115.5 502.0,115.4 503.0,101.5 504.0,108.7 505.0,108.7 506.0,94.4 507.0,94.4 508.0,94.1 509.0,115.3 510.0,116.2 511.0,116.8 512.0,116.2 513.1,113.2 514.1,116.5 515.1,117.1 516.1,116.2 517.1,116.0 518.1,115.8 519.1,115.4 520.1,116.0 521.1,115.8 522.1,115.5 523.1,115.7 524.1,108.7 525.1,108.7 526.1,108.7 527.1,87.2 528.1,87.2 529.1,101.3 530.1,115.3 531.1,116.5 532.1,116.8 533.1,114.3 534.1,115.4 535.1,116.8 536.2,117.1 537.2,116.0 538.2,116.0 539.2,115.4 540.2,115.5 541.2,116.0 542.2,115.5 543.2,115.4 544.2,115.9 545.2,101.5 546.2,108.7 547.2,108.7 548.2,94.4 549.2,80.0 550.2,108.4 551.2,115.6 552.2,116.5 553.2,116.8 554.2,114.3 555.2,116.2 556.2,116.8 557.2,116.8 558.3,116.0 559.3,115.7 560.3,115.5 561.3,115.7 562.3,116.0 563.3,115.8 564.3,115.4 565.3,115.9 566.3,108.7 567.3,108.7 568.3,101.5 569.3,101.5 570.3,87.2 571.3,108.4 572.3,116.2 573.3,116.5 574.3,116.5 575.3,114.3 576.3,116.2 577.3,117.1 578.3,116.8 579.3,116.0 580.4,115.7 581.4,115.4 582.4,116.0 583.4,116.0 584.4,115.4 585.4,115.5 586.4,101.5 587.4,108.7 588.4,108.7 589.4,101.5 590.4,94.4 591.4,94.1 592.4,115.1 593.4,116.2 594.4,116.8 595.4,116.5 596.4,114.3 597.4,116.5 598.4,117.1 599.4,116.0 600.4,116.0 601.4,115.7 602.5,115.4 603.5,116.0 604.5,115.7 605.5,115.5 606.5,115.7 607.5,101.5 608.5,108.7 609.5,108.7 610.5,87.2 611.5,80.0 612.5,101.3 613.5,115.3 614.5,116.8 615.5,116.8 616.5,113.2 617.5,115.1 618.5,117.1 619.5,116.8 620.5,116.0 621.5,115.9 622.5,115.4 623.5,115.5 624.6,116.0 625.6,115.7 626.6,115.4 627.6,115.8 628.6,101.5 629.6,108.7 630.6,108.7 631.6,101.5 632.6,80.0 633.6,108.4 634.6,115.9 635.6,116.8 636.6,116.5 637.6,114.3 638.6,116.2 639.6,116.8 640.6,116.5 641.6,116.0 642.6,115.5 643.6,115.7 644.6,116.0 645.6,116.0 646.6,115.7 647.7,115.4 648.7,108.7 649.7,108.7 650.7,108.7 651.7,94.4 652.7,101.5 653.7,94.4 654.7,115.6 655.7,116.2 656.7,116.5 657.7,116.2 658.7,113.2 659.7,116.2 660.7,117.1 661.7,116.5 662.7,116.0 663.7,115.7 664.7,115.4 665.7,116.0 666.7,115.9 667.7,115.4 668.7,115.5 669.8,108.7 670.8,108.7 671.8,108.7 672.8,94.4 673.8,94.4 674.8,101.3 675.8,115.1 676.8,116.5 677.8,116.8 678.8,115.4 679.8,114.3 680.8,116.8 681.8,117.1 682.8,116.0 683.8,116.0 684.8,115.5 685.8,115.4 686.8,116.0 687.8,115.5 688.8,115.7 689.8,116.0 690.8,101.5 691.9,108.7 692.9,108.7 693.9,94.4 694.9,80.0 695.9,101.3 696.9,115.6 697.9,116.5 698.9,116.8 699.9,113.2 700.9,115.1 701.9,116.8 702.9,116.8 703.9,116.0 704.9,115.8 705.9,115.5 706.9,115.7 707.9,116.0 708.9,115.7 709.9,115.4 710.9,115.8 711.9,108.7 712.9,108.7 714.0,108.7 715.0,101.5 716.0,87.2 717.0,108.4 718.0,115.9 719.0,116.5 720.0,116.5 721.0,115.4 722.0,116.5 723.0,117.1 724.0,116.5 725.0,117.4"/><text x="55" y="325">allocator events</text></svg>