<svg xmlns="http://www.w3.org/2000/svg" width="960" height="520" viewBox="0 0 960 520">
<rect width="100%" height="100%" fill="white"/>
<text x="480.0" y="28" text-anchor="middle" font-family="Arial" font-size="20" font-weight="700">TinyStories batch-size sweep</text>
<line x1="72" y1="456" x2="775" y2="456" stroke="#333"/>
<line x1="72" y1="48" x2="72" y2="456" stroke="#333"/>
<line x1="72" y1="456.0" x2="775" y2="456.0" stroke="#eee"/>
<text x="62" y="460.0" text-anchor="end" font-family="Arial" font-size="12">0.70</text>
<line x1="72" y1="374.4" x2="775" y2="374.4" stroke="#eee"/>
<text x="62" y="378.4" text-anchor="end" font-family="Arial" font-size="12">2.54</text>
<line x1="72" y1="292.8" x2="775" y2="292.8" stroke="#eee"/>
<text x="62" y="296.8" text-anchor="end" font-family="Arial" font-size="12">4.38</text>
<line x1="72" y1="211.2" x2="775" y2="211.2" stroke="#eee"/>
<text x="62" y="215.2" text-anchor="end" font-family="Arial" font-size="12">6.21</text>
<line x1="72" y1="129.6" x2="775" y2="129.6" stroke="#eee"/>
<text x="62" y="133.6" text-anchor="end" font-family="Arial" font-size="12">8.05</text>
<line x1="72" y1="48.0" x2="775" y2="48.0" stroke="#eee"/>
<text x="62" y="52.0" text-anchor="end" font-family="Arial" font-size="12">9.89</text>
<text x="72.0" y="480" text-anchor="middle" font-family="Arial" font-size="12">0</text>
<text x="212.6" y="480" text-anchor="middle" font-family="Arial" font-size="12">2000</text>
<text x="353.2" y="480" text-anchor="middle" font-family="Arial" font-size="12">4000</text>
<text x="493.8" y="480" text-anchor="middle" font-family="Arial" font-size="12">6000</text>
<text x="634.4" y="480" text-anchor="middle" font-family="Arial" font-size="12">8000</text>
<text x="775.0" y="480" text-anchor="middle" font-family="Arial" font-size="12">10000</text>
<text x="423.5" y="504" text-anchor="middle" font-family="Arial" font-size="14">step</text>
<text x="18" y="260.0" transform="rotate(-90 18 260.0)" text-anchor="middle" font-family="Arial" font-size="14">val loss</text>
<polyline fill="none" stroke="#1f77b4" stroke-width="2" points="72.0,76.1 79.0,241.1 86.1,280.8 93.1,301.5 100.1,292.9 107.2,305.3 114.2,306.8 121.2,318.5 128.2,317.7 135.3,310.8 142.3,319.7 149.3,314.5 156.4,328.4 163.4,322.3 170.4,327.9 177.4,328.8 184.5,341.2 191.5,344.3 198.5,339.5 205.6,341.6 212.6,322.6 219.6,328.6 226.7,332.4 233.7,329.6 240.7,344.0 247.8,336.1 254.8,349.2 261.8,340.7 268.8,328.8 275.9,340.6 282.9,340.8 289.9,340.4 297.0,338.5 304.0,344.9 311.0,335.6 318.0,348.5 325.1,346.9 332.1,357.5 339.1,347.1 346.2,343.1 353.2,351.5 360.2,362.3 367.3,343.0 374.3,351.9 381.3,350.7 388.4,354.7 395.4,348.7 402.4,345.5 409.4,357.4 416.5,344.7 423.5,351.7 430.5,351.2 437.6,335.1 444.6,360.1 451.6,350.5 458.7,355.6 465.7,348.1 472.7,352.8 479.7,356.4 486.8,360.2 493.8,349.6 500.8,363.8 507.9,361.4 514.9,354.5 521.9,356.0 529.0,358.9 536.0,345.3 543.0,369.9 550.0,358.7 557.1,349.9 564.1,364.1 571.1,346.2 578.2,357.7 585.2,370.3 592.2,358.6 599.2,371.8 606.3,368.2 613.3,359.7 620.3,362.1 627.4,361.1 634.4,365.6 641.4,359.4 648.5,368.3 655.5,361.1 662.5,366.5 669.5,364.0 676.6,371.5 683.6,355.6 690.6,370.6 697.7,352.1 704.7,362.9 711.7,367.3 718.8,359.5 725.8,371.7 732.8,368.4 739.9,367.9 746.9,368.0 753.9,363.1 760.9,366.7 768.0,363.7 775.0,366.9"/>
<line x1="793" y1="66" x2="823" y2="66" stroke="#1f77b4" stroke-width="3"/>
<text x="831" y="70" font-family="Arial" font-size="12">bs 1</text>
<polyline fill="none" stroke="#d62728" stroke-width="2" points="72.0,76.2 79.0,276.1 86.1,333.7 93.1,354.8 100.1,365.0 107.2,371.7 114.2,378.6 121.2,381.5 128.2,384.9 135.3,386.1 142.3,386.9 149.3,391.3 156.4,391.3 163.4,394.6 170.4,394.9 177.4,395.4 184.5,397.5 191.5,401.6 198.5,399.3 205.6,401.2 212.6,399.5 219.6,401.7 226.7,403.5 233.7,403.5 240.7,403.3 247.8,405.7 254.8,405.0 261.8,405.7 268.8,404.9 275.9,405.9 282.9,406.4 289.9,408.3 297.0,407.5 304.0,407.2 311.0,407.6 318.0,409.4 325.1,409.0 332.1,408.6 339.1,410.1 346.2,409.4 353.2,410.6 360.2,411.0 367.3,410.2 374.3,410.9 381.3,409.5 388.4,412.4 395.4,412.6 402.4,411.8 409.4,411.1 416.5,413.1 423.5,414.9 430.5,412.8 437.6,413.3 444.6,413.8 451.6,414.2 458.7,415.2 465.7,413.8 472.7,414.7 479.7,414.7 486.8,414.5 493.8,414.5 500.8,417.2 507.9,414.8 514.9,416.0 521.9,415.8 529.0,418.5 536.0,416.1 543.0,417.0 550.0,416.5 557.1,415.3 564.1,417.1 571.1,417.1 578.2,416.0 585.2,417.2 592.2,417.8 599.2,418.4 606.3,417.5 613.3,417.3 620.3,416.7 627.4,418.4 634.4,417.2 641.4,418.7 648.5,419.3 655.5,418.2 662.5,418.3 669.5,420.6 676.6,418.0 683.6,419.8 690.6,418.4 697.7,418.6 704.7,418.6 711.7,419.6 718.8,420.8 725.8,419.6 732.8,419.8 739.9,420.4 746.9,420.0 753.9,421.4 760.9,420.3 768.0,420.1 775.0,420.0"/>
<line x1="793" y1="88" x2="823" y2="88" stroke="#d62728" stroke-width="3"/>
<text x="831" y="92" font-family="Arial" font-size="12">bs 32</text>
<polyline fill="none" stroke="#2ca02c" stroke-width="2" points="72.0,76.2 79.0,280.6 86.1,341.9 93.1,361.5 100.1,372.8 107.2,379.2 114.2,384.1 121.2,388.2 128.2,392.4 135.3,395.9 142.3,397.3 149.3,399.2 156.4,401.4 163.4,402.9 170.4,402.5 177.4,404.0 184.5,404.8 191.5,405.1 198.5,406.8 205.6,407.1 212.6,407.6 219.6,408.0 226.7,408.0 233.7,409.5 240.7,409.1 247.8,411.0 254.8,411.9 261.8,410.8 268.8,411.1 275.9,412.0 282.9,412.3 289.9,411.6 297.0,412.3 304.0,413.7 311.0,413.2 318.0,413.8 325.1,414.0 332.1,415.1 339.1,414.7 346.2,414.1 353.2,415.6 360.2,416.3 367.3,415.9 374.3,415.3 381.3,416.7 388.4,416.5 395.4,416.3 402.4,417.2 409.4,417.2 416.5,417.9 423.5,417.3 430.5,417.4 437.6,417.8 444.6,419.0 451.6,418.3 458.7,417.7 465.7,418.3 472.7,418.4 479.7,419.4 486.8,418.2 493.8,419.6 500.8,419.8 507.9,419.6 514.9,420.2 521.9,419.8 529.0,420.6 536.0,419.5 543.0,420.9 550.0,421.1 557.1,421.3 564.1,420.8 571.1,421.2 578.2,420.2 585.2,421.1 592.2,420.5 599.2,420.7 606.3,422.8 613.3,420.6 620.3,421.3 627.4,421.6 634.4,421.0 641.4,421.2 648.5,423.2 655.5,422.7 662.5,422.5 669.5,422.9 676.6,423.2 683.6,422.5 690.6,421.9 697.7,422.3 704.7,423.5 711.7,422.2 718.8,423.5 725.8,422.4 732.8,422.9 739.9,423.1 746.9,423.4 753.9,422.6 760.9,423.1 768.0,422.9 775.0,423.7"/>
<line x1="793" y1="110" x2="823" y2="110" stroke="#2ca02c" stroke-width="3"/>
<text x="831" y="114" font-family="Arial" font-size="12">bs 64</text>
<polyline fill="none" stroke="#9467bd" stroke-width="2" points="72.0,76.2 79.0,285.7 86.1,346.4 93.1,366.6 100.1,378.2 107.2,386.3 114.2,392.8 121.2,396.4 128.2,399.8 135.3,402.5 142.3,403.6 149.3,405.0 156.4,406.3 163.4,407.7 170.4,408.3 177.4,409.5 184.5,409.3 191.5,410.5 198.5,411.8 205.6,412.5 212.6,412.4 219.6,413.1 226.7,413.8 233.7,413.6 240.7,414.3 247.8,414.6 254.8,414.6 261.8,415.9 268.8,415.8 275.9,416.0 282.9,416.9 289.9,416.6 297.0,417.4 304.0,417.4 311.0,417.9 318.0,418.0 325.1,417.4 332.1,417.8 339.1,418.7 346.2,418.2 353.2,418.3 360.2,419.9 367.3,419.6 374.3,420.2 381.3,418.9 388.4,420.1 395.4,420.4 402.4,420.3 409.4,420.8 416.5,420.8 423.5,421.2 430.5,421.3 437.6,421.6 444.6,421.2 451.6,421.7 458.7,421.8 465.7,421.9 472.7,422.1 479.7,422.0 486.8,422.0 493.8,423.1 500.8,422.3 507.9,423.2 514.9,423.1 521.9,423.6 529.0,423.3 536.0,423.0 543.0,424.1 550.0,423.2 557.1,423.3 564.1,424.5 571.1,424.1 578.2,423.7 585.2,423.4 592.2,424.3 599.2,424.1 606.3,424.4 613.3,424.5 620.3,424.9 627.4,425.7 634.4,425.1 641.4,424.8 648.5,425.1 655.5,424.4 662.5,424.9 669.5,425.3 676.6,424.7 683.6,426.0 690.6,425.6 697.7,424.5 704.7,425.5 711.7,424.8 718.8,424.8 725.8,425.5 732.8,425.7 739.9,425.3 746.9,425.7 753.9,425.7 760.9,425.7 768.0,425.7 775.0,425.7"/>
<line x1="793" y1="132" x2="823" y2="132" stroke="#9467bd" stroke-width="3"/>
<text x="831" y="136" font-family="Arial" font-size="12">bs 128</text>
<polyline fill="none" stroke="#ff7f0e" stroke-width="2" points="72.0,76.1 79.0,288.4 86.1,349.3 93.1,371.6 100.1,383.7 107.2,391.7 114.2,397.9 121.2,401.5 128.2,404.4 135.3,406.6 142.3,407.9 149.3,409.9 156.4,410.5 163.4,411.1 170.4,412.3 177.4,413.5 184.5,413.6 191.5,414.6 198.5,414.5 205.6,415.3 212.6,415.4 219.6,416.4 226.7,416.6 233.7,417.6 240.7,417.9 247.8,418.4 254.8,418.4 261.8,419.0 268.8,419.0 275.9,419.4 282.9,419.8 289.9,420.4 297.0,420.3 304.0,420.1 311.0,420.2 318.0,421.0 325.1,421.1 332.1,421.4 339.1,421.5 346.2,421.9 353.2,422.1 360.2,422.1 367.3,421.9 374.3,422.0 381.3,422.6 388.4,422.5 395.4,422.7 402.4,422.6 409.4,423.0 416.5,423.2 423.5,423.1 430.5,423.3 437.6,423.6 444.6,423.8 451.6,423.8 458.7,424.4 465.7,424.6 472.7,424.1 479.7,424.6 486.8,424.2 493.8,424.9 500.8,425.2 507.9,424.7 514.9,425.0 521.9,425.3 529.0,425.5 536.0,425.2 543.0,425.4 550.0,425.4 557.1,425.9 564.1,426.0 571.1,426.4 578.2,425.6 585.2,425.5 592.2,426.1 599.2,426.6 606.3,426.6 613.3,426.6 620.3,426.5 627.4,426.3 634.4,426.7 641.4,427.0 648.5,427.0 655.5,426.6 662.5,427.0 669.5,427.0 676.6,427.4 683.6,427.0 690.6,426.7 697.7,427.3 704.7,427.5 711.7,427.3 718.8,427.3 725.8,427.4 732.8,427.2 739.9,427.1 746.9,427.6 753.9,427.5 760.9,427.3 768.0,427.6 775.0,427.9"/>
<line x1="793" y1="154" x2="823" y2="154" stroke="#ff7f0e" stroke-width="3"/>
<text x="831" y="158" font-family="Arial" font-size="12">bs 256</text>
</svg>