<svg xmlns="http://www.w3.org/2000/svg" width="1040" height="540" viewBox="0 0 1040 540">
<rect width="100%" height="100%" fill="white"/>
<text x="520.0" y="28" text-anchor="middle" font-family="Arial" font-size="20" font-weight="700">Final validation loss by completed run</text>
<line x1="72" y1="370" x2="1016" y2="370" stroke="#333"/>
<line x1="72" y1="48" x2="72" y2="370" stroke="#333"/>
<line x1="72" y1="370.0" x2="1016" y2="370.0" stroke="#eee"/>
<text x="62" y="374.0" text-anchor="end" font-family="Arial" font-size="12">0.00</text>
<line x1="72" y1="305.6" x2="1016" y2="305.6" stroke="#eee"/>
<text x="62" y="309.6" text-anchor="end" font-family="Arial" font-size="12">0.92</text>
<line x1="72" y1="241.2" x2="1016" y2="241.2" stroke="#eee"/>
<text x="62" y="245.2" text-anchor="end" font-family="Arial" font-size="12">1.85</text>
<line x1="72" y1="176.8" x2="1016" y2="176.8" stroke="#eee"/>
<text x="62" y="180.8" text-anchor="end" font-family="Arial" font-size="12">2.77</text>
<line x1="72" y1="112.4" x2="1016" y2="112.4" stroke="#eee"/>
<text x="62" y="116.4" text-anchor="end" font-family="Arial" font-size="12">3.69</text>
<line x1="72" y1="48.0" x2="1016" y2="48.0" stroke="#eee"/>
<text x="62" y="52.0" text-anchor="end" font-family="Arial" font-size="12">4.61</text>
<rect x="85.7" y="273.6" width="58.4" height="96.4" fill="#4c78a8"/>
<text x="114.9" y="267.6" text-anchor="middle" font-family="Arial" font-size="11">1.381</text>
<text x="114.9" y="388" transform="rotate(45 114.9 388)" font-family="Arial" font-size="12">tinystories_small</text>
<rect x="171.5" y="264.6" width="58.4" height="105.4" fill="#4c78a8"/>
<text x="200.7" y="258.6" text-anchor="middle" font-family="Arial" font-size="11">1.510</text>
<text x="200.7" y="388" transform="rotate(45 200.7 388)" font-family="Arial" font-size="12">lr_sweep_3e-4</text>
<rect x="257.4" y="276.5" width="58.4" height="93.5" fill="#4c78a8"/>
<text x="286.5" y="270.5" text-anchor="middle" font-family="Arial" font-size="11">1.340</text>
<text x="286.5" y="388" transform="rotate(45 286.5 388)" font-family="Arial" font-size="12">lr_sweep_3e-3</text>
<rect x="343.2" y="181.2" width="58.4" height="188.8" fill="#4c78a8"/>
<text x="372.4" y="175.2" text-anchor="middle" font-family="Arial" font-size="11">2.705</text>
<text x="372.4" y="388" transform="rotate(45 372.4 388)" font-family="Arial" font-size="12">batch_size_1</text>
<rect x="429.0" y="264.7" width="58.4" height="105.3" fill="#4c78a8"/>
<text x="458.2" y="258.7" text-anchor="middle" font-family="Arial" font-size="11">1.509</text>
<text x="458.2" y="388" transform="rotate(45 458.2 388)" font-family="Arial" font-size="12">batch_size_32</text>
<rect x="514.8" y="270.5" width="58.4" height="99.5" fill="#4c78a8"/>
<text x="544.0" y="264.5" text-anchor="middle" font-family="Arial" font-size="11">1.426</text>
<text x="544.0" y="388" transform="rotate(45 544.0 388)" font-family="Arial" font-size="12">batch_size_64</text>
<rect x="600.6" y="277.0" width="58.4" height="93.0" fill="#4c78a8"/>
<text x="629.8" y="271.0" text-anchor="middle" font-family="Arial" font-size="11">1.332</text>
<text x="629.8" y="388" transform="rotate(45 629.8 388)" font-family="Arial" font-size="12">batch_size_256</text>
<rect x="686.5" y="273.8" width="58.4" height="96.2" fill="#4c78a8"/>
<text x="715.6" y="267.8" text-anchor="middle" font-family="Arial" font-size="11">1.378</text>
<text x="715.6" y="388" transform="rotate(45 715.6 388)" font-family="Arial" font-size="12">ablation_post_norm</text>
<rect x="772.3" y="270.0" width="58.4" height="100.0" fill="#4c78a8"/>
<text x="801.5" y="264.0" text-anchor="middle" font-family="Arial" font-size="11">1.433</text>
<text x="801.5" y="388" transform="rotate(45 801.5 388)" font-family="Arial" font-size="12">ablation_nope</text>
<rect x="858.1" y="272.8" width="58.4" height="97.2" fill="#4c78a8"/>
<text x="887.3" y="266.8" text-anchor="middle" font-family="Arial" font-size="11">1.393</text>
<text x="887.3" y="388" transform="rotate(45 887.3 388)" font-family="Arial" font-size="12">ablation_silu_ffn</text>
<rect x="943.9" y="90.0" width="58.4" height="280.0" fill="#4c78a8"/>
<text x="973.1" y="84.0" text-anchor="middle" font-family="Arial" font-size="11">4.011</text>
<text x="973.1" y="388" transform="rotate(45 973.1 388)" font-family="Arial" font-size="12">owt_small</text>
</svg>