<?xml version="1.0" encoding="utf-8" standalone="no"?>
<!DOCTYPE svg PUBLIC "-//W3C//DTD SVG 1.1//EN"
  "http://www.w3.org/Graphics/SVG/1.1/DTD/svg11.dtd">
<svg xmlns:xlink="http://www.w3.org/1999/xlink" width="518.4pt" height="302.4pt" viewBox="0 0 518.4 302.4" xmlns="http://www.w3.org/2000/svg" version="1.1">
 <metadata>
  <rdf:RDF xmlns:dc="http://purl.org/dc/elements/1.1/" xmlns:cc="http://creativecommons.org/ns#" xmlns:rdf="http://www.w3.org/1999/02/22-rdf-syntax-ns#">
   <cc:Work>
    <dc:type rdf:resource="http://purl.org/dc/dcmitype/StillImage"/>
    <dc:date>2026-07-13T18:39:44.384777</dc:date>
    <dc:format>image/svg+xml</dc:format>
    <dc:creator>
     <cc:Agent>
      <dc:title>Matplotlib v3.11.0, https://matplotlib.org/</dc:title>
     </cc:Agent>
    </dc:creator>
   </cc:Work>
  </rdf:RDF>
 </metadata>
 <defs>
  <style type="text/css">*{stroke-linejoin: round; stroke-linecap: butt}</style>
 </defs>
 <g id="figure_1">
  <g id="patch_1">
   <path d="M 0 302.4
L 518.4 302.4
L 518.4 0
L 0 0
z
" style="fill: #ffffff"/>
  </g>
  <g id="axes_1">
   <g id="patch_2">
    <path d="M 38.602344 260.6
L 507.6 260.6
L 507.6 26.16
L 38.602344 26.16
z
" style="fill: #ffffff"/>
   </g>
   <g id="matplotlib.axis_1">
    <g id="xtick_1">
     <g id="line2d_1">
      <path d="M 107.29392 260.6
L 107.29392 26.16
" clip-path="url(#p8f8fc043dc)" style="fill: none; stroke: #b0b0b0; stroke-opacity: 0.25; stroke-width: 0.8; stroke-linecap: square"/>
     </g>
     <g id="line2d_2">
      <defs>
       <path id="m7f3f3fd833" d="M 0 0
L 0 3.5
" style="stroke: #000000; stroke-width: 0.8"/>
      </defs>
      <g>
       <use xlink:href="#m7f3f3fd833" x="107.29392" y="260.6" style="stroke: #000000; stroke-width: 0.8"/>
      </g>
     </g>
     <g id="text_1">
      <!-- 200 -->
      <g transform="translate(97.75017 275.197656) scale(0.1 -0.1)">
       <defs>
        <path id="DejaVuSans-15" d="M 1228 531
L 3431 531
L 3431 0
L 469 0
L 469 531
Q 828 903 1448 1529
Q 2069 2156 2228 2338
Q 2531 2678 2651 2914
Q 2772 3150 2772 3378
Q 2772 3750 2511 3984
Q 2250 4219 1831 4219
Q 1534 4219 1204 4116
Q 875 4013 500 3803
L 500 4441
Q 881 4594 1212 4672
Q 1544 4750 1819 4750
Q 2544 4750 2975 4387
Q 3406 4025 3406 3419
Q 3406 3131 3298 2873
Q 3191 2616 2906 2266
Q 2828 2175 2409 1742
Q 1991 1309 1228 531
z
" transform="scale(0.015625)"/>
        <path id="DejaVuSans-13" d="M 2034 4250
Q 1547 4250 1301 3770
Q 1056 3291 1056 2328
Q 1056 1369 1301 889
Q 1547 409 2034 409
Q 2525 409 2770 889
Q 3016 1369 3016 2328
Q 3016 3291 2770 3770
Q 2525 4250 2034 4250
z
M 2034 4750
Q 2819 4750 3233 4129
Q 3647 3509 3647 2328
Q 3647 1150 3233 529
Q 2819 -91 2034 -91
Q 1250 -91 836 529
Q 422 1150 422 2328
Q 422 3509 836 4129
Q 1250 4750 2034 4750
z
" transform="scale(0.015625)"/>
       </defs>
       <use xlink:href="#DejaVuSans-15"/>
       <use xlink:href="#DejaVuSans-13" transform="translate(63.625 0)"/>
       <use xlink:href="#DejaVuSans-13" transform="translate(127.25 0)"/>
      </g>
     </g>
    </g>
    <g id="xtick_2">
     <g id="line2d_3">
      <path d="M 202.040921 260.6
L 202.040921 26.16
" clip-path="url(#p8f8fc043dc)" style="fill: none; stroke: #b0b0b0; stroke-opacity: 0.25; stroke-width: 0.8; stroke-linecap: square"/>
     </g>
     <g id="line2d_4">
      <g>
       <use xlink:href="#m7f3f3fd833" x="202.040921" y="260.6" style="stroke: #000000; stroke-width: 0.8"/>
      </g>
     </g>
     <g id="text_2">
      <!-- 400 -->
      <g transform="translate(192.497171 275.197656) scale(0.1 -0.1)">
       <defs>
        <path id="DejaVuSans-17" d="M 2419 4116
L 825 1625
L 2419 1625
L 2419 4116
z
M 2253 4666
L 3047 4666
L 3047 1625
L 3713 1625
L 3713 1100
L 3047 1100
L 3047 0
L 2419 0
L 2419 1100
L 313 1100
L 313 1709
L 2253 4666
z
" transform="scale(0.015625)"/>
       </defs>
       <use xlink:href="#DejaVuSans-17"/>
       <use xlink:href="#DejaVuSans-13" transform="translate(63.625 0)"/>
       <use xlink:href="#DejaVuSans-13" transform="translate(127.25 0)"/>
      </g>
     </g>
    </g>
    <g id="xtick_3">
     <g id="line2d_5">
      <path d="M 296.787922 260.6
L 296.787922 26.16
" clip-path="url(#p8f8fc043dc)" style="fill: none; stroke: #b0b0b0; stroke-opacity: 0.25; stroke-width: 0.8; stroke-linecap: square"/>
     </g>
     <g id="line2d_6">
      <g>
       <use xlink:href="#m7f3f3fd833" x="296.787922" y="260.6" style="stroke: #000000; stroke-width: 0.8"/>
      </g>
     </g>
     <g id="text_3">
      <!-- 600 -->
      <g transform="translate(287.244172 275.197656) scale(0.1 -0.1)">
       <defs>
        <path id="DejaVuSans-19" d="M 2113 2584
Q 1688 2584 1439 2293
Q 1191 2003 1191 1497
Q 1191 994 1439 701
Q 1688 409 2113 409
Q 2538 409 2786 701
Q 3034 994 3034 1497
Q 3034 2003 2786 2293
Q 2538 2584 2113 2584
z
M 3366 4563
L 3366 3988
Q 3128 4100 2886 4159
Q 2644 4219 2406 4219
Q 1781 4219 1451 3797
Q 1122 3375 1075 2522
Q 1259 2794 1537 2939
Q 1816 3084 2150 3084
Q 2853 3084 3261 2657
Q 3669 2231 3669 1497
Q 3669 778 3244 343
Q 2819 -91 2113 -91
Q 1303 -91 875 529
Q 447 1150 447 2328
Q 447 3434 972 4092
Q 1497 4750 2381 4750
Q 2619 4750 2861 4703
Q 3103 4656 3366 4563
z
" transform="scale(0.015625)"/>
       </defs>
       <use xlink:href="#DejaVuSans-19"/>
       <use xlink:href="#DejaVuSans-13" transform="translate(63.625 0)"/>
       <use xlink:href="#DejaVuSans-13" transform="translate(127.25 0)"/>
      </g>
     </g>
    </g>
    <g id="xtick_4">
     <g id="line2d_7">
      <path d="M 391.534923 260.6
L 391.534923 26.16
" clip-path="url(#p8f8fc043dc)" style="fill: none; stroke: #b0b0b0; stroke-opacity: 0.25; stroke-width: 0.8; stroke-linecap: square"/>
     </g>
     <g id="line2d_8">
      <g>
       <use xlink:href="#m7f3f3fd833" x="391.534923" y="260.6" style="stroke: #000000; stroke-width: 0.8"/>
      </g>
     </g>
     <g id="text_4">
      <!-- 800 -->
      <g transform="translate(381.991173 275.197656) scale(0.1 -0.1)">
       <defs>
        <path id="DejaVuSans-1b" d="M 2034 2216
Q 1584 2216 1326 1975
Q 1069 1734 1069 1313
Q 1069 891 1326 650
Q 1584 409 2034 409
Q 2484 409 2743 651
Q 3003 894 3003 1313
Q 3003 1734 2745 1975
Q 2488 2216 2034 2216
z
M 1403 2484
Q 997 2584 770 2862
Q 544 3141 544 3541
Q 544 4100 942 4425
Q 1341 4750 2034 4750
Q 2731 4750 3128 4425
Q 3525 4100 3525 3541
Q 3525 3141 3298 2862
Q 3072 2584 2669 2484
Q 3125 2378 3379 2068
Q 3634 1759 3634 1313
Q 3634 634 3220 271
Q 2806 -91 2034 -91
Q 1263 -91 848 271
Q 434 634 434 1313
Q 434 1759 690 2068
Q 947 2378 1403 2484
z
M 1172 3481
Q 1172 3119 1398 2916
Q 1625 2713 2034 2713
Q 2441 2713 2670 2916
Q 2900 3119 2900 3481
Q 2900 3844 2670 4047
Q 2441 4250 2034 4250
Q 1625 4250 1398 4047
Q 1172 3844 1172 3481
z
" transform="scale(0.015625)"/>
       </defs>
       <use xlink:href="#DejaVuSans-1b"/>
       <use xlink:href="#DejaVuSans-13" transform="translate(63.625 0)"/>
       <use xlink:href="#DejaVuSans-13" transform="translate(127.25 0)"/>
      </g>
     </g>
    </g>
    <g id="xtick_5">
     <g id="line2d_9">
      <path d="M 486.281925 260.6
L 486.281925 26.16
" clip-path="url(#p8f8fc043dc)" style="fill: none; stroke: #b0b0b0; stroke-opacity: 0.25; stroke-width: 0.8; stroke-linecap: square"/>
     </g>
     <g id="line2d_10">
      <g>
       <use xlink:href="#m7f3f3fd833" x="486.281925" y="260.6" style="stroke: #000000; stroke-width: 0.8"/>
      </g>
     </g>
     <g id="text_5">
      <!-- 1000 -->
      <g transform="translate(473.556925 275.197656) scale(0.1 -0.1)">
       <defs>
        <path id="DejaVuSans-14" d="M 794 531
L 1825 531
L 1825 4091
L 703 3866
L 703 4441
L 1819 4666
L 2450 4666
L 2450 531
L 3481 531
L 3481 0
L 794 0
L 794 531
z
" transform="scale(0.015625)"/>
       </defs>
       <use xlink:href="#DejaVuSans-14"/>
       <use xlink:href="#DejaVuSans-13" transform="translate(63.625 0)"/>
       <use xlink:href="#DejaVuSans-13" transform="translate(127.25 0)"/>
       <use xlink:href="#DejaVuSans-13" transform="translate(190.875 0)"/>
      </g>
     </g>
    </g>
    <g id="text_6">
     <!-- Step -->
     <g transform="translate(261.716016 289.197656) scale(0.1 -0.1)">
      <defs>
       <path id="DejaVuSans-36" d="M 3425 4513
L 3425 3897
Q 3066 4069 2747 4153
Q 2428 4238 2131 4238
Q 1616 4238 1336 4038
Q 1056 3838 1056 3469
Q 1056 3159 1242 3001
Q 1428 2844 1947 2747
L 2328 2669
Q 3034 2534 3370 2195
Q 3706 1856 3706 1288
Q 3706 609 3251 259
Q 2797 -91 1919 -91
Q 1588 -91 1214 -16
Q 841 59 441 206
L 441 856
Q 825 641 1194 531
Q 1563 422 1919 422
Q 2459 422 2753 634
Q 3047 847 3047 1241
Q 3047 1584 2836 1778
Q 2625 1972 2144 2069
L 1759 2144
Q 1053 2284 737 2584
Q 422 2884 422 3419
Q 422 4038 858 4394
Q 1294 4750 2059 4750
Q 2388 4750 2728 4690
Q 3069 4631 3425 4513
z
" transform="scale(0.015625)"/>
       <path id="DejaVuSans-57" d="M 1172 4494
L 1172 3500
L 2356 3500
L 2356 3053
L 1172 3053
L 1172 1153
Q 1172 725 1289 603
Q 1406 481 1766 481
L 2356 481
L 2356 0
L 1766 0
Q 1100 0 847 248
Q 594 497 594 1153
L 594 3053
L 172 3053
L 172 3500
L 594 3500
L 594 4494
L 1172 4494
z
" transform="scale(0.015625)"/>
       <path id="DejaVuSans-48" d="M 3597 1894
L 3597 1613
L 953 1613
Q 991 1019 1311 708
Q 1631 397 2203 397
Q 2534 397 2845 478
Q 3156 559 3463 722
L 3463 178
Q 3153 47 2828 -22
Q 2503 -91 2169 -91
Q 1331 -91 842 396
Q 353 884 353 1716
Q 353 2575 817 3079
Q 1281 3584 2069 3584
Q 2775 3584 3186 3129
Q 3597 2675 3597 1894
z
M 3022 2063
Q 3016 2534 2758 2815
Q 2500 3097 2075 3097
Q 1594 3097 1305 2825
Q 1016 2553 972 2059
L 3022 2063
z
" transform="scale(0.015625)"/>
       <path id="DejaVuSans-53" d="M 1159 525
L 1159 -1331
L 581 -1331
L 581 3500
L 1159 3500
L 1159 2969
Q 1341 3281 1617 3432
Q 1894 3584 2278 3584
Q 2916 3584 3314 3078
Q 3713 2572 3713 1747
Q 3713 922 3314 415
Q 2916 -91 2278 -91
Q 1894 -91 1617 61
Q 1341 213 1159 525
z
M 3116 1747
Q 3116 2381 2855 2742
Q 2594 3103 2138 3103
Q 1681 3103 1420 2742
Q 1159 2381 1159 1747
Q 1159 1113 1420 752
Q 1681 391 2138 391
Q 2594 391 2855 752
Q 3116 1113 3116 1747
z
" transform="scale(0.015625)"/>
      </defs>
      <use xlink:href="#DejaVuSans-36"/>
      <use xlink:href="#DejaVuSans-57" transform="translate(63.484375 0)"/>
      <use xlink:href="#DejaVuSans-48" transform="translate(102.6875 0)"/>
      <use xlink:href="#DejaVuSans-53" transform="translate(164.21875 0)"/>
     </g>
    </g>
   </g>
   <g id="matplotlib.axis_2">
    <g id="ytick_1">
     <g id="line2d_11">
      <path d="M 38.602344 250.601574
L 507.6 250.601574
" clip-path="url(#p8f8fc043dc)" style="fill: none; stroke: #b0b0b0; stroke-opacity: 0.25; stroke-width: 0.8; stroke-linecap: square"/>
     </g>
     <g id="line2d_12">
      <defs>
       <path id="mb084b1db1c" d="M 0 0
L -3.5 0
" style="stroke: #000000; stroke-width: 0.8"/>
      </defs>
      <g>
       <use xlink:href="#mb084b1db1c" x="38.602344" y="250.601574" style="stroke: #000000; stroke-width: 0.8"/>
      </g>
     </g>
     <g id="text_7">
      <!-- 2 -->
      <g transform="translate(25.239844 254.400402) scale(0.1 -0.1)">
       <use xlink:href="#DejaVuSans-15"/>
      </g>
     </g>
    </g>
    <g id="ytick_2">
     <g id="line2d_13">
      <path d="M 38.602344 220.933009
L 507.6 220.933009
" clip-path="url(#p8f8fc043dc)" style="fill: none; stroke: #b0b0b0; stroke-opacity: 0.25; stroke-width: 0.8; stroke-linecap: square"/>
     </g>
     <g id="line2d_14">
      <g>
       <use xlink:href="#mb084b1db1c" x="38.602344" y="220.933009" style="stroke: #000000; stroke-width: 0.8"/>
      </g>
     </g>
     <g id="text_8">
      <!-- 3 -->
      <g transform="translate(25.239844 224.731837) scale(0.1 -0.1)">
       <defs>
        <path id="DejaVuSans-16" d="M 2597 2516
Q 3050 2419 3304 2112
Q 3559 1806 3559 1356
Q 3559 666 3084 287
Q 2609 -91 1734 -91
Q 1441 -91 1130 -33
Q 819 25 488 141
L 488 750
Q 750 597 1062 519
Q 1375 441 1716 441
Q 2309 441 2620 675
Q 2931 909 2931 1356
Q 2931 1769 2642 2001
Q 2353 2234 1838 2234
L 1294 2234
L 1294 2753
L 1863 2753
Q 2328 2753 2575 2939
Q 2822 3125 2822 3475
Q 2822 3834 2567 4026
Q 2313 4219 1838 4219
Q 1578 4219 1281 4162
Q 984 4106 628 3988
L 628 4550
Q 988 4650 1302 4700
Q 1616 4750 1894 4750
Q 2613 4750 3031 4423
Q 3450 4097 3450 3541
Q 3450 3153 3228 2886
Q 3006 2619 2597 2516
z
" transform="scale(0.015625)"/>
       </defs>
       <use xlink:href="#DejaVuSans-16"/>
      </g>
     </g>
    </g>
    <g id="ytick_3">
     <g id="line2d_15">
      <path d="M 38.602344 191.264444
L 507.6 191.264444
" clip-path="url(#p8f8fc043dc)" style="fill: none; stroke: #b0b0b0; stroke-opacity: 0.25; stroke-width: 0.8; stroke-linecap: square"/>
     </g>
     <g id="line2d_16">
      <g>
       <use xlink:href="#mb084b1db1c" x="38.602344" y="191.264444" style="stroke: #000000; stroke-width: 0.8"/>
      </g>
     </g>
     <g id="text_9">
      <!-- 4 -->
      <g transform="translate(25.239844 195.063272) scale(0.1 -0.1)">
       <use xlink:href="#DejaVuSans-17"/>
      </g>
     </g>
    </g>
    <g id="ytick_4">
     <g id="line2d_17">
      <path d="M 38.602344 161.595879
L 507.6 161.595879
" clip-path="url(#p8f8fc043dc)" style="fill: none; stroke: #b0b0b0; stroke-opacity: 0.25; stroke-width: 0.8; stroke-linecap: square"/>
     </g>
     <g id="line2d_18">
      <g>
       <use xlink:href="#mb084b1db1c" x="38.602344" y="161.595879" style="stroke: #000000; stroke-width: 0.8"/>
      </g>
     </g>
     <g id="text_10">
      <!-- 5 -->
      <g transform="translate(25.239844 165.394707) scale(0.1 -0.1)">
       <defs>
        <path id="DejaVuSans-18" d="M 691 4666
L 3169 4666
L 3169 4134
L 1269 4134
L 1269 2991
Q 1406 3038 1543 3061
Q 1681 3084 1819 3084
Q 2600 3084 3056 2656
Q 3513 2228 3513 1497
Q 3513 744 3044 326
Q 2575 -91 1722 -91
Q 1428 -91 1123 -41
Q 819 9 494 109
L 494 744
Q 775 591 1075 516
Q 1375 441 1709 441
Q 2250 441 2565 725
Q 2881 1009 2881 1497
Q 2881 1984 2565 2268
Q 2250 2553 1709 2553
Q 1456 2553 1204 2497
Q 953 2441 691 2322
L 691 4666
z
" transform="scale(0.015625)"/>
       </defs>
       <use xlink:href="#DejaVuSans-18"/>
      </g>
     </g>
    </g>
    <g id="ytick_5">
     <g id="line2d_19">
      <path d="M 38.602344 131.927314
L 507.6 131.927314
" clip-path="url(#p8f8fc043dc)" style="fill: none; stroke: #b0b0b0; stroke-opacity: 0.25; stroke-width: 0.8; stroke-linecap: square"/>
     </g>
     <g id="line2d_20">
      <g>
       <use xlink:href="#mb084b1db1c" x="38.602344" y="131.927314" style="stroke: #000000; stroke-width: 0.8"/>
      </g>
     </g>
     <g id="text_11">
      <!-- 6 -->
      <g transform="translate(25.239844 135.726142) scale(0.1 -0.1)">
       <use xlink:href="#DejaVuSans-19"/>
      </g>
     </g>
    </g>
    <g id="ytick_6">
     <g id="line2d_21">
      <path d="M 38.602344 102.258749
L 507.6 102.258749
" clip-path="url(#p8f8fc043dc)" style="fill: none; stroke: #b0b0b0; stroke-opacity: 0.25; stroke-width: 0.8; stroke-linecap: square"/>
     </g>
     <g id="line2d_22">
      <g>
       <use xlink:href="#mb084b1db1c" x="38.602344" y="102.258749" style="stroke: #000000; stroke-width: 0.8"/>
      </g>
     </g>
     <g id="text_12">
      <!-- 7 -->
      <g transform="translate(25.239844 106.057577) scale(0.1 -0.1)">
       <defs>
        <path id="DejaVuSans-1a" d="M 525 4666
L 3525 4666
L 3525 4397
L 1831 0
L 1172 0
L 2766 4134
L 525 4134
L 525 4666
z
" transform="scale(0.015625)"/>
       </defs>
       <use xlink:href="#DejaVuSans-1a"/>
      </g>
     </g>
    </g>
    <g id="ytick_7">
     <g id="line2d_23">
      <path d="M 38.602344 72.590184
L 507.6 72.590184
" clip-path="url(#p8f8fc043dc)" style="fill: none; stroke: #b0b0b0; stroke-opacity: 0.25; stroke-width: 0.8; stroke-linecap: square"/>
     </g>
     <g id="line2d_24">
      <g>
       <use xlink:href="#mb084b1db1c" x="38.602344" y="72.590184" style="stroke: #000000; stroke-width: 0.8"/>
      </g>
     </g>
     <g id="text_13">
      <!-- 8 -->
      <g transform="translate(25.239844 76.389012) scale(0.1 -0.1)">
       <use xlink:href="#DejaVuSans-1b"/>
      </g>
     </g>
    </g>
    <g id="ytick_8">
     <g id="line2d_25">
      <path d="M 38.602344 42.921618
L 507.6 42.921618
" clip-path="url(#p8f8fc043dc)" style="fill: none; stroke: #b0b0b0; stroke-opacity: 0.25; stroke-width: 0.8; stroke-linecap: square"/>
     </g>
     <g id="line2d_26">
      <g>
       <use xlink:href="#mb084b1db1c" x="38.602344" y="42.921618" style="stroke: #000000; stroke-width: 0.8"/>
      </g>
     </g>
     <g id="text_14">
      <!-- 9 -->
      <g transform="translate(25.239844 46.720447) scale(0.1 -0.1)">
       <defs>
        <path id="DejaVuSans-1c" d="M 703 97
L 703 672
Q 941 559 1184 500
Q 1428 441 1663 441
Q 2288 441 2617 861
Q 2947 1281 2994 2138
Q 2813 1869 2534 1725
Q 2256 1581 1919 1581
Q 1219 1581 811 2004
Q 403 2428 403 3163
Q 403 3881 828 4315
Q 1253 4750 1959 4750
Q 2769 4750 3195 4129
Q 3622 3509 3622 2328
Q 3622 1225 3098 567
Q 2575 -91 1691 -91
Q 1453 -91 1209 -44
Q 966 3 703 97
z
M 1959 2075
Q 2384 2075 2632 2365
Q 2881 2656 2881 3163
Q 2881 3666 2632 3958
Q 2384 4250 1959 4250
Q 1534 4250 1286 3958
Q 1038 3666 1038 3163
Q 1038 2656 1286 2365
Q 1534 2075 1959 2075
z
" transform="scale(0.015625)"/>
       </defs>
       <use xlink:href="#DejaVuSans-1c"/>
      </g>
     </g>
    </g>
    <g id="text_15">
     <!-- Validation loss -->
     <g transform="translate(18.8375 179.316719) rotate(-90) scale(0.1 -0.1)">
      <defs>
       <path id="DejaVuSans-39" d="M 1831 0
L 50 4666
L 709 4666
L 2188 738
L 3669 4666
L 4325 4666
L 2547 0
L 1831 0
z
" transform="scale(0.015625)"/>
       <path id="DejaVuSans-44" d="M 2194 1759
Q 1497 1759 1228 1600
Q 959 1441 959 1056
Q 959 750 1161 570
Q 1363 391 1709 391
Q 2188 391 2477 730
Q 2766 1069 2766 1631
L 2766 1759
L 2194 1759
z
M 3341 1997
L 3341 0
L 2766 0
L 2766 531
Q 2569 213 2275 61
Q 1981 -91 1556 -91
Q 1019 -91 701 211
Q 384 513 384 1019
Q 384 1609 779 1909
Q 1175 2209 1959 2209
L 2766 2209
L 2766 2266
Q 2766 2663 2505 2880
Q 2244 3097 1772 3097
Q 1472 3097 1187 3025
Q 903 2953 641 2809
L 641 3341
Q 956 3463 1253 3523
Q 1550 3584 1831 3584
Q 2591 3584 2966 3190
Q 3341 2797 3341 1997
z
" transform="scale(0.015625)"/>
       <path id="DejaVuSans-4f" d="M 603 4863
L 1178 4863
L 1178 0
L 603 0
L 603 4863
z
" transform="scale(0.015625)"/>
       <path id="DejaVuSans-4c" d="M 603 3500
L 1178 3500
L 1178 0
L 603 0
L 603 3500
z
M 603 4863
L 1178 4863
L 1178 4134
L 603 4134
L 603 4863
z
" transform="scale(0.015625)"/>
       <path id="DejaVuSans-47" d="M 2906 2969
L 2906 4863
L 3481 4863
L 3481 0
L 2906 0
L 2906 525
Q 2725 213 2448 61
Q 2172 -91 1784 -91
Q 1150 -91 751 415
Q 353 922 353 1747
Q 353 2572 751 3078
Q 1150 3584 1784 3584
Q 2172 3584 2448 3432
Q 2725 3281 2906 2969
z
M 947 1747
Q 947 1113 1208 752
Q 1469 391 1925 391
Q 2381 391 2643 752
Q 2906 1113 2906 1747
Q 2906 2381 2643 2742
Q 2381 3103 1925 3103
Q 1469 3103 1208 2742
Q 947 2381 947 1747
z
" transform="scale(0.015625)"/>
       <path id="DejaVuSans-52" d="M 1959 3097
Q 1497 3097 1228 2736
Q 959 2375 959 1747
Q 959 1119 1226 758
Q 1494 397 1959 397
Q 2419 397 2687 759
Q 2956 1122 2956 1747
Q 2956 2369 2687 2733
Q 2419 3097 1959 3097
z
M 1959 3584
Q 2709 3584 3137 3096
Q 3566 2609 3566 1747
Q 3566 888 3137 398
Q 2709 -91 1959 -91
Q 1206 -91 779 398
Q 353 888 353 1747
Q 353 2609 779 3096
Q 1206 3584 1959 3584
z
" transform="scale(0.015625)"/>
       <path id="DejaVuSans-51" d="M 3513 2113
L 3513 0
L 2938 0
L 2938 2094
Q 2938 2591 2744 2837
Q 2550 3084 2163 3084
Q 1697 3084 1428 2787
Q 1159 2491 1159 1978
L 1159 0
L 581 0
L 581 3500
L 1159 3500
L 1159 2956
Q 1366 3272 1645 3428
Q 1925 3584 2291 3584
Q 2894 3584 3203 3211
Q 3513 2838 3513 2113
z
" transform="scale(0.015625)"/>
       <path id="DejaVuSans-3" transform="scale(0.015625)"/>
       <path id="DejaVuSans-56" d="M 2834 3397
L 2834 2853
Q 2591 2978 2328 3040
Q 2066 3103 1784 3103
Q 1356 3103 1142 2972
Q 928 2841 928 2578
Q 928 2378 1081 2264
Q 1234 2150 1697 2047
L 1894 2003
Q 2506 1872 2764 1633
Q 3022 1394 3022 966
Q 3022 478 2636 193
Q 2250 -91 1575 -91
Q 1294 -91 989 -36
Q 684 19 347 128
L 347 722
Q 666 556 975 473
Q 1284 391 1588 391
Q 1994 391 2212 530
Q 2431 669 2431 922
Q 2431 1156 2273 1281
Q 2116 1406 1581 1522
L 1381 1569
Q 847 1681 609 1914
Q 372 2147 372 2553
Q 372 3047 722 3315
Q 1072 3584 1716 3584
Q 2034 3584 2315 3537
Q 2597 3491 2834 3397
z
" transform="scale(0.015625)"/>
      </defs>
      <use xlink:href="#DejaVuSans-39"/>
      <use xlink:href="#DejaVuSans-44" transform="translate(60.640625 0)"/>
      <use xlink:href="#DejaVuSans-4f" transform="translate(121.921875 0)"/>
      <use xlink:href="#DejaVuSans-4c" transform="translate(149.703125 0)"/>
      <use xlink:href="#DejaVuSans-47" transform="translate(177.484375 0)"/>
      <use xlink:href="#DejaVuSans-44" transform="translate(240.96875 0)"/>
      <use xlink:href="#DejaVuSans-57" transform="translate(302.25 0)"/>
      <use xlink:href="#DejaVuSans-4c" transform="translate(341.453125 0)"/>
      <use xlink:href="#DejaVuSans-52" transform="translate(369.234375 0)"/>
      <use xlink:href="#DejaVuSans-51" transform="translate(430.421875 0)"/>
      <use xlink:href="#DejaVuSans-3" transform="translate(493.796875 0)"/>
      <use xlink:href="#DejaVuSans-4f" transform="translate(525.578125 0)"/>
      <use xlink:href="#DejaVuSans-52" transform="translate(553.359375 0)"/>
      <use xlink:href="#DejaVuSans-56" transform="translate(614.546875 0)"/>
      <use xlink:href="#DejaVuSans-56" transform="translate(666.640625 0)"/>
     </g>
    </g>
   </g>
   <g id="line2d_27">
    <path d="M 59.920419 208.534344
L 107.29392 227.298613
L 154.66742 235.265714
L 202.040921 239.14376
L 249.414422 242.537997
L 296.787922 244.773065
L 344.161423 246.415823
L 391.534923 246.886029
L 438.908424 247.98873
L 486.281925 248.808206
" clip-path="url(#p8f8fc043dc)" style="fill: none; stroke: #1f77b4; stroke-width: 1.4; stroke-linecap: square"/>
    <defs>
     <path id="mbfd597b6f5" d="M 0 1.25
C 0.331504 1.25 0.649475 1.118292 0.883883 0.883883
C 1.118292 0.649475 1.25 0.331504 1.25 0
C 1.25 -0.331504 1.118292 -0.649475 0.883883 -0.883883
C 0.649475 -1.118292 0.331504 -1.25 0 -1.25
C -0.331504 -1.25 -0.649475 -1.118292 -0.883883 -0.883883
C -1.118292 -0.649475 -1.25 -0.331504 -1.25 0
C -1.25 0.331504 -1.118292 0.649475 -0.883883 0.883883
C -0.649475 1.118292 -0.331504 1.25 0 1.25
z
" style="stroke: #1f77b4"/>
    </defs>
    <g clip-path="url(#p8f8fc043dc)">
     <use xlink:href="#mbfd597b6f5" x="59.920419" y="208.534344" style="fill: #1f77b4; stroke: #1f77b4"/>
     <use xlink:href="#mbfd597b6f5" x="107.29392" y="227.298613" style="fill: #1f77b4; stroke: #1f77b4"/>
     <use xlink:href="#mbfd597b6f5" x="154.66742" y="235.265714" style="fill: #1f77b4; stroke: #1f77b4"/>
     <use xlink:href="#mbfd597b6f5" x="202.040921" y="239.14376" style="fill: #1f77b4; stroke: #1f77b4"/>
     <use xlink:href="#mbfd597b6f5" x="249.414422" y="242.537997" style="fill: #1f77b4; stroke: #1f77b4"/>
     <use xlink:href="#mbfd597b6f5" x="296.787922" y="244.773065" style="fill: #1f77b4; stroke: #1f77b4"/>
     <use xlink:href="#mbfd597b6f5" x="344.161423" y="246.415823" style="fill: #1f77b4; stroke: #1f77b4"/>
     <use xlink:href="#mbfd597b6f5" x="391.534923" y="246.886029" style="fill: #1f77b4; stroke: #1f77b4"/>
     <use xlink:href="#mbfd597b6f5" x="438.908424" y="247.98873" style="fill: #1f77b4; stroke: #1f77b4"/>
     <use xlink:href="#mbfd597b6f5" x="486.281925" y="248.808206" style="fill: #1f77b4; stroke: #1f77b4"/>
    </g>
   </g>
   <g id="line2d_28">
    <path d="M 59.920419 39.081027
L 107.29392 37.480314
L 154.66742 37.156544
L 202.040921 37.006755
L 249.414422 36.985959
L 296.787922 36.916242
L 344.161423 36.864605
L 391.534923 36.838009
L 438.908424 36.823692
L 486.281925 36.816364
" clip-path="url(#p8f8fc043dc)" style="fill: none; stroke: #ff7f0e; stroke-width: 1.4; stroke-linecap: square"/>
    <defs>
     <path id="mbf242a1760" d="M 0 1.25
C 0.331504 1.25 0.649475 1.118292 0.883883 0.883883
C 1.118292 0.649475 1.25 0.331504 1.25 0
C 1.25 -0.331504 1.118292 -0.649475 0.883883 -0.883883
C 0.649475 -1.118292 0.331504 -1.25 0 -1.25
C -0.331504 -1.25 -0.649475 -1.118292 -0.883883 -0.883883
C -1.118292 -0.649475 -1.25 -0.331504 -1.25 0
C -1.25 0.331504 -1.118292 0.649475 -0.883883 0.883883
C -0.649475 1.118292 -0.331504 1.25 0 1.25
z
" style="stroke: #ff7f0e"/>
    </defs>
    <g clip-path="url(#p8f8fc043dc)">
     <use xlink:href="#mbf242a1760" x="59.920419" y="39.081027" style="fill: #ff7f0e; stroke: #ff7f0e"/>
     <use xlink:href="#mbf242a1760" x="107.29392" y="37.480314" style="fill: #ff7f0e; stroke: #ff7f0e"/>
     <use xlink:href="#mbf242a1760" x="154.66742" y="37.156544" style="fill: #ff7f0e; stroke: #ff7f0e"/>
     <use xlink:href="#mbf242a1760" x="202.040921" y="37.006755" style="fill: #ff7f0e; stroke: #ff7f0e"/>
     <use xlink:href="#mbf242a1760" x="249.414422" y="36.985959" style="fill: #ff7f0e; stroke: #ff7f0e"/>
     <use xlink:href="#mbf242a1760" x="296.787922" y="36.916242" style="fill: #ff7f0e; stroke: #ff7f0e"/>
     <use xlink:href="#mbf242a1760" x="344.161423" y="36.864605" style="fill: #ff7f0e; stroke: #ff7f0e"/>
     <use xlink:href="#mbf242a1760" x="391.534923" y="36.838009" style="fill: #ff7f0e; stroke: #ff7f0e"/>
     <use xlink:href="#mbf242a1760" x="438.908424" y="36.823692" style="fill: #ff7f0e; stroke: #ff7f0e"/>
     <use xlink:href="#mbf242a1760" x="486.281925" y="36.816364" style="fill: #ff7f0e; stroke: #ff7f0e"/>
    </g>
   </g>
   <g id="line2d_29">
    <path d="M 59.920419 104.188551
L 107.29392 99.915031
L 154.66742 101.204693
L 202.040921 97.915597
L 249.414422 97.196727
L 296.787922 90.610713
L 344.161423 97.214185
L 391.534923 92.645119
L 438.908424 97.029368
L 486.281925 97.191917
" clip-path="url(#p8f8fc043dc)" style="fill: none; stroke: #2ca02c; stroke-width: 1.4; stroke-linecap: square"/>
    <defs>
     <path id="m96408e9aa0" d="M 0 1.25
C 0.331504 1.25 0.649475 1.118292 0.883883 0.883883
C 1.118292 0.649475 1.25 0.331504 1.25 0
C 1.25 -0.331504 1.118292 -0.649475 0.883883 -0.883883
C 0.649475 -1.118292 0.331504 -1.25 0 -1.25
C -0.331504 -1.25 -0.649475 -1.118292 -0.883883 -0.883883
C -1.118292 -0.649475 -1.25 -0.331504 -1.25 0
C -1.25 0.331504 -1.118292 0.649475 -0.883883 0.883883
C -0.649475 1.118292 -0.331504 1.25 0 1.25
z
" style="stroke: #2ca02c"/>
    </defs>
    <g clip-path="url(#p8f8fc043dc)">
     <use xlink:href="#m96408e9aa0" x="59.920419" y="104.188551" style="fill: #2ca02c; stroke: #2ca02c"/>
     <use xlink:href="#m96408e9aa0" x="107.29392" y="99.915031" style="fill: #2ca02c; stroke: #2ca02c"/>
     <use xlink:href="#m96408e9aa0" x="154.66742" y="101.204693" style="fill: #2ca02c; stroke: #2ca02c"/>
     <use xlink:href="#m96408e9aa0" x="202.040921" y="97.915597" style="fill: #2ca02c; stroke: #2ca02c"/>
     <use xlink:href="#m96408e9aa0" x="249.414422" y="97.196727" style="fill: #2ca02c; stroke: #2ca02c"/>
     <use xlink:href="#m96408e9aa0" x="296.787922" y="90.610713" style="fill: #2ca02c; stroke: #2ca02c"/>
     <use xlink:href="#m96408e9aa0" x="344.161423" y="97.214185" style="fill: #2ca02c; stroke: #2ca02c"/>
     <use xlink:href="#m96408e9aa0" x="391.534923" y="92.645119" style="fill: #2ca02c; stroke: #2ca02c"/>
     <use xlink:href="#m96408e9aa0" x="438.908424" y="97.029368" style="fill: #2ca02c; stroke: #2ca02c"/>
     <use xlink:href="#m96408e9aa0" x="486.281925" y="97.191917" style="fill: #2ca02c; stroke: #2ca02c"/>
    </g>
   </g>
   <g id="line2d_30">
    <path d="M 59.920419 200.36629
L 107.29392 214.080343
L 154.66742 224.374625
L 202.040921 229.951217
L 249.414422 234.624923
L 296.787922 237.511973
L 344.161423 239.557689
L 391.534923 240.240957
L 438.908424 241.640902
L 486.281925 242.491043
" clip-path="url(#p8f8fc043dc)" style="fill: none; stroke: #d62728; stroke-width: 1.4; stroke-linecap: square"/>
    <defs>
     <path id="m139511189d" d="M 0 1.25
C 0.331504 1.25 0.649475 1.118292 0.883883 0.883883
C 1.118292 0.649475 1.25 0.331504 1.25 0
C 1.25 -0.331504 1.118292 -0.649475 0.883883 -0.883883
C 0.649475 -1.118292 0.331504 -1.25 0 -1.25
C -0.331504 -1.25 -0.649475 -1.118292 -0.883883 -0.883883
C -1.118292 -0.649475 -1.25 -0.331504 -1.25 0
C -1.25 0.331504 -1.118292 0.649475 -0.883883 0.883883
C -0.649475 1.118292 -0.331504 1.25 0 1.25
z
" style="stroke: #d62728"/>
    </defs>
    <g clip-path="url(#p8f8fc043dc)">
     <use xlink:href="#m139511189d" x="59.920419" y="200.36629" style="fill: #d62728; stroke: #d62728"/>
     <use xlink:href="#m139511189d" x="107.29392" y="214.080343" style="fill: #d62728; stroke: #d62728"/>
     <use xlink:href="#m139511189d" x="154.66742" y="224.374625" style="fill: #d62728; stroke: #d62728"/>
     <use xlink:href="#m139511189d" x="202.040921" y="229.951217" style="fill: #d62728; stroke: #d62728"/>
     <use xlink:href="#m139511189d" x="249.414422" y="234.624923" style="fill: #d62728; stroke: #d62728"/>
     <use xlink:href="#m139511189d" x="296.787922" y="237.511973" style="fill: #d62728; stroke: #d62728"/>
     <use xlink:href="#m139511189d" x="344.161423" y="239.557689" style="fill: #d62728; stroke: #d62728"/>
     <use xlink:href="#m139511189d" x="391.534923" y="240.240957" style="fill: #d62728; stroke: #d62728"/>
     <use xlink:href="#m139511189d" x="438.908424" y="241.640902" style="fill: #d62728; stroke: #d62728"/>
     <use xlink:href="#m139511189d" x="486.281925" y="242.491043" style="fill: #d62728; stroke: #d62728"/>
    </g>
   </g>
   <g id="line2d_31">
    <path d="M 59.920419 210.47963
L 107.29392 228.937169
L 154.66742 236.480127
L 202.040921 240.337228
L 249.414422 243.737046
L 296.787922 245.996107
L 344.161423 247.653494
L 391.534923 248.068067
L 438.908424 249.110352
L 486.281925 249.943636
" clip-path="url(#p8f8fc043dc)" style="fill: none; stroke: #9467bd; stroke-width: 1.4; stroke-linecap: square"/>
    <defs>
     <path id="m499db7c653" d="M 0 1.25
C 0.331504 1.25 0.649475 1.118292 0.883883 0.883883
C 1.118292 0.649475 1.25 0.331504 1.25 0
C 1.25 -0.331504 1.118292 -0.649475 0.883883 -0.883883
C 0.649475 -1.118292 0.331504 -1.25 0 -1.25
C -0.331504 -1.25 -0.649475 -1.118292 -0.883883 -0.883883
C -1.118292 -0.649475 -1.25 -0.331504 -1.25 0
C -1.25 0.331504 -1.118292 0.649475 -0.883883 0.883883
C -0.649475 1.118292 -0.331504 1.25 0 1.25
z
" style="stroke: #9467bd"/>
    </defs>
    <g clip-path="url(#p8f8fc043dc)">
     <use xlink:href="#m499db7c653" x="59.920419" y="210.47963" style="fill: #9467bd; stroke: #9467bd"/>
     <use xlink:href="#m499db7c653" x="107.29392" y="228.937169" style="fill: #9467bd; stroke: #9467bd"/>
     <use xlink:href="#m499db7c653" x="154.66742" y="236.480127" style="fill: #9467bd; stroke: #9467bd"/>
     <use xlink:href="#m499db7c653" x="202.040921" y="240.337228" style="fill: #9467bd; stroke: #9467bd"/>
     <use xlink:href="#m499db7c653" x="249.414422" y="243.737046" style="fill: #9467bd; stroke: #9467bd"/>
     <use xlink:href="#m499db7c653" x="296.787922" y="245.996107" style="fill: #9467bd; stroke: #9467bd"/>
     <use xlink:href="#m499db7c653" x="344.161423" y="247.653494" style="fill: #9467bd; stroke: #9467bd"/>
     <use xlink:href="#m499db7c653" x="391.534923" y="248.068067" style="fill: #9467bd; stroke: #9467bd"/>
     <use xlink:href="#m499db7c653" x="438.908424" y="249.110352" style="fill: #9467bd; stroke: #9467bd"/>
     <use xlink:href="#m499db7c653" x="486.281925" y="249.943636" style="fill: #9467bd; stroke: #9467bd"/>
    </g>
   </g>
   <g id="line2d_32">
    <path d="M 59.920419 205.580328
L 107.29392 224.621816
L 154.66742 232.146518
L 202.040921 235.977178
L 249.414422 238.948792
L 296.787922 241.889474
L 344.161423 243.038421
L 391.534923 243.641384
L 438.908424 244.16375
L 486.281925 244.58181
" clip-path="url(#p8f8fc043dc)" style="fill: none; stroke: #8c564b; stroke-width: 1.4; stroke-linecap: square"/>
    <defs>
     <path id="m5d17f37125" d="M 0 1.25
C 0.331504 1.25 0.649475 1.118292 0.883883 0.883883
C 1.118292 0.649475 1.25 0.331504 1.25 0
C 1.25 -0.331504 1.118292 -0.649475 0.883883 -0.883883
C 0.649475 -1.118292 0.331504 -1.25 0 -1.25
C -0.331504 -1.25 -0.649475 -1.118292 -0.883883 -0.883883
C -1.118292 -0.649475 -1.25 -0.331504 -1.25 0
C -1.25 0.331504 -1.118292 0.649475 -0.883883 0.883883
C -0.649475 1.118292 -0.331504 1.25 0 1.25
z
" style="stroke: #8c564b"/>
    </defs>
    <g clip-path="url(#p8f8fc043dc)">
     <use xlink:href="#m5d17f37125" x="59.920419" y="205.580328" style="fill: #8c564b; stroke: #8c564b"/>
     <use xlink:href="#m5d17f37125" x="107.29392" y="224.621816" style="fill: #8c564b; stroke: #8c564b"/>
     <use xlink:href="#m5d17f37125" x="154.66742" y="232.146518" style="fill: #8c564b; stroke: #8c564b"/>
     <use xlink:href="#m5d17f37125" x="202.040921" y="235.977178" style="fill: #8c564b; stroke: #8c564b"/>
     <use xlink:href="#m5d17f37125" x="249.414422" y="238.948792" style="fill: #8c564b; stroke: #8c564b"/>
     <use xlink:href="#m5d17f37125" x="296.787922" y="241.889474" style="fill: #8c564b; stroke: #8c564b"/>
     <use xlink:href="#m5d17f37125" x="344.161423" y="243.038421" style="fill: #8c564b; stroke: #8c564b"/>
     <use xlink:href="#m5d17f37125" x="391.534923" y="243.641384" style="fill: #8c564b; stroke: #8c564b"/>
     <use xlink:href="#m5d17f37125" x="438.908424" y="244.16375" style="fill: #8c564b; stroke: #8c564b"/>
     <use xlink:href="#m5d17f37125" x="486.281925" y="244.58181" style="fill: #8c564b; stroke: #8c564b"/>
    </g>
   </g>
   <g id="patch_3">
    <path d="M 38.602344 260.6
L 38.602344 26.16
" style="fill: none; stroke: #000000; stroke-width: 0.8; stroke-linejoin: miter; stroke-linecap: square"/>
   </g>
   <g id="patch_4">
    <path d="M 507.6 260.6
L 507.6 26.16
" style="fill: none; stroke: #000000; stroke-width: 0.8; stroke-linejoin: miter; stroke-linecap: square"/>
   </g>
   <g id="patch_5">
    <path d="M 38.602344 260.6
L 507.6 260.6
" style="fill: none; stroke: #000000; stroke-width: 0.8; stroke-linejoin: miter; stroke-linecap: square"/>
   </g>
   <g id="patch_6">
    <path d="M 38.602344 26.16
L 507.6 26.16
" style="fill: none; stroke: #000000; stroke-width: 0.8; stroke-linejoin: miter; stroke-linecap: square"/>
   </g>
   <g id="text_16">
    <!-- TinyStories architecture ablations -->
    <g transform="translate(172.251484 20.16) scale(0.12 -0.12)">
     <defs>
      <path id="DejaVuSans-37" d="M -19 4666
L 3928 4666
L 3928 4134
L 2272 4134
L 2272 0
L 1638 0
L 1638 4134
L -19 4134
L -19 4666
z
" transform="scale(0.015625)"/>
      <path id="DejaVuSans-5c" d="M 2059 -325
Q 1816 -950 1584 -1140
Q 1353 -1331 966 -1331
L 506 -1331
L 506 -850
L 844 -850
Q 1081 -850 1212 -737
Q 1344 -625 1503 -206
L 1606 56
L 191 3500
L 800 3500
L 1894 763
L 2988 3500
L 3597 3500
L 2059 -325
z
" transform="scale(0.015625)"/>
      <path id="DejaVuSans-55" d="M 2631 2963
Q 2534 3019 2420 3045
Q 2306 3072 2169 3072
Q 1681 3072 1420 2755
Q 1159 2438 1159 1844
L 1159 0
L 581 0
L 581 3500
L 1159 3500
L 1159 2956
Q 1341 3275 1631 3429
Q 1922 3584 2338 3584
Q 2397 3584 2469 3576
Q 2541 3569 2628 3553
L 2631 2963
z
" transform="scale(0.015625)"/>
      <path id="DejaVuSans-46" d="M 3122 3366
L 3122 2828
Q 2878 2963 2633 3030
Q 2388 3097 2138 3097
Q 1578 3097 1268 2742
Q 959 2388 959 1747
Q 959 1106 1268 751
Q 1578 397 2138 397
Q 2388 397 2633 464
Q 2878 531 3122 666
L 3122 134
Q 2881 22 2623 -34
Q 2366 -91 2075 -91
Q 1284 -91 818 406
Q 353 903 353 1747
Q 353 2603 823 3093
Q 1294 3584 2113 3584
Q 2378 3584 2631 3529
Q 2884 3475 3122 3366
z
" transform="scale(0.015625)"/>
      <path id="DejaVuSans-4b" d="M 3513 2113
L 3513 0
L 2938 0
L 2938 2094
Q 2938 2591 2744 2837
Q 2550 3084 2163 3084
Q 1697 3084 1428 2787
Q 1159 2491 1159 1978
L 1159 0
L 581 0
L 581 4863
L 1159 4863
L 1159 2956
Q 1366 3272 1645 3428
Q 1925 3584 2291 3584
Q 2894 3584 3203 3211
Q 3513 2838 3513 2113
z
" transform="scale(0.015625)"/>
      <path id="DejaVuSans-58" d="M 544 1381
L 544 3500
L 1119 3500
L 1119 1403
Q 1119 906 1312 657
Q 1506 409 1894 409
Q 2359 409 2629 706
Q 2900 1003 2900 1516
L 2900 3500
L 3475 3500
L 3475 0
L 2900 0
L 2900 538
Q 2691 219 2414 64
Q 2138 -91 1772 -91
Q 1169 -91 856 284
Q 544 659 544 1381
z
M 1991 3584
L 1991 3584
z
" transform="scale(0.015625)"/>
      <path id="DejaVuSans-45" d="M 3116 1747
Q 3116 2381 2855 2742
Q 2594 3103 2138 3103
Q 1681 3103 1420 2742
Q 1159 2381 1159 1747
Q 1159 1113 1420 752
Q 1681 391 2138 391
Q 2594 391 2855 752
Q 3116 1113 3116 1747
z
M 1159 2969
Q 1341 3281 1617 3432
Q 1894 3584 2278 3584
Q 2916 3584 3314 3078
Q 3713 2572 3713 1747
Q 3713 922 3314 415
Q 2916 -91 2278 -91
Q 1894 -91 1617 61
Q 1341 213 1159 525
L 1159 0
L 581 0
L 581 4863
L 1159 4863
L 1159 2969
z
" transform="scale(0.015625)"/>
     </defs>
     <use xlink:href="#DejaVuSans-37"/>
     <use xlink:href="#DejaVuSans-4c" transform="translate(58 0)"/>
     <use xlink:href="#DejaVuSans-51" transform="translate(85.78125 0)"/>
     <use xlink:href="#DejaVuSans-5c" transform="translate(149.15625 0)"/>
     <use xlink:href="#DejaVuSans-36" transform="translate(208.34375 0)"/>
     <use xlink:href="#DejaVuSans-57" transform="translate(271.828125 0)"/>
     <use xlink:href="#DejaVuSans-52" transform="translate(311.03125 0)"/>
     <use xlink:href="#DejaVuSans-55" transform="translate(372.21875 0)"/>
     <use xlink:href="#DejaVuSans-4c" transform="translate(413.328125 0)"/>
     <use xlink:href="#DejaVuSans-48" transform="translate(441.109375 0)"/>
     <use xlink:href="#DejaVuSans-56" transform="translate(502.640625 0)"/>
     <use xlink:href="#DejaVuSans-3" transform="translate(554.734375 0)"/>
     <use xlink:href="#DejaVuSans-44" transform="translate(586.515625 0)"/>
     <use xlink:href="#DejaVuSans-55" transform="translate(647.796875 0)"/>
     <use xlink:href="#DejaVuSans-46" transform="translate(686.703125 0)"/>
     <use xlink:href="#DejaVuSans-4b" transform="translate(741.6875 0)"/>
     <use xlink:href="#DejaVuSans-4c" transform="translate(805.0625 0)"/>
     <use xlink:href="#DejaVuSans-57" transform="translate(832.84375 0)"/>
     <use xlink:href="#DejaVuSans-48" transform="translate(872.046875 0)"/>
     <use xlink:href="#DejaVuSans-46" transform="translate(933.578125 0)"/>
     <use xlink:href="#DejaVuSans-57" transform="translate(988.5625 0)"/>
     <use xlink:href="#DejaVuSans-58" transform="translate(1027.765625 0)"/>
     <use xlink:href="#DejaVuSans-55" transform="translate(1091.140625 0)"/>
     <use xlink:href="#DejaVuSans-48" transform="translate(1130.046875 0)"/>
     <use xlink:href="#DejaVuSans-3" transform="translate(1191.578125 0)"/>
     <use xlink:href="#DejaVuSans-44" transform="translate(1223.359375 0)"/>
     <use xlink:href="#DejaVuSans-45" transform="translate(1284.640625 0)"/>
     <use xlink:href="#DejaVuSans-4f" transform="translate(1348.125 0)"/>
     <use xlink:href="#DejaVuSans-44" transform="translate(1375.90625 0)"/>
     <use xlink:href="#DejaVuSans-57" transform="translate(1437.1875 0)"/>
     <use xlink:href="#DejaVuSans-4c" transform="translate(1476.390625 0)"/>
     <use xlink:href="#DejaVuSans-52" transform="translate(1504.171875 0)"/>
     <use xlink:href="#DejaVuSans-51" transform="translate(1565.359375 0)"/>
     <use xlink:href="#DejaVuSans-56" transform="translate(1628.734375 0)"/>
    </g>
   </g>
   <g id="legend_1">
    <g id="patch_7">
     <path d="M 399.24875 180.581875
L 502 180.581875
Q 503.6 180.581875 503.6 178.981875
L 503.6 107.778125
Q 503.6 106.178125 502 106.178125
L 399.24875 106.178125
Q 397.64875 106.178125 397.64875 107.778125
L 397.64875 178.981875
Q 397.64875 180.581875 399.24875 180.581875
z
" style="fill: #ffffff; opacity: 0.8; stroke: #cccccc; stroke-linejoin: miter"/>
    </g>
    <g id="line2d_33">
     <path d="M 400.84875 112.656875
L 408.84875 112.656875
L 416.84875 112.656875
" style="fill: none; stroke: #1f77b4; stroke-width: 1.4; stroke-linecap: square"/>
     <g>
      <use xlink:href="#mbfd597b6f5" x="408.84875" y="112.656875" style="fill: #1f77b4; stroke: #1f77b4"/>
     </g>
    </g>
    <g id="text_17">
     <!-- baseline -->
     <g transform="translate(423.24875 115.456875) scale(0.08 -0.08)">
      <use xlink:href="#DejaVuSans-45"/>
      <use xlink:href="#DejaVuSans-44" transform="translate(63.484375 0)"/>
      <use xlink:href="#DejaVuSans-56" transform="translate(124.765625 0)"/>
      <use xlink:href="#DejaVuSans-48" transform="translate(176.859375 0)"/>
      <use xlink:href="#DejaVuSans-4f" transform="translate(238.390625 0)"/>
      <use xlink:href="#DejaVuSans-4c" transform="translate(266.171875 0)"/>
      <use xlink:href="#DejaVuSans-51" transform="translate(293.953125 0)"/>
      <use xlink:href="#DejaVuSans-48" transform="translate(357.328125 0)"/>
     </g>
    </g>
    <g id="line2d_34">
     <path d="M 400.84875 124.6575
L 408.84875 124.6575
L 416.84875 124.6575
" style="fill: none; stroke: #ff7f0e; stroke-width: 1.4; stroke-linecap: square"/>
     <g>
      <use xlink:href="#mbf242a1760" x="408.84875" y="124.6575" style="fill: #ff7f0e; stroke: #ff7f0e"/>
     </g>
    </g>
    <g id="text_18">
     <!-- no_rmsnorm -->
     <g transform="translate(423.24875 127.4575) scale(0.08 -0.08)">
      <defs>
       <path id="DejaVuSans-42" d="M 3263 -1063
L 3263 -1509
L -63 -1509
L -63 -1063
L 3263 -1063
z
" transform="scale(0.015625)"/>
       <path id="DejaVuSans-50" d="M 3328 2828
Q 3544 3216 3844 3400
Q 4144 3584 4550 3584
Q 5097 3584 5394 3201
Q 5691 2819 5691 2113
L 5691 0
L 5113 0
L 5113 2094
Q 5113 2597 4934 2840
Q 4756 3084 4391 3084
Q 3944 3084 3684 2787
Q 3425 2491 3425 1978
L 3425 0
L 2847 0
L 2847 2094
Q 2847 2600 2669 2842
Q 2491 3084 2119 3084
Q 1678 3084 1418 2786
Q 1159 2488 1159 1978
L 1159 0
L 581 0
L 581 3500
L 1159 3500
L 1159 2956
Q 1356 3278 1631 3431
Q 1906 3584 2284 3584
Q 2666 3584 2933 3390
Q 3200 3197 3328 2828
z
" transform="scale(0.015625)"/>
      </defs>
      <use xlink:href="#DejaVuSans-51"/>
      <use xlink:href="#DejaVuSans-52" transform="translate(63.375 0)"/>
      <use xlink:href="#DejaVuSans-42" transform="translate(124.5625 0)"/>
      <use xlink:href="#DejaVuSans-55" transform="translate(174.5625 0)"/>
      <use xlink:href="#DejaVuSans-50" transform="translate(213.921875 0)"/>
      <use xlink:href="#DejaVuSans-56" transform="translate(311.328125 0)"/>
      <use xlink:href="#DejaVuSans-51" transform="translate(363.421875 0)"/>
      <use xlink:href="#DejaVuSans-52" transform="translate(426.796875 0)"/>
      <use xlink:href="#DejaVuSans-55" transform="translate(487.984375 0)"/>
      <use xlink:href="#DejaVuSans-50" transform="translate(527.34375 0)"/>
     </g>
    </g>
    <g id="line2d_35">
     <path d="M 400.84875 136.658125
L 408.84875 136.658125
L 416.84875 136.658125
" style="fill: none; stroke: #2ca02c; stroke-width: 1.4; stroke-linecap: square"/>
     <g>
      <use xlink:href="#m96408e9aa0" x="408.84875" y="136.658125" style="fill: #2ca02c; stroke: #2ca02c"/>
     </g>
    </g>
    <g id="text_19">
     <!-- no_rmsnorm_low_lr -->
     <g transform="translate(423.24875 139.458125) scale(0.08 -0.08)">
      <defs>
       <path id="DejaVuSans-5a" d="M 269 3500
L 844 3500
L 1563 769
L 2278 3500
L 2956 3500
L 3675 769
L 4391 3500
L 4966 3500
L 4050 0
L 3372 0
L 2619 2869
L 1863 0
L 1184 0
L 269 3500
z
" transform="scale(0.015625)"/>
      </defs>
      <use xlink:href="#DejaVuSans-51"/>
      <use xlink:href="#DejaVuSans-52" transform="translate(63.375 0)"/>
      <use xlink:href="#DejaVuSans-42" transform="translate(124.5625 0)"/>
      <use xlink:href="#DejaVuSans-55" transform="translate(174.5625 0)"/>
      <use xlink:href="#DejaVuSans-50" transform="translate(213.921875 0)"/>
      <use xlink:href="#DejaVuSans-56" transform="translate(311.328125 0)"/>
      <use xlink:href="#DejaVuSans-51" transform="translate(363.421875 0)"/>
      <use xlink:href="#DejaVuSans-52" transform="translate(426.796875 0)"/>
      <use xlink:href="#DejaVuSans-55" transform="translate(487.984375 0)"/>
      <use xlink:href="#DejaVuSans-50" transform="translate(527.34375 0)"/>
      <use xlink:href="#DejaVuSans-42" transform="translate(624.75 0)"/>
      <use xlink:href="#DejaVuSans-4f" transform="translate(674.75 0)"/>
      <use xlink:href="#DejaVuSans-52" transform="translate(702.53125 0)"/>
      <use xlink:href="#DejaVuSans-5a" transform="translate(763.71875 0)"/>
      <use xlink:href="#DejaVuSans-42" transform="translate(845.5 0)"/>
      <use xlink:href="#DejaVuSans-4f" transform="translate(895.5 0)"/>
      <use xlink:href="#DejaVuSans-55" transform="translate(923.28125 0)"/>
     </g>
    </g>
    <g id="line2d_36">
     <path d="M 400.84875 148.65875
L 408.84875 148.65875
L 416.84875 148.65875
" style="fill: none; stroke: #d62728; stroke-width: 1.4; stroke-linecap: square"/>
     <g>
      <use xlink:href="#m139511189d" x="408.84875" y="148.65875" style="fill: #d62728; stroke: #d62728"/>
     </g>
    </g>
    <g id="text_20">
     <!-- no_rope -->
     <g transform="translate(423.24875 151.45875) scale(0.08 -0.08)">
      <use xlink:href="#DejaVuSans-51"/>
      <use xlink:href="#DejaVuSans-52" transform="translate(63.375 0)"/>
      <use xlink:href="#DejaVuSans-42" transform="translate(124.5625 0)"/>
      <use xlink:href="#DejaVuSans-55" transform="translate(174.5625 0)"/>
      <use xlink:href="#DejaVuSans-52" transform="translate(213.46875 0)"/>
      <use xlink:href="#DejaVuSans-53" transform="translate(274.65625 0)"/>
      <use xlink:href="#DejaVuSans-48" transform="translate(338.140625 0)"/>
     </g>
    </g>
    <g id="line2d_37">
     <path d="M 400.84875 160.659375
L 408.84875 160.659375
L 416.84875 160.659375
" style="fill: none; stroke: #9467bd; stroke-width: 1.4; stroke-linecap: square"/>
     <g>
      <use xlink:href="#m499db7c653" x="408.84875" y="160.659375" style="fill: #9467bd; stroke: #9467bd"/>
     </g>
    </g>
    <g id="text_21">
     <!-- post_norm -->
     <g transform="translate(423.24875 163.459375) scale(0.08 -0.08)">
      <use xlink:href="#DejaVuSans-53"/>
      <use xlink:href="#DejaVuSans-52" transform="translate(63.484375 0)"/>
      <use xlink:href="#DejaVuSans-56" transform="translate(124.671875 0)"/>
      <use xlink:href="#DejaVuSans-57" transform="translate(176.765625 0)"/>
      <use xlink:href="#DejaVuSans-42" transform="translate(215.96875 0)"/>
      <use xlink:href="#DejaVuSans-51" transform="translate(265.96875 0)"/>
      <use xlink:href="#DejaVuSans-52" transform="translate(329.34375 0)"/>
      <use xlink:href="#DejaVuSans-55" transform="translate(390.53125 0)"/>
      <use xlink:href="#DejaVuSans-50" transform="translate(429.890625 0)"/>
     </g>
    </g>
    <g id="line2d_38">
     <path d="M 400.84875 172.66
L 408.84875 172.66
L 416.84875 172.66
" style="fill: none; stroke: #8c564b; stroke-width: 1.4; stroke-linecap: square"/>
     <g>
      <use xlink:href="#m5d17f37125" x="408.84875" y="172.66" style="fill: #8c564b; stroke: #8c564b"/>
     </g>
    </g>
    <g id="text_22">
     <!-- silu_ffn -->
     <g transform="translate(423.24875 175.46) scale(0.08 -0.08)">
      <defs>
       <path id="DejaVuSans-13ae" d="M 4531 4863
L 4531 4384
L 3981 4384
Q 3672 4384 3551 4259
Q 3431 4134 3431 3809
L 3431 3500
L 4378 3500
L 4378 3053
L 3431 3053
L 3431 0
L 2853 0
L 2853 3053
L 1275 3053
L 1275 0
L 697 0
L 697 3053
L 147 3053
L 147 3500
L 697 3500
L 697 3744
Q 697 4328 969 4595
Q 1241 4863 1831 4863
L 2375 4863
L 2375 4384
L 1825 4384
Q 1516 4384 1394 4259
Q 1275 4134 1275 3809
L 1275 3500
L 2853 3500
L 2853 3744
Q 2853 4328 3125 4595
Q 3397 4863 3988 4863
L 4531 4863
z
" transform="scale(0.015625)"/>
      </defs>
      <use xlink:href="#DejaVuSans-56"/>
      <use xlink:href="#DejaVuSans-4c" transform="translate(52.09375 0)"/>
      <use xlink:href="#DejaVuSans-4f" transform="translate(79.875 0)"/>
      <use xlink:href="#DejaVuSans-58" transform="translate(107.65625 0)"/>
      <use xlink:href="#DejaVuSans-42" transform="translate(171.03125 0)"/>
      <use xlink:href="#DejaVuSans-13ae" transform="translate(221.03125 0)"/>
      <use xlink:href="#DejaVuSans-51" transform="translate(289.921875 0)"/>
     </g>
    </g>
   </g>
  </g>
 </g>
 <defs>
  <clipPath id="p8f8fc043dc">
   <rect x="38.602344" y="26.16" width="468.997656" height="234.44"/>
  </clipPath>
 </defs>
</svg>
