<?xml version="1.0" encoding="utf-8" standalone="no"?>
<!DOCTYPE svg PUBLIC "-//W3C//DTD SVG 1.1//EN"
  "http://www.w3.org/Graphics/SVG/1.1/DTD/svg11.dtd">
<svg xmlns:xlink="http://www.w3.org/1999/xlink" width="518.4pt" height="302.4pt" viewBox="0 0 518.4 302.4" xmlns="http://www.w3.org/2000/svg" version="1.1">
 <metadata>
  <rdf:RDF xmlns:dc="http://purl.org/dc/elements/1.1/" xmlns:cc="http://creativecommons.org/ns#" xmlns:rdf="http://www.w3.org/1999/02/22-rdf-syntax-ns#">
   <cc:Work>
    <dc:type rdf:resource="http://purl.org/dc/dcmitype/StillImage"/>
    <dc:date>2026-07-13T18:39:44.280085</dc:date>
    <dc:format>image/svg+xml</dc:format>
    <dc:creator>
     <cc:Agent>
      <dc:title>Matplotlib v3.11.0, https://matplotlib.org/</dc:title>
     </cc:Agent>
    </dc:creator>
   </cc:Work>
  </rdf:RDF>
 </metadata>
 <defs>
  <style type="text/css">*{stroke-linejoin: round; stroke-linecap: butt}</style>
 </defs>
 <g id="figure_1">
  <g id="patch_1">
   <path d="M 0 302.4
L 518.4 302.4
L 518.4 0
L 0 0
z
" style="fill: #ffffff"/>
  </g>
  <g id="axes_1">
   <g id="patch_2">
    <path d="M 47.962344 260.6
L 507.6 260.6
L 507.6 26.16
L 47.962344 26.16
z
" style="fill: #ffffff"/>
   </g>
   <g id="matplotlib.axis_1">
    <g id="xtick_1">
     <g id="line2d_1">
      <path d="M 68.854964 260.6
L 68.854964 26.16
" clip-path="url(#p59a76cdeb7)" style="fill: none; stroke: #b0b0b0; stroke-opacity: 0.25; stroke-width: 0.8; stroke-linecap: square"/>
     </g>
     <g id="line2d_2">
      <defs>
       <path id="m8924e07cb1" d="M 0 0
L 0 3.5
" style="stroke: #000000; stroke-width: 0.8"/>
      </defs>
      <g>
       <use xlink:href="#m8924e07cb1" x="68.854964" y="260.6" style="stroke: #000000; stroke-width: 0.8"/>
      </g>
     </g>
     <g id="text_1">
      <!-- 100 -->
      <g transform="translate(59.311214 275.197656) scale(0.1 -0.1)">
       <defs>
        <path id="DejaVuSans-14" d="M 794 531
L 1825 531
L 1825 4091
L 703 3866
L 703 4441
L 1819 4666
L 2450 4666
L 2450 531
L 3481 531
L 3481 0
L 794 0
L 794 531
z
" transform="scale(0.015625)"/>
        <path id="DejaVuSans-13" d="M 2034 4250
Q 1547 4250 1301 3770
Q 1056 3291 1056 2328
Q 1056 1369 1301 889
Q 1547 409 2034 409
Q 2525 409 2770 889
Q 3016 1369 3016 2328
Q 3016 3291 2770 3770
Q 2525 4250 2034 4250
z
M 2034 4750
Q 2819 4750 3233 4129
Q 3647 3509 3647 2328
Q 3647 1150 3233 529
Q 2819 -91 2034 -91
Q 1250 -91 836 529
Q 422 1150 422 2328
Q 422 3509 836 4129
Q 1250 4750 2034 4750
z
" transform="scale(0.015625)"/>
       </defs>
       <use xlink:href="#DejaVuSans-14"/>
       <use xlink:href="#DejaVuSans-13" transform="translate(63.625 0)"/>
       <use xlink:href="#DejaVuSans-13" transform="translate(127.25 0)"/>
      </g>
     </g>
    </g>
    <g id="xtick_2">
     <g id="line2d_3">
      <path d="M 121.086516 260.6
L 121.086516 26.16
" clip-path="url(#p59a76cdeb7)" style="fill: none; stroke: #b0b0b0; stroke-opacity: 0.25; stroke-width: 0.8; stroke-linecap: square"/>
     </g>
     <g id="line2d_4">
      <g>
       <use xlink:href="#m8924e07cb1" x="121.086516" y="260.6" style="stroke: #000000; stroke-width: 0.8"/>
      </g>
     </g>
     <g id="text_2">
      <!-- 150 -->
      <g transform="translate(111.542766 275.197656) scale(0.1 -0.1)">
       <defs>
        <path id="DejaVuSans-18" d="M 691 4666
L 3169 4666
L 3169 4134
L 1269 4134
L 1269 2991
Q 1406 3038 1543 3061
Q 1681 3084 1819 3084
Q 2600 3084 3056 2656
Q 3513 2228 3513 1497
Q 3513 744 3044 326
Q 2575 -91 1722 -91
Q 1428 -91 1123 -41
Q 819 9 494 109
L 494 744
Q 775 591 1075 516
Q 1375 441 1709 441
Q 2250 441 2565 725
Q 2881 1009 2881 1497
Q 2881 1984 2565 2268
Q 2250 2553 1709 2553
Q 1456 2553 1204 2497
Q 953 2441 691 2322
L 691 4666
z
" transform="scale(0.015625)"/>
       </defs>
       <use xlink:href="#DejaVuSans-14"/>
       <use xlink:href="#DejaVuSans-18" transform="translate(63.625 0)"/>
       <use xlink:href="#DejaVuSans-13" transform="translate(127.25 0)"/>
      </g>
     </g>
    </g>
    <g id="xtick_3">
     <g id="line2d_5">
      <path d="M 173.318068 260.6
L 173.318068 26.16
" clip-path="url(#p59a76cdeb7)" style="fill: none; stroke: #b0b0b0; stroke-opacity: 0.25; stroke-width: 0.8; stroke-linecap: square"/>
     </g>
     <g id="line2d_6">
      <g>
       <use xlink:href="#m8924e07cb1" x="173.318068" y="260.6" style="stroke: #000000; stroke-width: 0.8"/>
      </g>
     </g>
     <g id="text_3">
      <!-- 200 -->
      <g transform="translate(163.774318 275.197656) scale(0.1 -0.1)">
       <defs>
        <path id="DejaVuSans-15" d="M 1228 531
L 3431 531
L 3431 0
L 469 0
L 469 531
Q 828 903 1448 1529
Q 2069 2156 2228 2338
Q 2531 2678 2651 2914
Q 2772 3150 2772 3378
Q 2772 3750 2511 3984
Q 2250 4219 1831 4219
Q 1534 4219 1204 4116
Q 875 4013 500 3803
L 500 4441
Q 881 4594 1212 4672
Q 1544 4750 1819 4750
Q 2544 4750 2975 4387
Q 3406 4025 3406 3419
Q 3406 3131 3298 2873
Q 3191 2616 2906 2266
Q 2828 2175 2409 1742
Q 1991 1309 1228 531
z
" transform="scale(0.015625)"/>
       </defs>
       <use xlink:href="#DejaVuSans-15"/>
       <use xlink:href="#DejaVuSans-13" transform="translate(63.625 0)"/>
       <use xlink:href="#DejaVuSans-13" transform="translate(127.25 0)"/>
      </g>
     </g>
    </g>
    <g id="xtick_4">
     <g id="line2d_7">
      <path d="M 225.54962 260.6
L 225.54962 26.16
" clip-path="url(#p59a76cdeb7)" style="fill: none; stroke: #b0b0b0; stroke-opacity: 0.25; stroke-width: 0.8; stroke-linecap: square"/>
     </g>
     <g id="line2d_8">
      <g>
       <use xlink:href="#m8924e07cb1" x="225.54962" y="260.6" style="stroke: #000000; stroke-width: 0.8"/>
      </g>
     </g>
     <g id="text_4">
      <!-- 250 -->
      <g transform="translate(216.00587 275.197656) scale(0.1 -0.1)">
       <use xlink:href="#DejaVuSans-15"/>
       <use xlink:href="#DejaVuSans-18" transform="translate(63.625 0)"/>
       <use xlink:href="#DejaVuSans-13" transform="translate(127.25 0)"/>
      </g>
     </g>
    </g>
    <g id="xtick_5">
     <g id="line2d_9">
      <path d="M 277.781172 260.6
L 277.781172 26.16
" clip-path="url(#p59a76cdeb7)" style="fill: none; stroke: #b0b0b0; stroke-opacity: 0.25; stroke-width: 0.8; stroke-linecap: square"/>
     </g>
     <g id="line2d_10">
      <g>
       <use xlink:href="#m8924e07cb1" x="277.781172" y="260.6" style="stroke: #000000; stroke-width: 0.8"/>
      </g>
     </g>
     <g id="text_5">
      <!-- 300 -->
      <g transform="translate(268.237422 275.197656) scale(0.1 -0.1)">
       <defs>
        <path id="DejaVuSans-16" d="M 2597 2516
Q 3050 2419 3304 2112
Q 3559 1806 3559 1356
Q 3559 666 3084 287
Q 2609 -91 1734 -91
Q 1441 -91 1130 -33
Q 819 25 488 141
L 488 750
Q 750 597 1062 519
Q 1375 441 1716 441
Q 2309 441 2620 675
Q 2931 909 2931 1356
Q 2931 1769 2642 2001
Q 2353 2234 1838 2234
L 1294 2234
L 1294 2753
L 1863 2753
Q 2328 2753 2575 2939
Q 2822 3125 2822 3475
Q 2822 3834 2567 4026
Q 2313 4219 1838 4219
Q 1578 4219 1281 4162
Q 984 4106 628 3988
L 628 4550
Q 988 4650 1302 4700
Q 1616 4750 1894 4750
Q 2613 4750 3031 4423
Q 3450 4097 3450 3541
Q 3450 3153 3228 2886
Q 3006 2619 2597 2516
z
" transform="scale(0.015625)"/>
       </defs>
       <use xlink:href="#DejaVuSans-16"/>
       <use xlink:href="#DejaVuSans-13" transform="translate(63.625 0)"/>
       <use xlink:href="#DejaVuSans-13" transform="translate(127.25 0)"/>
      </g>
     </g>
    </g>
    <g id="xtick_6">
     <g id="line2d_11">
      <path d="M 330.012724 260.6
L 330.012724 26.16
" clip-path="url(#p59a76cdeb7)" style="fill: none; stroke: #b0b0b0; stroke-opacity: 0.25; stroke-width: 0.8; stroke-linecap: square"/>
     </g>
     <g id="line2d_12">
      <g>
       <use xlink:href="#m8924e07cb1" x="330.012724" y="260.6" style="stroke: #000000; stroke-width: 0.8"/>
      </g>
     </g>
     <g id="text_6">
      <!-- 350 -->
      <g transform="translate(320.468974 275.197656) scale(0.1 -0.1)">
       <use xlink:href="#DejaVuSans-16"/>
       <use xlink:href="#DejaVuSans-18" transform="translate(63.625 0)"/>
       <use xlink:href="#DejaVuSans-13" transform="translate(127.25 0)"/>
      </g>
     </g>
    </g>
    <g id="xtick_7">
     <g id="line2d_13">
      <path d="M 382.244276 260.6
L 382.244276 26.16
" clip-path="url(#p59a76cdeb7)" style="fill: none; stroke: #b0b0b0; stroke-opacity: 0.25; stroke-width: 0.8; stroke-linecap: square"/>
     </g>
     <g id="line2d_14">
      <g>
       <use xlink:href="#m8924e07cb1" x="382.244276" y="260.6" style="stroke: #000000; stroke-width: 0.8"/>
      </g>
     </g>
     <g id="text_7">
      <!-- 400 -->
      <g transform="translate(372.700526 275.197656) scale(0.1 -0.1)">
       <defs>
        <path id="DejaVuSans-17" d="M 2419 4116
L 825 1625
L 2419 1625
L 2419 4116
z
M 2253 4666
L 3047 4666
L 3047 1625
L 3713 1625
L 3713 1100
L 3047 1100
L 3047 0
L 2419 0
L 2419 1100
L 313 1100
L 313 1709
L 2253 4666
z
" transform="scale(0.015625)"/>
       </defs>
       <use xlink:href="#DejaVuSans-17"/>
       <use xlink:href="#DejaVuSans-13" transform="translate(63.625 0)"/>
       <use xlink:href="#DejaVuSans-13" transform="translate(127.25 0)"/>
      </g>
     </g>
    </g>
    <g id="xtick_8">
     <g id="line2d_15">
      <path d="M 434.475827 260.6
L 434.475827 26.16
" clip-path="url(#p59a76cdeb7)" style="fill: none; stroke: #b0b0b0; stroke-opacity: 0.25; stroke-width: 0.8; stroke-linecap: square"/>
     </g>
     <g id="line2d_16">
      <g>
       <use xlink:href="#m8924e07cb1" x="434.475827" y="260.6" style="stroke: #000000; stroke-width: 0.8"/>
      </g>
     </g>
     <g id="text_8">
      <!-- 450 -->
      <g transform="translate(424.932077 275.197656) scale(0.1 -0.1)">
       <use xlink:href="#DejaVuSans-17"/>
       <use xlink:href="#DejaVuSans-18" transform="translate(63.625 0)"/>
       <use xlink:href="#DejaVuSans-13" transform="translate(127.25 0)"/>
      </g>
     </g>
    </g>
    <g id="xtick_9">
     <g id="line2d_17">
      <path d="M 486.707379 260.6
L 486.707379 26.16
" clip-path="url(#p59a76cdeb7)" style="fill: none; stroke: #b0b0b0; stroke-opacity: 0.25; stroke-width: 0.8; stroke-linecap: square"/>
     </g>
     <g id="line2d_18">
      <g>
       <use xlink:href="#m8924e07cb1" x="486.707379" y="260.6" style="stroke: #000000; stroke-width: 0.8"/>
      </g>
     </g>
     <g id="text_9">
      <!-- 500 -->
      <g transform="translate(477.163629 275.197656) scale(0.1 -0.1)">
       <use xlink:href="#DejaVuSans-18"/>
       <use xlink:href="#DejaVuSans-13" transform="translate(63.625 0)"/>
       <use xlink:href="#DejaVuSans-13" transform="translate(127.25 0)"/>
      </g>
     </g>
    </g>
    <g id="text_10">
     <!-- Step -->
     <g transform="translate(266.396016 289.197656) scale(0.1 -0.1)">
      <defs>
       <path id="DejaVuSans-36" d="M 3425 4513
L 3425 3897
Q 3066 4069 2747 4153
Q 2428 4238 2131 4238
Q 1616 4238 1336 4038
Q 1056 3838 1056 3469
Q 1056 3159 1242 3001
Q 1428 2844 1947 2747
L 2328 2669
Q 3034 2534 3370 2195
Q 3706 1856 3706 1288
Q 3706 609 3251 259
Q 2797 -91 1919 -91
Q 1588 -91 1214 -16
Q 841 59 441 206
L 441 856
Q 825 641 1194 531
Q 1563 422 1919 422
Q 2459 422 2753 634
Q 3047 847 3047 1241
Q 3047 1584 2836 1778
Q 2625 1972 2144 2069
L 1759 2144
Q 1053 2284 737 2584
Q 422 2884 422 3419
Q 422 4038 858 4394
Q 1294 4750 2059 4750
Q 2388 4750 2728 4690
Q 3069 4631 3425 4513
z
" transform="scale(0.015625)"/>
       <path id="DejaVuSans-57" d="M 1172 4494
L 1172 3500
L 2356 3500
L 2356 3053
L 1172 3053
L 1172 1153
Q 1172 725 1289 603
Q 1406 481 1766 481
L 2356 481
L 2356 0
L 1766 0
Q 1100 0 847 248
Q 594 497 594 1153
L 594 3053
L 172 3053
L 172 3500
L 594 3500
L 594 4494
L 1172 4494
z
" transform="scale(0.015625)"/>
       <path id="DejaVuSans-48" d="M 3597 1894
L 3597 1613
L 953 1613
Q 991 1019 1311 708
Q 1631 397 2203 397
Q 2534 397 2845 478
Q 3156 559 3463 722
L 3463 178
Q 3153 47 2828 -22
Q 2503 -91 2169 -91
Q 1331 -91 842 396
Q 353 884 353 1716
Q 353 2575 817 3079
Q 1281 3584 2069 3584
Q 2775 3584 3186 3129
Q 3597 2675 3597 1894
z
M 3022 2063
Q 3016 2534 2758 2815
Q 2500 3097 2075 3097
Q 1594 3097 1305 2825
Q 1016 2553 972 2059
L 3022 2063
z
" transform="scale(0.015625)"/>
       <path id="DejaVuSans-53" d="M 1159 525
L 1159 -1331
L 581 -1331
L 581 3500
L 1159 3500
L 1159 2969
Q 1341 3281 1617 3432
Q 1894 3584 2278 3584
Q 2916 3584 3314 3078
Q 3713 2572 3713 1747
Q 3713 922 3314 415
Q 2916 -91 2278 -91
Q 1894 -91 1617 61
Q 1341 213 1159 525
z
M 3116 1747
Q 3116 2381 2855 2742
Q 2594 3103 2138 3103
Q 1681 3103 1420 2742
Q 1159 2381 1159 1747
Q 1159 1113 1420 752
Q 1681 391 2138 391
Q 2594 391 2855 752
Q 3116 1113 3116 1747
z
" transform="scale(0.015625)"/>
      </defs>
      <use xlink:href="#DejaVuSans-36"/>
      <use xlink:href="#DejaVuSans-57" transform="translate(63.484375 0)"/>
      <use xlink:href="#DejaVuSans-48" transform="translate(102.6875 0)"/>
      <use xlink:href="#DejaVuSans-53" transform="translate(164.21875 0)"/>
     </g>
    </g>
   </g>
   <g id="matplotlib.axis_2">
    <g id="ytick_1">
     <g id="line2d_19">
      <path d="M 47.962344 226.018099
L 507.6 226.018099
" clip-path="url(#p59a76cdeb7)" style="fill: none; stroke: #b0b0b0; stroke-opacity: 0.25; stroke-width: 0.8; stroke-linecap: square"/>
     </g>
     <g id="line2d_20">
      <defs>
       <path id="m5843452985" d="M 0 0
L -3.5 0
" style="stroke: #000000; stroke-width: 0.8"/>
      </defs>
      <g>
       <use xlink:href="#m5843452985" x="47.962344" y="226.018099" style="stroke: #000000; stroke-width: 0.8"/>
      </g>
     </g>
     <g id="text_11">
      <!-- 2.5 -->
      <g transform="translate(25.059219 229.816927) scale(0.1 -0.1)">
       <defs>
        <path id="DejaVuSans-11" d="M 684 794
L 1344 794
L 1344 0
L 684 0
L 684 794
z
" transform="scale(0.015625)"/>
       </defs>
       <use xlink:href="#DejaVuSans-15"/>
       <use xlink:href="#DejaVuSans-11" transform="translate(63.625 0)"/>
       <use xlink:href="#DejaVuSans-18" transform="translate(95.40625 0)"/>
      </g>
     </g>
    </g>
    <g id="ytick_2">
     <g id="line2d_21">
      <path d="M 47.962344 180.162609
L 507.6 180.162609
" clip-path="url(#p59a76cdeb7)" style="fill: none; stroke: #b0b0b0; stroke-opacity: 0.25; stroke-width: 0.8; stroke-linecap: square"/>
     </g>
     <g id="line2d_22">
      <g>
       <use xlink:href="#m5843452985" x="47.962344" y="180.162609" style="stroke: #000000; stroke-width: 0.8"/>
      </g>
     </g>
     <g id="text_12">
      <!-- 3.0 -->
      <g transform="translate(25.059219 183.961438) scale(0.1 -0.1)">
       <use xlink:href="#DejaVuSans-16"/>
       <use xlink:href="#DejaVuSans-11" transform="translate(63.625 0)"/>
       <use xlink:href="#DejaVuSans-13" transform="translate(95.40625 0)"/>
      </g>
     </g>
    </g>
    <g id="ytick_3">
     <g id="line2d_23">
      <path d="M 47.962344 134.30712
L 507.6 134.30712
" clip-path="url(#p59a76cdeb7)" style="fill: none; stroke: #b0b0b0; stroke-opacity: 0.25; stroke-width: 0.8; stroke-linecap: square"/>
     </g>
     <g id="line2d_24">
      <g>
       <use xlink:href="#m5843452985" x="47.962344" y="134.30712" style="stroke: #000000; stroke-width: 0.8"/>
      </g>
     </g>
     <g id="text_13">
      <!-- 3.5 -->
      <g transform="translate(25.059219 138.105948) scale(0.1 -0.1)">
       <use xlink:href="#DejaVuSans-16"/>
       <use xlink:href="#DejaVuSans-11" transform="translate(63.625 0)"/>
       <use xlink:href="#DejaVuSans-18" transform="translate(95.40625 0)"/>
      </g>
     </g>
    </g>
    <g id="ytick_4">
     <g id="line2d_25">
      <path d="M 47.962344 88.451631
L 507.6 88.451631
" clip-path="url(#p59a76cdeb7)" style="fill: none; stroke: #b0b0b0; stroke-opacity: 0.25; stroke-width: 0.8; stroke-linecap: square"/>
     </g>
     <g id="line2d_26">
      <g>
       <use xlink:href="#m5843452985" x="47.962344" y="88.451631" style="stroke: #000000; stroke-width: 0.8"/>
      </g>
     </g>
     <g id="text_14">
      <!-- 4.0 -->
      <g transform="translate(25.059219 92.250459) scale(0.1 -0.1)">
       <use xlink:href="#DejaVuSans-17"/>
       <use xlink:href="#DejaVuSans-11" transform="translate(63.625 0)"/>
       <use xlink:href="#DejaVuSans-13" transform="translate(95.40625 0)"/>
      </g>
     </g>
    </g>
    <g id="ytick_5">
     <g id="line2d_27">
      <path d="M 47.962344 42.596142
L 507.6 42.596142
" clip-path="url(#p59a76cdeb7)" style="fill: none; stroke: #b0b0b0; stroke-opacity: 0.25; stroke-width: 0.8; stroke-linecap: square"/>
     </g>
     <g id="line2d_28">
      <g>
       <use xlink:href="#m5843452985" x="47.962344" y="42.596142" style="stroke: #000000; stroke-width: 0.8"/>
      </g>
     </g>
     <g id="text_15">
      <!-- 4.5 -->
      <g transform="translate(25.059219 46.39497) scale(0.1 -0.1)">
       <use xlink:href="#DejaVuSans-17"/>
       <use xlink:href="#DejaVuSans-11" transform="translate(63.625 0)"/>
       <use xlink:href="#DejaVuSans-18" transform="translate(95.40625 0)"/>
      </g>
     </g>
    </g>
    <g id="text_16">
     <!-- Validation loss -->
     <g transform="translate(18.656875 179.316719) rotate(-90) scale(0.1 -0.1)">
      <defs>
       <path id="DejaVuSans-39" d="M 1831 0
L 50 4666
L 709 4666
L 2188 738
L 3669 4666
L 4325 4666
L 2547 0
L 1831 0
z
" transform="scale(0.015625)"/>
       <path id="DejaVuSans-44" d="M 2194 1759
Q 1497 1759 1228 1600
Q 959 1441 959 1056
Q 959 750 1161 570
Q 1363 391 1709 391
Q 2188 391 2477 730
Q 2766 1069 2766 1631
L 2766 1759
L 2194 1759
z
M 3341 1997
L 3341 0
L 2766 0
L 2766 531
Q 2569 213 2275 61
Q 1981 -91 1556 -91
Q 1019 -91 701 211
Q 384 513 384 1019
Q 384 1609 779 1909
Q 1175 2209 1959 2209
L 2766 2209
L 2766 2266
Q 2766 2663 2505 2880
Q 2244 3097 1772 3097
Q 1472 3097 1187 3025
Q 903 2953 641 2809
L 641 3341
Q 956 3463 1253 3523
Q 1550 3584 1831 3584
Q 2591 3584 2966 3190
Q 3341 2797 3341 1997
z
" transform="scale(0.015625)"/>
       <path id="DejaVuSans-4f" d="M 603 4863
L 1178 4863
L 1178 0
L 603 0
L 603 4863
z
" transform="scale(0.015625)"/>
       <path id="DejaVuSans-4c" d="M 603 3500
L 1178 3500
L 1178 0
L 603 0
L 603 3500
z
M 603 4863
L 1178 4863
L 1178 4134
L 603 4134
L 603 4863
z
" transform="scale(0.015625)"/>
       <path id="DejaVuSans-47" d="M 2906 2969
L 2906 4863
L 3481 4863
L 3481 0
L 2906 0
L 2906 525
Q 2725 213 2448 61
Q 2172 -91 1784 -91
Q 1150 -91 751 415
Q 353 922 353 1747
Q 353 2572 751 3078
Q 1150 3584 1784 3584
Q 2172 3584 2448 3432
Q 2725 3281 2906 2969
z
M 947 1747
Q 947 1113 1208 752
Q 1469 391 1925 391
Q 2381 391 2643 752
Q 2906 1113 2906 1747
Q 2906 2381 2643 2742
Q 2381 3103 1925 3103
Q 1469 3103 1208 2742
Q 947 2381 947 1747
z
" transform="scale(0.015625)"/>
       <path id="DejaVuSans-52" d="M 1959 3097
Q 1497 3097 1228 2736
Q 959 2375 959 1747
Q 959 1119 1226 758
Q 1494 397 1959 397
Q 2419 397 2687 759
Q 2956 1122 2956 1747
Q 2956 2369 2687 2733
Q 2419 3097 1959 3097
z
M 1959 3584
Q 2709 3584 3137 3096
Q 3566 2609 3566 1747
Q 3566 888 3137 398
Q 2709 -91 1959 -91
Q 1206 -91 779 398
Q 353 888 353 1747
Q 353 2609 779 3096
Q 1206 3584 1959 3584
z
" transform="scale(0.015625)"/>
       <path id="DejaVuSans-51" d="M 3513 2113
L 3513 0
L 2938 0
L 2938 2094
Q 2938 2591 2744 2837
Q 2550 3084 2163 3084
Q 1697 3084 1428 2787
Q 1159 2491 1159 1978
L 1159 0
L 581 0
L 581 3500
L 1159 3500
L 1159 2956
Q 1366 3272 1645 3428
Q 1925 3584 2291 3584
Q 2894 3584 3203 3211
Q 3513 2838 3513 2113
z
" transform="scale(0.015625)"/>
       <path id="DejaVuSans-3" transform="scale(0.015625)"/>
       <path id="DejaVuSans-56" d="M 2834 3397
L 2834 2853
Q 2591 2978 2328 3040
Q 2066 3103 1784 3103
Q 1356 3103 1142 2972
Q 928 2841 928 2578
Q 928 2378 1081 2264
Q 1234 2150 1697 2047
L 1894 2003
Q 2506 1872 2764 1633
Q 3022 1394 3022 966
Q 3022 478 2636 193
Q 2250 -91 1575 -91
Q 1294 -91 989 -36
Q 684 19 347 128
L 347 722
Q 666 556 975 473
Q 1284 391 1588 391
Q 1994 391 2212 530
Q 2431 669 2431 922
Q 2431 1156 2273 1281
Q 2116 1406 1581 1522
L 1381 1569
Q 847 1681 609 1914
Q 372 2147 372 2553
Q 372 3047 722 3315
Q 1072 3584 1716 3584
Q 2034 3584 2315 3537
Q 2597 3491 2834 3397
z
" transform="scale(0.015625)"/>
      </defs>
      <use xlink:href="#DejaVuSans-39"/>
      <use xlink:href="#DejaVuSans-44" transform="translate(60.640625 0)"/>
      <use xlink:href="#DejaVuSans-4f" transform="translate(121.921875 0)"/>
      <use xlink:href="#DejaVuSans-4c" transform="translate(149.703125 0)"/>
      <use xlink:href="#DejaVuSans-47" transform="translate(177.484375 0)"/>
      <use xlink:href="#DejaVuSans-44" transform="translate(240.96875 0)"/>
      <use xlink:href="#DejaVuSans-57" transform="translate(302.25 0)"/>
      <use xlink:href="#DejaVuSans-4c" transform="translate(341.453125 0)"/>
      <use xlink:href="#DejaVuSans-52" transform="translate(369.234375 0)"/>
      <use xlink:href="#DejaVuSans-51" transform="translate(430.421875 0)"/>
      <use xlink:href="#DejaVuSans-3" transform="translate(493.796875 0)"/>
      <use xlink:href="#DejaVuSans-4f" transform="translate(525.578125 0)"/>
      <use xlink:href="#DejaVuSans-52" transform="translate(553.359375 0)"/>
      <use xlink:href="#DejaVuSans-56" transform="translate(614.546875 0)"/>
      <use xlink:href="#DejaVuSans-56" transform="translate(666.640625 0)"/>
     </g>
    </g>
   </g>
   <g id="line2d_29">
    <path d="M 68.854964 36.816364
L 173.318068 65.535475
L 277.781172 94.225024
L 382.244276 89.131739
L 486.707379 100.515189
" clip-path="url(#p59a76cdeb7)" style="fill: none; stroke: #1f77b4; stroke-width: 1.4; stroke-linecap: square"/>
    <defs>
     <path id="md8bb9407d3" d="M 0 1.25
C 0.331504 1.25 0.649475 1.118292 0.883883 0.883883
C 1.118292 0.649475 1.25 0.331504 1.25 0
C 1.25 -0.331504 1.118292 -0.649475 0.883883 -0.883883
C 0.649475 -1.118292 0.331504 -1.25 0 -1.25
C -0.331504 -1.25 -0.649475 -1.118292 -0.883883 -0.883883
C -1.118292 -0.649475 -1.25 -0.331504 -1.25 0
C -1.25 0.331504 -1.118292 0.649475 -0.883883 0.883883
C -0.649475 1.118292 -0.331504 1.25 0 1.25
z
" style="stroke: #1f77b4"/>
    </defs>
    <g clip-path="url(#p59a76cdeb7)">
     <use xlink:href="#md8bb9407d3" x="68.854964" y="36.816364" style="fill: #1f77b4; stroke: #1f77b4"/>
     <use xlink:href="#md8bb9407d3" x="173.318068" y="65.535475" style="fill: #1f77b4; stroke: #1f77b4"/>
     <use xlink:href="#md8bb9407d3" x="277.781172" y="94.225024" style="fill: #1f77b4; stroke: #1f77b4"/>
     <use xlink:href="#md8bb9407d3" x="382.244276" y="89.131739" style="fill: #1f77b4; stroke: #1f77b4"/>
     <use xlink:href="#md8bb9407d3" x="486.707379" y="100.515189" style="fill: #1f77b4; stroke: #1f77b4"/>
    </g>
   </g>
   <g id="line2d_30">
    <path d="M 68.854964 148.816674
L 173.318068 199.294989
L 277.781172 220.029286
L 382.244276 227.286238
L 486.707379 231.663906
" clip-path="url(#p59a76cdeb7)" style="fill: none; stroke: #ff7f0e; stroke-width: 1.4; stroke-linecap: square"/>
    <defs>
     <path id="mc1710fd77b" d="M 0 1.25
C 0.331504 1.25 0.649475 1.118292 0.883883 0.883883
C 1.118292 0.649475 1.25 0.331504 1.25 0
C 1.25 -0.331504 1.118292 -0.649475 0.883883 -0.883883
C 0.649475 -1.118292 0.331504 -1.25 0 -1.25
C -0.331504 -1.25 -0.649475 -1.118292 -0.883883 -0.883883
C -1.118292 -0.649475 -1.25 -0.331504 -1.25 0
C -1.25 0.331504 -1.118292 0.649475 -0.883883 0.883883
C -0.649475 1.118292 -0.331504 1.25 0 1.25
z
" style="stroke: #ff7f0e"/>
    </defs>
    <g clip-path="url(#p59a76cdeb7)">
     <use xlink:href="#mc1710fd77b" x="68.854964" y="148.816674" style="fill: #ff7f0e; stroke: #ff7f0e"/>
     <use xlink:href="#mc1710fd77b" x="173.318068" y="199.294989" style="fill: #ff7f0e; stroke: #ff7f0e"/>
     <use xlink:href="#mc1710fd77b" x="277.781172" y="220.029286" style="fill: #ff7f0e; stroke: #ff7f0e"/>
     <use xlink:href="#mc1710fd77b" x="382.244276" y="227.286238" style="fill: #ff7f0e; stroke: #ff7f0e"/>
     <use xlink:href="#mc1710fd77b" x="486.707379" y="231.663906" style="fill: #ff7f0e; stroke: #ff7f0e"/>
    </g>
   </g>
   <g id="line2d_31">
    <path d="M 68.854964 107.317075
L 173.318068 155.505318
L 277.781172 173.615305
L 382.244276 182.258012
L 486.707379 190.128098
" clip-path="url(#p59a76cdeb7)" style="fill: none; stroke: #2ca02c; stroke-width: 1.4; stroke-linecap: square"/>
    <defs>
     <path id="m3d51323495" d="M 0 1.25
C 0.331504 1.25 0.649475 1.118292 0.883883 0.883883
C 1.118292 0.649475 1.25 0.331504 1.25 0
C 1.25 -0.331504 1.118292 -0.649475 0.883883 -0.883883
C 0.649475 -1.118292 0.331504 -1.25 0 -1.25
C -0.331504 -1.25 -0.649475 -1.118292 -0.883883 -0.883883
C -1.118292 -0.649475 -1.25 -0.331504 -1.25 0
C -1.25 0.331504 -1.118292 0.649475 -0.883883 0.883883
C -0.649475 1.118292 -0.331504 1.25 0 1.25
z
" style="stroke: #2ca02c"/>
    </defs>
    <g clip-path="url(#p59a76cdeb7)">
     <use xlink:href="#m3d51323495" x="68.854964" y="107.317075" style="fill: #2ca02c; stroke: #2ca02c"/>
     <use xlink:href="#m3d51323495" x="173.318068" y="155.505318" style="fill: #2ca02c; stroke: #2ca02c"/>
     <use xlink:href="#m3d51323495" x="277.781172" y="173.615305" style="fill: #2ca02c; stroke: #2ca02c"/>
     <use xlink:href="#m3d51323495" x="382.244276" y="182.258012" style="fill: #2ca02c; stroke: #2ca02c"/>
     <use xlink:href="#m3d51323495" x="486.707379" y="190.128098" style="fill: #2ca02c; stroke: #2ca02c"/>
    </g>
   </g>
   <g id="line2d_32">
    <path d="M 68.854964 163.485234
L 173.318068 217.802427
L 277.781172 237.943729
L 382.244276 245.974789
L 486.707379 249.943636
" clip-path="url(#p59a76cdeb7)" style="fill: none; stroke: #d62728; stroke-width: 1.4; stroke-linecap: square"/>
    <defs>
     <path id="m4c5d3dc8b9" d="M 0 1.25
C 0.331504 1.25 0.649475 1.118292 0.883883 0.883883
C 1.118292 0.649475 1.25 0.331504 1.25 0
C 1.25 -0.331504 1.118292 -0.649475 0.883883 -0.883883
C 0.649475 -1.118292 0.331504 -1.25 0 -1.25
C -0.331504 -1.25 -0.649475 -1.118292 -0.883883 -0.883883
C -1.118292 -0.649475 -1.25 -0.331504 -1.25 0
C -1.25 0.331504 -1.118292 0.649475 -0.883883 0.883883
C -0.649475 1.118292 -0.331504 1.25 0 1.25
z
" style="stroke: #d62728"/>
    </defs>
    <g clip-path="url(#p59a76cdeb7)">
     <use xlink:href="#m4c5d3dc8b9" x="68.854964" y="163.485234" style="fill: #d62728; stroke: #d62728"/>
     <use xlink:href="#m4c5d3dc8b9" x="173.318068" y="217.802427" style="fill: #d62728; stroke: #d62728"/>
     <use xlink:href="#m4c5d3dc8b9" x="277.781172" y="237.943729" style="fill: #d62728; stroke: #d62728"/>
     <use xlink:href="#m4c5d3dc8b9" x="382.244276" y="245.974789" style="fill: #d62728; stroke: #d62728"/>
     <use xlink:href="#m4c5d3dc8b9" x="486.707379" y="249.943636" style="fill: #d62728; stroke: #d62728"/>
    </g>
   </g>
   <g id="line2d_33">
    <path d="M 68.854964 136.824354
L 173.318068 182.636177
L 277.781172 207.691576
L 382.244276 215.805442
L 486.707379 217.983824
" clip-path="url(#p59a76cdeb7)" style="fill: none; stroke: #9467bd; stroke-width: 1.4; stroke-linecap: square"/>
    <defs>
     <path id="m562af99e42" d="M 0 1.25
C 0.331504 1.25 0.649475 1.118292 0.883883 0.883883
C 1.118292 0.649475 1.25 0.331504 1.25 0
C 1.25 -0.331504 1.118292 -0.649475 0.883883 -0.883883
C 0.649475 -1.118292 0.331504 -1.25 0 -1.25
C -0.331504 -1.25 -0.649475 -1.118292 -0.883883 -0.883883
C -1.118292 -0.649475 -1.25 -0.331504 -1.25 0
C -1.25 0.331504 -1.118292 0.649475 -0.883883 0.883883
C -0.649475 1.118292 -0.331504 1.25 0 1.25
z
" style="stroke: #9467bd"/>
    </defs>
    <g clip-path="url(#p59a76cdeb7)">
     <use xlink:href="#m562af99e42" x="68.854964" y="136.824354" style="fill: #9467bd; stroke: #9467bd"/>
     <use xlink:href="#m562af99e42" x="173.318068" y="182.636177" style="fill: #9467bd; stroke: #9467bd"/>
     <use xlink:href="#m562af99e42" x="277.781172" y="207.691576" style="fill: #9467bd; stroke: #9467bd"/>
     <use xlink:href="#m562af99e42" x="382.244276" y="215.805442" style="fill: #9467bd; stroke: #9467bd"/>
     <use xlink:href="#m562af99e42" x="486.707379" y="217.983824" style="fill: #9467bd; stroke: #9467bd"/>
    </g>
   </g>
   <g id="patch_3">
    <path d="M 47.962344 260.6
L 47.962344 26.16
" style="fill: none; stroke: #000000; stroke-width: 0.8; stroke-linejoin: miter; stroke-linecap: square"/>
   </g>
   <g id="patch_4">
    <path d="M 507.6 260.6
L 507.6 26.16
" style="fill: none; stroke: #000000; stroke-width: 0.8; stroke-linejoin: miter; stroke-linecap: square"/>
   </g>
   <g id="patch_5">
    <path d="M 47.962344 260.6
L 507.6 260.6
" style="fill: none; stroke: #000000; stroke-width: 0.8; stroke-linejoin: miter; stroke-linecap: square"/>
   </g>
   <g id="patch_6">
    <path d="M 47.962344 26.16
L 507.6 26.16
" style="fill: none; stroke: #000000; stroke-width: 0.8; stroke-linejoin: miter; stroke-linecap: square"/>
   </g>
   <g id="text_17">
    <!-- TinyStories batch-size comparison -->
    <g transform="translate(174.912109 20.16) scale(0.12 -0.12)">
     <defs>
      <path id="DejaVuSans-37" d="M -19 4666
L 3928 4666
L 3928 4134
L 2272 4134
L 2272 0
L 1638 0
L 1638 4134
L -19 4134
L -19 4666
z
" transform="scale(0.015625)"/>
      <path id="DejaVuSans-5c" d="M 2059 -325
Q 1816 -950 1584 -1140
Q 1353 -1331 966 -1331
L 506 -1331
L 506 -850
L 844 -850
Q 1081 -850 1212 -737
Q 1344 -625 1503 -206
L 1606 56
L 191 3500
L 800 3500
L 1894 763
L 2988 3500
L 3597 3500
L 2059 -325
z
" transform="scale(0.015625)"/>
      <path id="DejaVuSans-55" d="M 2631 2963
Q 2534 3019 2420 3045
Q 2306 3072 2169 3072
Q 1681 3072 1420 2755
Q 1159 2438 1159 1844
L 1159 0
L 581 0
L 581 3500
L 1159 3500
L 1159 2956
Q 1341 3275 1631 3429
Q 1922 3584 2338 3584
Q 2397 3584 2469 3576
Q 2541 3569 2628 3553
L 2631 2963
z
" transform="scale(0.015625)"/>
      <path id="DejaVuSans-45" d="M 3116 1747
Q 3116 2381 2855 2742
Q 2594 3103 2138 3103
Q 1681 3103 1420 2742
Q 1159 2381 1159 1747
Q 1159 1113 1420 752
Q 1681 391 2138 391
Q 2594 391 2855 752
Q 3116 1113 3116 1747
z
M 1159 2969
Q 1341 3281 1617 3432
Q 1894 3584 2278 3584
Q 2916 3584 3314 3078
Q 3713 2572 3713 1747
Q 3713 922 3314 415
Q 2916 -91 2278 -91
Q 1894 -91 1617 61
Q 1341 213 1159 525
L 1159 0
L 581 0
L 581 4863
L 1159 4863
L 1159 2969
z
" transform="scale(0.015625)"/>
      <path id="DejaVuSans-46" d="M 3122 3366
L 3122 2828
Q 2878 2963 2633 3030
Q 2388 3097 2138 3097
Q 1578 3097 1268 2742
Q 959 2388 959 1747
Q 959 1106 1268 751
Q 1578 397 2138 397
Q 2388 397 2633 464
Q 2878 531 3122 666
L 3122 134
Q 2881 22 2623 -34
Q 2366 -91 2075 -91
Q 1284 -91 818 406
Q 353 903 353 1747
Q 353 2603 823 3093
Q 1294 3584 2113 3584
Q 2378 3584 2631 3529
Q 2884 3475 3122 3366
z
" transform="scale(0.015625)"/>
      <path id="DejaVuSans-4b" d="M 3513 2113
L 3513 0
L 2938 0
L 2938 2094
Q 2938 2591 2744 2837
Q 2550 3084 2163 3084
Q 1697 3084 1428 2787
Q 1159 2491 1159 1978
L 1159 0
L 581 0
L 581 4863
L 1159 4863
L 1159 2956
Q 1366 3272 1645 3428
Q 1925 3584 2291 3584
Q 2894 3584 3203 3211
Q 3513 2838 3513 2113
z
" transform="scale(0.015625)"/>
      <path id="DejaVuSans-10" d="M 313 2009
L 1997 2009
L 1997 1497
L 313 1497
L 313 2009
z
" transform="scale(0.015625)"/>
      <path id="DejaVuSans-5d" d="M 353 3500
L 3084 3500
L 3084 2975
L 922 459
L 3084 459
L 3084 0
L 275 0
L 275 525
L 2438 3041
L 353 3041
L 353 3500
z
" transform="scale(0.015625)"/>
      <path id="DejaVuSans-50" d="M 3328 2828
Q 3544 3216 3844 3400
Q 4144 3584 4550 3584
Q 5097 3584 5394 3201
Q 5691 2819 5691 2113
L 5691 0
L 5113 0
L 5113 2094
Q 5113 2597 4934 2840
Q 4756 3084 4391 3084
Q 3944 3084 3684 2787
Q 3425 2491 3425 1978
L 3425 0
L 2847 0
L 2847 2094
Q 2847 2600 2669 2842
Q 2491 3084 2119 3084
Q 1678 3084 1418 2786
Q 1159 2488 1159 1978
L 1159 0
L 581 0
L 581 3500
L 1159 3500
L 1159 2956
Q 1356 3278 1631 3431
Q 1906 3584 2284 3584
Q 2666 3584 2933 3390
Q 3200 3197 3328 2828
z
" transform="scale(0.015625)"/>
     </defs>
     <use xlink:href="#DejaVuSans-37"/>
     <use xlink:href="#DejaVuSans-4c" transform="translate(58 0)"/>
     <use xlink:href="#DejaVuSans-51" transform="translate(85.78125 0)"/>
     <use xlink:href="#DejaVuSans-5c" transform="translate(149.15625 0)"/>
     <use xlink:href="#DejaVuSans-36" transform="translate(208.34375 0)"/>
     <use xlink:href="#DejaVuSans-57" transform="translate(271.828125 0)"/>
     <use xlink:href="#DejaVuSans-52" transform="translate(311.03125 0)"/>
     <use xlink:href="#DejaVuSans-55" transform="translate(372.21875 0)"/>
     <use xlink:href="#DejaVuSans-4c" transform="translate(413.328125 0)"/>
     <use xlink:href="#DejaVuSans-48" transform="translate(441.109375 0)"/>
     <use xlink:href="#DejaVuSans-56" transform="translate(502.640625 0)"/>
     <use xlink:href="#DejaVuSans-3" transform="translate(554.734375 0)"/>
     <use xlink:href="#DejaVuSans-45" transform="translate(586.515625 0)"/>
     <use xlink:href="#DejaVuSans-44" transform="translate(650 0)"/>
     <use xlink:href="#DejaVuSans-57" transform="translate(711.28125 0)"/>
     <use xlink:href="#DejaVuSans-46" transform="translate(750.484375 0)"/>
     <use xlink:href="#DejaVuSans-4b" transform="translate(805.46875 0)"/>
     <use xlink:href="#DejaVuSans-10" transform="translate(868.84375 0)"/>
     <use xlink:href="#DejaVuSans-56" transform="translate(904.921875 0)"/>
     <use xlink:href="#DejaVuSans-4c" transform="translate(957.015625 0)"/>
     <use xlink:href="#DejaVuSans-5d" transform="translate(984.796875 0)"/>
     <use xlink:href="#DejaVuSans-48" transform="translate(1037.28125 0)"/>
     <use xlink:href="#DejaVuSans-3" transform="translate(1098.8125 0)"/>
     <use xlink:href="#DejaVuSans-46" transform="translate(1130.59375 0)"/>
     <use xlink:href="#DejaVuSans-52" transform="translate(1185.578125 0)"/>
     <use xlink:href="#DejaVuSans-50" transform="translate(1246.765625 0)"/>
     <use xlink:href="#DejaVuSans-53" transform="translate(1344.171875 0)"/>
     <use xlink:href="#DejaVuSans-44" transform="translate(1407.65625 0)"/>
     <use xlink:href="#DejaVuSans-55" transform="translate(1468.9375 0)"/>
     <use xlink:href="#DejaVuSans-4c" transform="translate(1510.046875 0)"/>
     <use xlink:href="#DejaVuSans-56" transform="translate(1537.828125 0)"/>
     <use xlink:href="#DejaVuSans-52" transform="translate(1589.921875 0)"/>
     <use xlink:href="#DejaVuSans-51" transform="translate(1651.109375 0)"/>
    </g>
   </g>
   <g id="legend_1">
    <g id="patch_7">
     <path d="M 461.13 92.563125
L 502 92.563125
Q 503.6 92.563125 503.6 90.963125
L 503.6 31.76
Q 503.6 30.16 502 30.16
L 461.13 30.16
Q 459.53 30.16 459.53 31.76
L 459.53 90.963125
Q 459.53 92.563125 461.13 92.563125
z
" style="fill: #ffffff; opacity: 0.8; stroke: #cccccc; stroke-linejoin: miter"/>
    </g>
    <g id="line2d_34">
     <path d="M 462.73 36.63875
L 470.73 36.63875
L 478.73 36.63875
" style="fill: none; stroke: #1f77b4; stroke-width: 1.4; stroke-linecap: square"/>
     <g>
      <use xlink:href="#md8bb9407d3" x="470.73" y="36.63875" style="fill: #1f77b4; stroke: #1f77b4"/>
     </g>
    </g>
    <g id="text_18">
     <!-- 1 -->
     <g transform="translate(485.13 39.43875) scale(0.08 -0.08)">
      <use xlink:href="#DejaVuSans-14"/>
     </g>
    </g>
    <g id="line2d_35">
     <path d="M 462.73 48.639375
L 470.73 48.639375
L 478.73 48.639375
" style="fill: none; stroke: #ff7f0e; stroke-width: 1.4; stroke-linecap: square"/>
     <g>
      <use xlink:href="#mc1710fd77b" x="470.73" y="48.639375" style="fill: #ff7f0e; stroke: #ff7f0e"/>
     </g>
    </g>
    <g id="text_19">
     <!-- 128 -->
     <g transform="translate(485.13 51.439375) scale(0.08 -0.08)">
      <defs>
       <path id="DejaVuSans-1b" d="M 2034 2216
Q 1584 2216 1326 1975
Q 1069 1734 1069 1313
Q 1069 891 1326 650
Q 1584 409 2034 409
Q 2484 409 2743 651
Q 3003 894 3003 1313
Q 3003 1734 2745 1975
Q 2488 2216 2034 2216
z
M 1403 2484
Q 997 2584 770 2862
Q 544 3141 544 3541
Q 544 4100 942 4425
Q 1341 4750 2034 4750
Q 2731 4750 3128 4425
Q 3525 4100 3525 3541
Q 3525 3141 3298 2862
Q 3072 2584 2669 2484
Q 3125 2378 3379 2068
Q 3634 1759 3634 1313
Q 3634 634 3220 271
Q 2806 -91 2034 -91
Q 1263 -91 848 271
Q 434 634 434 1313
Q 434 1759 690 2068
Q 947 2378 1403 2484
z
M 1172 3481
Q 1172 3119 1398 2916
Q 1625 2713 2034 2713
Q 2441 2713 2670 2916
Q 2900 3119 2900 3481
Q 2900 3844 2670 4047
Q 2441 4250 2034 4250
Q 1625 4250 1398 4047
Q 1172 3844 1172 3481
z
" transform="scale(0.015625)"/>
      </defs>
      <use xlink:href="#DejaVuSans-14"/>
      <use xlink:href="#DejaVuSans-15" transform="translate(63.625 0)"/>
      <use xlink:href="#DejaVuSans-1b" transform="translate(127.25 0)"/>
     </g>
    </g>
    <g id="line2d_36">
     <path d="M 462.73 60.64
L 470.73 60.64
L 478.73 60.64
" style="fill: none; stroke: #2ca02c; stroke-width: 1.4; stroke-linecap: square"/>
     <g>
      <use xlink:href="#m3d51323495" x="470.73" y="60.64" style="fill: #2ca02c; stroke: #2ca02c"/>
     </g>
    </g>
    <g id="text_20">
     <!-- 16 -->
     <g transform="translate(485.13 63.44) scale(0.08 -0.08)">
      <defs>
       <path id="DejaVuSans-19" d="M 2113 2584
Q 1688 2584 1439 2293
Q 1191 2003 1191 1497
Q 1191 994 1439 701
Q 1688 409 2113 409
Q 2538 409 2786 701
Q 3034 994 3034 1497
Q 3034 2003 2786 2293
Q 2538 2584 2113 2584
z
M 3366 4563
L 3366 3988
Q 3128 4100 2886 4159
Q 2644 4219 2406 4219
Q 1781 4219 1451 3797
Q 1122 3375 1075 2522
Q 1259 2794 1537 2939
Q 1816 3084 2150 3084
Q 2853 3084 3261 2657
Q 3669 2231 3669 1497
Q 3669 778 3244 343
Q 2819 -91 2113 -91
Q 1303 -91 875 529
Q 447 1150 447 2328
Q 447 3434 972 4092
Q 1497 4750 2381 4750
Q 2619 4750 2861 4703
Q 3103 4656 3366 4563
z
" transform="scale(0.015625)"/>
      </defs>
      <use xlink:href="#DejaVuSans-14"/>
      <use xlink:href="#DejaVuSans-19" transform="translate(63.625 0)"/>
     </g>
    </g>
    <g id="line2d_37">
     <path d="M 462.73 72.640625
L 470.73 72.640625
L 478.73 72.640625
" style="fill: none; stroke: #d62728; stroke-width: 1.4; stroke-linecap: square"/>
     <g>
      <use xlink:href="#m4c5d3dc8b9" x="470.73" y="72.640625" style="fill: #d62728; stroke: #d62728"/>
     </g>
    </g>
    <g id="text_21">
     <!-- 512 -->
     <g transform="translate(485.13 75.440625) scale(0.08 -0.08)">
      <use xlink:href="#DejaVuSans-18"/>
      <use xlink:href="#DejaVuSans-14" transform="translate(63.625 0)"/>
      <use xlink:href="#DejaVuSans-15" transform="translate(127.25 0)"/>
     </g>
    </g>
    <g id="line2d_38">
     <path d="M 462.73 84.64125
L 470.73 84.64125
L 478.73 84.64125
" style="fill: none; stroke: #9467bd; stroke-width: 1.4; stroke-linecap: square"/>
     <g>
      <use xlink:href="#m562af99e42" x="470.73" y="84.64125" style="fill: #9467bd; stroke: #9467bd"/>
     </g>
    </g>
    <g id="text_22">
     <!-- 64 -->
     <g transform="translate(485.13 87.44125) scale(0.08 -0.08)">
      <use xlink:href="#DejaVuSans-19"/>
      <use xlink:href="#DejaVuSans-17" transform="translate(63.625 0)"/>
     </g>
    </g>
   </g>
  </g>
 </g>
 <defs>
  <clipPath id="p59a76cdeb7">
   <rect x="47.962344" y="26.16" width="459.637656" height="234.44"/>
  </clipPath>
 </defs>
</svg>
