<?xml version="1.0" encoding="utf-8" standalone="no"?>
<!DOCTYPE svg PUBLIC "-//W3C//DTD SVG 1.1//EN"
  "http://www.w3.org/Graphics/SVG/1.1/DTD/svg11.dtd">
<svg xmlns:xlink="http://www.w3.org/1999/xlink" width="518.4pt" height="302.4pt" viewBox="0 0 518.4 302.4" xmlns="http://www.w3.org/2000/svg" version="1.1">
 <metadata>
  <rdf:RDF xmlns:dc="http://purl.org/dc/elements/1.1/" xmlns:cc="http://creativecommons.org/ns#" xmlns:rdf="http://www.w3.org/1999/02/22-rdf-syntax-ns#">
   <cc:Work>
    <dc:type rdf:resource="http://purl.org/dc/dcmitype/StillImage"/>
    <dc:date>2026-07-13T18:39:44.570648</dc:date>
    <dc:format>image/svg+xml</dc:format>
    <dc:creator>
     <cc:Agent>
      <dc:title>Matplotlib v3.11.0, https://matplotlib.org/</dc:title>
     </cc:Agent>
    </dc:creator>
   </cc:Work>
  </rdf:RDF>
 </metadata>
 <defs>
  <style type="text/css">*{stroke-linejoin: round; stroke-linecap: butt}</style>
 </defs>
 <g id="figure_1">
  <g id="patch_1">
   <path d="M 0 302.4
L 518.4 302.4
L 518.4 0
L 0 0
z
" style="fill: #ffffff"/>
  </g>
  <g id="axes_1">
   <g id="patch_2">
    <path d="M 38.602344 260.277656
L 507.6 260.277656
L 507.6 26.16
L 38.602344 26.16
z
" style="fill: #ffffff"/>
   </g>
   <g id="matplotlib.axis_1">
    <g id="xtick_1">
     <g id="line2d_1">
      <path d="M 51.301923 260.277656
L 51.301923 26.16
" clip-path="url(#p6e5768cdc4)" style="fill: none; stroke: #b0b0b0; stroke-opacity: 0.25; stroke-width: 0.8; stroke-linecap: square"/>
     </g>
     <g id="line2d_2">
      <defs>
       <path id="m74fd496c70" d="M 0 0
L 0 3.5
" style="stroke: #000000; stroke-width: 0.8"/>
      </defs>
      <g>
       <use xlink:href="#m74fd496c70" x="51.301923" y="260.277656" style="stroke: #000000; stroke-width: 0.8"/>
      </g>
     </g>
     <g id="text_1">
      <!-- 0 -->
      <g transform="translate(48.120673 274.875313) scale(0.1 -0.1)">
       <defs>
        <path id="DejaVuSans-13" d="M 2034 4250
Q 1547 4250 1301 3770
Q 1056 3291 1056 2328
Q 1056 1369 1301 889
Q 1547 409 2034 409
Q 2525 409 2770 889
Q 3016 1369 3016 2328
Q 3016 3291 2770 3770
Q 2525 4250 2034 4250
z
M 2034 4750
Q 2819 4750 3233 4129
Q 3647 3509 3647 2328
Q 3647 1150 3233 529
Q 2819 -91 2034 -91
Q 1250 -91 836 529
Q 422 1150 422 2328
Q 422 3509 836 4129
Q 1250 4750 2034 4750
z
" transform="scale(0.015625)"/>
       </defs>
       <use xlink:href="#DejaVuSans-13"/>
      </g>
     </g>
    </g>
    <g id="xtick_2">
     <g id="line2d_3">
      <path d="M 121.92267 260.277656
L 121.92267 26.16
" clip-path="url(#p6e5768cdc4)" style="fill: none; stroke: #b0b0b0; stroke-opacity: 0.25; stroke-width: 0.8; stroke-linecap: square"/>
     </g>
     <g id="line2d_4">
      <g>
       <use xlink:href="#m74fd496c70" x="121.92267" y="260.277656" style="stroke: #000000; stroke-width: 0.8"/>
      </g>
     </g>
     <g id="text_2">
      <!-- 50 -->
      <g transform="translate(115.56017 274.875313) scale(0.1 -0.1)">
       <defs>
        <path id="DejaVuSans-18" d="M 691 4666
L 3169 4666
L 3169 4134
L 1269 4134
L 1269 2991
Q 1406 3038 1543 3061
Q 1681 3084 1819 3084
Q 2600 3084 3056 2656
Q 3513 2228 3513 1497
Q 3513 744 3044 326
Q 2575 -91 1722 -91
Q 1428 -91 1123 -41
Q 819 9 494 109
L 494 744
Q 775 591 1075 516
Q 1375 441 1709 441
Q 2250 441 2565 725
Q 2881 1009 2881 1497
Q 2881 1984 2565 2268
Q 2250 2553 1709 2553
Q 1456 2553 1204 2497
Q 953 2441 691 2322
L 691 4666
z
" transform="scale(0.015625)"/>
       </defs>
       <use xlink:href="#DejaVuSans-18"/>
       <use xlink:href="#DejaVuSans-13" transform="translate(63.625 0)"/>
      </g>
     </g>
    </g>
    <g id="xtick_3">
     <g id="line2d_5">
      <path d="M 192.543416 260.277656
L 192.543416 26.16
" clip-path="url(#p6e5768cdc4)" style="fill: none; stroke: #b0b0b0; stroke-opacity: 0.25; stroke-width: 0.8; stroke-linecap: square"/>
     </g>
     <g id="line2d_6">
      <g>
       <use xlink:href="#m74fd496c70" x="192.543416" y="260.277656" style="stroke: #000000; stroke-width: 0.8"/>
      </g>
     </g>
     <g id="text_3">
      <!-- 100 -->
      <g transform="translate(182.999666 274.875313) scale(0.1 -0.1)">
       <defs>
        <path id="DejaVuSans-14" d="M 794 531
L 1825 531
L 1825 4091
L 703 3866
L 703 4441
L 1819 4666
L 2450 4666
L 2450 531
L 3481 531
L 3481 0
L 794 0
L 794 531
z
" transform="scale(0.015625)"/>
       </defs>
       <use xlink:href="#DejaVuSans-14"/>
       <use xlink:href="#DejaVuSans-13" transform="translate(63.625 0)"/>
       <use xlink:href="#DejaVuSans-13" transform="translate(127.25 0)"/>
      </g>
     </g>
    </g>
    <g id="xtick_4">
     <g id="line2d_7">
      <path d="M 263.164163 260.277656
L 263.164163 26.16
" clip-path="url(#p6e5768cdc4)" style="fill: none; stroke: #b0b0b0; stroke-opacity: 0.25; stroke-width: 0.8; stroke-linecap: square"/>
     </g>
     <g id="line2d_8">
      <g>
       <use xlink:href="#m74fd496c70" x="263.164163" y="260.277656" style="stroke: #000000; stroke-width: 0.8"/>
      </g>
     </g>
     <g id="text_4">
      <!-- 150 -->
      <g transform="translate(253.620413 274.875313) scale(0.1 -0.1)">
       <use xlink:href="#DejaVuSans-14"/>
       <use xlink:href="#DejaVuSans-18" transform="translate(63.625 0)"/>
       <use xlink:href="#DejaVuSans-13" transform="translate(127.25 0)"/>
      </g>
     </g>
    </g>
    <g id="xtick_5">
     <g id="line2d_9">
      <path d="M 333.78491 260.277656
L 333.78491 26.16
" clip-path="url(#p6e5768cdc4)" style="fill: none; stroke: #b0b0b0; stroke-opacity: 0.25; stroke-width: 0.8; stroke-linecap: square"/>
     </g>
     <g id="line2d_10">
      <g>
       <use xlink:href="#m74fd496c70" x="333.78491" y="260.277656" style="stroke: #000000; stroke-width: 0.8"/>
      </g>
     </g>
     <g id="text_5">
      <!-- 200 -->
      <g transform="translate(324.24116 274.875313) scale(0.1 -0.1)">
       <defs>
        <path id="DejaVuSans-15" d="M 1228 531
L 3431 531
L 3431 0
L 469 0
L 469 531
Q 828 903 1448 1529
Q 2069 2156 2228 2338
Q 2531 2678 2651 2914
Q 2772 3150 2772 3378
Q 2772 3750 2511 3984
Q 2250 4219 1831 4219
Q 1534 4219 1204 4116
Q 875 4013 500 3803
L 500 4441
Q 881 4594 1212 4672
Q 1544 4750 1819 4750
Q 2544 4750 2975 4387
Q 3406 4025 3406 3419
Q 3406 3131 3298 2873
Q 3191 2616 2906 2266
Q 2828 2175 2409 1742
Q 1991 1309 1228 531
z
" transform="scale(0.015625)"/>
       </defs>
       <use xlink:href="#DejaVuSans-15"/>
       <use xlink:href="#DejaVuSans-13" transform="translate(63.625 0)"/>
       <use xlink:href="#DejaVuSans-13" transform="translate(127.25 0)"/>
      </g>
     </g>
    </g>
    <g id="xtick_6">
     <g id="line2d_11">
      <path d="M 404.405657 260.277656
L 404.405657 26.16
" clip-path="url(#p6e5768cdc4)" style="fill: none; stroke: #b0b0b0; stroke-opacity: 0.25; stroke-width: 0.8; stroke-linecap: square"/>
     </g>
     <g id="line2d_12">
      <g>
       <use xlink:href="#m74fd496c70" x="404.405657" y="260.277656" style="stroke: #000000; stroke-width: 0.8"/>
      </g>
     </g>
     <g id="text_6">
      <!-- 250 -->
      <g transform="translate(394.861907 274.875313) scale(0.1 -0.1)">
       <use xlink:href="#DejaVuSans-15"/>
       <use xlink:href="#DejaVuSans-18" transform="translate(63.625 0)"/>
       <use xlink:href="#DejaVuSans-13" transform="translate(127.25 0)"/>
      </g>
     </g>
    </g>
    <g id="xtick_7">
     <g id="line2d_13">
      <path d="M 475.026403 260.277656
L 475.026403 26.16
" clip-path="url(#p6e5768cdc4)" style="fill: none; stroke: #b0b0b0; stroke-opacity: 0.25; stroke-width: 0.8; stroke-linecap: square"/>
     </g>
     <g id="line2d_14">
      <g>
       <use xlink:href="#m74fd496c70" x="475.026403" y="260.277656" style="stroke: #000000; stroke-width: 0.8"/>
      </g>
     </g>
     <g id="text_7">
      <!-- 300 -->
      <g transform="translate(465.482653 274.875313) scale(0.1 -0.1)">
       <defs>
        <path id="DejaVuSans-16" d="M 2597 2516
Q 3050 2419 3304 2112
Q 3559 1806 3559 1356
Q 3559 666 3084 287
Q 2609 -91 1734 -91
Q 1441 -91 1130 -33
Q 819 25 488 141
L 488 750
Q 750 597 1062 519
Q 1375 441 1716 441
Q 2309 441 2620 675
Q 2931 909 2931 1356
Q 2931 1769 2642 2001
Q 2353 2234 1838 2234
L 1294 2234
L 1294 2753
L 1863 2753
Q 2328 2753 2575 2939
Q 2822 3125 2822 3475
Q 2822 3834 2567 4026
Q 2313 4219 1838 4219
Q 1578 4219 1281 4162
Q 984 4106 628 3988
L 628 4550
Q 988 4650 1302 4700
Q 1616 4750 1894 4750
Q 2613 4750 3031 4423
Q 3450 4097 3450 3541
Q 3450 3153 3228 2886
Q 3006 2619 2597 2516
z
" transform="scale(0.015625)"/>
       </defs>
       <use xlink:href="#DejaVuSans-16"/>
       <use xlink:href="#DejaVuSans-13" transform="translate(63.625 0)"/>
       <use xlink:href="#DejaVuSans-13" transform="translate(127.25 0)"/>
      </g>
     </g>
    </g>
    <g id="text_8">
     <!-- Wall-clock time (s) -->
     <g transform="translate(227.008203 288.876094) scale(0.1 -0.1)">
      <defs>
       <path id="DejaVuSans-3a" d="M 213 4666
L 850 4666
L 1831 722
L 2809 4666
L 3519 4666
L 4500 722
L 5478 4666
L 6119 4666
L 4947 0
L 4153 0
L 3169 4050
L 2175 0
L 1381 0
L 213 4666
z
" transform="scale(0.015625)"/>
       <path id="DejaVuSans-44" d="M 2194 1759
Q 1497 1759 1228 1600
Q 959 1441 959 1056
Q 959 750 1161 570
Q 1363 391 1709 391
Q 2188 391 2477 730
Q 2766 1069 2766 1631
L 2766 1759
L 2194 1759
z
M 3341 1997
L 3341 0
L 2766 0
L 2766 531
Q 2569 213 2275 61
Q 1981 -91 1556 -91
Q 1019 -91 701 211
Q 384 513 384 1019
Q 384 1609 779 1909
Q 1175 2209 1959 2209
L 2766 2209
L 2766 2266
Q 2766 2663 2505 2880
Q 2244 3097 1772 3097
Q 1472 3097 1187 3025
Q 903 2953 641 2809
L 641 3341
Q 956 3463 1253 3523
Q 1550 3584 1831 3584
Q 2591 3584 2966 3190
Q 3341 2797 3341 1997
z
" transform="scale(0.015625)"/>
       <path id="DejaVuSans-4f" d="M 603 4863
L 1178 4863
L 1178 0
L 603 0
L 603 4863
z
" transform="scale(0.015625)"/>
       <path id="DejaVuSans-10" d="M 313 2009
L 1997 2009
L 1997 1497
L 313 1497
L 313 2009
z
" transform="scale(0.015625)"/>
       <path id="DejaVuSans-46" d="M 3122 3366
L 3122 2828
Q 2878 2963 2633 3030
Q 2388 3097 2138 3097
Q 1578 3097 1268 2742
Q 959 2388 959 1747
Q 959 1106 1268 751
Q 1578 397 2138 397
Q 2388 397 2633 464
Q 2878 531 3122 666
L 3122 134
Q 2881 22 2623 -34
Q 2366 -91 2075 -91
Q 1284 -91 818 406
Q 353 903 353 1747
Q 353 2603 823 3093
Q 1294 3584 2113 3584
Q 2378 3584 2631 3529
Q 2884 3475 3122 3366
z
" transform="scale(0.015625)"/>
       <path id="DejaVuSans-52" d="M 1959 3097
Q 1497 3097 1228 2736
Q 959 2375 959 1747
Q 959 1119 1226 758
Q 1494 397 1959 397
Q 2419 397 2687 759
Q 2956 1122 2956 1747
Q 2956 2369 2687 2733
Q 2419 3097 1959 3097
z
M 1959 3584
Q 2709 3584 3137 3096
Q 3566 2609 3566 1747
Q 3566 888 3137 398
Q 2709 -91 1959 -91
Q 1206 -91 779 398
Q 353 888 353 1747
Q 353 2609 779 3096
Q 1206 3584 1959 3584
z
" transform="scale(0.015625)"/>
       <path id="DejaVuSans-4e" d="M 581 4863
L 1159 4863
L 1159 1991
L 2875 3500
L 3609 3500
L 1753 1863
L 3688 0
L 2938 0
L 1159 1709
L 1159 0
L 581 0
L 581 4863
z
" transform="scale(0.015625)"/>
       <path id="DejaVuSans-3" transform="scale(0.015625)"/>
       <path id="DejaVuSans-57" d="M 1172 4494
L 1172 3500
L 2356 3500
L 2356 3053
L 1172 3053
L 1172 1153
Q 1172 725 1289 603
Q 1406 481 1766 481
L 2356 481
L 2356 0
L 1766 0
Q 1100 0 847 248
Q 594 497 594 1153
L 594 3053
L 172 3053
L 172 3500
L 594 3500
L 594 4494
L 1172 4494
z
" transform="scale(0.015625)"/>
       <path id="DejaVuSans-4c" d="M 603 3500
L 1178 3500
L 1178 0
L 603 0
L 603 3500
z
M 603 4863
L 1178 4863
L 1178 4134
L 603 4134
L 603 4863
z
" transform="scale(0.015625)"/>
       <path id="DejaVuSans-50" d="M 3328 2828
Q 3544 3216 3844 3400
Q 4144 3584 4550 3584
Q 5097 3584 5394 3201
Q 5691 2819 5691 2113
L 5691 0
L 5113 0
L 5113 2094
Q 5113 2597 4934 2840
Q 4756 3084 4391 3084
Q 3944 3084 3684 2787
Q 3425 2491 3425 1978
L 3425 0
L 2847 0
L 2847 2094
Q 2847 2600 2669 2842
Q 2491 3084 2119 3084
Q 1678 3084 1418 2786
Q 1159 2488 1159 1978
L 1159 0
L 581 0
L 581 3500
L 1159 3500
L 1159 2956
Q 1356 3278 1631 3431
Q 1906 3584 2284 3584
Q 2666 3584 2933 3390
Q 3200 3197 3328 2828
z
" transform="scale(0.015625)"/>
       <path id="DejaVuSans-48" d="M 3597 1894
L 3597 1613
L 953 1613
Q 991 1019 1311 708
Q 1631 397 2203 397
Q 2534 397 2845 478
Q 3156 559 3463 722
L 3463 178
Q 3153 47 2828 -22
Q 2503 -91 2169 -91
Q 1331 -91 842 396
Q 353 884 353 1716
Q 353 2575 817 3079
Q 1281 3584 2069 3584
Q 2775 3584 3186 3129
Q 3597 2675 3597 1894
z
M 3022 2063
Q 3016 2534 2758 2815
Q 2500 3097 2075 3097
Q 1594 3097 1305 2825
Q 1016 2553 972 2059
L 3022 2063
z
" transform="scale(0.015625)"/>
       <path id="DejaVuSans-b" d="M 1984 4856
Q 1566 4138 1362 3434
Q 1159 2731 1159 2009
Q 1159 1288 1364 580
Q 1569 -128 1984 -844
L 1484 -844
Q 1016 -109 783 600
Q 550 1309 550 2009
Q 550 2706 781 3412
Q 1013 4119 1484 4856
L 1984 4856
z
" transform="scale(0.015625)"/>
       <path id="DejaVuSans-56" d="M 2834 3397
L 2834 2853
Q 2591 2978 2328 3040
Q 2066 3103 1784 3103
Q 1356 3103 1142 2972
Q 928 2841 928 2578
Q 928 2378 1081 2264
Q 1234 2150 1697 2047
L 1894 2003
Q 2506 1872 2764 1633
Q 3022 1394 3022 966
Q 3022 478 2636 193
Q 2250 -91 1575 -91
Q 1294 -91 989 -36
Q 684 19 347 128
L 347 722
Q 666 556 975 473
Q 1284 391 1588 391
Q 1994 391 2212 530
Q 2431 669 2431 922
Q 2431 1156 2273 1281
Q 2116 1406 1581 1522
L 1381 1569
Q 847 1681 609 1914
Q 372 2147 372 2553
Q 372 3047 722 3315
Q 1072 3584 1716 3584
Q 2034 3584 2315 3537
Q 2597 3491 2834 3397
z
" transform="scale(0.015625)"/>
       <path id="DejaVuSans-c" d="M 513 4856
L 1013 4856
Q 1481 4119 1714 3412
Q 1947 2706 1947 2009
Q 1947 1309 1714 600
Q 1481 -109 1013 -844
L 513 -844
Q 928 -128 1133 580
Q 1338 1288 1338 2009
Q 1338 2731 1133 3434
Q 928 4138 513 4856
z
" transform="scale(0.015625)"/>
      </defs>
      <use xlink:href="#DejaVuSans-3a"/>
      <use xlink:href="#DejaVuSans-44" transform="translate(92.484375 0)"/>
      <use xlink:href="#DejaVuSans-4f" transform="translate(153.765625 0)"/>
      <use xlink:href="#DejaVuSans-4f" transform="translate(181.546875 0)"/>
      <use xlink:href="#DejaVuSans-10" transform="translate(209.328125 0)"/>
      <use xlink:href="#DejaVuSans-46" transform="translate(245.40625 0)"/>
      <use xlink:href="#DejaVuSans-4f" transform="translate(300.390625 0)"/>
      <use xlink:href="#DejaVuSans-52" transform="translate(328.171875 0)"/>
      <use xlink:href="#DejaVuSans-46" transform="translate(389.359375 0)"/>
      <use xlink:href="#DejaVuSans-4e" transform="translate(444.34375 0)"/>
      <use xlink:href="#DejaVuSans-3" transform="translate(502.25 0)"/>
      <use xlink:href="#DejaVuSans-57" transform="translate(534.03125 0)"/>
      <use xlink:href="#DejaVuSans-4c" transform="translate(573.234375 0)"/>
      <use xlink:href="#DejaVuSans-50" transform="translate(601.015625 0)"/>
      <use xlink:href="#DejaVuSans-48" transform="translate(698.421875 0)"/>
      <use xlink:href="#DejaVuSans-3" transform="translate(759.953125 0)"/>
      <use xlink:href="#DejaVuSans-b" transform="translate(791.734375 0)"/>
      <use xlink:href="#DejaVuSans-56" transform="translate(830.75 0)"/>
      <use xlink:href="#DejaVuSans-c" transform="translate(882.84375 0)"/>
     </g>
    </g>
   </g>
   <g id="matplotlib.axis_2">
    <g id="ytick_1">
     <g id="line2d_15">
      <path d="M 38.602344 231.767084
L 507.6 231.767084
" clip-path="url(#p6e5768cdc4)" style="fill: none; stroke: #b0b0b0; stroke-opacity: 0.25; stroke-width: 0.8; stroke-linecap: square"/>
     </g>
     <g id="line2d_16">
      <defs>
       <path id="mab882e07e5" d="M 0 0
L -3.5 0
" style="stroke: #000000; stroke-width: 0.8"/>
      </defs>
      <g>
       <use xlink:href="#mab882e07e5" x="38.602344" y="231.767084" style="stroke: #000000; stroke-width: 0.8"/>
      </g>
     </g>
     <g id="text_9">
      <!-- 2 -->
      <g transform="translate(25.239844 235.565913) scale(0.1 -0.1)">
       <use xlink:href="#DejaVuSans-15"/>
      </g>
     </g>
    </g>
    <g id="ytick_2">
     <g id="line2d_17">
      <path d="M 38.602344 199.913124
L 507.6 199.913124
" clip-path="url(#p6e5768cdc4)" style="fill: none; stroke: #b0b0b0; stroke-opacity: 0.25; stroke-width: 0.8; stroke-linecap: square"/>
     </g>
     <g id="line2d_18">
      <g>
       <use xlink:href="#mab882e07e5" x="38.602344" y="199.913124" style="stroke: #000000; stroke-width: 0.8"/>
      </g>
     </g>
     <g id="text_10">
      <!-- 3 -->
      <g transform="translate(25.239844 203.711952) scale(0.1 -0.1)">
       <use xlink:href="#DejaVuSans-16"/>
      </g>
     </g>
    </g>
    <g id="ytick_3">
     <g id="line2d_19">
      <path d="M 38.602344 168.059163
L 507.6 168.059163
" clip-path="url(#p6e5768cdc4)" style="fill: none; stroke: #b0b0b0; stroke-opacity: 0.25; stroke-width: 0.8; stroke-linecap: square"/>
     </g>
     <g id="line2d_20">
      <g>
       <use xlink:href="#mab882e07e5" x="38.602344" y="168.059163" style="stroke: #000000; stroke-width: 0.8"/>
      </g>
     </g>
     <g id="text_11">
      <!-- 4 -->
      <g transform="translate(25.239844 171.857992) scale(0.1 -0.1)">
       <defs>
        <path id="DejaVuSans-17" d="M 2419 4116
L 825 1625
L 2419 1625
L 2419 4116
z
M 2253 4666
L 3047 4666
L 3047 1625
L 3713 1625
L 3713 1100
L 3047 1100
L 3047 0
L 2419 0
L 2419 1100
L 313 1100
L 313 1709
L 2253 4666
z
" transform="scale(0.015625)"/>
       </defs>
       <use xlink:href="#DejaVuSans-17"/>
      </g>
     </g>
    </g>
    <g id="ytick_4">
     <g id="line2d_21">
      <path d="M 38.602344 136.205203
L 507.6 136.205203
" clip-path="url(#p6e5768cdc4)" style="fill: none; stroke: #b0b0b0; stroke-opacity: 0.25; stroke-width: 0.8; stroke-linecap: square"/>
     </g>
     <g id="line2d_22">
      <g>
       <use xlink:href="#mab882e07e5" x="38.602344" y="136.205203" style="stroke: #000000; stroke-width: 0.8"/>
      </g>
     </g>
     <g id="text_12">
      <!-- 5 -->
      <g transform="translate(25.239844 140.004031) scale(0.1 -0.1)">
       <use xlink:href="#DejaVuSans-18"/>
      </g>
     </g>
    </g>
    <g id="ytick_5">
     <g id="line2d_23">
      <path d="M 38.602344 104.351243
L 507.6 104.351243
" clip-path="url(#p6e5768cdc4)" style="fill: none; stroke: #b0b0b0; stroke-opacity: 0.25; stroke-width: 0.8; stroke-linecap: square"/>
     </g>
     <g id="line2d_24">
      <g>
       <use xlink:href="#mab882e07e5" x="38.602344" y="104.351243" style="stroke: #000000; stroke-width: 0.8"/>
      </g>
     </g>
     <g id="text_13">
      <!-- 6 -->
      <g transform="translate(25.239844 108.150071) scale(0.1 -0.1)">
       <defs>
        <path id="DejaVuSans-19" d="M 2113 2584
Q 1688 2584 1439 2293
Q 1191 2003 1191 1497
Q 1191 994 1439 701
Q 1688 409 2113 409
Q 2538 409 2786 701
Q 3034 994 3034 1497
Q 3034 2003 2786 2293
Q 2538 2584 2113 2584
z
M 3366 4563
L 3366 3988
Q 3128 4100 2886 4159
Q 2644 4219 2406 4219
Q 1781 4219 1451 3797
Q 1122 3375 1075 2522
Q 1259 2794 1537 2939
Q 1816 3084 2150 3084
Q 2853 3084 3261 2657
Q 3669 2231 3669 1497
Q 3669 778 3244 343
Q 2819 -91 2113 -91
Q 1303 -91 875 529
Q 447 1150 447 2328
Q 447 3434 972 4092
Q 1497 4750 2381 4750
Q 2619 4750 2861 4703
Q 3103 4656 3366 4563
z
" transform="scale(0.015625)"/>
       </defs>
       <use xlink:href="#DejaVuSans-19"/>
      </g>
     </g>
    </g>
    <g id="ytick_6">
     <g id="line2d_25">
      <path d="M 38.602344 72.497282
L 507.6 72.497282
" clip-path="url(#p6e5768cdc4)" style="fill: none; stroke: #b0b0b0; stroke-opacity: 0.25; stroke-width: 0.8; stroke-linecap: square"/>
     </g>
     <g id="line2d_26">
      <g>
       <use xlink:href="#mab882e07e5" x="38.602344" y="72.497282" style="stroke: #000000; stroke-width: 0.8"/>
      </g>
     </g>
     <g id="text_14">
      <!-- 7 -->
      <g transform="translate(25.239844 76.29611) scale(0.1 -0.1)">
       <defs>
        <path id="DejaVuSans-1a" d="M 525 4666
L 3525 4666
L 3525 4397
L 1831 0
L 1172 0
L 2766 4134
L 525 4134
L 525 4666
z
" transform="scale(0.015625)"/>
       </defs>
       <use xlink:href="#DejaVuSans-1a"/>
      </g>
     </g>
    </g>
    <g id="ytick_7">
     <g id="line2d_27">
      <path d="M 38.602344 40.643322
L 507.6 40.643322
" clip-path="url(#p6e5768cdc4)" style="fill: none; stroke: #b0b0b0; stroke-opacity: 0.25; stroke-width: 0.8; stroke-linecap: square"/>
     </g>
     <g id="line2d_28">
      <g>
       <use xlink:href="#mab882e07e5" x="38.602344" y="40.643322" style="stroke: #000000; stroke-width: 0.8"/>
      </g>
     </g>
     <g id="text_15">
      <!-- 8 -->
      <g transform="translate(25.239844 44.44215) scale(0.1 -0.1)">
       <defs>
        <path id="DejaVuSans-1b" d="M 2034 2216
Q 1584 2216 1326 1975
Q 1069 1734 1069 1313
Q 1069 891 1326 650
Q 1584 409 2034 409
Q 2484 409 2743 651
Q 3003 894 3003 1313
Q 3003 1734 2745 1975
Q 2488 2216 2034 2216
z
M 1403 2484
Q 997 2584 770 2862
Q 544 3141 544 3541
Q 544 4100 942 4425
Q 1341 4750 2034 4750
Q 2731 4750 3128 4425
Q 3525 4100 3525 3541
Q 3525 3141 3298 2862
Q 3072 2584 2669 2484
Q 3125 2378 3379 2068
Q 3634 1759 3634 1313
Q 3634 634 3220 271
Q 2806 -91 2034 -91
Q 1263 -91 848 271
Q 434 634 434 1313
Q 434 1759 690 2068
Q 947 2378 1403 2484
z
M 1172 3481
Q 1172 3119 1398 2916
Q 1625 2713 2034 2713
Q 2441 2713 2670 2916
Q 2900 3119 2900 3481
Q 2900 3844 2670 4047
Q 2441 4250 2034 4250
Q 1625 4250 1398 4047
Q 1172 3844 1172 3481
z
" transform="scale(0.015625)"/>
       </defs>
       <use xlink:href="#DejaVuSans-1b"/>
      </g>
     </g>
    </g>
    <g id="text_16">
     <!-- Validation loss -->
     <g transform="translate(18.8375 179.155547) rotate(-90) scale(0.1 -0.1)">
      <defs>
       <path id="DejaVuSans-39" d="M 1831 0
L 50 4666
L 709 4666
L 2188 738
L 3669 4666
L 4325 4666
L 2547 0
L 1831 0
z
" transform="scale(0.015625)"/>
       <path id="DejaVuSans-47" d="M 2906 2969
L 2906 4863
L 3481 4863
L 3481 0
L 2906 0
L 2906 525
Q 2725 213 2448 61
Q 2172 -91 1784 -91
Q 1150 -91 751 415
Q 353 922 353 1747
Q 353 2572 751 3078
Q 1150 3584 1784 3584
Q 2172 3584 2448 3432
Q 2725 3281 2906 2969
z
M 947 1747
Q 947 1113 1208 752
Q 1469 391 1925 391
Q 2381 391 2643 752
Q 2906 1113 2906 1747
Q 2906 2381 2643 2742
Q 2381 3103 1925 3103
Q 1469 3103 1208 2742
Q 947 2381 947 1747
z
" transform="scale(0.015625)"/>
       <path id="DejaVuSans-51" d="M 3513 2113
L 3513 0
L 2938 0
L 2938 2094
Q 2938 2591 2744 2837
Q 2550 3084 2163 3084
Q 1697 3084 1428 2787
Q 1159 2491 1159 1978
L 1159 0
L 581 0
L 581 3500
L 1159 3500
L 1159 2956
Q 1366 3272 1645 3428
Q 1925 3584 2291 3584
Q 2894 3584 3203 3211
Q 3513 2838 3513 2113
z
" transform="scale(0.015625)"/>
      </defs>
      <use xlink:href="#DejaVuSans-39"/>
      <use xlink:href="#DejaVuSans-44" transform="translate(60.640625 0)"/>
      <use xlink:href="#DejaVuSans-4f" transform="translate(121.921875 0)"/>
      <use xlink:href="#DejaVuSans-4c" transform="translate(149.703125 0)"/>
      <use xlink:href="#DejaVuSans-47" transform="translate(177.484375 0)"/>
      <use xlink:href="#DejaVuSans-44" transform="translate(240.96875 0)"/>
      <use xlink:href="#DejaVuSans-57" transform="translate(302.25 0)"/>
      <use xlink:href="#DejaVuSans-4c" transform="translate(341.453125 0)"/>
      <use xlink:href="#DejaVuSans-52" transform="translate(369.234375 0)"/>
      <use xlink:href="#DejaVuSans-51" transform="translate(430.421875 0)"/>
      <use xlink:href="#DejaVuSans-3" transform="translate(493.796875 0)"/>
      <use xlink:href="#DejaVuSans-4f" transform="translate(525.578125 0)"/>
      <use xlink:href="#DejaVuSans-52" transform="translate(553.359375 0)"/>
      <use xlink:href="#DejaVuSans-56" transform="translate(614.546875 0)"/>
      <use xlink:href="#DejaVuSans-56" transform="translate(666.640625 0)"/>
     </g>
    </g>
   </g>
   <g id="line2d_29">
    <path d="M 59.920419 115.121612
L 63.183758 179.249285
L 66.443499 198.725309
L 69.70793 208.541117
L 72.967174 214.298382
L 76.214809 220.037619
L 79.473455 223.128201
L 82.717403 226.697766
L 85.965757 229.022989
L 89.21315 230.679663
L 92.70821 231.962778
L 95.951285 233.513723
L 99.188566 234.212796
L 102.434419 235.204059
L 105.682669 235.785025
L 108.935223 236.986704
L 112.217605 238.085943
L 115.471415 237.876663
L 118.733207 238.432954
L 121.967647 239.419212
L 125.444664 239.307849
L 128.677667 240.042639
L 131.92137 240.486611
L 135.170151 240.519932
L 138.41648 241.181488
L 141.674246 240.820875
L 144.940522 241.411049
L 148.200593 242.156206
L 151.468537 242.550794
L 154.740701 242.625737
L 158.22477 242.920517
L 161.460756 243.135481
L 164.708696 243.226829
L 167.940342 243.326849
L 171.175324 243.5115
L 174.413406 243.847985
L 177.663977 244.097049
L 180.920076 243.793794
L 184.154227 244.559149
L 187.407222 244.448375
L 190.917216 244.338948
L 194.160695 244.879693
L 197.402492 245.469963
L 200.647414 245.119936
L 203.893521 245.460416
L 207.156083 245.613386
L 210.405654 245.868169
L 213.647145 246.240998
L 216.890221 245.701138
L 220.132411 245.687863
L 223.621923 245.878752
L 226.863168 246.524621
L 230.119213 246.479593
L 233.391696 246.422034
L 236.663201 246.200679
L 239.940756 246.855737
L 243.193449 246.709739
L 246.440237 246.808674
L 249.682012 246.81115
L 252.924404 246.95007
L 256.405746 246.904335
L 259.649282 247.328044
L 262.880377 247.572457
L 266.108166 247.594006
L 269.337226 248.144898
L 272.568517 247.761618
L 275.837052 247.554811
L 279.070444 247.782917
L 282.308693 248.495311
L 285.542851 247.657501
L 289.017718 248.608641
L 292.247887 248.422536
L 295.475609 248.567619
L 298.738837 248.341635
L 301.965477 248.463217
L 305.190784 248.301502
L 308.4169 248.54209
L 311.642231 248.69061
L 314.868337 248.682461
L 318.091865 248.90074
L 321.559881 248.908961
L 324.784438 248.763161
L 328.018551 249.171882
L 331.24705 248.875697
L 334.473413 249.069564
L 337.696993 249.286184
L 340.924895 249.042288
L 344.154333 248.840325
L 347.379052 249.115625
L 350.608659 249.073088
L 354.072243 249.087168
L 357.298398 249.423855
L 360.522137 249.488917
L 363.749277 249.095951
L 366.99396 249.200343
L 370.267015 249.323895
L 373.491988 249.4553
L 376.716527 249.122642
L 379.943304 249.10636
L 383.171955 249.635945
" clip-path="url(#p6e5768cdc4)" style="fill: none; stroke: #1f77b4; stroke-width: 1.4; stroke-linecap: square"/>
    <defs>
     <path id="m967f63f408" d="M 0 1.25
C 0.331504 1.25 0.649475 1.118292 0.883883 0.883883
C 1.118292 0.649475 1.25 0.331504 1.25 0
C 1.25 -0.331504 1.118292 -0.649475 0.883883 -0.883883
C 0.649475 -1.118292 0.331504 -1.25 0 -1.25
C -0.331504 -1.25 -0.649475 -1.118292 -0.883883 -0.883883
C -1.118292 -0.649475 -1.25 -0.331504 -1.25 0
C -1.25 0.331504 -1.118292 0.649475 -0.883883 0.883883
C -0.649475 1.118292 -0.331504 1.25 0 1.25
z
" style="stroke: #1f77b4"/>
    </defs>
    <g clip-path="url(#p6e5768cdc4)">
     <use xlink:href="#m967f63f408" x="59.920419" y="115.121612" style="fill: #1f77b4; stroke: #1f77b4"/>
     <use xlink:href="#m967f63f408" x="63.183758" y="179.249285" style="fill: #1f77b4; stroke: #1f77b4"/>
     <use xlink:href="#m967f63f408" x="66.443499" y="198.725309" style="fill: #1f77b4; stroke: #1f77b4"/>
     <use xlink:href="#m967f63f408" x="69.70793" y="208.541117" style="fill: #1f77b4; stroke: #1f77b4"/>
     <use xlink:href="#m967f63f408" x="72.967174" y="214.298382" style="fill: #1f77b4; stroke: #1f77b4"/>
     <use xlink:href="#m967f63f408" x="76.214809" y="220.037619" style="fill: #1f77b4; stroke: #1f77b4"/>
     <use xlink:href="#m967f63f408" x="79.473455" y="223.128201" style="fill: #1f77b4; stroke: #1f77b4"/>
     <use xlink:href="#m967f63f408" x="82.717403" y="226.697766" style="fill: #1f77b4; stroke: #1f77b4"/>
     <use xlink:href="#m967f63f408" x="85.965757" y="229.022989" style="fill: #1f77b4; stroke: #1f77b4"/>
     <use xlink:href="#m967f63f408" x="89.21315" y="230.679663" style="fill: #1f77b4; stroke: #1f77b4"/>
     <use xlink:href="#m967f63f408" x="92.70821" y="231.962778" style="fill: #1f77b4; stroke: #1f77b4"/>
     <use xlink:href="#m967f63f408" x="95.951285" y="233.513723" style="fill: #1f77b4; stroke: #1f77b4"/>
     <use xlink:href="#m967f63f408" x="99.188566" y="234.212796" style="fill: #1f77b4; stroke: #1f77b4"/>
     <use xlink:href="#m967f63f408" x="102.434419" y="235.204059" style="fill: #1f77b4; stroke: #1f77b4"/>
     <use xlink:href="#m967f63f408" x="105.682669" y="235.785025" style="fill: #1f77b4; stroke: #1f77b4"/>
     <use xlink:href="#m967f63f408" x="108.935223" y="236.986704" style="fill: #1f77b4; stroke: #1f77b4"/>
     <use xlink:href="#m967f63f408" x="112.217605" y="238.085943" style="fill: #1f77b4; stroke: #1f77b4"/>
     <use xlink:href="#m967f63f408" x="115.471415" y="237.876663" style="fill: #1f77b4; stroke: #1f77b4"/>
     <use xlink:href="#m967f63f408" x="118.733207" y="238.432954" style="fill: #1f77b4; stroke: #1f77b4"/>
     <use xlink:href="#m967f63f408" x="121.967647" y="239.419212" style="fill: #1f77b4; stroke: #1f77b4"/>
     <use xlink:href="#m967f63f408" x="125.444664" y="239.307849" style="fill: #1f77b4; stroke: #1f77b4"/>
     <use xlink:href="#m967f63f408" x="128.677667" y="240.042639" style="fill: #1f77b4; stroke: #1f77b4"/>
     <use xlink:href="#m967f63f408" x="131.92137" y="240.486611" style="fill: #1f77b4; stroke: #1f77b4"/>
     <use xlink:href="#m967f63f408" x="135.170151" y="240.519932" style="fill: #1f77b4; stroke: #1f77b4"/>
     <use xlink:href="#m967f63f408" x="138.41648" y="241.181488" style="fill: #1f77b4; stroke: #1f77b4"/>
     <use xlink:href="#m967f63f408" x="141.674246" y="240.820875" style="fill: #1f77b4; stroke: #1f77b4"/>
     <use xlink:href="#m967f63f408" x="144.940522" y="241.411049" style="fill: #1f77b4; stroke: #1f77b4"/>
     <use xlink:href="#m967f63f408" x="148.200593" y="242.156206" style="fill: #1f77b4; stroke: #1f77b4"/>
     <use xlink:href="#m967f63f408" x="151.468537" y="242.550794" style="fill: #1f77b4; stroke: #1f77b4"/>
     <use xlink:href="#m967f63f408" x="154.740701" y="242.625737" style="fill: #1f77b4; stroke: #1f77b4"/>
     <use xlink:href="#m967f63f408" x="158.22477" y="242.920517" style="fill: #1f77b4; stroke: #1f77b4"/>
     <use xlink:href="#m967f63f408" x="161.460756" y="243.135481" style="fill: #1f77b4; stroke: #1f77b4"/>
     <use xlink:href="#m967f63f408" x="164.708696" y="243.226829" style="fill: #1f77b4; stroke: #1f77b4"/>
     <use xlink:href="#m967f63f408" x="167.940342" y="243.326849" style="fill: #1f77b4; stroke: #1f77b4"/>
     <use xlink:href="#m967f63f408" x="171.175324" y="243.5115" style="fill: #1f77b4; stroke: #1f77b4"/>
     <use xlink:href="#m967f63f408" x="174.413406" y="243.847985" style="fill: #1f77b4; stroke: #1f77b4"/>
     <use xlink:href="#m967f63f408" x="177.663977" y="244.097049" style="fill: #1f77b4; stroke: #1f77b4"/>
     <use xlink:href="#m967f63f408" x="180.920076" y="243.793794" style="fill: #1f77b4; stroke: #1f77b4"/>
     <use xlink:href="#m967f63f408" x="184.154227" y="244.559149" style="fill: #1f77b4; stroke: #1f77b4"/>
     <use xlink:href="#m967f63f408" x="187.407222" y="244.448375" style="fill: #1f77b4; stroke: #1f77b4"/>
     <use xlink:href="#m967f63f408" x="190.917216" y="244.338948" style="fill: #1f77b4; stroke: #1f77b4"/>
     <use xlink:href="#m967f63f408" x="194.160695" y="244.879693" style="fill: #1f77b4; stroke: #1f77b4"/>
     <use xlink:href="#m967f63f408" x="197.402492" y="245.469963" style="fill: #1f77b4; stroke: #1f77b4"/>
     <use xlink:href="#m967f63f408" x="200.647414" y="245.119936" style="fill: #1f77b4; stroke: #1f77b4"/>
     <use xlink:href="#m967f63f408" x="203.893521" y="245.460416" style="fill: #1f77b4; stroke: #1f77b4"/>
     <use xlink:href="#m967f63f408" x="207.156083" y="245.613386" style="fill: #1f77b4; stroke: #1f77b4"/>
     <use xlink:href="#m967f63f408" x="210.405654" y="245.868169" style="fill: #1f77b4; stroke: #1f77b4"/>
     <use xlink:href="#m967f63f408" x="213.647145" y="246.240998" style="fill: #1f77b4; stroke: #1f77b4"/>
     <use xlink:href="#m967f63f408" x="216.890221" y="245.701138" style="fill: #1f77b4; stroke: #1f77b4"/>
     <use xlink:href="#m967f63f408" x="220.132411" y="245.687863" style="fill: #1f77b4; stroke: #1f77b4"/>
     <use xlink:href="#m967f63f408" x="223.621923" y="245.878752" style="fill: #1f77b4; stroke: #1f77b4"/>
     <use xlink:href="#m967f63f408" x="226.863168" y="246.524621" style="fill: #1f77b4; stroke: #1f77b4"/>
     <use xlink:href="#m967f63f408" x="230.119213" y="246.479593" style="fill: #1f77b4; stroke: #1f77b4"/>
     <use xlink:href="#m967f63f408" x="233.391696" y="246.422034" style="fill: #1f77b4; stroke: #1f77b4"/>
     <use xlink:href="#m967f63f408" x="236.663201" y="246.200679" style="fill: #1f77b4; stroke: #1f77b4"/>
     <use xlink:href="#m967f63f408" x="239.940756" y="246.855737" style="fill: #1f77b4; stroke: #1f77b4"/>
     <use xlink:href="#m967f63f408" x="243.193449" y="246.709739" style="fill: #1f77b4; stroke: #1f77b4"/>
     <use xlink:href="#m967f63f408" x="246.440237" y="246.808674" style="fill: #1f77b4; stroke: #1f77b4"/>
     <use xlink:href="#m967f63f408" x="249.682012" y="246.81115" style="fill: #1f77b4; stroke: #1f77b4"/>
     <use xlink:href="#m967f63f408" x="252.924404" y="246.95007" style="fill: #1f77b4; stroke: #1f77b4"/>
     <use xlink:href="#m967f63f408" x="256.405746" y="246.904335" style="fill: #1f77b4; stroke: #1f77b4"/>
     <use xlink:href="#m967f63f408" x="259.649282" y="247.328044" style="fill: #1f77b4; stroke: #1f77b4"/>
     <use xlink:href="#m967f63f408" x="262.880377" y="247.572457" style="fill: #1f77b4; stroke: #1f77b4"/>
     <use xlink:href="#m967f63f408" x="266.108166" y="247.594006" style="fill: #1f77b4; stroke: #1f77b4"/>
     <use xlink:href="#m967f63f408" x="269.337226" y="248.144898" style="fill: #1f77b4; stroke: #1f77b4"/>
     <use xlink:href="#m967f63f408" x="272.568517" y="247.761618" style="fill: #1f77b4; stroke: #1f77b4"/>
     <use xlink:href="#m967f63f408" x="275.837052" y="247.554811" style="fill: #1f77b4; stroke: #1f77b4"/>
     <use xlink:href="#m967f63f408" x="279.070444" y="247.782917" style="fill: #1f77b4; stroke: #1f77b4"/>
     <use xlink:href="#m967f63f408" x="282.308693" y="248.495311" style="fill: #1f77b4; stroke: #1f77b4"/>
     <use xlink:href="#m967f63f408" x="285.542851" y="247.657501" style="fill: #1f77b4; stroke: #1f77b4"/>
     <use xlink:href="#m967f63f408" x="289.017718" y="248.608641" style="fill: #1f77b4; stroke: #1f77b4"/>
     <use xlink:href="#m967f63f408" x="292.247887" y="248.422536" style="fill: #1f77b4; stroke: #1f77b4"/>
     <use xlink:href="#m967f63f408" x="295.475609" y="248.567619" style="fill: #1f77b4; stroke: #1f77b4"/>
     <use xlink:href="#m967f63f408" x="298.738837" y="248.341635" style="fill: #1f77b4; stroke: #1f77b4"/>
     <use xlink:href="#m967f63f408" x="301.965477" y="248.463217" style="fill: #1f77b4; stroke: #1f77b4"/>
     <use xlink:href="#m967f63f408" x="305.190784" y="248.301502" style="fill: #1f77b4; stroke: #1f77b4"/>
     <use xlink:href="#m967f63f408" x="308.4169" y="248.54209" style="fill: #1f77b4; stroke: #1f77b4"/>
     <use xlink:href="#m967f63f408" x="311.642231" y="248.69061" style="fill: #1f77b4; stroke: #1f77b4"/>
     <use xlink:href="#m967f63f408" x="314.868337" y="248.682461" style="fill: #1f77b4; stroke: #1f77b4"/>
     <use xlink:href="#m967f63f408" x="318.091865" y="248.90074" style="fill: #1f77b4; stroke: #1f77b4"/>
     <use xlink:href="#m967f63f408" x="321.559881" y="248.908961" style="fill: #1f77b4; stroke: #1f77b4"/>
     <use xlink:href="#m967f63f408" x="324.784438" y="248.763161" style="fill: #1f77b4; stroke: #1f77b4"/>
     <use xlink:href="#m967f63f408" x="328.018551" y="249.171882" style="fill: #1f77b4; stroke: #1f77b4"/>
     <use xlink:href="#m967f63f408" x="331.24705" y="248.875697" style="fill: #1f77b4; stroke: #1f77b4"/>
     <use xlink:href="#m967f63f408" x="334.473413" y="249.069564" style="fill: #1f77b4; stroke: #1f77b4"/>
     <use xlink:href="#m967f63f408" x="337.696993" y="249.286184" style="fill: #1f77b4; stroke: #1f77b4"/>
     <use xlink:href="#m967f63f408" x="340.924895" y="249.042288" style="fill: #1f77b4; stroke: #1f77b4"/>
     <use xlink:href="#m967f63f408" x="344.154333" y="248.840325" style="fill: #1f77b4; stroke: #1f77b4"/>
     <use xlink:href="#m967f63f408" x="347.379052" y="249.115625" style="fill: #1f77b4; stroke: #1f77b4"/>
     <use xlink:href="#m967f63f408" x="350.608659" y="249.073088" style="fill: #1f77b4; stroke: #1f77b4"/>
     <use xlink:href="#m967f63f408" x="354.072243" y="249.087168" style="fill: #1f77b4; stroke: #1f77b4"/>
     <use xlink:href="#m967f63f408" x="357.298398" y="249.423855" style="fill: #1f77b4; stroke: #1f77b4"/>
     <use xlink:href="#m967f63f408" x="360.522137" y="249.488917" style="fill: #1f77b4; stroke: #1f77b4"/>
     <use xlink:href="#m967f63f408" x="363.749277" y="249.095951" style="fill: #1f77b4; stroke: #1f77b4"/>
     <use xlink:href="#m967f63f408" x="366.99396" y="249.200343" style="fill: #1f77b4; stroke: #1f77b4"/>
     <use xlink:href="#m967f63f408" x="370.267015" y="249.323895" style="fill: #1f77b4; stroke: #1f77b4"/>
     <use xlink:href="#m967f63f408" x="373.491988" y="249.4553" style="fill: #1f77b4; stroke: #1f77b4"/>
     <use xlink:href="#m967f63f408" x="376.716527" y="249.122642" style="fill: #1f77b4; stroke: #1f77b4"/>
     <use xlink:href="#m967f63f408" x="379.943304" y="249.10636" style="fill: #1f77b4; stroke: #1f77b4"/>
     <use xlink:href="#m967f63f408" x="383.171955" y="249.635945" style="fill: #1f77b4; stroke: #1f77b4"/>
    </g>
   </g>
   <g id="line2d_30">
    <path d="M 61.89777 36.801712
L 67.032612 78.755729
L 71.918194 95.279734
L 76.70446 105.774117
L 81.339921 112.150811
L 85.896086 117.778772
L 90.364363 122.919723
L 94.877875 126.401046
L 99.343585 128.953963
L 103.739641 131.544807
L 108.715942 133.477322
L 113.032084 136.027505
L 117.307649 137.019539
L 121.566804 138.074395
L 125.817073 139.394834
L 130.081235 140.016571
L 134.328255 141.534499
L 138.558716 142.564157
L 142.773571 142.989271
L 146.986195 143.619226
L 151.845432 144.878482
L 156.083948 145.035295
L 160.299411 146.27271
L 164.530339 146.764018
L 168.730302 147.503623
L 172.948645 147.798718
L 177.166051 148.518578
L 181.376761 149.364401
L 185.575323 149.476254
L 189.75298 150.485269
L 194.547795 150.347731
L 198.735363 150.656405
L 202.931298 151.314035
L 207.12851 152.062723
L 211.31236 152.80242
L 215.497067 152.818915
L 219.675083 153.38017
L 223.867962 153.453822
L 228.069547 154.355085
L 232.260245 154.114747
L 237.066917 154.50801
L 241.257442 155.30222
L 245.436034 155.649307
L 249.617579 155.315632
L 253.791174 156.310613
L 257.998097 156.155577
L 262.178016 156.464494
L 266.359111 156.910296
L 270.524491 156.916326
L 274.705818 157.052269
L 279.504162 157.53337
L 283.674887 157.323653
L 287.850232 157.716278
L 292.025258 158.434785
L 296.204889 158.500524
L 300.374917 158.566156
L 304.542217 158.943272
L 308.713949 158.886024
L 312.887821 158.773549
L 317.068152 159.050402
L 321.854653 159.377804
L 326.032017 159.624157
L 330.203151 159.469971
L 334.371224 159.989972
L 338.54694 159.835848
L 342.713673 160.190621
L 346.896215 160.007197
L 351.066192 160.306772
L 355.241885 160.604829
L 359.426163 161.031872
L 364.226506 160.886633
L 368.403141 161.202325
L 372.578985 161.609576
L 376.742886 161.312066
L 380.904445 161.056888
L 385.065817 162.069838
L 389.234828 161.813809
L 393.405908 161.532036
L 397.572593 162.287924
L 401.738352 162.188845
L 406.514898 161.792636
L 410.682771 162.12619
L 414.839312 162.015248
L 419.001992 162.158937
L 423.164278 162.413811
L 427.331023 162.241961
L 431.489353 162.709347
L 435.660091 162.110879
L 439.828482 162.27234
L 443.990507 162.288774
L 448.791189 162.67148
L 452.961339 163.092994
L 457.133179 162.72929
L 461.298307 162.64979
L 465.461275 162.853613
L 469.630266 162.62693
L 473.801119 162.780143
L 477.963881 163.321515
L 482.122762 163.291441
L 486.281925 162.606121
" clip-path="url(#p6e5768cdc4)" style="fill: none; stroke: #ff7f0e; stroke-width: 1.4; stroke-linecap: square"/>
    <defs>
     <path id="mad1b7b22a0" d="M 0 1.25
C 0.331504 1.25 0.649475 1.118292 0.883883 0.883883
C 1.118292 0.649475 1.25 0.331504 1.25 0
C 1.25 -0.331504 1.118292 -0.649475 0.883883 -0.883883
C 0.649475 -1.118292 0.331504 -1.25 0 -1.25
C -0.331504 -1.25 -0.649475 -1.118292 -0.883883 -0.883883
C -1.118292 -0.649475 -1.25 -0.331504 -1.25 0
C -1.25 0.331504 -1.118292 0.649475 -0.883883 0.883883
C -0.649475 1.118292 -0.331504 1.25 0 1.25
z
" style="stroke: #ff7f0e"/>
    </defs>
    <g clip-path="url(#p6e5768cdc4)">
     <use xlink:href="#mad1b7b22a0" x="61.89777" y="36.801712" style="fill: #ff7f0e; stroke: #ff7f0e"/>
     <use xlink:href="#mad1b7b22a0" x="67.032612" y="78.755729" style="fill: #ff7f0e; stroke: #ff7f0e"/>
     <use xlink:href="#mad1b7b22a0" x="71.918194" y="95.279734" style="fill: #ff7f0e; stroke: #ff7f0e"/>
     <use xlink:href="#mad1b7b22a0" x="76.70446" y="105.774117" style="fill: #ff7f0e; stroke: #ff7f0e"/>
     <use xlink:href="#mad1b7b22a0" x="81.339921" y="112.150811" style="fill: #ff7f0e; stroke: #ff7f0e"/>
     <use xlink:href="#mad1b7b22a0" x="85.896086" y="117.778772" style="fill: #ff7f0e; stroke: #ff7f0e"/>
     <use xlink:href="#mad1b7b22a0" x="90.364363" y="122.919723" style="fill: #ff7f0e; stroke: #ff7f0e"/>
     <use xlink:href="#mad1b7b22a0" x="94.877875" y="126.401046" style="fill: #ff7f0e; stroke: #ff7f0e"/>
     <use xlink:href="#mad1b7b22a0" x="99.343585" y="128.953963" style="fill: #ff7f0e; stroke: #ff7f0e"/>
     <use xlink:href="#mad1b7b22a0" x="103.739641" y="131.544807" style="fill: #ff7f0e; stroke: #ff7f0e"/>
     <use xlink:href="#mad1b7b22a0" x="108.715942" y="133.477322" style="fill: #ff7f0e; stroke: #ff7f0e"/>
     <use xlink:href="#mad1b7b22a0" x="113.032084" y="136.027505" style="fill: #ff7f0e; stroke: #ff7f0e"/>
     <use xlink:href="#mad1b7b22a0" x="117.307649" y="137.019539" style="fill: #ff7f0e; stroke: #ff7f0e"/>
     <use xlink:href="#mad1b7b22a0" x="121.566804" y="138.074395" style="fill: #ff7f0e; stroke: #ff7f0e"/>
     <use xlink:href="#mad1b7b22a0" x="125.817073" y="139.394834" style="fill: #ff7f0e; stroke: #ff7f0e"/>
     <use xlink:href="#mad1b7b22a0" x="130.081235" y="140.016571" style="fill: #ff7f0e; stroke: #ff7f0e"/>
     <use xlink:href="#mad1b7b22a0" x="134.328255" y="141.534499" style="fill: #ff7f0e; stroke: #ff7f0e"/>
     <use xlink:href="#mad1b7b22a0" x="138.558716" y="142.564157" style="fill: #ff7f0e; stroke: #ff7f0e"/>
     <use xlink:href="#mad1b7b22a0" x="142.773571" y="142.989271" style="fill: #ff7f0e; stroke: #ff7f0e"/>
     <use xlink:href="#mad1b7b22a0" x="146.986195" y="143.619226" style="fill: #ff7f0e; stroke: #ff7f0e"/>
     <use xlink:href="#mad1b7b22a0" x="151.845432" y="144.878482" style="fill: #ff7f0e; stroke: #ff7f0e"/>
     <use xlink:href="#mad1b7b22a0" x="156.083948" y="145.035295" style="fill: #ff7f0e; stroke: #ff7f0e"/>
     <use xlink:href="#mad1b7b22a0" x="160.299411" y="146.27271" style="fill: #ff7f0e; stroke: #ff7f0e"/>
     <use xlink:href="#mad1b7b22a0" x="164.530339" y="146.764018" style="fill: #ff7f0e; stroke: #ff7f0e"/>
     <use xlink:href="#mad1b7b22a0" x="168.730302" y="147.503623" style="fill: #ff7f0e; stroke: #ff7f0e"/>
     <use xlink:href="#mad1b7b22a0" x="172.948645" y="147.798718" style="fill: #ff7f0e; stroke: #ff7f0e"/>
     <use xlink:href="#mad1b7b22a0" x="177.166051" y="148.518578" style="fill: #ff7f0e; stroke: #ff7f0e"/>
     <use xlink:href="#mad1b7b22a0" x="181.376761" y="149.364401" style="fill: #ff7f0e; stroke: #ff7f0e"/>
     <use xlink:href="#mad1b7b22a0" x="185.575323" y="149.476254" style="fill: #ff7f0e; stroke: #ff7f0e"/>
     <use xlink:href="#mad1b7b22a0" x="189.75298" y="150.485269" style="fill: #ff7f0e; stroke: #ff7f0e"/>
     <use xlink:href="#mad1b7b22a0" x="194.547795" y="150.347731" style="fill: #ff7f0e; stroke: #ff7f0e"/>
     <use xlink:href="#mad1b7b22a0" x="198.735363" y="150.656405" style="fill: #ff7f0e; stroke: #ff7f0e"/>
     <use xlink:href="#mad1b7b22a0" x="202.931298" y="151.314035" style="fill: #ff7f0e; stroke: #ff7f0e"/>
     <use xlink:href="#mad1b7b22a0" x="207.12851" y="152.062723" style="fill: #ff7f0e; stroke: #ff7f0e"/>
     <use xlink:href="#mad1b7b22a0" x="211.31236" y="152.80242" style="fill: #ff7f0e; stroke: #ff7f0e"/>
     <use xlink:href="#mad1b7b22a0" x="215.497067" y="152.818915" style="fill: #ff7f0e; stroke: #ff7f0e"/>
     <use xlink:href="#mad1b7b22a0" x="219.675083" y="153.38017" style="fill: #ff7f0e; stroke: #ff7f0e"/>
     <use xlink:href="#mad1b7b22a0" x="223.867962" y="153.453822" style="fill: #ff7f0e; stroke: #ff7f0e"/>
     <use xlink:href="#mad1b7b22a0" x="228.069547" y="154.355085" style="fill: #ff7f0e; stroke: #ff7f0e"/>
     <use xlink:href="#mad1b7b22a0" x="232.260245" y="154.114747" style="fill: #ff7f0e; stroke: #ff7f0e"/>
     <use xlink:href="#mad1b7b22a0" x="237.066917" y="154.50801" style="fill: #ff7f0e; stroke: #ff7f0e"/>
     <use xlink:href="#mad1b7b22a0" x="241.257442" y="155.30222" style="fill: #ff7f0e; stroke: #ff7f0e"/>
     <use xlink:href="#mad1b7b22a0" x="245.436034" y="155.649307" style="fill: #ff7f0e; stroke: #ff7f0e"/>
     <use xlink:href="#mad1b7b22a0" x="249.617579" y="155.315632" style="fill: #ff7f0e; stroke: #ff7f0e"/>
     <use xlink:href="#mad1b7b22a0" x="253.791174" y="156.310613" style="fill: #ff7f0e; stroke: #ff7f0e"/>
     <use xlink:href="#mad1b7b22a0" x="257.998097" y="156.155577" style="fill: #ff7f0e; stroke: #ff7f0e"/>
     <use xlink:href="#mad1b7b22a0" x="262.178016" y="156.464494" style="fill: #ff7f0e; stroke: #ff7f0e"/>
     <use xlink:href="#mad1b7b22a0" x="266.359111" y="156.910296" style="fill: #ff7f0e; stroke: #ff7f0e"/>
     <use xlink:href="#mad1b7b22a0" x="270.524491" y="156.916326" style="fill: #ff7f0e; stroke: #ff7f0e"/>
     <use xlink:href="#mad1b7b22a0" x="274.705818" y="157.052269" style="fill: #ff7f0e; stroke: #ff7f0e"/>
     <use xlink:href="#mad1b7b22a0" x="279.504162" y="157.53337" style="fill: #ff7f0e; stroke: #ff7f0e"/>
     <use xlink:href="#mad1b7b22a0" x="283.674887" y="157.323653" style="fill: #ff7f0e; stroke: #ff7f0e"/>
     <use xlink:href="#mad1b7b22a0" x="287.850232" y="157.716278" style="fill: #ff7f0e; stroke: #ff7f0e"/>
     <use xlink:href="#mad1b7b22a0" x="292.025258" y="158.434785" style="fill: #ff7f0e; stroke: #ff7f0e"/>
     <use xlink:href="#mad1b7b22a0" x="296.204889" y="158.500524" style="fill: #ff7f0e; stroke: #ff7f0e"/>
     <use xlink:href="#mad1b7b22a0" x="300.374917" y="158.566156" style="fill: #ff7f0e; stroke: #ff7f0e"/>
     <use xlink:href="#mad1b7b22a0" x="304.542217" y="158.943272" style="fill: #ff7f0e; stroke: #ff7f0e"/>
     <use xlink:href="#mad1b7b22a0" x="308.713949" y="158.886024" style="fill: #ff7f0e; stroke: #ff7f0e"/>
     <use xlink:href="#mad1b7b22a0" x="312.887821" y="158.773549" style="fill: #ff7f0e; stroke: #ff7f0e"/>
     <use xlink:href="#mad1b7b22a0" x="317.068152" y="159.050402" style="fill: #ff7f0e; stroke: #ff7f0e"/>
     <use xlink:href="#mad1b7b22a0" x="321.854653" y="159.377804" style="fill: #ff7f0e; stroke: #ff7f0e"/>
     <use xlink:href="#mad1b7b22a0" x="326.032017" y="159.624157" style="fill: #ff7f0e; stroke: #ff7f0e"/>
     <use xlink:href="#mad1b7b22a0" x="330.203151" y="159.469971" style="fill: #ff7f0e; stroke: #ff7f0e"/>
     <use xlink:href="#mad1b7b22a0" x="334.371224" y="159.989972" style="fill: #ff7f0e; stroke: #ff7f0e"/>
     <use xlink:href="#mad1b7b22a0" x="338.54694" y="159.835848" style="fill: #ff7f0e; stroke: #ff7f0e"/>
     <use xlink:href="#mad1b7b22a0" x="342.713673" y="160.190621" style="fill: #ff7f0e; stroke: #ff7f0e"/>
     <use xlink:href="#mad1b7b22a0" x="346.896215" y="160.007197" style="fill: #ff7f0e; stroke: #ff7f0e"/>
     <use xlink:href="#mad1b7b22a0" x="351.066192" y="160.306772" style="fill: #ff7f0e; stroke: #ff7f0e"/>
     <use xlink:href="#mad1b7b22a0" x="355.241885" y="160.604829" style="fill: #ff7f0e; stroke: #ff7f0e"/>
     <use xlink:href="#mad1b7b22a0" x="359.426163" y="161.031872" style="fill: #ff7f0e; stroke: #ff7f0e"/>
     <use xlink:href="#mad1b7b22a0" x="364.226506" y="160.886633" style="fill: #ff7f0e; stroke: #ff7f0e"/>
     <use xlink:href="#mad1b7b22a0" x="368.403141" y="161.202325" style="fill: #ff7f0e; stroke: #ff7f0e"/>
     <use xlink:href="#mad1b7b22a0" x="372.578985" y="161.609576" style="fill: #ff7f0e; stroke: #ff7f0e"/>
     <use xlink:href="#mad1b7b22a0" x="376.742886" y="161.312066" style="fill: #ff7f0e; stroke: #ff7f0e"/>
     <use xlink:href="#mad1b7b22a0" x="380.904445" y="161.056888" style="fill: #ff7f0e; stroke: #ff7f0e"/>
     <use xlink:href="#mad1b7b22a0" x="385.065817" y="162.069838" style="fill: #ff7f0e; stroke: #ff7f0e"/>
     <use xlink:href="#mad1b7b22a0" x="389.234828" y="161.813809" style="fill: #ff7f0e; stroke: #ff7f0e"/>
     <use xlink:href="#mad1b7b22a0" x="393.405908" y="161.532036" style="fill: #ff7f0e; stroke: #ff7f0e"/>
     <use xlink:href="#mad1b7b22a0" x="397.572593" y="162.287924" style="fill: #ff7f0e; stroke: #ff7f0e"/>
     <use xlink:href="#mad1b7b22a0" x="401.738352" y="162.188845" style="fill: #ff7f0e; stroke: #ff7f0e"/>
     <use xlink:href="#mad1b7b22a0" x="406.514898" y="161.792636" style="fill: #ff7f0e; stroke: #ff7f0e"/>
     <use xlink:href="#mad1b7b22a0" x="410.682771" y="162.12619" style="fill: #ff7f0e; stroke: #ff7f0e"/>
     <use xlink:href="#mad1b7b22a0" x="414.839312" y="162.015248" style="fill: #ff7f0e; stroke: #ff7f0e"/>
     <use xlink:href="#mad1b7b22a0" x="419.001992" y="162.158937" style="fill: #ff7f0e; stroke: #ff7f0e"/>
     <use xlink:href="#mad1b7b22a0" x="423.164278" y="162.413811" style="fill: #ff7f0e; stroke: #ff7f0e"/>
     <use xlink:href="#mad1b7b22a0" x="427.331023" y="162.241961" style="fill: #ff7f0e; stroke: #ff7f0e"/>
     <use xlink:href="#mad1b7b22a0" x="431.489353" y="162.709347" style="fill: #ff7f0e; stroke: #ff7f0e"/>
     <use xlink:href="#mad1b7b22a0" x="435.660091" y="162.110879" style="fill: #ff7f0e; stroke: #ff7f0e"/>
     <use xlink:href="#mad1b7b22a0" x="439.828482" y="162.27234" style="fill: #ff7f0e; stroke: #ff7f0e"/>
     <use xlink:href="#mad1b7b22a0" x="443.990507" y="162.288774" style="fill: #ff7f0e; stroke: #ff7f0e"/>
     <use xlink:href="#mad1b7b22a0" x="448.791189" y="162.67148" style="fill: #ff7f0e; stroke: #ff7f0e"/>
     <use xlink:href="#mad1b7b22a0" x="452.961339" y="163.092994" style="fill: #ff7f0e; stroke: #ff7f0e"/>
     <use xlink:href="#mad1b7b22a0" x="457.133179" y="162.72929" style="fill: #ff7f0e; stroke: #ff7f0e"/>
     <use xlink:href="#mad1b7b22a0" x="461.298307" y="162.64979" style="fill: #ff7f0e; stroke: #ff7f0e"/>
     <use xlink:href="#mad1b7b22a0" x="465.461275" y="162.853613" style="fill: #ff7f0e; stroke: #ff7f0e"/>
     <use xlink:href="#mad1b7b22a0" x="469.630266" y="162.62693" style="fill: #ff7f0e; stroke: #ff7f0e"/>
     <use xlink:href="#mad1b7b22a0" x="473.801119" y="162.780143" style="fill: #ff7f0e; stroke: #ff7f0e"/>
     <use xlink:href="#mad1b7b22a0" x="477.963881" y="163.321515" style="fill: #ff7f0e; stroke: #ff7f0e"/>
     <use xlink:href="#mad1b7b22a0" x="482.122762" y="163.291441" style="fill: #ff7f0e; stroke: #ff7f0e"/>
     <use xlink:href="#mad1b7b22a0" x="486.281925" y="162.606121" style="fill: #ff7f0e; stroke: #ff7f0e"/>
    </g>
   </g>
   <g id="patch_3">
    <path d="M 38.602344 260.277656
L 38.602344 26.16
" style="fill: none; stroke: #000000; stroke-width: 0.8; stroke-linejoin: miter; stroke-linecap: square"/>
   </g>
   <g id="patch_4">
    <path d="M 507.6 260.277656
L 507.6 26.16
" style="fill: none; stroke: #000000; stroke-width: 0.8; stroke-linejoin: miter; stroke-linecap: square"/>
   </g>
   <g id="patch_5">
    <path d="M 38.602344 260.277656
L 507.6 260.277656
" style="fill: none; stroke: #000000; stroke-width: 0.8; stroke-linejoin: miter; stroke-linecap: square"/>
   </g>
   <g id="patch_6">
    <path d="M 38.602344 26.16
L 507.6 26.16
" style="fill: none; stroke: #000000; stroke-width: 0.8; stroke-linejoin: miter; stroke-linecap: square"/>
   </g>
   <g id="text_17">
    <!-- Main training runs by wall-clock time -->
    <g transform="translate(162.394609 20.16) scale(0.12 -0.12)">
     <defs>
      <path id="DejaVuSans-30" d="M 628 4666
L 1569 4666
L 2759 1491
L 3956 4666
L 4897 4666
L 4897 0
L 4281 0
L 4281 4097
L 3078 897
L 2444 897
L 1241 4097
L 1241 0
L 628 0
L 628 4666
z
" transform="scale(0.015625)"/>
      <path id="DejaVuSans-55" d="M 2631 2963
Q 2534 3019 2420 3045
Q 2306 3072 2169 3072
Q 1681 3072 1420 2755
Q 1159 2438 1159 1844
L 1159 0
L 581 0
L 581 3500
L 1159 3500
L 1159 2956
Q 1341 3275 1631 3429
Q 1922 3584 2338 3584
Q 2397 3584 2469 3576
Q 2541 3569 2628 3553
L 2631 2963
z
" transform="scale(0.015625)"/>
      <path id="DejaVuSans-4a" d="M 2906 1791
Q 2906 2416 2648 2759
Q 2391 3103 1925 3103
Q 1463 3103 1205 2759
Q 947 2416 947 1791
Q 947 1169 1205 825
Q 1463 481 1925 481
Q 2391 481 2648 825
Q 2906 1169 2906 1791
z
M 3481 434
Q 3481 -459 3084 -895
Q 2688 -1331 1869 -1331
Q 1566 -1331 1297 -1286
Q 1028 -1241 775 -1147
L 775 -588
Q 1028 -725 1275 -790
Q 1522 -856 1778 -856
Q 2344 -856 2625 -561
Q 2906 -266 2906 331
L 2906 616
Q 2728 306 2450 153
Q 2172 0 1784 0
Q 1141 0 747 490
Q 353 981 353 1791
Q 353 2603 747 3093
Q 1141 3584 1784 3584
Q 2172 3584 2450 3431
Q 2728 3278 2906 2969
L 2906 3500
L 3481 3500
L 3481 434
z
" transform="scale(0.015625)"/>
      <path id="DejaVuSans-58" d="M 544 1381
L 544 3500
L 1119 3500
L 1119 1403
Q 1119 906 1312 657
Q 1506 409 1894 409
Q 2359 409 2629 706
Q 2900 1003 2900 1516
L 2900 3500
L 3475 3500
L 3475 0
L 2900 0
L 2900 538
Q 2691 219 2414 64
Q 2138 -91 1772 -91
Q 1169 -91 856 284
Q 544 659 544 1381
z
M 1991 3584
L 1991 3584
z
" transform="scale(0.015625)"/>
      <path id="DejaVuSans-45" d="M 3116 1747
Q 3116 2381 2855 2742
Q 2594 3103 2138 3103
Q 1681 3103 1420 2742
Q 1159 2381 1159 1747
Q 1159 1113 1420 752
Q 1681 391 2138 391
Q 2594 391 2855 752
Q 3116 1113 3116 1747
z
M 1159 2969
Q 1341 3281 1617 3432
Q 1894 3584 2278 3584
Q 2916 3584 3314 3078
Q 3713 2572 3713 1747
Q 3713 922 3314 415
Q 2916 -91 2278 -91
Q 1894 -91 1617 61
Q 1341 213 1159 525
L 1159 0
L 581 0
L 581 4863
L 1159 4863
L 1159 2969
z
" transform="scale(0.015625)"/>
      <path id="DejaVuSans-5c" d="M 2059 -325
Q 1816 -950 1584 -1140
Q 1353 -1331 966 -1331
L 506 -1331
L 506 -850
L 844 -850
Q 1081 -850 1212 -737
Q 1344 -625 1503 -206
L 1606 56
L 191 3500
L 800 3500
L 1894 763
L 2988 3500
L 3597 3500
L 2059 -325
z
" transform="scale(0.015625)"/>
      <path id="DejaVuSans-5a" d="M 269 3500
L 844 3500
L 1563 769
L 2278 3500
L 2956 3500
L 3675 769
L 4391 3500
L 4966 3500
L 4050 0
L 3372 0
L 2619 2869
L 1863 0
L 1184 0
L 269 3500
z
" transform="scale(0.015625)"/>
     </defs>
     <use xlink:href="#DejaVuSans-30"/>
     <use xlink:href="#DejaVuSans-44" transform="translate(86.28125 0)"/>
     <use xlink:href="#DejaVuSans-4c" transform="translate(147.5625 0)"/>
     <use xlink:href="#DejaVuSans-51" transform="translate(175.34375 0)"/>
     <use xlink:href="#DejaVuSans-3" transform="translate(238.71875 0)"/>
     <use xlink:href="#DejaVuSans-57" transform="translate(270.5 0)"/>
     <use xlink:href="#DejaVuSans-55" transform="translate(309.703125 0)"/>
     <use xlink:href="#DejaVuSans-44" transform="translate(350.8125 0)"/>
     <use xlink:href="#DejaVuSans-4c" transform="translate(412.09375 0)"/>
     <use xlink:href="#DejaVuSans-51" transform="translate(439.875 0)"/>
     <use xlink:href="#DejaVuSans-4c" transform="translate(503.25 0)"/>
     <use xlink:href="#DejaVuSans-51" transform="translate(531.03125 0)"/>
     <use xlink:href="#DejaVuSans-4a" transform="translate(594.40625 0)"/>
     <use xlink:href="#DejaVuSans-3" transform="translate(657.890625 0)"/>
     <use xlink:href="#DejaVuSans-55" transform="translate(689.671875 0)"/>
     <use xlink:href="#DejaVuSans-58" transform="translate(730.78125 0)"/>
     <use xlink:href="#DejaVuSans-51" transform="translate(794.15625 0)"/>
     <use xlink:href="#DejaVuSans-56" transform="translate(857.53125 0)"/>
     <use xlink:href="#DejaVuSans-3" transform="translate(909.625 0)"/>
     <use xlink:href="#DejaVuSans-45" transform="translate(941.40625 0)"/>
     <use xlink:href="#DejaVuSans-5c" transform="translate(1004.890625 0)"/>
     <use xlink:href="#DejaVuSans-3" transform="translate(1064.078125 0)"/>
     <use xlink:href="#DejaVuSans-5a" transform="translate(1095.859375 0)"/>
     <use xlink:href="#DejaVuSans-44" transform="translate(1177.640625 0)"/>
     <use xlink:href="#DejaVuSans-4f" transform="translate(1238.921875 0)"/>
     <use xlink:href="#DejaVuSans-4f" transform="translate(1266.703125 0)"/>
     <use xlink:href="#DejaVuSans-10" transform="translate(1294.484375 0)"/>
     <use xlink:href="#DejaVuSans-46" transform="translate(1330.5625 0)"/>
     <use xlink:href="#DejaVuSans-4f" transform="translate(1385.546875 0)"/>
     <use xlink:href="#DejaVuSans-52" transform="translate(1413.328125 0)"/>
     <use xlink:href="#DejaVuSans-46" transform="translate(1474.515625 0)"/>
     <use xlink:href="#DejaVuSans-4e" transform="translate(1529.5 0)"/>
     <use xlink:href="#DejaVuSans-3" transform="translate(1587.40625 0)"/>
     <use xlink:href="#DejaVuSans-57" transform="translate(1619.1875 0)"/>
     <use xlink:href="#DejaVuSans-4c" transform="translate(1658.390625 0)"/>
     <use xlink:href="#DejaVuSans-50" transform="translate(1686.171875 0)"/>
     <use xlink:href="#DejaVuSans-48" transform="translate(1783.578125 0)"/>
    </g>
   </g>
   <g id="legend_1">
    <g id="patch_7">
     <path d="M 421.4075 56.56125
L 502 56.56125
Q 503.6 56.56125 503.6 54.96125
L 503.6 31.76
Q 503.6 30.16 502 30.16
L 421.4075 30.16
Q 419.8075 30.16 419.8075 31.76
L 419.8075 54.96125
Q 419.8075 56.56125 421.4075 56.56125
z
" style="fill: #ffffff; opacity: 0.8; stroke: #cccccc; stroke-linejoin: miter"/>
    </g>
    <g id="line2d_31">
     <path d="M 423.0075 36.63875
L 431.0075 36.63875
L 439.0075 36.63875
" style="fill: none; stroke: #1f77b4; stroke-width: 1.4; stroke-linecap: square"/>
     <g>
      <use xlink:href="#m967f63f408" x="431.0075" y="36.63875" style="fill: #1f77b4; stroke: #1f77b4"/>
     </g>
    </g>
    <g id="text_18">
     <!-- TinyStories -->
     <g transform="translate(445.4075 39.43875) scale(0.08 -0.08)">
      <defs>
       <path id="DejaVuSans-37" d="M -19 4666
L 3928 4666
L 3928 4134
L 2272 4134
L 2272 0
L 1638 0
L 1638 4134
L -19 4134
L -19 4666
z
" transform="scale(0.015625)"/>
       <path id="DejaVuSans-36" d="M 3425 4513
L 3425 3897
Q 3066 4069 2747 4153
Q 2428 4238 2131 4238
Q 1616 4238 1336 4038
Q 1056 3838 1056 3469
Q 1056 3159 1242 3001
Q 1428 2844 1947 2747
L 2328 2669
Q 3034 2534 3370 2195
Q 3706 1856 3706 1288
Q 3706 609 3251 259
Q 2797 -91 1919 -91
Q 1588 -91 1214 -16
Q 841 59 441 206
L 441 856
Q 825 641 1194 531
Q 1563 422 1919 422
Q 2459 422 2753 634
Q 3047 847 3047 1241
Q 3047 1584 2836 1778
Q 2625 1972 2144 2069
L 1759 2144
Q 1053 2284 737 2584
Q 422 2884 422 3419
Q 422 4038 858 4394
Q 1294 4750 2059 4750
Q 2388 4750 2728 4690
Q 3069 4631 3425 4513
z
" transform="scale(0.015625)"/>
      </defs>
      <use xlink:href="#DejaVuSans-37"/>
      <use xlink:href="#DejaVuSans-4c" transform="translate(58 0)"/>
      <use xlink:href="#DejaVuSans-51" transform="translate(85.78125 0)"/>
      <use xlink:href="#DejaVuSans-5c" transform="translate(149.15625 0)"/>
      <use xlink:href="#DejaVuSans-36" transform="translate(208.34375 0)"/>
      <use xlink:href="#DejaVuSans-57" transform="translate(271.828125 0)"/>
      <use xlink:href="#DejaVuSans-52" transform="translate(311.03125 0)"/>
      <use xlink:href="#DejaVuSans-55" transform="translate(372.21875 0)"/>
      <use xlink:href="#DejaVuSans-4c" transform="translate(413.328125 0)"/>
      <use xlink:href="#DejaVuSans-48" transform="translate(441.109375 0)"/>
      <use xlink:href="#DejaVuSans-56" transform="translate(502.640625 0)"/>
     </g>
    </g>
    <g id="line2d_32">
     <path d="M 423.0075 48.639375
L 431.0075 48.639375
L 439.0075 48.639375
" style="fill: none; stroke: #ff7f0e; stroke-width: 1.4; stroke-linecap: square"/>
     <g>
      <use xlink:href="#mad1b7b22a0" x="431.0075" y="48.639375" style="fill: #ff7f0e; stroke: #ff7f0e"/>
     </g>
    </g>
    <g id="text_19">
     <!-- OpenWebText -->
     <g transform="translate(445.4075 51.439375) scale(0.08 -0.08)">
      <defs>
       <path id="DejaVuSans-32" d="M 2522 4238
Q 1834 4238 1429 3725
Q 1025 3213 1025 2328
Q 1025 1447 1429 934
Q 1834 422 2522 422
Q 3209 422 3611 934
Q 4013 1447 4013 2328
Q 4013 3213 3611 3725
Q 3209 4238 2522 4238
z
M 2522 4750
Q 3503 4750 4090 4092
Q 4678 3434 4678 2328
Q 4678 1225 4090 567
Q 3503 -91 2522 -91
Q 1538 -91 948 565
Q 359 1222 359 2328
Q 359 3434 948 4092
Q 1538 4750 2522 4750
z
" transform="scale(0.015625)"/>
       <path id="DejaVuSans-53" d="M 1159 525
L 1159 -1331
L 581 -1331
L 581 3500
L 1159 3500
L 1159 2969
Q 1341 3281 1617 3432
Q 1894 3584 2278 3584
Q 2916 3584 3314 3078
Q 3713 2572 3713 1747
Q 3713 922 3314 415
Q 2916 -91 2278 -91
Q 1894 -91 1617 61
Q 1341 213 1159 525
z
M 3116 1747
Q 3116 2381 2855 2742
Q 2594 3103 2138 3103
Q 1681 3103 1420 2742
Q 1159 2381 1159 1747
Q 1159 1113 1420 752
Q 1681 391 2138 391
Q 2594 391 2855 752
Q 3116 1113 3116 1747
z
" transform="scale(0.015625)"/>
       <path id="DejaVuSans-5b" d="M 3513 3500
L 2247 1797
L 3578 0
L 2900 0
L 1881 1375
L 863 0
L 184 0
L 1544 1831
L 300 3500
L 978 3500
L 1906 2253
L 2834 3500
L 3513 3500
z
" transform="scale(0.015625)"/>
      </defs>
      <use xlink:href="#DejaVuSans-32"/>
      <use xlink:href="#DejaVuSans-53" transform="translate(78.71875 0)"/>
      <use xlink:href="#DejaVuSans-48" transform="translate(142.203125 0)"/>
      <use xlink:href="#DejaVuSans-51" transform="translate(203.734375 0)"/>
      <use xlink:href="#DejaVuSans-3a" transform="translate(267.109375 0)"/>
      <use xlink:href="#DejaVuSans-48" transform="translate(360.125 0)"/>
      <use xlink:href="#DejaVuSans-45" transform="translate(421.65625 0)"/>
      <use xlink:href="#DejaVuSans-37" transform="translate(485.140625 0)"/>
      <use xlink:href="#DejaVuSans-48" transform="translate(529.234375 0)"/>
      <use xlink:href="#DejaVuSans-5b" transform="translate(589.015625 0)"/>
      <use xlink:href="#DejaVuSans-57" transform="translate(648.203125 0)"/>
     </g>
    </g>
   </g>
  </g>
 </g>
 <defs>
  <clipPath id="p6e5768cdc4">
   <rect x="38.602344" y="26.16" width="468.997656" height="234.117656"/>
  </clipPath>
 </defs>
</svg>
