<svg xmlns="http://www.w3.org/2000/svg" width="900" height="350" viewBox="0 0 900 350"><rect width="100%" height="100%" fill="#f6f1e7"/><text x="25" y="32" font-size="22" font-family="serif">FlashAttention forward latency</text><text x="25" y="55" font-size="12">p50 latency (ms), head_dim=64</text><line x1="50" y1="295" x2="875" y2="295" stroke="#263238"/><rect x="70" y="292.0" width="65" height="3.0" fill="#087e8b"/><text x="102" y="320" text-anchor="middle" font-size="11">eag-512</text><text x="102" y="285.0" text-anchor="middle" font-size="11">0.03</text><rect x="170" y="293.5" width="65" height="1.5" fill="#087e8b"/><text x="202" y="320" text-anchor="middle" font-size="11">com-512</text><text x="202" y="286.5" text-anchor="middle" font-size="11">0.01</text><rect x="270" y="293.3" width="65" height="1.7" fill="#087e8b"/><text x="302" y="320" text-anchor="middle" font-size="11">tri-512</text><text x="302" y="286.3" text-anchor="middle" font-size="11">0.02</text><rect x="370" y="285.9" width="65" height="9.1" fill="#087e8b"/><text x="402" y="320" text-anchor="middle" font-size="11">eag-2048</text><text x="402" y="278.9" text-anchor="middle" font-size="11">0.08</text><rect x="470" y="290.1" width="65" height="4.9" fill="#087e8b"/><text x="502" y="320" text-anchor="middle" font-size="11">com-2048</text><text x="502" y="283.1" text-anchor="middle" font-size="11">0.04</text><rect x="570" y="289.4" width="65" height="5.6" fill="#087e8b"/><text x="602" y="320" text-anchor="middle" font-size="11">tri-2048</text><text x="602" y="282.4" text-anchor="middle" font-size="11">0.05</text><rect x="670" y="103.7" width="65" height="191.3" fill="#087e8b"/><text x="702" y="320" text-anchor="middle" font-size="11">eag-8192</text><text x="702" y="96.7" text-anchor="middle" font-size="11">1.68</text><rect x="770" y="227.1" width="65" height="67.9" fill="#087e8b"/><text x="802" y="320" text-anchor="middle" font-size="11">com-8192</text><text x="802" y="220.1" text-anchor="middle" font-size="11">0.60</text><rect x="870" y="273.6" width="65" height="21.4" fill="#087e8b"/><text x="902" y="320" text-anchor="middle" font-size="11">tri-8192</text><text x="902" y="266.6" text-anchor="middle" font-size="11">0.19</text></svg>