<svg xmlns="http://www.w3.org/2000/svg" width="760" height="420" viewBox="0 0 760 420">
<rect width="100%" height="100%" fill="white"/>
<line x1="64" y1="350" x2="736" y2="350" stroke="#111827"/>
<line x1="64" y1="34" x2="64" y2="350" stroke="#111827"/>
<line x1="64" y1="350.0" x2="736" y2="350.0" stroke="#e5e7eb"/>
<text x="54" y="354.0" text-anchor="end" font-family="Arial" font-size="12" fill="#374151">3.4</text>
<line x1="64" y1="286.8" x2="736" y2="286.8" stroke="#e5e7eb"/>
<text x="54" y="290.8" text-anchor="end" font-family="Arial" font-size="12" fill="#374151">8.6</text>
<line x1="64" y1="223.6" x2="736" y2="223.6" stroke="#e5e7eb"/>
<text x="54" y="227.6" text-anchor="end" font-family="Arial" font-size="12" fill="#374151">13.8</text>
<line x1="64" y1="160.4" x2="736" y2="160.4" stroke="#e5e7eb"/>
<text x="54" y="164.4" text-anchor="end" font-family="Arial" font-size="12" fill="#374151">18.9</text>
<line x1="64" y1="97.2" x2="736" y2="97.2" stroke="#e5e7eb"/>
<text x="54" y="101.2" text-anchor="end" font-family="Arial" font-size="12" fill="#374151">24.1</text>
<line x1="64" y1="34.0" x2="736" y2="34.0" stroke="#e5e7eb"/>
<text x="54" y="38.0" text-anchor="end" font-family="Arial" font-size="12" fill="#374151">29.3</text>
<text x="64.0" y="372" text-anchor="middle" font-family="Arial" font-size="12" fill="#374151">0</text>
<text x="232.0" y="372" text-anchor="middle" font-family="Arial" font-size="12" fill="#374151">30</text>
<text x="400.0" y="372" text-anchor="middle" font-family="Arial" font-size="12" fill="#374151">60</text>
<text x="568.0" y="372" text-anchor="middle" font-family="Arial" font-size="12" fill="#374151">90</text>
<text x="736.0" y="372" text-anchor="middle" font-family="Arial" font-size="12" fill="#374151">120</text>
<polyline fill="none" stroke="#2563eb" stroke-width="2" points="69.6,306.9 75.2,306.8 80.8,307.4 86.4,308.3 92.0,309.8 97.6,310.8 103.2,312.4 108.8,313.8 114.4,315.5 120.0,317.3 125.6,318.8 131.2,320.0 136.8,321.2 142.4,321.9 148.0,321.9 153.6,322.4 159.2,323.8 164.8,322.7 170.4,322.8 176.0,323.8 181.6,322.9 187.2,326.4 192.8,324.8 198.4,325.6 204.0,325.9 209.6,327.2 215.2,328.0 220.8,328.8 226.4,329.7 232.0,330.6 237.6,331.4 243.2,332.8 248.8,331.7 254.4,333.1 260.0,332.7 265.6,333.6 271.2,335.0 276.8,335.4 282.4,335.8 288.0,336.8 293.6,337.0 299.2,336.3 304.8,337.5 310.4,337.5 316.0,338.3 321.6,338.4 327.2,339.4 332.8,339.9 338.4,339.6 344.0,340.2 349.6,339.8 355.2,340.9 360.8,340.6 366.4,341.5 372.0,341.4 377.6,341.5 383.2,342.5 388.8,342.9 394.4,341.9 400.0,343.7 405.6,343.3 411.2,343.1 416.8,344.6 422.4,342.8 428.0,343.2 433.6,343.3 439.2,343.1 444.8,343.6 450.4,344.3 456.0,343.8 461.6,344.7 467.2,343.7 472.8,344.7 478.4,344.3 484.0,345.6 489.6,345.1 495.2,345.4 500.8,345.0 506.4,345.6 512.0,345.3 517.6,346.4 523.2,347.1 528.8,346.1 534.4,345.7 540.0,345.3 545.6,346.0 551.2,345.7 556.8,345.9 562.4,347.0 568.0,347.6 573.6,347.3 579.2,347.3 584.8,347.8 590.4,346.4 596.0,347.0 601.6,347.5 607.2,346.9 612.8,347.2 618.4,347.4 624.0,346.7 629.6,346.6 635.2,347.6 640.8,347.3 646.4,347.4 652.0,348.2 657.6,347.3 663.2,347.9 668.8,347.8 674.4,348.0 680.0,347.5 685.6,347.2 691.2,348.3 696.8,348.7 702.4,348.1 708.0,348.3 713.6,348.5 719.2,349.0 724.8,347.2 730.4,349.1 736.0,348.4"/>
<circle cx="69.6" cy="306.8" r="3.5" fill="white" stroke="#2563eb" stroke-width="2"/>
<circle cx="232.0" cy="331.1" r="3.5" fill="white" stroke="#2563eb" stroke-width="2"/>
<circle cx="400.0" cy="342.7" r="3.5" fill="white" stroke="#2563eb" stroke-width="2"/>
<circle cx="568.0" cy="346.0" r="3.5" fill="white" stroke="#2563eb" stroke-width="2"/>
<circle cx="736.0" cy="347.7" r="3.5" fill="white" stroke="#2563eb" stroke-width="2"/>
<polyline fill="none" stroke="#dc2626" stroke-width="2" points="69.6,309.5 75.2,309.6 80.8,309.8 86.4,310.2 92.0,310.9 97.6,311.9 103.2,313.5 108.8,314.5 114.4,316.0 120.0,317.2 125.6,318.5 131.2,319.2 136.8,319.0 142.4,318.8 148.0,319.2 153.6,319.3 159.2,319.5 164.8,319.5 170.4,319.6 176.0,319.5 181.6,319.8 187.2,319.8 192.8,319.5 198.4,319.5 204.0,319.5 209.6,320.2 215.2,320.3 220.8,320.7 226.4,320.0 232.0,320.8 237.6,320.1 243.2,320.3 248.8,320.3 254.4,321.4 260.0,320.1 265.6,321.1 271.2,320.3 276.8,320.8 282.4,320.8 288.0,321.9 293.6,321.3 299.2,320.6 304.8,321.5 310.4,321.3 316.0,320.3 321.6,321.0 327.2,320.9 332.8,321.8 338.4,321.0 344.0,320.0 349.6,321.6 355.2,321.4 360.8,321.1 366.4,321.2 372.0,321.6 377.6,320.7 383.2,321.0 388.8,321.6 394.4,321.5 400.0,321.6"/>
<circle cx="69.6" cy="309.5" r="3.5" fill="white" stroke="#dc2626" stroke-width="2"/>
<circle cx="176.0" cy="319.6" r="3.5" fill="white" stroke="#dc2626" stroke-width="2"/>
<circle cx="288.0" cy="321.3" r="3.5" fill="white" stroke="#dc2626" stroke-width="2"/>
<circle cx="400.0" cy="321.7" r="3.5" fill="white" stroke="#dc2626" stroke-width="2"/>
<polyline fill="none" stroke="#9333ea" stroke-width="2" points="69.6,306.8 75.2,306.7 80.8,301.3 86.4,251.4 92.0,120.6 97.6,201.7 103.2,207.2 108.8,271.9 114.4,132.0 120.0,101.8 125.6,105.2 131.2,34.3 136.8,138.3 142.4,92.3 148.0,43.4 153.6,108.2 159.2,163.4 164.8,77.9 170.4,100.5 176.0,143.5 181.6,205.3 187.2,249.3 192.8,276.1 198.4,269.8 204.0,243.1 209.6,272.6 215.2,291.8 220.8,277.4 226.4,292.8 232.0,300.4 237.6,308.2 243.2,312.2 248.8,311.5 254.4,315.1 260.0,315.9 265.6,317.6 271.2,318.6 276.8,319.1 282.4,319.3 288.0,319.4"/>
<circle cx="69.6" cy="306.8" r="3.5" fill="white" stroke="#9333ea" stroke-width="2"/>
<circle cx="176.0" cy="206.6" r="3.5" fill="white" stroke="#9333ea" stroke-width="2"/>
<circle cx="288.0" cy="320.1" r="3.5" fill="white" stroke="#9333ea" stroke-width="2"/>
<line x1="72" y1="34" x2="96" y2="34" stroke="#2563eb" stroke-width="2"/>
<text x="104" y="38" font-family="Arial" font-size="13" fill="#111827">TinyStories</text>
<line x1="72" y1="56" x2="96" y2="56" stroke="#dc2626" stroke-width="2"/>
<text x="104" y="60" font-family="Arial" font-size="13" fill="#111827">OWT</text>
<line x1="72" y1="78" x2="96" y2="78" stroke="#9333ea" stroke-width="2"/>
<text x="104" y="82" font-family="Arial" font-size="13" fill="#111827">LR 1.0</text>
<text x="380.0" y="398" text-anchor="middle" font-family="Arial" font-size="13" fill="#111827">step</text>
<text x="18" y="210.0" text-anchor="middle" transform="rotate(-90 18 210.0)" font-family="Arial" font-size="13" fill="#111827">loss</text>
<text x="64" y="22" font-family="Arial" font-size="15" font-weight="bold" fill="#111827">A1 smoke-run loss curves</text>
</svg>