<svg xmlns="http://www.w3.org/2000/svg" width="1000" height="600" viewBox="0 0 1000 600">
<rect width="100%" height="100%" fill="#ffffff"/>
<text x="82" y="34" font-family="sans-serif" font-size="22" font-weight="700" fill="#111827">TinyStories architecture ablations</text>
<text x="82" y="57" font-family="sans-serif" font-size="13" fill="#4b5563">Same optimizer settings and token budget; divergent runs stop early</text>
<line x1="82" y1="528.00" x2="770" y2="528.00" stroke="#e5e7eb"/>
<text x="70" y="532.00" text-anchor="end" font-family="sans-serif" font-size="12" fill="#4b5563">1.20</text>
<line x1="82" y1="438.00" x2="770" y2="438.00" stroke="#e5e7eb"/>
<text x="70" y="442.00" text-anchor="end" font-family="sans-serif" font-size="12" fill="#4b5563">2.96</text>
<line x1="82" y1="348.00" x2="770" y2="348.00" stroke="#e5e7eb"/>
<text x="70" y="352.00" text-anchor="end" font-family="sans-serif" font-size="12" fill="#4b5563">4.72</text>
<line x1="82" y1="258.00" x2="770" y2="258.00" stroke="#e5e7eb"/>
<text x="70" y="262.00" text-anchor="end" font-family="sans-serif" font-size="12" fill="#4b5563">6.48</text>
<line x1="82" y1="168.00" x2="770" y2="168.00" stroke="#e5e7eb"/>
<text x="70" y="172.00" text-anchor="end" font-family="sans-serif" font-size="12" fill="#4b5563">8.24</text>
<line x1="82" y1="78.00" x2="770" y2="78.00" stroke="#e5e7eb"/>
<text x="70" y="82.00" text-anchor="end" font-family="sans-serif" font-size="12" fill="#4b5563">10.00</text>
<line x1="82.00" y1="78" x2="82.00" y2="528" stroke="#f3f4f6"/>
<text x="82.00" y="553" text-anchor="middle" font-family="sans-serif" font-size="12" fill="#4b5563">0</text>
<line x1="219.60" y1="78" x2="219.60" y2="528" stroke="#f3f4f6"/>
<text x="219.60" y="553" text-anchor="middle" font-family="sans-serif" font-size="12" fill="#4b5563">66</text>
<line x1="357.20" y1="78" x2="357.20" y2="528" stroke="#f3f4f6"/>
<text x="357.20" y="553" text-anchor="middle" font-family="sans-serif" font-size="12" fill="#4b5563">131</text>
<line x1="494.80" y1="78" x2="494.80" y2="528" stroke="#f3f4f6"/>
<text x="494.80" y="553" text-anchor="middle" font-family="sans-serif" font-size="12" fill="#4b5563">197</text>
<line x1="632.40" y1="78" x2="632.40" y2="528" stroke="#f3f4f6"/>
<text x="632.40" y="553" text-anchor="middle" font-family="sans-serif" font-size="12" fill="#4b5563">262</text>
<line x1="770.00" y1="78" x2="770.00" y2="528" stroke="#f3f4f6"/>
<text x="770.00" y="553" text-anchor="middle" font-family="sans-serif" font-size="12" fill="#4b5563">328</text>
<line x1="82" y1="528" x2="770" y2="528" stroke="#111827"/>
<line x1="82" y1="78" x2="82" y2="528" stroke="#111827"/>
<text x="426.0" y="580" text-anchor="middle" font-family="sans-serif" font-size="13" fill="#111827">Processed tokens (millions)</text>
<text x="22" y="303.0" transform="rotate(-90 22 303.0)" text-anchor="middle" font-family="sans-serif" font-size="13" fill="#111827">Cross-entropy loss</text>
<polyline points="82.07,116.08 82.69,118.90 83.38,126.73 84.06,138.27 84.75,151.52 85.44,165.92 86.13,181.31 86.82,196.98 87.50,211.93 88.19,225.82 88.88,238.60 89.57,250.44 90.26,260.89 90.94,270.76 91.63,279.61 92.32,287.76 93.01,295.21 93.70,302.12 94.38,308.61 95.07,314.57 95.76,319.81 96.45,324.98 97.14,329.89 97.82,334.51 98.51,338.78 99.20,351.81 99.89,364.74 100.58,377.12 101.26,388.22 101.95,398.20 102.64,406.83 103.33,414.09 104.02,420.12 104.70,425.26 105.39,429.56 106.08,433.38 106.77,436.69 107.46,439.67 108.14,442.26 108.83,444.65 109.52,446.92 110.21,449.05 110.90,450.95 111.58,452.70 112.27,454.37 112.96,456.25 113.65,457.84 114.34,459.18 115.02,460.43 115.71,461.78 116.40,463.09 117.09,464.42 117.78,465.36 118.46,466.46 119.15,467.55 119.84,468.61 120.53,469.60 121.22,470.42 121.90,471.30 122.59,472.16 123.28,472.96 123.97,473.65 124.66,474.44 125.34,475.23 126.03,476.07 126.72,476.79 127.41,477.47 128.10,478.09 128.78,478.72 129.47,479.33 130.16,479.92 130.85,480.40 131.54,481.01 132.22,481.63 132.91,482.11 133.60,482.75 134.29,483.09 134.98,483.84 135.66,484.19 136.35,484.53 137.04,484.94 137.73,485.32 138.42,485.78 139.10,486.03 139.79,486.47 140.48,486.76 141.17,487.19 141.86,487.52 142.54,487.77 143.23,488.09 143.92,488.36 144.61,488.71 145.30,489.04 145.98,489.33 146.67,489.63 147.36,489.83 148.05,490.16 148.74,490.43 149.42,490.59 150.11,490.78 150.80,490.92 151.49,491.15 152.18,491.14 152.86,491.45 153.55,491.58 154.24,491.73 154.93,491.85 155.62,491.98 156.30,492.20 156.99,492.32 157.68,492.53 158.37,492.80 159.06,493.09 159.74,493.38 160.43,493.72 161.12,493.93 161.81,493.93 162.50,494.06 163.18,494.34 163.87,494.46 164.56,494.75 165.25,494.94 165.94,495.12 166.62,495.31 167.31,495.52 168.00,495.65 168.69,495.88 169.38,496.00 170.06,496.15 170.75,496.51 171.44,496.63 172.13,496.80 172.82,497.05 173.50,497.22 174.19,497.45 174.88,497.67 175.57,497.74 176.26,497.86 176.94,497.88 177.63,497.83 178.32,497.77 179.01,498.06 179.70,498.35 180.38,498.36 181.07,498.54 181.76,498.53 182.45,498.56 183.14,498.54 183.82,498.65 184.51,498.77 185.20,498.86 185.89,498.97 186.58,499.01 187.26,499.08 187.95,499.06 188.64,499.26 189.33,499.35 190.02,499.47 190.70,499.51 191.39,499.50 192.08,499.44 192.77,499.68 193.46,499.75 194.14,499.90 194.83,499.94 195.52,500.28 196.21,500.24 196.90,500.20 197.58,500.35 198.27,500.32 198.96,500.54 199.65,500.54 200.34,500.71 201.02,500.80 201.71,500.94 202.40,501.04 203.09,501.14 203.78,501.32 204.46,501.40 205.15,501.40 205.84,501.54 206.53,501.72 207.22,501.75 207.90,501.94 208.59,502.07 209.28,502.25 209.97,502.09 210.66,502.10 211.34,502.12 212.03,502.24 212.72,502.22 213.41,502.38 214.10,502.49 214.78,502.53 215.47,502.71 216.16,502.64 216.85,502.98 217.54,503.04 218.22,503.17 218.91,503.12 219.60,503.21 220.29,503.12 220.98,503.12 221.66,503.18 222.35,503.34 223.04,503.27 223.73,503.24 224.42,503.26 225.10,503.20 225.79,503.28 226.48,503.44 227.17,503.48 227.86,503.57 228.54,503.62 229.23,503.69 229.92,503.66 230.61,503.64 231.30,503.82 231.98,503.82 232.67,503.81 233.36,503.85 234.05,503.70 234.74,503.75 235.42,503.61 236.11,503.76 236.80,503.72 237.49,503.86 238.18,503.96 238.86,503.97 239.55,503.94 240.24,504.06 240.93,504.10 241.62,504.20 242.30,504.32 242.99,504.28 243.68,504.16 244.37,504.21 245.06,504.30 245.74,504.48 246.43,504.52 247.12,504.75 247.81,504.86 248.50,504.70 249.18,504.88 249.87,504.99 250.56,504.99 251.25,505.05 251.94,505.10 252.62,505.39 253.31,505.43 254.00,505.65 254.69,505.78 255.38,505.73 256.06,505.78 256.75,505.93 257.44,505.83 258.13,506.03 258.82,506.09 259.50,506.12 260.19,506.10 260.88,506.26 261.57,506.41 262.26,506.47 262.94,506.41 263.63,506.44 264.32,506.42 265.01,506.35 265.70,506.50 266.38,506.44 267.07,506.48 267.76,506.54 268.45,506.62 269.14,506.66 269.82,506.59 270.51,506.49 271.20,506.44 271.89,506.34 272.58,506.47 273.26,506.45 273.95,506.32 274.64,506.43 275.33,506.36 276.02,506.35 276.70,506.40 277.39,506.64 278.08,506.61 278.77,506.54 279.46,506.64 280.14,506.68 280.83,506.75 281.52,506.77 282.21,506.91 282.90,506.95 283.58,506.99 284.27,506.95 284.96,507.17 285.65,507.36 286.34,507.41 287.02,507.36 287.71,507.54 288.40,507.56 289.09,507.59 289.78,507.63 290.46,507.81 291.15,507.87 291.84,507.93 292.53,507.89 293.22,507.91 293.90,507.91 294.59,507.87 295.28,507.90 295.97,507.95 296.66,507.88 297.34,507.99 298.03,508.02 298.72,508.01 299.41,508.08 300.10,508.13 300.78,508.22 301.47,508.19 302.16,508.22 302.85,508.01 303.54,508.14 304.22,508.22 304.91,508.24 305.60,508.26 306.29,508.32 306.98,508.43 307.66,508.31 308.35,508.46 309.04,508.54 309.73,508.68 310.42,508.75 311.10,508.76 311.79,508.77 312.48,508.83 313.17,508.84 313.86,508.88 314.54,508.81 315.23,508.84 315.92,508.84 316.61,508.86 317.30,509.00 317.98,508.99 318.67,509.09 319.36,509.04 320.05,509.11 320.74,509.06 321.42,509.01 322.11,508.92 322.80,509.05 323.49,509.16 324.18,509.16 324.86,509.37 325.55,509.28 326.24,509.21 326.93,509.22 327.62,509.25 328.30,509.27 328.99,509.40 329.68,509.36 330.37,509.55 331.06,509.60 331.74,509.75 332.43,509.62 333.12,509.66 333.81,509.72 334.50,509.52 335.18,509.55 335.87,509.68 336.56,509.62 337.25,509.75 337.94,509.79 338.62,509.92 339.31,510.03 340.00,509.91 340.69,509.80 341.38,509.89 342.06,509.78 342.75,509.90 343.44,509.89 344.13,509.97 344.82,510.06 345.50,510.06 346.19,510.00 346.88,509.97 347.57,509.95 348.26,509.90 348.94,509.98 349.63,510.23 350.32,510.33 351.01,510.29 351.70,510.44 352.38,510.49 353.07,510.37 353.76,510.42 354.45,510.38 355.14,510.35 355.82,510.37 356.51,510.33 357.20,510.41 357.89,510.51 358.58,510.49 359.26,510.57 359.95,510.66 360.64,510.67 361.33,510.63 362.02,510.64 362.70,510.86 363.39,510.86 364.08,510.95 364.77,510.96 365.46,511.07 366.14,510.93 366.83,510.86 367.52,510.88 368.21,510.96 368.90,510.69 369.58,510.73 370.27,510.79 370.96,510.86 371.65,510.90 372.34,511.02 373.02,511.10 373.71,511.25 374.40,511.30 375.09,511.45 375.78,511.49 376.46,511.58 377.15,511.44 377.84,511.59 378.53,511.63 379.22,511.63 379.90,511.53 380.59,511.52 381.28,511.70 381.97,511.75 382.66,511.76 383.34,511.85 384.03,511.89 384.72,511.82 385.41,511.74 386.10,512.06 386.78,512.02 387.47,512.12 388.16,512.20 388.85,512.24 389.54,512.25 390.22,512.18 390.91,512.10 391.60,512.05 392.29,512.08 392.98,511.98 393.66,511.88 394.35,511.99 395.04,512.01 395.73,512.09 396.42,512.16 397.10,512.26 397.79,512.30 398.48,512.23 399.17,512.11 399.86,512.13 400.54,512.05 401.23,512.05 401.92,512.23 402.61,512.20 403.30,512.11 403.98,512.19 404.67,512.30 405.36,512.31 406.05,512.41 406.74,512.35 407.42,512.47 408.11,512.48 408.80,512.58 409.49,512.60 410.18,512.58 410.86,512.65 411.55,512.68 412.24,512.65 412.93,512.64 413.62,512.62 414.30,512.63 414.99,512.59 415.68,512.63 416.37,512.77 417.06,512.82 417.74,512.91 418.43,513.01 419.12,512.97 419.81,513.04 420.50,513.12 421.18,513.26 421.87,513.16 422.56,513.20 423.25,513.22 423.94,513.34 424.62,513.28 425.31,513.27 426.00,513.27 426.69,513.21 427.38,513.34 428.06,513.32 428.75,513.33 429.44,513.30 430.13,513.36 430.82,513.35 431.50,513.28 432.19,513.47 432.88,513.52 433.57,513.54 434.26,513.55 434.94,513.56 435.63,513.48 436.32,513.45 437.01,513.53 437.70,513.67 438.38,513.48 439.07,513.54 439.76,513.52 440.45,513.48 441.14,513.49 441.82,513.53 442.51,513.77 443.20,513.87 443.89,513.87 444.58,513.94 445.26,514.13 445.95,514.22 446.64,514.29 447.33,514.27 448.02,514.31 448.70,514.43 449.39,514.29 450.08,514.21 450.77,514.31 451.46,514.33 452.14,514.28 452.83,514.39 453.52,514.39 454.21,514.37 454.90,514.37 455.58,514.45 456.27,514.48 456.96,514.48 457.65,514.50 458.34,514.49 459.02,514.59 459.71,514.48 460.40,514.38 461.09,514.40 461.78,514.34 462.46,514.22 463.15,514.21 463.84,514.20 464.53,514.18 465.22,514.17 465.90,514.17 466.59,514.23 467.28,514.29 467.97,514.17 468.66,514.22 469.34,514.21 470.03,514.19 470.72,514.23 471.41,514.31 472.10,514.11 472.78,514.14 473.47,514.12 474.16,514.16 474.85,514.17 475.54,514.29 476.22,514.24 476.91,514.16 477.60,514.13 478.29,514.21 478.98,514.21 479.66,514.23 480.35,514.19 481.04,514.35 481.73,514.41 482.42,514.47 483.10,514.51 483.79,514.45 484.48,514.56 485.17,514.63 485.86,514.56 486.54,514.65 487.23,514.61 487.92,514.69 488.61,514.64 489.30,514.78 489.98,514.80 490.67,514.88 491.36,514.84 492.05,514.85 492.74,514.76 493.42,514.78 494.11,514.85 494.80,515.02 495.49,515.12 496.18,515.18 496.86,515.16 497.55,515.18 498.24,515.09 498.93,514.94 499.62,514.98 500.30,514.89 500.99,515.02 501.68,514.87 502.37,514.88 503.06,514.92 503.74,515.01 504.43,515.10 505.12,515.02 505.81,515.21 506.50,515.28 507.18,515.26 507.87,515.24 508.56,515.21 509.25,515.18 509.94,515.23 510.62,515.26 511.31,515.38 512.00,515.31 512.69,515.24 513.38,515.29 514.06,515.36 514.75,515.35 515.44,515.47 516.13,515.61 516.82,515.67 517.50,515.78 518.19,515.92 518.88,516.05 519.57,516.12 520.26,516.15 520.94,516.12 521.63,516.17 522.32,516.26 523.01,516.26 523.70,516.31 524.38,516.42 525.07,516.40 525.76,516.47 526.45,516.46 527.14,516.38 527.82,516.36 528.51,516.28 529.20,516.38 529.89,516.34 530.58,516.33 531.26,516.49 531.95,516.59 532.64,516.58 533.33,516.67 534.02,516.68 534.70,516.73 535.39,516.56 536.08,516.42 536.77,516.31 537.46,516.34 538.14,516.42 538.83,516.36 539.52,516.41 540.21,516.35 540.90,516.38 541.58,516.36 542.27,516.42 542.96,516.41 543.65,516.45 544.34,516.66 545.02,516.70 545.71,516.73 546.40,516.71 547.09,516.73 547.78,516.77 548.46,516.65 549.15,516.64 549.84,516.52 550.53,516.54 551.22,516.61 551.90,516.56 552.59,516.61 553.28,516.77 553.97,516.91 554.66,517.04 555.34,517.02 556.03,517.05 556.72,517.01 557.41,517.08 558.10,517.06 558.78,517.02 559.47,517.04 560.16,517.18 560.85,517.20 561.54,517.13 562.22,517.10 562.91,517.20 563.60,517.29 564.29,517.37 564.98,517.34 565.66,517.40 566.35,517.37 567.04,517.43 567.73,517.30 568.42,517.26 569.10,517.26 569.79,517.33 570.48,517.28 571.17,517.23 571.86,517.08 572.54,517.13 573.23,517.26 573.92,517.22 574.61,517.28 575.30,517.22 575.98,517.35 576.67,517.37 577.36,517.31 578.05,517.36 578.74,517.36 579.42,517.28 580.11,517.18 580.80,517.12 581.49,517.09 582.18,517.11 582.86,517.09 583.55,517.01 584.24,517.00 584.93,517.14 585.62,517.24 586.30,517.21 586.99,517.31 587.68,517.41 588.37,517.51 589.06,517.45 589.74,517.47 590.43,517.24 591.12,517.33 591.81,517.23 592.50,517.23 593.18,517.16 593.87,517.20 594.56,517.26 595.25,517.22 595.94,517.24 596.62,517.34 597.31,517.40 598.00,517.45 598.69,517.43 599.38,517.50 600.06,517.56 600.75,517.66 601.44,517.77 602.13,517.75 602.82,517.64 603.50,517.66 604.19,517.71 604.88,517.71 605.57,517.68 606.26,517.78 606.94,517.68 607.63,517.77 608.32,517.76 609.01,517.73 609.70,517.84 610.38,517.92 611.07,517.87 611.76,517.88 612.45,517.91 613.14,517.96 613.82,518.02 614.51,517.98 615.20,517.95 615.89,517.94 616.58,517.88 617.26,517.85 617.95,517.79 618.64,517.74 619.33,517.73 620.02,517.92 620.70,517.88 621.39,517.76 622.08,517.81 622.77,517.72 623.46,517.89 624.14,517.97 624.83,518.02 625.52,518.01 626.21,518.07 626.90,518.08 627.58,517.99 628.27,518.02 628.96,518.07 629.65,518.11 630.34,518.19 631.02,518.24 631.71,518.24 632.40,518.32 633.09,518.49 633.78,518.52 634.46,518.58 635.15,518.81 635.84,518.83 636.53,518.89 637.22,518.68 637.90,518.76 638.59,518.71 639.28,518.72 639.97,518.73 640.66,518.76 641.34,518.75 642.03,518.76 642.72,518.86 643.41,518.79 644.10,518.71 644.78,518.82 645.47,518.85 646.16,518.74 646.85,518.72 647.54,518.66 648.22,518.60 648.91,518.65 649.60,518.62 650.29,518.61 650.98,518.62 651.66,518.55 652.35,518.52 653.04,518.56 653.73,518.58 654.42,518.52 655.10,518.60 655.79,518.67 656.48,518.70 657.17,518.80 657.86,518.64 658.54,518.69 659.23,518.67 659.92,518.63 660.61,518.73 661.30,518.75 661.98,518.72 662.67,518.71 663.36,518.75 664.05,518.82 664.74,518.75 665.42,518.75 666.11,518.74 666.80,518.81 667.49,518.79 668.18,518.82 668.86,518.77 669.55,518.72 670.24,518.75 670.93,518.69 671.62,518.84 672.30,518.77 672.99,518.84 673.68,518.72 674.37,518.76 675.06,518.85 675.74,518.79 676.43,518.93 677.12,518.99 677.81,518.95 678.50,519.01 679.18,518.91 679.87,518.99 680.56,518.92 681.25,518.98 681.94,518.95 682.62,518.97 683.31,519.05 684.00,519.00 684.69,518.95 685.38,518.93 686.06,519.01 686.75,519.13 687.44,519.07 688.13,519.05 688.82,519.04 689.50,519.19 690.19,519.11 690.88,519.22 691.57,519.12 692.26,519.08 692.94,519.07 693.63,518.94 694.32,518.93 695.01,519.04 695.70,519.01 696.38,519.11 697.07,519.10 697.76,519.10 698.45,519.02 699.14,519.03 699.82,519.11 700.51,519.16 701.20,519.20 701.89,519.19 702.58,519.24 703.26,519.27 703.95,519.17 704.64,519.20 705.33,519.33 706.02,519.31 706.70,519.18 707.39,519.19 708.08,519.28 708.77,519.35 709.46,519.32 710.14,519.40 710.83,519.50 711.52,519.50 712.21,519.37 712.90,519.38 713.58,519.40 714.27,519.39 714.96,519.55 715.65,519.59 716.34,519.66 717.02,519.58 717.71,519.50 718.40,519.55 719.09,519.52 719.78,519.48 720.46,519.50 721.15,519.43 721.84,519.43 722.53,519.46 723.22,519.54 723.90,519.61 724.59,519.71 725.28,519.64 725.97,519.67 726.66,519.77 727.34,519.66 728.03,519.75 728.72,519.71 729.41,519.79 730.10,519.81 730.78,519.70 731.47,519.73 732.16,519.65 732.85,519.65 733.54,519.75 734.22,519.78 734.91,519.74 735.60,519.58 736.29,519.63 736.98,519.73 737.66,519.73 738.35,519.97 739.04,520.07 739.73,519.95 740.42,519.87 741.10,519.87 741.79,519.86 742.48,519.83 743.17,519.74 743.86,519.63 744.54,519.68 745.23,519.52 745.92,519.53 746.61,519.60 747.30,519.56 747.98,519.71 748.67,519.61 749.36,519.60 750.05,519.56 750.74,519.53 751.42,519.55 752.11,519.54 752.80,519.65 753.49,519.63 754.18,519.55 754.86,519.59 755.55,519.42 756.24,519.38 756.93,519.42 757.62,519.47 758.30,519.50 758.99,519.42 759.68,519.43 760.37,519.52 761.06,519.58 761.74,519.57 762.43,519.59 763.12,519.55 763.81,519.44 764.50,519.51 765.18,519.52 765.87,519.68 766.56,519.70 767.25,519.71 767.94,519.57 768.62,519.65 769.31,519.64 770.00,519.63" fill="none" stroke="#111827" stroke-width="1.5" opacity="0.35"/>
<polyline points="99.20,445.18 116.40,475.27 133.60,487.90 150.80,493.59 168.00,498.06 185.20,499.94 202.40,501.76 219.60,503.78 236.80,505.00 254.00,505.79 271.20,506.59 288.40,508.20 305.60,508.58 322.80,509.77 340.00,510.35 357.20,510.68 374.40,510.93 391.60,512.84 408.80,513.10 426.00,513.55 443.20,513.94 460.40,514.17 477.60,514.68 494.80,514.70 512.00,515.55 529.20,515.76 546.40,516.28 563.60,516.49 580.80,517.00 598.00,517.21 615.20,517.35 632.40,518.29 649.60,518.54 666.80,518.58 684.00,518.88 701.20,518.75 718.40,518.62 735.60,518.92 752.80,519.49 770.00,519.62" fill="none" stroke="#111827" stroke-width="2.5"/>
<circle cx="99.20" cy="445.18" r="2.4" fill="#111827"/>
<circle cx="116.40" cy="475.27" r="2.4" fill="#111827"/>
<circle cx="133.60" cy="487.90" r="2.4" fill="#111827"/>
<circle cx="150.80" cy="493.59" r="2.4" fill="#111827"/>
<circle cx="168.00" cy="498.06" r="2.4" fill="#111827"/>
<circle cx="185.20" cy="499.94" r="2.4" fill="#111827"/>
<circle cx="202.40" cy="501.76" r="2.4" fill="#111827"/>
<circle cx="219.60" cy="503.78" r="2.4" fill="#111827"/>
<circle cx="236.80" cy="505.00" r="2.4" fill="#111827"/>
<circle cx="254.00" cy="505.79" r="2.4" fill="#111827"/>
<circle cx="271.20" cy="506.59" r="2.4" fill="#111827"/>
<circle cx="288.40" cy="508.20" r="2.4" fill="#111827"/>
<circle cx="305.60" cy="508.58" r="2.4" fill="#111827"/>
<circle cx="322.80" cy="509.77" r="2.4" fill="#111827"/>
<circle cx="340.00" cy="510.35" r="2.4" fill="#111827"/>
<circle cx="357.20" cy="510.68" r="2.4" fill="#111827"/>
<circle cx="374.40" cy="510.93" r="2.4" fill="#111827"/>
<circle cx="391.60" cy="512.84" r="2.4" fill="#111827"/>
<circle cx="408.80" cy="513.10" r="2.4" fill="#111827"/>
<circle cx="426.00" cy="513.55" r="2.4" fill="#111827"/>
<circle cx="443.20" cy="513.94" r="2.4" fill="#111827"/>
<circle cx="460.40" cy="514.17" r="2.4" fill="#111827"/>
<circle cx="477.60" cy="514.68" r="2.4" fill="#111827"/>
<circle cx="494.80" cy="514.70" r="2.4" fill="#111827"/>
<circle cx="512.00" cy="515.55" r="2.4" fill="#111827"/>
<circle cx="529.20" cy="515.76" r="2.4" fill="#111827"/>
<circle cx="546.40" cy="516.28" r="2.4" fill="#111827"/>
<circle cx="563.60" cy="516.49" r="2.4" fill="#111827"/>
<circle cx="580.80" cy="517.00" r="2.4" fill="#111827"/>
<circle cx="598.00" cy="517.21" r="2.4" fill="#111827"/>
<circle cx="615.20" cy="517.35" r="2.4" fill="#111827"/>
<circle cx="632.40" cy="518.29" r="2.4" fill="#111827"/>
<circle cx="649.60" cy="518.54" r="2.4" fill="#111827"/>
<circle cx="666.80" cy="518.58" r="2.4" fill="#111827"/>
<circle cx="684.00" cy="518.88" r="2.4" fill="#111827"/>
<circle cx="701.20" cy="518.75" r="2.4" fill="#111827"/>
<circle cx="718.40" cy="518.62" r="2.4" fill="#111827"/>
<circle cx="735.60" cy="518.92" r="2.4" fill="#111827"/>
<circle cx="752.80" cy="519.49" r="2.4" fill="#111827"/>
<circle cx="770.00" cy="519.62" r="2.4" fill="#111827"/>
<polyline points="82.07,116.01 82.69,119.21 83.38,127.91 84.06,140.00 84.75,153.07 85.44,167.39 86.13,182.73 86.82,198.41 87.50,213.39 88.19,227.39 88.88,240.18 89.57,252.06 90.26,262.54 90.94,272.47 91.63,281.36 92.32,289.55 93.01,297.03 93.70,303.97 94.38,310.48 95.07,316.44 95.76,321.70 96.45,326.89 97.14,331.82 97.82,336.44 98.51,340.68 99.20,353.79 99.89,366.75 100.58,379.06 101.26,390.08 101.95,400.06 102.64,408.68 103.33,415.95 104.02,421.92 104.70,427.04 105.39,431.28 106.08,435.06 106.77,438.32 107.46,441.24 108.14,443.79 108.83,446.13 109.52,448.34 110.21,450.42 110.90,452.26 111.58,453.96 112.27,455.59 112.96,457.40 113.65,458.94 114.34,460.23 115.02,461.43 115.71,462.77 116.40,464.06 117.09,465.33 117.78,466.24 118.46,467.31 119.15,468.38 119.84,469.42 120.53,470.39 121.22,471.24 121.90,472.12 122.59,472.96 123.28,473.75 123.97,474.44 124.66,475.22 125.34,475.99 126.03,476.82 126.72,477.51 127.41,478.16 128.10,478.75 128.78,479.35 129.47,479.95 130.16,480.53 130.85,480.97 131.54,481.53 132.22,482.12 132.91,482.56 133.60,483.17 134.29,483.51 134.98,484.24 135.66,484.57 136.35,484.89 137.04,485.28 137.73,485.62 138.42,486.04 139.10,486.23 139.79,486.66 140.48,486.92 141.17,487.32 141.86,487.63 142.54,487.84 143.23,488.13 143.92,488.38 144.61,488.74 145.30,489.07 145.98,489.34 146.67,489.61 147.36,489.79 148.05,490.10 148.74,490.38 149.42,490.53 150.11,490.71 150.80,490.82 151.49,491.02 152.18,491.00 152.86,491.30 153.55,491.43 154.24,491.58 154.93,491.71 155.62,491.82 156.30,492.06 156.99,492.17 157.68,492.36 158.37,492.62 159.06,492.90 159.74,493.20 160.43,493.53 161.12,493.73 161.81,493.68 162.50,493.80 163.18,494.06 163.87,494.18 164.56,494.48 165.25,494.65 165.94,494.81 166.62,495.01 167.31,495.21 168.00,495.32 168.69,495.56 169.38,495.69 170.06,495.81 170.75,496.14 171.44,496.26 172.13,496.43 172.82,496.69 173.50,496.85 174.19,497.05 174.88,497.26 175.57,497.33 176.26,497.44 176.94,497.43 177.63,497.37 178.32,497.29 179.01,497.58 179.70,497.87 180.38,497.90 181.07,498.10 181.76,498.06 182.45,498.10 183.14,498.08 183.82,498.20 184.51,498.32 185.20,498.44 185.89,498.55 186.58,498.59 187.26,498.66 187.95,498.62 188.64,498.81 189.33,498.88 190.02,499.00 190.70,499.02 191.39,499.02 192.08,498.98 192.77,499.22 193.46,499.29 194.14,499.44 194.83,499.47 195.52,499.83 196.21,499.78 196.90,499.74 197.58,499.87 198.27,499.83 198.96,500.05 199.65,500.02 200.34,500.17 201.02,500.25 201.71,500.40 202.40,500.50 203.09,500.57 203.78,500.74 204.46,500.84 205.15,500.83 205.84,500.95 206.53,501.13 207.22,501.16 207.90,501.35 208.59,501.49 209.28,501.67 209.97,501.49 210.66,501.50 211.34,501.53 212.03,501.65 212.72,501.62 213.41,501.79 214.10,501.90 214.78,501.93 215.47,502.10 216.16,502.04 216.85,502.39 217.54,502.45 218.22,502.60 218.91,502.54 219.60,502.62 220.29,502.54 220.98,502.55 221.66,502.61 222.35,502.79 223.04,502.74 223.73,502.71 224.42,502.69 225.10,502.65 225.79,502.71 226.48,502.86 227.17,502.91 227.86,503.00 228.54,503.07 229.23,503.13 229.92,503.10 230.61,503.09 231.30,503.26 231.98,503.25 232.67,503.20 233.36,503.25 234.05,503.11 234.74,503.16 235.42,503.03 236.11,503.19 236.80,503.12 237.49,503.26 238.18,503.34 238.86,503.36 239.55,503.33 240.24,503.43 240.93,503.47 241.62,503.58 242.30,503.70 242.99,503.64 243.68,503.50 244.37,503.55 245.06,503.64 245.74,503.79 246.43,503.82 247.12,504.08 247.81,504.18 248.50,504.02 249.18,504.23 249.87,504.37 250.56,504.37 251.25,504.43 251.94,504.46 252.62,504.73 253.31,504.76 254.00,505.00 254.69,505.13 255.38,505.08 256.06,505.13 256.75,505.28 257.44,505.20 258.13,505.39 258.82,505.46 259.50,505.48 260.19,505.47 260.88,505.63 261.57,505.77 262.26,505.84 262.94,505.80 263.63,505.84 264.32,505.80 265.01,505.74 265.70,505.87 266.38,505.80 267.07,505.83 267.76,505.89 268.45,505.96 269.14,506.00 269.82,505.95 270.51,505.85 271.20,505.78 271.89,505.69 272.58,505.83 273.26,505.80 273.95,505.70 274.64,505.80 275.33,505.74 276.02,505.69 276.70,505.75 277.39,506.00 278.08,505.97 278.77,505.90 279.46,505.99 280.14,506.05 280.83,506.10 281.52,506.13 282.21,506.28 282.90,506.33 283.58,506.35 284.27,506.31 284.96,506.54 285.65,506.74 286.34,506.78 287.02,506.73 287.71,506.89 288.40,506.91 289.09,506.94 289.78,506.97 290.46,507.14 291.15,507.19 291.84,507.27 292.53,507.20 293.22,507.23 293.90,507.24 294.59,507.20 295.28,507.23 295.97,507.27 296.66,507.20 297.34,507.31 298.03,507.35 298.72,507.31 299.41,507.36 300.10,507.42 300.78,507.52 301.47,507.52 302.16,507.54 302.85,507.32 303.54,507.45 304.22,507.55 304.91,507.58 305.60,507.59 306.29,507.66 306.98,507.76 307.66,507.63 308.35,507.79 309.04,507.86 309.73,508.01 310.42,508.06 311.10,508.08 311.79,508.09 312.48,508.16 313.17,508.19 313.86,508.23 314.54,508.15 315.23,508.18 315.92,508.19 316.61,508.23 317.30,508.38 317.98,508.37 318.67,508.45 319.36,508.41 320.05,508.49 320.74,508.44 321.42,508.39 322.11,508.31 322.80,508.44 323.49,508.54 324.18,508.56 324.86,508.78 325.55,508.68 326.24,508.60 326.93,508.60 327.62,508.65 328.30,508.68 328.99,508.81 329.68,508.77 330.37,508.94 331.06,508.98 331.74,509.12 332.43,508.97 333.12,509.01 333.81,509.06 334.50,508.87 335.18,508.89 335.87,509.01 336.56,508.96 337.25,509.08 337.94,509.11 338.62,509.22 339.31,509.33 340.00,509.22 340.69,509.10 341.38,509.19 342.06,509.07 342.75,509.20 343.44,509.21 344.13,509.27 344.82,509.35 345.50,509.35 346.19,509.30 346.88,509.27 347.57,509.26 348.26,509.22 348.94,509.32 349.63,509.57 350.32,509.69 351.01,509.64 351.70,509.79 352.38,509.85 353.07,509.74 353.76,509.78 354.45,509.75 355.14,509.73 355.82,509.76 356.51,509.72 357.20,509.80 357.89,509.90 358.58,509.88 359.26,509.97 359.95,510.06 360.64,510.07 361.33,510.03 362.02,510.07 362.70,510.28 363.39,510.31 364.08,510.42 364.77,510.44 365.46,510.55 366.14,510.42 366.83,510.35 367.52,510.38 368.21,510.48 368.90,510.20 369.58,510.24 370.27,510.31 370.96,510.39 371.65,510.42 372.34,510.55 373.02,510.61 373.71,510.78 374.40,510.82 375.09,510.98 375.78,511.01 376.46,511.10 377.15,510.97 377.84,511.13 378.53,511.17 379.22,511.14 379.90,511.05 380.59,511.02 381.28,511.19 381.97,511.23 382.66,511.23 383.34,511.31 384.03,511.35 384.72,511.29 385.41,511.18 386.10,511.50 386.78,511.46 387.47,511.56 388.16,511.64 388.85,511.68 389.54,511.70 390.22,511.64 390.91,511.56 391.60,511.51 392.29,511.54 392.98,511.46 393.66,511.37 394.35,511.47 395.04,511.49 395.73,511.59 396.42,511.67 397.10,511.76 397.79,511.81 398.48,511.74 399.17,511.62 399.86,511.65 400.54,511.59 401.23,511.58 401.92,511.75 402.61,511.72 403.30,511.66 403.98,511.73 404.67,511.84 405.36,511.85 406.05,511.96 406.74,511.89 407.42,512.01 408.11,512.01 408.80,512.13 409.49,512.16 410.18,512.13 410.86,512.19 411.55,512.22 412.24,512.20 412.93,512.21 413.62,512.17 414.30,512.19 414.99,512.18 415.68,512.22 416.37,512.36 417.06,512.40 417.74,512.48 418.43,512.60 419.12,512.56 419.81,512.65 420.50,512.73 421.18,512.87 421.87,512.76 422.56,512.81 423.25,512.84 423.94,512.96 424.62,512.90 425.31,512.92 426.00,512.91 426.69,512.85 427.38,512.99 428.06,512.99 428.75,513.00 429.44,512.95 430.13,513.00 430.82,513.01 431.50,512.94 432.19,513.12 432.88,513.15 433.57,513.18 434.26,513.19 434.94,513.20 435.63,513.12 436.32,513.11 437.01,513.20 437.70,513.33 438.38,513.14 439.07,513.20 439.76,513.17 440.45,513.15 441.14,513.15 441.82,513.21 442.51,513.43 443.20,513.53 443.89,513.53 444.58,513.63 445.26,513.81 445.95,513.92 446.64,514.00 447.33,513.99 448.02,514.02 448.70,514.15 449.39,514.01 450.08,513.93 450.77,514.04 451.46,514.06 452.14,514.02 452.83,514.13 453.52,514.12 454.21,514.10 454.90,514.11 455.58,514.19 456.27,514.22 456.96,514.23 457.65,514.25 458.34,514.24 459.02,514.32 459.71,514.21 460.40,514.12 461.09,514.14 461.78,514.10 462.46,513.99 463.15,513.98 463.84,513.96 464.53,513.95 465.22,513.93 465.90,513.93 466.59,514.00 467.28,514.05 467.97,513.94 468.66,514.01 469.34,513.98 470.03,513.96 470.72,514.02 471.41,514.09 472.10,513.89 472.78,513.92 473.47,513.90 474.16,513.96 474.85,513.97 475.54,514.07 476.22,514.03 476.91,513.96 477.60,513.92 478.29,514.01 478.98,513.98 479.66,513.99 480.35,513.93 481.04,514.11 481.73,514.17 482.42,514.20 483.10,514.24 483.79,514.17 484.48,514.28 485.17,514.35 485.86,514.25 486.54,514.36 487.23,514.31 487.92,514.36 488.61,514.32 489.30,514.45 489.98,514.47 490.67,514.56 491.36,514.52 492.05,514.53 492.74,514.46 493.42,514.48 494.11,514.56 494.80,514.72 495.49,514.83 496.18,514.89 496.86,514.88 497.55,514.90 498.24,514.82 498.93,514.66 499.62,514.74 500.30,514.67 500.99,514.80 501.68,514.65 502.37,514.66 503.06,514.71 503.74,514.81 504.43,514.89 505.12,514.85 505.81,515.04 506.50,515.11 507.18,515.09 507.87,515.06 508.56,515.04 509.25,515.02 509.94,515.04 510.62,515.08 511.31,515.21 512.00,515.14 512.69,515.06 513.38,515.10 514.06,515.18 514.75,515.18 515.44,515.29 516.13,515.43 516.82,515.48 517.50,515.60 518.19,515.76 518.88,515.89 519.57,515.97 520.26,516.01 520.94,515.97 521.63,516.03 522.32,516.11 523.01,516.10 523.70,516.17 524.38,516.28 525.07,516.26 525.76,516.34 526.45,516.32 527.14,516.24 527.82,516.22 528.51,516.14 529.20,516.24 529.89,516.21 530.58,516.20 531.26,516.36 531.95,516.46 532.64,516.44 533.33,516.54 534.02,516.56 534.70,516.60 535.39,516.43 536.08,516.30 536.77,516.19 537.46,516.22 538.14,516.30 538.83,516.26 539.52,516.31 540.21,516.27 540.90,516.32 541.58,516.29 542.27,516.35 542.96,516.32 543.65,516.36 544.34,516.57 545.02,516.62 545.71,516.66 546.40,516.65 547.09,516.66 547.78,516.71 548.46,516.58 549.15,516.58 549.84,516.46 550.53,516.48 551.22,516.55 551.90,516.51 552.59,516.55 553.28,516.71 553.97,516.84 554.66,516.95 555.34,516.94 556.03,516.96 556.72,516.93 557.41,516.99 558.10,516.95 558.78,516.91 559.47,516.94 560.16,517.10 560.85,517.12 561.54,517.05 562.22,517.01 562.91,517.10 563.60,517.18 564.29,517.25 564.98,517.22 565.66,517.29 566.35,517.26 567.04,517.32 567.73,517.19 568.42,517.15 569.10,517.14 569.79,517.21 570.48,517.15 571.17,517.09 571.86,516.96 572.54,517.01 573.23,517.14 573.92,517.10 574.61,517.16 575.30,517.10 575.98,517.23 576.67,517.24 577.36,517.18 578.05,517.24 578.74,517.25 579.42,517.18 580.11,517.10 580.80,517.04 581.49,517.02 582.18,517.05 582.86,517.04 583.55,516.96 584.24,516.95 584.93,517.10 585.62,517.20 586.30,517.20 586.99,517.29 587.68,517.40 588.37,517.50 589.06,517.44 589.74,517.46 590.43,517.23 591.12,517.31 591.81,517.23 592.50,517.23 593.18,517.16 593.87,517.21 594.56,517.26 595.25,517.21 595.94,517.23 596.62,517.32 597.31,517.40 598.00,517.47 598.69,517.45 599.38,517.50 600.06,517.57 600.75,517.65 601.44,517.77 602.13,517.73 602.82,517.63 603.50,517.63 604.19,517.69 604.88,517.71 605.57,517.68 606.26,517.79 606.94,517.70 607.63,517.81 608.32,517.81 609.01,517.76 609.70,517.89 610.38,517.97 611.07,517.93 611.76,517.93 612.45,517.97 613.14,518.02 613.82,518.09 614.51,518.05 615.20,518.00 615.89,517.99 616.58,517.94 617.26,517.91 617.95,517.86 618.64,517.81 619.33,517.80 620.02,517.99 620.70,517.94 621.39,517.82 622.08,517.86 622.77,517.78 623.46,517.94 624.14,518.02 624.83,518.05 625.52,518.02 626.21,518.08 626.90,518.06 627.58,517.97 628.27,518.00 628.96,518.06 629.65,518.12 630.34,518.20 631.02,518.23 631.71,518.23 632.40,518.30 633.09,518.46 633.78,518.49 634.46,518.55 635.15,518.76 635.84,518.79 636.53,518.85 637.22,518.64 637.90,518.73 638.59,518.68 639.28,518.69 639.97,518.72 640.66,518.74 641.34,518.74 642.03,518.76 642.72,518.87 643.41,518.82 644.10,518.76 644.78,518.87 645.47,518.89 646.16,518.78 646.85,518.76 647.54,518.69 648.22,518.65 648.91,518.72 649.60,518.72 650.29,518.70 650.98,518.71 651.66,518.65 652.35,518.64 653.04,518.67 653.73,518.71 654.42,518.65 655.10,518.71 655.79,518.79 656.48,518.83 657.17,518.92 657.86,518.77 658.54,518.80 659.23,518.78 659.92,518.74 660.61,518.84 661.30,518.85 661.98,518.82 662.67,518.81 663.36,518.84 664.05,518.91 664.74,518.82 665.42,518.82 666.11,518.80 666.80,518.86 667.49,518.85 668.18,518.86 668.86,518.82 669.55,518.78 670.24,518.82 670.93,518.75 671.62,518.91 672.30,518.84 672.99,518.90 673.68,518.80 674.37,518.84 675.06,518.91 675.74,518.87 676.43,519.00 677.12,519.06 677.81,519.02 678.50,519.08 679.18,518.97 679.87,519.06 680.56,519.01 681.25,519.05 681.94,519.02 682.62,519.02 683.31,519.10 684.00,519.04 684.69,519.01 685.38,519.01 686.06,519.08 686.75,519.21 687.44,519.15 688.13,519.14 688.82,519.13 689.50,519.26 690.19,519.17 690.88,519.27 691.57,519.17 692.26,519.14 692.94,519.15 693.63,519.01 694.32,519.00 695.01,519.11 695.70,519.09 696.38,519.19 697.07,519.17 697.76,519.17 698.45,519.11 699.14,519.14 699.82,519.23 700.51,519.29 701.20,519.35 701.89,519.33 702.58,519.39 703.26,519.41 703.95,519.31 704.64,519.33 705.33,519.46 706.02,519.44 706.70,519.31 707.39,519.34 708.08,519.46 708.77,519.52 709.46,519.48 710.14,519.56 710.83,519.67 711.52,519.66 712.21,519.53 712.90,519.54 713.58,519.57 714.27,519.58 714.96,519.73 715.65,519.76 716.34,519.82 717.02,519.75 717.71,519.68 718.40,519.73 719.09,519.70 719.78,519.65 720.46,519.67 721.15,519.60 721.84,519.61 722.53,519.62 723.22,519.69 723.90,519.75 724.59,519.86 725.28,519.77 725.97,519.81 726.66,519.91 727.34,519.80 728.03,519.89 728.72,519.87 729.41,519.95 730.10,519.99 730.78,519.89 731.47,519.89 732.16,519.82 732.85,519.82 733.54,519.92 734.22,519.95 734.91,519.91 735.60,519.76 736.29,519.82 736.98,519.92 737.66,519.92 738.35,520.16 739.04,520.26 739.73,520.15 740.42,520.08 741.10,520.07 741.79,520.07 742.48,520.04 743.17,519.95 743.86,519.82 744.54,519.86 745.23,519.70 745.92,519.71 746.61,519.78 747.30,519.73 747.98,519.88 748.67,519.79 749.36,519.78 750.05,519.74 750.74,519.71 751.42,519.72 752.11,519.72 752.80,519.81 753.49,519.78 754.18,519.70 754.86,519.74 755.55,519.58 756.24,519.52 756.93,519.57 757.62,519.62 758.30,519.66 758.99,519.58 759.68,519.59 760.37,519.67 761.06,519.74 761.74,519.75 762.43,519.78 763.12,519.73 763.81,519.62 764.50,519.69 765.18,519.70 765.87,519.86 766.56,519.86 767.25,519.88 767.94,519.76 768.62,519.85 769.31,519.82 770.00,519.81" fill="none" stroke="#2563eb" stroke-width="1.5" opacity="0.35"/>
<polyline points="99.20,446.50 116.40,476.13 133.60,487.89 150.80,493.34 168.00,497.61 185.20,499.31 202.40,501.05 219.60,503.16 236.80,504.55 254.00,505.16 271.20,505.94 288.40,507.56 305.60,507.99 322.80,509.20 340.00,509.84 357.20,510.04 374.40,510.60 391.60,512.46 408.80,512.65 426.00,513.17 443.20,513.69 460.40,513.88 477.60,514.44 494.80,514.61 512.00,515.44 529.20,515.76 546.40,516.22 563.60,516.50 580.80,517.06 598.00,517.29 615.20,517.50 632.40,518.36 649.60,518.69 666.80,518.73 684.00,519.04 701.20,518.87 718.40,518.83 735.60,519.17 752.80,519.80 770.00,519.82" fill="none" stroke="#2563eb" stroke-width="2.5"/>
<circle cx="99.20" cy="446.50" r="2.4" fill="#2563eb"/>
<circle cx="116.40" cy="476.13" r="2.4" fill="#2563eb"/>
<circle cx="133.60" cy="487.89" r="2.4" fill="#2563eb"/>
<circle cx="150.80" cy="493.34" r="2.4" fill="#2563eb"/>
<circle cx="168.00" cy="497.61" r="2.4" fill="#2563eb"/>
<circle cx="185.20" cy="499.31" r="2.4" fill="#2563eb"/>
<circle cx="202.40" cy="501.05" r="2.4" fill="#2563eb"/>
<circle cx="219.60" cy="503.16" r="2.4" fill="#2563eb"/>
<circle cx="236.80" cy="504.55" r="2.4" fill="#2563eb"/>
<circle cx="254.00" cy="505.16" r="2.4" fill="#2563eb"/>
<circle cx="271.20" cy="505.94" r="2.4" fill="#2563eb"/>
<circle cx="288.40" cy="507.56" r="2.4" fill="#2563eb"/>
<circle cx="305.60" cy="507.99" r="2.4" fill="#2563eb"/>
<circle cx="322.80" cy="509.20" r="2.4" fill="#2563eb"/>
<circle cx="340.00" cy="509.84" r="2.4" fill="#2563eb"/>
<circle cx="357.20" cy="510.04" r="2.4" fill="#2563eb"/>
<circle cx="374.40" cy="510.60" r="2.4" fill="#2563eb"/>
<circle cx="391.60" cy="512.46" r="2.4" fill="#2563eb"/>
<circle cx="408.80" cy="512.65" r="2.4" fill="#2563eb"/>
<circle cx="426.00" cy="513.17" r="2.4" fill="#2563eb"/>
<circle cx="443.20" cy="513.69" r="2.4" fill="#2563eb"/>
<circle cx="460.40" cy="513.88" r="2.4" fill="#2563eb"/>
<circle cx="477.60" cy="514.44" r="2.4" fill="#2563eb"/>
<circle cx="494.80" cy="514.61" r="2.4" fill="#2563eb"/>
<circle cx="512.00" cy="515.44" r="2.4" fill="#2563eb"/>
<circle cx="529.20" cy="515.76" r="2.4" fill="#2563eb"/>
<circle cx="546.40" cy="516.22" r="2.4" fill="#2563eb"/>
<circle cx="563.60" cy="516.50" r="2.4" fill="#2563eb"/>
<circle cx="580.80" cy="517.06" r="2.4" fill="#2563eb"/>
<circle cx="598.00" cy="517.29" r="2.4" fill="#2563eb"/>
<circle cx="615.20" cy="517.50" r="2.4" fill="#2563eb"/>
<circle cx="632.40" cy="518.36" r="2.4" fill="#2563eb"/>
<circle cx="649.60" cy="518.69" r="2.4" fill="#2563eb"/>
<circle cx="666.80" cy="518.73" r="2.4" fill="#2563eb"/>
<circle cx="684.00" cy="519.04" r="2.4" fill="#2563eb"/>
<circle cx="701.20" cy="518.87" r="2.4" fill="#2563eb"/>
<circle cx="718.40" cy="518.83" r="2.4" fill="#2563eb"/>
<circle cx="735.60" cy="519.17" r="2.4" fill="#2563eb"/>
<circle cx="752.80" cy="519.80" r="2.4" fill="#2563eb"/>
<circle cx="770.00" cy="519.82" r="2.4" fill="#2563eb"/>
<polyline points="82.07,117.00 82.69,121.08 83.38,131.23 84.06,143.23 84.75,156.08 85.44,170.00 86.13,184.82 86.82,199.85 87.50,214.21 88.19,227.58 88.88,239.88 89.57,251.34 90.26,261.40 90.94,270.96 91.63,279.54 92.32,287.45 93.01,294.66 93.70,301.34 94.38,307.61 95.07,313.39 95.76,318.45 96.45,323.47 97.14,328.23 97.82,332.68 98.51,336.80 99.20,349.58 99.89,362.13 100.58,373.92 101.26,384.53 101.95,394.12 102.64,402.44 103.33,409.47 104.02,415.28 104.70,420.27 105.39,424.45 106.08,428.16 106.77,431.35 107.46,434.23 108.14,436.71 108.83,438.98 109.52,441.14 110.21,443.19 110.90,445.02 111.58,446.69 112.27,448.28 112.96,450.08 113.65,451.61 114.34,452.86 115.02,454.06 115.71,455.38 116.40,456.64 117.09,457.95 117.78,458.87 118.46,459.93 119.15,461.03 119.84,462.08 120.53,463.05 121.22,463.88 121.90,464.74 122.59,465.60 123.28,466.41 123.97,467.10 124.66,467.92 125.34,468.74 126.03,469.62 126.72,470.38 127.41,471.07 128.10,471.73 128.78,472.42 129.47,473.09 130.16,473.72 130.85,474.24 131.54,474.92 132.22,475.60 132.91,476.13 133.60,476.84 134.29,477.23 134.98,478.04 135.66,478.47 136.35,478.87 137.04,479.34 137.73,479.78 138.42,480.31 139.10,480.64 139.79,481.15 140.48,481.47 141.17,481.96 141.86,482.33 142.54,482.63 143.23,483.00 143.92,483.30 144.61,483.74 145.30,484.11 145.98,484.41 146.67,484.74 147.36,484.98 148.05,485.37 148.74,485.68 149.42,485.89 150.11,486.13 150.80,486.29 151.49,486.55 152.18,486.57 152.86,486.91 153.55,487.08 154.24,487.27 154.93,487.44 155.62,487.58 156.30,487.85 156.99,488.03 157.68,488.28 158.37,488.58 159.06,488.93 159.74,489.27 160.43,489.64 161.12,489.89 161.81,489.90 162.50,490.06 163.18,490.39 163.87,490.55 164.56,490.88 165.25,491.06 165.94,491.30 166.62,491.53 167.31,491.76 168.00,491.91 168.69,492.20 169.38,492.36 170.06,492.53 170.75,492.93 171.44,493.08 172.13,493.28 172.82,493.57 173.50,493.75 174.19,494.00 174.88,494.26 175.57,494.36 176.26,494.52 176.94,494.56 177.63,494.54 178.32,494.51 179.01,494.82 179.70,495.16 180.38,495.20 181.07,495.43 181.76,495.45 182.45,495.50 183.14,495.49 183.82,495.65 184.51,495.80 185.20,495.94 185.89,496.07 186.58,496.13 187.26,496.22 187.95,496.19 188.64,496.41 189.33,496.50 190.02,496.65 190.70,496.71 191.39,496.74 192.08,496.70 192.77,496.97 193.46,497.05 194.14,497.21 194.83,497.27 195.52,497.66 196.21,497.64 196.90,497.62 197.58,497.78 198.27,497.77 198.96,498.01 199.65,498.04 200.34,498.21 201.02,498.30 201.71,498.46 202.40,498.57 203.09,498.65 203.78,498.83 204.46,498.94 205.15,498.95 205.84,499.10 206.53,499.30 207.22,499.34 207.90,499.55 208.59,499.68 209.28,499.87 209.97,499.71 210.66,499.74 211.34,499.78 212.03,499.90 212.72,499.89 213.41,500.05 214.10,500.16 214.78,500.22 215.47,500.39 216.16,500.34 216.85,500.69 217.54,500.78 218.22,500.94 218.91,500.90 219.60,500.98 220.29,500.92 220.98,500.97 221.66,501.04 222.35,501.21 223.04,501.16 223.73,501.14 224.42,501.14 225.10,501.11 225.79,501.20 226.48,501.39 227.17,501.46 227.86,501.55 228.54,501.61 229.23,501.69 229.92,501.67 230.61,501.67 231.30,501.86 231.98,501.86 232.67,501.81 233.36,501.86 234.05,501.72 234.74,501.78 235.42,501.68 236.11,501.84 236.80,501.80 237.49,501.96 238.18,502.05 238.86,502.06 239.55,502.04 240.24,502.16 240.93,502.22 241.62,502.33 242.30,502.46 242.99,502.42 243.68,502.29 244.37,502.33 245.06,502.43 245.74,502.60 246.43,502.66 247.12,502.90 247.81,503.01 248.50,502.85 249.18,503.06 249.87,503.23 250.56,503.25 251.25,503.31 251.94,503.35 252.62,503.62 253.31,503.66 254.00,503.89 254.69,504.02 255.38,503.97 256.06,504.01 256.75,504.18 257.44,504.11 258.13,504.30 258.82,504.37 259.50,504.39 260.19,504.37 260.88,504.56 261.57,504.72 262.26,504.78 262.94,504.73 263.63,504.76 264.32,504.74 265.01,504.68 265.70,504.81 266.38,504.74 267.07,504.77 267.76,504.83 268.45,504.92 269.14,504.97 269.82,504.92 270.51,504.81 271.20,504.77 271.89,504.68 272.58,504.82 273.26,504.80 273.95,504.71 274.64,504.80 275.33,504.74 276.02,504.73 276.70,504.78 277.39,505.03 278.08,505.00 278.77,504.92 279.46,505.01 280.14,505.07 280.83,505.13 281.52,505.14 282.21,505.30 282.90,505.35 283.58,505.39 284.27,505.37 284.96,505.61 285.65,505.80 286.34,505.84 287.02,505.79 287.71,505.96 288.40,505.97 289.09,506.01 289.78,506.03 290.46,506.22 291.15,506.27 291.84,506.35 292.53,506.31 293.22,506.31 293.90,506.33 294.59,506.29 295.28,506.32 295.97,506.36 296.66,506.29 297.34,506.41 298.03,506.44 298.72,506.44 299.41,506.51 300.10,506.57 300.78,506.66 301.47,506.63 302.16,506.64 302.85,506.42 303.54,506.56 304.22,506.67 304.91,506.71 305.60,506.73 306.29,506.81 306.98,506.93 307.66,506.80 308.35,506.96 309.04,507.03 309.73,507.18 310.42,507.27 311.10,507.29 311.79,507.30 312.48,507.36 313.17,507.39 313.86,507.44 314.54,507.36 315.23,507.40 315.92,507.39 316.61,507.42 317.30,507.56 317.98,507.55 318.67,507.64 319.36,507.62 320.05,507.70 320.74,507.64 321.42,507.59 322.11,507.50 322.80,507.63 323.49,507.73 324.18,507.74 324.86,507.97 325.55,507.89 326.24,507.82 326.93,507.82 327.62,507.85 328.30,507.87 328.99,508.00 329.68,507.97 330.37,508.16 331.06,508.22 331.74,508.38 332.43,508.25 333.12,508.30 333.81,508.35 334.50,508.17 335.18,508.21 335.87,508.35 336.56,508.28 337.25,508.41 337.94,508.45 338.62,508.58 339.31,508.70 340.00,508.58 340.69,508.49 341.38,508.58 342.06,508.46 342.75,508.57 343.44,508.56 344.13,508.64 344.82,508.72 345.50,508.72 346.19,508.68 346.88,508.65 347.57,508.63 348.26,508.58 348.94,508.66 349.63,508.89 350.32,509.01 351.01,508.97 351.70,509.10 352.38,509.16 353.07,509.03 353.76,509.07 354.45,509.04 355.14,509.01 355.82,509.01 356.51,508.99 357.20,509.07 357.89,509.17 358.58,509.14 359.26,509.23 359.95,509.33 360.64,509.34 361.33,509.30 362.02,509.33 362.70,509.54 363.39,509.55 364.08,509.64 364.77,509.65 365.46,509.75 366.14,509.61 366.83,509.56 367.52,509.58 368.21,509.66 368.90,509.40 369.58,509.44 370.27,509.51 370.96,509.61 371.65,509.64 372.34,509.77 373.02,509.87 373.71,510.03 374.40,510.09 375.09,510.24 375.78,510.27 376.46,510.38 377.15,510.24 377.84,510.39 378.53,510.43 379.22,510.42 379.90,510.32 380.59,510.31 381.28,510.49 381.97,510.55 382.66,510.57 383.34,510.68 384.03,510.70 384.72,510.66 385.41,510.56 386.10,510.88 386.78,510.83 387.47,510.93 388.16,511.01 388.85,511.04 389.54,511.05 390.22,511.00 390.91,510.91 391.60,510.85 392.29,510.88 392.98,510.79 393.66,510.68 394.35,510.80 395.04,510.83 395.73,510.92 396.42,511.01 397.10,511.12 397.79,511.16 398.48,511.08 399.17,510.96 399.86,510.98 400.54,510.92 401.23,510.90 401.92,511.07 402.61,511.04 403.30,510.95 403.98,511.04 404.67,511.15 405.36,511.16 406.05,511.28 406.74,511.22 407.42,511.33 408.11,511.35 408.80,511.45 409.49,511.49 410.18,511.45 410.86,511.51 411.55,511.53 412.24,511.49 412.93,511.50 413.62,511.46 414.30,511.47 414.99,511.43 415.68,511.48 416.37,511.63 417.06,511.68 417.74,511.75 418.43,511.86 419.12,511.82 419.81,511.91 420.50,512.00 421.18,512.13 421.87,512.03 422.56,512.08 423.25,512.09 423.94,512.21 424.62,512.13 425.31,512.13 426.00,512.13 426.69,512.07 427.38,512.21 428.06,512.22 428.75,512.23 429.44,512.20 430.13,512.26 430.82,512.26 431.50,512.19 432.19,512.38 432.88,512.40 433.57,512.41 434.26,512.42 434.94,512.43 435.63,512.37 436.32,512.33 437.01,512.41 437.70,512.54 438.38,512.36 439.07,512.41 439.76,512.37 440.45,512.35 441.14,512.35 441.82,512.41 442.51,512.64 443.20,512.74 443.89,512.72 444.58,512.81 445.26,512.99 445.95,513.10 446.64,513.16 447.33,513.15 448.02,513.19 448.70,513.30 449.39,513.17 450.08,513.11 450.77,513.22 451.46,513.24 452.14,513.20 452.83,513.32 453.52,513.31 454.21,513.30 454.90,513.29 455.58,513.38 456.27,513.42 456.96,513.42 457.65,513.46 458.34,513.45 459.02,513.54 459.71,513.44 460.40,513.34 461.09,513.37 461.78,513.31 462.46,513.21 463.15,513.20 463.84,513.17 464.53,513.16 465.22,513.15 465.90,513.16 466.59,513.23 467.28,513.28 467.97,513.17 468.66,513.22 469.34,513.19 470.03,513.18 470.72,513.24 471.41,513.32 472.10,513.11 472.78,513.12 473.47,513.09 474.16,513.15 474.85,513.17 475.54,513.27 476.22,513.25 476.91,513.15 477.60,513.10 478.29,513.16 478.98,513.16 479.66,513.15 480.35,513.11 481.04,513.29 481.73,513.35 482.42,513.40 483.10,513.43 483.79,513.37 484.48,513.48 485.17,513.53 485.86,513.47 486.54,513.57 487.23,513.52 487.92,513.58 488.61,513.54 489.30,513.67 489.98,513.70 490.67,513.79 491.36,513.75 492.05,513.74 492.74,513.66 493.42,513.67 494.11,513.75 494.80,513.94 495.49,514.04 496.18,514.10 496.86,514.12 497.55,514.13 498.24,514.04 498.93,513.89 499.62,513.94 500.30,513.87 500.99,513.99 501.68,513.85 502.37,513.87 503.06,513.90 503.74,514.00 504.43,514.08 505.12,514.03 505.81,514.23 506.50,514.30 507.18,514.28 507.87,514.25 508.56,514.22 509.25,514.19 509.94,514.22 510.62,514.24 511.31,514.36 512.00,514.28 512.69,514.22 513.38,514.26 514.06,514.33 514.75,514.33 515.44,514.44 516.13,514.57 516.82,514.62 517.50,514.72 518.19,514.87 518.88,514.98 519.57,515.04 520.26,515.09 520.94,515.06 521.63,515.12 522.32,515.20 523.01,515.19 523.70,515.25 524.38,515.36 525.07,515.34 525.76,515.43 526.45,515.42 527.14,515.34 527.82,515.33 528.51,515.26 529.20,515.35 529.89,515.30 530.58,515.30 531.26,515.45 531.95,515.53 532.64,515.53 533.33,515.62 534.02,515.65 534.70,515.70 535.39,515.54 536.08,515.42 536.77,515.30 537.46,515.32 538.14,515.40 538.83,515.35 539.52,515.41 540.21,515.37 540.90,515.40 541.58,515.38 542.27,515.44 542.96,515.40 543.65,515.43 544.34,515.66 545.02,515.69 545.71,515.72 546.40,515.73 547.09,515.75 547.78,515.79 548.46,515.66 549.15,515.66 549.84,515.55 550.53,515.58 551.22,515.65 551.90,515.61 552.59,515.64 553.28,515.80 553.97,515.93 554.66,516.06 555.34,516.04 556.03,516.06 556.72,516.02 557.41,516.07 558.10,516.04 558.78,516.00 559.47,516.03 560.16,516.18 560.85,516.21 561.54,516.13 562.22,516.12 562.91,516.23 563.60,516.32 564.29,516.41 564.98,516.37 565.66,516.44 566.35,516.41 567.04,516.47 567.73,516.33 568.42,516.30 569.10,516.29 569.79,516.36 570.48,516.29 571.17,516.25 571.86,516.12 572.54,516.16 573.23,516.30 573.92,516.26 574.61,516.31 575.30,516.26 575.98,516.38 576.67,516.38 577.36,516.33 578.05,516.38 578.74,516.38 579.42,516.29 580.11,516.20 580.80,516.12 581.49,516.09 582.18,516.11 582.86,516.09 583.55,516.02 584.24,516.02 584.93,516.14 585.62,516.24 586.30,516.22 586.99,516.33 587.68,516.43 588.37,516.54 589.06,516.48 589.74,516.49 590.43,516.27 591.12,516.34 591.81,516.27 592.50,516.27 593.18,516.20 593.87,516.27 594.56,516.33 595.25,516.28 595.94,516.30 596.62,516.41 597.31,516.47 598.00,516.53 598.69,516.50 599.38,516.58 600.06,516.65 600.75,516.74 601.44,516.86 602.13,516.84 602.82,516.74 603.50,516.76 604.19,516.81 604.88,516.83 605.57,516.78 606.26,516.89 606.94,516.79 607.63,516.89 608.32,516.89 609.01,516.84 609.70,516.97 610.38,517.04 611.07,517.01 611.76,517.01 612.45,517.04 613.14,517.08 613.82,517.13 614.51,517.10 615.20,517.06 615.89,517.06 616.58,516.99 617.26,516.96 617.95,516.91 618.64,516.86 619.33,516.83 620.02,517.03 620.70,516.98 621.39,516.86 622.08,516.90 622.77,516.81 623.46,516.98 624.14,517.05 624.83,517.08 625.52,517.07 626.21,517.13 626.90,517.13 627.58,517.04 628.27,517.06 628.96,517.12 629.65,517.17 630.34,517.26 631.02,517.31 631.71,517.31 632.40,517.39 633.09,517.56 633.78,517.60 634.46,517.64 635.15,517.86 635.84,517.89 636.53,517.97 637.22,517.76 637.90,517.84 638.59,517.80 639.28,517.81 639.97,517.83 640.66,517.86 641.34,517.86 642.03,517.88 642.72,517.96 643.41,517.90 644.10,517.82 644.78,517.94 645.47,517.96 646.16,517.85 646.85,517.83 647.54,517.76 648.22,517.71 648.91,517.78 649.60,517.75 650.29,517.74 650.98,517.76 651.66,517.69 652.35,517.67 653.04,517.70 653.73,517.71 654.42,517.65 655.10,517.71 655.79,517.78 656.48,517.82 657.17,517.93 657.86,517.78 658.54,517.82 659.23,517.82 659.92,517.79 660.61,517.91 661.30,517.92 661.98,517.89 662.67,517.87 663.36,517.92 664.05,518.00 664.74,517.92 665.42,517.92 666.11,517.89 666.80,517.97 667.49,517.95 668.18,517.97 668.86,517.93 669.55,517.90 670.24,517.92 670.93,517.86 671.62,518.02 672.30,517.95 672.99,518.01 673.68,517.90 674.37,517.93 675.06,518.00 675.74,517.96 676.43,518.08 677.12,518.13 677.81,518.10 678.50,518.16 679.18,518.05 679.87,518.14 680.56,518.08 681.25,518.12 681.94,518.09 682.62,518.09 683.31,518.18 684.00,518.12 684.69,518.08 685.38,518.08 686.06,518.15 686.75,518.27 687.44,518.21 688.13,518.20 688.82,518.19 689.50,518.33 690.19,518.26 690.88,518.36 691.57,518.26 692.26,518.23 692.94,518.23 693.63,518.10 694.32,518.09 695.01,518.19 695.70,518.17 696.38,518.28 697.07,518.27 697.76,518.26 698.45,518.18 699.14,518.22 699.82,518.33 700.51,518.37 701.20,518.43 701.89,518.40 702.58,518.44 703.26,518.45 703.95,518.36 704.64,518.39 705.33,518.52 706.02,518.50 706.70,518.37 707.39,518.38 708.08,518.48 708.77,518.55 709.46,518.51 710.14,518.58 710.83,518.69 711.52,518.68 712.21,518.55 712.90,518.56 713.58,518.58 714.27,518.57 714.96,518.73 715.65,518.77 716.34,518.82 717.02,518.74 717.71,518.67 718.40,518.71 719.09,518.70 719.78,518.66 720.46,518.68 721.15,518.61 721.84,518.63 722.53,518.66 723.22,518.74 723.90,518.80 724.59,518.91 725.28,518.83 725.97,518.85 726.66,518.97 727.34,518.86 728.03,518.95 728.72,518.93 729.41,519.01 730.10,519.04 730.78,518.94 731.47,518.96 732.16,518.87 732.85,518.86 733.54,518.95 734.22,518.98 734.91,518.93 735.60,518.79 736.29,518.85 736.98,518.95 737.66,518.95 738.35,519.20 739.04,519.28 739.73,519.16 740.42,519.09 741.10,519.08 741.79,519.08 742.48,519.04 743.17,518.97 743.86,518.84 744.54,518.88 745.23,518.72 745.92,518.73 746.61,518.80 747.30,518.76 747.98,518.90 748.67,518.80 749.36,518.79 750.05,518.75 750.74,518.72 751.42,518.75 752.11,518.73 752.80,518.84 753.49,518.81 754.18,518.72 754.86,518.76 755.55,518.58 756.24,518.54 756.93,518.59 757.62,518.63 758.30,518.67 758.99,518.60 759.68,518.63 760.37,518.70 761.06,518.76 761.74,518.76 762.43,518.78 763.12,518.73 763.81,518.62 764.50,518.69 765.18,518.71 765.87,518.87 766.56,518.88 767.25,518.89 767.94,518.76 768.62,518.83 769.31,518.82 770.00,518.81" fill="none" stroke="#16a34a" stroke-width="1.5" opacity="0.35"/>
<polyline points="99.20,439.77 116.40,468.70 133.60,482.86 150.80,489.66 168.00,494.79 185.20,497.37 202.40,499.13 219.60,501.80 236.80,503.29 254.00,504.05 271.20,505.01 288.40,506.64 305.60,507.15 322.80,508.46 340.00,509.12 357.20,509.46 374.40,509.68 391.60,511.72 408.80,511.98 426.00,512.46 443.20,512.87 460.40,513.19 477.60,513.67 494.80,513.74 512.00,514.51 529.20,514.81 546.40,515.34 563.60,515.64 580.80,516.15 598.00,516.37 615.20,516.51 632.40,517.45 649.60,517.67 666.80,517.71 684.00,518.07 701.20,517.96 718.40,517.85 735.60,518.14 752.80,518.80 770.00,518.89" fill="none" stroke="#16a34a" stroke-width="2.5"/>
<circle cx="99.20" cy="439.77" r="2.4" fill="#16a34a"/>
<circle cx="116.40" cy="468.70" r="2.4" fill="#16a34a"/>
<circle cx="133.60" cy="482.86" r="2.4" fill="#16a34a"/>
<circle cx="150.80" cy="489.66" r="2.4" fill="#16a34a"/>
<circle cx="168.00" cy="494.79" r="2.4" fill="#16a34a"/>
<circle cx="185.20" cy="497.37" r="2.4" fill="#16a34a"/>
<circle cx="202.40" cy="499.13" r="2.4" fill="#16a34a"/>
<circle cx="219.60" cy="501.80" r="2.4" fill="#16a34a"/>
<circle cx="236.80" cy="503.29" r="2.4" fill="#16a34a"/>
<circle cx="254.00" cy="504.05" r="2.4" fill="#16a34a"/>
<circle cx="271.20" cy="505.01" r="2.4" fill="#16a34a"/>
<circle cx="288.40" cy="506.64" r="2.4" fill="#16a34a"/>
<circle cx="305.60" cy="507.15" r="2.4" fill="#16a34a"/>
<circle cx="322.80" cy="508.46" r="2.4" fill="#16a34a"/>
<circle cx="340.00" cy="509.12" r="2.4" fill="#16a34a"/>
<circle cx="357.20" cy="509.46" r="2.4" fill="#16a34a"/>
<circle cx="374.40" cy="509.68" r="2.4" fill="#16a34a"/>
<circle cx="391.60" cy="511.72" r="2.4" fill="#16a34a"/>
<circle cx="408.80" cy="511.98" r="2.4" fill="#16a34a"/>
<circle cx="426.00" cy="512.46" r="2.4" fill="#16a34a"/>
<circle cx="443.20" cy="512.87" r="2.4" fill="#16a34a"/>
<circle cx="460.40" cy="513.19" r="2.4" fill="#16a34a"/>
<circle cx="477.60" cy="513.67" r="2.4" fill="#16a34a"/>
<circle cx="494.80" cy="513.74" r="2.4" fill="#16a34a"/>
<circle cx="512.00" cy="514.51" r="2.4" fill="#16a34a"/>
<circle cx="529.20" cy="514.81" r="2.4" fill="#16a34a"/>
<circle cx="546.40" cy="515.34" r="2.4" fill="#16a34a"/>
<circle cx="563.60" cy="515.64" r="2.4" fill="#16a34a"/>
<circle cx="580.80" cy="516.15" r="2.4" fill="#16a34a"/>
<circle cx="598.00" cy="516.37" r="2.4" fill="#16a34a"/>
<circle cx="615.20" cy="516.51" r="2.4" fill="#16a34a"/>
<circle cx="632.40" cy="517.45" r="2.4" fill="#16a34a"/>
<circle cx="649.60" cy="517.67" r="2.4" fill="#16a34a"/>
<circle cx="666.80" cy="517.71" r="2.4" fill="#16a34a"/>
<circle cx="684.00" cy="518.07" r="2.4" fill="#16a34a"/>
<circle cx="701.20" cy="517.96" r="2.4" fill="#16a34a"/>
<circle cx="718.40" cy="517.85" r="2.4" fill="#16a34a"/>
<circle cx="735.60" cy="518.14" r="2.4" fill="#16a34a"/>
<circle cx="752.80" cy="518.80" r="2.4" fill="#16a34a"/>
<circle cx="770.00" cy="518.89" r="2.4" fill="#16a34a"/>
<polyline points="82.07,115.98 82.69,118.85 83.38,126.72 84.06,138.31 84.75,151.61 85.44,166.04 86.13,181.46 86.82,197.19 87.50,212.14 88.19,225.94 88.88,238.46 89.57,249.94 90.26,259.91 90.94,269.23 91.63,277.45 92.32,284.91 93.01,291.67 93.70,297.85 94.38,303.59 95.07,308.85 95.76,313.45 96.45,317.95 97.14,322.19 97.82,326.18 98.51,329.87 99.20,342.00 99.89,353.98 100.58,365.41 101.26,375.51 101.95,384.55 102.64,392.31 103.33,398.65 104.02,403.80 104.70,408.06 105.39,411.57 106.08,414.68 106.77,417.37 107.46,419.84 108.14,422.07" fill="none" stroke="#dc2626" stroke-width="1.5" opacity="0.35"/>
<polyline points="99.20,422.32" fill="none" stroke="#dc2626" stroke-width="2.5"/>
<circle cx="99.20" cy="422.32" r="2.4" fill="#dc2626"/>
<polyline points="82.07,78.00" fill="none" stroke="#9333ea" stroke-width="1.5" opacity="0.35"/>
<line x1="794" y1="86" x2="819" y2="86" stroke="#111827" stroke-width="3"/>
<text x="828" y="90" font-family="sans-serif" font-size="12" fill="#111827">Baseline</text>
<line x1="794" y1="116" x2="819" y2="116" stroke="#2563eb" stroke-width="3"/>
<text x="828" y="120" font-family="sans-serif" font-size="12" fill="#111827">Post-Norm</text>
<line x1="794" y1="146" x2="819" y2="146" stroke="#16a34a" stroke-width="3"/>
<text x="828" y="150" font-family="sans-serif" font-size="12" fill="#111827">SiLU FFN</text>
<line x1="794" y1="176" x2="819" y2="176" stroke="#dc2626" stroke-width="3"/>
<text x="828" y="180" font-family="sans-serif" font-size="12" fill="#111827">NoPE (diverged)</text>
<line x1="794" y1="206" x2="819" y2="206" stroke="#9333ea" stroke-width="3"/>
<text x="828" y="210" font-family="sans-serif" font-size="12" fill="#111827">No RMSNorm (diverged)</text>
<text x="794" y="258" font-family="sans-serif" font-size="11" fill="#6b7280">faint: smoothed train</text>
<text x="794" y="274" font-family="sans-serif" font-size="11" fill="#6b7280">solid + dots: validation</text>
</svg>
