<svg xmlns="http://www.w3.org/2000/svg" width="1000" height="600" viewBox="0 0 1000 600">
<rect width="100%" height="100%" fill="#ffffff"/>
<text x="82" y="34" font-family="sans-serif" font-size="22" font-weight="700" fill="#111827">TinyStories batch-size comparison</text>
<text x="82" y="57" font-family="sans-serif" font-size="13" fill="#4b5563">Fixed 327.68M-token budget where completed; batch 1 partial, batch 512 OOM</text>
<line x1="82" y1="528.00" x2="770" y2="528.00" stroke="#e5e7eb"/>
<text x="70" y="532.00" text-anchor="end" font-family="sans-serif" font-size="12" fill="#4b5563">1.20</text>
<line x1="82" y1="438.00" x2="770" y2="438.00" stroke="#e5e7eb"/>
<text x="70" y="442.00" text-anchor="end" font-family="sans-serif" font-size="12" fill="#4b5563">1.96</text>
<line x1="82" y1="348.00" x2="770" y2="348.00" stroke="#e5e7eb"/>
<text x="70" y="352.00" text-anchor="end" font-family="sans-serif" font-size="12" fill="#4b5563">2.72</text>
<line x1="82" y1="258.00" x2="770" y2="258.00" stroke="#e5e7eb"/>
<text x="70" y="262.00" text-anchor="end" font-family="sans-serif" font-size="12" fill="#4b5563">3.48</text>
<line x1="82" y1="168.00" x2="770" y2="168.00" stroke="#e5e7eb"/>
<text x="70" y="172.00" text-anchor="end" font-family="sans-serif" font-size="12" fill="#4b5563">4.24</text>
<line x1="82" y1="78.00" x2="770" y2="78.00" stroke="#e5e7eb"/>
<text x="70" y="82.00" text-anchor="end" font-family="sans-serif" font-size="12" fill="#4b5563">5.00</text>
<line x1="82.00" y1="78" x2="82.00" y2="528" stroke="#f3f4f6"/>
<text x="82.00" y="553" text-anchor="middle" font-family="sans-serif" font-size="12" fill="#4b5563">0</text>
<line x1="219.60" y1="78" x2="219.60" y2="528" stroke="#f3f4f6"/>
<text x="219.60" y="553" text-anchor="middle" font-family="sans-serif" font-size="12" fill="#4b5563">66</text>
<line x1="357.20" y1="78" x2="357.20" y2="528" stroke="#f3f4f6"/>
<text x="357.20" y="553" text-anchor="middle" font-family="sans-serif" font-size="12" fill="#4b5563">131</text>
<line x1="494.80" y1="78" x2="494.80" y2="528" stroke="#f3f4f6"/>
<text x="494.80" y="553" text-anchor="middle" font-family="sans-serif" font-size="12" fill="#4b5563">197</text>
<line x1="632.40" y1="78" x2="632.40" y2="528" stroke="#f3f4f6"/>
<text x="632.40" y="553" text-anchor="middle" font-family="sans-serif" font-size="12" fill="#4b5563">262</text>
<line x1="770.00" y1="78" x2="770.00" y2="528" stroke="#f3f4f6"/>
<text x="770.00" y="553" text-anchor="middle" font-family="sans-serif" font-size="12" fill="#4b5563">328</text>
<line x1="82" y1="528" x2="770" y2="528" stroke="#111827"/>
<line x1="82" y1="78" x2="82" y2="528" stroke="#111827"/>
<text x="426.0" y="580" text-anchor="middle" font-family="sans-serif" font-size="13" fill="#111827">Processed tokens (millions)</text>
<text x="22" y="303.0" transform="rotate(-90 22 303.0)" text-anchor="middle" font-family="sans-serif" font-size="13" fill="#111827">Cross-entropy loss</text>
<polyline points="82.07,78.00 82.69,78.00 83.38,78.00 84.06,78.00 84.75,78.00 85.44,78.00 86.13,78.00 86.82,78.00 87.50,78.00 88.19,78.00 88.88,78.00 89.57,78.00 90.26,78.00 90.94,78.00 91.63,78.00 92.32,78.00 93.01,78.00 93.70,78.00 94.38,78.00 95.07,78.00 95.76,78.00 96.45,78.00 97.14,78.00 97.82,79.92 98.51,89.80 99.20,119.98 99.89,149.93 100.58,178.59 101.26,204.31 101.95,227.42 102.64,247.39 103.33,264.22 104.02,278.16 104.70,290.07 105.39,300.03 106.08,308.89 106.77,316.56 107.46,323.46 108.14,329.45 108.83,334.98 109.52,340.23 110.21,345.16 110.90,349.57 111.58,353.61 112.27,357.50 112.96,361.85 113.65,365.53 114.34,368.63 115.02,371.52 115.71,374.64 116.40,377.69 117.09,380.77 117.78,382.95 118.46,385.49 119.15,388.02 119.84,390.46 120.53,392.76 121.22,394.65 121.90,396.69 122.59,398.69 123.28,400.54 123.97,402.15 124.66,403.96 125.34,405.81 126.03,407.74 126.72,409.41 127.41,410.97 128.10,412.41 128.78,413.87 129.47,415.29 130.16,416.65 130.85,417.78 131.54,419.18 132.22,420.61 132.91,421.74 133.60,423.22 134.29,423.99 134.98,425.72 135.66,426.54 136.35,427.33 137.04,428.29 137.73,429.15 138.42,430.22 139.10,430.81 139.79,431.83 140.48,432.49 141.17,433.48 141.86,434.26 142.54,434.84 143.23,435.58 143.92,436.19 144.61,437.02 145.30,437.77 145.98,438.45 146.67,439.14 147.36,439.61 148.05,440.36 148.74,440.99 149.42,441.38 150.11,441.81 150.80,442.12 151.49,442.65 152.18,442.64 152.86,443.36 153.55,443.65 154.24,444.00 154.93,444.30 155.62,444.58 156.30,445.09 156.99,445.38 157.68,445.85 158.37,446.48 159.06,447.17 159.74,447.84 160.43,448.62 161.12,449.10 161.81,449.09 162.50,449.39 163.18,450.04 163.87,450.33 164.56,451.01 165.25,451.43 165.94,451.85 166.62,452.29 167.31,452.79 168.00,453.09 168.69,453.62 169.38,453.90 170.06,454.24 170.75,455.07 171.44,455.35 172.13,455.74 172.82,456.33 173.50,456.73 174.19,457.25 174.88,457.77 175.57,457.92 176.26,458.21 176.94,458.24 177.63,458.12 178.32,458.00 179.01,458.66 179.70,459.34 180.38,459.36 181.07,459.78 181.76,459.75 182.45,459.82 183.14,459.77 183.82,460.04 184.51,460.32 185.20,460.53 185.89,460.78 186.58,460.87 187.26,461.03 187.95,460.98 188.64,461.44 189.33,461.64 190.02,461.92 190.70,462.02 191.39,461.99 192.08,461.87 192.77,462.42 193.46,462.59 194.14,462.92 194.83,463.02 195.52,463.80 196.21,463.70 196.90,463.62 197.58,463.97 198.27,463.89 198.96,464.40 199.65,464.40 200.34,464.79 201.02,465.02 201.71,465.34 202.40,465.58 203.09,465.79 203.78,466.22 204.46,466.41 205.15,466.40 205.84,466.72 206.53,467.15 207.22,467.22 207.90,467.65 208.59,467.96 209.28,468.37 209.97,468.00 210.66,468.01 211.34,468.08 212.03,468.34 212.72,468.31 213.41,468.68 214.10,468.92 214.78,469.01 215.47,469.43 216.16,469.28 216.85,470.06 217.54,470.19 218.22,470.51 218.91,470.39 219.60,470.60 220.29,470.39 220.98,470.38 221.66,470.53 222.35,470.90 223.04,470.74 223.73,470.67 224.42,470.70 225.10,470.58 225.79,470.74 226.48,471.12 227.17,471.23 227.86,471.43 228.54,471.53 229.23,471.70 229.92,471.64 230.61,471.59 231.30,472.00 231.98,472.01 232.67,471.97 233.36,472.07 234.05,471.72 234.74,471.83 235.42,471.52 236.11,471.87 236.80,471.76 237.49,472.10 238.18,472.34 238.86,472.35 239.55,472.27 240.24,472.56 240.93,472.65 241.62,472.89 242.30,473.15 242.99,473.08 243.68,472.79 244.37,472.90 245.06,473.11 245.74,473.54 246.43,473.62 247.12,474.16 247.81,474.41 248.50,474.04 249.18,474.45 249.87,474.70 250.56,474.71 251.25,474.86 251.94,474.97 252.62,475.63 253.31,475.74 254.00,476.25 254.69,476.55 255.38,476.44 256.06,476.54 256.75,476.89 257.44,476.67 258.13,477.12 258.82,477.26 259.50,477.33 260.19,477.28 260.88,477.66 261.57,478.01 262.26,478.14 262.94,478.01 263.63,478.08 264.32,478.02 265.01,477.87 265.70,478.21 266.38,478.06 267.07,478.17 267.76,478.31 268.45,478.48 269.14,478.57 269.82,478.43 270.51,478.19 271.20,478.07 271.89,477.84 272.58,478.14 273.26,478.08 273.95,477.80 274.64,478.06 275.33,477.89 276.02,477.86 276.70,477.97 277.39,478.53 278.08,478.46 278.77,478.29 279.46,478.54 280.14,478.63 280.83,478.79 281.52,478.83 282.21,479.16 282.90,479.26 283.58,479.34 284.27,479.26 284.96,479.76 285.65,480.21 286.34,480.31 287.02,480.21 287.71,480.62 288.40,480.66 289.09,480.73 289.78,480.83 290.46,481.24 291.15,481.37 291.84,481.53 292.53,481.44 293.22,481.47 293.90,481.47 294.59,481.38 295.28,481.46 295.97,481.56 296.66,481.40 297.34,481.65 298.03,481.72 298.72,481.72 299.41,481.86 300.10,481.98 300.78,482.19 301.47,482.13 302.16,482.21 302.85,481.71 303.54,482.01 304.22,482.20 304.91,482.25 305.60,482.29 306.29,482.43 306.98,482.67 307.66,482.40 308.35,482.76 309.04,482.94 309.73,483.26 310.42,483.41 311.10,483.45 311.79,483.47 312.48,483.61 313.17,483.64 313.86,483.72 314.54,483.56 315.23,483.64 315.92,483.63 316.61,483.67 317.30,484.00 317.98,483.98 318.67,484.20 319.36,484.10 320.05,484.26 320.74,484.13 321.42,484.03 322.11,483.82 322.80,484.12 323.49,484.38 324.18,484.38 324.86,484.87 325.55,484.65 326.24,484.50 326.93,484.50 327.62,484.58 328.30,484.63 328.99,484.93 329.68,484.83 330.37,485.28 331.06,485.39 331.74,485.74 332.43,485.43 333.12,485.53 333.81,485.67 334.50,485.20 335.18,485.28 335.87,485.57 336.56,485.43 337.25,485.73 337.94,485.83 338.62,486.12 339.31,486.40 340.00,486.11 340.69,485.84 341.38,486.05 342.06,485.80 342.75,486.09 343.44,486.07 344.13,486.25 344.82,486.45 345.50,486.45 346.19,486.32 346.88,486.25 347.57,486.20 348.26,486.08 348.94,486.26 349.63,486.84 350.32,487.09 351.01,487.00 351.70,487.33 352.38,487.45 353.07,487.17 353.76,487.28 354.45,487.19 355.14,487.12 355.82,487.16 356.51,487.08 357.20,487.26 357.89,487.51 358.58,487.45 359.26,487.63 359.95,487.86 360.64,487.88 361.33,487.78 362.02,487.81 362.70,488.30 363.39,488.31 364.08,488.53 364.77,488.54 365.46,488.79 366.14,488.47 366.83,488.30 367.52,488.36 368.21,488.53 368.90,487.92 369.58,488.01 370.27,488.14 370.96,488.31 371.65,488.40 372.34,488.68 373.02,488.87 373.71,489.22 374.40,489.32 375.09,489.68 375.78,489.75 376.46,489.98 377.15,489.66 377.84,489.99 378.53,490.09 379.22,490.08 379.90,489.86 380.59,489.84 381.28,490.26 381.97,490.37 382.66,490.39 383.34,490.61 384.03,490.69 384.72,490.54 385.41,490.34 386.10,491.09 386.78,491.00 387.47,491.23 388.16,491.42 388.85,491.49 389.54,491.52 390.22,491.36 390.91,491.17 391.60,491.06 392.29,491.14 392.98,490.91 393.66,490.67 394.35,490.91 395.04,490.97 395.73,491.16 396.42,491.31 397.10,491.54 397.79,491.65 398.48,491.49 399.17,491.19 399.86,491.24 400.54,491.07 401.23,491.07 401.92,491.49 402.61,491.41 403.30,491.21 403.98,491.38 404.67,491.64 405.36,491.66 406.05,491.90 406.74,491.77 407.42,492.02 408.11,492.05 408.80,492.29 409.49,492.35 410.18,492.29 410.86,492.46 411.55,492.52 412.24,492.46 412.93,492.44 413.62,492.38 414.30,492.41 414.99,492.31 415.68,492.40 416.37,492.73 417.06,492.85 417.74,493.05 418.43,493.28 419.12,493.18 419.81,493.37 420.50,493.55 421.18,493.87 421.87,493.62 422.56,493.72 423.25,493.78 423.94,494.06 424.62,493.91 425.31,493.90 426.00,493.90 426.69,493.74 427.38,494.06 428.06,494.01 428.75,494.02 429.44,493.95 430.13,494.10 430.82,494.08 431.50,493.92 432.19,494.36 432.88,494.46 433.57,494.52 434.26,494.53 434.94,494.56 435.63,494.38 436.32,494.30 437.01,494.50 437.70,494.82 438.38,494.37 439.07,494.51 439.76,494.46 440.45,494.38 441.14,494.39 441.82,494.50 442.51,495.05 443.20,495.27 443.89,495.27 444.58,495.45 445.26,495.87 445.95,496.10 446.64,496.25 447.33,496.19 448.02,496.30 448.70,496.56 449.39,496.26 450.08,496.06 450.77,496.31 451.46,496.34 452.14,496.22 452.83,496.48 453.52,496.49 454.21,496.44 454.90,496.43 455.58,496.63 456.27,496.68 456.96,496.68 457.65,496.75 458.34,496.71 459.02,496.94 459.71,496.69 460.40,496.47 461.09,496.50 461.78,496.37 462.46,496.09 463.15,496.07 463.84,496.03 464.53,496.00 465.22,495.96 465.90,495.97 466.59,496.11 467.28,496.25 467.97,495.97 468.66,496.10 469.34,496.06 470.03,496.02 470.72,496.10 471.41,496.29 472.10,495.83 472.78,495.89 473.47,495.85 474.16,495.96 474.85,495.98 475.54,496.25 476.22,496.14 476.91,495.96 477.60,495.88 478.29,496.06 478.98,496.07 479.66,496.11 480.35,496.01 481.04,496.39 481.73,496.54 482.42,496.66 483.10,496.77 483.79,496.63 484.48,496.87 485.17,497.04 485.86,496.87 486.54,497.09 487.23,496.98 487.92,497.17 488.61,497.07 489.30,497.38 489.98,497.43 490.67,497.61 491.36,497.53 492.05,497.55 492.74,497.33 493.42,497.38 494.11,497.55 494.80,497.94 495.49,498.18 496.18,498.30 496.86,498.25 497.55,498.31 498.24,498.10 498.93,497.75 499.62,497.85 500.30,497.64 500.99,497.95 501.68,497.60 502.37,497.62 503.06,497.71 503.74,497.92 504.43,498.12 505.12,497.95 505.81,498.39 506.50,498.55 507.18,498.50 507.87,498.45 508.56,498.39 509.25,498.31 509.94,498.42 510.62,498.50 511.31,498.78 512.00,498.62 512.69,498.46 513.38,498.56 514.06,498.74 514.75,498.71 515.44,498.98 516.13,499.31 516.82,499.45 517.50,499.71 518.19,500.02 518.88,500.33 519.57,500.49 520.26,500.55 520.94,500.49 521.63,500.61 522.32,500.82 523.01,500.82 523.70,500.94 524.38,501.18 525.07,501.14 525.76,501.30 526.45,501.27 527.14,501.08 527.82,501.04 528.51,500.87 529.20,501.10 529.89,501.00 530.58,500.98 531.26,501.35 531.95,501.58 532.64,501.55 533.33,501.76 534.02,501.79 534.70,501.91 535.39,501.50 536.08,501.18 536.77,500.93 537.46,501.00 538.14,501.18 538.83,501.04 539.52,501.16 540.21,501.02 540.90,501.10 541.58,501.04 542.27,501.19 542.96,501.15 543.65,501.25 544.34,501.74 545.02,501.82 545.71,501.90 546.40,501.86 547.09,501.90 547.78,502.00 548.46,501.70 549.15,501.70 549.84,501.42 550.53,501.46 551.22,501.63 551.90,501.51 552.59,501.63 553.28,502.00 553.97,502.32 554.66,502.61 555.34,502.57 556.03,502.64 556.72,502.56 557.41,502.71 558.10,502.66 558.78,502.58 559.47,502.63 560.16,502.94 560.85,502.98 561.54,502.83 562.22,502.75 562.91,503.00 563.60,503.20 564.29,503.39 564.98,503.31 565.66,503.46 566.35,503.38 567.04,503.53 567.73,503.22 568.42,503.14 569.10,503.13 569.79,503.30 570.48,503.17 571.17,503.05 571.86,502.72 572.54,502.82 573.23,503.14 573.92,503.04 574.61,503.18 575.30,503.03 575.98,503.34 576.67,503.38 577.36,503.24 578.05,503.37 578.74,503.35 579.42,503.16 580.11,502.94 580.80,502.80 581.49,502.74 582.18,502.78 582.86,502.74 583.55,502.54 584.24,502.54 584.93,502.86 585.62,503.08 586.30,503.02 586.99,503.24 587.68,503.46 588.37,503.70 589.06,503.56 589.74,503.62 590.43,503.08 591.12,503.29 591.81,503.07 592.50,503.07 593.18,502.89 593.87,502.99 594.56,503.13 595.25,503.03 595.94,503.07 596.62,503.30 597.31,503.46 598.00,503.56 598.69,503.52 599.38,503.68 600.06,503.83 600.75,504.04 601.44,504.31 602.13,504.26 602.82,504.00 603.50,504.05 604.19,504.17 604.88,504.17 605.57,504.10 606.26,504.33 606.94,504.10 607.63,504.32 608.32,504.29 609.01,504.21 609.70,504.47 610.38,504.65 611.07,504.55 611.76,504.56 612.45,504.64 613.14,504.75 613.82,504.89 614.51,504.81 615.20,504.73 615.89,504.71 616.58,504.57 617.26,504.50 617.95,504.36 618.64,504.25 619.33,504.22 620.02,504.66 620.70,504.55 621.39,504.28 622.08,504.39 622.77,504.20 623.46,504.59 624.14,504.77 624.83,504.88 625.52,504.86 626.21,505.00 626.90,505.02 627.58,504.82 628.27,504.89 628.96,505.00 629.65,505.10 630.34,505.27 631.02,505.39 631.71,505.41 632.40,505.59 633.09,505.97 633.78,506.05 634.46,506.19 635.15,506.73 635.84,506.76 636.53,506.91 637.22,506.42 637.90,506.60 638.59,506.49 639.28,506.52 639.97,506.54 640.66,506.60 641.34,506.58 642.03,506.61 642.72,506.83 643.41,506.68 644.10,506.49 644.78,506.75 645.47,506.80 646.16,506.56 646.85,506.52 647.54,506.37 648.22,506.23 648.91,506.35 649.60,506.29 650.29,506.25 650.98,506.27 651.66,506.12 652.35,506.06 653.04,506.15 653.73,506.19 654.42,506.05 655.10,506.23 655.79,506.39 656.48,506.47 657.17,506.69 657.86,506.33 658.54,506.44 659.23,506.38 659.92,506.29 660.61,506.54 661.30,506.57 661.98,506.51 662.67,506.48 663.36,506.58 664.05,506.73 664.74,506.57 665.42,506.57 666.11,506.55 666.80,506.71 667.49,506.67 668.18,506.75 668.86,506.61 669.55,506.51 670.24,506.57 670.93,506.43 671.62,506.79 672.30,506.62 672.99,506.78 673.68,506.50 674.37,506.61 675.06,506.80 675.74,506.67 676.43,507.01 677.12,507.14 677.81,507.04 678.50,507.19 679.18,506.95 679.87,507.14 680.56,506.98 681.25,507.11 681.94,507.05 682.62,507.09 683.31,507.27 684.00,507.15 684.69,507.04 685.38,507.01 686.06,507.17 686.75,507.47 687.44,507.32 688.13,507.28 688.82,507.26 689.50,507.59 690.19,507.41 690.88,507.66 691.57,507.43 692.26,507.34 692.94,507.32 693.63,507.02 694.32,506.99 695.01,507.25 695.70,507.19 696.38,507.42 697.07,507.38 697.76,507.38 698.45,507.19 699.14,507.22 699.82,507.42 700.51,507.52 701.20,507.63 701.89,507.60 702.58,507.72 703.26,507.79 703.95,507.55 704.64,507.61 705.33,507.93 706.02,507.88 706.70,507.57 707.39,507.61 708.08,507.82 708.77,507.97 709.46,507.89 710.14,508.08 710.83,508.32 711.52,508.31 712.21,508.01 712.90,508.03 713.58,508.08 714.27,508.07 714.96,508.44 715.65,508.52 716.34,508.68 717.02,508.50 717.71,508.32 718.40,508.44 719.09,508.36 719.78,508.27 720.46,508.31 721.15,508.16 721.84,508.16 722.53,508.22 723.22,508.40 723.90,508.56 724.59,508.81 725.28,508.64 725.97,508.71 726.66,508.95 727.34,508.69 728.03,508.90 728.72,508.81 729.41,508.98 730.10,509.03 730.78,508.79 731.47,508.84 732.16,508.67 732.85,508.66 733.54,508.88 734.22,508.96 734.91,508.88 735.60,508.51 736.29,508.61 736.98,508.84 737.66,508.84 738.35,509.40 739.04,509.63 739.73,509.35 740.42,509.17 741.10,509.17 741.79,509.14 742.48,509.07 743.17,508.88 743.86,508.61 744.54,508.72 745.23,508.35 745.92,508.39 746.61,508.56 747.30,508.46 747.98,508.81 748.67,508.57 749.36,508.54 750.05,508.46 750.74,508.39 751.42,508.44 752.11,508.40 752.80,508.65 753.49,508.62 754.18,508.43 754.86,508.52 755.55,508.14 756.24,508.03 756.93,508.14 757.62,508.25 758.30,508.31 758.99,508.13 759.68,508.16 760.37,508.37 761.06,508.51 761.74,508.49 762.43,508.53 763.12,508.42 763.81,508.18 764.50,508.34 765.18,508.37 765.87,508.74 766.56,508.77 767.25,508.81 767.94,508.49 768.62,508.67 769.31,508.65 770.00,508.62" fill="none" stroke="#111827" stroke-width="1.5" opacity="0.35"/>
<polyline points="99.20,336.22 116.40,405.89 133.60,435.13 150.80,448.31 168.00,458.66 185.20,463.02 202.40,467.22 219.60,471.92 236.80,474.75 254.00,476.56 271.20,478.41 288.40,482.16 305.60,483.03 322.80,485.77 340.00,487.13 357.20,487.89 374.40,488.46 391.60,492.89 408.80,493.50 426.00,494.54 443.20,495.43 460.40,495.97 477.60,497.16 494.80,497.20 512.00,499.17 529.20,499.66 546.40,500.85 563.60,501.35 580.80,502.52 598.00,503.02 615.20,503.33 632.40,505.52 649.60,506.09 666.80,506.18 684.00,506.88 701.20,506.59 718.40,506.27 735.60,506.98 752.80,508.28 770.00,508.60" fill="none" stroke="#111827" stroke-width="2.5"/>
<circle cx="99.20" cy="336.22" r="2.4" fill="#111827"/>
<circle cx="116.40" cy="405.89" r="2.4" fill="#111827"/>
<circle cx="133.60" cy="435.13" r="2.4" fill="#111827"/>
<circle cx="150.80" cy="448.31" r="2.4" fill="#111827"/>
<circle cx="168.00" cy="458.66" r="2.4" fill="#111827"/>
<circle cx="185.20" cy="463.02" r="2.4" fill="#111827"/>
<circle cx="202.40" cy="467.22" r="2.4" fill="#111827"/>
<circle cx="219.60" cy="471.92" r="2.4" fill="#111827"/>
<circle cx="236.80" cy="474.75" r="2.4" fill="#111827"/>
<circle cx="254.00" cy="476.56" r="2.4" fill="#111827"/>
<circle cx="271.20" cy="478.41" r="2.4" fill="#111827"/>
<circle cx="288.40" cy="482.16" r="2.4" fill="#111827"/>
<circle cx="305.60" cy="483.03" r="2.4" fill="#111827"/>
<circle cx="322.80" cy="485.77" r="2.4" fill="#111827"/>
<circle cx="340.00" cy="487.13" r="2.4" fill="#111827"/>
<circle cx="357.20" cy="487.89" r="2.4" fill="#111827"/>
<circle cx="374.40" cy="488.46" r="2.4" fill="#111827"/>
<circle cx="391.60" cy="492.89" r="2.4" fill="#111827"/>
<circle cx="408.80" cy="493.50" r="2.4" fill="#111827"/>
<circle cx="426.00" cy="494.54" r="2.4" fill="#111827"/>
<circle cx="443.20" cy="495.43" r="2.4" fill="#111827"/>
<circle cx="460.40" cy="495.97" r="2.4" fill="#111827"/>
<circle cx="477.60" cy="497.16" r="2.4" fill="#111827"/>
<circle cx="494.80" cy="497.20" r="2.4" fill="#111827"/>
<circle cx="512.00" cy="499.17" r="2.4" fill="#111827"/>
<circle cx="529.20" cy="499.66" r="2.4" fill="#111827"/>
<circle cx="546.40" cy="500.85" r="2.4" fill="#111827"/>
<circle cx="563.60" cy="501.35" r="2.4" fill="#111827"/>
<circle cx="580.80" cy="502.52" r="2.4" fill="#111827"/>
<circle cx="598.00" cy="503.02" r="2.4" fill="#111827"/>
<circle cx="615.20" cy="503.33" r="2.4" fill="#111827"/>
<circle cx="632.40" cy="505.52" r="2.4" fill="#111827"/>
<circle cx="649.60" cy="506.09" r="2.4" fill="#111827"/>
<circle cx="666.80" cy="506.18" r="2.4" fill="#111827"/>
<circle cx="684.00" cy="506.88" r="2.4" fill="#111827"/>
<circle cx="701.20" cy="506.59" r="2.4" fill="#111827"/>
<circle cx="718.40" cy="506.27" r="2.4" fill="#111827"/>
<circle cx="735.60" cy="506.98" r="2.4" fill="#111827"/>
<circle cx="752.80" cy="508.28" r="2.4" fill="#111827"/>
<circle cx="770.00" cy="508.60" r="2.4" fill="#111827"/>
<polyline points="82.14,78.00 82.69,78.00 83.38,78.00 84.06,78.00 84.75,78.00 85.44,78.00 86.13,78.00 86.82,78.00 87.50,78.00 88.19,78.00 88.88,78.00 89.57,78.00 90.26,78.00 90.94,78.00 91.63,78.00 92.32,78.00 93.01,78.00 93.70,78.00 94.38,78.00 95.07,78.00 95.76,78.00 96.45,78.00 97.14,78.00 97.82,78.00 98.51,78.00 99.20,78.00 99.89,78.00 100.58,83.30 101.26,109.83 101.95,134.54 102.64,157.40 103.33,178.68 104.02,197.99 104.70,215.15 105.39,230.15 106.08,243.54 106.77,255.27 107.46,265.54 108.14,274.90 108.83,283.07 109.52,290.52 110.21,297.49 110.90,303.86 111.58,309.72 112.27,315.29 112.96,320.83 113.65,325.82 114.34,330.41 115.02,334.63 115.71,338.88 116.40,342.71 117.09,346.71 117.78,350.13 118.46,353.48 119.15,356.99 119.84,360.28 120.53,363.19 121.22,365.75 121.90,368.53 122.59,371.06 123.28,373.36 123.97,375.76 124.66,378.38 125.34,380.58 126.03,383.13 126.72,385.47 127.41,387.51 128.10,389.38 128.78,391.26 129.47,393.22 130.16,394.86 130.85,396.55 131.54,398.29 132.22,399.91 132.91,401.66 133.60,403.69 134.29,405.24 134.98,407.04 135.66,408.43 136.35,409.77 137.04,411.09 137.73,412.40 138.42,413.99 139.10,414.99 139.79,416.40 140.48,417.74 141.17,418.88 141.86,419.79 142.54,420.86 143.23,421.80 143.92,422.68 144.61,423.80 145.30,424.80 145.98,425.87 146.67,426.70 147.36,427.54 148.05,428.34 148.74,429.19 149.42,430.06 150.11,430.74 150.80,431.20 151.49,431.67 152.18,431.99 152.86,433.01 153.55,433.63 154.24,434.43 154.93,434.97 155.62,435.38 156.30,436.15 156.99,436.63 157.68,437.14 158.37,437.90 159.06,438.68 159.74,439.37 160.43,440.09 161.12,440.62 161.81,440.67 162.50,441.16 163.18,441.70 163.87,442.14 164.56,442.86 165.25,443.45 165.94,443.91 166.62,444.39 167.31,444.92 168.00,445.49 168.69,446.09 169.38,446.65 170.06,446.91 170.75,447.31 171.44,447.55 172.13,448.01 172.82,448.44 173.50,448.79 174.19,449.36 174.88,449.89 175.57,450.07 176.26,450.50 176.94,450.64 177.63,450.79 178.32,451.07 179.01,451.79 179.70,452.36 180.38,452.64 181.07,453.06 181.76,453.25 182.45,453.44 183.14,453.75 183.82,454.16 184.51,454.54 185.20,454.73 185.89,455.01 186.58,455.20 187.26,455.51 187.95,455.85 188.64,456.37 189.33,456.64 190.02,456.99 190.70,457.15 191.39,457.26 192.08,457.51 192.77,458.12 193.46,458.34 194.14,458.61 194.83,458.74 195.52,459.18 196.21,459.31 196.90,459.29 197.58,459.66 198.27,459.81 198.96,460.19 199.65,460.33 200.34,460.63 201.02,460.75 201.71,460.97 202.40,461.18 203.09,461.37 203.78,461.73 204.46,461.98 205.15,461.99 205.84,462.16 206.53,462.43 207.22,462.56 207.90,462.90 208.59,463.16 209.28,463.24 209.97,462.89 210.66,463.01 211.34,463.18 212.03,463.51 212.72,463.55 213.41,463.82 214.10,464.17 214.78,464.21 215.47,464.44 216.16,464.46 216.85,465.01 217.54,465.22 218.22,465.49 218.91,465.58 219.60,465.86 220.29,466.04 220.98,466.12 221.66,466.28 222.35,466.77 223.04,466.81 223.73,466.91 224.42,467.10 225.10,467.04 225.79,467.31 226.48,467.68 227.17,467.95 227.86,467.97 228.54,468.18 229.23,468.33 229.92,468.44 230.61,468.53 231.30,468.74 231.98,468.75 232.67,468.93 233.36,469.13 234.05,469.13 234.74,469.18 235.42,469.00 236.11,469.19 236.80,469.22 237.49,469.39 238.18,469.59 238.86,469.45 239.55,469.19 240.24,469.24 240.93,469.36 241.62,469.44 242.30,469.79 242.99,469.84 243.68,469.86 244.37,470.11 245.06,470.50 245.74,470.68 246.43,470.83 247.12,470.99 247.81,471.17 248.50,471.10 249.18,471.37 249.87,471.60 250.56,471.68 251.25,471.66 251.94,471.72 252.62,472.02 253.31,472.07 254.00,472.43 254.69,472.56 255.38,472.55 256.06,472.78 256.75,473.17 257.44,473.22 258.13,473.59 258.82,473.70 259.50,473.74 260.19,473.76 260.88,473.82 261.57,473.92 262.26,474.01 262.94,474.10 263.63,474.14 264.32,474.37 265.01,474.31 265.70,474.60 266.38,474.78 267.07,474.85 267.76,474.92 268.45,475.05 269.14,475.18 269.82,475.40 270.51,475.34 271.20,475.18 271.89,475.16 272.58,475.44 273.26,475.51 273.95,475.40 274.64,475.73 275.33,475.61 276.02,475.70 276.70,475.86 277.39,476.02 278.08,476.15 278.77,476.03 279.46,476.22 280.14,476.26 280.83,476.52 281.52,476.46 282.21,476.87 282.90,476.77 283.58,476.79 284.27,476.66 284.96,476.90 285.65,477.21 286.34,477.41 287.02,477.38 287.71,477.78 288.40,477.77 289.09,477.90 289.78,477.99 290.46,478.19 291.15,478.21 291.84,478.21 292.53,478.38 293.22,478.71 293.90,478.70 294.59,478.87 295.28,478.85 295.97,478.96 296.66,478.83 297.34,479.02 298.03,479.09 298.72,479.16 299.41,479.05 300.10,479.21 300.78,479.22 301.47,479.30 302.16,479.41 302.85,479.12 303.54,479.31 304.22,479.46 304.91,479.41 305.60,479.67 306.29,479.75 306.98,479.85 307.66,479.88 308.35,480.22 309.04,480.40 309.73,480.46 310.42,480.26 311.10,480.47 311.79,480.47 312.48,480.60 313.17,480.76 313.86,480.88 314.54,480.97 315.23,480.94 315.92,481.08 316.61,481.17 317.30,481.49 317.98,481.57 318.67,481.71 319.36,481.66 320.05,481.99 320.74,481.97 321.42,481.94 322.11,481.93 322.80,482.10 323.49,482.34 324.18,482.40 324.86,482.63 325.55,482.44 326.24,482.43 326.93,482.57 327.62,482.77 328.30,482.73 328.99,482.89 329.68,482.85 330.37,483.03 331.06,483.23 331.74,483.37 332.43,483.20 333.12,483.19 333.81,483.32 334.50,483.07 335.18,483.21 335.87,483.52 336.56,483.53 337.25,483.65 337.94,483.64 338.62,483.85 339.31,483.91 340.00,483.81 340.69,483.70 341.38,483.78 342.06,483.72 342.75,483.97 343.44,483.95 344.13,483.97 344.82,484.06 345.50,484.05 346.19,484.03 346.88,484.26 347.57,484.33 348.26,484.36 348.94,484.48 349.63,484.90 350.32,485.21 351.01,485.11 351.70,485.49 352.38,485.67 353.07,485.50 353.76,485.69 354.45,485.61 355.14,485.73 355.82,485.91 356.51,486.10 357.20,486.28 357.89,486.34 358.58,486.52 359.26,486.66 359.95,486.81 360.64,486.78 361.33,486.86 362.02,487.01 362.70,487.38 363.39,487.35 364.08,487.39 364.77,487.36 365.46,487.36 366.14,487.39 366.83,487.27 367.52,487.25 368.21,487.43 368.90,486.99 369.58,486.91 370.27,486.98 370.96,487.03 371.65,487.06 372.34,487.24 373.02,487.34 373.71,487.44 374.40,487.45 375.09,487.79 375.78,487.72 376.46,487.82 377.15,487.70 377.84,488.06 378.53,488.25 379.22,488.14 379.90,487.95 380.59,488.07 381.28,488.41 381.97,488.66 382.66,488.69 383.34,488.63 384.03,488.76 384.72,488.69 385.41,488.71 386.10,489.16 386.78,489.10 387.47,489.16 388.16,489.30 388.85,489.45 389.54,489.46 390.22,489.27 390.91,489.24 391.60,489.12 392.29,489.16 392.98,489.11 393.66,488.94 394.35,489.12 395.04,489.15 395.73,489.05 396.42,489.23 397.10,489.54 397.79,489.58 398.48,489.36 399.17,489.08 399.86,489.15 400.54,489.01 401.23,489.05 401.92,489.35 402.61,489.39 403.30,489.39 403.98,489.77 404.67,489.98 405.36,490.05 406.05,490.11 406.74,490.08 407.42,490.33 408.11,490.31 408.80,490.49 409.49,490.47 410.18,490.40 410.86,490.64 411.55,490.74 412.24,490.66 412.93,490.82 413.62,490.83 414.30,490.85 414.99,490.74 415.68,490.96 416.37,491.17 417.06,491.39 417.74,491.66 418.43,491.87 419.12,491.75 419.81,491.97 420.50,491.99 421.18,491.97 421.87,491.90 422.56,491.95 423.25,492.13 423.94,492.26 424.62,492.09 425.31,492.22 426.00,492.34 426.69,492.37 427.38,492.64 428.06,492.59 428.75,492.55 429.44,492.56 430.13,492.51 430.82,492.43 431.50,492.32 432.19,492.69 432.88,492.55 433.57,492.60 434.26,492.43 434.94,492.46 435.63,492.31 436.32,492.30 437.01,492.30 437.70,492.54 438.38,492.29 439.07,492.36 439.76,492.34 440.45,492.36 441.14,492.43 441.82,492.59 442.51,492.80 443.20,492.91 443.89,492.83 444.58,492.86 445.26,493.17 445.95,493.31 446.64,493.29 447.33,493.28 448.02,493.38 448.70,493.66 449.39,493.48 450.08,493.63 450.77,493.76 451.46,493.77 452.14,493.70 452.83,493.92 453.52,493.97 454.21,493.91 454.90,493.76 455.58,493.87 456.27,493.79 456.96,493.84 457.65,493.96 458.34,494.10 459.02,494.22 459.71,494.25 460.40,494.05 461.09,494.21 461.78,494.32 462.46,494.15 463.15,494.27 463.84,494.37 464.53,494.33 465.22,494.40 465.90,494.31 466.59,494.30 467.28,494.29 467.97,494.24 468.66,494.48 469.34,494.50 470.03,494.41 470.72,494.57 471.41,494.65 472.10,494.55 472.78,494.64 473.47,494.78 474.16,494.94 474.85,494.90 475.54,494.76 476.22,494.69 476.91,494.48 477.60,494.57 478.29,494.61 478.98,494.41 479.66,494.45 480.35,494.46 481.04,494.77 481.73,495.00 482.42,495.00 483.10,495.06 483.79,495.16 484.48,495.24 485.17,495.19 485.86,495.22 486.54,495.32 487.23,495.27 487.92,495.35 488.61,495.39 489.30,495.58 489.98,495.68 490.67,495.76 491.36,495.62 492.05,495.63 492.74,495.80 493.42,495.85 494.11,495.93 494.80,496.30 495.49,496.50 496.18,496.73 496.86,496.69 497.55,496.62 498.24,496.37 498.93,496.16 499.62,496.24 500.30,496.21 500.99,496.27 501.68,496.21 502.37,496.40 503.06,496.30 503.74,496.41 504.43,496.64 505.12,496.47 505.81,496.63 506.50,496.80 507.18,496.78 507.87,496.80 508.56,496.80 509.25,496.72 509.94,496.58 510.62,496.60 511.31,496.73 512.00,496.47 512.69,496.31 513.38,496.25 514.06,496.36 514.75,496.33 515.44,496.57 516.13,496.84 516.82,496.80 517.50,497.01 518.19,497.25 518.88,497.41 519.57,497.55 520.26,497.73 520.94,497.83 521.63,497.84 522.32,498.06 523.01,498.10 523.70,498.11 524.38,498.21 525.07,498.26 525.76,498.43 526.45,498.44 527.14,498.35 527.82,498.30 528.51,498.32 529.20,498.57 529.89,498.62 530.58,498.75 531.26,498.98 531.95,499.19 532.64,499.19 533.33,499.28 534.02,499.42 534.70,499.43 535.39,499.19 536.08,499.03 536.77,498.83 537.46,498.76 538.14,498.75 538.83,498.78 539.52,498.84 540.21,498.79 540.90,498.77 541.58,498.76 542.27,498.72 542.96,498.66 543.65,498.86 544.34,499.17 545.02,499.34 545.71,499.32 546.40,499.27 547.09,499.18 547.78,499.24 548.46,499.13 549.15,499.13 549.84,499.00 550.53,498.96 551.22,499.17 551.90,499.05 552.59,499.11 553.28,499.35 553.97,499.39 554.66,499.61 555.34,499.74 556.03,499.70 556.72,499.55 557.41,499.71 558.10,499.71 558.78,499.70 559.47,499.71 560.16,499.80 560.85,499.83 561.54,499.78 562.22,499.85 562.91,500.15 563.60,500.30 564.29,500.62 564.98,500.68 565.66,500.67 566.35,500.63 567.04,500.70 567.73,500.52 568.42,500.30 569.10,500.32 569.79,500.47 570.48,500.33 571.17,500.55 571.86,500.34 572.54,500.29 573.23,500.48 573.92,500.45 574.61,500.45 575.30,500.36 575.98,500.57 576.67,500.70 577.36,500.94 578.05,500.88 578.74,500.88 579.42,500.78 580.11,500.55 580.80,500.44 581.49,500.23 582.18,500.13 582.86,500.26 583.55,500.27 584.24,500.22 584.93,500.50 585.62,500.77 586.30,500.63 586.99,500.82 587.68,500.87 588.37,500.89 589.06,500.93 589.74,500.97 590.43,500.81 591.12,500.95 591.81,500.83 592.50,500.94 593.18,500.85 593.87,500.94 594.56,500.81 595.25,500.92 595.94,500.97 596.62,500.98 597.31,501.16 598.00,501.16 598.69,501.42 599.38,501.67 600.06,501.74 600.75,501.73 601.44,501.91 602.13,501.87 602.82,501.75 603.50,501.92 604.19,501.98 604.88,502.19 605.57,502.21 606.26,502.39 606.94,502.31 607.63,502.42 608.32,502.54 609.01,502.58 609.70,502.78 610.38,502.87 611.07,502.79 611.76,502.70 612.45,502.76 613.14,502.82 613.82,502.91 614.51,502.84 615.20,502.86 615.89,502.63 616.58,502.43 617.26,502.45 617.95,502.38 618.64,502.44 619.33,502.43 620.02,502.71 620.70,502.68 621.39,502.45 622.08,502.46 622.77,502.39 623.46,502.56 624.14,502.58 624.83,502.58 625.52,502.54 626.21,502.74 626.90,502.65 627.58,502.54 628.27,502.74 628.96,502.83 629.65,502.79 630.34,502.86 631.02,502.87 631.71,502.87 632.40,502.99 633.09,503.18 633.78,503.23 634.46,503.18 635.15,503.48 635.84,503.53 636.53,503.66 637.22,503.43 637.90,503.30 638.59,503.29 639.28,503.27 639.97,503.14 640.66,503.16 641.34,503.22 642.03,503.26 642.72,503.27 643.41,503.08 644.10,503.02 644.78,503.25 645.47,503.18 646.16,503.17 646.85,503.17 647.54,503.20 648.22,503.25 648.91,503.27 649.60,503.24 650.29,503.33 650.98,503.29 651.66,503.25 652.35,503.28 653.04,503.31 653.73,503.23 654.42,503.11 655.10,503.54 655.79,503.62 656.48,503.67 657.17,503.91 657.86,503.69 658.54,503.67 659.23,503.65 659.92,503.79 660.61,503.85 661.30,503.89 661.98,503.89 662.67,503.78 663.36,503.80 664.05,503.90 664.74,503.77 665.42,503.81 666.11,503.88 666.80,504.05 667.49,504.03 668.18,504.17 668.86,504.10 669.55,503.97 670.24,504.07 670.93,503.97 671.62,504.28 672.30,504.15 672.99,504.32 673.68,504.29 674.37,504.37 675.06,504.44 675.74,504.53 676.43,504.64 677.12,504.57 677.81,504.63 678.50,504.59 679.18,504.35 679.87,504.53 680.56,504.35 681.25,504.36 681.94,504.41 682.62,504.22 683.31,504.40 684.00,504.24 684.69,504.27 685.38,504.35 686.06,504.47 686.75,504.60 687.44,504.33 688.13,504.56 688.82,504.53 689.50,504.59 690.19,504.50 690.88,504.56 691.57,504.42 692.26,504.44 692.94,504.34 693.63,504.26 694.32,504.28 695.01,504.39 695.70,504.52 696.38,504.67 697.07,504.68 697.76,504.85 698.45,504.92 699.14,504.83 699.82,505.17 700.51,505.33 701.20,505.40 701.89,505.35 702.58,505.46 703.26,505.38 703.95,505.23 704.64,505.43 705.33,505.54 706.02,505.47 706.70,505.36 707.39,505.34 708.08,505.53 708.77,505.64 709.46,505.70 710.14,505.95 710.83,506.13 711.52,506.06 712.21,505.91 712.90,505.80 713.58,505.87 714.27,505.83 714.96,506.01 715.65,505.82 716.34,505.97 717.02,505.82 717.71,505.51 718.40,505.53 719.09,505.49 719.78,505.34 720.46,505.51 721.15,505.53 721.84,505.54 722.53,505.45 723.22,505.66 723.90,505.70 724.59,505.80 725.28,505.68 725.97,505.66 726.66,505.60 727.34,505.36 728.03,505.33 728.72,505.45 729.41,505.60 730.10,505.72 730.78,505.54 731.47,505.50 732.16,505.35 732.85,505.48 733.54,505.49 734.22,505.52 734.91,505.51 735.60,505.32 736.29,505.35 736.98,505.47 737.66,505.41 738.35,505.80 739.04,505.84 739.73,505.75 740.42,505.46 741.10,505.54 741.79,505.66 742.48,505.56 743.17,505.34 743.86,505.21 744.54,505.40 745.23,505.34 745.92,505.15 746.61,505.20 747.30,505.21 747.98,505.35 748.67,505.31 749.36,505.25 750.05,505.20 750.74,505.05 751.42,504.99 752.11,505.00 752.80,505.28 753.49,505.27 754.18,505.15 754.86,505.20 755.55,504.91 756.24,505.00 756.93,505.07 757.62,505.27 758.30,505.25 758.99,505.14 759.68,505.21 760.37,505.39 761.06,505.52 761.74,505.37 762.43,505.47 763.12,505.55 763.81,505.36 764.50,505.49 765.18,505.59 765.87,505.82 766.56,505.96 767.25,505.91 767.94,506.02 768.62,506.25 769.31,506.36 770.00,506.25" fill="none" stroke="#9333ea" stroke-width="1.5" opacity="0.35"/>
<polyline points="99.20,283.89 116.40,381.32 133.60,420.74 150.80,438.62 168.00,451.52 185.20,457.46 202.40,462.52 219.60,467.93 236.80,471.56 254.00,472.88 271.20,475.20 288.40,479.21 305.60,480.03 322.80,483.49 340.00,484.87 357.20,485.45 374.40,486.33 391.60,490.74 408.80,491.42 426.00,492.53 443.20,493.52 460.40,494.00 477.60,494.99 494.80,495.19 512.00,496.88 529.20,497.49 546.40,498.58 563.60,499.25 580.80,500.33 598.00,500.65 615.20,500.78 632.40,503.00 649.60,503.47 666.80,503.48 684.00,504.43 701.20,503.91 718.40,503.72 735.60,504.48 752.80,505.61 770.00,505.92" fill="none" stroke="#9333ea" stroke-width="2.5"/>
<circle cx="99.20" cy="283.89" r="2.4" fill="#9333ea"/>
<circle cx="116.40" cy="381.32" r="2.4" fill="#9333ea"/>
<circle cx="133.60" cy="420.74" r="2.4" fill="#9333ea"/>
<circle cx="150.80" cy="438.62" r="2.4" fill="#9333ea"/>
<circle cx="168.00" cy="451.52" r="2.4" fill="#9333ea"/>
<circle cx="185.20" cy="457.46" r="2.4" fill="#9333ea"/>
<circle cx="202.40" cy="462.52" r="2.4" fill="#9333ea"/>
<circle cx="219.60" cy="467.93" r="2.4" fill="#9333ea"/>
<circle cx="236.80" cy="471.56" r="2.4" fill="#9333ea"/>
<circle cx="254.00" cy="472.88" r="2.4" fill="#9333ea"/>
<circle cx="271.20" cy="475.20" r="2.4" fill="#9333ea"/>
<circle cx="288.40" cy="479.21" r="2.4" fill="#9333ea"/>
<circle cx="305.60" cy="480.03" r="2.4" fill="#9333ea"/>
<circle cx="322.80" cy="483.49" r="2.4" fill="#9333ea"/>
<circle cx="340.00" cy="484.87" r="2.4" fill="#9333ea"/>
<circle cx="357.20" cy="485.45" r="2.4" fill="#9333ea"/>
<circle cx="374.40" cy="486.33" r="2.4" fill="#9333ea"/>
<circle cx="391.60" cy="490.74" r="2.4" fill="#9333ea"/>
<circle cx="408.80" cy="491.42" r="2.4" fill="#9333ea"/>
<circle cx="426.00" cy="492.53" r="2.4" fill="#9333ea"/>
<circle cx="443.20" cy="493.52" r="2.4" fill="#9333ea"/>
<circle cx="460.40" cy="494.00" r="2.4" fill="#9333ea"/>
<circle cx="477.60" cy="494.99" r="2.4" fill="#9333ea"/>
<circle cx="494.80" cy="495.19" r="2.4" fill="#9333ea"/>
<circle cx="512.00" cy="496.88" r="2.4" fill="#9333ea"/>
<circle cx="529.20" cy="497.49" r="2.4" fill="#9333ea"/>
<circle cx="546.40" cy="498.58" r="2.4" fill="#9333ea"/>
<circle cx="563.60" cy="499.25" r="2.4" fill="#9333ea"/>
<circle cx="580.80" cy="500.33" r="2.4" fill="#9333ea"/>
<circle cx="598.00" cy="500.65" r="2.4" fill="#9333ea"/>
<circle cx="615.20" cy="500.78" r="2.4" fill="#9333ea"/>
<circle cx="632.40" cy="503.00" r="2.4" fill="#9333ea"/>
<circle cx="649.60" cy="503.47" r="2.4" fill="#9333ea"/>
<circle cx="666.80" cy="503.48" r="2.4" fill="#9333ea"/>
<circle cx="684.00" cy="504.43" r="2.4" fill="#9333ea"/>
<circle cx="701.20" cy="503.91" r="2.4" fill="#9333ea"/>
<circle cx="718.40" cy="503.72" r="2.4" fill="#9333ea"/>
<circle cx="735.60" cy="504.48" r="2.4" fill="#9333ea"/>
<circle cx="752.80" cy="505.61" r="2.4" fill="#9333ea"/>
<circle cx="770.00" cy="505.92" r="2.4" fill="#9333ea"/>
<polyline points="82.03,78.00 82.69,78.00 83.38,78.00 84.06,78.00 84.75,78.00 85.44,78.00 86.13,78.00 86.82,78.00 87.50,78.00 88.19,78.00 88.88,78.00 89.57,78.00 90.26,78.00 90.94,78.00 91.63,78.00 92.32,78.00 93.01,78.00 93.70,85.27 94.38,98.21 95.07,110.11 95.76,120.45 96.45,130.80 97.14,140.80 97.82,149.60 98.51,157.80 99.20,188.94 99.89,219.21 100.58,246.44 101.26,269.01 101.95,287.62 102.64,301.50 103.33,312.74 104.02,321.84 104.70,330.20 105.39,336.96 106.08,343.60 106.77,349.12 107.46,354.59 108.14,359.09 108.83,363.08 109.52,367.23 110.21,371.33 110.90,375.16 111.58,378.29 112.27,381.40 112.96,384.67 113.65,387.35 114.34,389.46 115.02,392.14 115.71,394.99 116.40,397.56 117.09,400.08 117.78,401.56 118.46,403.61 119.15,405.50 119.84,407.78 120.53,409.82 121.22,411.52 121.90,413.06 122.59,414.88 123.28,415.77 123.97,416.86 124.66,418.07 125.34,419.59 126.03,421.38 126.72,422.49 127.41,423.30 128.10,424.22 128.78,425.30 129.47,426.12 130.16,427.16 130.85,427.81 131.54,428.84 132.22,429.48 132.91,430.03 133.60,431.31 134.29,431.83 134.98,433.30 135.66,434.22 136.35,434.93 137.04,435.72 137.73,436.26 138.42,436.97 139.10,437.23 139.79,438.24 140.48,438.94 141.17,440.12 141.86,440.86 142.54,441.42 143.23,442.00 143.92,442.40 144.61,443.23 145.30,443.52 145.98,444.07 146.67,444.70 147.36,445.21 148.05,446.08 148.74,446.32 149.42,446.83 150.11,447.41 150.80,447.92 151.49,448.53 152.18,448.37 152.86,448.92 153.55,448.88 154.24,449.16 154.93,449.50 155.62,449.80 156.30,450.06 156.99,449.73 157.68,450.23 158.37,450.41 159.06,450.57 159.74,450.92 160.43,451.50 161.12,451.80 161.81,451.70 162.50,452.08 163.18,452.77 163.87,452.93 164.56,453.68 165.25,453.95 165.94,454.67 166.62,455.12 167.31,455.18 168.00,455.13 168.69,455.22 169.38,455.78 170.06,456.06 170.75,456.74 171.44,456.78 172.13,456.66 172.82,456.79 173.50,457.13 174.19,457.98 174.88,458.30 175.57,458.56 176.26,459.20 176.94,459.30 177.63,459.13 178.32,458.99 179.01,459.89 179.70,460.91 180.38,460.57 181.07,461.11 181.76,460.67 182.45,460.68 183.14,460.60 183.82,460.72 184.51,461.17 185.20,461.33 185.89,461.88 186.58,461.71 187.26,462.04 187.95,462.32 188.64,462.93 189.33,463.59 190.02,464.17 190.70,464.47 191.39,464.54 192.08,464.40 192.77,464.90 193.46,464.97 194.14,465.19 194.83,465.41 195.52,466.43 196.21,466.00 196.90,465.61 197.58,466.02 198.27,465.89 198.96,466.52 199.65,466.84 200.34,467.12 201.02,467.44 201.71,467.75 202.40,467.80 203.09,467.84 203.78,468.07 204.46,467.96 205.15,467.72 205.84,468.01 206.53,468.19 207.22,468.37 207.90,468.86 208.59,468.91 209.28,469.14 209.97,468.50 210.66,468.58 211.34,468.86 212.03,468.95 212.72,468.71 213.41,469.58 214.10,469.97 214.78,470.06 215.47,470.05 216.16,470.18 216.85,470.88 217.54,470.92 218.22,471.41 218.91,471.19 219.60,471.69 220.29,471.37 220.98,471.70 221.66,472.05 222.35,472.47 223.04,472.05 223.73,471.89 224.42,471.71 225.10,471.75 225.79,471.77 226.48,472.25 227.17,472.34 227.86,472.32 228.54,472.26 229.23,472.35 229.92,472.35 230.61,471.81 231.30,472.23 231.98,472.50 232.67,472.80 233.36,472.60 234.05,472.16 234.74,472.44 235.42,471.74 236.11,472.40 236.80,472.04 237.49,472.36 238.18,472.52 238.86,472.38 239.55,472.39 240.24,473.14 240.93,473.43 241.62,473.70 242.30,473.88 242.99,473.96 243.68,473.71 244.37,474.13 245.06,474.26 245.74,474.53 246.43,474.58 247.12,475.18 247.81,475.43 248.50,475.15 249.18,475.30 249.87,475.72 250.56,475.68 251.25,475.51 251.94,475.49 252.62,476.48 253.31,476.33 254.00,477.01 254.69,477.35 255.38,477.09 256.06,477.12 256.75,477.34 257.44,476.89 258.13,477.43 258.82,477.45 259.50,477.35 260.19,477.02 260.88,477.62 261.57,477.74 262.26,478.28 262.94,478.18 263.63,478.34 264.32,478.48 265.01,478.77 265.70,478.74 266.38,478.85 267.07,478.57 267.76,478.72 268.45,479.09 269.14,479.04 269.82,478.41 270.51,478.03 271.20,477.65 271.89,477.48 272.58,477.92 273.26,477.96 273.95,477.32 274.64,477.34 275.33,477.04 276.02,477.26 276.70,477.19 277.39,477.91 278.08,477.81 278.77,477.67 279.46,477.55 280.14,477.75 280.83,477.97 281.52,477.63 282.21,477.76 282.90,477.99 283.58,478.14 284.27,477.99 284.96,478.73 285.65,479.08 286.34,479.39 287.02,479.70 287.71,480.12 288.40,480.33 289.09,480.65 289.78,480.81 290.46,481.28 291.15,481.98 291.84,482.27 292.53,481.93 293.22,481.69 293.90,481.87 294.59,481.83 295.28,481.72 295.97,482.03 296.66,482.31 297.34,482.53 298.03,482.65 298.72,482.88 299.41,482.59 300.10,482.60 300.78,482.48 301.47,482.65 302.16,482.53 302.85,482.07 303.54,482.09 304.22,482.06 304.91,482.32 305.60,482.20 306.29,482.18 306.98,482.32 307.66,481.95 308.35,481.95 309.04,482.15 309.73,482.69 310.42,483.31 311.10,483.57 311.79,483.22 312.48,483.32 313.17,483.32 313.86,483.00 314.54,482.94 315.23,483.00 315.92,482.92 316.61,483.36 317.30,483.76 317.98,483.70 318.67,483.84 319.36,483.68 320.05,483.53 320.74,483.49 321.42,483.55 322.11,483.23 322.80,483.55 323.49,483.79 324.18,483.70 324.86,484.06 325.55,484.07 326.24,483.73 326.93,483.45 327.62,482.99 328.30,482.80 328.99,483.34 329.68,483.36 330.37,483.71 331.06,483.88 331.74,484.18 332.43,483.56 333.12,483.83 333.81,483.81 334.50,483.45 335.18,483.78 335.87,484.24 336.56,484.06 337.25,484.56 337.94,484.80 338.62,484.83 339.31,485.08 340.00,484.81 340.69,484.61 341.38,484.91 342.06,484.76 342.75,484.92 343.44,484.90 344.13,485.26 344.82,485.98 345.50,485.88 346.19,486.06 346.88,485.91 347.57,485.72 348.26,485.71 348.94,485.97 349.63,486.91 350.32,486.68 351.01,486.44 351.70,486.66 352.38,486.64 353.07,486.04 353.76,486.37 354.45,486.50 355.14,486.39 355.82,486.47 356.51,486.28 357.20,486.42 357.89,486.66 358.58,486.48 359.26,486.90 359.95,487.28 360.64,487.54 361.33,487.73 362.02,487.55 362.70,488.02 363.39,487.85 364.08,488.08 364.77,488.17 365.46,488.04 366.14,487.54 366.83,487.05 367.52,487.49 368.21,487.85 368.90,487.69 369.58,487.53 370.27,487.65 370.96,487.74 371.65,487.49 372.34,487.61 373.02,487.92 373.71,488.19 374.40,488.19 375.09,488.80 375.78,488.77 376.46,488.80 377.15,488.13 377.84,488.36 378.53,487.95 379.22,487.84 379.90,487.51 380.59,487.21 381.28,487.70 381.97,487.88 382.66,488.30 383.34,488.47 384.03,488.60 384.72,488.37 385.41,488.19 386.10,488.45 386.78,488.69 387.47,489.06 388.16,489.40 388.85,489.99 389.54,490.10 390.22,490.13 390.91,490.00 391.60,490.13 392.29,489.80 392.98,489.74 393.66,489.46 394.35,489.88 395.04,490.01 395.73,490.24 396.42,490.41 397.10,490.85 397.79,491.10 398.48,490.95 399.17,490.47 399.86,490.43 400.54,490.40 401.23,490.52 401.92,490.94 402.61,490.86 403.30,490.88 403.98,490.89 404.67,491.12 405.36,490.91 406.05,490.90 406.74,491.12 407.42,490.96 408.11,491.28 408.80,491.24 409.49,491.40 410.18,491.69 410.86,491.84 411.55,491.95 412.24,491.64 412.93,491.75 413.62,491.52 414.30,491.56 414.99,491.39 415.68,491.58 416.37,492.19 417.06,492.31 417.74,492.36 418.43,492.55 419.12,492.39 419.81,492.71 420.50,492.60 421.18,492.74 421.87,492.53 422.56,492.69 423.25,492.84 423.94,492.83 424.62,493.02 425.31,492.91 426.00,493.13 426.69,493.12 427.38,493.18 428.06,493.08 428.75,493.05 429.44,493.23 430.13,493.09 430.82,493.27 431.50,493.54 432.19,494.10 432.88,493.87 433.57,493.84 434.26,493.84 434.94,494.02 435.63,494.08 436.32,493.83 437.01,493.49 437.70,493.97 438.38,493.95 439.07,494.09 439.76,493.96 440.45,493.77 441.14,493.58 441.82,493.67 442.51,493.96 443.20,493.86 443.89,493.66 444.58,493.66 445.26,494.29 445.95,494.36 446.64,494.30 447.33,494.61 448.02,494.72 448.70,494.67 449.39,494.24 450.08,494.30 450.77,494.52 451.46,494.75 452.14,494.80 452.83,495.10 453.52,495.56 454.21,496.14 454.90,496.22 455.58,496.28 456.27,496.36 456.96,496.48 457.65,496.35 458.34,496.19 459.02,496.55 459.71,496.28 460.40,496.36 461.09,496.35 461.78,495.96 462.46,495.51 463.15,495.62 463.84,495.69 464.53,495.62 465.22,495.55 465.90,495.55 466.59,495.85 467.28,495.79 467.97,495.49 468.66,495.39 469.34,495.14 470.03,494.90 470.72,494.74 471.41,494.86 472.10,494.26 472.78,494.04 473.47,494.08 474.16,494.13 474.85,494.40 475.54,494.95 476.22,494.69 476.91,494.57 477.60,494.51 478.29,494.56 478.98,495.10 479.66,495.51 480.35,495.36 481.04,495.93 481.73,496.07 482.42,496.29 483.10,496.46 483.79,496.08 484.48,496.53 485.17,496.82 485.86,496.59 486.54,496.81 487.23,496.72 487.92,496.69 488.61,496.48 489.30,496.79 489.98,497.01 490.67,497.04 491.36,497.04 492.05,497.03 492.74,496.77 493.42,496.71 494.11,497.05 494.80,497.31 495.49,497.82 496.18,497.94 496.86,497.76 497.55,498.01 498.24,497.58 498.93,497.34 499.62,497.52 500.30,497.18 500.99,498.00 501.68,497.44 502.37,497.32 503.06,497.44 503.74,497.79 504.43,497.93 505.12,498.03 505.81,498.18 506.50,498.28 507.18,498.24 507.87,498.49 508.56,498.46 509.25,498.44 509.94,498.56 510.62,498.73 511.31,498.94 512.00,498.93 512.69,498.65 513.38,498.62 514.06,498.58 514.75,498.39 515.44,498.84 516.13,499.57 516.82,499.51 517.50,499.81 518.19,499.91 518.88,500.12 519.57,500.37 520.26,500.41 520.94,499.99 521.63,500.01 522.32,500.38 523.01,500.56 523.70,500.36 524.38,500.62 525.07,500.32 525.76,500.46 526.45,500.34 527.14,500.21 527.82,500.00 528.51,499.99 529.20,500.11 529.89,500.25 530.58,500.10 531.26,500.55 531.95,501.02 532.64,501.09 533.33,500.69 534.02,500.90 534.70,501.15 535.39,500.65 536.08,500.54 536.77,500.30 537.46,500.67 538.14,500.94 538.83,500.82 539.52,500.66 540.21,500.86 540.90,501.04 541.58,500.89 542.27,501.02 542.96,500.92 543.65,500.88 544.34,501.41 545.02,501.45 545.71,501.32 546.40,501.61 547.09,501.57 547.78,501.89 548.46,501.72 549.15,501.58 549.84,501.07 550.53,501.23 551.22,501.10 551.90,500.95 552.59,501.26 553.28,501.52 553.97,501.88 554.66,501.95 555.34,502.11 556.03,502.35 556.72,502.43 557.41,502.29 558.10,502.50 558.78,502.43 559.47,502.58 560.16,502.91 560.85,503.11 561.54,502.81 562.22,502.68 562.91,503.00 563.60,503.12 564.29,503.27 564.98,503.07 565.66,503.10 566.35,502.83 567.04,503.01 567.73,502.90 568.42,503.04 569.10,503.03 569.79,503.08 570.48,503.21 571.17,502.99 571.86,502.85 572.54,502.75 573.23,502.95 573.92,502.97 574.61,502.85 575.30,502.59 575.98,502.95 576.67,503.21 577.36,503.07 578.05,502.97 578.74,502.97 579.42,502.83 580.11,502.51 580.80,501.80 581.49,501.68 582.18,501.63 582.86,501.53 583.55,501.55 584.24,501.63 584.93,501.88 585.62,501.98 586.30,501.92 586.99,501.89 587.68,501.93 588.37,502.12 589.06,502.17 589.74,502.28 590.43,501.91 591.12,501.91 591.81,501.82 592.50,502.05 593.18,501.73 593.87,501.89 594.56,502.12 595.25,502.27 595.94,502.37 596.62,502.64 597.31,503.00 598.00,503.51 598.69,503.42 599.38,503.73 600.06,503.98 600.75,504.31 601.44,504.45 602.13,504.44 602.82,504.10 603.50,503.96 604.19,504.19 604.88,504.30 605.57,504.32 606.26,504.27 606.94,504.25 607.63,504.59 608.32,504.46 609.01,504.46 609.70,504.73 610.38,504.97 611.07,504.53 611.76,504.48 612.45,504.67 613.14,504.69 613.82,505.09 614.51,505.06 615.20,504.84 615.89,505.07 616.58,504.60 617.26,504.75 617.95,504.46 618.64,504.04 619.33,503.87 620.02,504.40 620.70,504.37 621.39,504.21 622.08,504.27 622.77,504.17 623.46,504.22 624.14,504.07 624.83,503.99 625.52,504.01 626.21,504.05 626.90,503.98 627.58,503.97 628.27,504.11 628.96,504.51 629.65,504.48 630.34,504.99 631.02,504.93 631.71,504.57 632.40,504.78 633.09,504.94 633.78,505.02 634.46,504.97 635.15,505.37 635.84,505.81 636.53,506.13 637.22,505.92 637.90,505.98 638.59,505.81 639.28,505.62 639.97,505.46 640.66,505.94 641.34,506.02 642.03,505.97 642.72,506.18 643.41,506.27 644.10,506.09 644.78,506.32 645.47,506.26 646.16,506.05 646.85,505.90 647.54,505.60 648.22,505.48 648.91,505.63 649.60,505.71 650.29,505.89 650.98,506.14 651.66,505.69 652.35,505.55 653.04,505.77 653.73,505.93 654.42,505.58 655.10,505.88 655.79,506.08 656.48,506.18 657.17,506.47 657.86,506.11 658.54,506.48 659.23,506.50 659.92,506.44 660.61,506.52 661.30,506.76 661.98,506.64 662.67,506.60 663.36,506.58 664.05,506.78 664.74,506.35 665.42,506.14 666.11,506.38 666.80,506.53 667.49,506.65 668.18,506.84 668.86,506.91 669.55,506.79 670.24,506.59 670.93,506.08 671.62,506.51 672.30,506.53 672.99,506.70 673.68,506.61 674.37,506.61 675.06,506.72 675.74,506.21 676.43,506.71 677.12,506.79 677.81,506.98 678.50,507.04 679.18,506.73 679.87,506.87 680.56,506.57 681.25,506.52 681.94,506.88 682.62,507.06 683.31,507.22 684.00,507.10 684.69,506.49 685.38,506.35 686.06,506.63 686.75,507.20 687.44,507.25 688.13,507.60 688.82,507.46 689.50,507.38 690.19,507.45 690.88,507.78 691.57,507.64 692.26,507.57 692.94,507.78 693.63,507.35 694.32,507.34 695.01,507.41 695.70,507.21 696.38,507.50 697.07,507.83 697.76,507.69 698.45,507.73 699.14,507.55 699.82,507.91 700.51,507.84 701.20,507.90 701.89,508.09 702.58,508.13 703.26,508.30 703.95,508.15 704.64,508.28 705.33,508.25 706.02,508.09 706.70,508.10 707.39,507.86 708.08,507.85 708.77,507.93 709.46,507.86 710.14,507.90 710.83,508.07 711.52,508.35 712.21,508.06 712.90,508.24 713.58,508.17 714.27,508.01 714.96,508.52 715.65,508.52 716.34,508.84 717.02,508.58 717.71,508.33 718.40,508.51 719.09,508.47 719.78,508.45 720.46,508.15 721.15,507.79 721.84,507.90 722.53,507.91 723.22,508.30 723.90,508.33 724.59,508.59 725.28,508.63 725.97,508.84 726.66,509.04 727.34,508.90 728.03,509.50 728.72,509.19 729.41,509.21 730.10,508.93 730.78,509.06 731.47,509.30 732.16,509.06 732.85,508.99 733.54,509.01 734.22,509.05 734.91,509.20 735.60,508.85 736.29,509.29 736.98,509.39 737.66,509.63 738.35,510.43 739.04,510.25 739.73,510.32 740.42,510.24 741.10,510.41 741.79,510.36 742.48,510.13 743.17,510.03 743.86,509.67 744.54,509.82 745.23,509.14 745.92,509.15 746.61,509.33 747.30,509.06 747.98,509.37 748.67,508.79 749.36,508.72 750.05,508.72 750.74,508.60 751.42,508.60 752.11,508.60 752.80,509.10 753.49,508.88 754.18,508.78 754.86,508.95 755.55,508.47 756.24,508.42 756.93,508.01 757.62,508.12 758.30,508.06 758.99,507.98 759.68,508.03 760.37,508.24 761.06,508.42 761.74,508.53 762.43,508.26 763.12,508.24 763.81,507.94 764.50,508.57 765.18,508.35 765.87,508.81 766.56,508.84 767.25,508.84 767.94,508.62 768.62,508.87 769.31,508.86 770.00,508.65" fill="none" stroke="#16a34a" stroke-width="1.5" opacity="0.35"/>
<polyline points="99.20,363.31 116.40,417.53 133.60,440.68 150.80,451.24 168.00,460.48 185.20,464.33 202.40,468.10 219.60,472.75 236.80,475.58 254.00,476.82 271.20,478.51 288.40,482.00 305.60,482.57 322.80,485.41 340.00,486.51 357.20,487.38 374.40,487.74 391.60,492.40 408.80,492.58 426.00,493.88 443.20,494.90 460.40,495.35 477.60,496.28 494.80,496.36 512.00,498.27 529.20,499.02 546.40,500.45 563.60,501.04 580.80,502.30 598.00,502.92 615.20,503.32 632.40,505.55 649.60,506.18 666.80,506.38 684.00,507.15 701.20,506.93 718.40,506.71 735.60,507.58 752.80,508.93 770.00,509.05" fill="none" stroke="#16a34a" stroke-width="2.5"/>
<circle cx="99.20" cy="363.31" r="2.4" fill="#16a34a"/>
<circle cx="116.40" cy="417.53" r="2.4" fill="#16a34a"/>
<circle cx="133.60" cy="440.68" r="2.4" fill="#16a34a"/>
<circle cx="150.80" cy="451.24" r="2.4" fill="#16a34a"/>
<circle cx="168.00" cy="460.48" r="2.4" fill="#16a34a"/>
<circle cx="185.20" cy="464.33" r="2.4" fill="#16a34a"/>
<circle cx="202.40" cy="468.10" r="2.4" fill="#16a34a"/>
<circle cx="219.60" cy="472.75" r="2.4" fill="#16a34a"/>
<circle cx="236.80" cy="475.58" r="2.4" fill="#16a34a"/>
<circle cx="254.00" cy="476.82" r="2.4" fill="#16a34a"/>
<circle cx="271.20" cy="478.51" r="2.4" fill="#16a34a"/>
<circle cx="288.40" cy="482.00" r="2.4" fill="#16a34a"/>
<circle cx="305.60" cy="482.57" r="2.4" fill="#16a34a"/>
<circle cx="322.80" cy="485.41" r="2.4" fill="#16a34a"/>
<circle cx="340.00" cy="486.51" r="2.4" fill="#16a34a"/>
<circle cx="357.20" cy="487.38" r="2.4" fill="#16a34a"/>
<circle cx="374.40" cy="487.74" r="2.4" fill="#16a34a"/>
<circle cx="391.60" cy="492.40" r="2.4" fill="#16a34a"/>
<circle cx="408.80" cy="492.58" r="2.4" fill="#16a34a"/>
<circle cx="426.00" cy="493.88" r="2.4" fill="#16a34a"/>
<circle cx="443.20" cy="494.90" r="2.4" fill="#16a34a"/>
<circle cx="460.40" cy="495.35" r="2.4" fill="#16a34a"/>
<circle cx="477.60" cy="496.28" r="2.4" fill="#16a34a"/>
<circle cx="494.80" cy="496.36" r="2.4" fill="#16a34a"/>
<circle cx="512.00" cy="498.27" r="2.4" fill="#16a34a"/>
<circle cx="529.20" cy="499.02" r="2.4" fill="#16a34a"/>
<circle cx="546.40" cy="500.45" r="2.4" fill="#16a34a"/>
<circle cx="563.60" cy="501.04" r="2.4" fill="#16a34a"/>
<circle cx="580.80" cy="502.30" r="2.4" fill="#16a34a"/>
<circle cx="598.00" cy="502.92" r="2.4" fill="#16a34a"/>
<circle cx="615.20" cy="503.32" r="2.4" fill="#16a34a"/>
<circle cx="632.40" cy="505.55" r="2.4" fill="#16a34a"/>
<circle cx="649.60" cy="506.18" r="2.4" fill="#16a34a"/>
<circle cx="666.80" cy="506.38" r="2.4" fill="#16a34a"/>
<circle cx="684.00" cy="507.15" r="2.4" fill="#16a34a"/>
<circle cx="701.20" cy="506.93" r="2.4" fill="#16a34a"/>
<circle cx="718.40" cy="506.71" r="2.4" fill="#16a34a"/>
<circle cx="735.60" cy="507.58" r="2.4" fill="#16a34a"/>
<circle cx="752.80" cy="508.93" r="2.4" fill="#16a34a"/>
<circle cx="770.00" cy="509.05" r="2.4" fill="#16a34a"/>
<polyline points="82.02,78.00 82.69,78.00 83.38,78.00 84.06,78.00 84.75,78.00 85.44,78.00 86.13,78.00 86.82,78.00 87.50,78.00 88.19,78.00 88.88,78.00 89.57,78.00 90.26,78.00 90.94,93.03 91.63,107.51 92.32,121.31 93.01,133.41 93.70,144.94 94.38,156.13 95.07,166.30 95.76,175.23 96.45,184.12 97.14,192.51 97.82,200.00 98.51,207.31 99.20,239.08 99.89,269.17 100.58,293.66 101.26,310.83 101.95,323.49 102.64,332.58 103.33,340.20 104.02,347.05 104.70,353.52 105.39,358.66 106.08,364.22 106.77,368.58 107.46,372.35 108.14,375.46 108.83,379.34 109.52,382.80 110.21,386.26 110.90,390.02 111.58,392.39 112.27,395.23 112.96,397.94 113.65,399.66 114.34,401.12 115.02,403.23 115.71,405.10 116.40,406.94 117.09,408.44 117.78,409.22 118.46,410.76 119.15,412.41 119.84,414.44 120.53,416.53 121.22,417.73 121.90,419.01 122.59,420.26 123.28,420.41 123.97,421.29 124.66,422.20 125.34,423.96 126.03,424.80 126.72,425.88 127.41,426.28 128.10,426.10 128.78,427.71 129.47,427.71 130.16,428.46 130.85,429.17 131.54,430.22 132.22,430.35 132.91,430.40 133.60,431.79 134.29,431.79 134.98,433.43 135.66,434.54 136.35,434.97 137.04,435.75 137.73,435.78 138.42,436.28 139.10,435.93 139.79,436.84 140.48,437.68 141.17,438.92 141.86,439.81 142.54,440.07 143.23,440.95 143.92,440.88 144.61,442.12 145.30,442.63 145.98,442.37 146.67,442.96 147.36,443.16 148.05,443.86 148.74,444.18 149.42,445.28 150.11,445.90 150.80,446.15 151.49,447.39 152.18,446.83 152.86,447.36 153.55,447.14 154.24,447.35 154.93,447.35 155.62,447.99 156.30,448.97 156.99,448.78 157.68,449.20 158.37,449.27 159.06,449.67 159.74,450.02 160.43,450.94 161.12,451.81 161.81,451.28 162.50,451.17 163.18,451.88 163.87,452.61 164.56,453.09 165.25,453.33 165.94,453.91 166.62,453.39 167.31,453.60 168.00,453.26 168.69,453.05 169.38,453.57 170.06,453.67 170.75,454.07 171.44,453.76 172.13,454.06 172.82,454.28 173.50,454.36 174.19,455.44 174.88,455.61 175.57,455.60 176.26,455.96 176.94,456.21 177.63,455.66 178.32,455.16 179.01,456.02 179.70,457.29 180.38,456.71 181.07,457.00 181.76,456.97 182.45,457.23 183.14,457.05 183.82,457.55 184.51,458.27 185.20,459.01 185.89,459.76 186.58,459.55 187.26,459.68 187.95,460.29 188.64,460.79 189.33,461.29 190.02,461.69 190.70,461.91 191.39,461.61 192.08,461.40 192.77,462.08 193.46,462.35 194.14,462.51 194.83,462.85 195.52,463.78 196.21,463.60 196.90,462.78 197.58,463.32 198.27,463.03 198.96,463.33 199.65,463.39 200.34,463.73 201.02,464.22 201.71,464.37 202.40,464.08 203.09,463.67 203.78,463.99 204.46,463.94 205.15,463.67 205.84,463.95 206.53,464.01 207.22,464.58 207.90,464.87 208.59,465.35 209.28,465.69 209.97,464.87 210.66,464.87 211.34,464.69 212.03,464.99 212.72,464.50 213.41,464.87 214.10,465.44 214.78,465.30 215.47,464.95 216.16,464.79 216.85,465.41 217.54,464.96 218.22,465.45 218.91,465.22 219.60,465.83 220.29,465.45 220.98,465.72 221.66,465.90 222.35,466.11 223.04,465.99 223.73,466.10 224.42,465.54 225.10,465.53 225.79,464.98 226.48,465.31 227.17,465.56 227.86,465.30 228.54,465.55 229.23,465.51 229.92,465.65 230.61,465.64 231.30,466.43 231.98,466.89 232.67,467.86 233.36,467.89 234.05,467.35 234.74,467.95 235.42,466.54 236.11,467.24 236.80,467.09 237.49,467.76 238.18,468.16 238.86,468.51 239.55,468.66 240.24,469.41 240.93,469.62 241.62,469.78 242.30,470.47 242.99,471.01 243.68,470.88 244.37,471.27 245.06,470.86 245.74,471.17 246.43,471.34 247.12,472.24 247.81,472.37 248.50,471.94 249.18,471.83 249.87,471.98 250.56,472.14 251.25,472.22 251.94,472.56 252.62,474.49 253.31,474.23 254.00,474.81 254.69,475.07 255.38,474.15 256.06,473.61 256.75,473.72 257.44,473.27 258.13,473.56 258.82,473.82 259.50,473.17 260.19,472.81 260.88,473.27 261.57,473.44 262.26,474.56 262.94,474.54 263.63,474.16 264.32,473.90 265.01,474.51 265.70,474.48 266.38,475.05 267.07,474.45 267.76,474.61 268.45,475.29 269.14,474.87 269.82,473.99 270.51,473.70 271.20,473.08 271.89,472.79 272.58,473.84 273.26,474.14 273.95,473.53 274.64,474.00 275.33,473.55 276.02,473.63 276.70,473.45 277.39,473.88 278.08,473.75 278.77,473.66 279.46,473.32 280.14,473.76 280.83,473.96 281.52,473.69 282.21,473.36 282.90,473.65 283.58,473.41 284.27,473.29 284.96,473.73 285.65,473.65 286.34,473.80 287.02,474.23 287.71,474.13 288.40,474.42 289.09,474.98 289.78,474.95 290.46,475.17 291.15,476.09 291.84,475.70 292.53,475.75 293.22,475.56 293.90,475.93 294.59,476.25 295.28,476.02 295.97,476.20 296.66,476.55 297.34,476.53 298.03,476.76 298.72,477.18 299.41,476.77 300.10,476.71 300.78,476.27 301.47,476.34 302.16,476.57 302.85,476.13 303.54,476.45 304.22,476.22 304.91,476.68 305.60,476.29 306.29,475.74 306.98,475.74 307.66,475.62 308.35,475.98 309.04,476.19 309.73,476.49 310.42,477.26 311.10,477.38 311.79,476.83 312.48,477.30 313.17,477.13 313.86,477.02 314.54,476.48 315.23,476.40 315.92,476.21 316.61,477.19 317.30,477.38 317.98,477.66 318.67,477.98 319.36,477.39 320.05,477.19 320.74,477.09 321.42,477.22 322.11,476.62 322.80,476.99 323.49,477.60 324.18,477.71 324.86,478.05 325.55,477.24 326.24,476.85 326.93,476.38 327.62,476.05 328.30,475.80 328.99,476.80 329.68,476.43 330.37,477.09 331.06,477.27 331.74,478.07 332.43,477.83 333.12,478.27 333.81,478.10 334.50,477.67 335.18,478.26 335.87,478.47 336.56,478.84 337.25,479.17 337.94,479.42 338.62,479.14 339.31,479.65 340.00,479.83 340.69,479.48 341.38,479.82 342.06,479.64 342.75,480.14 343.44,480.23 344.13,481.03 344.82,481.28 345.50,480.68 346.19,480.55 346.88,480.53 347.57,480.45 348.26,480.36 348.94,480.56 349.63,481.33 350.32,481.02 351.01,480.55 351.70,481.33 352.38,480.87 353.07,480.59 353.76,480.53 354.45,481.19 355.14,480.95 355.82,481.08 356.51,480.57 357.20,480.37 357.89,480.65 358.58,479.91 359.26,480.32 359.95,480.74 360.64,481.19 361.33,481.17 362.02,481.06 362.70,481.92 363.39,481.93 364.08,481.88 364.77,481.93 365.46,482.05 366.14,481.50 366.83,481.20 367.52,481.30 368.21,482.11 368.90,481.52 369.58,481.47 370.27,481.41 370.96,481.81 371.65,481.37 372.34,481.77 373.02,482.16 373.71,482.81 374.40,482.74 375.09,483.29 375.78,483.84 376.46,483.86 377.15,483.06 377.84,482.92 378.53,482.49 379.22,482.23 379.90,481.74 380.59,480.75 381.28,481.70 381.97,481.61 382.66,481.58 383.34,481.52 384.03,480.96 384.72,480.84 385.41,480.65 386.10,481.04 386.78,481.11 387.47,481.52 388.16,481.69 388.85,482.31 389.54,482.52 390.22,482.86 390.91,482.88 391.60,483.40 392.29,483.57 392.98,483.49 393.66,483.56 394.35,483.83 395.04,484.19 395.73,484.25 396.42,484.83 397.10,485.61 397.79,486.22 398.48,486.10 399.17,486.13 399.86,486.09 400.54,486.07 401.23,486.93 401.92,487.32 402.61,486.86 403.30,486.96 403.98,487.49 404.67,487.90 405.36,487.72 406.05,487.48 406.74,487.30 407.42,486.95 408.11,487.31 408.80,487.30 409.49,487.33 410.18,487.56 410.86,487.51 411.55,487.77 412.24,487.23 412.93,487.49 413.62,487.12 414.30,487.23 414.99,486.77 415.68,486.54 416.37,486.82 417.06,487.06 417.74,486.92 418.43,486.70 419.12,486.87 419.81,487.39 420.50,487.45 421.18,487.22 421.87,487.36 422.56,487.34 423.25,487.70 423.94,488.07 424.62,488.54 425.31,488.23 426.00,488.07 426.69,487.92 427.38,487.62 428.06,487.50 428.75,487.23 429.44,487.43 430.13,487.34 430.82,487.43 431.50,487.96 432.19,488.91 432.88,489.19 433.57,489.65 434.26,489.62 434.94,489.78 435.63,490.08 436.32,489.49 437.01,488.82 437.70,489.20 438.38,489.41 439.07,489.54 439.76,489.29 440.45,489.26 441.14,488.76 441.82,488.86 442.51,489.34 443.20,489.45 443.89,489.65 444.58,490.22 445.26,490.73 445.95,491.31 446.64,491.47 447.33,491.45 448.02,491.31 448.70,490.72 449.39,489.94 450.08,489.99 450.77,489.60 451.46,489.92 452.14,490.41 452.83,490.82 453.52,491.59 454.21,492.20 454.90,492.10 455.58,492.26 456.27,492.02 456.96,492.35 457.65,491.77 458.34,491.64 459.02,491.43 459.71,491.24 460.40,491.21 461.09,490.47 461.78,489.57 462.46,489.23 463.15,489.38 463.84,489.51 464.53,489.99 465.22,490.07 465.90,490.45 466.59,491.43 467.28,491.27 467.97,490.89 468.66,490.93 469.34,490.85 470.03,490.19 470.72,489.61 471.41,489.89 472.10,489.09 472.78,488.22 473.47,487.98 474.16,488.43 474.85,489.11 475.54,489.66 476.22,490.03 476.91,489.95 477.60,489.84 478.29,490.11 478.98,490.84 479.66,491.18 480.35,490.68 481.04,491.00 481.73,490.85 482.42,491.06 483.10,490.95 483.79,490.11 484.48,490.61 485.17,490.74 485.86,490.31 486.54,490.26 487.23,490.39 487.92,490.46 488.61,490.37 489.30,490.63 489.98,491.20 490.67,491.57 491.36,491.02 492.05,490.79 492.74,490.68 493.42,490.23 494.11,490.79 494.80,491.39 495.49,491.91 496.18,491.85 496.86,491.85 497.55,492.27 498.24,491.74 498.93,491.85 499.62,492.12 500.30,491.94 500.99,492.93 501.68,492.16 502.37,492.29 503.06,492.26 503.74,492.59 504.43,492.63 505.12,492.63 505.81,492.63 506.50,493.18 507.18,493.30 507.87,493.66 508.56,493.86 509.25,493.69 509.94,493.71 510.62,494.04 511.31,494.05 512.00,493.64 512.69,493.57 513.38,493.80 514.06,493.83 514.75,493.70 515.44,494.68 516.13,495.42 516.82,495.29 517.50,495.82 518.19,496.14 518.88,496.75 519.57,496.98 520.26,497.19 520.94,496.86 521.63,497.04 522.32,497.78 523.01,498.26 523.70,497.99 524.38,498.13 525.07,497.70 525.76,498.18 526.45,497.85 527.14,497.29 527.82,496.78 528.51,496.59 529.20,496.97 529.89,497.00 530.58,497.06 531.26,497.16 531.95,498.09 532.64,497.83 533.33,497.27 534.02,497.69 534.70,497.52 535.39,497.11 536.08,496.82 536.77,496.79 537.46,497.06 538.14,497.53 538.83,497.37 539.52,497.23 540.21,496.99 540.90,497.43 541.58,497.18 542.27,497.22 542.96,496.63 543.65,496.86 544.34,497.88 545.02,498.09 545.71,498.08 546.40,498.46 547.09,498.73 547.78,499.14 548.46,499.37 549.15,498.81 549.84,498.25 550.53,498.63 551.22,498.52 551.90,499.02 552.59,498.99 553.28,499.28 553.97,499.61 554.66,499.84 555.34,499.78 556.03,500.10 556.72,500.47 557.41,500.24 558.10,500.36 558.78,500.76 559.47,500.52 560.16,501.11 560.85,501.30 561.54,501.48 562.22,501.66 562.91,501.88 563.60,501.91 564.29,501.94 564.98,501.32 565.66,501.29 566.35,500.93 567.04,501.18 567.73,500.79 568.42,500.71 569.10,500.30 569.79,500.44 570.48,500.52 571.17,500.56 571.86,500.80 572.54,500.98 573.23,501.36 573.92,501.21 574.61,501.43 575.30,500.47 575.98,500.64 576.67,501.51 577.36,501.50 578.05,501.67 578.74,501.45 579.42,501.07 580.11,501.08 580.80,500.63 581.49,500.10 582.18,500.11 582.86,499.86 583.55,499.80 584.24,500.01 584.93,500.11 585.62,500.43 586.30,500.38 586.99,499.75 587.68,499.85 588.37,499.81 589.06,499.40 589.74,499.44 590.43,499.03 591.12,498.83 591.81,498.43 592.50,499.01 593.18,498.54 593.87,498.46 594.56,498.39 595.25,497.95 595.94,497.76 596.62,497.99 597.31,498.17 598.00,498.46 598.69,498.63 599.38,498.86 600.06,498.94 600.75,499.21 601.44,499.33 602.13,499.71 602.82,499.38 603.50,499.34 604.19,500.16 604.88,500.34 605.57,500.31 606.26,500.47 606.94,500.55 607.63,500.25 608.32,499.80 609.01,499.72 609.70,499.82 610.38,500.04 611.07,499.82 611.76,499.90 612.45,500.46 613.14,500.06 613.82,500.41 614.51,500.37 615.20,500.15 615.89,500.18 616.58,500.12 617.26,499.86 617.95,499.89 618.64,499.47 619.33,499.14 620.02,499.44 620.70,499.25 621.39,499.08 622.08,498.88 622.77,498.54 623.46,498.69 624.14,498.06 624.83,498.30 625.52,498.18 626.21,498.53 626.90,498.60 627.58,498.64 628.27,498.80 628.96,498.88 629.65,498.80 630.34,499.67 631.02,499.63 631.71,499.35 632.40,499.32 633.09,499.67 633.78,499.40 634.46,499.86 635.15,499.86 635.84,500.18 636.53,500.42 637.22,500.32 637.90,500.20 638.59,500.12 639.28,500.18 639.97,500.16 640.66,500.29 641.34,500.62 642.03,500.78 642.72,500.98 643.41,500.87 644.10,500.67 644.78,500.97 645.47,500.63 646.16,500.60 646.85,500.52 647.54,500.65 648.22,500.65 648.91,500.85 649.60,501.12 650.29,501.15 650.98,501.50 651.66,501.50 652.35,501.61 653.04,501.86 653.73,501.91 654.42,501.61 655.10,502.23 655.79,502.47 656.48,502.60 657.17,502.45 657.86,502.35 658.54,502.83 659.23,502.90 659.92,503.22 660.61,503.49 661.30,504.07 661.98,503.94 662.67,504.26 663.36,504.26 664.05,504.73 664.74,503.92 665.42,503.46 666.11,503.79 666.80,504.01 667.49,504.23 668.18,504.39 668.86,503.99 669.55,503.86 670.24,503.64 670.93,503.25 671.62,504.05 672.30,503.82 672.99,503.69 673.68,503.18 674.37,503.67 675.06,503.69 675.74,502.51 676.43,503.07 677.12,503.43 677.81,503.72 678.50,503.65 679.18,503.31 679.87,503.17 680.56,503.17 681.25,503.01 681.94,503.54 682.62,503.78 683.31,503.69 684.00,503.53 684.69,503.03 685.38,503.14 686.06,503.30 686.75,503.43 687.44,503.39 688.13,503.98 688.82,503.36 689.50,503.38 690.19,503.67 690.88,503.98 691.57,503.90 692.26,503.81 692.94,504.55 693.63,504.27 694.32,503.87 695.01,503.88 695.70,503.73 696.38,504.00 697.07,504.32 697.76,504.13 698.45,504.24 699.14,503.96 699.82,504.72 700.51,504.78 701.20,504.90 701.89,504.95 702.58,504.99 703.26,505.46 703.95,505.67 704.64,506.11 705.33,506.03 706.02,505.85 706.70,506.15 707.39,505.86 708.08,506.07 708.77,505.90 709.46,505.66 710.14,505.98 710.83,505.99 711.52,506.43 712.21,506.02 712.90,506.01 713.58,506.33 714.27,506.46 714.96,506.98 715.65,506.87 716.34,507.05 717.02,506.66 717.71,506.31 718.40,506.42 719.09,506.31 719.78,506.33 720.46,506.14 721.15,505.60 721.84,505.59 722.53,505.52 723.22,506.37 723.90,506.22 724.59,506.28 725.28,506.50 725.97,506.68 726.66,507.19 727.34,507.02 728.03,507.78 728.72,507.56 729.41,507.29 730.10,507.05 730.78,506.73 731.47,506.74 732.16,506.33 732.85,506.22 733.54,506.34 734.22,506.42 734.91,506.84 735.60,506.93 736.29,507.45 736.98,507.43 737.66,507.37 738.35,508.36 739.04,508.50 739.73,508.86 740.42,508.68 741.10,508.79 741.79,508.94 742.48,508.54 743.17,508.68 743.86,508.42 744.54,508.54 745.23,507.32 745.92,507.16 746.61,507.67 747.30,507.37 747.98,507.84 748.67,507.18 749.36,507.07 750.05,507.17 750.74,506.84 751.42,506.57 752.11,506.40 752.80,506.60 753.49,506.15 754.18,506.00 754.86,506.35 755.55,505.62 756.24,505.31 756.93,504.58 757.62,504.46 758.30,504.43 758.99,504.31 759.68,504.41 760.37,504.84 761.06,504.80 761.74,504.89 762.43,504.38 763.12,504.38 763.81,504.58 764.50,505.53 765.18,505.43 765.87,506.06 766.56,505.82 767.25,505.56 767.94,504.86 768.62,505.55 769.31,505.49 770.00,505.03" fill="none" stroke="#2563eb" stroke-width="1.5" opacity="0.35"/>
<polyline points="99.20,378.59 116.40,419.47 133.60,440.53 150.80,450.26 168.00,459.15 185.20,462.49 202.40,465.61 219.60,470.07 236.80,472.34 254.00,473.06 271.20,474.33 288.40,477.58 305.60,478.07 322.80,480.47 340.00,481.48 357.20,482.16 374.40,482.55 391.60,486.94 408.80,487.28 426.00,488.35 443.20,490.03 460.40,490.39 477.60,491.31 494.80,491.49 512.00,493.60 529.20,494.37 546.40,495.97 563.60,496.71 580.80,498.15 598.00,498.89 615.20,499.64 632.40,501.98 649.60,502.85 666.80,503.25 684.00,504.20 701.20,504.15 718.40,504.12 735.60,505.10 752.80,506.68 770.00,506.59" fill="none" stroke="#2563eb" stroke-width="2.5"/>
<circle cx="99.20" cy="378.59" r="2.4" fill="#2563eb"/>
<circle cx="116.40" cy="419.47" r="2.4" fill="#2563eb"/>
<circle cx="133.60" cy="440.53" r="2.4" fill="#2563eb"/>
<circle cx="150.80" cy="450.26" r="2.4" fill="#2563eb"/>
<circle cx="168.00" cy="459.15" r="2.4" fill="#2563eb"/>
<circle cx="185.20" cy="462.49" r="2.4" fill="#2563eb"/>
<circle cx="202.40" cy="465.61" r="2.4" fill="#2563eb"/>
<circle cx="219.60" cy="470.07" r="2.4" fill="#2563eb"/>
<circle cx="236.80" cy="472.34" r="2.4" fill="#2563eb"/>
<circle cx="254.00" cy="473.06" r="2.4" fill="#2563eb"/>
<circle cx="271.20" cy="474.33" r="2.4" fill="#2563eb"/>
<circle cx="288.40" cy="477.58" r="2.4" fill="#2563eb"/>
<circle cx="305.60" cy="478.07" r="2.4" fill="#2563eb"/>
<circle cx="322.80" cy="480.47" r="2.4" fill="#2563eb"/>
<circle cx="340.00" cy="481.48" r="2.4" fill="#2563eb"/>
<circle cx="357.20" cy="482.16" r="2.4" fill="#2563eb"/>
<circle cx="374.40" cy="482.55" r="2.4" fill="#2563eb"/>
<circle cx="391.60" cy="486.94" r="2.4" fill="#2563eb"/>
<circle cx="408.80" cy="487.28" r="2.4" fill="#2563eb"/>
<circle cx="426.00" cy="488.35" r="2.4" fill="#2563eb"/>
<circle cx="443.20" cy="490.03" r="2.4" fill="#2563eb"/>
<circle cx="460.40" cy="490.39" r="2.4" fill="#2563eb"/>
<circle cx="477.60" cy="491.31" r="2.4" fill="#2563eb"/>
<circle cx="494.80" cy="491.49" r="2.4" fill="#2563eb"/>
<circle cx="512.00" cy="493.60" r="2.4" fill="#2563eb"/>
<circle cx="529.20" cy="494.37" r="2.4" fill="#2563eb"/>
<circle cx="546.40" cy="495.97" r="2.4" fill="#2563eb"/>
<circle cx="563.60" cy="496.71" r="2.4" fill="#2563eb"/>
<circle cx="580.80" cy="498.15" r="2.4" fill="#2563eb"/>
<circle cx="598.00" cy="498.89" r="2.4" fill="#2563eb"/>
<circle cx="615.20" cy="499.64" r="2.4" fill="#2563eb"/>
<circle cx="632.40" cy="501.98" r="2.4" fill="#2563eb"/>
<circle cx="649.60" cy="502.85" r="2.4" fill="#2563eb"/>
<circle cx="666.80" cy="503.25" r="2.4" fill="#2563eb"/>
<circle cx="684.00" cy="504.20" r="2.4" fill="#2563eb"/>
<circle cx="701.20" cy="504.15" r="2.4" fill="#2563eb"/>
<circle cx="718.40" cy="504.12" r="2.4" fill="#2563eb"/>
<circle cx="735.60" cy="505.10" r="2.4" fill="#2563eb"/>
<circle cx="752.80" cy="506.68" r="2.4" fill="#2563eb"/>
<circle cx="770.00" cy="506.59" r="2.4" fill="#2563eb"/>
<polyline points="82.00,78.00 82.69,78.00 83.38,78.00 84.06,78.00 84.75,78.00 85.44,111.86 86.13,136.76 86.82,156.58 87.50,170.20 88.19,178.90 88.88,189.38 89.57,189.97 90.26,193.73 90.94,206.57 91.63,217.62 92.32,220.62 93.01,229.61 93.70,238.53 94.38,248.17 95.07,249.98 95.76,251.78 96.45,257.54 97.14,260.41 97.82,262.18 98.51,263.67 99.20,295.11 99.89,308.99 100.58,317.22 101.26,321.91 101.95,320.15 102.64,323.08 103.33,325.42 104.02,325.45 104.70,331.28 105.39,337.36 106.08,339.61 106.77,347.52 107.46,350.57 108.14,350.32 108.83,349.12 109.52,351.01 110.21,349.06 110.90,350.27 111.58,348.06 112.27,348.33 112.96,347.11 113.65,345.86 114.34,349.83 115.02,349.23 115.71,351.86 116.40,352.55 117.09,350.87 117.78,350.27 118.46,351.17 119.15,357.15 119.84,355.80 120.53,357.29 121.22,362.27 121.90,356.71 122.59,357.01 123.28,358.41 123.97,354.30 124.66,355.35 125.34,353.99 126.03,355.42 126.72,358.21 127.41,352.15 128.10,350.61 128.78,350.46 129.47,353.04 130.16,358.49 130.85,356.32 131.54,352.60 132.22,352.43 132.91,349.86 133.60,349.90 134.29,350.67 134.98,349.20 135.66,347.92 136.35,344.35 137.04,346.44 137.73,344.41 138.42,340.41 139.10,339.08 139.79,337.43 140.48,332.75 141.17,338.18 141.86,338.59 142.54,338.57 143.23,339.87 143.92,334.91 144.61,339.71 145.30,338.25 145.98,339.87 146.67,337.99 147.36,332.75 148.05,336.07 148.74,337.04 149.42,339.96 150.11,344.08 150.80,345.00 151.49,340.12 152.18,341.11 152.86,339.91 153.55,343.93 154.24,342.70 154.93,343.25 155.62,342.89 156.30,348.34 156.99,346.92 157.68,350.36 158.37,347.46 159.06,348.27 159.74,347.98 160.43,348.35 161.12,354.94 161.81,355.28 162.50,357.13 163.18,356.74 163.87,360.23 164.56,365.60 165.25,365.58 165.94,364.12 166.62,364.61 167.31,365.69 168.00,363.09 168.69,367.06 169.38,370.10 170.06,374.58 170.75,370.28 171.44,370.92 172.13,373.66 172.82,374.22 173.50,374.92 174.19,377.15 174.88,377.90 175.57,379.93 176.26,378.54 176.94,377.33 177.63,371.75 178.32,361.81 179.01,360.84 179.70,362.36 180.38,359.16 181.07,359.26 181.76,353.33 182.45,352.04 183.14,353.28 183.82,353.89 184.51,350.28 185.20,352.69 185.89,353.59 186.58,353.54 187.26,352.95 187.95,354.56 188.64,354.37 189.33,353.68 190.02,349.46 190.70,348.46 191.39,349.96 192.08,350.20 192.77,350.73 193.46,352.61 194.14,357.99 194.83,365.31 195.52,374.27 196.21,378.00 196.90,376.83 197.58,375.89 198.27,375.21 198.96,377.93 199.65,380.53 200.34,376.20 201.02,373.17 201.71,375.23 202.40,373.33 203.09,375.15 203.78,369.91 204.46,367.39 205.15,367.92 205.84,369.51 206.53,370.39 207.22,377.15 207.90,378.51 208.59,376.72 209.28,377.64 209.97,371.06 210.66,369.68 211.34,368.37 212.03,365.93 212.72,368.02 213.41,368.03 214.10,365.08 214.78,369.46 215.47,369.99 216.16,370.99 216.85,373.33 217.54,377.39 218.22,380.87 218.91,378.19 219.60,381.36 220.29,377.74 220.98,378.99 221.66,380.45 222.35,378.02 223.04,374.44 223.73,369.31 224.42,368.14 225.10,365.53 225.79,366.58 226.48,360.21 227.17,363.81 227.86,363.36 228.54,360.08 229.23,358.32 229.92,354.85 230.61,350.22 231.30,354.79 231.98,355.73 232.67,354.13 233.36,354.30 234.05,352.20 234.74,350.55 235.42,349.00 236.11,351.95 236.80,350.35 237.49,350.43 238.18,349.75 238.86,348.33 239.55,349.91 240.24,353.14 240.93,356.50 241.62,353.86 242.30,352.94 242.99,347.78 243.68,350.70 244.37,353.15 245.06,350.13 245.74,352.46 246.43,352.89 247.12,351.80 247.81,358.81 248.50,350.27 249.18,348.63 249.87,350.29 250.56,350.02 251.25,349.19 251.94,352.34 252.62,352.41 253.31,352.77 254.00,353.57 254.69,354.49 255.38,352.94 256.06,354.23 256.75,352.72 257.44,353.20 258.13,353.79 258.82,358.02 259.50,358.47 260.19,361.35 260.88,366.33 261.57,367.36 262.26,372.26 262.94,374.11 263.63,375.82 264.32,378.63 265.01,376.29 265.70,381.89 266.38,381.33 267.07,379.69 267.76,378.47 268.45,374.31 269.14,373.70 269.82,375.60 270.51,372.15 271.20,369.79 271.89,364.29 272.58,367.40 273.26,367.20 273.95,365.93 274.64,367.65 275.33,358.80 276.02,360.34 276.70,360.50 277.39,362.53 278.08,360.04 278.77,355.74 279.46,354.73 280.14,352.04 280.83,351.11 281.52,347.69 282.21,347.90 282.90,347.95 283.58,345.34 284.27,339.97 284.96,343.99 285.65,348.68 286.34,348.65 287.02,343.30 287.71,346.47 288.40,347.52 289.09,353.78 289.78,352.99 290.46,351.32 291.15,353.08 291.84,347.60 292.53,351.68 293.22,348.16 293.90,342.37 294.59,343.03 295.28,341.37 295.97,343.41 296.66,346.56 297.34,348.17 298.03,346.09 298.72,348.93 299.41,347.50 300.10,348.31 300.78,346.86 301.47,350.57 302.16,349.29 302.85,350.15 303.54,349.64 304.22,348.59 304.91,343.41 305.60,342.62 306.29,343.82 306.98,342.04 307.66,339.14 308.35,340.23 309.04,342.25 309.73,346.72 310.42,348.73 311.10,347.09 311.79,341.92 312.48,342.33 313.17,341.55 313.86,336.42 314.54,329.25 315.23,331.46 315.92,329.17 316.61,332.57 317.30,334.46 317.98,339.80 318.67,341.54 319.36,342.17 320.05,341.31 320.74,343.70 321.42,351.50 322.11,352.91 322.80,355.56 323.49,354.56 324.18,357.15 324.86,361.58 325.55,363.97 326.24,365.76 326.93,361.05 327.62,358.35 328.30,369.12 328.99,370.88 329.68,368.99 330.37,369.92 331.06,375.06 331.74,382.22 332.43,381.70 333.12,383.22 333.81,380.50 334.50,379.78 335.18,381.41 335.87,384.74 336.56,385.38 337.25,379.59 337.94,378.04 338.62,378.54 339.31,382.98 340.00,381.02 340.69,382.60 341.38,384.93 342.06,386.40 342.75,383.99 343.44,381.00 344.13,388.55 344.82,389.95 345.50,384.19 346.19,384.81 346.88,384.96" fill="none" stroke="#d97706" stroke-width="1.5" opacity="0.35"/>
<polyline points="99.20,349.38 116.40,347.48 133.60,352.94 150.80,354.64 168.00,357.01 185.20,355.92 202.40,357.05 219.60,358.57 236.80,360.73 254.00,357.04 271.20,359.03 288.40,362.84 305.60,362.77 322.80,365.08 340.00,367.38" fill="none" stroke="#d97706" stroke-width="2.5"/>
<circle cx="99.20" cy="349.38" r="2.4" fill="#d97706"/>
<circle cx="116.40" cy="347.48" r="2.4" fill="#d97706"/>
<circle cx="133.60" cy="352.94" r="2.4" fill="#d97706"/>
<circle cx="150.80" cy="354.64" r="2.4" fill="#d97706"/>
<circle cx="168.00" cy="357.01" r="2.4" fill="#d97706"/>
<circle cx="185.20" cy="355.92" r="2.4" fill="#d97706"/>
<circle cx="202.40" cy="357.05" r="2.4" fill="#d97706"/>
<circle cx="219.60" cy="358.57" r="2.4" fill="#d97706"/>
<circle cx="236.80" cy="360.73" r="2.4" fill="#d97706"/>
<circle cx="254.00" cy="357.04" r="2.4" fill="#d97706"/>
<circle cx="271.20" cy="359.03" r="2.4" fill="#d97706"/>
<circle cx="288.40" cy="362.84" r="2.4" fill="#d97706"/>
<circle cx="305.60" cy="362.77" r="2.4" fill="#d97706"/>
<circle cx="322.80" cy="365.08" r="2.4" fill="#d97706"/>
<circle cx="340.00" cy="367.38" r="2.4" fill="#d97706"/>
<line x1="794" y1="86" x2="819" y2="86" stroke="#111827" stroke-width="3"/>
<text x="828" y="90" font-family="sans-serif" font-size="12" fill="#111827">Batch 128</text>
<line x1="794" y1="116" x2="819" y2="116" stroke="#9333ea" stroke-width="3"/>
<text x="828" y="120" font-family="sans-serif" font-size="12" fill="#111827">Batch 256</text>
<line x1="794" y1="146" x2="819" y2="146" stroke="#16a34a" stroke-width="3"/>
<text x="828" y="150" font-family="sans-serif" font-size="12" fill="#111827">Batch 64</text>
<line x1="794" y1="176" x2="819" y2="176" stroke="#2563eb" stroke-width="3"/>
<text x="828" y="180" font-family="sans-serif" font-size="12" fill="#111827">Batch 32</text>
<line x1="794" y1="206" x2="819" y2="206" stroke="#d97706" stroke-width="3"/>
<text x="828" y="210" font-family="sans-serif" font-size="12" fill="#111827">Batch 1 (partial)</text>
<text x="794" y="258" font-family="sans-serif" font-size="11" fill="#6b7280">faint: smoothed train</text>
<text x="794" y="274" font-family="sans-serif" font-size="11" fill="#6b7280">solid + dots: validation</text>
</svg>
