<svg xmlns="http://www.w3.org/2000/svg" width="1000" height="600" viewBox="0 0 1000 600">
<rect width="100%" height="100%" fill="#ffffff"/>
<text x="82" y="34" font-family="sans-serif" font-size="22" font-weight="700" fill="#111827">TinyStories learning-rate sweep</text>
<text x="82" y="57" font-family="sans-serif" font-size="13" fill="#4b5563">Same architecture, batch 128, and 327.68M-token budget</text>
<line x1="82" y1="528.00" x2="770" y2="528.00" stroke="#e5e7eb"/>
<text x="70" y="532.00" text-anchor="end" font-family="sans-serif" font-size="12" fill="#4b5563">1.20</text>
<line x1="82" y1="438.00" x2="770" y2="438.00" stroke="#e5e7eb"/>
<text x="70" y="442.00" text-anchor="end" font-family="sans-serif" font-size="12" fill="#4b5563">1.96</text>
<line x1="82" y1="348.00" x2="770" y2="348.00" stroke="#e5e7eb"/>
<text x="70" y="352.00" text-anchor="end" font-family="sans-serif" font-size="12" fill="#4b5563">2.72</text>
<line x1="82" y1="258.00" x2="770" y2="258.00" stroke="#e5e7eb"/>
<text x="70" y="262.00" text-anchor="end" font-family="sans-serif" font-size="12" fill="#4b5563">3.48</text>
<line x1="82" y1="168.00" x2="770" y2="168.00" stroke="#e5e7eb"/>
<text x="70" y="172.00" text-anchor="end" font-family="sans-serif" font-size="12" fill="#4b5563">4.24</text>
<line x1="82" y1="78.00" x2="770" y2="78.00" stroke="#e5e7eb"/>
<text x="70" y="82.00" text-anchor="end" font-family="sans-serif" font-size="12" fill="#4b5563">5.00</text>
<line x1="82.00" y1="78" x2="82.00" y2="528" stroke="#f3f4f6"/>
<text x="82.00" y="553" text-anchor="middle" font-family="sans-serif" font-size="12" fill="#4b5563">0</text>
<line x1="219.60" y1="78" x2="219.60" y2="528" stroke="#f3f4f6"/>
<text x="219.60" y="553" text-anchor="middle" font-family="sans-serif" font-size="12" fill="#4b5563">66</text>
<line x1="357.20" y1="78" x2="357.20" y2="528" stroke="#f3f4f6"/>
<text x="357.20" y="553" text-anchor="middle" font-family="sans-serif" font-size="12" fill="#4b5563">131</text>
<line x1="494.80" y1="78" x2="494.80" y2="528" stroke="#f3f4f6"/>
<text x="494.80" y="553" text-anchor="middle" font-family="sans-serif" font-size="12" fill="#4b5563">197</text>
<line x1="632.40" y1="78" x2="632.40" y2="528" stroke="#f3f4f6"/>
<text x="632.40" y="553" text-anchor="middle" font-family="sans-serif" font-size="12" fill="#4b5563">262</text>
<line x1="770.00" y1="78" x2="770.00" y2="528" stroke="#f3f4f6"/>
<text x="770.00" y="553" text-anchor="middle" font-family="sans-serif" font-size="12" fill="#4b5563">328</text>
<line x1="82" y1="528" x2="770" y2="528" stroke="#111827"/>
<line x1="82" y1="78" x2="82" y2="528" stroke="#111827"/>
<text x="426.0" y="580" text-anchor="middle" font-family="sans-serif" font-size="13" fill="#111827">Processed tokens (millions)</text>
<text x="22" y="303.0" transform="rotate(-90 22 303.0)" text-anchor="middle" font-family="sans-serif" font-size="13" fill="#111827">Cross-entropy loss</text>
<polyline points="82.07,78.00 82.69,78.00 83.38,78.00 84.06,78.00 84.75,78.00 85.44,78.00 86.13,78.00 86.82,78.00 87.50,78.00 88.19,78.00 88.88,78.00 89.57,78.00 90.26,78.00 90.94,78.00 91.63,78.00 92.32,78.00 93.01,78.00 93.70,78.00 94.38,78.00 95.07,78.00 95.76,78.00 96.45,78.00 97.14,78.00 97.82,78.00 98.51,78.00 99.20,78.00 99.89,78.00 100.58,78.00 101.26,78.00 101.95,78.00 102.64,81.36 103.33,103.47 104.02,124.31 104.70,143.94 105.39,162.55 106.08,179.55 106.77,194.98 107.46,208.61 108.14,221.00 108.83,231.68 109.52,241.19 110.21,250.16 110.90,258.10 111.58,265.12 112.27,271.84 112.96,278.26 113.65,283.87 114.34,289.51 115.02,294.39 115.71,298.75 116.40,303.32 117.09,307.24 117.78,311.23 118.46,315.08 119.15,318.50 119.84,321.32 120.53,324.95 121.22,328.58 121.90,331.60 122.59,334.06 123.28,336.53 123.97,339.03 124.66,341.38 125.34,343.54 126.03,346.23 126.72,348.74 127.41,350.95 128.10,352.97 128.78,355.54 129.47,357.17 130.16,358.94 130.85,360.64 131.54,362.16 132.22,364.46 132.91,366.14 133.60,367.42 134.29,368.93 134.98,370.48 135.66,371.94 136.35,373.46 137.04,375.03 137.73,375.85 138.42,376.77 139.10,378.09 139.79,379.35 140.48,380.59 141.17,381.51 141.86,382.68 142.54,383.75 143.23,384.57 143.92,385.50 144.61,385.90 145.30,387.15 145.98,387.94 146.67,389.15 147.36,389.95 148.05,390.93 148.74,391.98 149.42,392.74 150.11,393.71 150.80,394.60 151.49,395.50 152.18,396.34 152.86,397.43 153.55,398.15 154.24,399.03 154.93,400.16 155.62,401.12 156.30,401.76 156.99,402.55 157.68,403.21 158.37,403.96 159.06,404.72 159.74,405.36 160.43,406.37 161.12,407.11 161.81,408.08 162.50,408.97 163.18,409.56 163.87,410.09 164.56,410.94 165.25,412.14 165.94,412.36 166.62,413.22 167.31,414.10 168.00,415.16 168.69,415.90 169.38,416.74 170.06,416.95 170.75,417.74 171.44,418.14 172.13,418.75 172.82,419.33 173.50,420.23 174.19,420.78 174.88,421.53 175.57,422.21 176.26,423.07 176.94,423.77 177.63,424.09 178.32,424.80 179.01,425.67 179.70,425.70 180.38,426.43 181.07,426.72 181.76,427.06 182.45,427.37 183.14,428.08 183.82,427.88 184.51,428.03 185.20,428.24 185.89,428.64 186.58,428.84 187.26,429.67 187.95,429.90 188.64,430.29 189.33,430.81 190.02,431.36 190.70,431.68 191.39,431.72 192.08,431.97 192.77,432.20 193.46,432.23 194.14,432.42 194.83,432.87 195.52,433.19 196.21,433.75 196.90,434.41 197.58,434.32 198.27,434.84 198.96,435.20 199.65,435.18 200.34,435.66 201.02,436.23 201.71,436.72 202.40,437.06 203.09,437.78 203.78,437.95 204.46,438.05 205.15,438.16 205.84,438.69 206.53,439.18 207.22,439.23 207.90,439.27 208.59,439.92 209.28,440.30 209.97,440.62 210.66,440.92 211.34,441.27 212.03,441.80 212.72,442.14 213.41,441.95 214.10,442.31 214.78,442.92 215.47,443.44 216.16,443.82 216.85,444.08 217.54,444.48 218.22,445.20 218.91,445.68 219.60,446.04 220.29,445.77 220.98,446.23 221.66,446.66 222.35,447.07 223.04,446.99 223.73,446.90 224.42,447.24 225.10,447.85 225.79,448.12 226.48,448.40 227.17,448.84 227.86,449.47 228.54,449.71 229.23,449.76 229.92,449.85 230.61,450.08 231.30,450.05 231.98,450.15 232.67,450.20 233.36,450.51 234.05,451.12 234.74,451.03 235.42,451.04 236.11,451.18 236.80,451.21 237.49,451.56 238.18,451.49 238.86,451.43 239.55,451.48 240.24,452.01 240.93,452.44 241.62,452.75 242.30,452.94 242.99,453.23 243.68,453.38 244.37,453.30 245.06,453.20 245.74,453.41 246.43,453.83 247.12,454.06 247.81,454.49 248.50,454.70 249.18,454.89 249.87,455.01 250.56,455.06 251.25,455.01 251.94,455.40 252.62,455.58 253.31,455.51 254.00,455.77 254.69,456.08 255.38,456.40 256.06,456.51 256.75,457.00 257.44,457.03 258.13,457.15 258.82,457.25 259.50,457.39 260.19,457.46 260.88,457.85 261.57,458.11 262.26,458.38 262.94,458.52 263.63,458.29 264.32,458.38 265.01,458.66 265.70,458.66 266.38,458.81 267.07,459.07 267.76,459.37 268.45,459.46 269.14,459.51 269.82,459.67 270.51,459.71 271.20,460.00 271.89,460.02 272.58,460.22 273.26,460.04 273.95,460.28 274.64,460.18 275.33,460.32 276.02,460.38 276.70,460.24 277.39,460.36 278.08,460.23 278.77,460.43 279.46,460.58 280.14,460.94 280.83,461.08 281.52,461.04 282.21,460.96 282.90,461.10 283.58,461.03 284.27,461.33 284.96,461.30 285.65,461.71 286.34,461.81 287.02,461.75 287.71,462.05 288.40,462.01 289.09,462.24 289.78,462.14 290.46,462.51 291.15,462.10 291.84,462.40 292.53,462.32 293.22,462.56 293.90,462.61 294.59,462.81 295.28,462.94 295.97,462.98 296.66,462.95 297.34,462.66 298.03,462.82 298.72,463.01 299.41,463.11 300.10,463.40 300.78,463.85 301.47,463.87 302.16,464.07 302.85,463.96 303.54,464.11 304.22,464.42 304.91,464.58 305.60,464.67 306.29,464.60 306.98,465.04 307.66,465.40 308.35,465.68 309.04,465.91 309.73,466.39 310.42,466.29 311.10,466.50 311.79,466.39 312.48,466.70 313.17,467.05 313.86,467.30 314.54,467.60 315.23,467.65 315.92,467.92 316.61,468.05 317.30,468.22 317.98,468.21 318.67,467.98 319.36,467.93 320.05,467.91 320.74,467.83 321.42,467.77 322.11,467.50 322.80,467.35 323.49,467.41 324.18,467.21 324.86,467.30 325.55,467.49 326.24,467.55 326.93,467.41 327.62,467.71 328.30,467.57 328.99,467.87 329.68,467.95 330.37,467.74 331.06,467.60 331.74,467.72 332.43,467.80 333.12,467.73 333.81,467.70 334.50,467.44 335.18,467.37 335.87,467.71 336.56,467.63 337.25,467.71 337.94,467.72 338.62,467.78 339.31,467.96 340.00,468.22 340.69,468.39 341.38,468.80 342.06,468.92 342.75,469.06 343.44,468.94 344.13,469.11 344.82,469.05 345.50,469.51 346.19,469.53 346.88,469.63 347.57,469.93 348.26,470.08 348.94,470.12 349.63,470.34 350.32,470.36 351.01,470.32 351.70,470.61 352.38,470.98 353.07,470.99 353.76,471.34 354.45,471.66 355.14,472.05 355.82,471.97 356.51,472.23 357.20,472.09 357.89,472.22 358.58,472.05 359.26,472.07 359.95,472.31 360.64,472.30 361.33,472.41 362.02,472.30 362.70,472.26 363.39,472.42 364.08,472.31 364.77,472.39 365.46,472.32 366.14,472.56 366.83,472.84 367.52,473.04 368.21,473.53 368.90,473.34 369.58,473.23 370.27,473.41 370.96,473.39 371.65,473.11 372.34,473.27 373.02,473.51 373.71,473.56 374.40,473.73 375.09,473.51 375.78,473.54 376.46,473.85 377.15,474.04 377.84,474.24 378.53,474.17 379.22,474.49 379.90,474.67 380.59,474.50 381.28,474.79 381.97,474.69 382.66,475.28 383.34,475.12 384.03,475.07 384.72,475.16 385.41,474.97 386.10,475.41 386.78,475.58 387.47,475.61 388.16,475.73 388.85,476.09 389.54,476.06 390.22,475.94 390.91,476.05 391.60,476.21 392.29,476.19 392.98,476.55 393.66,476.19 394.35,475.96 395.04,475.79 395.73,476.05 396.42,476.06 397.10,475.86 397.79,475.87 398.48,475.66 399.17,475.87 399.86,475.37 400.54,475.60 401.23,475.36 401.92,475.38 402.61,475.30 403.30,475.55 403.98,475.76 404.67,475.80 405.36,475.71 406.05,475.78 406.74,475.59 407.42,476.11 408.11,476.04 408.80,476.38 409.49,476.66 410.18,476.56 410.86,477.05 411.55,477.07 412.24,477.41 412.93,477.41 413.62,477.61 414.30,477.69 414.99,477.83 415.68,478.16 416.37,478.33 417.06,478.47 417.74,478.26 418.43,478.56 419.12,478.71 419.81,478.92 420.50,478.92 421.18,478.59 421.87,478.49 422.56,478.63 423.25,478.55 423.94,478.78 424.62,478.33 425.31,478.24 426.00,478.13 426.69,478.36 427.38,478.42 428.06,478.14 428.75,478.37 429.44,478.65 430.13,478.55 430.82,478.40 431.50,478.48 432.19,478.58 432.88,478.20 433.57,477.96 434.26,478.06 434.94,478.29 435.63,478.26 436.32,478.41 437.01,478.51 437.70,478.41 438.38,478.74 439.07,478.80 439.76,478.96 440.45,478.90 441.14,479.24 441.82,479.52 442.51,479.63 443.20,479.78 443.89,479.95 444.58,479.85 445.26,480.12 445.95,479.98 446.64,479.80 447.33,479.81 448.02,479.94 448.70,479.94 449.39,479.79 450.08,479.96 450.77,480.32 451.46,480.33 452.14,480.12 452.83,480.23 453.52,480.18 454.21,480.27 454.90,480.25 455.58,480.22 456.27,480.39 456.96,480.34 457.65,480.31 458.34,480.30 459.02,480.41 459.71,480.65 460.40,480.47 461.09,480.33 461.78,480.39 462.46,480.16 463.15,480.22 463.84,480.58 464.53,480.89 465.22,480.81 465.90,481.14 466.59,481.47 467.28,481.75 467.97,481.52 468.66,481.67 469.34,481.81 470.03,481.73 470.72,481.75 471.41,481.90 472.10,481.84 472.78,482.06 473.47,482.15 474.16,482.07 474.85,482.59 475.54,482.23 476.22,482.39 476.91,482.33 477.60,482.60 478.29,482.58 478.98,482.62 479.66,482.76 480.35,482.90 481.04,482.73 481.73,482.78 482.42,482.79 483.10,482.75 483.79,482.77 484.48,482.63 485.17,482.98 485.86,483.10 486.54,483.15 487.23,482.95 487.92,482.71 488.61,482.82 489.30,483.19 489.98,482.76 490.67,482.76 491.36,483.01 492.05,482.78 492.74,482.99 493.42,482.84 494.11,483.16 494.80,483.14 495.49,483.09 496.18,483.44 496.86,483.58 497.55,483.36 498.24,483.18 498.93,482.96 499.62,483.26 500.30,483.22 500.99,483.31 501.68,482.99 502.37,483.08 503.06,483.32 503.74,483.29 504.43,483.87 505.12,484.07 505.81,483.82 506.50,483.38 507.18,483.72 507.87,483.74 508.56,483.53 509.25,483.39 509.94,483.38 510.62,483.41 511.31,483.21 512.00,483.42 512.69,483.65 513.38,483.52 514.06,483.51 514.75,483.57 515.44,483.78 516.13,483.83 516.82,483.84 517.50,483.68 518.19,483.52 518.88,484.22 519.57,483.81 520.26,483.69 520.94,483.81 521.63,483.45 522.32,483.44 523.01,483.77 523.70,483.92 524.38,483.90 525.07,483.97 525.76,484.50 526.45,484.69 527.14,484.86 527.82,484.87 528.51,484.58 529.20,484.41 529.89,484.44 530.58,484.51 531.26,484.51 531.95,484.57 532.64,484.44 533.33,484.42 534.02,484.07 534.70,484.28 535.39,484.34 536.08,483.99 536.77,484.06 537.46,483.87 538.14,484.10 538.83,484.36 539.52,484.47 540.21,484.49 540.90,484.39 541.58,484.45 542.27,484.23 542.96,484.07 543.65,484.03 544.34,483.96 545.02,483.88 545.71,484.27 546.40,484.47 547.09,484.57 547.78,484.54 548.46,484.61 549.15,484.84 549.84,484.85 550.53,485.12 551.22,485.54 551.90,485.50 552.59,485.50 553.28,485.46 553.97,485.46 554.66,485.61 555.34,485.85 556.03,485.96 556.72,486.02 557.41,486.05 558.10,486.39 558.78,486.20 559.47,486.35 560.16,486.30 560.85,486.61 561.54,486.85 562.22,486.87 562.91,486.77 563.60,486.40 564.29,485.88 564.98,486.01 565.66,486.18 566.35,486.09 567.04,486.21 567.73,486.03 568.42,485.89 569.10,486.16 569.79,486.22 570.48,486.41 571.17,486.39 571.86,486.56 572.54,486.49 573.23,486.40 573.92,486.31 574.61,486.03 575.30,485.76 575.98,485.99 576.67,486.08 577.36,486.45 578.05,486.14 578.74,485.86 579.42,486.21 580.11,486.30 580.80,486.81 581.49,487.20 582.18,487.24 582.86,486.96 583.55,486.96 584.24,487.01 584.93,487.15 585.62,487.28 586.30,487.12 586.99,486.83 587.68,486.91 588.37,487.04 589.06,487.09 589.74,486.96 590.43,487.01 591.12,487.00 591.81,487.05 592.50,487.06 593.18,487.22 593.87,487.29 594.56,487.14 595.25,487.26 595.94,487.56 596.62,487.21 597.31,487.20 598.00,487.17 598.69,487.21 599.38,487.25 600.06,487.67 600.75,487.83 601.44,487.76 602.13,487.94 602.82,487.94 603.50,488.11 604.19,488.41 604.88,488.50 605.57,488.70 606.26,488.67 606.94,488.51 607.63,488.67 608.32,488.77 609.01,488.80 609.70,489.09 610.38,488.93 611.07,488.90 611.76,488.85 612.45,488.83 613.14,488.41 613.82,488.89 614.51,489.09 615.20,488.71 615.89,488.99 616.58,488.94 617.26,488.57 617.95,488.70 618.64,489.02 619.33,489.01 620.02,488.83 620.70,488.89 621.39,488.74 622.08,488.75 622.77,488.67 623.46,488.69 624.14,488.89 624.83,488.74 625.52,488.62 626.21,488.58 626.90,488.57 627.58,488.50 628.27,488.60 628.96,488.76 629.65,488.63 630.34,488.55 631.02,488.64 631.71,488.54 632.40,488.46 633.09,488.28 633.78,488.22 634.46,488.47 635.15,488.31 635.84,487.94 636.53,487.75 637.22,488.06 637.90,488.02 638.59,488.10 639.28,487.92 639.97,487.76 640.66,487.65 641.34,487.39 642.03,487.53 642.72,487.53 643.41,487.94 644.10,487.70 644.78,487.75 645.47,487.58 646.16,487.21 646.85,487.48 647.54,487.84 648.22,487.41 648.91,487.48 649.60,487.88 650.29,487.60 650.98,487.68 651.66,487.37 652.35,487.52 653.04,487.33 653.73,487.54 654.42,487.40 655.10,487.32 655.79,487.68 656.48,487.67 657.17,487.99 657.86,488.22 658.54,488.45 659.23,488.30 659.92,488.51 660.61,488.31 661.30,488.62 661.98,488.65 662.67,488.98 663.36,488.92 664.05,489.00 664.74,489.23 665.42,489.54 666.11,489.33 666.80,489.14 667.49,489.49 668.18,489.35 668.86,489.56 669.55,489.43 670.24,489.89 670.93,489.66 671.62,489.51 672.30,489.61 672.99,489.29 673.68,489.59 674.37,489.66 675.06,489.44 675.74,489.45 676.43,489.33 677.12,489.16 677.81,489.01 678.50,489.17 679.18,489.20 679.87,488.92 680.56,489.19 681.25,488.90 681.94,488.48 682.62,488.22 683.31,488.35 684.00,488.54 684.69,488.71 685.38,488.81 686.06,488.98 686.75,488.83 687.44,488.57 688.13,488.51 688.82,488.62 689.50,488.51 690.19,488.81 690.88,488.60 691.57,488.49 692.26,488.57 692.94,488.74 693.63,488.82 694.32,489.00 695.01,489.10 695.70,488.98 696.38,488.91 697.07,489.02 697.76,489.04 698.45,489.32 699.14,489.65 699.82,489.75 700.51,489.69 701.20,489.70 701.89,489.43 702.58,489.56 703.26,489.47 703.95,489.73 704.64,489.58 705.33,489.74 706.02,489.83 706.70,489.61 707.39,489.41 708.08,489.73 708.77,489.73 709.46,489.64 710.14,489.53 710.83,489.54 711.52,489.49 712.21,489.56 712.90,489.52 713.58,489.60 714.27,489.65 714.96,489.71 715.65,489.52 716.34,489.31 717.02,489.32 717.71,489.26 718.40,489.10 719.09,489.04 719.78,488.94 720.46,489.02 721.15,488.92 721.84,489.03 722.53,488.90 723.22,489.08 723.90,489.30 724.59,489.27 725.28,489.02 725.97,488.88 726.66,488.91 727.34,488.92 728.03,488.79 728.72,488.82 729.41,488.89 730.10,489.12 730.78,489.11 731.47,489.19 732.16,489.08 732.85,489.47 733.54,489.69 734.22,489.63 734.91,489.93 735.60,490.32 736.29,490.49 736.98,490.47 737.66,490.32 738.35,490.45 739.04,490.63 739.73,490.69 740.42,490.30 741.10,490.33 741.79,490.42 742.48,490.40 743.17,490.66 743.86,490.78 744.54,490.77 745.23,491.10 745.92,491.20 746.61,491.14 747.30,490.97 747.98,491.14 748.67,491.04 749.36,490.91 750.05,490.63 750.74,490.68 751.42,490.69 752.11,490.68 752.80,490.45 753.49,490.26 754.18,490.35 754.86,490.70 755.55,490.76 756.24,490.69 756.93,490.60 757.62,490.65 758.30,490.77 758.99,490.63 759.68,490.69 760.37,490.72 761.06,490.76 761.74,490.76 762.43,490.68 763.12,490.56 763.81,490.68 764.50,490.69 765.18,490.60 765.87,490.73 766.56,491.05 767.25,491.27 767.94,491.19 768.62,491.26 769.31,490.94 770.00,491.09" fill="none" stroke="#7c3aed" stroke-width="1.5" opacity="0.35"/>
<polyline points="99.20,234.72 116.40,344.62 133.60,383.50 150.80,406.43 168.00,422.12 185.20,432.64 202.40,441.05 219.60,448.04 236.80,451.80 254.00,457.36 271.20,458.80 288.40,461.87 305.60,466.66 322.80,469.47 340.00,470.55 357.20,473.44 374.40,473.79 391.60,475.35 408.80,476.06 426.00,476.78 443.20,478.73 460.40,480.53 477.60,482.62 494.80,481.39 512.00,482.60 529.20,483.98 546.40,484.64 563.60,485.91 580.80,485.30 598.00,484.76 615.20,487.17 632.40,487.58 649.60,487.63 666.80,488.04 684.00,488.31 701.20,489.80 718.40,489.42 735.60,489.31 752.80,489.27 770.00,491.72" fill="none" stroke="#7c3aed" stroke-width="2.5"/>
<circle cx="99.20" cy="234.72" r="2.4" fill="#7c3aed"/>
<circle cx="116.40" cy="344.62" r="2.4" fill="#7c3aed"/>
<circle cx="133.60" cy="383.50" r="2.4" fill="#7c3aed"/>
<circle cx="150.80" cy="406.43" r="2.4" fill="#7c3aed"/>
<circle cx="168.00" cy="422.12" r="2.4" fill="#7c3aed"/>
<circle cx="185.20" cy="432.64" r="2.4" fill="#7c3aed"/>
<circle cx="202.40" cy="441.05" r="2.4" fill="#7c3aed"/>
<circle cx="219.60" cy="448.04" r="2.4" fill="#7c3aed"/>
<circle cx="236.80" cy="451.80" r="2.4" fill="#7c3aed"/>
<circle cx="254.00" cy="457.36" r="2.4" fill="#7c3aed"/>
<circle cx="271.20" cy="458.80" r="2.4" fill="#7c3aed"/>
<circle cx="288.40" cy="461.87" r="2.4" fill="#7c3aed"/>
<circle cx="305.60" cy="466.66" r="2.4" fill="#7c3aed"/>
<circle cx="322.80" cy="469.47" r="2.4" fill="#7c3aed"/>
<circle cx="340.00" cy="470.55" r="2.4" fill="#7c3aed"/>
<circle cx="357.20" cy="473.44" r="2.4" fill="#7c3aed"/>
<circle cx="374.40" cy="473.79" r="2.4" fill="#7c3aed"/>
<circle cx="391.60" cy="475.35" r="2.4" fill="#7c3aed"/>
<circle cx="408.80" cy="476.06" r="2.4" fill="#7c3aed"/>
<circle cx="426.00" cy="476.78" r="2.4" fill="#7c3aed"/>
<circle cx="443.20" cy="478.73" r="2.4" fill="#7c3aed"/>
<circle cx="460.40" cy="480.53" r="2.4" fill="#7c3aed"/>
<circle cx="477.60" cy="482.62" r="2.4" fill="#7c3aed"/>
<circle cx="494.80" cy="481.39" r="2.4" fill="#7c3aed"/>
<circle cx="512.00" cy="482.60" r="2.4" fill="#7c3aed"/>
<circle cx="529.20" cy="483.98" r="2.4" fill="#7c3aed"/>
<circle cx="546.40" cy="484.64" r="2.4" fill="#7c3aed"/>
<circle cx="563.60" cy="485.91" r="2.4" fill="#7c3aed"/>
<circle cx="580.80" cy="485.30" r="2.4" fill="#7c3aed"/>
<circle cx="598.00" cy="484.76" r="2.4" fill="#7c3aed"/>
<circle cx="615.20" cy="487.17" r="2.4" fill="#7c3aed"/>
<circle cx="632.40" cy="487.58" r="2.4" fill="#7c3aed"/>
<circle cx="649.60" cy="487.63" r="2.4" fill="#7c3aed"/>
<circle cx="666.80" cy="488.04" r="2.4" fill="#7c3aed"/>
<circle cx="684.00" cy="488.31" r="2.4" fill="#7c3aed"/>
<circle cx="701.20" cy="489.80" r="2.4" fill="#7c3aed"/>
<circle cx="718.40" cy="489.42" r="2.4" fill="#7c3aed"/>
<circle cx="735.60" cy="489.31" r="2.4" fill="#7c3aed"/>
<circle cx="752.80" cy="489.27" r="2.4" fill="#7c3aed"/>
<circle cx="770.00" cy="491.72" r="2.4" fill="#7c3aed"/>
<polyline points="82.07,78.00 82.69,78.00 83.38,78.00 84.06,78.00 84.75,78.00 85.44,78.00 86.13,78.00 86.82,78.00 87.50,78.00 88.19,78.00 88.88,78.00 89.57,78.00 90.26,78.00 90.94,78.00 91.63,78.00 92.32,78.00 93.01,78.00 93.70,78.00 94.38,78.00 95.07,78.00 95.76,78.00 96.45,78.00 97.14,78.00 97.82,78.00 98.51,78.00 99.20,78.00 99.89,78.00 100.58,99.78 101.26,126.40 101.95,151.41 102.64,174.11 103.33,194.85 104.02,213.84 104.70,230.27 105.39,244.60 106.08,256.79 106.77,267.73 107.46,277.35 108.14,285.84 108.83,293.73 109.52,300.36 110.21,306.64 110.90,312.27 111.58,317.62 112.27,322.51 112.96,326.67 113.65,330.76 114.34,335.19 115.02,338.96 115.71,342.71 116.40,347.02 117.09,350.34 117.78,353.39 118.46,356.71 119.15,359.23 119.84,362.31 120.53,365.00 121.22,367.19 121.90,369.26 122.59,371.37 123.28,373.76 123.97,375.91 124.66,378.03 125.34,379.92 126.03,381.22 126.72,383.21 127.41,385.00 128.10,386.94 128.78,388.37 129.47,390.38 130.16,392.24 130.85,394.09 131.54,395.37 132.22,397.28 132.91,398.36 133.60,399.44 134.29,400.80 134.98,402.54 135.66,403.82 136.35,405.18 137.04,405.93 137.73,407.35 138.42,408.87 139.10,410.53 139.79,411.77 140.48,412.80 141.17,414.18 141.86,415.15 142.54,416.49 143.23,417.77 143.92,418.91 144.61,419.64 145.30,420.74 145.98,422.03 146.67,422.70 147.36,423.40 148.05,424.27 148.74,425.58 149.42,426.37 150.11,427.34 150.80,428.04 151.49,428.66 152.18,429.54 152.86,429.85 153.55,430.78 154.24,431.56 154.93,432.06 155.62,432.75 156.30,433.28 156.99,434.16 157.68,435.06 158.37,435.38 159.06,435.99 159.74,436.30 160.43,437.13 161.12,437.40 161.81,437.87 162.50,438.29 163.18,438.50 163.87,439.05 164.56,439.47 165.25,439.99 165.94,440.05 166.62,440.31 167.31,441.24 168.00,441.23 168.69,441.95 169.38,441.91 170.06,442.60 170.75,442.90 171.44,443.34 172.13,443.29 172.82,443.61 173.50,443.86 174.19,444.02 174.88,444.33 175.57,444.60 176.26,444.78 176.94,445.48 177.63,445.69 178.32,446.18 179.01,446.74 179.70,447.04 180.38,447.92 181.07,448.19 181.76,448.76 182.45,448.91 183.14,449.44 183.82,449.48 184.51,449.56 185.20,450.20 185.89,450.26 186.58,450.87 187.26,450.95 187.95,451.33 188.64,451.64 189.33,452.50 190.02,452.61 190.70,453.24 191.39,453.71 192.08,454.24 192.77,454.76 193.46,455.12 194.14,455.04 194.83,455.32 195.52,455.44 196.21,455.69 196.90,455.98 197.58,456.11 198.27,456.24 198.96,456.82 199.65,457.24 200.34,457.20 201.02,457.73 201.71,457.94 202.40,457.96 203.09,458.22 203.78,458.69 204.46,459.03 205.15,459.01 205.84,459.30 206.53,459.49 207.22,459.68 207.90,460.00 208.59,459.78 209.28,459.94 209.97,460.11 210.66,460.31 211.34,460.60 212.03,460.96 212.72,461.52 213.41,461.62 214.10,461.81 214.78,462.05 215.47,462.50 216.16,462.51 216.85,462.71 217.54,463.05 218.22,463.20 218.91,463.55 219.60,464.05 220.29,464.33 220.98,464.32 221.66,464.44 222.35,464.70 223.04,464.95 223.73,465.14 224.42,464.89 225.10,464.65 225.79,464.92 226.48,465.04 227.17,464.97 227.86,465.32 228.54,465.50 229.23,465.44 229.92,465.56 230.61,465.84 231.30,466.04 231.98,466.05 232.67,465.90 233.36,465.63 234.05,465.56 234.74,465.61 235.42,465.70 236.11,465.70 236.80,465.59 237.49,465.69 238.18,465.82 238.86,465.93 239.55,466.22 240.24,466.43 240.93,466.47 241.62,467.04 242.30,467.23 242.99,467.45 243.68,467.44 244.37,467.87 245.06,468.13 245.74,468.35 246.43,468.47 247.12,468.66 247.81,468.55 248.50,468.75 249.18,468.78 249.87,469.11 250.56,469.40 251.25,469.74 251.94,470.04 252.62,470.41 253.31,470.24 254.00,470.62 254.69,470.89 255.38,471.00 256.06,471.35 256.75,471.51 257.44,471.39 258.13,471.49 258.82,471.81 259.50,472.11 260.19,472.16 260.88,472.39 261.57,472.27 262.26,472.15 262.94,472.30 263.63,472.42 264.32,472.35 265.01,472.42 265.70,472.29 266.38,472.54 267.07,472.77 267.76,472.90 268.45,472.93 269.14,472.94 269.82,472.66 270.51,472.80 271.20,472.76 271.89,472.87 272.58,472.73 273.26,473.03 273.95,472.88 274.64,473.35 275.33,473.75 276.02,473.58 276.70,473.30 277.39,473.52 278.08,473.67 278.77,473.95 279.46,474.21 280.14,474.03 280.83,474.04 281.52,474.29 282.21,474.70 282.90,474.95 283.58,475.12 284.27,475.02 284.96,475.19 285.65,475.38 286.34,475.68 287.02,475.96 287.71,476.19 288.40,476.35 289.09,476.03 289.78,476.38 290.46,476.09 291.15,476.24 291.84,476.09 292.53,476.04 293.22,476.36 293.90,476.70 294.59,476.77 295.28,476.52 295.97,476.63 296.66,476.64 297.34,476.68 298.03,477.04 298.72,476.92 299.41,477.28 300.10,477.44 300.78,477.53 301.47,477.78 302.16,477.68 302.85,477.73 303.54,477.62 304.22,478.10 304.91,477.68 305.60,477.60 306.29,477.99 306.98,478.05 307.66,478.02 308.35,478.19 309.04,478.42 309.73,478.56 310.42,478.55 311.10,478.42 311.79,478.65 312.48,478.96 313.17,478.88 313.86,478.94 314.54,479.50 315.23,479.49 315.92,479.63 316.61,479.47 317.30,479.49 317.98,479.36 318.67,479.20 319.36,479.23 320.05,479.31 320.74,479.52 321.42,479.23 322.11,480.01 322.80,480.16 323.49,479.94 324.18,480.10 324.86,480.37 325.55,480.32 326.24,480.11 326.93,480.02 327.62,479.86 328.30,480.11 328.99,479.92 329.68,480.01 330.37,480.42 331.06,480.44 331.74,480.24 332.43,479.77 333.12,479.93 333.81,479.97 334.50,480.18 335.18,480.32 335.87,480.49 336.56,480.63 337.25,480.84 337.94,480.79 338.62,481.01 339.31,480.99 340.00,481.19 340.69,481.43 341.38,481.56 342.06,481.60 342.75,481.77 343.44,482.03 344.13,482.02 344.82,482.13 345.50,482.32 346.19,482.59 346.88,482.46 347.57,482.46 348.26,482.51 348.94,482.51 349.63,483.10 350.32,483.08 351.01,483.30 351.70,483.39 352.38,483.51 353.07,483.33 353.76,483.71 354.45,483.80 355.14,483.92 355.82,483.89 356.51,483.91 357.20,483.85 357.89,483.92 358.58,483.73 359.26,483.74 359.95,483.81 360.64,483.74 361.33,483.93 362.02,484.20 362.70,484.16 363.39,484.40 364.08,484.93 364.77,484.88 365.46,485.00 366.14,484.96 366.83,484.80 367.52,485.13 368.21,484.87 368.90,484.80 369.58,484.86 370.27,485.00 370.96,484.80 371.65,484.86 372.34,485.01 373.02,485.15 373.71,485.24 374.40,485.13 375.09,485.56 375.78,485.55 376.46,485.87 377.15,485.81 377.84,485.80 378.53,485.83 379.22,485.74 379.90,485.89 380.59,485.70 381.28,485.50 381.97,485.88 382.66,485.90 383.34,486.16 384.03,486.43 384.72,486.24 385.41,486.41 386.10,486.25 386.78,486.42 387.47,486.79 388.16,486.86 388.85,486.79 389.54,486.92 390.22,486.97 390.91,486.90 391.60,487.04 392.29,486.73 392.98,487.02 393.66,486.79 394.35,486.85 395.04,487.05 395.73,486.95 396.42,486.91 397.10,486.82 397.79,486.82 398.48,486.92 399.17,486.44 399.86,486.41 400.54,486.37 401.23,486.28 401.92,486.35 402.61,486.31 403.30,486.55 403.98,486.56 404.67,486.38 405.36,486.64 406.05,486.66 406.74,486.24 407.42,486.15 408.11,486.35 408.80,486.42 409.49,486.43 410.18,486.57 410.86,486.42 411.55,486.57 412.24,486.60 412.93,486.51 413.62,486.81 414.30,486.90 414.99,487.10 415.68,487.11 416.37,487.26 417.06,487.23 417.74,487.31 418.43,487.51 419.12,487.44 419.81,487.44 420.50,487.32 421.18,487.29 421.87,487.46 422.56,487.34 423.25,487.18 423.94,487.79 424.62,488.03 425.31,488.08 426.00,488.00 426.69,488.09 427.38,488.08 428.06,488.37 428.75,488.38 429.44,488.51 430.13,489.04 430.82,488.92 431.50,488.70 432.19,488.78 432.88,488.87 433.57,489.02 434.26,489.45 434.94,489.46 435.63,489.40 436.32,489.39 437.01,489.55 437.70,489.86 438.38,489.79 439.07,490.09 439.76,490.21 440.45,490.51 441.14,490.47 441.82,490.39 442.51,490.17 443.20,490.28 443.89,490.35 444.58,490.01 445.26,489.87 445.95,490.11 446.64,489.97 447.33,489.89 448.02,489.81 448.70,489.97 449.39,490.08 450.08,489.95 450.77,489.96 451.46,489.69 452.14,489.95 452.83,490.20 453.52,490.31 454.21,490.48 454.90,490.63 455.58,490.89 456.27,490.82 456.96,490.59 457.65,490.54 458.34,490.68 459.02,490.84 459.71,491.09 460.40,491.19 461.09,491.31 461.78,491.58 462.46,491.84 463.15,491.81 463.84,492.17 464.53,492.06 465.22,492.50 465.90,492.56 466.59,492.34 467.28,492.46 467.97,492.66 468.66,492.71 469.34,492.58 470.03,492.65 470.72,492.56 471.41,492.65 472.10,492.61 472.78,492.56 473.47,492.47 474.16,492.90 474.85,493.09 475.54,493.02 476.22,492.92 476.91,493.05 477.60,493.27 478.29,493.50 478.98,493.48 479.66,493.54 480.35,493.26 481.04,492.86 481.73,492.89 482.42,493.01 483.10,493.16 483.79,493.45 484.48,493.48 485.17,493.31 485.86,493.59 486.54,493.75 487.23,493.54 487.92,493.86 488.61,493.72 489.30,493.74 489.98,493.75 490.67,493.69 491.36,493.64 492.05,493.57 492.74,493.60 493.42,493.43 494.11,493.18 494.80,493.24 495.49,493.02 496.18,493.31 496.86,493.25 497.55,493.55 498.24,493.79 498.93,494.01 499.62,493.57 500.30,493.60 500.99,493.72 501.68,493.80 502.37,494.01 503.06,493.98 503.74,493.96 504.43,494.37 505.12,494.45 505.81,494.71 506.50,494.69 507.18,494.63 507.87,494.65 508.56,494.54 509.25,494.46 509.94,494.23 510.62,494.54 511.31,494.89 512.00,494.82 512.69,495.02 513.38,495.08 514.06,495.14 514.75,495.06 515.44,495.25 516.13,495.08 516.82,495.46 517.50,495.40 518.19,495.51 518.88,495.65 519.57,495.71 520.26,495.42 520.94,495.59 521.63,495.44 522.32,495.48 523.01,495.15 523.70,495.14 524.38,495.09 525.07,495.26 525.76,495.23 526.45,495.48 527.14,495.76 527.82,495.93 528.51,495.86 529.20,495.77 529.89,496.04 530.58,495.64 531.26,495.73 531.95,495.96 532.64,495.76 533.33,496.00 534.02,496.24 534.70,496.45 535.39,496.38 536.08,496.36 536.77,496.25 537.46,496.71 538.14,496.69 538.83,496.61 539.52,496.57 540.21,496.78 540.90,496.64 541.58,496.87 542.27,496.85 542.96,496.98 543.65,496.83 544.34,496.70 545.02,496.61 545.71,496.47 546.40,496.68 547.09,496.42 547.78,496.64 548.46,496.64 549.15,496.55 549.84,496.77 550.53,496.90 551.22,496.64 551.90,496.63 552.59,496.57 553.28,496.61 553.97,496.89 554.66,496.93 555.34,496.78 556.03,496.84 556.72,496.93 557.41,496.85 558.10,497.15 558.78,497.22 559.47,497.15 560.16,497.17 560.85,496.98 561.54,496.96 562.22,496.79 562.91,497.03 563.60,497.11 564.29,497.13 564.98,497.32 565.66,497.17 566.35,497.43 567.04,497.34 567.73,497.25 568.42,497.05 569.10,497.22 569.79,497.00 570.48,496.82 571.17,496.74 571.86,496.65 572.54,496.93 573.23,497.03 573.92,496.84 574.61,497.09 575.30,497.13 575.98,497.17 576.67,497.39 577.36,497.28 578.05,497.62 578.74,497.55 579.42,497.86 580.11,497.77 580.80,497.55 581.49,497.66 582.18,497.42 582.86,497.50 583.55,497.29 584.24,497.56 584.93,497.48 585.62,497.69 586.30,497.19 586.99,497.24 587.68,497.29 588.37,497.00 589.06,497.00 589.74,496.84 590.43,497.02 591.12,497.21 591.81,496.93 592.50,496.90 593.18,497.02 593.87,496.94 594.56,496.97 595.25,496.80 595.94,496.99 596.62,496.88 597.31,496.88 598.00,496.95 598.69,496.91 599.38,497.21 600.06,497.56 600.75,497.67 601.44,497.46 602.13,497.69 602.82,497.95 603.50,498.34 604.19,498.73 604.88,498.98 605.57,499.13 606.26,499.24 606.94,499.34 607.63,499.04 608.32,498.81 609.01,498.90 609.70,498.85 610.38,498.65 611.07,498.62 611.76,498.75 612.45,499.13 613.14,499.22 613.82,499.14 614.51,499.18 615.20,499.25 615.89,499.23 616.58,499.29 617.26,499.17 617.95,499.18 618.64,499.17 619.33,499.11 620.02,498.79 620.70,498.89 621.39,498.68 622.08,498.50 622.77,498.71 623.46,498.69 624.14,498.71 624.83,498.75 625.52,499.04 626.21,499.40 626.90,499.59 627.58,500.04 628.27,500.07 628.96,500.01 629.65,499.60 630.34,499.53 631.02,499.66 631.71,499.51 632.40,499.69 633.09,499.94 633.78,499.68 634.46,499.28 635.15,499.18 635.84,499.50 636.53,499.41 637.22,499.70 637.90,499.75 638.59,499.81 639.28,499.74 639.97,499.33 640.66,499.33 641.34,499.36 642.03,499.49 642.72,499.38 643.41,499.23 644.10,499.00 644.78,498.65 645.47,498.80 646.16,498.97 646.85,499.22 647.54,499.45 648.22,499.49 648.91,499.57 649.60,499.53 650.29,499.44 650.98,499.58 651.66,499.75 652.35,499.86 653.04,499.75 653.73,499.72 654.42,499.63 655.10,499.51 655.79,499.67 656.48,499.79 657.17,500.18 657.86,499.95 658.54,499.85 659.23,499.86 659.92,499.84 660.61,499.80 661.30,499.89 661.98,500.01 662.67,499.84 663.36,499.80 664.05,499.84 664.74,499.61 665.42,499.66 666.11,499.80 666.80,499.58 667.49,499.61 668.18,499.54 668.86,499.77 669.55,499.96 670.24,499.77 670.93,499.66 671.62,499.63 672.30,499.72 672.99,499.79 673.68,499.71 674.37,499.83 675.06,500.22 675.74,500.25 676.43,500.42 677.12,500.42 677.81,500.35 678.50,500.36 679.18,500.36 679.87,500.43 680.56,500.56 681.25,500.63 681.94,500.75 682.62,500.86 683.31,501.11 684.00,501.21 684.69,501.15 685.38,501.36 686.06,501.16 686.75,501.13 687.44,501.18 688.13,501.11 688.82,500.93 689.50,501.03 690.19,500.68 690.88,500.88 691.57,500.51 692.26,500.66 692.94,500.78 693.63,500.78 694.32,501.00 695.01,500.98 695.70,501.15 696.38,501.22 697.07,501.05 697.76,500.73 698.45,500.72 699.14,500.53 699.82,500.32 700.51,500.17 701.20,500.22 701.89,500.33 702.58,500.22 703.26,500.47 703.95,500.47 704.64,500.62 705.33,500.82 706.02,501.09 706.70,501.12 707.39,501.46 708.08,501.33 708.77,501.64 709.46,501.13 710.14,501.03 710.83,500.88 711.52,500.85 712.21,500.91 712.90,500.68 713.58,500.73 714.27,500.93 714.96,501.47 715.65,501.59 716.34,501.97 717.02,501.99 717.71,501.82 718.40,502.04 719.09,502.13 719.78,502.13 720.46,502.06 721.15,502.10 721.84,502.16 722.53,502.33 723.22,502.45 723.90,502.23 724.59,502.03 725.28,502.09 725.97,501.87 726.66,502.24 727.34,502.24 728.03,502.46 728.72,502.51 729.41,502.57 730.10,502.61 730.78,502.39 731.47,502.57 732.16,502.10 732.85,502.15 733.54,502.08 734.22,501.97 734.91,502.17 735.60,501.82 736.29,501.63 736.98,501.49 737.66,501.48 738.35,501.13 739.04,501.12 739.73,501.05 740.42,501.04 741.10,501.19 741.79,501.22 742.48,501.36 743.17,501.53 743.86,501.40 744.54,501.18 745.23,501.19 745.92,501.05 746.61,501.30 747.30,501.44 747.98,501.60 748.67,501.33 749.36,501.29 750.05,501.29 750.74,501.19 751.42,501.37 752.11,501.28 752.80,501.37 753.49,501.40 754.18,501.50 754.86,501.67 755.55,502.04 756.24,501.84 756.93,502.06 757.62,502.01 758.30,501.98 758.99,501.92 759.68,502.06 760.37,502.07 761.06,502.04 761.74,502.17 762.43,502.07 763.12,502.09 763.81,502.10 764.50,501.95 765.18,501.90 765.87,502.16 766.56,502.11 767.25,502.08 767.94,502.20 768.62,502.28 769.31,502.28 770.00,502.38" fill="none" stroke="#2563eb" stroke-width="1.5" opacity="0.35"/>
<polyline points="99.20,292.80 116.40,378.85 133.60,417.20 150.80,435.55 168.00,446.90 185.20,455.17 202.40,461.00 219.60,465.04 236.80,468.38 254.00,470.72 271.20,473.79 288.40,477.01 305.60,478.50 322.80,479.20 340.00,481.98 357.20,483.68 374.40,486.26 391.60,486.90 408.80,487.03 426.00,490.60 443.20,490.11 460.40,489.79 477.60,492.11 494.80,493.26 512.00,494.09 529.20,494.17 546.40,495.47 563.60,496.20 580.80,498.09 598.00,499.75 615.20,499.02 632.40,498.96 649.60,499.71 666.80,500.26 684.00,500.67 701.20,500.80 718.40,500.35 735.60,501.25 752.80,500.09 770.00,500.96" fill="none" stroke="#2563eb" stroke-width="2.5"/>
<circle cx="99.20" cy="292.80" r="2.4" fill="#2563eb"/>
<circle cx="116.40" cy="378.85" r="2.4" fill="#2563eb"/>
<circle cx="133.60" cy="417.20" r="2.4" fill="#2563eb"/>
<circle cx="150.80" cy="435.55" r="2.4" fill="#2563eb"/>
<circle cx="168.00" cy="446.90" r="2.4" fill="#2563eb"/>
<circle cx="185.20" cy="455.17" r="2.4" fill="#2563eb"/>
<circle cx="202.40" cy="461.00" r="2.4" fill="#2563eb"/>
<circle cx="219.60" cy="465.04" r="2.4" fill="#2563eb"/>
<circle cx="236.80" cy="468.38" r="2.4" fill="#2563eb"/>
<circle cx="254.00" cy="470.72" r="2.4" fill="#2563eb"/>
<circle cx="271.20" cy="473.79" r="2.4" fill="#2563eb"/>
<circle cx="288.40" cy="477.01" r="2.4" fill="#2563eb"/>
<circle cx="305.60" cy="478.50" r="2.4" fill="#2563eb"/>
<circle cx="322.80" cy="479.20" r="2.4" fill="#2563eb"/>
<circle cx="340.00" cy="481.98" r="2.4" fill="#2563eb"/>
<circle cx="357.20" cy="483.68" r="2.4" fill="#2563eb"/>
<circle cx="374.40" cy="486.26" r="2.4" fill="#2563eb"/>
<circle cx="391.60" cy="486.90" r="2.4" fill="#2563eb"/>
<circle cx="408.80" cy="487.03" r="2.4" fill="#2563eb"/>
<circle cx="426.00" cy="490.60" r="2.4" fill="#2563eb"/>
<circle cx="443.20" cy="490.11" r="2.4" fill="#2563eb"/>
<circle cx="460.40" cy="489.79" r="2.4" fill="#2563eb"/>
<circle cx="477.60" cy="492.11" r="2.4" fill="#2563eb"/>
<circle cx="494.80" cy="493.26" r="2.4" fill="#2563eb"/>
<circle cx="512.00" cy="494.09" r="2.4" fill="#2563eb"/>
<circle cx="529.20" cy="494.17" r="2.4" fill="#2563eb"/>
<circle cx="546.40" cy="495.47" r="2.4" fill="#2563eb"/>
<circle cx="563.60" cy="496.20" r="2.4" fill="#2563eb"/>
<circle cx="580.80" cy="498.09" r="2.4" fill="#2563eb"/>
<circle cx="598.00" cy="499.75" r="2.4" fill="#2563eb"/>
<circle cx="615.20" cy="499.02" r="2.4" fill="#2563eb"/>
<circle cx="632.40" cy="498.96" r="2.4" fill="#2563eb"/>
<circle cx="649.60" cy="499.71" r="2.4" fill="#2563eb"/>
<circle cx="666.80" cy="500.26" r="2.4" fill="#2563eb"/>
<circle cx="684.00" cy="500.67" r="2.4" fill="#2563eb"/>
<circle cx="701.20" cy="500.80" r="2.4" fill="#2563eb"/>
<circle cx="718.40" cy="500.35" r="2.4" fill="#2563eb"/>
<circle cx="735.60" cy="501.25" r="2.4" fill="#2563eb"/>
<circle cx="752.80" cy="500.09" r="2.4" fill="#2563eb"/>
<circle cx="770.00" cy="500.96" r="2.4" fill="#2563eb"/>
<polyline points="82.07,78.00 82.69,78.00 83.38,78.00 84.06,78.00 84.75,78.00 85.44,78.00 86.13,78.00 86.82,78.00 87.50,78.00 88.19,78.00 88.88,78.00 89.57,78.00 90.26,78.00 90.94,78.00 91.63,78.00 92.32,78.00 93.01,78.00 93.70,78.00 94.38,78.00 95.07,78.00 95.76,78.00 96.45,78.00 97.14,78.00 97.82,79.92 98.51,89.80 99.20,119.98 99.89,149.93 100.58,178.59 101.26,204.31 101.95,227.42 102.64,247.39 103.33,264.22 104.02,278.16 104.70,290.07 105.39,300.03 106.08,308.89 106.77,316.56 107.46,323.46 108.14,329.45 108.83,334.98 109.52,340.23 110.21,345.16 110.90,349.57 111.58,353.61 112.27,357.50 112.96,361.85 113.65,365.53 114.34,368.63 115.02,371.52 115.71,374.64 116.40,377.69 117.09,380.77 117.78,382.95 118.46,385.49 119.15,388.02 119.84,390.46 120.53,392.76 121.22,394.65 121.90,396.69 122.59,398.69 123.28,400.54 123.97,402.15 124.66,403.96 125.34,405.81 126.03,407.74 126.72,409.41 127.41,410.97 128.10,412.41 128.78,413.87 129.47,415.29 130.16,416.65 130.85,417.78 131.54,419.18 132.22,420.61 132.91,421.74 133.60,423.22 134.29,423.99 134.98,425.72 135.66,426.54 136.35,427.33 137.04,428.29 137.73,429.15 138.42,430.22 139.10,430.81 139.79,431.83 140.48,432.49 141.17,433.48 141.86,434.26 142.54,434.84 143.23,435.58 143.92,436.19 144.61,437.02 145.30,437.77 145.98,438.45 146.67,439.14 147.36,439.61 148.05,440.36 148.74,440.99 149.42,441.38 150.11,441.81 150.80,442.12 151.49,442.65 152.18,442.64 152.86,443.36 153.55,443.65 154.24,444.00 154.93,444.30 155.62,444.58 156.30,445.09 156.99,445.38 157.68,445.85 158.37,446.48 159.06,447.17 159.74,447.84 160.43,448.62 161.12,449.10 161.81,449.09 162.50,449.39 163.18,450.04 163.87,450.33 164.56,451.01 165.25,451.43 165.94,451.85 166.62,452.29 167.31,452.79 168.00,453.09 168.69,453.62 169.38,453.90 170.06,454.24 170.75,455.07 171.44,455.35 172.13,455.74 172.82,456.33 173.50,456.73 174.19,457.25 174.88,457.77 175.57,457.92 176.26,458.21 176.94,458.24 177.63,458.12 178.32,458.00 179.01,458.66 179.70,459.34 180.38,459.36 181.07,459.78 181.76,459.75 182.45,459.82 183.14,459.77 183.82,460.04 184.51,460.32 185.20,460.53 185.89,460.78 186.58,460.87 187.26,461.03 187.95,460.98 188.64,461.44 189.33,461.64 190.02,461.92 190.70,462.02 191.39,461.99 192.08,461.87 192.77,462.42 193.46,462.59 194.14,462.92 194.83,463.02 195.52,463.80 196.21,463.70 196.90,463.62 197.58,463.97 198.27,463.89 198.96,464.40 199.65,464.40 200.34,464.79 201.02,465.02 201.71,465.34 202.40,465.58 203.09,465.79 203.78,466.22 204.46,466.41 205.15,466.40 205.84,466.72 206.53,467.15 207.22,467.22 207.90,467.65 208.59,467.96 209.28,468.37 209.97,468.00 210.66,468.01 211.34,468.08 212.03,468.34 212.72,468.31 213.41,468.68 214.10,468.92 214.78,469.01 215.47,469.43 216.16,469.28 216.85,470.06 217.54,470.19 218.22,470.51 218.91,470.39 219.60,470.60 220.29,470.39 220.98,470.38 221.66,470.53 222.35,470.90 223.04,470.74 223.73,470.67 224.42,470.70 225.10,470.58 225.79,470.74 226.48,471.12 227.17,471.23 227.86,471.43 228.54,471.53 229.23,471.70 229.92,471.64 230.61,471.59 231.30,472.00 231.98,472.01 232.67,471.97 233.36,472.07 234.05,471.72 234.74,471.83 235.42,471.52 236.11,471.87 236.80,471.76 237.49,472.10 238.18,472.34 238.86,472.35 239.55,472.27 240.24,472.56 240.93,472.65 241.62,472.89 242.30,473.15 242.99,473.08 243.68,472.79 244.37,472.90 245.06,473.11 245.74,473.54 246.43,473.62 247.12,474.16 247.81,474.41 248.50,474.04 249.18,474.45 249.87,474.70 250.56,474.71 251.25,474.86 251.94,474.97 252.62,475.63 253.31,475.74 254.00,476.25 254.69,476.55 255.38,476.44 256.06,476.54 256.75,476.89 257.44,476.67 258.13,477.12 258.82,477.26 259.50,477.33 260.19,477.28 260.88,477.66 261.57,478.01 262.26,478.14 262.94,478.01 263.63,478.08 264.32,478.02 265.01,477.87 265.70,478.21 266.38,478.06 267.07,478.17 267.76,478.31 268.45,478.48 269.14,478.57 269.82,478.43 270.51,478.19 271.20,478.07 271.89,477.84 272.58,478.14 273.26,478.08 273.95,477.80 274.64,478.06 275.33,477.89 276.02,477.86 276.70,477.97 277.39,478.53 278.08,478.46 278.77,478.29 279.46,478.54 280.14,478.63 280.83,478.79 281.52,478.83 282.21,479.16 282.90,479.26 283.58,479.34 284.27,479.26 284.96,479.76 285.65,480.21 286.34,480.31 287.02,480.21 287.71,480.62 288.40,480.66 289.09,480.73 289.78,480.83 290.46,481.24 291.15,481.37 291.84,481.53 292.53,481.44 293.22,481.47 293.90,481.47 294.59,481.38 295.28,481.46 295.97,481.56 296.66,481.40 297.34,481.65 298.03,481.72 298.72,481.72 299.41,481.86 300.10,481.98 300.78,482.19 301.47,482.13 302.16,482.21 302.85,481.71 303.54,482.01 304.22,482.20 304.91,482.25 305.60,482.29 306.29,482.43 306.98,482.67 307.66,482.40 308.35,482.76 309.04,482.94 309.73,483.26 310.42,483.41 311.10,483.45 311.79,483.47 312.48,483.61 313.17,483.64 313.86,483.72 314.54,483.56 315.23,483.64 315.92,483.63 316.61,483.67 317.30,484.00 317.98,483.98 318.67,484.20 319.36,484.10 320.05,484.26 320.74,484.13 321.42,484.03 322.11,483.82 322.80,484.12 323.49,484.38 324.18,484.38 324.86,484.87 325.55,484.65 326.24,484.50 326.93,484.50 327.62,484.58 328.30,484.63 328.99,484.93 329.68,484.83 330.37,485.28 331.06,485.39 331.74,485.74 332.43,485.43 333.12,485.53 333.81,485.67 334.50,485.20 335.18,485.28 335.87,485.57 336.56,485.43 337.25,485.73 337.94,485.83 338.62,486.12 339.31,486.40 340.00,486.11 340.69,485.84 341.38,486.05 342.06,485.80 342.75,486.09 343.44,486.07 344.13,486.25 344.82,486.45 345.50,486.45 346.19,486.32 346.88,486.25 347.57,486.20 348.26,486.08 348.94,486.26 349.63,486.84 350.32,487.09 351.01,487.00 351.70,487.33 352.38,487.45 353.07,487.17 353.76,487.28 354.45,487.19 355.14,487.12 355.82,487.16 356.51,487.08 357.20,487.26 357.89,487.51 358.58,487.45 359.26,487.63 359.95,487.86 360.64,487.88 361.33,487.78 362.02,487.81 362.70,488.30 363.39,488.31 364.08,488.53 364.77,488.54 365.46,488.79 366.14,488.47 366.83,488.30 367.52,488.36 368.21,488.53 368.90,487.92 369.58,488.01 370.27,488.14 370.96,488.31 371.65,488.40 372.34,488.68 373.02,488.87 373.71,489.22 374.40,489.32 375.09,489.68 375.78,489.75 376.46,489.98 377.15,489.66 377.84,489.99 378.53,490.09 379.22,490.08 379.90,489.86 380.59,489.84 381.28,490.26 381.97,490.37 382.66,490.39 383.34,490.61 384.03,490.69 384.72,490.54 385.41,490.34 386.10,491.09 386.78,491.00 387.47,491.23 388.16,491.42 388.85,491.49 389.54,491.52 390.22,491.36 390.91,491.17 391.60,491.06 392.29,491.14 392.98,490.91 393.66,490.67 394.35,490.91 395.04,490.97 395.73,491.16 396.42,491.31 397.10,491.54 397.79,491.65 398.48,491.49 399.17,491.19 399.86,491.24 400.54,491.07 401.23,491.07 401.92,491.49 402.61,491.41 403.30,491.21 403.98,491.38 404.67,491.64 405.36,491.66 406.05,491.90 406.74,491.77 407.42,492.02 408.11,492.05 408.80,492.29 409.49,492.35 410.18,492.29 410.86,492.46 411.55,492.52 412.24,492.46 412.93,492.44 413.62,492.38 414.30,492.41 414.99,492.31 415.68,492.40 416.37,492.73 417.06,492.85 417.74,493.05 418.43,493.28 419.12,493.18 419.81,493.37 420.50,493.55 421.18,493.87 421.87,493.62 422.56,493.72 423.25,493.78 423.94,494.06 424.62,493.91 425.31,493.90 426.00,493.90 426.69,493.74 427.38,494.06 428.06,494.01 428.75,494.02 429.44,493.95 430.13,494.10 430.82,494.08 431.50,493.92 432.19,494.36 432.88,494.46 433.57,494.52 434.26,494.53 434.94,494.56 435.63,494.38 436.32,494.30 437.01,494.50 437.70,494.82 438.38,494.37 439.07,494.51 439.76,494.46 440.45,494.38 441.14,494.39 441.82,494.50 442.51,495.05 443.20,495.27 443.89,495.27 444.58,495.45 445.26,495.87 445.95,496.10 446.64,496.25 447.33,496.19 448.02,496.30 448.70,496.56 449.39,496.26 450.08,496.06 450.77,496.31 451.46,496.34 452.14,496.22 452.83,496.48 453.52,496.49 454.21,496.44 454.90,496.43 455.58,496.63 456.27,496.68 456.96,496.68 457.65,496.75 458.34,496.71 459.02,496.94 459.71,496.69 460.40,496.47 461.09,496.50 461.78,496.37 462.46,496.09 463.15,496.07 463.84,496.03 464.53,496.00 465.22,495.96 465.90,495.97 466.59,496.11 467.28,496.25 467.97,495.97 468.66,496.10 469.34,496.06 470.03,496.02 470.72,496.10 471.41,496.29 472.10,495.83 472.78,495.89 473.47,495.85 474.16,495.96 474.85,495.98 475.54,496.25 476.22,496.14 476.91,495.96 477.60,495.88 478.29,496.06 478.98,496.07 479.66,496.11 480.35,496.01 481.04,496.39 481.73,496.54 482.42,496.66 483.10,496.77 483.79,496.63 484.48,496.87 485.17,497.04 485.86,496.87 486.54,497.09 487.23,496.98 487.92,497.17 488.61,497.07 489.30,497.38 489.98,497.43 490.67,497.61 491.36,497.53 492.05,497.55 492.74,497.33 493.42,497.38 494.11,497.55 494.80,497.94 495.49,498.18 496.18,498.30 496.86,498.25 497.55,498.31 498.24,498.10 498.93,497.75 499.62,497.85 500.30,497.64 500.99,497.95 501.68,497.60 502.37,497.62 503.06,497.71 503.74,497.92 504.43,498.12 505.12,497.95 505.81,498.39 506.50,498.55 507.18,498.50 507.87,498.45 508.56,498.39 509.25,498.31 509.94,498.42 510.62,498.50 511.31,498.78 512.00,498.62 512.69,498.46 513.38,498.56 514.06,498.74 514.75,498.71 515.44,498.98 516.13,499.31 516.82,499.45 517.50,499.71 518.19,500.02 518.88,500.33 519.57,500.49 520.26,500.55 520.94,500.49 521.63,500.61 522.32,500.82 523.01,500.82 523.70,500.94 524.38,501.18 525.07,501.14 525.76,501.30 526.45,501.27 527.14,501.08 527.82,501.04 528.51,500.87 529.20,501.10 529.89,501.00 530.58,500.98 531.26,501.35 531.95,501.58 532.64,501.55 533.33,501.76 534.02,501.79 534.70,501.91 535.39,501.50 536.08,501.18 536.77,500.93 537.46,501.00 538.14,501.18 538.83,501.04 539.52,501.16 540.21,501.02 540.90,501.10 541.58,501.04 542.27,501.19 542.96,501.15 543.65,501.25 544.34,501.74 545.02,501.82 545.71,501.90 546.40,501.86 547.09,501.90 547.78,502.00 548.46,501.70 549.15,501.70 549.84,501.42 550.53,501.46 551.22,501.63 551.90,501.51 552.59,501.63 553.28,502.00 553.97,502.32 554.66,502.61 555.34,502.57 556.03,502.64 556.72,502.56 557.41,502.71 558.10,502.66 558.78,502.58 559.47,502.63 560.16,502.94 560.85,502.98 561.54,502.83 562.22,502.75 562.91,503.00 563.60,503.20 564.29,503.39 564.98,503.31 565.66,503.46 566.35,503.38 567.04,503.53 567.73,503.22 568.42,503.14 569.10,503.13 569.79,503.30 570.48,503.17 571.17,503.05 571.86,502.72 572.54,502.82 573.23,503.14 573.92,503.04 574.61,503.18 575.30,503.03 575.98,503.34 576.67,503.38 577.36,503.24 578.05,503.37 578.74,503.35 579.42,503.16 580.11,502.94 580.80,502.80 581.49,502.74 582.18,502.78 582.86,502.74 583.55,502.54 584.24,502.54 584.93,502.86 585.62,503.08 586.30,503.02 586.99,503.24 587.68,503.46 588.37,503.70 589.06,503.56 589.74,503.62 590.43,503.08 591.12,503.29 591.81,503.07 592.50,503.07 593.18,502.89 593.87,502.99 594.56,503.13 595.25,503.03 595.94,503.07 596.62,503.30 597.31,503.46 598.00,503.56 598.69,503.52 599.38,503.68 600.06,503.83 600.75,504.04 601.44,504.31 602.13,504.26 602.82,504.00 603.50,504.05 604.19,504.17 604.88,504.17 605.57,504.10 606.26,504.33 606.94,504.10 607.63,504.32 608.32,504.29 609.01,504.21 609.70,504.47 610.38,504.65 611.07,504.55 611.76,504.56 612.45,504.64 613.14,504.75 613.82,504.89 614.51,504.81 615.20,504.73 615.89,504.71 616.58,504.57 617.26,504.50 617.95,504.36 618.64,504.25 619.33,504.22 620.02,504.66 620.70,504.55 621.39,504.28 622.08,504.39 622.77,504.20 623.46,504.59 624.14,504.77 624.83,504.88 625.52,504.86 626.21,505.00 626.90,505.02 627.58,504.82 628.27,504.89 628.96,505.00 629.65,505.10 630.34,505.27 631.02,505.39 631.71,505.41 632.40,505.59 633.09,505.97 633.78,506.05 634.46,506.19 635.15,506.73 635.84,506.76 636.53,506.91 637.22,506.42 637.90,506.60 638.59,506.49 639.28,506.52 639.97,506.54 640.66,506.60 641.34,506.58 642.03,506.61 642.72,506.83 643.41,506.68 644.10,506.49 644.78,506.75 645.47,506.80 646.16,506.56 646.85,506.52 647.54,506.37 648.22,506.23 648.91,506.35 649.60,506.29 650.29,506.25 650.98,506.27 651.66,506.12 652.35,506.06 653.04,506.15 653.73,506.19 654.42,506.05 655.10,506.23 655.79,506.39 656.48,506.47 657.17,506.69 657.86,506.33 658.54,506.44 659.23,506.38 659.92,506.29 660.61,506.54 661.30,506.57 661.98,506.51 662.67,506.48 663.36,506.58 664.05,506.73 664.74,506.57 665.42,506.57 666.11,506.55 666.80,506.71 667.49,506.67 668.18,506.75 668.86,506.61 669.55,506.51 670.24,506.57 670.93,506.43 671.62,506.79 672.30,506.62 672.99,506.78 673.68,506.50 674.37,506.61 675.06,506.80 675.74,506.67 676.43,507.01 677.12,507.14 677.81,507.04 678.50,507.19 679.18,506.95 679.87,507.14 680.56,506.98 681.25,507.11 681.94,507.05 682.62,507.09 683.31,507.27 684.00,507.15 684.69,507.04 685.38,507.01 686.06,507.17 686.75,507.47 687.44,507.32 688.13,507.28 688.82,507.26 689.50,507.59 690.19,507.41 690.88,507.66 691.57,507.43 692.26,507.34 692.94,507.32 693.63,507.02 694.32,506.99 695.01,507.25 695.70,507.19 696.38,507.42 697.07,507.38 697.76,507.38 698.45,507.19 699.14,507.22 699.82,507.42 700.51,507.52 701.20,507.63 701.89,507.60 702.58,507.72 703.26,507.79 703.95,507.55 704.64,507.61 705.33,507.93 706.02,507.88 706.70,507.57 707.39,507.61 708.08,507.82 708.77,507.97 709.46,507.89 710.14,508.08 710.83,508.32 711.52,508.31 712.21,508.01 712.90,508.03 713.58,508.08 714.27,508.07 714.96,508.44 715.65,508.52 716.34,508.68 717.02,508.50 717.71,508.32 718.40,508.44 719.09,508.36 719.78,508.27 720.46,508.31 721.15,508.16 721.84,508.16 722.53,508.22 723.22,508.40 723.90,508.56 724.59,508.81 725.28,508.64 725.97,508.71 726.66,508.95 727.34,508.69 728.03,508.90 728.72,508.81 729.41,508.98 730.10,509.03 730.78,508.79 731.47,508.84 732.16,508.67 732.85,508.66 733.54,508.88 734.22,508.96 734.91,508.88 735.60,508.51 736.29,508.61 736.98,508.84 737.66,508.84 738.35,509.40 739.04,509.63 739.73,509.35 740.42,509.17 741.10,509.17 741.79,509.14 742.48,509.07 743.17,508.88 743.86,508.61 744.54,508.72 745.23,508.35 745.92,508.39 746.61,508.56 747.30,508.46 747.98,508.81 748.67,508.57 749.36,508.54 750.05,508.46 750.74,508.39 751.42,508.44 752.11,508.40 752.80,508.65 753.49,508.62 754.18,508.43 754.86,508.52 755.55,508.14 756.24,508.03 756.93,508.14 757.62,508.25 758.30,508.31 758.99,508.13 759.68,508.16 760.37,508.37 761.06,508.51 761.74,508.49 762.43,508.53 763.12,508.42 763.81,508.18 764.50,508.34 765.18,508.37 765.87,508.74 766.56,508.77 767.25,508.81 767.94,508.49 768.62,508.67 769.31,508.65 770.00,508.62" fill="none" stroke="#16a34a" stroke-width="1.5" opacity="0.35"/>
<polyline points="99.20,336.22 116.40,405.89 133.60,435.13 150.80,448.31 168.00,458.66 185.20,463.02 202.40,467.22 219.60,471.92 236.80,474.75 254.00,476.56 271.20,478.41 288.40,482.16 305.60,483.03 322.80,485.77 340.00,487.13 357.20,487.89 374.40,488.46 391.60,492.89 408.80,493.50 426.00,494.54 443.20,495.43 460.40,495.97 477.60,497.16 494.80,497.20 512.00,499.17 529.20,499.66 546.40,500.85 563.60,501.35 580.80,502.52 598.00,503.02 615.20,503.33 632.40,505.52 649.60,506.09 666.80,506.18 684.00,506.88 701.20,506.59 718.40,506.27 735.60,506.98 752.80,508.28 770.00,508.60" fill="none" stroke="#16a34a" stroke-width="2.5"/>
<circle cx="99.20" cy="336.22" r="2.4" fill="#16a34a"/>
<circle cx="116.40" cy="405.89" r="2.4" fill="#16a34a"/>
<circle cx="133.60" cy="435.13" r="2.4" fill="#16a34a"/>
<circle cx="150.80" cy="448.31" r="2.4" fill="#16a34a"/>
<circle cx="168.00" cy="458.66" r="2.4" fill="#16a34a"/>
<circle cx="185.20" cy="463.02" r="2.4" fill="#16a34a"/>
<circle cx="202.40" cy="467.22" r="2.4" fill="#16a34a"/>
<circle cx="219.60" cy="471.92" r="2.4" fill="#16a34a"/>
<circle cx="236.80" cy="474.75" r="2.4" fill="#16a34a"/>
<circle cx="254.00" cy="476.56" r="2.4" fill="#16a34a"/>
<circle cx="271.20" cy="478.41" r="2.4" fill="#16a34a"/>
<circle cx="288.40" cy="482.16" r="2.4" fill="#16a34a"/>
<circle cx="305.60" cy="483.03" r="2.4" fill="#16a34a"/>
<circle cx="322.80" cy="485.77" r="2.4" fill="#16a34a"/>
<circle cx="340.00" cy="487.13" r="2.4" fill="#16a34a"/>
<circle cx="357.20" cy="487.89" r="2.4" fill="#16a34a"/>
<circle cx="374.40" cy="488.46" r="2.4" fill="#16a34a"/>
<circle cx="391.60" cy="492.89" r="2.4" fill="#16a34a"/>
<circle cx="408.80" cy="493.50" r="2.4" fill="#16a34a"/>
<circle cx="426.00" cy="494.54" r="2.4" fill="#16a34a"/>
<circle cx="443.20" cy="495.43" r="2.4" fill="#16a34a"/>
<circle cx="460.40" cy="495.97" r="2.4" fill="#16a34a"/>
<circle cx="477.60" cy="497.16" r="2.4" fill="#16a34a"/>
<circle cx="494.80" cy="497.20" r="2.4" fill="#16a34a"/>
<circle cx="512.00" cy="499.17" r="2.4" fill="#16a34a"/>
<circle cx="529.20" cy="499.66" r="2.4" fill="#16a34a"/>
<circle cx="546.40" cy="500.85" r="2.4" fill="#16a34a"/>
<circle cx="563.60" cy="501.35" r="2.4" fill="#16a34a"/>
<circle cx="580.80" cy="502.52" r="2.4" fill="#16a34a"/>
<circle cx="598.00" cy="503.02" r="2.4" fill="#16a34a"/>
<circle cx="615.20" cy="503.33" r="2.4" fill="#16a34a"/>
<circle cx="632.40" cy="505.52" r="2.4" fill="#16a34a"/>
<circle cx="649.60" cy="506.09" r="2.4" fill="#16a34a"/>
<circle cx="666.80" cy="506.18" r="2.4" fill="#16a34a"/>
<circle cx="684.00" cy="506.88" r="2.4" fill="#16a34a"/>
<circle cx="701.20" cy="506.59" r="2.4" fill="#16a34a"/>
<circle cx="718.40" cy="506.27" r="2.4" fill="#16a34a"/>
<circle cx="735.60" cy="506.98" r="2.4" fill="#16a34a"/>
<circle cx="752.80" cy="508.28" r="2.4" fill="#16a34a"/>
<circle cx="770.00" cy="508.60" r="2.4" fill="#16a34a"/>
<polyline points="82.07,78.00 82.69,78.00 83.38,78.00 84.06,78.00 84.75,78.00 85.44,78.00 86.13,78.00 86.82,78.00 87.50,78.00 88.19,78.00 88.88,78.00 89.57,78.00 90.26,78.00 90.94,78.29 91.63,94.83 92.32,109.94 93.01,123.64 93.70,136.36 94.38,148.23 95.07,158.96 95.76,168.27 96.45,177.53 97.14,186.35 97.82,194.56 98.51,201.98 99.20,234.18 99.89,264.64 100.58,290.26 101.26,309.74 101.95,323.97 102.64,335.09 103.33,343.97 104.02,351.32 104.70,358.14 105.39,363.97 106.08,369.31 106.77,374.12 107.46,378.35 108.14,381.75 108.83,385.00 109.52,388.07 110.21,390.79 110.90,393.05 111.58,395.14 112.27,397.21 112.96,399.69 113.65,401.66 114.34,402.96 115.02,404.17 115.71,405.85 116.40,407.41 117.09,408.94 117.78,409.78" fill="none" stroke="#dc2626" stroke-width="1.5" opacity="0.35"/>
<polyline points="99.20,387.65 116.40,419.16" fill="none" stroke="#dc2626" stroke-width="2.5"/>
<circle cx="99.20" cy="387.65" r="2.4" fill="#dc2626"/>
<circle cx="116.40" cy="419.16" r="2.4" fill="#dc2626"/>
<line x1="794" y1="86" x2="819" y2="86" stroke="#7c3aed" stroke-width="3"/>
<text x="828" y="90" font-family="sans-serif" font-size="12" fill="#111827">LR 3e-4</text>
<line x1="794" y1="116" x2="819" y2="116" stroke="#2563eb" stroke-width="3"/>
<text x="828" y="120" font-family="sans-serif" font-size="12" fill="#111827">LR 6e-4</text>
<line x1="794" y1="146" x2="819" y2="146" stroke="#16a34a" stroke-width="3"/>
<text x="828" y="150" font-family="sans-serif" font-size="12" fill="#111827">LR 1.2e-3</text>
<line x1="794" y1="176" x2="819" y2="176" stroke="#dc2626" stroke-width="3"/>
<text x="828" y="180" font-family="sans-serif" font-size="12" fill="#111827">LR 4.8e-3 (diverged)</text>
<text x="794" y="228" font-family="sans-serif" font-size="11" fill="#6b7280">faint: smoothed train</text>
<text x="794" y="244" font-family="sans-serif" font-size="11" fill="#6b7280">solid + dots: validation</text>
</svg>
