<svg xmlns="http://www.w3.org/2000/svg" width="1000" height="600" viewBox="0 0 1000 600">
<rect width="100%" height="100%" fill="#ffffff"/>
<text x="82" y="34" font-family="sans-serif" font-size="22" font-weight="700" fill="#111827">OpenWebText training</text>
<text x="82" y="57" font-family="sans-serif" font-size="13" fill="#4b5563">4-layer model, batch 128, 10,000 steps, 327.68M tokens</text>
<line x1="82" y1="528.00" x2="770" y2="528.00" stroke="#e5e7eb"/>
<text x="70" y="532.00" text-anchor="end" font-family="sans-serif" font-size="12" fill="#4b5563">3.50</text>
<line x1="82" y1="438.00" x2="770" y2="438.00" stroke="#e5e7eb"/>
<text x="70" y="442.00" text-anchor="end" font-family="sans-serif" font-size="12" fill="#4b5563">4.90</text>
<line x1="82" y1="348.00" x2="770" y2="348.00" stroke="#e5e7eb"/>
<text x="70" y="352.00" text-anchor="end" font-family="sans-serif" font-size="12" fill="#4b5563">6.30</text>
<line x1="82" y1="258.00" x2="770" y2="258.00" stroke="#e5e7eb"/>
<text x="70" y="262.00" text-anchor="end" font-family="sans-serif" font-size="12" fill="#4b5563">7.70</text>
<line x1="82" y1="168.00" x2="770" y2="168.00" stroke="#e5e7eb"/>
<text x="70" y="172.00" text-anchor="end" font-family="sans-serif" font-size="12" fill="#4b5563">9.10</text>
<line x1="82" y1="78.00" x2="770" y2="78.00" stroke="#e5e7eb"/>
<text x="70" y="82.00" text-anchor="end" font-family="sans-serif" font-size="12" fill="#4b5563">10.50</text>
<line x1="82.00" y1="78" x2="82.00" y2="528" stroke="#f3f4f6"/>
<text x="82.00" y="553" text-anchor="middle" font-family="sans-serif" font-size="12" fill="#4b5563">0</text>
<line x1="219.60" y1="78" x2="219.60" y2="528" stroke="#f3f4f6"/>
<text x="219.60" y="553" text-anchor="middle" font-family="sans-serif" font-size="12" fill="#4b5563">66</text>
<line x1="357.20" y1="78" x2="357.20" y2="528" stroke="#f3f4f6"/>
<text x="357.20" y="553" text-anchor="middle" font-family="sans-serif" font-size="12" fill="#4b5563">131</text>
<line x1="494.80" y1="78" x2="494.80" y2="528" stroke="#f3f4f6"/>
<text x="494.80" y="553" text-anchor="middle" font-family="sans-serif" font-size="12" fill="#4b5563">197</text>
<line x1="632.40" y1="78" x2="632.40" y2="528" stroke="#f3f4f6"/>
<text x="632.40" y="553" text-anchor="middle" font-family="sans-serif" font-size="12" fill="#4b5563">262</text>
<line x1="770.00" y1="78" x2="770.00" y2="528" stroke="#f3f4f6"/>
<text x="770.00" y="553" text-anchor="middle" font-family="sans-serif" font-size="12" fill="#4b5563">328</text>
<line x1="82" y1="528" x2="770" y2="528" stroke="#111827"/>
<line x1="82" y1="78" x2="82" y2="528" stroke="#111827"/>
<text x="426.0" y="580" text-anchor="middle" font-family="sans-serif" font-size="13" fill="#111827">Processed tokens (millions)</text>
<text x="22" y="303.0" transform="rotate(-90 22 303.0)" text-anchor="middle" font-family="sans-serif" font-size="13" fill="#111827">Cross-entropy loss</text>
<polyline points="82.07,85.18 82.69,86.42 83.38,89.79 84.06,96.50 84.75,106.15 85.44,117.99 86.13,131.05 86.82,144.57 87.50,157.28 88.19,169.22 88.88,179.44 89.57,189.10 90.26,197.35 90.94,205.50 91.63,213.12 92.32,220.03 93.01,226.67 93.70,232.72 94.38,238.46 95.07,243.85 95.76,248.86 96.45,253.52 97.14,257.87 97.82,261.98 98.51,265.97 99.20,277.05 99.89,288.13 100.58,299.18 101.26,309.26 101.95,318.17 102.64,326.17 103.33,332.93 104.02,338.49 104.70,343.32 105.39,347.55 106.08,351.79 106.77,355.43 107.46,358.98 108.14,362.11 108.83,364.86 109.52,367.69 110.21,370.21 110.90,372.51 111.58,374.90 112.27,377.06 112.96,379.36 113.65,381.54 114.34,383.66 115.02,385.40 115.71,387.23 116.40,388.96 117.09,390.74 117.78,391.88 118.46,393.44 119.15,395.20 119.84,396.65 120.53,398.13 121.22,399.46 121.90,400.92 122.59,402.20 123.28,403.32 123.97,404.56 124.66,405.97 125.34,407.21 126.03,408.42 126.72,409.23 127.41,410.32 128.10,411.52 128.78,412.26 129.47,413.26 130.16,414.17 130.85,415.03 131.54,415.73 132.22,416.90 132.91,417.76 133.60,418.59 134.29,419.34 134.98,420.36 135.66,421.05 136.35,421.92 137.04,422.59 137.73,423.21 138.42,423.99 139.10,424.56 139.79,425.26 140.48,425.94 141.17,426.43 141.86,426.86 142.54,427.43 143.23,427.99 143.92,428.76 144.61,429.15 145.30,429.70 145.98,430.19 146.67,430.73 147.36,431.00 148.05,431.24 148.74,431.88 149.42,432.16 150.11,432.60 150.80,432.82 151.49,433.14 152.18,433.55 152.86,434.02 153.55,434.42 154.24,434.72 154.93,434.84 155.62,435.24 156.30,435.58 156.99,435.95 157.68,436.26 158.37,436.89 159.06,437.07 159.74,437.20 160.43,437.72 161.12,437.83 161.81,438.39 162.50,438.36 163.18,438.88 163.87,439.16 164.56,439.32 165.25,439.67 165.94,439.87 166.62,440.19 167.31,440.50 168.00,441.10 168.69,441.29 169.38,441.50 170.06,441.65 170.75,441.84 171.44,442.14 172.13,442.55 172.82,442.67 173.50,442.91 174.19,443.38 174.88,443.59 175.57,443.57 176.26,444.05 176.94,444.34 177.63,444.09 178.32,444.56 179.01,444.59 179.70,444.79 180.38,444.98 181.07,444.96 181.76,445.28 182.45,445.66 183.14,445.67 183.82,445.86 184.51,445.82 185.20,446.00 185.89,446.44 186.58,446.79 187.26,447.24 187.95,447.32 188.64,447.57 189.33,447.74 190.02,448.06 190.70,448.36 191.39,448.43 192.08,448.62 192.77,448.96 193.46,449.10 194.14,449.43 194.83,449.91 195.52,449.95 196.21,450.16 196.90,450.64 197.58,450.84 198.27,451.03 198.96,451.26 199.65,451.38 200.34,451.79 201.02,452.12 201.71,452.39 202.40,452.38 203.09,452.54 203.78,452.82 204.46,452.96 205.15,453.18 205.84,453.40 206.53,453.63 207.22,453.78 207.90,453.95 208.59,453.84 209.28,454.10 209.97,454.14 210.66,454.51 211.34,454.38 212.03,454.47 212.72,455.03 213.41,455.21 214.10,455.36 214.78,455.72 215.47,455.98 216.16,456.19 216.85,456.37 217.54,456.64 218.22,456.78 218.91,457.28 219.60,457.73 220.29,457.99 220.98,458.10 221.66,458.32 222.35,458.51 223.04,458.58 223.73,458.70 224.42,459.02 225.10,459.36 225.79,459.86 226.48,460.08 227.17,460.24 227.86,460.38 228.54,460.73 229.23,460.99 229.92,460.71 230.61,460.81 231.30,461.05 231.98,460.91 232.67,461.01 233.36,461.05 234.05,461.26 234.74,461.28 235.42,461.44 236.11,461.10 236.80,460.95 237.49,461.07 238.18,461.07 238.86,461.30 239.55,461.37 240.24,461.71 240.93,462.10 241.62,462.09 242.30,462.04 242.99,461.94 243.68,462.09 244.37,462.27 245.06,462.43 245.74,462.70 246.43,462.82 247.12,463.11 247.81,463.36 248.50,463.49 249.18,463.76 249.87,464.06 250.56,464.25 251.25,464.35 251.94,464.33 252.62,464.32 253.31,464.79 254.00,465.16 254.69,465.09 255.38,465.46 256.06,465.45 256.75,465.63 257.44,465.72 258.13,465.91 258.82,465.89 259.50,466.11 260.19,466.16 260.88,466.30 261.57,466.57 262.26,466.43 262.94,466.65 263.63,467.01 264.32,467.05 265.01,467.08 265.70,467.34 266.38,467.49 267.07,467.59 267.76,467.89 268.45,467.83 269.14,468.13 269.82,468.10 270.51,468.08 271.20,468.18 271.89,468.40 272.58,468.35 273.26,468.57 273.95,468.63 274.64,468.55 275.33,468.39 276.02,468.69 276.70,468.53 277.39,468.60 278.08,468.54 278.77,468.63 279.46,468.94 280.14,468.92 280.83,468.81 281.52,469.18 282.21,469.29 282.90,469.31 283.58,469.26 284.27,469.38 284.96,469.35 285.65,469.45 286.34,469.56 287.02,469.81 287.71,469.78 288.40,469.80 289.09,469.78 289.78,469.89 290.46,469.88 291.15,470.09 291.84,470.53 292.53,470.45 293.22,470.50 293.90,470.73 294.59,471.12 295.28,471.31 295.97,471.26 296.66,471.21 297.34,471.24 298.03,471.60 298.72,471.39 299.41,471.37 300.10,471.22 300.78,471.42 301.47,471.34 302.16,471.31 302.85,471.43 303.54,471.28 304.22,471.31 304.91,471.52 305.60,471.47 306.29,471.69 306.98,471.94 307.66,472.30 308.35,472.17 309.04,471.91 309.73,472.19 310.42,472.28 311.10,472.33 311.79,472.32 312.48,472.17 313.17,472.37 313.86,472.36 314.54,472.40 315.23,472.18 315.92,472.40 316.61,472.64 317.30,472.51 317.98,472.31 318.67,472.52 319.36,472.68 320.05,472.73 320.74,473.05 321.42,473.13 322.11,473.21 322.80,473.44 323.49,473.40 324.18,473.08 324.86,472.96 325.55,473.07 326.24,473.12 326.93,473.25 327.62,473.28 328.30,473.17 328.99,473.18 329.68,473.59 330.37,473.52 331.06,473.68 331.74,473.70 332.43,473.95 333.12,474.02 333.81,473.92 334.50,474.13 335.18,474.17 335.87,474.08 336.56,474.18 337.25,474.28 337.94,474.28 338.62,474.33 339.31,474.33 340.00,474.39 340.69,474.59 341.38,474.92 342.06,474.85 342.75,475.01 343.44,475.27 344.13,475.10 344.82,475.20 345.50,475.49 346.19,475.57 346.88,475.33 347.57,475.47 348.26,475.58 348.94,475.88 349.63,475.71 350.32,475.59 351.01,475.77 351.70,475.97 352.38,476.20 353.07,476.21 353.76,476.20 354.45,476.36 355.14,476.56 355.82,476.69 356.51,476.70 357.20,476.64 357.89,476.43 358.58,476.29 359.26,476.29 359.95,476.35 360.64,476.25 361.33,476.54 362.02,476.73 362.70,476.57 363.39,476.52 364.08,476.64 364.77,476.72 365.46,476.60 366.14,476.50 366.83,476.47 367.52,476.38 368.21,476.47 368.90,476.49 369.58,476.51 370.27,476.64 370.96,476.65 371.65,476.59 372.34,476.37 373.02,476.32 373.71,476.27 374.40,476.36 375.09,476.54 375.78,476.50 376.46,476.49 377.15,476.60 377.84,476.59 378.53,476.48 379.22,476.37 379.90,476.56 380.59,476.58 381.28,476.75 381.97,476.63 382.66,476.66 383.34,476.80 384.03,476.95 384.72,477.16 385.41,477.07 386.10,477.17 386.78,477.41 387.47,477.52 388.16,477.54 388.85,477.41 389.54,477.65 390.22,477.83 390.91,478.05 391.60,478.07 392.29,478.08 392.98,478.31 393.66,478.58 394.35,478.53 395.04,478.66 395.73,478.77 396.42,478.85 397.10,478.95 397.79,478.90 398.48,478.82 399.17,478.93 399.86,479.20 400.54,479.28 401.23,479.30 401.92,479.45 402.61,479.52 403.30,479.45 403.98,479.41 404.67,479.56 405.36,479.68 406.05,479.83 406.74,479.73 407.42,479.88 408.11,480.03 408.80,480.23 409.49,480.41 410.18,480.49 410.86,480.57 411.55,480.50 412.24,480.64 412.93,480.79 413.62,480.87 414.30,480.75 414.99,480.88 415.68,480.81 416.37,480.95 417.06,480.91 417.74,480.70 418.43,480.75 419.12,480.70 419.81,480.70 420.50,480.75 421.18,480.76 421.87,480.52 422.56,480.60 423.25,480.82 423.94,480.89 424.62,480.68 425.31,480.60 426.00,480.63 426.69,480.53 427.38,480.46 428.06,480.41 428.75,480.46 429.44,480.47 430.13,480.44 430.82,480.37 431.50,480.59 432.19,480.74 432.88,480.90 433.57,480.98 434.26,480.99 434.94,481.02 435.63,481.04 436.32,481.19 437.01,481.31 437.70,481.38 438.38,481.58 439.07,481.73 439.76,481.98 440.45,482.00 441.14,482.11 441.82,482.05 442.51,482.19 443.20,482.39 443.89,482.59 444.58,482.65 445.26,482.46 445.95,482.74 446.64,482.79 447.33,482.90 448.02,482.97 448.70,483.10 449.39,483.15 450.08,483.28 450.77,483.33 451.46,483.33 452.14,483.54 452.83,483.58 453.52,483.68 454.21,483.67 454.90,483.98 455.58,483.76 456.27,483.84 456.96,483.38 457.65,483.36 458.34,483.09 459.02,483.24 459.71,483.14 460.40,482.90 461.09,482.83 461.78,482.80 462.46,483.08 463.15,482.86 463.84,482.98 464.53,482.91 465.22,482.91 465.90,482.63 466.59,482.77 467.28,482.86 467.97,482.81 468.66,483.03 469.34,482.72 470.03,482.85 470.72,482.76 471.41,482.85 472.10,482.79 472.78,483.10 473.47,483.15 474.16,483.66 474.85,483.69 475.54,484.00 476.22,484.34 476.91,484.58 477.60,484.57 478.29,484.69 478.98,484.70 479.66,484.77 480.35,484.77 481.04,484.80 481.73,484.92 482.42,485.00 483.10,485.18 483.79,485.25 484.48,485.28 485.17,485.30 485.86,485.43 486.54,485.78 487.23,485.84 487.92,485.85 488.61,486.06 489.30,485.94 489.98,485.55 490.67,485.43 491.36,485.38 492.05,485.44 492.74,485.48 493.42,485.32 494.11,485.31 494.80,485.29 495.49,485.45 496.18,485.59 496.86,485.59 497.55,485.95 498.24,485.82 498.93,485.63 499.62,485.63 500.30,485.93 500.99,485.87 501.68,485.77 502.37,485.88 503.06,485.75 503.74,485.78 504.43,485.87 505.12,485.93 505.81,485.63 506.50,485.74 507.18,485.96 507.87,486.28 508.56,486.11 509.25,486.26 509.94,486.28 510.62,486.41 511.31,486.43 512.00,486.46 512.69,486.29 513.38,486.45 514.06,486.49 514.75,486.32 515.44,486.57 516.13,486.60 516.82,486.82 517.50,486.71 518.19,486.74 518.88,486.90 519.57,486.87 520.26,486.75 520.94,486.80 521.63,486.76 522.32,486.82 523.01,487.10 523.70,487.29 524.38,487.24 525.07,487.20 525.76,487.33 526.45,487.41 527.14,487.32 527.82,487.21 528.51,487.38 529.20,487.59 529.89,487.60 530.58,487.57 531.26,487.48 531.95,487.62 532.64,487.34 533.33,487.63 534.02,487.49 534.70,487.59 535.39,487.59 536.08,487.66 536.77,487.59 537.46,487.71 538.14,487.94 538.83,487.97 539.52,488.12 540.21,488.19 540.90,488.05 541.58,488.20 542.27,488.26 542.96,488.08 543.65,488.15 544.34,488.19 545.02,488.27 545.71,488.11 546.40,488.12 547.09,488.32 547.78,488.16 548.46,488.19 549.15,488.16 549.84,488.30 550.53,488.24 551.22,488.35 551.90,488.20 552.59,488.21 553.28,488.17 553.97,488.36 554.66,488.39 555.34,488.41 556.03,488.56 556.72,488.61 557.41,488.72 558.10,488.77 558.78,488.84 559.47,488.81 560.16,489.18 560.85,489.12 561.54,489.26 562.22,489.11 562.91,489.14 563.60,489.39 564.29,489.42 564.98,489.55 565.66,489.69 566.35,489.70 567.04,489.67 567.73,489.80 568.42,489.97 569.10,489.92 569.79,489.92 570.48,489.89 571.17,489.97 571.86,490.26 572.54,490.08 573.23,490.06 573.92,490.07 574.61,489.91 575.30,489.94 575.98,490.01 576.67,490.21 577.36,490.03 578.05,490.11 578.74,490.07 579.42,490.06 580.11,490.00 580.80,489.86 581.49,489.96 582.18,490.06 582.86,490.31 583.55,490.33 584.24,490.47 584.93,490.28 585.62,490.30 586.30,490.51 586.99,490.72 587.68,490.70 588.37,490.56 589.06,490.51 589.74,490.66 590.43,490.71 591.12,490.68 591.81,490.80 592.50,490.84 593.18,490.98 593.87,490.90 594.56,490.95 595.25,490.86 595.94,491.03 596.62,491.32 597.31,491.57 598.00,491.55 598.69,491.53 599.38,491.68 600.06,491.59 600.75,491.74 601.44,491.83 602.13,492.04 602.82,491.74 603.50,491.72 604.19,491.55 604.88,491.62 605.57,491.72 606.26,491.60 606.94,491.62 607.63,491.51 608.32,491.52 609.01,491.40 609.70,491.30 610.38,491.05 611.07,490.89 611.76,491.05 612.45,491.07 613.14,491.05 613.82,490.98 614.51,490.85 615.20,490.87 615.89,490.84 616.58,490.76 617.26,490.80 617.95,490.71 618.64,490.72 619.33,490.60 620.02,490.87 620.70,490.87 621.39,491.00 622.08,491.07 622.77,490.96 623.46,491.08 624.14,491.05 624.83,491.14 625.52,491.19 626.21,491.11 626.90,491.12 627.58,491.09 628.27,491.32 628.96,491.19 629.65,491.17 630.34,491.27 631.02,491.09 631.71,491.26 632.40,491.30 633.09,491.27 633.78,491.30 634.46,491.45 635.15,491.43 635.84,491.47 636.53,491.61 637.22,491.63 637.90,491.60 638.59,491.35 639.28,491.50 639.97,491.61 640.66,491.61 641.34,491.67 642.03,491.68 642.72,491.90 643.41,492.17 644.10,492.36 644.78,492.74 645.47,492.66 646.16,492.91 646.85,492.94 647.54,492.92 648.22,493.25 648.91,493.19 649.60,493.31 650.29,493.51 650.98,493.59 651.66,493.33 652.35,493.42 653.04,493.58 653.73,493.67 654.42,493.54 655.10,493.71 655.79,493.92 656.48,493.78 657.17,493.87 657.86,493.94 658.54,493.69 659.23,493.54 659.92,493.38 660.61,493.37 661.30,493.46 661.98,493.35 662.67,493.37 663.36,493.19 664.05,493.33 664.74,493.28 665.42,493.16 666.11,492.99 666.80,492.83 667.49,492.78 668.18,492.63 668.86,492.59 669.55,492.74 670.24,492.42 670.93,492.41 671.62,492.57 672.30,492.60 672.99,492.62 673.68,492.68 674.37,492.80 675.06,492.65 675.74,492.99 676.43,493.18 677.12,493.22 677.81,493.20 678.50,493.03 679.18,492.76 679.87,492.83 680.56,492.88 681.25,492.91 681.94,492.84 682.62,493.07 683.31,493.39 684.00,493.41 684.69,493.48 685.38,493.64 686.06,493.73 686.75,493.61 687.44,493.91 688.13,493.85 688.82,493.80 689.50,493.59 690.19,493.62 690.88,493.57 691.57,493.37 692.26,493.41 692.94,493.31 693.63,493.33 694.32,493.35 695.01,493.26 695.70,493.34 696.38,493.68 697.07,493.73 697.76,493.75 698.45,493.76 699.14,494.01 699.82,493.75 700.51,493.57 701.20,493.63 701.89,493.53 702.58,493.53 703.26,493.67 703.95,493.78 704.64,493.50 705.33,493.38 706.02,493.35 706.70,493.70 707.39,494.10 708.08,494.13 708.77,494.34 709.46,494.54 710.14,494.57 710.83,494.45 711.52,494.54 712.21,494.55 712.90,494.43 713.58,494.43 714.27,494.47 714.96,494.56 715.65,494.52 716.34,494.48 717.02,494.74 717.71,494.85 718.40,494.96 719.09,494.85 719.78,494.88 720.46,494.83 721.15,494.91 721.84,495.08 722.53,495.20 723.22,495.29 723.90,495.15 724.59,494.82 725.28,494.75 725.97,494.77 726.66,494.71 727.34,494.73 728.03,494.82 728.72,494.71 729.41,494.75 730.10,494.92 730.78,494.80 731.47,494.69 732.16,494.80 732.85,494.66 733.54,494.53 734.22,494.44 734.91,494.46 735.60,494.60 736.29,494.73 736.98,494.79 737.66,494.87 738.35,494.84 739.04,494.91 739.73,494.90 740.42,494.97 741.10,494.90 741.79,494.84 742.48,495.09 743.17,494.92 743.86,494.91 744.54,495.11 745.23,495.03 745.92,495.11 746.61,495.02 747.30,494.77 747.98,495.04 748.67,495.24 749.36,495.26 750.05,495.59 750.74,496.03 751.42,496.22 752.11,496.22 752.80,495.94 753.49,495.87 754.18,495.70 754.86,495.63 755.55,495.44 756.24,495.35 756.93,495.43 757.62,495.31 758.30,495.38 758.99,495.59 759.68,495.58 760.37,495.88 761.06,495.86 761.74,495.86 762.43,495.77 763.12,495.75 763.81,495.97 764.50,496.15 765.18,496.14 765.87,496.07 766.56,495.91 767.25,495.70 767.94,495.49 768.62,495.26 769.31,495.28 770.00,495.47" fill="none" stroke="#2563eb" stroke-width="1.5" opacity="0.35"/>
<polyline points="99.20,362.57 116.40,406.47 133.60,427.57 150.80,436.73 168.00,443.14 185.20,450.45 202.40,455.62 219.60,459.30 236.80,463.02 254.00,466.57 271.20,468.74 288.40,471.07 305.60,473.12 322.80,474.00 340.00,475.88 357.20,477.35 374.40,478.30 391.60,478.47 408.80,480.51 426.00,481.30 443.20,483.21 460.40,483.71 477.60,485.56 494.80,486.21 512.00,486.76 529.20,488.48 546.40,488.12 563.60,489.26 580.80,489.16 598.00,490.48 615.20,492.00 632.40,491.85 649.60,494.01 666.80,493.49 684.00,494.24 701.20,495.45 718.40,493.73 735.60,494.83 752.80,495.31 770.00,495.55" fill="none" stroke="#2563eb" stroke-width="2.5"/>
<circle cx="99.20" cy="362.57" r="2.4" fill="#2563eb"/>
<circle cx="116.40" cy="406.47" r="2.4" fill="#2563eb"/>
<circle cx="133.60" cy="427.57" r="2.4" fill="#2563eb"/>
<circle cx="150.80" cy="436.73" r="2.4" fill="#2563eb"/>
<circle cx="168.00" cy="443.14" r="2.4" fill="#2563eb"/>
<circle cx="185.20" cy="450.45" r="2.4" fill="#2563eb"/>
<circle cx="202.40" cy="455.62" r="2.4" fill="#2563eb"/>
<circle cx="219.60" cy="459.30" r="2.4" fill="#2563eb"/>
<circle cx="236.80" cy="463.02" r="2.4" fill="#2563eb"/>
<circle cx="254.00" cy="466.57" r="2.4" fill="#2563eb"/>
<circle cx="271.20" cy="468.74" r="2.4" fill="#2563eb"/>
<circle cx="288.40" cy="471.07" r="2.4" fill="#2563eb"/>
<circle cx="305.60" cy="473.12" r="2.4" fill="#2563eb"/>
<circle cx="322.80" cy="474.00" r="2.4" fill="#2563eb"/>
<circle cx="340.00" cy="475.88" r="2.4" fill="#2563eb"/>
<circle cx="357.20" cy="477.35" r="2.4" fill="#2563eb"/>
<circle cx="374.40" cy="478.30" r="2.4" fill="#2563eb"/>
<circle cx="391.60" cy="478.47" r="2.4" fill="#2563eb"/>
<circle cx="408.80" cy="480.51" r="2.4" fill="#2563eb"/>
<circle cx="426.00" cy="481.30" r="2.4" fill="#2563eb"/>
<circle cx="443.20" cy="483.21" r="2.4" fill="#2563eb"/>
<circle cx="460.40" cy="483.71" r="2.4" fill="#2563eb"/>
<circle cx="477.60" cy="485.56" r="2.4" fill="#2563eb"/>
<circle cx="494.80" cy="486.21" r="2.4" fill="#2563eb"/>
<circle cx="512.00" cy="486.76" r="2.4" fill="#2563eb"/>
<circle cx="529.20" cy="488.48" r="2.4" fill="#2563eb"/>
<circle cx="546.40" cy="488.12" r="2.4" fill="#2563eb"/>
<circle cx="563.60" cy="489.26" r="2.4" fill="#2563eb"/>
<circle cx="580.80" cy="489.16" r="2.4" fill="#2563eb"/>
<circle cx="598.00" cy="490.48" r="2.4" fill="#2563eb"/>
<circle cx="615.20" cy="492.00" r="2.4" fill="#2563eb"/>
<circle cx="632.40" cy="491.85" r="2.4" fill="#2563eb"/>
<circle cx="649.60" cy="494.01" r="2.4" fill="#2563eb"/>
<circle cx="666.80" cy="493.49" r="2.4" fill="#2563eb"/>
<circle cx="684.00" cy="494.24" r="2.4" fill="#2563eb"/>
<circle cx="701.20" cy="495.45" r="2.4" fill="#2563eb"/>
<circle cx="718.40" cy="493.73" r="2.4" fill="#2563eb"/>
<circle cx="735.60" cy="494.83" r="2.4" fill="#2563eb"/>
<circle cx="752.80" cy="495.31" r="2.4" fill="#2563eb"/>
<circle cx="770.00" cy="495.55" r="2.4" fill="#2563eb"/>
<line x1="794" y1="86" x2="819" y2="86" stroke="#2563eb" stroke-width="3"/>
<text x="828" y="90" font-family="sans-serif" font-size="12" fill="#111827">OWT</text>
<text x="794" y="138" font-family="sans-serif" font-size="11" fill="#6b7280">faint: smoothed train</text>
<text x="794" y="154" font-family="sans-serif" font-size="11" fill="#6b7280">solid + dots: validation</text>
</svg>
